<?xml version="1.0" encoding="UTF-8" standalone="no"?>
<!DOCTYPE svg PUBLIC "-//W3C//DTD SVG 1.1//EN"
 "http://www.w3.org/Graphics/SVG/1.1/DTD/svg11.dtd">
<!-- Generated by graphviz version 2.36.0 (20140111.2315)
 -->
<!-- Title: MenuBarModel::Listener Pages: 1 -->
<svg width="251pt" height="84pt"
 viewBox="0.00 0.00 251.00 84.00" xmlns="http://www.w3.org/2000/svg" xmlns:xlink="http://www.w3.org/1999/xlink">
<g id="graph0" class="graph" transform="scale(1 1) rotate(0) translate(4 80)">
<title>MenuBarModel::Listener</title>
<!-- Node1 -->
<g id="node1" class="node"><title>Node1</title>
<polygon fill="#bfbfbf" stroke="black" points="63,-56.5 63,-75.5 185,-75.5 185,-56.5 63,-56.5"/>
<text text-anchor="middle" x="124" y="-63.5" font-family="Helvetica,sans-Serif" font-size="10.00">MenuBarModel::Listener</text>
</g>
<!-- Node2 -->
<g id="node2" class="node"><title>Node2</title>
<g id="a_node2"><a xlink:href="classBurgerMenuComponent.html" target="_top" xlink:title="A component which lists all menu items and groups them into categories by their respective parent men...">
<polygon fill="none" stroke="black" points="-0.5,-0.5 -0.5,-19.5 118.5,-19.5 118.5,-0.5 -0.5,-0.5"/>
<text text-anchor="middle" x="59" y="-7.5" font-family="Helvetica,sans-Serif" font-size="10.00">BurgerMenuComponent</text>
</a>
</g>
</g>
<!-- Node1&#45;&gt;Node2 -->
<g id="edge1" class="edge"><title>Node1&#45;&gt;Node2</title>
<path fill="none" stroke="#8b1a1a" d="M105.727,-49.8197C94.0822,-40.1452 79.4005,-27.9481 69.6334,-19.8339"/>
<polygon fill="#8b1a1a" stroke="#8b1a1a" points="103.628,-52.6259 113.557,-56.324 108.101,-47.2416 103.628,-52.6259"/>
</g>
<!-- Node3 -->
<g id="node3" class="node"><title>Node3</title>
<g id="a_node3"><a xlink:href="classMenuBarComponent.html" target="_top" xlink:title="A menu bar component. ">
<polygon fill="none" stroke="black" points="137,-0.5 137,-19.5 243,-19.5 243,-0.5 137,-0.5"/>
<text text-anchor="middle" x="190" y="-7.5" font-family="Helvetica,sans-Serif" font-size="10.00">MenuBarComponent</text>
</a>
</g>
</g>
<!-- Node1&#45;&gt;Node3 -->
<g id="edge2" class="edge"><title>Node1&#45;&gt;Node3</title>
<path fill="none" stroke="#8b1a1a" d="M142.554,-49.8197C154.378,-40.1452 169.286,-27.9481 179.203,-19.8339"/>
<polygon fill="#8b1a1a" stroke="#8b1a1a" points="140.127,-47.2827 134.604,-56.324 144.56,-52.7004 140.127,-47.2827"/>
</g>
</g>
</svg>
