<?xml version="1.0" encoding="UTF-8" standalone="no"?>
<!DOCTYPE svg PUBLIC "-//W3C//DTD SVG 1.1//EN"
 "http://www.w3.org/Graphics/SVG/1.1/DTD/svg11.dtd">
<!-- Generated by graphviz version 2.36.0 (20140111.2315)
 -->
<!-- Title: DeletedAtShutdown Pages: 1 -->
<svg width="427pt" height="84pt"
 viewBox="0.00 0.00 427.00 84.00" xmlns="http://www.w3.org/2000/svg" xmlns:xlink="http://www.w3.org/1999/xlink">
<g id="graph0" class="graph" transform="scale(1 1) rotate(0) translate(4 80)">
<title>DeletedAtShutdown</title>
<!-- Node1 -->
<g id="node1" class="node"><title>Node1</title>
<polygon fill="#bfbfbf" stroke="black" points="139,-56.5 139,-75.5 243,-75.5 243,-56.5 139,-56.5"/>
<text text-anchor="middle" x="191" y="-63.5" font-family="Helvetica,sans-Serif" font-size="10.00">DeletedAtShutdown</text>
</g>
<!-- Node2 -->
<g id="node2" class="node"><title>Node2</title>
<g id="a_node2"><a xlink:href="classDesktop.html" target="_top" xlink:title="Describes and controls aspects of the computer&#39;s desktop. ">
<polygon fill="none" stroke="black" points="-0.5,-0.5 -0.5,-19.5 52.5,-19.5 52.5,-0.5 -0.5,-0.5"/>
<text text-anchor="middle" x="26" y="-7.5" font-family="Helvetica,sans-Serif" font-size="10.00">Desktop</text>
</a>
</g>
</g>
<!-- Node1&#45;&gt;Node2 -->
<g id="edge1" class="edge"><title>Node1&#45;&gt;Node2</title>
<path fill="none" stroke="#8b1a1a" d="M155.264,-53.3044C124.173,-43.1294 79.8529,-28.6246 52.0224,-19.5164"/>
<polygon fill="#8b1a1a" stroke="#8b1a1a" points="154.263,-56.6595 164.855,-56.4435 156.44,-50.0067 154.263,-56.6595"/>
</g>
<!-- Node3 -->
<g id="node3" class="node"><title>Node3</title>
<g id="a_node3"><a xlink:href="classJUCESplashScreen.html" target="_top" xlink:title="The standard JUCE splash screen component. ">
<polygon fill="none" stroke="black" points="71,-0.5 71,-19.5 175,-19.5 175,-0.5 71,-0.5"/>
<text text-anchor="middle" x="123" y="-7.5" font-family="Helvetica,sans-Serif" font-size="10.00">JUCESplashScreen</text>
</a>
</g>
</g>
<!-- Node1&#45;&gt;Node3 -->
<g id="edge2" class="edge"><title>Node1&#45;&gt;Node3</title>
<path fill="none" stroke="#8b1a1a" d="M172.238,-50.1008C160,-40.3824 144.441,-28.0269 134.124,-19.8339"/>
<polygon fill="#8b1a1a" stroke="#8b1a1a" points="170.067,-52.846 180.075,-56.324 174.42,-47.3642 170.067,-52.846"/>
</g>
<!-- Node4 -->
<g id="node4" class="node"><title>Node4</title>
<g id="a_node4"><a xlink:href="classModalComponentManager.html" target="_top" xlink:title="Manages the system&#39;s stack of modal components. ">
<polygon fill="none" stroke="black" points="193.5,-0.5 193.5,-19.5 324.5,-19.5 324.5,-0.5 193.5,-0.5"/>
<text text-anchor="middle" x="259" y="-7.5" font-family="Helvetica,sans-Serif" font-size="10.00">ModalComponentManager</text>
</a>
</g>
</g>
<!-- Node1&#45;&gt;Node4 -->
<g id="edge3" class="edge"><title>Node1&#45;&gt;Node4</title>
<path fill="none" stroke="#8b1a1a" d="M209.762,-50.1008C222,-40.3824 237.559,-28.0269 247.876,-19.8339"/>
<polygon fill="#8b1a1a" stroke="#8b1a1a" points="207.58,-47.3642 201.925,-56.324 211.933,-52.846 207.58,-47.3642"/>
</g>
<!-- Node5 -->
<g id="node5" class="node"><title>Node5</title>
<g id="a_node5"><a xlink:href="classSplashScreen.html" target="_top" xlink:title="A component for showing a splash screen while your app starts up. ">
<polygon fill="none" stroke="black" points="342.5,-0.5 342.5,-19.5 419.5,-19.5 419.5,-0.5 342.5,-0.5"/>
<text text-anchor="middle" x="381" y="-7.5" font-family="Helvetica,sans-Serif" font-size="10.00">SplashScreen</text>
</a>
</g>
</g>
<!-- Node1&#45;&gt;Node5 -->
<g id="edge4" class="edge"><title>Node1&#45;&gt;Node5</title>
<path fill="none" stroke="#8b1a1a" d="M230.764,-53.6986C266.623,-43.507 318.571,-28.7429 351.035,-19.5164"/>
<polygon fill="#8b1a1a" stroke="#8b1a1a" points="229.768,-50.343 221.106,-56.4435 231.682,-57.0763 229.768,-50.343"/>
</g>
</g>
</svg>
