<?xml version="1.0" encoding="UTF-8" standalone="no"?>
<!DOCTYPE svg PUBLIC "-//W3C//DTD SVG 1.1//EN"
 "http://www.w3.org/Graphics/SVG/1.1/DTD/svg11.dtd">
<!-- Generated by graphviz version 2.36.0 (20140111.2315)
 -->
<!-- Title: juce::ComponentListener Pages: 1 -->
<svg width="344pt" height="230pt"
 viewBox="0.00 0.00 344.00 230.00" xmlns="http://www.w3.org/2000/svg" xmlns:xlink="http://www.w3.org/1999/xlink">
<g id="graph0" class="graph" transform="scale(1 1) rotate(0) translate(4 226)">
<title>juce::ComponentListener</title>
<!-- Node1 -->
<g id="node1" class="node"><title>Node1</title>
<polygon fill="#bfbfbf" stroke="black" points="0.5,-107.5 0.5,-126.5 125.5,-126.5 125.5,-107.5 0.5,-107.5"/>
<text text-anchor="middle" x="63" y="-114.5" font-family="Helvetica,sans-Serif" font-size="10.00">juce::ComponentListener</text>
</g>
<!-- Node2 -->
<g id="node2" class="node"><title>Node2</title>
<g id="a_node2"><a xlink:href="classjuce_1_1ComponentMovementWatcher.html" target="_top" xlink:title="An object that watches for any movement of a component or any of its parent components. ">
<polygon fill="none" stroke="black" points="162.5,-202.5 162.5,-221.5 335.5,-221.5 335.5,-202.5 162.5,-202.5"/>
<text text-anchor="middle" x="249" y="-209.5" font-family="Helvetica,sans-Serif" font-size="10.00">juce::ComponentMovementWatcher</text>
</a>
</g>
</g>
<!-- Node1&#45;&gt;Node2 -->
<g id="edge1" class="edge"><title>Node1&#45;&gt;Node2</title>
<path fill="none" stroke="midnightblue" d="M80.8127,-133.893C99.172,-151.352 130.22,-178.095 162,-193 170.306,-196.896 179.443,-200.009 188.565,-202.492"/>
<polygon fill="midnightblue" stroke="midnightblue" points="82.9226,-131.062 73.3132,-126.6 78.0426,-136.081 82.9226,-131.062"/>
</g>
<!-- Node3 -->
<g id="node3" class="node"><title>Node3</title>
<g id="a_node3"><a xlink:href="classjuce_1_1DropShadower.html" target="_top" xlink:title="Adds a drop&#45;shadow to a component. ">
<polygon fill="none" stroke="black" points="196.5,-164.5 196.5,-183.5 301.5,-183.5 301.5,-164.5 196.5,-164.5"/>
<text text-anchor="middle" x="249" y="-171.5" font-family="Helvetica,sans-Serif" font-size="10.00">juce::DropShadower</text>
</a>
</g>
</g>
<!-- Node1&#45;&gt;Node3 -->
<g id="edge2" class="edge"><title>Node1&#45;&gt;Node3</title>
<path fill="none" stroke="#8b1a1a" d="M95.2226,-130.512C114.265,-138.398 139.243,-148.118 162,-155 173.709,-158.541 186.498,-161.724 198.549,-164.428"/>
<polygon fill="#8b1a1a" stroke="#8b1a1a" points="96.424,-127.22 85.8486,-126.579 93.7162,-133.675 96.424,-127.22"/>
</g>
<!-- Node4 -->
<g id="node4" class="node"><title>Node4</title>
<g id="a_node4"><a xlink:href="classjuce_1_1Label.html" target="_top" xlink:title="A component that displays a text string, and can optionally become a text editor when clicked...">
<polygon fill="none" stroke="black" points="217,-126.5 217,-145.5 281,-145.5 281,-126.5 217,-126.5"/>
<text text-anchor="middle" x="249" y="-133.5" font-family="Helvetica,sans-Serif" font-size="10.00">juce::Label</text>
</a>
</g>
</g>
<!-- Node1&#45;&gt;Node4 -->
<g id="edge3" class="edge"><title>Node1&#45;&gt;Node4</title>
<path fill="none" stroke="#8b1a1a" d="M135.731,-124.407C163.813,-127.307 194.547,-130.48 216.747,-132.773"/>
<polygon fill="#8b1a1a" stroke="#8b1a1a" points="135.832,-120.899 125.525,-123.353 135.113,-127.862 135.832,-120.899"/>
</g>
<!-- Node5 -->
<g id="node5" class="node"><title>Node5</title>
<g id="a_node5"><a xlink:href="classjuce_1_1MultiDocumentPanel.html" target="_top" xlink:title="A component that contains a set of other components either in floating windows or tabs...">
<polygon fill="none" stroke="black" points="183.5,-88.5 183.5,-107.5 314.5,-107.5 314.5,-88.5 183.5,-88.5"/>
<text text-anchor="middle" x="249" y="-95.5" font-family="Helvetica,sans-Serif" font-size="10.00">juce::MultiDocumentPanel</text>
</a>
</g>
</g>
<!-- Node1&#45;&gt;Node5 -->
<g id="edge4" class="edge"><title>Node1&#45;&gt;Node5</title>
<path fill="none" stroke="#8b1a1a" d="M135.71,-109.595C151.423,-107.973 167.967,-106.264 183.382,-104.672"/>
<polygon fill="#8b1a1a" stroke="#8b1a1a" points="135.113,-106.138 125.525,-110.647 135.832,-113.101 135.113,-106.138"/>
</g>
<!-- Node6 -->
<g id="node6" class="node"><title>Node6</title>
<g id="a_node6"><a xlink:href="classjuce_1_1RelativeCoordinatePositionerBase.html" target="_top" xlink:title="Base class for Component::Positioners that are based upon relative coordinates. ">
<polygon fill="none" stroke="black" points="187,-39 187,-69 311,-69 311,-39 187,-39"/>
<text text-anchor="start" x="195" y="-57" font-family="Helvetica,sans-Serif" font-size="10.00">juce::RelativeCoordinate</text>
<text text-anchor="middle" x="249" y="-46" font-family="Helvetica,sans-Serif" font-size="10.00">PositionerBase</text>
</a>
</g>
</g>
<!-- Node1&#45;&gt;Node6 -->
<g id="edge5" class="edge"><title>Node1&#45;&gt;Node6</title>
<path fill="none" stroke="midnightblue" d="M96.5249,-103.57C115.477,-95.9499 139.921,-86.4738 162,-79 172.162,-75.56 183.094,-72.1582 193.642,-69.0239"/>
<polygon fill="midnightblue" stroke="midnightblue" points="95.1107,-100.366 87.1562,-107.364 97.7387,-106.854 95.1107,-100.366"/>
</g>
<!-- Node7 -->
<g id="node7" class="node"><title>Node7</title>
<g id="a_node7"><a xlink:href="classjuce_1_1Viewport.html" target="_top" xlink:title="A Viewport is used to contain a larger child component, and allows the child to be automatically scro...">
<polygon fill="none" stroke="black" points="209.5,-0.5 209.5,-19.5 288.5,-19.5 288.5,-0.5 209.5,-0.5"/>
<text text-anchor="middle" x="249" y="-7.5" font-family="Helvetica,sans-Serif" font-size="10.00">juce::Viewport</text>
</a>
</g>
</g>
<!-- Node1&#45;&gt;Node7 -->
<g id="edge6" class="edge"><title>Node1&#45;&gt;Node7</title>
<path fill="none" stroke="#8b1a1a" d="M78.468,-99.7608C96.1247,-79.8716 127.872,-47.6482 162,-30 176.569,-22.4659 193.984,-17.7359 209.319,-14.7821"/>
<polygon fill="#8b1a1a" stroke="#8b1a1a" points="75.7061,-97.6034 71.7978,-107.451 80.9941,-102.19 75.7061,-97.6034"/>
</g>
</g>
</svg>
