<?xml version="1.0" encoding="UTF-8" standalone="no"?>
<!DOCTYPE svg PUBLIC "-//W3C//DTD SVG 1.1//EN"
 "http://www.w3.org/Graphics/SVG/1.1/DTD/svg11.dtd">
<!-- Generated by graphviz version 2.36.0 (20140111.2315)
 -->
<!-- Title: Drawable Pages: 1 -->
<svg width="416pt" height="252pt"
 viewBox="0.00 0.00 416.00 252.00" xmlns="http://www.w3.org/2000/svg" xmlns:xlink="http://www.w3.org/1999/xlink">
<g id="graph0" class="graph" transform="scale(1 1) rotate(0) translate(4 248)">
<title>Drawable</title>
<!-- Node1 -->
<g id="node1" class="node"><title>Node1</title>
<polygon fill="#bfbfbf" stroke="black" points="188,-112.5 188,-131.5 246,-131.5 246,-112.5 188,-112.5"/>
<text text-anchor="middle" x="217" y="-119.5" font-family="Helvetica,sans-Serif" font-size="10.00">Drawable</text>
</g>
<!-- Node4 -->
<g id="node4" class="node"><title>Node4</title>
<g id="a_node4"><a xlink:href="classDrawableComposite.html" target="_top" xlink:title="A drawable object which acts as a container for a set of other Drawables. ">
<polygon fill="none" stroke="black" points="-0.5,-56.5 -0.5,-75.5 104.5,-75.5 104.5,-56.5 -0.5,-56.5"/>
<text text-anchor="middle" x="52" y="-63.5" font-family="Helvetica,sans-Serif" font-size="10.00">DrawableComposite</text>
</a>
</g>
</g>
<!-- Node1&#45;&gt;Node4 -->
<g id="edge3" class="edge"><title>Node1&#45;&gt;Node4</title>
<path fill="none" stroke="midnightblue" d="M181.264,-109.304C150.173,-99.1294 105.853,-84.6246 78.0224,-75.5164"/>
<polygon fill="midnightblue" stroke="midnightblue" points="180.263,-112.659 190.855,-112.444 182.44,-106.007 180.263,-112.659"/>
</g>
<!-- Node5 -->
<g id="node5" class="node"><title>Node5</title>
<g id="a_node5"><a xlink:href="classDrawableImage.html" target="_top" xlink:title="A drawable object which is a bitmap image. ">
<polygon fill="none" stroke="black" points="122.5,-56.5 122.5,-75.5 207.5,-75.5 207.5,-56.5 122.5,-56.5"/>
<text text-anchor="middle" x="165" y="-63.5" font-family="Helvetica,sans-Serif" font-size="10.00">DrawableImage</text>
</a>
</g>
</g>
<!-- Node1&#45;&gt;Node5 -->
<g id="edge4" class="edge"><title>Node1&#45;&gt;Node5</title>
<path fill="none" stroke="midnightblue" d="M201.321,-104.718C192.155,-95.1997 180.947,-83.5608 173.427,-75.7511"/>
<polygon fill="midnightblue" stroke="midnightblue" points="198.956,-107.308 208.413,-112.083 203.998,-102.452 198.956,-107.308"/>
</g>
<!-- Node6 -->
<g id="node6" class="node"><title>Node6</title>
<g id="a_node6"><a xlink:href="classDrawableShape.html" target="_top" xlink:title="A base class implementing common functionality for Drawable classes which consist of some kind of fil...">
<polygon fill="none" stroke="black" points="226,-56.5 226,-75.5 312,-75.5 312,-56.5 226,-56.5"/>
<text text-anchor="middle" x="269" y="-63.5" font-family="Helvetica,sans-Serif" font-size="10.00">DrawableShape</text>
</a>
</g>
</g>
<!-- Node1&#45;&gt;Node6 -->
<g id="edge5" class="edge"><title>Node1&#45;&gt;Node6</title>
<path fill="none" stroke="midnightblue" d="M232.679,-104.718C241.845,-95.1997 253.053,-83.5608 260.573,-75.7511"/>
<polygon fill="midnightblue" stroke="midnightblue" points="230.002,-102.452 225.587,-112.083 235.044,-107.308 230.002,-102.452"/>
</g>
<!-- Node9 -->
<g id="node9" class="node"><title>Node9</title>
<g id="a_node9"><a xlink:href="classDrawableText.html" target="_top" xlink:title="A drawable object which renders a line of text. ">
<polygon fill="none" stroke="black" points="330.5,-56.5 330.5,-75.5 407.5,-75.5 407.5,-56.5 330.5,-56.5"/>
<text text-anchor="middle" x="369" y="-63.5" font-family="Helvetica,sans-Serif" font-size="10.00">DrawableText</text>
</a>
</g>
</g>
<!-- Node1&#45;&gt;Node9 -->
<g id="edge8" class="edge"><title>Node1&#45;&gt;Node9</title>
<path fill="none" stroke="midnightblue" d="M250.668,-109.039C279.268,-98.8786 319.612,-84.5457 345.028,-75.5164"/>
<polygon fill="midnightblue" stroke="midnightblue" points="249.336,-105.798 241.085,-112.444 251.68,-112.394 249.336,-105.798"/>
</g>
<!-- Node2 -->
<g id="node2" class="node"><title>Node2</title>
<g id="a_node2"><a xlink:href="classComponent.html" target="_top" xlink:title="The base class for all JUCE user&#45;interface objects. ">
<polygon fill="none" stroke="black" points="183.5,-168.5 183.5,-187.5 250.5,-187.5 250.5,-168.5 183.5,-168.5"/>
<text text-anchor="middle" x="217" y="-175.5" font-family="Helvetica,sans-Serif" font-size="10.00">Component</text>
</a>
</g>
</g>
<!-- Node2&#45;&gt;Node1 -->
<g id="edge1" class="edge"><title>Node2&#45;&gt;Node1</title>
<path fill="none" stroke="midnightblue" d="M217,-157.805C217,-148.91 217,-138.78 217,-131.751"/>
<polygon fill="midnightblue" stroke="midnightblue" points="213.5,-158.083 217,-168.083 220.5,-158.083 213.5,-158.083"/>
</g>
<!-- Node3 -->
<g id="node3" class="node"><title>Node3</title>
<g id="a_node3"><a xlink:href="classMouseListener.html" target="_top" xlink:title="A MouseListener can be registered with a component to receive callbacks about mouse events that happe...">
<polygon fill="none" stroke="black" points="177,-224.5 177,-243.5 257,-243.5 257,-224.5 177,-224.5"/>
<text text-anchor="middle" x="217" y="-231.5" font-family="Helvetica,sans-Serif" font-size="10.00">MouseListener</text>
</a>
</g>
</g>
<!-- Node3&#45;&gt;Node2 -->
<g id="edge2" class="edge"><title>Node3&#45;&gt;Node2</title>
<path fill="none" stroke="midnightblue" d="M217,-213.805C217,-204.91 217,-194.78 217,-187.751"/>
<polygon fill="midnightblue" stroke="midnightblue" points="213.5,-214.083 217,-224.083 220.5,-214.083 213.5,-214.083"/>
</g>
<!-- Node7 -->
<g id="node7" class="node"><title>Node7</title>
<g id="a_node7"><a xlink:href="classDrawablePath.html" target="_top" xlink:title="A drawable object which renders a filled or outlined shape. ">
<polygon fill="none" stroke="black" points="176,-0.5 176,-19.5 254,-19.5 254,-0.5 176,-0.5"/>
<text text-anchor="middle" x="215" y="-7.5" font-family="Helvetica,sans-Serif" font-size="10.00">DrawablePath</text>
</a>
</g>
</g>
<!-- Node6&#45;&gt;Node7 -->
<g id="edge6" class="edge"><title>Node6&#45;&gt;Node7</title>
<path fill="none" stroke="midnightblue" d="M253.002,-49.0024C243.433,-39.4329 231.639,-27.6389 223.751,-19.7511"/>
<polygon fill="midnightblue" stroke="midnightblue" points="250.537,-51.4868 260.083,-56.083 255.487,-46.537 250.537,-51.4868"/>
</g>
<!-- Node8 -->
<g id="node8" class="node"><title>Node8</title>
<g id="a_node8"><a xlink:href="classDrawableRectangle.html" target="_top" xlink:title="A Drawable object which draws a rectangle. ">
<polygon fill="none" stroke="black" points="272,-0.5 272,-19.5 374,-19.5 374,-0.5 272,-0.5"/>
<text text-anchor="middle" x="323" y="-7.5" font-family="Helvetica,sans-Serif" font-size="10.00">DrawableRectangle</text>
</a>
</g>
</g>
<!-- Node6&#45;&gt;Node8 -->
<g id="edge7" class="edge"><title>Node6&#45;&gt;Node8</title>
<path fill="none" stroke="midnightblue" d="M284.998,-49.0024C294.567,-39.4329 306.361,-27.6389 314.249,-19.7511"/>
<polygon fill="midnightblue" stroke="midnightblue" points="282.513,-46.537 277.917,-56.083 287.463,-51.4868 282.513,-46.537"/>
</g>
</g>
</svg>
