<?xml version="1.0" encoding="UTF-8" standalone="no"?>
<!DOCTYPE svg PUBLIC "-//W3C//DTD SVG 1.1//EN"
 "http://www.w3.org/Graphics/SVG/1.1/DTD/svg11.dtd">
<!-- Generated by graphviz version 2.36.0 (20140111.2315)
 -->
<!-- Title: juce::BufferingAudioSource Pages: 1 -->
<svg width="285pt" height="140pt"
 viewBox="0.00 0.00 285.00 140.00" xmlns="http://www.w3.org/2000/svg" xmlns:xlink="http://www.w3.org/1999/xlink">
<g id="graph0" class="graph" transform="scale(1 1) rotate(0) translate(4 136)">
<title>juce::BufferingAudioSource</title>
<!-- Node1 -->
<g id="node1" class="node"><title>Node1</title>
<polygon fill="#bfbfbf" stroke="black" points="80.5,-0.5 80.5,-19.5 215.5,-19.5 215.5,-0.5 80.5,-0.5"/>
<text text-anchor="middle" x="148" y="-7.5" font-family="Helvetica,sans-Serif" font-size="10.00">juce::BufferingAudioSource</text>
</g>
<!-- Node2 -->
<g id="node2" class="node"><title>Node2</title>
<g id="a_node2"><a xlink:href="classjuce_1_1PositionableAudioSource.html" target="_top" xlink:title="A type of AudioSource which can be repositioned. ">
<polygon fill="none" stroke="black" points="-0.5,-56.5 -0.5,-75.5 148.5,-75.5 148.5,-56.5 -0.5,-56.5"/>
<text text-anchor="middle" x="74" y="-63.5" font-family="Helvetica,sans-Serif" font-size="10.00">juce::PositionableAudioSource</text>
</a>
</g>
</g>
<!-- Node2&#45;&gt;Node1 -->
<g id="edge1" class="edge"><title>Node2&#45;&gt;Node1</title>
<path fill="none" stroke="midnightblue" d="M94.0343,-50.3804C107.409,-40.6204 124.559,-28.1057 135.894,-19.8339"/>
<polygon fill="midnightblue" stroke="midnightblue" points="91.9042,-47.602 85.8894,-56.324 96.0305,-53.2565 91.9042,-47.602"/>
</g>
<!-- Node3 -->
<g id="node3" class="node"><title>Node3</title>
<g id="a_node3"><a xlink:href="classjuce_1_1AudioSource.html" target="_top" xlink:title="Base class for objects that can produce a continuous stream of audio. ">
<polygon fill="none" stroke="black" points="26,-112.5 26,-131.5 122,-131.5 122,-112.5 26,-112.5"/>
<text text-anchor="middle" x="74" y="-119.5" font-family="Helvetica,sans-Serif" font-size="10.00">juce::AudioSource</text>
</a>
</g>
</g>
<!-- Node3&#45;&gt;Node2 -->
<g id="edge2" class="edge"><title>Node3&#45;&gt;Node2</title>
<path fill="none" stroke="midnightblue" d="M74,-101.805C74,-92.9102 74,-82.7798 74,-75.7511"/>
<polygon fill="midnightblue" stroke="midnightblue" points="70.5001,-102.083 74,-112.083 77.5001,-102.083 70.5001,-102.083"/>
</g>
<!-- Node4 -->
<g id="node4" class="node"><title>Node4</title>
<g id="a_node4"><a xlink:href="classjuce_1_1TimeSliceClient.html" target="_top" xlink:title="Used by the TimeSliceThread class. ">
<polygon fill="none" stroke="black" points="167,-56.5 167,-75.5 277,-75.5 277,-56.5 167,-56.5"/>
<text text-anchor="middle" x="222" y="-63.5" font-family="Helvetica,sans-Serif" font-size="10.00">juce::TimeSliceClient</text>
</a>
</g>
</g>
<!-- Node4&#45;&gt;Node1 -->
<g id="edge3" class="edge"><title>Node4&#45;&gt;Node1</title>
<path fill="none" stroke="#8b1a1a" d="M201.966,-50.3804C188.591,-40.6204 171.441,-28.1057 160.106,-19.8339"/>
<polygon fill="#8b1a1a" stroke="#8b1a1a" points="199.97,-53.2565 210.111,-56.324 204.096,-47.602 199.97,-53.2565"/>
</g>
</g>
</svg>
