<?xml version="1.0" encoding="UTF-8" standalone="no"?>
<!DOCTYPE svg PUBLIC "-//W3C//DTD SVG 1.1//EN"
 "http://www.w3.org/Graphics/SVG/1.1/DTD/svg11.dtd">
<!-- Generated by graphviz version 2.36.0 (20140111.2315)
 -->
<!-- Title: ImageEffectFilter Pages: 1 -->
<svg width="189pt" height="84pt"
 viewBox="0.00 0.00 189.00 84.00" xmlns="http://www.w3.org/2000/svg" xmlns:xlink="http://www.w3.org/1999/xlink">
<g id="graph0" class="graph" transform="scale(1 1) rotate(0) translate(4 80)">
<title>ImageEffectFilter</title>
<!-- Node1 -->
<g id="node1" class="node"><title>Node1</title>
<polygon fill="#bfbfbf" stroke="black" points="53,-56.5 53,-75.5 145,-75.5 145,-56.5 53,-56.5"/>
<text text-anchor="middle" x="99" y="-63.5" font-family="Helvetica,sans-Serif" font-size="10.00">ImageEffectFilter</text>
</g>
<!-- Node2 -->
<g id="node2" class="node"><title>Node2</title>
<g id="a_node2"><a xlink:href="group__juce__graphics-effects.html#classDropShadowEffect" target="_top" xlink:title="An effect filter that adds a drop&#45;shadow behind the image&#39;s content. ">
<polygon fill="none" stroke="black" points="-0.5,-0.5 -0.5,-19.5 98.5,-19.5 98.5,-0.5 -0.5,-0.5"/>
<text text-anchor="middle" x="49" y="-7.5" font-family="Helvetica,sans-Serif" font-size="10.00">DropShadowEffect</text>
</a>
</g>
</g>
<!-- Node1&#45;&gt;Node2 -->
<g id="edge1" class="edge"><title>Node1&#45;&gt;Node2</title>
<path fill="none" stroke="midnightblue" d="M83.9237,-48.7175C75.1109,-39.1997 64.3341,-27.5608 57.1028,-19.7511"/>
<polygon fill="midnightblue" stroke="midnightblue" points="81.3812,-51.1233 90.7435,-56.083 86.5176,-46.3674 81.3812,-51.1233"/>
</g>
<!-- Node3 -->
<g id="node3" class="node"><title>Node3</title>
<g id="a_node3"><a xlink:href="group__juce__graphics-effects.html#classGlowEffect" target="_top" xlink:title="A component effect that adds a coloured blur around the component&#39;s contents. ">
<polygon fill="none" stroke="black" points="116.5,-0.5 116.5,-19.5 181.5,-19.5 181.5,-0.5 116.5,-0.5"/>
<text text-anchor="middle" x="149" y="-7.5" font-family="Helvetica,sans-Serif" font-size="10.00">GlowEffect</text>
</a>
</g>
</g>
<!-- Node1&#45;&gt;Node3 -->
<g id="edge2" class="edge"><title>Node1&#45;&gt;Node3</title>
<path fill="none" stroke="midnightblue" d="M114.076,-48.7175C122.889,-39.1997 133.666,-27.5608 140.897,-19.7511"/>
<polygon fill="midnightblue" stroke="midnightblue" points="111.482,-46.3674 107.256,-56.083 116.619,-51.1233 111.482,-46.3674"/>
</g>
</g>
</svg>
