<?xml version="1.0" encoding="UTF-8" standalone="no"?>
<!DOCTYPE svg PUBLIC "-//W3C//DTD SVG 1.1//EN"
 "http://www.w3.org/Graphics/SVG/1.1/DTD/svg11.dtd">
<!-- Generated by graphviz version 2.36.0 (20140111.2315)
 -->
<!-- Title: StandalonePluginHolder Pages: 1 -->
<svg width="288pt" height="84pt"
 viewBox="0.00 0.00 288.00 84.00" xmlns="http://www.w3.org/2000/svg" xmlns:xlink="http://www.w3.org/1999/xlink">
<g id="graph0" class="graph" transform="scale(1 1) rotate(0) translate(4 80)">
<title>StandalonePluginHolder</title>
<!-- Node1 -->
<g id="node1" class="node"><title>Node1</title>
<polygon fill="#bfbfbf" stroke="black" points="98.5,-0.5 98.5,-19.5 219.5,-19.5 219.5,-0.5 98.5,-0.5"/>
<text text-anchor="middle" x="159" y="-7.5" font-family="Helvetica,sans-Serif" font-size="10.00">StandalonePluginHolder</text>
</g>
<!-- Node2 -->
<g id="node2" class="node"><title>Node2</title>
<g id="a_node2"><a xlink:href="classAudioIODeviceCallback.html" target="_top" xlink:title="One of these is passed to an AudioIODevice object to stream the audio data in and out...">
<polygon fill="none" stroke="black" points="-0.5,-56.5 -0.5,-75.5 120.5,-75.5 120.5,-56.5 -0.5,-56.5"/>
<text text-anchor="middle" x="60" y="-63.5" font-family="Helvetica,sans-Serif" font-size="10.00">AudioIODeviceCallback</text>
</a>
</g>
</g>
<!-- Node2&#45;&gt;Node1 -->
<g id="edge1" class="edge"><title>Node2&#45;&gt;Node1</title>
<path fill="none" stroke="#8b1a1a" d="M84.837,-51.4526C103.114,-41.4835 127.416,-28.2279 143.133,-19.6545"/>
<polygon fill="#8b1a1a" stroke="#8b1a1a" points="83.009,-48.4628 75.9061,-56.324 86.361,-54.608 83.009,-48.4628"/>
</g>
<!-- Node3 -->
<g id="node3" class="node"><title>Node3</title>
<g id="a_node3"><a xlink:href="classTimer.html" target="_top" xlink:title="Makes repeated callbacks to a virtual method at a specified time interval. ">
<polygon fill="none" stroke="black" points="138.5,-56.5 138.5,-75.5 179.5,-75.5 179.5,-56.5 138.5,-56.5"/>
<text text-anchor="middle" x="159" y="-63.5" font-family="Helvetica,sans-Serif" font-size="10.00">Timer</text>
</a>
</g>
</g>
<!-- Node3&#45;&gt;Node1 -->
<g id="edge2" class="edge"><title>Node3&#45;&gt;Node1</title>
<path fill="none" stroke="#8b1a1a" d="M159,-45.8045C159,-36.9102 159,-26.7798 159,-19.7511"/>
<polygon fill="#8b1a1a" stroke="#8b1a1a" points="155.5,-46.083 159,-56.083 162.5,-46.083 155.5,-46.083"/>
</g>
<!-- Node4 -->
<g id="node4" class="node"><title>Node4</title>
<g id="a_node4"><a xlink:href="classValue_1_1Listener.html" target="_top" xlink:title="Receives callbacks when a Value object changes. ">
<polygon fill="none" stroke="black" points="198,-56.5 198,-75.5 280,-75.5 280,-56.5 198,-56.5"/>
<text text-anchor="middle" x="239" y="-63.5" font-family="Helvetica,sans-Serif" font-size="10.00">Value::Listener</text>
</a>
</g>
</g>
<!-- Node4&#45;&gt;Node1 -->
<g id="edge3" class="edge"><title>Node4&#45;&gt;Node1</title>
<path fill="none" stroke="#8b1a1a" d="M217.699,-50.6221C203.085,-40.7574 184.173,-27.9919 171.821,-19.6545"/>
<polygon fill="#8b1a1a" stroke="#8b1a1a" points="215.9,-53.6302 226.147,-56.324 219.816,-47.8282 215.9,-53.6302"/>
</g>
</g>
</svg>
