<?xml version="1.0" encoding="UTF-8" standalone="no"?>
<!DOCTYPE svg PUBLIC "-//W3C//DTD SVG 1.1//EN"
 "http://www.w3.org/Graphics/SVG/1.1/DTD/svg11.dtd">
<!-- Generated by graphviz version 2.36.0 (20140111.2315)
 -->
<!-- Title: FilenameComponent Pages: 1 -->
<svg width="388pt" height="218pt"
 viewBox="0.00 0.00 388.00 218.00" xmlns="http://www.w3.org/2000/svg" xmlns:xlink="http://www.w3.org/1999/xlink">
<g id="graph0" class="graph" transform="scale(1 1) rotate(0) translate(4 214)">
<title>FilenameComponent</title>
<!-- Node1 -->
<g id="node1" class="node"><title>Node1</title>
<polygon fill="#bfbfbf" stroke="black" points="272.5,-95.5 272.5,-114.5 379.5,-114.5 379.5,-95.5 272.5,-95.5"/>
<text text-anchor="middle" x="326" y="-102.5" font-family="Helvetica,sans-Serif" font-size="10.00">FilenameComponent</text>
</g>
<!-- Node2 -->
<g id="node2" class="node"><title>Node2</title>
<g id="a_node2"><a xlink:href="group__juce__gui__basics-components.html#classComponent" target="_top" xlink:title="The base class for all JUCE user&#45;interface objects. ">
<polygon fill="none" stroke="black" points="142.5,-190.5 142.5,-209.5 209.5,-209.5 209.5,-190.5 142.5,-190.5"/>
<text text-anchor="middle" x="176" y="-197.5" font-family="Helvetica,sans-Serif" font-size="10.00">Component</text>
</a>
</g>
</g>
<!-- Node2&#45;&gt;Node1 -->
<g id="edge1" class="edge"><title>Node2&#45;&gt;Node1</title>
<path fill="none" stroke="midnightblue" d="M219.214,-188.677C225.01,-186.475 230.763,-183.924 236,-181 269.176,-162.479 301.373,-130.464 316.319,-114.551"/>
<polygon fill="midnightblue" stroke="midnightblue" points="217.795,-185.465 209.501,-192.058 220.096,-192.076 217.795,-185.465"/>
</g>
<!-- Node3 -->
<g id="node3" class="node"><title>Node3</title>
<g id="a_node3"><a xlink:href="group__juce__gui__basics-mouse.html#classMouseListener" target="_top" xlink:title="A MouseListener can be registered with a component to receive callbacks about mouse events that happe...">
<polygon fill="none" stroke="black" points="0,-190.5 0,-209.5 80,-209.5 80,-190.5 0,-190.5"/>
<text text-anchor="middle" x="40" y="-197.5" font-family="Helvetica,sans-Serif" font-size="10.00">MouseListener</text>
</a>
</g>
</g>
<!-- Node3&#45;&gt;Node2 -->
<g id="edge2" class="edge"><title>Node3&#45;&gt;Node2</title>
<path fill="none" stroke="midnightblue" d="M90.1313,-200C107.545,-200 126.695,-200 142.391,-200"/>
<polygon fill="midnightblue" stroke="midnightblue" points="90.1186,-196.5 80.1186,-200 90.1185,-203.5 90.1186,-196.5"/>
</g>
<!-- Node4 -->
<g id="node4" class="node"><title>Node4</title>
<g id="a_node4"><a xlink:href="group__juce__gui__basics-mouse.html#classSettableTooltipClient" target="_top" xlink:title="An implementation of TooltipClient that stores the tooltip string and a method for changing it...">
<polygon fill="none" stroke="black" points="122.5,-152.5 122.5,-171.5 229.5,-171.5 229.5,-152.5 122.5,-152.5"/>
<text text-anchor="middle" x="176" y="-159.5" font-family="Helvetica,sans-Serif" font-size="10.00">SettableTooltipClient</text>
</a>
</g>
</g>
<!-- Node4&#45;&gt;Node1 -->
<g id="edge3" class="edge"><title>Node4&#45;&gt;Node1</title>
<path fill="none" stroke="midnightblue" d="M218.31,-149.231C224.276,-147.233 230.317,-145.123 236,-143 259.608,-134.18 286.106,-122.65 304.002,-114.613"/>
<polygon fill="midnightblue" stroke="midnightblue" points="216.829,-146.033 208.417,-152.474 219.01,-152.685 216.829,-146.033"/>
</g>
<!-- Node5 -->
<g id="node5" class="node"><title>Node5</title>
<g id="a_node5"><a xlink:href="group__juce__gui__basics-mouse.html#classTooltipClient" target="_top" xlink:title="Components that want to use pop&#45;up tooltips should implement this interface. ">
<polygon fill="none" stroke="black" points="4.5,-152.5 4.5,-171.5 75.5,-171.5 75.5,-152.5 4.5,-152.5"/>
<text text-anchor="middle" x="40" y="-159.5" font-family="Helvetica,sans-Serif" font-size="10.00">TooltipClient</text>
</a>
</g>
</g>
<!-- Node5&#45;&gt;Node4 -->
<g id="edge4" class="edge"><title>Node5&#45;&gt;Node4</title>
<path fill="none" stroke="midnightblue" d="M85.5627,-162C97.3603,-162 110.207,-162 122.388,-162"/>
<polygon fill="midnightblue" stroke="midnightblue" points="85.5084,-158.5 75.5083,-162 85.5083,-165.5 85.5084,-158.5"/>
</g>
<!-- Node6 -->
<g id="node6" class="node"><title>Node6</title>
<g id="a_node6"><a xlink:href="group__juce__gui__basics-mouse.html#classFileDragAndDropTarget" target="_top" xlink:title="Components derived from this class can have files dropped onto them by an external application...">
<polygon fill="none" stroke="black" points="116.5,-114.5 116.5,-133.5 235.5,-133.5 235.5,-114.5 116.5,-114.5"/>
<text text-anchor="middle" x="176" y="-121.5" font-family="Helvetica,sans-Serif" font-size="10.00">FileDragAndDropTarget</text>
</a>
</g>
</g>
<!-- Node6&#45;&gt;Node1 -->
<g id="edge5" class="edge"><title>Node6&#45;&gt;Node1</title>
<path fill="none" stroke="midnightblue" d="M246.085,-115.131C254.806,-114.011 263.619,-112.88 272.036,-111.799"/>
<polygon fill="midnightblue" stroke="midnightblue" points="245.392,-111.691 235.919,-116.436 246.283,-118.634 245.392,-111.691"/>
</g>
<!-- Node7 -->
<g id="node7" class="node"><title>Node7</title>
<g id="a_node7"><a xlink:href="group__juce__events-broadcasters.html#classAsyncUpdater" target="_top" xlink:title="Has a callback method that is triggered asynchronously. ">
<polygon fill="none" stroke="black" points="136.5,-76.5 136.5,-95.5 215.5,-95.5 215.5,-76.5 136.5,-76.5"/>
<text text-anchor="middle" x="176" y="-83.5" font-family="Helvetica,sans-Serif" font-size="10.00">AsyncUpdater</text>
</a>
</g>
</g>
<!-- Node7&#45;&gt;Node1 -->
<g id="edge6" class="edge"><title>Node7&#45;&gt;Node1</title>
<path fill="none" stroke="#8b1a1a" d="M225.933,-92.2819C240.853,-94.1973 257.315,-96.3107 272.463,-98.2553"/>
<polygon fill="#8b1a1a" stroke="#8b1a1a" points="226.25,-88.7939 215.885,-90.992 225.358,-95.737 226.25,-88.7939"/>
</g>
<!-- Node8 -->
<g id="node8" class="node"><title>Node8</title>
<g id="a_node8"><a xlink:href="classButton_1_1Listener.html" target="_top" xlink:title="Used to receive callbacks when a button is clicked. ">
<polygon fill="none" stroke="black" points="133,-38.5 133,-57.5 219,-57.5 219,-38.5 133,-38.5"/>
<text text-anchor="middle" x="176" y="-45.5" font-family="Helvetica,sans-Serif" font-size="10.00">Button::Listener</text>
</a>
</g>
</g>
<!-- Node8&#45;&gt;Node1 -->
<g id="edge7" class="edge"><title>Node8&#45;&gt;Node1</title>
<path fill="none" stroke="#8b1a1a" d="M218.31,-60.7686C224.276,-62.7674 230.317,-64.8769 236,-67 259.608,-75.8197 286.106,-87.3501 304.002,-95.3866"/>
<polygon fill="#8b1a1a" stroke="#8b1a1a" points="219.01,-57.3148 208.417,-57.5263 216.829,-63.9667 219.01,-57.3148"/>
</g>
<!-- Node9 -->
<g id="node9" class="node"><title>Node9</title>
<g id="a_node9"><a xlink:href="classComboBox_1_1Listener.html" target="_top" xlink:title="A class for receiving events from a ComboBox. ">
<polygon fill="none" stroke="black" points="123,-0.5 123,-19.5 229,-19.5 229,-0.5 123,-0.5"/>
<text text-anchor="middle" x="176" y="-7.5" font-family="Helvetica,sans-Serif" font-size="10.00">ComboBox::Listener</text>
</a>
</g>
</g>
<!-- Node9&#45;&gt;Node1 -->
<g id="edge8" class="edge"><title>Node9&#45;&gt;Node1</title>
<path fill="none" stroke="#8b1a1a" d="M224.121,-23.2803C228.23,-25.0014 232.247,-26.9051 236,-29 269.176,-47.5207 301.373,-79.5362 316.319,-95.4491"/>
<polygon fill="#8b1a1a" stroke="#8b1a1a" points="225.042,-19.8854 214.451,-19.5915 222.547,-26.4258 225.042,-19.8854"/>
</g>
</g>
</svg>
