<?xml version="1.0" encoding="UTF-8" standalone="no"?>
<!DOCTYPE svg PUBLIC "-//W3C//DTD SVG 1.1//EN"
 "http://www.w3.org/Graphics/SVG/1.1/DTD/svg11.dtd">
<!-- Generated by graphviz version 2.36.0 (20140111.2315)
 -->
<!-- Title: ToolbarButton Pages: 1 -->
<svg width="206pt" height="252pt"
 viewBox="0.00 0.00 206.00 252.00" xmlns="http://www.w3.org/2000/svg" xmlns:xlink="http://www.w3.org/1999/xlink">
<g id="graph0" class="graph" transform="scale(1 1) rotate(0) translate(4 248)">
<title>ToolbarButton</title>
<!-- Node1 -->
<g id="node1" class="node"><title>Node1</title>
<polygon fill="#bfbfbf" stroke="black" points="53.5,-0.5 53.5,-19.5 130.5,-19.5 130.5,-0.5 53.5,-0.5"/>
<text text-anchor="middle" x="92" y="-7.5" font-family="Helvetica,sans-Serif" font-size="10.00">ToolbarButton</text>
</g>
<!-- Node2 -->
<g id="node2" class="node"><title>Node2</title>
<g id="a_node2"><a xlink:href="classToolbarItemComponent.html" target="_top" xlink:title="A component that can be used as one of the items in a Toolbar. ">
<polygon fill="none" stroke="black" points="32.5,-56.5 32.5,-75.5 151.5,-75.5 151.5,-56.5 32.5,-56.5"/>
<text text-anchor="middle" x="92" y="-63.5" font-family="Helvetica,sans-Serif" font-size="10.00">ToolbarItemComponent</text>
</a>
</g>
</g>
<!-- Node2&#45;&gt;Node1 -->
<g id="edge1" class="edge"><title>Node2&#45;&gt;Node1</title>
<path fill="none" stroke="midnightblue" d="M92,-45.8045C92,-36.9102 92,-26.7798 92,-19.7511"/>
<polygon fill="midnightblue" stroke="midnightblue" points="88.5001,-46.083 92,-56.083 95.5001,-46.083 88.5001,-46.083"/>
</g>
<!-- Node3 -->
<g id="node3" class="node"><title>Node3</title>
<g id="a_node3"><a xlink:href="classButton.html" target="_top" xlink:title="A base class for buttons. ">
<polygon fill="none" stroke="black" points="69.5,-112.5 69.5,-131.5 114.5,-131.5 114.5,-112.5 69.5,-112.5"/>
<text text-anchor="middle" x="92" y="-119.5" font-family="Helvetica,sans-Serif" font-size="10.00">Button</text>
</a>
</g>
</g>
<!-- Node3&#45;&gt;Node2 -->
<g id="edge2" class="edge"><title>Node3&#45;&gt;Node2</title>
<path fill="none" stroke="midnightblue" d="M92,-101.805C92,-92.9102 92,-82.7798 92,-75.7511"/>
<polygon fill="midnightblue" stroke="midnightblue" points="88.5001,-102.083 92,-112.083 95.5001,-102.083 88.5001,-102.083"/>
</g>
<!-- Node4 -->
<g id="node4" class="node"><title>Node4</title>
<g id="a_node4"><a xlink:href="classComponent.html" target="_top" xlink:title="The base class for all JUCE user&#45;interface objects. ">
<polygon fill="none" stroke="black" points="6.5,-168.5 6.5,-187.5 73.5,-187.5 73.5,-168.5 6.5,-168.5"/>
<text text-anchor="middle" x="40" y="-175.5" font-family="Helvetica,sans-Serif" font-size="10.00">Component</text>
</a>
</g>
</g>
<!-- Node4&#45;&gt;Node3 -->
<g id="edge3" class="edge"><title>Node4&#45;&gt;Node3</title>
<path fill="none" stroke="midnightblue" d="M55.6794,-160.718C64.8447,-151.2 76.0526,-139.561 83.573,-131.751"/>
<polygon fill="midnightblue" stroke="midnightblue" points="53.0021,-158.452 48.5867,-168.083 58.0443,-163.308 53.0021,-158.452"/>
</g>
<!-- Node5 -->
<g id="node5" class="node"><title>Node5</title>
<g id="a_node5"><a xlink:href="classMouseListener.html" target="_top" xlink:title="A MouseListener can be registered with a component to receive callbacks about mouse events that happe...">
<polygon fill="none" stroke="black" points="0,-224.5 0,-243.5 80,-243.5 80,-224.5 0,-224.5"/>
<text text-anchor="middle" x="40" y="-231.5" font-family="Helvetica,sans-Serif" font-size="10.00">MouseListener</text>
</a>
</g>
</g>
<!-- Node5&#45;&gt;Node4 -->
<g id="edge4" class="edge"><title>Node5&#45;&gt;Node4</title>
<path fill="none" stroke="midnightblue" d="M40,-213.805C40,-204.91 40,-194.78 40,-187.751"/>
<polygon fill="midnightblue" stroke="midnightblue" points="36.5001,-214.083 40,-224.083 43.5001,-214.083 36.5001,-214.083"/>
</g>
<!-- Node6 -->
<g id="node6" class="node"><title>Node6</title>
<g id="a_node6"><a xlink:href="classSettableTooltipClient.html" target="_top" xlink:title="An implementation of TooltipClient that stores the tooltip string and a method for changing it...">
<polygon fill="none" stroke="black" points="91.5,-168.5 91.5,-187.5 198.5,-187.5 198.5,-168.5 91.5,-168.5"/>
<text text-anchor="middle" x="145" y="-175.5" font-family="Helvetica,sans-Serif" font-size="10.00">SettableTooltipClient</text>
</a>
</g>
</g>
<!-- Node6&#45;&gt;Node3 -->
<g id="edge5" class="edge"><title>Node6&#45;&gt;Node3</title>
<path fill="none" stroke="midnightblue" d="M129.019,-160.718C119.678,-151.2 108.254,-139.561 100.589,-131.751"/>
<polygon fill="midnightblue" stroke="midnightblue" points="126.746,-163.398 136.248,-168.083 131.741,-158.494 126.746,-163.398"/>
</g>
<!-- Node7 -->
<g id="node7" class="node"><title>Node7</title>
<g id="a_node7"><a xlink:href="classTooltipClient.html" target="_top" xlink:title="Components that want to use pop&#45;up tooltips should implement this interface. ">
<polygon fill="none" stroke="black" points="109.5,-224.5 109.5,-243.5 180.5,-243.5 180.5,-224.5 109.5,-224.5"/>
<text text-anchor="middle" x="145" y="-231.5" font-family="Helvetica,sans-Serif" font-size="10.00">TooltipClient</text>
</a>
</g>
</g>
<!-- Node7&#45;&gt;Node6 -->
<g id="edge6" class="edge"><title>Node7&#45;&gt;Node6</title>
<path fill="none" stroke="midnightblue" d="M145,-213.805C145,-204.91 145,-194.78 145,-187.751"/>
<polygon fill="midnightblue" stroke="midnightblue" points="141.5,-214.083 145,-224.083 148.5,-214.083 141.5,-214.083"/>
</g>
</g>
</svg>
