<?xml version="1.0" encoding="UTF-8" standalone="no"?>
<!DOCTYPE svg PUBLIC "-//W3C//DTD SVG 1.1//EN"
 "http://www.w3.org/Graphics/SVG/1.1/DTD/svg11.dtd">
<!-- Generated by graphviz version 2.36.0 (20140111.2315)
 -->
<!-- Title: juce::AudioProcessorValueTreeState Pages: 1 -->
<svg width="215pt" height="96pt"
 viewBox="0.00 0.00 215.00 96.00" xmlns="http://www.w3.org/2000/svg" xmlns:xlink="http://www.w3.org/1999/xlink">
<g id="graph0" class="graph" transform="scale(1 1) rotate(0) translate(4 92)">
<title>juce::AudioProcessorValueTreeState</title>
<!-- Node1 -->
<g id="node1" class="node"><title>Node1</title>
<polygon fill="#bfbfbf" stroke="black" points="21,-1 21,-31 155,-31 155,-1 21,-1"/>
<text text-anchor="start" x="29" y="-19" font-family="Helvetica,sans-Serif" font-size="10.00">juce::AudioProcessorValue</text>
<text text-anchor="middle" x="88" y="-8" font-family="Helvetica,sans-Serif" font-size="10.00">TreeState</text>
</g>
<!-- Node2 -->
<g id="node2" class="node"><title>Node2</title>
<g id="a_node2"><a xlink:href="classjuce_1_1Timer.html" target="_top" xlink:title="Makes repeated callbacks to a virtual method at a specified time interval. ">
<polygon fill="none" stroke="black" points="-0.5,-68.5 -0.5,-87.5 64.5,-87.5 64.5,-68.5 -0.5,-68.5"/>
<text text-anchor="middle" x="32" y="-75.5" font-family="Helvetica,sans-Serif" font-size="10.00">juce::Timer</text>
</a>
</g>
</g>
<!-- Node2&#45;&gt;Node1 -->
<g id="edge1" class="edge"><title>Node2&#45;&gt;Node1</title>
<path fill="none" stroke="#8b1a1a" d="M46.9736,-60.9569C55.642,-51.6693 66.4538,-40.0852 74.8019,-31.1408"/>
<polygon fill="#8b1a1a" stroke="#8b1a1a" points="44.2879,-58.7048 40.0234,-68.4035 49.4054,-63.481 44.2879,-58.7048"/>
</g>
<!-- Node3 -->
<g id="node3" class="node"><title>Node3</title>
<g id="a_node3"><a xlink:href="classjuce_1_1ValueTree_1_1Listener.html" target="_top" xlink:title="Listener class for events that happen to a ValueTree. ">
<polygon fill="none" stroke="black" points="82.5,-68.5 82.5,-87.5 207.5,-87.5 207.5,-68.5 82.5,-68.5"/>
<text text-anchor="middle" x="145" y="-75.5" font-family="Helvetica,sans-Serif" font-size="10.00">juce::ValueTree::Listener</text>
</a>
</g>
</g>
<!-- Node3&#45;&gt;Node1 -->
<g id="edge2" class="edge"><title>Node3&#45;&gt;Node1</title>
<path fill="none" stroke="#8b1a1a" d="M129.759,-60.9569C120.936,-51.6693 109.931,-40.0852 101.434,-31.1408"/>
<polygon fill="#8b1a1a" stroke="#8b1a1a" points="127.408,-63.5641 136.833,-68.4035 132.483,-58.7428 127.408,-63.5641"/>
</g>
</g>
</svg>
