<?xml version="1.0" encoding="UTF-8" standalone="no"?>
<!DOCTYPE svg PUBLIC "-//W3C//DTD SVG 1.1//EN"
 "http://www.w3.org/Graphics/SVG/1.1/DTD/svg11.dtd">
<!-- Generated by graphviz version 2.36.0 (20140111.2315)
 -->
<!-- Title: juce::Toolbar Pages: 1 -->
<svg width="400pt" height="142pt"
 viewBox="0.00 0.00 400.00 142.00" xmlns="http://www.w3.org/2000/svg" xmlns:xlink="http://www.w3.org/1999/xlink">
<g id="graph0" class="graph" transform="scale(1 1) rotate(0) translate(4 138)">
<title>juce::Toolbar</title>
<!-- Node1 -->
<g id="node1" class="node"><title>Node1</title>
<polygon fill="#bfbfbf" stroke="black" points="318.5,-57.5 318.5,-76.5 391.5,-76.5 391.5,-57.5 318.5,-57.5"/>
<text text-anchor="middle" x="355" y="-64.5" font-family="Helvetica,sans-Serif" font-size="10.00">juce::Toolbar</text>
</g>
<!-- Node2 -->
<g id="node2" class="node"><title>Node2</title>
<g id="a_node2"><a xlink:href="classjuce_1_1Component.html" target="_top" xlink:title="The base class for all JUCE user&#45;interface objects. ">
<polygon fill="none" stroke="black" points="165.5,-114.5 165.5,-133.5 256.5,-133.5 256.5,-114.5 165.5,-114.5"/>
<text text-anchor="middle" x="211" y="-121.5" font-family="Helvetica,sans-Serif" font-size="10.00">juce::Component</text>
</a>
</g>
</g>
<!-- Node2&#45;&gt;Node1 -->
<g id="edge1" class="edge"><title>Node2&#45;&gt;Node1</title>
<path fill="none" stroke="midnightblue" d="M263.208,-111.512C269.605,-109.541 276.003,-107.363 282,-105 302.12,-97.0726 323.908,-85.0476 338.184,-76.6545"/>
<polygon fill="midnightblue" stroke="midnightblue" points="261.824,-108.27 253.211,-114.439 263.791,-114.988 261.824,-108.27"/>
</g>
<!-- Node3 -->
<g id="node3" class="node"><title>Node3</title>
<g id="a_node3"><a xlink:href="classjuce_1_1MouseListener.html" target="_top" xlink:title="A MouseListener can be registered with a component to receive callbacks about mouse events that happe...">
<polygon fill="none" stroke="black" points="0,-114.5 0,-133.5 104,-133.5 104,-114.5 0,-114.5"/>
<text text-anchor="middle" x="52" y="-121.5" font-family="Helvetica,sans-Serif" font-size="10.00">juce::MouseListener</text>
</a>
</g>
</g>
<!-- Node3&#45;&gt;Node2 -->
<g id="edge2" class="edge"><title>Node3&#45;&gt;Node2</title>
<path fill="none" stroke="midnightblue" d="M114.752,-124C131.638,-124 149.609,-124 165.338,-124"/>
<polygon fill="midnightblue" stroke="midnightblue" points="114.408,-120.5 104.408,-124 114.408,-127.5 114.408,-120.5"/>
</g>
<!-- Node4 -->
<g id="node4" class="node"><title>Node4</title>
<g id="a_node4"><a xlink:href="classjuce_1_1DragAndDropContainer.html" target="_top" xlink:title="Enables drag&#45;and&#45;drop behaviour for a component and all its sub&#45;components. ">
<polygon fill="none" stroke="black" points="140,-76.5 140,-95.5 282,-95.5 282,-76.5 140,-76.5"/>
<text text-anchor="middle" x="211" y="-83.5" font-family="Helvetica,sans-Serif" font-size="10.00">juce::DragAndDropContainer</text>
</a>
</g>
</g>
<!-- Node4&#45;&gt;Node1 -->
<g id="edge3" class="edge"><title>Node4&#45;&gt;Node1</title>
<path fill="none" stroke="midnightblue" d="M292.168,-75.2733C301.336,-74.0465 310.297,-72.8476 318.425,-71.76"/>
<polygon fill="midnightblue" stroke="midnightblue" points="291.615,-71.8159 282.168,-76.6113 292.544,-78.7541 291.615,-71.8159"/>
</g>
<!-- Node5 -->
<g id="node5" class="node"><title>Node5</title>
<g id="a_node5"><a xlink:href="classjuce_1_1DragAndDropTarget.html" target="_top" xlink:title="Components derived from this class can have things dropped onto them by a DragAndDropContainer. ">
<polygon fill="none" stroke="black" points="147,-38.5 147,-57.5 275,-57.5 275,-38.5 147,-38.5"/>
<text text-anchor="middle" x="211" y="-45.5" font-family="Helvetica,sans-Serif" font-size="10.00">juce::DragAndDropTarget</text>
</a>
</g>
</g>
<!-- Node5&#45;&gt;Node1 -->
<g id="edge4" class="edge"><title>Node5&#45;&gt;Node1</title>
<path fill="none" stroke="midnightblue" d="M285.22,-57.7971C296.737,-59.338 308.175,-60.8685 318.322,-62.2262"/>
<polygon fill="midnightblue" stroke="midnightblue" points="285.486,-54.3015 275.11,-56.4443 284.558,-61.2397 285.486,-54.3015"/>
</g>
<!-- Node6 -->
<g id="node6" class="node"><title>Node6</title>
<g id="a_node6"><a xlink:href="classjuce_1_1Button_1_1Listener.html" target="_top" xlink:title="Used to receive callbacks when a button is clicked. ">
<polygon fill="none" stroke="black" points="156,-0.5 156,-19.5 266,-19.5 266,-0.5 156,-0.5"/>
<text text-anchor="middle" x="211" y="-7.5" font-family="Helvetica,sans-Serif" font-size="10.00">juce::Button::Listener</text>
</a>
</g>
</g>
<!-- Node6&#45;&gt;Node1 -->
<g id="edge5" class="edge"><title>Node6&#45;&gt;Node1</title>
<path fill="none" stroke="#8b1a1a" d="M263.208,-22.4876C269.605,-24.4595 276.003,-26.6371 282,-29 302.12,-36.9274 323.908,-48.9524 338.184,-57.3455"/>
<polygon fill="#8b1a1a" stroke="#8b1a1a" points="263.791,-19.0116 253.211,-19.561 261.824,-25.7296 263.791,-19.0116"/>
</g>
</g>
</svg>
