<?xml version="1.0" encoding="UTF-8" standalone="no"?>
<!DOCTYPE svg PUBLIC "-//W3C//DTD SVG 1.1//EN"
 "http://www.w3.org/Graphics/SVG/1.1/DTD/svg11.dtd">
<!-- Generated by graphviz version 2.36.0 (20140111.2315)
 -->
<!-- Title: Value::ValueSource Pages: 1 -->
<svg width="231pt" height="84pt"
 viewBox="0.00 0.00 231.00 84.00" xmlns="http://www.w3.org/2000/svg" xmlns:xlink="http://www.w3.org/1999/xlink">
<g id="graph0" class="graph" transform="scale(1 1) rotate(0) translate(4 80)">
<title>Value::ValueSource</title>
<!-- Node1 -->
<g id="node1" class="node"><title>Node1</title>
<polygon fill="#bfbfbf" stroke="black" points="71.5,-0.5 71.5,-19.5 174.5,-19.5 174.5,-0.5 71.5,-0.5"/>
<text text-anchor="middle" x="123" y="-7.5" font-family="Helvetica,sans-Serif" font-size="10.00">Value::ValueSource</text>
</g>
<!-- Node2 -->
<g id="node2" class="node"><title>Node2</title>
<g id="a_node2"><a xlink:href="classReferenceCountedObject.html" target="_top" xlink:title="A base class which provides methods for reference&#45;counting. ">
<polygon fill="none" stroke="black" points="-0.5,-56.5 -0.5,-75.5 126.5,-75.5 126.5,-56.5 -0.5,-56.5"/>
<text text-anchor="middle" x="63" y="-63.5" font-family="Helvetica,sans-Serif" font-size="10.00">ReferenceCountedObject</text>
</a>
</g>
</g>
<!-- Node2&#45;&gt;Node1 -->
<g id="edge1" class="edge"><title>Node2&#45;&gt;Node1</title>
<path fill="none" stroke="midnightblue" d="M80.1809,-49.5372C90.8792,-39.9087 104.256,-27.8694 113.185,-19.8339"/>
<polygon fill="midnightblue" stroke="midnightblue" points="77.7316,-47.0327 72.64,-56.324 82.4144,-52.2358 77.7316,-47.0327"/>
</g>
<!-- Node3 -->
<g id="node3" class="node"><title>Node3</title>
<g id="a_node3"><a xlink:href="classAsyncUpdater.html" target="_top" xlink:title="Has a callback method that is triggered asynchronously. ">
<polygon fill="none" stroke="black" points="144.5,-56.5 144.5,-75.5 223.5,-75.5 223.5,-56.5 144.5,-56.5"/>
<text text-anchor="middle" x="184" y="-63.5" font-family="Helvetica,sans-Serif" font-size="10.00">AsyncUpdater</text>
</a>
</g>
</g>
<!-- Node3&#45;&gt;Node1 -->
<g id="edge2" class="edge"><title>Node3&#45;&gt;Node1</title>
<path fill="none" stroke="#8b1a1a" d="M166.533,-49.5372C155.656,-39.9087 142.056,-27.8694 132.979,-19.8339"/>
<polygon fill="#8b1a1a" stroke="#8b1a1a" points="164.392,-52.3162 174.199,-56.324 169.032,-47.0749 164.392,-52.3162"/>
</g>
</g>
</svg>
