<?xml version="1.0" encoding="UTF-8" standalone="no"?>
<!DOCTYPE svg PUBLIC "-//W3C//DTD SVG 1.1//EN"
 "http://www.w3.org/Graphics/SVG/1.1/DTD/svg11.dtd">
<!-- Generated by graphviz version 2.36.0 (20140111.2315)
 -->
<!-- Title: ChangeListener Pages: 1 -->
<svg width="410pt" height="84pt"
 viewBox="0.00 0.00 410.00 84.00" xmlns="http://www.w3.org/2000/svg" xmlns:xlink="http://www.w3.org/1999/xlink">
<g id="graph0" class="graph" transform="scale(1 1) rotate(0) translate(4 80)">
<title>ChangeListener</title>
<!-- Node1 -->
<g id="node1" class="node"><title>Node1</title>
<polygon fill="#bfbfbf" stroke="black" points="182.5,-56.5 182.5,-75.5 267.5,-75.5 267.5,-56.5 182.5,-56.5"/>
<text text-anchor="middle" x="225" y="-63.5" font-family="Helvetica,sans-Serif" font-size="10.00">ChangeListener</text>
</g>
<!-- Node2 -->
<g id="node2" class="node"><title>Node2</title>
<g id="a_node2"><a xlink:href="classAudioDeviceSelectorComponent.html" target="_top" xlink:title="A component containing controls to let the user change the audio settings of an AudioDeviceManager ob...">
<polygon fill="none" stroke="black" points="0,-0.5 0,-19.5 158,-19.5 158,-0.5 0,-0.5"/>
<text text-anchor="middle" x="79" y="-7.5" font-family="Helvetica,sans-Serif" font-size="10.00">AudioDeviceSelectorComponent</text>
</a>
</g>
</g>
<!-- Node1&#45;&gt;Node2 -->
<g id="edge1" class="edge"><title>Node1&#45;&gt;Node2</title>
<path fill="none" stroke="#8b1a1a" d="M192.301,-52.9058C164.852,-42.7536 126.332,-28.5063 102.026,-19.5164"/>
<polygon fill="#8b1a1a" stroke="#8b1a1a" points="191.273,-56.2572 201.866,-56.4435 193.701,-49.6919 191.273,-56.2572"/>
</g>
<!-- Node3 -->
<g id="node3" class="node"><title>Node3</title>
<g id="a_node3"><a xlink:href="classFileListComponent.html" target="_top" xlink:title="A component that displays the files in a directory as a listbox. ">
<polygon fill="none" stroke="black" points="176,-0.5 176,-19.5 274,-19.5 274,-0.5 176,-0.5"/>
<text text-anchor="middle" x="225" y="-7.5" font-family="Helvetica,sans-Serif" font-size="10.00">FileListComponent</text>
</a>
</g>
</g>
<!-- Node1&#45;&gt;Node3 -->
<g id="edge2" class="edge"><title>Node1&#45;&gt;Node3</title>
<path fill="none" stroke="#8b1a1a" d="M225,-45.8045C225,-36.9102 225,-26.7798 225,-19.7511"/>
<polygon fill="#8b1a1a" stroke="#8b1a1a" points="221.5,-46.083 225,-56.083 228.5,-46.083 221.5,-46.083"/>
</g>
<!-- Node4 -->
<g id="node4" class="node"><title>Node4</title>
<g id="a_node4"><a xlink:href="classPluginListComponent.html" target="_top" xlink:title="A component displaying a list of plugins, with options to scan for them, add, remove and sort them...">
<polygon fill="none" stroke="black" points="292,-0.5 292,-19.5 402,-19.5 402,-0.5 292,-0.5"/>
<text text-anchor="middle" x="347" y="-7.5" font-family="Helvetica,sans-Serif" font-size="10.00">PluginListComponent</text>
</a>
</g>
</g>
<!-- Node1&#45;&gt;Node4 -->
<g id="edge3" class="edge"><title>Node1&#45;&gt;Node4</title>
<path fill="none" stroke="#8b1a1a" d="M253.539,-52.3678C276.386,-42.2553 307.805,-28.3486 327.759,-19.5164"/>
<polygon fill="#8b1a1a" stroke="#8b1a1a" points="252.059,-49.1955 244.331,-56.4435 254.892,-55.5965 252.059,-49.1955"/>
</g>
</g>
</svg>
