<?xml version="1.0" encoding="UTF-8" standalone="no"?>
<!DOCTYPE svg PUBLIC "-//W3C//DTD SVG 1.1//EN"
 "http://www.w3.org/Graphics/SVG/1.1/DTD/svg11.dtd">
<!-- Generated by graphviz version 2.36.0 (20140111.2315)
 -->
<!-- Title: PositionableAudioSource Pages: 1 -->
<svg width="402pt" height="140pt"
 viewBox="0.00 0.00 402.00 140.00" xmlns="http://www.w3.org/2000/svg" xmlns:xlink="http://www.w3.org/1999/xlink">
<g id="graph0" class="graph" transform="scale(1 1) rotate(0) translate(4 136)">
<title>PositionableAudioSource</title>
<!-- Node1 -->
<g id="node1" class="node"><title>Node1</title>
<polygon fill="#bfbfbf" stroke="black" points="146.5,-56.5 146.5,-75.5 271.5,-75.5 271.5,-56.5 146.5,-56.5"/>
<text text-anchor="middle" x="209" y="-63.5" font-family="Helvetica,sans-Serif" font-size="10.00">PositionableAudioSource</text>
</g>
<!-- Node3 -->
<g id="node3" class="node"><title>Node3</title>
<g id="a_node3"><a xlink:href="classAudioFormatReaderSource.html" target="_top" xlink:title="A type of AudioSource that will read from an AudioFormatReader. ">
<polygon fill="none" stroke="black" points="0,-0.5 0,-19.5 134,-19.5 134,-0.5 0,-0.5"/>
<text text-anchor="middle" x="67" y="-7.5" font-family="Helvetica,sans-Serif" font-size="10.00">AudioFormatReaderSource</text>
</a>
</g>
</g>
<!-- Node1&#45;&gt;Node3 -->
<g id="edge2" class="edge"><title>Node1&#45;&gt;Node3</title>
<path fill="none" stroke="midnightblue" d="M176.845,-52.772C150.172,-42.6287 112.931,-28.4669 89.3951,-19.5164"/>
<polygon fill="midnightblue" stroke="midnightblue" points="175.909,-56.1604 186.5,-56.4435 178.397,-49.6176 175.909,-56.1604"/>
</g>
<!-- Node4 -->
<g id="node4" class="node"><title>Node4</title>
<g id="a_node4"><a xlink:href="classAudioTransportSource.html" target="_top" xlink:title="An AudioSource that takes a PositionableAudioSource and allows it to be played, stopped, started, etc. ">
<polygon fill="none" stroke="black" points="152.5,-0.5 152.5,-19.5 265.5,-19.5 265.5,-0.5 152.5,-0.5"/>
<text text-anchor="middle" x="209" y="-7.5" font-family="Helvetica,sans-Serif" font-size="10.00">AudioTransportSource</text>
</a>
</g>
</g>
<!-- Node1&#45;&gt;Node4 -->
<g id="edge3" class="edge"><title>Node1&#45;&gt;Node4</title>
<path fill="none" stroke="midnightblue" d="M209,-45.8045C209,-36.9102 209,-26.7798 209,-19.7511"/>
<polygon fill="midnightblue" stroke="midnightblue" points="205.5,-46.083 209,-56.083 212.5,-46.083 205.5,-46.083"/>
</g>
<!-- Node5 -->
<g id="node5" class="node"><title>Node5</title>
<g id="a_node5"><a xlink:href="classBufferingAudioSource.html" target="_top" xlink:title="An AudioSource which takes another source as input, and buffers it using a thread. ">
<polygon fill="none" stroke="black" points="283.5,-0.5 283.5,-19.5 394.5,-19.5 394.5,-0.5 283.5,-0.5"/>
<text text-anchor="middle" x="339" y="-7.5" font-family="Helvetica,sans-Serif" font-size="10.00">BufferingAudioSource</text>
</a>
</g>
</g>
<!-- Node1&#45;&gt;Node5 -->
<g id="edge4" class="edge"><title>Node1&#45;&gt;Node5</title>
<path fill="none" stroke="midnightblue" d="M239.085,-52.503C263.457,-42.3795 297.14,-28.388 318.497,-19.5164"/>
<polygon fill="midnightblue" stroke="midnightblue" points="237.491,-49.3752 229.599,-56.4435 240.177,-55.8397 237.491,-49.3752"/>
</g>
<!-- Node2 -->
<g id="node2" class="node"><title>Node2</title>
<g id="a_node2"><a xlink:href="classAudioSource.html" target="_top" xlink:title="Base class for objects that can produce a continuous stream of audio. ">
<polygon fill="none" stroke="black" points="173,-112.5 173,-131.5 245,-131.5 245,-112.5 173,-112.5"/>
<text text-anchor="middle" x="209" y="-119.5" font-family="Helvetica,sans-Serif" font-size="10.00">AudioSource</text>
</a>
</g>
</g>
<!-- Node2&#45;&gt;Node1 -->
<g id="edge1" class="edge"><title>Node2&#45;&gt;Node1</title>
<path fill="none" stroke="midnightblue" d="M209,-101.805C209,-92.9102 209,-82.7798 209,-75.7511"/>
<polygon fill="midnightblue" stroke="midnightblue" points="205.5,-102.083 209,-112.083 212.5,-102.083 205.5,-102.083"/>
</g>
</g>
</svg>
