<?xml version="1.0" encoding="UTF-8" standalone="no"?>
<!DOCTYPE svg PUBLIC "-//W3C//DTD SVG 1.1//EN"
 "http://www.w3.org/Graphics/SVG/1.1/DTD/svg11.dtd">
<!-- Generated by graphviz version 2.36.0 (20140111.2315)
 -->
<!-- Title: juce::LookAndFeel_V2 Pages: 1 -->
<svg width="798pt" height="1382pt"
 viewBox="0.00 0.00 798.00 1382.00" xmlns="http://www.w3.org/2000/svg" xmlns:xlink="http://www.w3.org/1999/xlink">
<g id="graph0" class="graph" transform="scale(1 1) rotate(0) translate(4 1378)">
<title>juce::LookAndFeel_V2</title>
<!-- Node1 -->
<g id="node1" class="node"><title>Node1</title>
<polygon fill="#bfbfbf" stroke="black" points="370.5,-687.5 370.5,-706.5 485.5,-706.5 485.5,-687.5 370.5,-687.5"/>
<text text-anchor="middle" x="428" y="-694.5" font-family="Helvetica,sans-Serif" font-size="10.00">juce::LookAndFeel_V2</text>
</g>
<!-- Node31 -->
<g id="node31" class="node"><title>Node31</title>
<g id="a_node31"><a xlink:href="classjuce_1_1LookAndFeel__V1.html" target="_top" xlink:title="The original JUCE look&#45;and&#45;feel, as used back from 2002 to about 2007ish. ">
<polygon fill="none" stroke="black" points="522.5,-706.5 522.5,-725.5 637.5,-725.5 637.5,-706.5 522.5,-706.5"/>
<text text-anchor="middle" x="580" y="-713.5" font-family="Helvetica,sans-Serif" font-size="10.00">juce::LookAndFeel_V1</text>
</a>
</g>
</g>
<!-- Node1&#45;&gt;Node31 -->
<g id="edge30" class="edge"><title>Node1&#45;&gt;Node31</title>
<path fill="none" stroke="midnightblue" d="M495.63,-705.44C504.5,-706.563 513.529,-707.707 522.211,-708.807"/>
<polygon fill="midnightblue" stroke="midnightblue" points="496.069,-701.968 485.709,-704.183 495.189,-708.912 496.069,-701.968"/>
</g>
<!-- Node32 -->
<g id="node32" class="node"><title>Node32</title>
<g id="a_node32"><a xlink:href="classjuce_1_1LookAndFeel__V3.html" target="_top" xlink:title="The latest JUCE look&#45;and&#45;feel style, as introduced in 2013. ">
<polygon fill="none" stroke="black" points="522.5,-668.5 522.5,-687.5 637.5,-687.5 637.5,-668.5 522.5,-668.5"/>
<text text-anchor="middle" x="580" y="-675.5" font-family="Helvetica,sans-Serif" font-size="10.00">juce::LookAndFeel_V3</text>
</a>
</g>
</g>
<!-- Node1&#45;&gt;Node32 -->
<g id="edge31" class="edge"><title>Node1&#45;&gt;Node32</title>
<path fill="none" stroke="midnightblue" d="M495.63,-688.56C504.5,-687.437 513.529,-686.293 522.211,-685.193"/>
<polygon fill="midnightblue" stroke="midnightblue" points="495.189,-685.088 485.709,-689.817 496.069,-692.032 495.189,-685.088"/>
</g>
<!-- Node2 -->
<g id="node2" class="node"><title>Node2</title>
<g id="a_node2"><a xlink:href="classjuce_1_1LookAndFeel.html" target="_top" xlink:title="LookAndFeel objects define the appearance of all the JUCE widgets, and subclasses can be used to appl...">
<polygon fill="none" stroke="black" points="236,-687.5 236,-706.5 334,-706.5 334,-687.5 236,-687.5"/>
<text text-anchor="middle" x="285" y="-694.5" font-family="Helvetica,sans-Serif" font-size="10.00">juce::LookAndFeel</text>
</a>
</g>
</g>
<!-- Node2&#45;&gt;Node1 -->
<g id="edge1" class="edge"><title>Node2&#45;&gt;Node1</title>
<path fill="none" stroke="midnightblue" d="M344.141,-697C352.797,-697 361.709,-697 370.334,-697"/>
<polygon fill="midnightblue" stroke="midnightblue" points="344.13,-693.5 334.13,-697 344.13,-700.5 344.13,-693.5"/>
</g>
<!-- Node3 -->
<g id="node3" class="node"><title>Node3</title>
<g id="a_node3"><a xlink:href="structjuce_1_1ScrollBar_1_1LookAndFeelMethods.html" target="_top" xlink:title="This abstract base class is implemented by LookAndFeel classes to provide scrollbar&#45;drawing functiona...">
<polygon fill="none" stroke="black" points="37.5,-1344 37.5,-1374 162.5,-1374 162.5,-1344 37.5,-1344"/>
<text text-anchor="start" x="45.5" y="-1362" font-family="Helvetica,sans-Serif" font-size="10.00">juce::ScrollBar::LookAnd</text>
<text text-anchor="middle" x="100" y="-1351" font-family="Helvetica,sans-Serif" font-size="10.00">FeelMethods</text>
</a>
</g>
</g>
<!-- Node3&#45;&gt;Node2 -->
<g id="edge2" class="edge"><title>Node3&#45;&gt;Node2</title>
<path fill="none" stroke="midnightblue" d="M172.413,-1351.98C182.877,-1348.05 192.601,-1342.31 200,-1334 287.325,-1235.89 285.071,-779.221 284.15,-706.713"/>
<polygon fill="midnightblue" stroke="midnightblue" points="171.103,-1348.72 162.641,-1355.1 173.232,-1355.39 171.103,-1348.72"/>
</g>
<!-- Node4 -->
<g id="node4" class="node"><title>Node4</title>
<g id="a_node4"><a xlink:href="structjuce_1_1Button_1_1LookAndFeelMethods.html" target="_top" xlink:title="This abstract base class is implemented by LookAndFeel classes to provide button&#45;drawing functionalit...">
<polygon fill="none" stroke="black" points="34,-1295 34,-1325 166,-1325 166,-1295 34,-1295"/>
<text text-anchor="start" x="42" y="-1313" font-family="Helvetica,sans-Serif" font-size="10.00">juce::Button::LookAndFeel</text>
<text text-anchor="middle" x="100" y="-1302" font-family="Helvetica,sans-Serif" font-size="10.00">Methods</text>
</a>
</g>
</g>
<!-- Node4&#45;&gt;Node2 -->
<g id="edge3" class="edge"><title>Node4&#45;&gt;Node2</title>
<path fill="none" stroke="midnightblue" d="M175.58,-1301.63C184.812,-1297.77 193.331,-1292.41 200,-1285 280.87,-1195.12 284.067,-776.521 284.033,-706.844"/>
<polygon fill="midnightblue" stroke="midnightblue" points="174.388,-1298.34 166.151,-1305 176.746,-1304.93 174.388,-1298.34"/>
</g>
<!-- Node5 -->
<g id="node5" class="node"><title>Node5</title>
<g id="a_node5"><a xlink:href="structjuce_1_1ImageButton_1_1LookAndFeelMethods.html" target="_top" xlink:title="This abstract base class is implemented by LookAndFeel classes. ">
<polygon fill="none" stroke="black" points="44.5,-1246 44.5,-1276 155.5,-1276 155.5,-1246 44.5,-1246"/>
<text text-anchor="start" x="52.5" y="-1264" font-family="Helvetica,sans-Serif" font-size="10.00">juce::ImageButton::</text>
<text text-anchor="middle" x="100" y="-1253" font-family="Helvetica,sans-Serif" font-size="10.00">LookAndFeelMethods</text>
</a>
</g>
</g>
<!-- Node5&#45;&gt;Node2 -->
<g id="edge4" class="edge"><title>Node5&#45;&gt;Node2</title>
<path fill="none" stroke="midnightblue" d="M165.494,-1256.09C178.48,-1252.22 190.913,-1245.97 200,-1236 274.476,-1154.28 282.975,-773.217 283.893,-706.865"/>
<polygon fill="midnightblue" stroke="midnightblue" points="164.347,-1252.77 155.501,-1258.6 166.052,-1259.55 164.347,-1252.77"/>
</g>
<!-- Node6 -->
<g id="node6" class="node"><title>Node6</title>
<g id="a_node6"><a xlink:href="structjuce_1_1TextEditor_1_1LookAndFeelMethods.html" target="_top" xlink:title="This abstract base class is implemented by LookAndFeel classes to provide TextEditor drawing function...">
<polygon fill="none" stroke="black" points="35,-1197 35,-1227 165,-1227 165,-1197 35,-1197"/>
<text text-anchor="start" x="43" y="-1215" font-family="Helvetica,sans-Serif" font-size="10.00">juce::TextEditor::LookAnd</text>
<text text-anchor="middle" x="100" y="-1204" font-family="Helvetica,sans-Serif" font-size="10.00">FeelMethods</text>
</a>
</g>
</g>
<!-- Node6&#45;&gt;Node2 -->
<g id="edge5" class="edge"><title>Node6&#45;&gt;Node2</title>
<path fill="none" stroke="midnightblue" d="M174.836,-1203.69C184.308,-1199.84 193.092,-1194.47 200,-1187 268.144,-1113.35 281.797,-769.311 283.729,-706.767"/>
<polygon fill="midnightblue" stroke="midnightblue" points="173.474,-1200.45 165.178,-1207.04 175.773,-1207.07 173.474,-1200.45"/>
</g>
<!-- Node7 -->
<g id="node7" class="node"><title>Node7</title>
<g id="a_node7"><a xlink:href="structjuce_1_1FileBrowserComponent_1_1LookAndFeelMethods.html" target="_top" xlink:title="This abstract base class is implemented by LookAndFeel classes to provide various file&#45;browser layout...">
<polygon fill="none" stroke="black" points="28.5,-1148 28.5,-1178 171.5,-1178 171.5,-1148 28.5,-1148"/>
<text text-anchor="start" x="36.5" y="-1166" font-family="Helvetica,sans-Serif" font-size="10.00">juce::FileBrowserComponent</text>
<text text-anchor="middle" x="100" y="-1155" font-family="Helvetica,sans-Serif" font-size="10.00">::LookAndFeelMethods</text>
</a>
</g>
</g>
<!-- Node7&#45;&gt;Node2 -->
<g id="edge6" class="edge"><title>Node7&#45;&gt;Node2</title>
<path fill="none" stroke="midnightblue" d="M180.915,-1151.79C188.025,-1148.27 194.571,-1143.76 200,-1138 261.878,-1072.35 280.535,-764.805 283.539,-706.54"/>
<polygon fill="midnightblue" stroke="midnightblue" points="179.475,-1148.6 171.651,-1155.75 182.223,-1155.04 179.475,-1148.6"/>
</g>
<!-- Node8 -->
<g id="node8" class="node"><title>Node8</title>
<g id="a_node8"><a xlink:href="structjuce_1_1TreeView_1_1LookAndFeelMethods.html" target="_top" xlink:title="This abstract base class is implemented by LookAndFeel classes to provide treeview drawing functional...">
<polygon fill="none" stroke="black" points="27.5,-1099 27.5,-1129 172.5,-1129 172.5,-1099 27.5,-1099"/>
<text text-anchor="start" x="35.5" y="-1117" font-family="Helvetica,sans-Serif" font-size="10.00">juce::TreeView::LookAndFeel</text>
<text text-anchor="middle" x="100" y="-1106" font-family="Helvetica,sans-Serif" font-size="10.00">Methods</text>
</a>
</g>
</g>
<!-- Node8&#45;&gt;Node2 -->
<g id="edge7" class="edge"><title>Node8&#45;&gt;Node2</title>
<path fill="none" stroke="midnightblue" d="M182.075,-1102.02C188.713,-1098.62 194.839,-1094.35 200,-1089 255.562,-1031.39 279.09,-760.879 283.296,-706.526"/>
<polygon fill="midnightblue" stroke="midnightblue" points="180.487,-1098.89 172.75,-1106.13 183.312,-1105.3 180.487,-1098.89"/>
</g>
<!-- Node9 -->
<g id="node9" class="node"><title>Node9</title>
<g id="a_node9"><a xlink:href="structjuce_1_1BubbleComponent_1_1LookAndFeelMethods.html" target="_top" xlink:title="This abstract base class is implemented by LookAndFeel classes. ">
<polygon fill="none" stroke="black" points="39.5,-1050 39.5,-1080 160.5,-1080 160.5,-1050 39.5,-1050"/>
<text text-anchor="start" x="47.5" y="-1068" font-family="Helvetica,sans-Serif" font-size="10.00">juce::BubbleComponent</text>
<text text-anchor="middle" x="100" y="-1057" font-family="Helvetica,sans-Serif" font-size="10.00">::LookAndFeelMethods</text>
</a>
</g>
</g>
<!-- Node9&#45;&gt;Node2 -->
<g id="edge8" class="edge"><title>Node9&#45;&gt;Node2</title>
<path fill="none" stroke="midnightblue" d="M170.357,-1057.73C181.39,-1053.87 191.837,-1048.22 200,-1040 249.243,-990.402 277.402,-757.078 282.972,-706.632"/>
<polygon fill="midnightblue" stroke="midnightblue" points="169.12,-1054.45 160.552,-1060.69 171.137,-1061.16 169.12,-1054.45"/>
</g>
<!-- Node10 -->
<g id="node10" class="node"><title>Node10</title>
<g id="a_node10"><a xlink:href="structjuce_1_1AlertWindow_1_1LookAndFeelMethods.html" target="_top" xlink:title="This abstract base class is implemented by LookAndFeel classes to provide alert&#45;window drawing functi...">
<polygon fill="none" stroke="black" points="44.5,-1001 44.5,-1031 155.5,-1031 155.5,-1001 44.5,-1001"/>
<text text-anchor="start" x="52.5" y="-1019" font-family="Helvetica,sans-Serif" font-size="10.00">juce::AlertWindow::</text>
<text text-anchor="middle" x="100" y="-1008" font-family="Helvetica,sans-Serif" font-size="10.00">LookAndFeelMethods</text>
</a>
</g>
</g>
<!-- Node10&#45;&gt;Node2 -->
<g id="edge9" class="edge"><title>Node10&#45;&gt;Node2</title>
<path fill="none" stroke="midnightblue" d="M165.425,-1009.98C178.168,-1006.15 190.517,-1000.19 200,-991 284.8,-908.784 285.648,-747.393 284.418,-706.562"/>
<polygon fill="midnightblue" stroke="midnightblue" points="164.447,-1006.62 155.643,-1012.51 166.201,-1013.4 164.447,-1006.62"/>
</g>
<!-- Node11 -->
<g id="node11" class="node"><title>Node11</title>
<g id="a_node11"><a xlink:href="structjuce_1_1PopupMenu_1_1LookAndFeelMethods.html" target="_top" xlink:title="This abstract base class is implemented by LookAndFeel classes to provide menu drawing functionality...">
<polygon fill="none" stroke="black" points="31.5,-952 31.5,-982 168.5,-982 168.5,-952 31.5,-952"/>
<text text-anchor="start" x="39.5" y="-970" font-family="Helvetica,sans-Serif" font-size="10.00">juce::PopupMenu::LookAnd</text>
<text text-anchor="middle" x="100" y="-959" font-family="Helvetica,sans-Serif" font-size="10.00">FeelMethods</text>
</a>
</g>
</g>
<!-- Node11&#45;&gt;Node2 -->
<g id="edge10" class="edge"><title>Node11&#45;&gt;Node2</title>
<path fill="none" stroke="midnightblue" d="M178.21,-955.831C186.186,-952.338 193.672,-947.824 200,-942 272.459,-875.315 282.419,-743.426 283.784,-706.695"/>
<polygon fill="midnightblue" stroke="midnightblue" points="176.754,-952.64 168.66,-959.477 179.251,-959.179 176.754,-952.64"/>
</g>
<!-- Node12 -->
<g id="node12" class="node"><title>Node12</title>
<g id="a_node12"><a xlink:href="structjuce_1_1ComboBox_1_1LookAndFeelMethods.html" target="_top" xlink:title="This abstract base class is implemented by LookAndFeel classes to provide ComboBox functionality...">
<polygon fill="none" stroke="black" points="24,-903 24,-933 176,-933 176,-903 24,-903"/>
<text text-anchor="start" x="32" y="-921" font-family="Helvetica,sans-Serif" font-size="10.00">juce::ComboBox::LookAndFeel</text>
<text text-anchor="middle" x="100" y="-910" font-family="Helvetica,sans-Serif" font-size="10.00">Methods</text>
</a>
</g>
</g>
<!-- Node12&#45;&gt;Node2 -->
<g id="edge11" class="edge"><title>Node12&#45;&gt;Node2</title>
<path fill="none" stroke="midnightblue" d="M185.212,-902.864C190.51,-900.094 195.509,-896.834 200,-893 260.255,-841.561 278.47,-739.158 282.824,-706.942"/>
<polygon fill="midnightblue" stroke="midnightblue" points="183.672,-899.719 176.049,-907.077 186.597,-906.079 183.672,-899.719"/>
</g>
<!-- Node13 -->
<g id="node13" class="node"><title>Node13</title>
<g id="a_node13"><a xlink:href="structjuce_1_1Label_1_1LookAndFeelMethods.html" target="_top" xlink:title="This abstract base class is implemented by LookAndFeel classes to provide label drawing functionality...">
<polygon fill="none" stroke="black" points="36.5,-854 36.5,-884 163.5,-884 163.5,-854 36.5,-854"/>
<text text-anchor="start" x="44.5" y="-872" font-family="Helvetica,sans-Serif" font-size="10.00">juce::Label::LookAndFeel</text>
<text text-anchor="middle" x="100" y="-861" font-family="Helvetica,sans-Serif" font-size="10.00">Methods</text>
</a>
</g>
</g>
<!-- Node13&#45;&gt;Node2 -->
<g id="edge12" class="edge"><title>Node13&#45;&gt;Node2</title>
<path fill="none" stroke="midnightblue" d="M173.257,-858.105C182.828,-854.618 192.059,-850.031 200,-844 248.69,-807.024 273.712,-733.091 281.383,-706.666"/>
<polygon fill="midnightblue" stroke="midnightblue" points="172.038,-854.821 163.608,-861.239 174.2,-861.479 172.038,-854.821"/>
</g>
<!-- Node14 -->
<g id="node14" class="node"><title>Node14</title>
<g id="a_node14"><a xlink:href="structjuce_1_1Slider_1_1LookAndFeelMethods.html" target="_top" xlink:title="This abstract base class is implemented by LookAndFeel classes to provide slider drawing functionalit...">
<polygon fill="none" stroke="black" points="36,-805 36,-835 164,-835 164,-805 36,-805"/>
<text text-anchor="start" x="44" y="-823" font-family="Helvetica,sans-Serif" font-size="10.00">juce::Slider::LookAndFeel</text>
<text text-anchor="middle" x="100" y="-812" font-family="Helvetica,sans-Serif" font-size="10.00">Methods</text>
</a>
</g>
</g>
<!-- Node14&#45;&gt;Node2 -->
<g id="edge13" class="edge"><title>Node14&#45;&gt;Node2</title>
<path fill="none" stroke="midnightblue" d="M173.736,-807.185C182.944,-803.986 191.948,-799.99 200,-795 237.524,-771.747 267.039,-726.248 278.651,-706.511"/>
<polygon fill="midnightblue" stroke="midnightblue" points="172.573,-803.882 164.098,-810.24 174.688,-810.555 172.573,-803.882"/>
</g>
<!-- Node15 -->
<g id="node15" class="node"><title>Node15</title>
<g id="a_node15"><a xlink:href="structjuce_1_1ResizableWindow_1_1LookAndFeelMethods.html" target="_top" xlink:title="This abstract base class is implemented by LookAndFeel classes to provide window drawing functionalit...">
<polygon fill="none" stroke="black" points="40.5,-756 40.5,-786 159.5,-786 159.5,-756 40.5,-756"/>
<text text-anchor="start" x="48.5" y="-774" font-family="Helvetica,sans-Serif" font-size="10.00">juce::ResizableWindow</text>
<text text-anchor="middle" x="100" y="-763" font-family="Helvetica,sans-Serif" font-size="10.00">::LookAndFeelMethods</text>
</a>
</g>
</g>
<!-- Node15&#45;&gt;Node2 -->
<g id="edge14" class="edge"><title>Node15&#45;&gt;Node2</title>
<path fill="none" stroke="midnightblue" d="M169.589,-756.356C179.935,-753.382 190.362,-749.936 200,-746 226.258,-735.276 254.228,-717.525 270.355,-706.588"/>
<polygon fill="midnightblue" stroke="midnightblue" points="168.441,-753.041 159.723,-759.062 170.293,-759.792 168.441,-753.041"/>
</g>
<!-- Node16 -->
<g id="node16" class="node"><title>Node16</title>
<g id="a_node16"><a xlink:href="structjuce_1_1DocumentWindow_1_1LookAndFeelMethods.html" target="_top" xlink:title="This abstract base class is implemented by LookAndFeel classes to provide window drawing functionalit...">
<polygon fill="none" stroke="black" points="39.5,-707 39.5,-737 160.5,-737 160.5,-707 39.5,-707"/>
<text text-anchor="start" x="47.5" y="-725" font-family="Helvetica,sans-Serif" font-size="10.00">juce::DocumentWindow</text>
<text text-anchor="middle" x="100" y="-714" font-family="Helvetica,sans-Serif" font-size="10.00">::LookAndFeelMethods</text>
</a>
</g>
</g>
<!-- Node16&#45;&gt;Node2 -->
<g id="edge15" class="edge"><title>Node16&#45;&gt;Node2</title>
<path fill="none" stroke="midnightblue" d="M170.851,-712.458C192.603,-709.486 216.086,-706.278 235.991,-703.559"/>
<polygon fill="midnightblue" stroke="midnightblue" points="170.102,-709.027 160.668,-713.849 171.05,-715.963 170.102,-709.027"/>
</g>
<!-- Node17 -->
<g id="node17" class="node"><title>Node17</title>
<g id="a_node17"><a xlink:href="structjuce_1_1TooltipWindow_1_1LookAndFeelMethods.html" target="_top" xlink:title="This abstract base class is implemented by LookAndFeel classes to provide window drawing functionalit...">
<polygon fill="none" stroke="black" points="41.5,-658 41.5,-688 158.5,-688 158.5,-658 41.5,-658"/>
<text text-anchor="start" x="49.5" y="-676" font-family="Helvetica,sans-Serif" font-size="10.00">juce::TooltipWindow</text>
<text text-anchor="middle" x="100" y="-665" font-family="Helvetica,sans-Serif" font-size="10.00">::LookAndFeelMethods</text>
</a>
</g>
</g>
<!-- Node17&#45;&gt;Node2 -->
<g id="edge16" class="edge"><title>Node17&#45;&gt;Node2</title>
<path fill="none" stroke="midnightblue" d="M168.728,-681.882C191.016,-684.805 215.326,-687.994 235.85,-690.685"/>
<polygon fill="midnightblue" stroke="midnightblue" points="169.021,-678.391 158.651,-680.561 168.111,-685.332 169.021,-678.391"/>
</g>
<!-- Node18 -->
<g id="node18" class="node"><title>Node18</title>
<g id="a_node18"><a xlink:href="structjuce_1_1TabbedButtonBar_1_1LookAndFeelMethods.html" target="_top" xlink:title="This abstract base class is implemented by LookAndFeel classes to provide window drawing functionalit...">
<polygon fill="none" stroke="black" points="41.5,-609 41.5,-639 158.5,-639 158.5,-609 41.5,-609"/>
<text text-anchor="start" x="49.5" y="-627" font-family="Helvetica,sans-Serif" font-size="10.00">juce::TabbedButtonBar</text>
<text text-anchor="middle" x="100" y="-616" font-family="Helvetica,sans-Serif" font-size="10.00">::LookAndFeelMethods</text>
</a>
</g>
</g>
<!-- Node18&#45;&gt;Node2 -->
<g id="edge17" class="edge"><title>Node18&#45;&gt;Node2</title>
<path fill="none" stroke="midnightblue" d="M168.429,-638.4C179.148,-641.436 189.993,-644.965 200,-649 226.015,-659.489 253.835,-676.72 270.034,-687.433"/>
<polygon fill="midnightblue" stroke="midnightblue" points="169.216,-634.987 158.648,-635.749 167.385,-641.743 169.216,-634.987"/>
</g>
<!-- Node19 -->
<g id="node19" class="node"><title>Node19</title>
<g id="a_node19"><a xlink:href="structjuce_1_1PropertyComponent_1_1LookAndFeelMethods.html" target="_top" xlink:title="This abstract base class is implemented by LookAndFeel classes. ">
<polygon fill="none" stroke="black" points="36,-560 36,-590 164,-590 164,-560 36,-560"/>
<text text-anchor="start" x="44" y="-578" font-family="Helvetica,sans-Serif" font-size="10.00">juce::PropertyComponent</text>
<text text-anchor="middle" x="100" y="-567" font-family="Helvetica,sans-Serif" font-size="10.00">::LookAndFeelMethods</text>
</a>
</g>
</g>
<!-- Node19&#45;&gt;Node2 -->
<g id="edge18" class="edge"><title>Node19&#45;&gt;Node2</title>
<path fill="none" stroke="midnightblue" d="M173.712,-587.853C182.924,-591.047 191.935,-595.031 200,-600 237.173,-622.905 266.664,-667.596 278.446,-687.287"/>
<polygon fill="midnightblue" stroke="midnightblue" points="174.661,-584.482 164.071,-584.803 172.55,-591.156 174.661,-584.482"/>
</g>
<!-- Node20 -->
<g id="node20" class="node"><title>Node20</title>
<g id="a_node20"><a xlink:href="structjuce_1_1FilenameComponent_1_1LookAndFeelMethods.html" target="_top" xlink:title="This abstract base class is implemented by LookAndFeel classes. ">
<polygon fill="none" stroke="black" points="34.5,-511 34.5,-541 165.5,-541 165.5,-511 34.5,-511"/>
<text text-anchor="start" x="42.5" y="-529" font-family="Helvetica,sans-Serif" font-size="10.00">juce::FilenameComponent</text>
<text text-anchor="middle" x="100" y="-518" font-family="Helvetica,sans-Serif" font-size="10.00">::LookAndFeelMethods</text>
</a>
</g>
</g>
<!-- Node20&#45;&gt;Node2 -->
<g id="edge19" class="edge"><title>Node20&#45;&gt;Node2</title>
<path fill="none" stroke="midnightblue" d="M175.333,-537.697C184.157,-541.077 192.631,-545.421 200,-551 248.495,-587.715 273.639,-661.151 281.363,-687.399"/>
<polygon fill="midnightblue" stroke="midnightblue" points="176.252,-534.313 165.658,-534.395 173.991,-540.938 176.252,-534.313"/>
</g>
<!-- Node21 -->
<g id="node21" class="node"><title>Node21</title>
<g id="a_node21"><a xlink:href="structjuce_1_1GroupComponent_1_1LookAndFeelMethods.html" target="_top" xlink:title="This abstract base class is implemented by LookAndFeel classes. ">
<polygon fill="none" stroke="black" points="41.5,-462 41.5,-492 158.5,-492 158.5,-462 41.5,-462"/>
<text text-anchor="start" x="49.5" y="-480" font-family="Helvetica,sans-Serif" font-size="10.00">juce::GroupComponent</text>
<text text-anchor="middle" x="100" y="-469" font-family="Helvetica,sans-Serif" font-size="10.00">::LookAndFeelMethods</text>
</a>
</g>
</g>
<!-- Node21&#45;&gt;Node2 -->
<g id="edge20" class="edge"><title>Node21&#45;&gt;Node2</title>
<path fill="none" stroke="midnightblue" d="M168.327,-485.132C179.808,-488.883 190.934,-494.275 200,-502 260.043,-553.162 278.4,-655.052 282.807,-687.107"/>
<polygon fill="midnightblue" stroke="midnightblue" points="169.215,-481.745 158.638,-482.351 167.284,-488.474 169.215,-481.745"/>
</g>
<!-- Node22 -->
<g id="node22" class="node"><title>Node22</title>
<g id="a_node22"><a xlink:href="structjuce_1_1TableHeaderComponent_1_1LookAndFeelMethods.html" target="_top" xlink:title="This abstract base class is implemented by LookAndFeel classes. ">
<polygon fill="none" stroke="black" points="27,-413 27,-443 173,-443 173,-413 27,-413"/>
<text text-anchor="start" x="35" y="-431" font-family="Helvetica,sans-Serif" font-size="10.00">juce::TableHeaderComponent</text>
<text text-anchor="middle" x="100" y="-420" font-family="Helvetica,sans-Serif" font-size="10.00">::LookAndFeelMethods</text>
</a>
</g>
</g>
<!-- Node22&#45;&gt;Node2 -->
<g id="edge21" class="edge"><title>Node22&#45;&gt;Node2</title>
<path fill="none" stroke="midnightblue" d="M182.689,-441.278C188.982,-444.428 194.87,-448.285 200,-453 272.236,-519.396 282.354,-650.758 283.77,-687.343"/>
<polygon fill="midnightblue" stroke="midnightblue" points="183.786,-437.938 173.221,-437.149 180.988,-444.355 183.786,-437.938"/>
</g>
<!-- Node23 -->
<g id="node23" class="node"><title>Node23</title>
<g id="a_node23"><a xlink:href="structjuce_1_1CallOutBox_1_1LookAndFeelMethods.html" target="_top" xlink:title="This abstract base class is implemented by LookAndFeel classes. ">
<polygon fill="none" stroke="black" points="32.5,-364 32.5,-394 167.5,-394 167.5,-364 32.5,-364"/>
<text text-anchor="start" x="40.5" y="-382" font-family="Helvetica,sans-Serif" font-size="10.00">juce::CallOutBox::LookAnd</text>
<text text-anchor="middle" x="100" y="-371" font-family="Helvetica,sans-Serif" font-size="10.00">FeelMethods</text>
</a>
</g>
</g>
<!-- Node23&#45;&gt;Node2 -->
<g id="edge22" class="edge"><title>Node23&#45;&gt;Node2</title>
<path fill="none" stroke="midnightblue" d="M177.355,-389.348C185.714,-392.96 193.524,-397.727 200,-404 284.57,-485.919 285.588,-646.774 284.406,-687.469"/>
<polygon fill="midnightblue" stroke="midnightblue" points="178.319,-385.971 167.726,-385.742 175.864,-392.527 178.319,-385.971"/>
</g>
<!-- Node24 -->
<g id="node24" class="node"><title>Node24</title>
<g id="a_node24"><a xlink:href="structjuce_1_1Toolbar_1_1LookAndFeelMethods.html" target="_top" xlink:title="This abstract base class is implemented by LookAndFeel classes. ">
<polygon fill="none" stroke="black" points="32,-315 32,-345 168,-345 168,-315 32,-315"/>
<text text-anchor="start" x="40" y="-333" font-family="Helvetica,sans-Serif" font-size="10.00">juce::Toolbar::LookAndFeel</text>
<text text-anchor="middle" x="100" y="-322" font-family="Helvetica,sans-Serif" font-size="10.00">Methods</text>
</a>
</g>
</g>
<!-- Node24&#45;&gt;Node2 -->
<g id="edge23" class="edge"><title>Node24&#45;&gt;Node2</title>
<path fill="none" stroke="midnightblue" d="M177.767,-340.189C186.019,-343.832 193.691,-348.65 200,-355 249.124,-404.445 277.376,-637.095 282.968,-687.396"/>
<polygon fill="midnightblue" stroke="midnightblue" points="178.837,-336.851 168.246,-336.557 176.342,-343.392 178.837,-336.851"/>
</g>
<!-- Node25 -->
<g id="node25" class="node"><title>Node25</title>
<g id="a_node25"><a xlink:href="structjuce_1_1ConcertinaPanel_1_1LookAndFeelMethods.html" target="_top" xlink:title="This abstract base class is implemented by LookAndFeel classes. ">
<polygon fill="none" stroke="black" points="41.5,-266 41.5,-296 158.5,-296 158.5,-266 41.5,-266"/>
<text text-anchor="start" x="49.5" y="-284" font-family="Helvetica,sans-Serif" font-size="10.00">juce::ConcertinaPanel</text>
<text text-anchor="middle" x="100" y="-273" font-family="Helvetica,sans-Serif" font-size="10.00">::LookAndFeelMethods</text>
</a>
</g>
</g>
<!-- Node25&#45;&gt;Node2 -->
<g id="edge24" class="edge"><title>Node25&#45;&gt;Node2</title>
<path fill="none" stroke="midnightblue" d="M168.634,-287.417C180.355,-291.3 191.49,-297.18 200,-306 255.441,-363.459 279.065,-633.283 283.292,-687.498"/>
<polygon fill="midnightblue" stroke="midnightblue" points="169.27,-283.959 158.695,-284.603 167.364,-290.695 169.27,-283.959"/>
</g>
<!-- Node26 -->
<g id="node26" class="node"><title>Node26</title>
<g id="a_node26"><a xlink:href="structjuce_1_1ProgressBar_1_1LookAndFeelMethods.html" target="_top" xlink:title="This abstract base class is implemented by LookAndFeel classes. ">
<polygon fill="none" stroke="black" points="44.5,-217 44.5,-247 155.5,-247 155.5,-217 44.5,-217"/>
<text text-anchor="start" x="52.5" y="-235" font-family="Helvetica,sans-Serif" font-size="10.00">juce::ProgressBar::</text>
<text text-anchor="middle" x="100" y="-224" font-family="Helvetica,sans-Serif" font-size="10.00">LookAndFeelMethods</text>
</a>
</g>
</g>
<!-- Node26&#45;&gt;Node2 -->
<g id="edge25" class="edge"><title>Node26&#45;&gt;Node2</title>
<path fill="none" stroke="midnightblue" d="M165.448,-237.205C178.374,-241.061 190.793,-247.236 200,-257 261.756,-322.493 280.512,-629.347 283.536,-687.481"/>
<polygon fill="midnightblue" stroke="midnightblue" points="166.063,-233.751 155.509,-234.688 164.344,-240.536 166.063,-233.751"/>
</g>
<!-- Node27 -->
<g id="node27" class="node"><title>Node27</title>
<g id="a_node27"><a xlink:href="structjuce_1_1StretchableLayoutResizerBar_1_1LookAndFeelMethods.html" target="_top" xlink:title="This abstract base class is implemented by LookAndFeel classes. ">
<polygon fill="none" stroke="black" points="23.5,-168 23.5,-198 176.5,-198 176.5,-168 23.5,-168"/>
<text text-anchor="start" x="31.5" y="-186" font-family="Helvetica,sans-Serif" font-size="10.00">juce::StretchableLayoutResizer</text>
<text text-anchor="middle" x="100" y="-175" font-family="Helvetica,sans-Serif" font-size="10.00">Bar::LookAndFeelMethods</text>
</a>
</g>
</g>
<!-- Node27&#45;&gt;Node2 -->
<g id="edge26" class="edge"><title>Node27&#45;&gt;Node2</title>
<path fill="none" stroke="midnightblue" d="M186.01,-196.828C191.166,-199.898 195.911,-203.583 200,-208 268.021,-281.488 281.774,-624.835 283.726,-687.252"/>
<polygon fill="midnightblue" stroke="midnightblue" points="187.486,-193.652 176.988,-192.222 184.303,-199.886 187.486,-193.652"/>
</g>
<!-- Node28 -->
<g id="node28" class="node"><title>Node28</title>
<g id="a_node28"><a xlink:href="structjuce_1_1ExtraLookAndFeelBaseClasses_1_1KeyMappingEditorComponentMethods.html" target="_top" xlink:title="This abstract base class is implemented by LookAndFeel classes. ">
<polygon fill="none" stroke="black" points="6,-108.5 6,-149.5 194,-149.5 194,-108.5 6,-108.5"/>
<text text-anchor="start" x="14" y="-137.5" font-family="Helvetica,sans-Serif" font-size="10.00">juce::ExtraLookAndFeelBase</text>
<text text-anchor="start" x="14" y="-126.5" font-family="Helvetica,sans-Serif" font-size="10.00">Classes::KeyMappingEditorComponent</text>
<text text-anchor="middle" x="100" y="-115.5" font-family="Helvetica,sans-Serif" font-size="10.00">Methods</text>
</a>
</g>
</g>
<!-- Node28&#45;&gt;Node2 -->
<g id="edge27" class="edge"><title>Node28&#45;&gt;Node2</title>
<path fill="none" stroke="midnightblue" d="M197.323,-156.122C198.245,-157.05 199.138,-158.009 200,-159 272.42,-242.287 282.613,-621.226 283.846,-687.193"/>
<polygon fill="midnightblue" stroke="midnightblue" points="199.593,-153.458 189.724,-149.602 195.034,-158.77 199.593,-153.458"/>
</g>
<!-- Node29 -->
<g id="node29" class="node"><title>Node29</title>
<g id="a_node29"><a xlink:href="structjuce_1_1ExtraLookAndFeelBaseClasses_1_1AudioDeviceSelectorComponentMethods.html" target="_top" xlink:title="This abstract base class is implemented by LookAndFeel classes. ">
<polygon fill="none" stroke="black" points="0,-48.5 0,-89.5 200,-89.5 200,-48.5 0,-48.5"/>
<text text-anchor="start" x="8" y="-77.5" font-family="Helvetica,sans-Serif" font-size="10.00">juce::ExtraLookAndFeelBase</text>
<text text-anchor="start" x="8" y="-66.5" font-family="Helvetica,sans-Serif" font-size="10.00">Classes::AudioDeviceSelectorComponent</text>
<text text-anchor="middle" x="100" y="-55.5" font-family="Helvetica,sans-Serif" font-size="10.00">Methods</text>
</a>
</g>
</g>
<!-- Node29&#45;&gt;Node2 -->
<g id="edge28" class="edge"><title>Node29&#45;&gt;Node2</title>
<path fill="none" stroke="midnightblue" d="M197.344,-96.1037C198.26,-97.0373 199.146,-98.0024 200,-99 280.115,-192.575 283.928,-618.267 284.014,-687.477"/>
<polygon fill="midnightblue" stroke="midnightblue" points="199.636,-93.4582 189.79,-89.5452 195.047,-98.744 199.636,-93.4582"/>
</g>
<!-- Node30 -->
<g id="node30" class="node"><title>Node30</title>
<g id="a_node30"><a xlink:href="structjuce_1_1ExtraLookAndFeelBaseClasses_1_1LassoComponentMethods.html" target="_top" xlink:title="This abstract base class is implemented by LookAndFeel classes. ">
<polygon fill="none" stroke="black" points="13.5,-0 13.5,-30 186.5,-30 186.5,-0 13.5,-0"/>
<text text-anchor="start" x="21.5" y="-18" font-family="Helvetica,sans-Serif" font-size="10.00">juce::ExtraLookAndFeelBase</text>
<text text-anchor="middle" x="100" y="-7" font-family="Helvetica,sans-Serif" font-size="10.00">Classes::LassoComponentMethods</text>
</a>
</g>
</g>
<!-- Node30&#45;&gt;Node2 -->
<g id="edge29" class="edge"><title>Node30&#45;&gt;Node2</title>
<path fill="none" stroke="midnightblue" d="M194.955,-34.0496C196.732,-35.5856 198.419,-37.2332 200,-39 290.619,-140.267 285.547,-614.027 284.201,-687.433"/>
<polygon fill="midnightblue" stroke="midnightblue" points="196.778,-31.0485 186.63,-28.0061 192.666,-36.7132 196.778,-31.0485"/>
</g>
<!-- Node33 -->
<g id="node33" class="node"><title>Node33</title>
<g id="a_node33"><a xlink:href="classjuce_1_1LookAndFeel__V4.html" target="_top" xlink:title="juce::LookAndFeel_V4">
<polygon fill="none" stroke="black" points="674.5,-668.5 674.5,-687.5 789.5,-687.5 789.5,-668.5 674.5,-668.5"/>
<text text-anchor="middle" x="732" y="-675.5" font-family="Helvetica,sans-Serif" font-size="10.00">juce::LookAndFeel_V4</text>
</a>
</g>
</g>
<!-- Node32&#45;&gt;Node33 -->
<g id="edge32" class="edge"><title>Node32&#45;&gt;Node33</title>
<path fill="none" stroke="midnightblue" d="M647.916,-678C656.694,-678 665.622,-678 674.211,-678"/>
<polygon fill="midnightblue" stroke="midnightblue" points="647.709,-674.5 637.709,-678 647.709,-681.5 647.709,-674.5"/>
</g>
</g>
</svg>
