<?xml version="1.0" encoding="UTF-8" standalone="no"?>
<!DOCTYPE svg PUBLIC "-//W3C//DTD SVG 1.1//EN"
 "http://www.w3.org/Graphics/SVG/1.1/DTD/svg11.dtd">
<!-- Generated by graphviz version 2.36.0 (20140111.2315)
 -->
<!-- Title: Button::Listener Pages: 1 -->
<svg width="342pt" height="84pt"
 viewBox="0.00 0.00 342.00 84.00" xmlns="http://www.w3.org/2000/svg" xmlns:xlink="http://www.w3.org/1999/xlink">
<g id="graph0" class="graph" transform="scale(1 1) rotate(0) translate(4 80)">
<title>Button::Listener</title>
<!-- Node1 -->
<g id="node1" class="node"><title>Node1</title>
<polygon fill="#bfbfbf" stroke="black" points="102,-56.5 102,-75.5 188,-75.5 188,-56.5 102,-56.5"/>
<text text-anchor="middle" x="145" y="-63.5" font-family="Helvetica,sans-Serif" font-size="10.00">Button::Listener</text>
</g>
<!-- Node2 -->
<g id="node2" class="node"><title>Node2</title>
<g id="a_node2"><a xlink:href="classButtonTracker.html" target="_top" xlink:title="A class that automatically sends analytics events to the Analytics singleton when a button is clicked...">
<polygon fill="none" stroke="black" points="0,-0.5 0,-19.5 78,-19.5 78,-0.5 0,-0.5"/>
<text text-anchor="middle" x="39" y="-7.5" font-family="Helvetica,sans-Serif" font-size="10.00">ButtonTracker</text>
</a>
</g>
</g>
<!-- Node1&#45;&gt;Node2 -->
<g id="edge1" class="edge"><title>Node1&#45;&gt;Node2</title>
<path fill="none" stroke="#8b1a1a" d="M118.944,-51.7261C99.3162,-41.7271 72.972,-28.3065 55.9885,-19.6545"/>
<polygon fill="#8b1a1a" stroke="#8b1a1a" points="117.47,-54.9033 127.969,-56.324 120.648,-48.666 117.47,-54.9033"/>
</g>
<!-- Node3 -->
<g id="node3" class="node"><title>Node3</title>
<g id="a_node3"><a xlink:href="classOnlineUnlockForm.html" target="_top" xlink:title="Acts as a GUI which asks the user for their details, and calls the appropriate methods on your Online...">
<polygon fill="none" stroke="black" points="96,-0.5 96,-19.5 194,-19.5 194,-0.5 96,-0.5"/>
<text text-anchor="middle" x="145" y="-7.5" font-family="Helvetica,sans-Serif" font-size="10.00">OnlineUnlockForm</text>
</a>
</g>
</g>
<!-- Node1&#45;&gt;Node3 -->
<g id="edge2" class="edge"><title>Node1&#45;&gt;Node3</title>
<path fill="none" stroke="#8b1a1a" d="M145,-45.8045C145,-36.9102 145,-26.7798 145,-19.7511"/>
<polygon fill="#8b1a1a" stroke="#8b1a1a" points="141.5,-46.083 145,-56.083 148.5,-46.083 141.5,-46.083"/>
</g>
<!-- Node4 -->
<g id="node4" class="node"><title>Node4</title>
<g id="a_node4"><a xlink:href="classStandaloneFilterWindow.html" target="_top" xlink:title="A class that can be used to run a simple standalone application containing your filter. ">
<polygon fill="none" stroke="black" points="212,-0.5 212,-19.5 334,-19.5 334,-0.5 212,-0.5"/>
<text text-anchor="middle" x="273" y="-7.5" font-family="Helvetica,sans-Serif" font-size="10.00">StandaloneFilterWindow</text>
</a>
</g>
</g>
<!-- Node1&#45;&gt;Node4 -->
<g id="edge3" class="edge"><title>Node1&#45;&gt;Node4</title>
<path fill="none" stroke="midnightblue" d="M174.623,-52.503C198.619,-42.3795 231.784,-28.388 252.813,-19.5164"/>
<polygon fill="midnightblue" stroke="midnightblue" points="173.135,-49.3317 165.282,-56.4435 175.856,-55.7813 173.135,-49.3317"/>
</g>
</g>
</svg>
