<?xml version="1.0" encoding="UTF-8" standalone="no"?>
<!DOCTYPE svg PUBLIC "-//W3C//DTD SVG 1.1//EN"
 "http://www.w3.org/Graphics/SVG/1.1/DTD/svg11.dtd">
<!-- Generated by graphviz version 2.36.0 (20140111.2315)
 -->
<!-- Title: FileTreeComponent Pages: 1 -->
<svg width="466pt" height="208pt"
 viewBox="0.00 0.00 466.00 208.00" xmlns="http://www.w3.org/2000/svg" xmlns:xlink="http://www.w3.org/1999/xlink">
<g id="graph0" class="graph" transform="scale(1 1) rotate(0) translate(4 204)">
<title>FileTreeComponent</title>
<!-- Node1 -->
<g id="node1" class="node"><title>Node1</title>
<polygon fill="#bfbfbf" stroke="black" points="215,-0.5 215,-19.5 317,-19.5 317,-0.5 215,-0.5"/>
<text text-anchor="middle" x="266" y="-7.5" font-family="Helvetica,sans-Serif" font-size="10.00">FileTreeComponent</text>
</g>
<!-- Node2 -->
<g id="node2" class="node"><title>Node2</title>
<g id="a_node2"><a xlink:href="group__juce__gui__basics-widgets.html#classTreeView" target="_top" xlink:title="A tree&#45;view component. ">
<polygon fill="none" stroke="black" points="181,-62.5 181,-81.5 239,-81.5 239,-62.5 181,-62.5"/>
<text text-anchor="middle" x="210" y="-69.5" font-family="Helvetica,sans-Serif" font-size="10.00">TreeView</text>
</a>
</g>
</g>
<!-- Node2&#45;&gt;Node1 -->
<g id="edge1" class="edge"><title>Node2&#45;&gt;Node1</title>
<path fill="none" stroke="midnightblue" d="M225.061,-54.863C235.661,-43.5064 249.431,-28.7524 257.991,-19.5806"/>
<polygon fill="midnightblue" stroke="midnightblue" points="222.288,-52.7048 218.023,-62.4035 227.405,-57.481 222.288,-52.7048"/>
</g>
<!-- Node3 -->
<g id="node3" class="node"><title>Node3</title>
<g id="a_node3"><a xlink:href="group__juce__gui__basics-components.html#classComponent" target="_top" xlink:title="The base class for all JUCE user&#45;interface objects. ">
<polygon fill="none" stroke="black" points="6.5,-124.5 6.5,-143.5 73.5,-143.5 73.5,-124.5 6.5,-124.5"/>
<text text-anchor="middle" x="40" y="-131.5" font-family="Helvetica,sans-Serif" font-size="10.00">Component</text>
</a>
</g>
</g>
<!-- Node3&#45;&gt;Node2 -->
<g id="edge2" class="edge"><title>Node3&#45;&gt;Node2</title>
<path fill="none" stroke="midnightblue" d="M74.0492,-120.983C107.094,-109.32 156.422,-91.91 185.688,-81.5806"/>
<polygon fill="midnightblue" stroke="midnightblue" points="72.6219,-117.775 64.3569,-124.403 74.9517,-124.376 72.6219,-117.775"/>
</g>
<!-- Node4 -->
<g id="node4" class="node"><title>Node4</title>
<g id="a_node4"><a xlink:href="group__juce__gui__basics-mouse.html#classMouseListener" target="_top" xlink:title="A MouseListener can be registered with a component to receive callbacks about mouse events that happe...">
<polygon fill="none" stroke="black" points="0,-180.5 0,-199.5 80,-199.5 80,-180.5 0,-180.5"/>
<text text-anchor="middle" x="40" y="-187.5" font-family="Helvetica,sans-Serif" font-size="10.00">MouseListener</text>
</a>
</g>
</g>
<!-- Node4&#45;&gt;Node3 -->
<g id="edge3" class="edge"><title>Node4&#45;&gt;Node3</title>
<path fill="none" stroke="midnightblue" d="M40,-169.805C40,-160.91 40,-150.78 40,-143.751"/>
<polygon fill="midnightblue" stroke="midnightblue" points="36.5001,-170.083 40,-180.083 43.5001,-170.083 36.5001,-170.083"/>
</g>
<!-- Node5 -->
<g id="node5" class="node"><title>Node5</title>
<g id="a_node5"><a xlink:href="group__juce__gui__basics-mouse.html#classSettableTooltipClient" target="_top" xlink:title="An implementation of TooltipClient that stores the tooltip string and a method for changing it...">
<polygon fill="none" stroke="black" points="91.5,-124.5 91.5,-143.5 198.5,-143.5 198.5,-124.5 91.5,-124.5"/>
<text text-anchor="middle" x="145" y="-131.5" font-family="Helvetica,sans-Serif" font-size="10.00">SettableTooltipClient</text>
</a>
</g>
</g>
<!-- Node5&#45;&gt;Node2 -->
<g id="edge4" class="edge"><title>Node5&#45;&gt;Node2</title>
<path fill="none" stroke="midnightblue" d="M161.769,-117.521C174.162,-106.082 190.575,-90.9305 200.704,-81.5806"/>
<polygon fill="midnightblue" stroke="midnightblue" points="159.287,-115.049 154.313,-124.403 164.035,-120.192 159.287,-115.049"/>
</g>
<!-- Node6 -->
<g id="node6" class="node"><title>Node6</title>
<g id="a_node6"><a xlink:href="group__juce__gui__basics-mouse.html#classTooltipClient" target="_top" xlink:title="Components that want to use pop&#45;up tooltips should implement this interface. ">
<polygon fill="none" stroke="black" points="109.5,-180.5 109.5,-199.5 180.5,-199.5 180.5,-180.5 109.5,-180.5"/>
<text text-anchor="middle" x="145" y="-187.5" font-family="Helvetica,sans-Serif" font-size="10.00">TooltipClient</text>
</a>
</g>
</g>
<!-- Node6&#45;&gt;Node5 -->
<g id="edge5" class="edge"><title>Node6&#45;&gt;Node5</title>
<path fill="none" stroke="midnightblue" d="M145,-169.805C145,-160.91 145,-150.78 145,-143.751"/>
<polygon fill="midnightblue" stroke="midnightblue" points="141.5,-170.083 145,-180.083 148.5,-170.083 141.5,-170.083"/>
</g>
<!-- Node7 -->
<g id="node7" class="node"><title>Node7</title>
<g id="a_node7"><a xlink:href="group__juce__gui__basics-mouse.html#classFileDragAndDropTarget" target="_top" xlink:title="Components derived from this class can have files dropped onto them by an external application...">
<polygon fill="none" stroke="black" points="216.5,-124.5 216.5,-143.5 335.5,-143.5 335.5,-124.5 216.5,-124.5"/>
<text text-anchor="middle" x="276" y="-131.5" font-family="Helvetica,sans-Serif" font-size="10.00">FileDragAndDropTarget</text>
</a>
</g>
</g>
<!-- Node7&#45;&gt;Node2 -->
<g id="edge6" class="edge"><title>Node7&#45;&gt;Node2</title>
<path fill="none" stroke="midnightblue" d="M258.973,-117.521C246.39,-106.082 229.724,-90.9305 219.439,-81.5806"/>
<polygon fill="midnightblue" stroke="midnightblue" points="256.79,-120.267 266.544,-124.403 261.499,-115.087 256.79,-120.267"/>
</g>
<!-- Node8 -->
<g id="node8" class="node"><title>Node8</title>
<g id="a_node8"><a xlink:href="group__juce__gui__basics-mouse.html#classDragAndDropTarget" target="_top" xlink:title="Components derived from this class can have things dropped onto them by a DragAndDropContainer. ">
<polygon fill="none" stroke="black" points="354,-124.5 354,-143.5 458,-143.5 458,-124.5 354,-124.5"/>
<text text-anchor="middle" x="406" y="-131.5" font-family="Helvetica,sans-Serif" font-size="10.00">DragAndDropTarget</text>
</a>
</g>
</g>
<!-- Node8&#45;&gt;Node2 -->
<g id="edge7" class="edge"><title>Node8&#45;&gt;Node2</title>
<path fill="none" stroke="midnightblue" d="M362.504,-121.85C330.568,-113.364 286.268,-100.967 248,-88 242.357,-86.088 236.326,-83.8157 230.769,-81.6255"/>
<polygon fill="midnightblue" stroke="midnightblue" points="361.854,-125.298 372.416,-124.463 363.639,-118.529 361.854,-125.298"/>
</g>
<!-- Node9 -->
<g id="node9" class="node"><title>Node9</title>
<g id="a_node9"><a xlink:href="group__juce__gui__basics-filebrowser.html#classDirectoryContentsDisplayComponent" target="_top" xlink:title="A base class for components that display a list of the files in a directory. ">
<polygon fill="none" stroke="black" points="257.5,-57 257.5,-87 386.5,-87 386.5,-57 257.5,-57"/>
<text text-anchor="start" x="265.5" y="-75" font-family="Helvetica,sans-Serif" font-size="10.00">DirectoryContentsDisplay</text>
<text text-anchor="middle" x="322" y="-64" font-family="Helvetica,sans-Serif" font-size="10.00">Component</text>
</a>
</g>
</g>
<!-- Node9&#45;&gt;Node1 -->
<g id="edge8" class="edge"><title>Node9&#45;&gt;Node1</title>
<path fill="none" stroke="midnightblue" d="M301.767,-49.3217C292.223,-39.0958 281.371,-27.4692 274.148,-19.7305"/>
<polygon fill="midnightblue" stroke="midnightblue" points="299.347,-51.8584 308.729,-56.7808 304.464,-47.0821 299.347,-51.8584"/>
</g>
</g>
</svg>
