<?xml version="1.0" encoding="UTF-8" standalone="no"?>
<!DOCTYPE svg PUBLIC "-//W3C//DTD SVG 1.1//EN"
 "http://www.w3.org/Graphics/SVG/1.1/DTD/svg11.dtd">
<!-- Generated by graphviz version 2.36.0 (20140111.2315)
 -->
<!-- Title: DrawableImage Pages: 1 -->
<svg width="92pt" height="196pt"
 viewBox="0.00 0.00 92.00 196.00" xmlns="http://www.w3.org/2000/svg" xmlns:xlink="http://www.w3.org/1999/xlink">
<g id="graph0" class="graph" transform="scale(1 1) rotate(0) translate(4 192)">
<title>DrawableImage</title>
<!-- Node1 -->
<g id="node1" class="node"><title>Node1</title>
<polygon fill="#bfbfbf" stroke="black" points="-0.5,-0.5 -0.5,-19.5 84.5,-19.5 84.5,-0.5 -0.5,-0.5"/>
<text text-anchor="middle" x="42" y="-7.5" font-family="Helvetica,sans-Serif" font-size="10.00">DrawableImage</text>
</g>
<!-- Node2 -->
<g id="node2" class="node"><title>Node2</title>
<g id="a_node2"><a xlink:href="classDrawable.html" target="_top" xlink:title="The base class for objects which can draw themselves, e.g. ">
<polygon fill="none" stroke="black" points="13,-56.5 13,-75.5 71,-75.5 71,-56.5 13,-56.5"/>
<text text-anchor="middle" x="42" y="-63.5" font-family="Helvetica,sans-Serif" font-size="10.00">Drawable</text>
</a>
</g>
</g>
<!-- Node2&#45;&gt;Node1 -->
<g id="edge1" class="edge"><title>Node2&#45;&gt;Node1</title>
<path fill="none" stroke="midnightblue" d="M42,-45.8045C42,-36.9102 42,-26.7798 42,-19.7511"/>
<polygon fill="midnightblue" stroke="midnightblue" points="38.5001,-46.083 42,-56.083 45.5001,-46.083 38.5001,-46.083"/>
</g>
<!-- Node3 -->
<g id="node3" class="node"><title>Node3</title>
<g id="a_node3"><a xlink:href="classComponent.html" target="_top" xlink:title="The base class for all JUCE user&#45;interface objects. ">
<polygon fill="none" stroke="black" points="8.5,-112.5 8.5,-131.5 75.5,-131.5 75.5,-112.5 8.5,-112.5"/>
<text text-anchor="middle" x="42" y="-119.5" font-family="Helvetica,sans-Serif" font-size="10.00">Component</text>
</a>
</g>
</g>
<!-- Node3&#45;&gt;Node2 -->
<g id="edge2" class="edge"><title>Node3&#45;&gt;Node2</title>
<path fill="none" stroke="midnightblue" d="M42,-101.805C42,-92.9102 42,-82.7798 42,-75.7511"/>
<polygon fill="midnightblue" stroke="midnightblue" points="38.5001,-102.083 42,-112.083 45.5001,-102.083 38.5001,-102.083"/>
</g>
<!-- Node4 -->
<g id="node4" class="node"><title>Node4</title>
<g id="a_node4"><a xlink:href="classMouseListener.html" target="_top" xlink:title="A MouseListener can be registered with a component to receive callbacks about mouse events that happe...">
<polygon fill="none" stroke="black" points="2,-168.5 2,-187.5 82,-187.5 82,-168.5 2,-168.5"/>
<text text-anchor="middle" x="42" y="-175.5" font-family="Helvetica,sans-Serif" font-size="10.00">MouseListener</text>
</a>
</g>
</g>
<!-- Node4&#45;&gt;Node3 -->
<g id="edge3" class="edge"><title>Node4&#45;&gt;Node3</title>
<path fill="none" stroke="midnightblue" d="M42,-157.805C42,-148.91 42,-138.78 42,-131.751"/>
<polygon fill="midnightblue" stroke="midnightblue" points="38.5001,-158.083 42,-168.083 45.5001,-158.083 38.5001,-158.083"/>
</g>
</g>
</svg>
