<?xml version="1.0" encoding="UTF-8" standalone="no"?>
<!DOCTYPE svg PUBLIC "-//W3C//DTD SVG 1.1//EN"
 "http://www.w3.org/Graphics/SVG/1.1/DTD/svg11.dtd">
<!-- Generated by graphviz version 2.36.0 (20140111.2315)
 -->
<!-- Title: juce::ComboBox Pages: 1 -->
<svg width="406pt" height="180pt"
 viewBox="0.00 0.00 406.00 180.00" xmlns="http://www.w3.org/2000/svg" xmlns:xlink="http://www.w3.org/1999/xlink">
<g id="graph0" class="graph" transform="scale(1 1) rotate(0) translate(4 176)">
<title>juce::ComboBox</title>
<!-- Node1 -->
<g id="node1" class="node"><title>Node1</title>
<polygon fill="#bfbfbf" stroke="black" points="308.5,-76.5 308.5,-95.5 397.5,-95.5 397.5,-76.5 308.5,-76.5"/>
<text text-anchor="middle" x="353" y="-83.5" font-family="Helvetica,sans-Serif" font-size="10.00">juce::ComboBox</text>
</g>
<!-- Node2 -->
<g id="node2" class="node"><title>Node2</title>
<g id="a_node2"><a xlink:href="classjuce_1_1Component.html" target="_top" xlink:title="The base class for all JUCE user&#45;interface objects. ">
<polygon fill="none" stroke="black" points="160.5,-152.5 160.5,-171.5 251.5,-171.5 251.5,-152.5 160.5,-152.5"/>
<text text-anchor="middle" x="206" y="-159.5" font-family="Helvetica,sans-Serif" font-size="10.00">juce::Component</text>
</a>
</g>
</g>
<!-- Node2&#45;&gt;Node1 -->
<g id="edge1" class="edge"><title>Node2&#45;&gt;Node1</title>
<path fill="none" stroke="midnightblue" d="M257.157,-149.197C262.262,-147.346 267.295,-145.283 272,-143 298.85,-129.973 326.375,-108.12 341.105,-95.5956"/>
<polygon fill="midnightblue" stroke="midnightblue" points="255.688,-145.998 247.321,-152.497 257.915,-152.635 255.688,-145.998"/>
</g>
<!-- Node3 -->
<g id="node3" class="node"><title>Node3</title>
<g id="a_node3"><a xlink:href="classjuce_1_1MouseListener.html" target="_top" xlink:title="A MouseListener can be registered with a component to receive callbacks about mouse events that happe...">
<polygon fill="none" stroke="black" points="0,-152.5 0,-171.5 104,-171.5 104,-152.5 0,-152.5"/>
<text text-anchor="middle" x="52" y="-159.5" font-family="Helvetica,sans-Serif" font-size="10.00">juce::MouseListener</text>
</a>
</g>
</g>
<!-- Node3&#45;&gt;Node2 -->
<g id="edge2" class="edge"><title>Node3&#45;&gt;Node2</title>
<path fill="none" stroke="midnightblue" d="M114.074,-162C129.582,-162 145.952,-162 160.464,-162"/>
<polygon fill="midnightblue" stroke="midnightblue" points="114.037,-158.5 104.037,-162 114.037,-165.5 114.037,-158.5"/>
</g>
<!-- Node4 -->
<g id="node4" class="node"><title>Node4</title>
<g id="a_node4"><a xlink:href="classjuce_1_1SettableTooltipClient.html" target="_top" xlink:title="An implementation of TooltipClient that stores the tooltip string and a method for changing it...">
<polygon fill="none" stroke="black" points="140.5,-114.5 140.5,-133.5 271.5,-133.5 271.5,-114.5 140.5,-114.5"/>
<text text-anchor="middle" x="206" y="-121.5" font-family="Helvetica,sans-Serif" font-size="10.00">juce::SettableTooltipClient</text>
</a>
</g>
</g>
<!-- Node4&#45;&gt;Node1 -->
<g id="edge3" class="edge"><title>Node4&#45;&gt;Node1</title>
<path fill="none" stroke="midnightblue" d="M253.493,-111.816C273.624,-106.54 296.838,-100.456 315.673,-95.5201"/>
<polygon fill="midnightblue" stroke="midnightblue" points="252.376,-108.49 243.59,-114.411 254.15,-115.262 252.376,-108.49"/>
</g>
<!-- Node5 -->
<g id="node5" class="node"><title>Node5</title>
<g id="a_node5"><a xlink:href="classjuce_1_1TooltipClient.html" target="_top" xlink:title="Components that want to use pop&#45;up tooltips should implement this interface. ">
<polygon fill="none" stroke="black" points="4.5,-114.5 4.5,-133.5 99.5,-133.5 99.5,-114.5 4.5,-114.5"/>
<text text-anchor="middle" x="52" y="-121.5" font-family="Helvetica,sans-Serif" font-size="10.00">juce::TooltipClient</text>
</a>
</g>
</g>
<!-- Node5&#45;&gt;Node4 -->
<g id="edge4" class="edge"><title>Node5&#45;&gt;Node4</title>
<path fill="none" stroke="midnightblue" d="M109.992,-124C119.919,-124 130.309,-124 140.422,-124"/>
<polygon fill="midnightblue" stroke="midnightblue" points="109.845,-120.5 99.8453,-124 109.845,-127.5 109.845,-120.5"/>
</g>
<!-- Node6 -->
<g id="node6" class="node"><title>Node6</title>
<g id="a_node6"><a xlink:href="classjuce_1_1Label_1_1Listener.html" target="_top" xlink:title="A class for receiving events from a Label. ">
<polygon fill="none" stroke="black" points="154,-76.5 154,-95.5 258,-95.5 258,-76.5 154,-76.5"/>
<text text-anchor="middle" x="206" y="-83.5" font-family="Helvetica,sans-Serif" font-size="10.00">juce::Label::Listener</text>
</a>
</g>
</g>
<!-- Node6&#45;&gt;Node1 -->
<g id="edge5" class="edge"><title>Node6&#45;&gt;Node1</title>
<path fill="none" stroke="midnightblue" d="M268.224,-86C281.609,-86 295.52,-86 308.071,-86"/>
<polygon fill="midnightblue" stroke="midnightblue" points="268.122,-82.5001 258.122,-86 268.122,-89.5001 268.122,-82.5001"/>
</g>
<!-- Node7 -->
<g id="node7" class="node"><title>Node7</title>
<g id="a_node7"><a xlink:href="classjuce_1_1Value_1_1Listener.html" target="_top" xlink:title="Receives callbacks when a Value object changes. ">
<polygon fill="none" stroke="black" points="153,-38.5 153,-57.5 259,-57.5 259,-38.5 153,-38.5"/>
<text text-anchor="middle" x="206" y="-45.5" font-family="Helvetica,sans-Serif" font-size="10.00">juce::Value::Listener</text>
</a>
</g>
</g>
<!-- Node7&#45;&gt;Node1 -->
<g id="edge6" class="edge"><title>Node7&#45;&gt;Node1</title>
<path fill="none" stroke="midnightblue" d="M253.493,-60.1843C273.624,-65.46 296.838,-71.5438 315.673,-76.4799"/>
<polygon fill="midnightblue" stroke="midnightblue" points="254.15,-56.7385 243.59,-57.589 252.376,-63.5098 254.15,-56.7385"/>
</g>
<!-- Node8 -->
<g id="node8" class="node"><title>Node8</title>
<g id="a_node8"><a xlink:href="classjuce_1_1AsyncUpdater.html" target="_top" xlink:title="Has a callback method that is triggered asynchronously. ">
<polygon fill="none" stroke="black" points="154.5,-0.5 154.5,-19.5 257.5,-19.5 257.5,-0.5 154.5,-0.5"/>
<text text-anchor="middle" x="206" y="-7.5" font-family="Helvetica,sans-Serif" font-size="10.00">juce::AsyncUpdater</text>
</a>
</g>
</g>
<!-- Node8&#45;&gt;Node1 -->
<g id="edge7" class="edge"><title>Node8&#45;&gt;Node1</title>
<path fill="none" stroke="#8b1a1a" d="M257.157,-22.8027C262.262,-24.6537 267.295,-26.717 272,-29 298.85,-42.0274 326.375,-63.8801 341.105,-76.4044"/>
<polygon fill="#8b1a1a" stroke="#8b1a1a" points="257.915,-19.3651 247.321,-19.5029 255.688,-26.0016 257.915,-19.3651"/>
</g>
</g>
</svg>
