<?xml version="1.0" encoding="UTF-8" standalone="no"?>
<!DOCTYPE svg PUBLIC "-//W3C//DTD SVG 1.1//EN"
 "http://www.w3.org/Graphics/SVG/1.1/DTD/svg11.dtd">
<!-- Generated by graphviz version 2.36.0 (20140111.2315)
 -->
<!-- Title: Timer Pages: 1 -->
<svg width="244pt" height="902pt"
 viewBox="0.00 0.00 244.00 902.00" xmlns="http://www.w3.org/2000/svg" xmlns:xlink="http://www.w3.org/1999/xlink">
<g id="graph0" class="graph" transform="scale(1 1) rotate(0) translate(4 898)">
<title>Timer</title>
<!-- Node1 -->
<g id="node1" class="node"><title>Node1</title>
<polygon fill="#bfbfbf" stroke="black" points="0.5,-437.5 0.5,-456.5 41.5,-456.5 41.5,-437.5 0.5,-437.5"/>
<text text-anchor="middle" x="21" y="-444.5" font-family="Helvetica,sans-Serif" font-size="10.00">Timer</text>
</g>
<!-- Node2 -->
<g id="node2" class="node"><title>Node2</title>
<g id="a_node2"><a xlink:href="classAnimatedAppComponent.html" target="_top" xlink:title="A base class for writing simple one&#45;page graphical apps. ">
<polygon fill="none" stroke="black" points="94.5,-874.5 94.5,-893.5 219.5,-893.5 219.5,-874.5 94.5,-874.5"/>
<text text-anchor="middle" x="157" y="-881.5" font-family="Helvetica,sans-Serif" font-size="10.00">AnimatedAppComponent</text>
</a>
</g>
</g>
<!-- Node1&#45;&gt;Node2 -->
<g id="edge1" class="edge"><title>Node1&#45;&gt;Node2</title>
<path fill="none" stroke="#8b1a1a" d="M21.8105,-467.147C21.5249,-542.359 24.4346,-805.447 78,-865 82.5672,-870.078 88.2436,-873.908 94.4373,-876.781"/>
<polygon fill="#8b1a1a" stroke="#8b1a1a" points="25.3128,-466.771 21.8765,-456.749 18.313,-466.726 25.3128,-466.771"/>
</g>
<!-- Node3 -->
<g id="node3" class="node"><title>Node3</title>
<g id="a_node3"><a xlink:href="classAnimatedPosition.html" target="_top" xlink:title="Models a 1&#45;dimensional position that can be dragged around by the user, and which will then continue ...">
<polygon fill="none" stroke="black" points="79.5,-836.5 79.5,-855.5 234.5,-855.5 234.5,-836.5 79.5,-836.5"/>
<text text-anchor="middle" x="157" y="-843.5" font-family="Helvetica,sans-Serif" font-size="10.00">AnimatedPosition&lt; Behaviour &gt;</text>
</a>
</g>
</g>
<!-- Node1&#45;&gt;Node3 -->
<g id="edge2" class="edge"><title>Node1&#45;&gt;Node3</title>
<path fill="none" stroke="#8b1a1a" d="M22.1053,-466.661C22.8899,-536.804 29.1728,-773.427 78,-827 81.4738,-830.811 85.5728,-833.918 90.0437,-836.444"/>
<polygon fill="#8b1a1a" stroke="#8b1a1a" points="25.6043,-466.524 22.019,-456.555 18.6046,-466.584 25.6043,-466.524"/>
</g>
<!-- Node4 -->
<g id="node4" class="node"><title>Node4</title>
<g id="a_node4"><a xlink:href="classAudioDeviceSelectorComponent.html" target="_top" xlink:title="A component containing controls to let the user change the audio settings of an AudioDeviceManager ob...">
<polygon fill="none" stroke="black" points="78,-798.5 78,-817.5 236,-817.5 236,-798.5 78,-798.5"/>
<text text-anchor="middle" x="157" y="-805.5" font-family="Helvetica,sans-Serif" font-size="10.00">AudioDeviceSelectorComponent</text>
</a>
</g>
</g>
<!-- Node1&#45;&gt;Node4 -->
<g id="edge3" class="edge"><title>Node1&#45;&gt;Node4</title>
<path fill="none" stroke="#8b1a1a" d="M22.4649,-466.777C24.4161,-532.408 34.0336,-741.528 78,-789 81.5041,-792.784 85.6247,-795.87 90.1104,-798.383"/>
<polygon fill="#8b1a1a" stroke="#8b1a1a" points="25.9582,-466.475 22.1906,-456.573 18.9607,-466.663 25.9582,-466.475"/>
</g>
<!-- Node5 -->
<g id="node5" class="node"><title>Node5</title>
<g id="a_node5"><a xlink:href="classAudioProcessorValueTreeState.html" target="_top" xlink:title="This class contains a ValueTree which is used to manage an AudioProcessor&#39;s entire state...">
<polygon fill="none" stroke="black" points="80.5,-760.5 80.5,-779.5 233.5,-779.5 233.5,-760.5 80.5,-760.5"/>
<text text-anchor="middle" x="157" y="-767.5" font-family="Helvetica,sans-Serif" font-size="10.00">AudioProcessorValueTreeState</text>
</a>
</g>
</g>
<!-- Node1&#45;&gt;Node5 -->
<g id="edge4" class="edge"><title>Node1&#45;&gt;Node5</title>
<path fill="none" stroke="#8b1a1a" d="M22.9176,-466.917C26.1285,-527.764 38.8752,-709.589 78,-751 81.5415,-754.749 85.6887,-757.81 90.1925,-760.306"/>
<polygon fill="#8b1a1a" stroke="#8b1a1a" points="26.4035,-466.544 22.4111,-456.73 19.4121,-466.891 26.4035,-466.544"/>
</g>
<!-- Node6 -->
<g id="node6" class="node"><title>Node6</title>
<g id="a_node6"><a xlink:href="classAudioVisualiserComponent.html" target="_top" xlink:title="A simple component that can be used to show a scrolling waveform of audio data. ">
<polygon fill="none" stroke="black" points="90,-722.5 90,-741.5 224,-741.5 224,-722.5 90,-722.5"/>
<text text-anchor="middle" x="157" y="-729.5" font-family="Helvetica,sans-Serif" font-size="10.00">AudioVisualiserComponent</text>
</a>
</g>
</g>
<!-- Node1&#45;&gt;Node6 -->
<g id="edge5" class="edge"><title>Node1&#45;&gt;Node6</title>
<path fill="none" stroke="#8b1a1a" d="M23.491,-466.925C28.0545,-522.516 43.6599,-677.563 78,-713 81.6857,-716.803 85.9959,-719.896 90.6639,-722.406"/>
<polygon fill="#8b1a1a" stroke="#8b1a1a" points="26.9563,-466.345 22.6821,-456.65 19.9779,-466.894 26.9563,-466.345"/>
</g>
<!-- Node7 -->
<g id="node7" class="node"><title>Node7</title>
<g id="a_node7"><a xlink:href="classBubbleMessageComponent.html" target="_top" xlink:title="A speech&#45;bubble component that displays a short message. ">
<polygon fill="none" stroke="black" points="88.5,-684.5 88.5,-703.5 225.5,-703.5 225.5,-684.5 88.5,-684.5"/>
<text text-anchor="middle" x="157" y="-691.5" font-family="Helvetica,sans-Serif" font-size="10.00">BubbleMessageComponent</text>
</a>
</g>
</g>
<!-- Node1&#45;&gt;Node7 -->
<g id="edge6" class="edge"><title>Node1&#45;&gt;Node7</title>
<path fill="none" stroke="#8b1a1a" d="M24.2179,-466.668C30.2209,-516.417 48.3586,-645.415 78,-675 81.8473,-678.84 86.3326,-681.951 91.1723,-684.466"/>
<polygon fill="#8b1a1a" stroke="#8b1a1a" points="27.6748,-466.095 23.0362,-456.569 20.7222,-466.908 27.6748,-466.095"/>
</g>
<!-- Node8 -->
<g id="node8" class="node"><title>Node8</title>
<g id="a_node8"><a xlink:href="classCallOutBox.html" target="_top" xlink:title="A box with a small arrow that can be used as a temporary pop&#45;up window to show extra controls when a ...">
<polygon fill="none" stroke="black" points="123.5,-646.5 123.5,-665.5 190.5,-665.5 190.5,-646.5 123.5,-646.5"/>
<text text-anchor="middle" x="157" y="-653.5" font-family="Helvetica,sans-Serif" font-size="10.00">CallOutBox</text>
</a>
</g>
</g>
<!-- Node1&#45;&gt;Node8 -->
<g id="edge7" class="edge"><title>Node1&#45;&gt;Node8</title>
<path fill="none" stroke="#8b1a1a" d="M21.7671,-466.972C22.4566,-505.643 29.7299,-590.978 78,-637 90.0042,-648.445 107.702,-653.355 123.207,-655.333"/>
<polygon fill="#8b1a1a" stroke="#8b1a1a" points="25.2656,-466.55 21.7264,-456.564 18.2656,-466.577 25.2656,-466.55"/>
</g>
<!-- Node9 -->
<g id="node9" class="node"><title>Node9</title>
<g id="a_node9"><a xlink:href="classCaretComponent.html" target="_top" xlink:title="{GUI} ">
<polygon fill="none" stroke="black" points="111.5,-608.5 111.5,-627.5 202.5,-627.5 202.5,-608.5 111.5,-608.5"/>
<text text-anchor="middle" x="157" y="-615.5" font-family="Helvetica,sans-Serif" font-size="10.00">CaretComponent</text>
</a>
</g>
</g>
<!-- Node1&#45;&gt;Node9 -->
<g id="edge8" class="edge"><title>Node1&#45;&gt;Node9</title>
<path fill="none" stroke="#8b1a1a" d="M23.4609,-466.568C26.9689,-499.054 38.7634,-564.001 78,-599 87.153,-607.164 99.2301,-611.961 111.139,-614.74"/>
<polygon fill="#8b1a1a" stroke="#8b1a1a" points="26.939,-466.168 22.5342,-456.533 19.9686,-466.812 26.939,-466.168"/>
</g>
<!-- Node10 -->
<g id="node10" class="node"><title>Node10</title>
<g id="a_node10"><a xlink:href="classComponentAnimator.html" target="_top" xlink:title="Animates a set of components, moving them to a new position and/or fading their alpha levels...">
<polygon fill="none" stroke="black" points="104,-570.5 104,-589.5 210,-589.5 210,-570.5 104,-570.5"/>
<text text-anchor="middle" x="157" y="-577.5" font-family="Helvetica,sans-Serif" font-size="10.00">ComponentAnimator</text>
</a>
</g>
</g>
<!-- Node1&#45;&gt;Node10 -->
<g id="edge9" class="edge"><title>Node1&#45;&gt;Node10</title>
<path fill="none" stroke="#8b1a1a" d="M26.2243,-466.72C32.7752,-492.393 47.8959,-536.827 78,-561 85.4986,-567.021 94.6215,-571.177 103.948,-574.036"/>
<polygon fill="#8b1a1a" stroke="#8b1a1a" points="29.5592,-465.613 23.8583,-456.682 22.7459,-467.219 29.5592,-465.613"/>
</g>
<!-- Node11 -->
<g id="node11" class="node"><title>Node11</title>
<g id="a_node11"><a xlink:href="classDesktop.html" target="_top" xlink:title="Describes and controls aspects of the computer&#39;s desktop. ">
<polygon fill="none" stroke="black" points="130.5,-532.5 130.5,-551.5 183.5,-551.5 183.5,-532.5 130.5,-532.5"/>
<text text-anchor="middle" x="157" y="-539.5" font-family="Helvetica,sans-Serif" font-size="10.00">Desktop</text>
</a>
</g>
</g>
<!-- Node1&#45;&gt;Node11 -->
<g id="edge10" class="edge"><title>Node1&#45;&gt;Node11</title>
<path fill="none" stroke="#8b1a1a" d="M31.0095,-465.857C40.339,-483.336 56.5595,-508.726 78,-523 93.5465,-533.35 114.189,-538.07 130.333,-540.219"/>
<polygon fill="#8b1a1a" stroke="#8b1a1a" points="33.971,-463.959 26.3255,-456.624 27.7284,-467.126 33.971,-463.959"/>
</g>
<!-- Node12 -->
<g id="node12" class="node"><title>Node12</title>
<g id="a_node12"><a xlink:href="classFileBrowserComponent.html" target="_top" xlink:title="A component for browsing and selecting a file or directory to open or save. ">
<polygon fill="none" stroke="black" points="97.5,-494.5 97.5,-513.5 216.5,-513.5 216.5,-494.5 97.5,-494.5"/>
<text text-anchor="middle" x="157" y="-501.5" font-family="Helvetica,sans-Serif" font-size="10.00">FileBrowserComponent</text>
</a>
</g>
</g>
<!-- Node1&#45;&gt;Node12 -->
<g id="edge11" class="edge"><title>Node1&#45;&gt;Node12</title>
<path fill="none" stroke="#8b1a1a" d="M41.9395,-463.108C52.1967,-470.704 65.208,-479.325 78,-485 86.5359,-488.787 95.9465,-491.893 105.189,-494.416"/>
<polygon fill="#8b1a1a" stroke="#8b1a1a" points="43.7742,-460.104 33.7092,-456.796 39.5142,-465.659 43.7742,-460.104"/>
</g>
<!-- Node13 -->
<g id="node13" class="node"><title>Node13</title>
<g id="a_node13"><a xlink:href="classImagePreviewComponent.html" target="_top" xlink:title="A simple preview component that shows thumbnails of image files. ">
<polygon fill="none" stroke="black" points="92.5,-456.5 92.5,-475.5 221.5,-475.5 221.5,-456.5 92.5,-456.5"/>
<text text-anchor="middle" x="157" y="-463.5" font-family="Helvetica,sans-Serif" font-size="10.00">ImagePreviewComponent</text>
</a>
</g>
</g>
<!-- Node1&#45;&gt;Node13 -->
<g id="edge12" class="edge"><title>Node1&#45;&gt;Node13</title>
<path fill="none" stroke="#8b1a1a" d="M52.0249,-451.257C63.9643,-452.95 78.1845,-454.966 92.2162,-456.956"/>
<polygon fill="#8b1a1a" stroke="#8b1a1a" points="52.1645,-447.742 41.7722,-449.804 51.1817,-454.673 52.1645,-447.742"/>
</g>
<!-- Node14 -->
<g id="node14" class="node"><title>Node14</title>
<g id="a_node14"><a xlink:href="classJUCESplashScreen.html" target="_top" xlink:title="The standard JUCE splash screen component. ">
<polygon fill="none" stroke="black" points="105,-418.5 105,-437.5 209,-437.5 209,-418.5 105,-418.5"/>
<text text-anchor="middle" x="157" y="-425.5" font-family="Helvetica,sans-Serif" font-size="10.00">JUCESplashScreen</text>
</a>
</g>
</g>
<!-- Node1&#45;&gt;Node14 -->
<g id="edge13" class="edge"><title>Node1&#45;&gt;Node14</title>
<path fill="none" stroke="#8b1a1a" d="M51.8709,-442.765C67.4606,-440.554 86.9699,-437.788 104.874,-435.249"/>
<polygon fill="#8b1a1a" stroke="#8b1a1a" points="51.1817,-439.327 41.7722,-444.196 52.1645,-446.258 51.1817,-439.327"/>
</g>
<!-- Node15 -->
<g id="node15" class="node"><title>Node15</title>
<g id="a_node15"><a xlink:href="classMenuBarComponent.html" target="_top" xlink:title="A menu bar component. ">
<polygon fill="none" stroke="black" points="104,-380.5 104,-399.5 210,-399.5 210,-380.5 104,-380.5"/>
<text text-anchor="middle" x="157" y="-387.5" font-family="Helvetica,sans-Serif" font-size="10.00">MenuBarComponent</text>
</a>
</g>
</g>
<!-- Node1&#45;&gt;Node15 -->
<g id="edge14" class="edge"><title>Node1&#45;&gt;Node15</title>
<path fill="none" stroke="#8b1a1a" d="M41.9395,-430.892C52.1967,-423.296 65.208,-414.675 78,-409 86.5359,-405.213 95.9465,-402.107 105.189,-399.584"/>
<polygon fill="#8b1a1a" stroke="#8b1a1a" points="39.5142,-428.341 33.7092,-437.204 43.7742,-433.896 39.5142,-428.341"/>
</g>
<!-- Node16 -->
<g id="node16" class="node"><title>Node16</title>
<g id="a_node16"><a xlink:href="classMidiKeyboardComponent.html" target="_top" xlink:title="A component that displays a piano keyboard, whose notes can be clicked on. ">
<polygon fill="none" stroke="black" points="94,-342.5 94,-361.5 220,-361.5 220,-342.5 94,-342.5"/>
<text text-anchor="middle" x="157" y="-349.5" font-family="Helvetica,sans-Serif" font-size="10.00">MidiKeyboardComponent</text>
</a>
</g>
</g>
<!-- Node1&#45;&gt;Node16 -->
<g id="edge15" class="edge"><title>Node1&#45;&gt;Node16</title>
<path fill="none" stroke="#8b1a1a" d="M31.0095,-428.143C40.339,-410.664 56.5595,-385.274 78,-371 83.8009,-367.138 90.3113,-364.06 97.0328,-361.607"/>
<polygon fill="#8b1a1a" stroke="#8b1a1a" points="27.7284,-426.874 26.3255,-437.376 33.971,-430.041 27.7284,-426.874"/>
</g>
<!-- Node17 -->
<g id="node17" class="node"><title>Node17</title>
<g id="a_node17"><a xlink:href="classMouseInactivityDetector.html" target="_top" xlink:title="This object watches for mouse&#45;events happening within a component, and if the mouse remains still for...">
<polygon fill="none" stroke="black" points="95.5,-304.5 95.5,-323.5 218.5,-323.5 218.5,-304.5 95.5,-304.5"/>
<text text-anchor="middle" x="157" y="-311.5" font-family="Helvetica,sans-Serif" font-size="10.00">MouseInactivityDetector</text>
</a>
</g>
</g>
<!-- Node1&#45;&gt;Node17 -->
<g id="edge16" class="edge"><title>Node1&#45;&gt;Node17</title>
<path fill="none" stroke="#8b1a1a" d="M26.2243,-427.28C32.7752,-401.607 47.8959,-357.173 78,-333 83.1078,-328.899 88.9691,-325.663 95.1352,-323.113"/>
<polygon fill="#8b1a1a" stroke="#8b1a1a" points="22.7459,-426.781 23.8583,-437.318 29.5592,-428.387 22.7459,-426.781"/>
</g>
<!-- Node18 -->
<g id="node18" class="node"><title>Node18</title>
<g id="a_node18"><a xlink:href="classProgressBar.html" target="_top" xlink:title="A progress bar component. ">
<polygon fill="none" stroke="black" points="121.5,-266.5 121.5,-285.5 192.5,-285.5 192.5,-266.5 121.5,-266.5"/>
<text text-anchor="middle" x="157" y="-273.5" font-family="Helvetica,sans-Serif" font-size="10.00">ProgressBar</text>
</a>
</g>
</g>
<!-- Node1&#45;&gt;Node18 -->
<g id="edge17" class="edge"><title>Node1&#45;&gt;Node18</title>
<path fill="none" stroke="#8b1a1a" d="M23.4609,-427.432C26.9689,-394.946 38.7634,-329.999 78,-295 89.7532,-284.516 106.328,-279.586 121.178,-277.349"/>
<polygon fill="#8b1a1a" stroke="#8b1a1a" points="19.9686,-427.188 22.5342,-437.467 26.939,-427.832 19.9686,-427.188"/>
</g>
<!-- Node19 -->
<g id="node19" class="node"><title>Node19</title>
<g id="a_node19"><a xlink:href="classPropertiesFile.html" target="_top" xlink:title="Wrapper on a file that stores a list of key/value data pairs. ">
<polygon fill="none" stroke="black" points="118.5,-228.5 118.5,-247.5 195.5,-247.5 195.5,-228.5 118.5,-228.5"/>
<text text-anchor="middle" x="157" y="-235.5" font-family="Helvetica,sans-Serif" font-size="10.00">PropertiesFile</text>
</a>
</g>
</g>
<!-- Node1&#45;&gt;Node19 -->
<g id="edge18" class="edge"><title>Node1&#45;&gt;Node19</title>
<path fill="none" stroke="#8b1a1a" d="M21.7671,-427.028C22.4566,-388.357 29.7299,-303.022 78,-257 88.7937,-246.709 104.191,-241.702 118.458,-239.358"/>
<polygon fill="#8b1a1a" stroke="#8b1a1a" points="18.2656,-427.423 21.7264,-437.436 25.2656,-427.45 18.2656,-427.423"/>
</g>
<!-- Node20 -->
<g id="node20" class="node"><title>Node20</title>
<g id="a_node20"><a xlink:href="classScrollBar.html" target="_top" xlink:title="A scrollbar component. ">
<polygon fill="none" stroke="black" points="129,-190.5 129,-209.5 185,-209.5 185,-190.5 129,-190.5"/>
<text text-anchor="middle" x="157" y="-197.5" font-family="Helvetica,sans-Serif" font-size="10.00">ScrollBar</text>
</a>
</g>
</g>
<!-- Node1&#45;&gt;Node20 -->
<g id="edge19" class="edge"><title>Node1&#45;&gt;Node20</title>
<path fill="none" stroke="#8b1a1a" d="M24.2179,-427.332C30.2209,-377.583 48.3586,-248.585 78,-219 91.2188,-205.806 111.97,-201.219 128.747,-199.843"/>
<polygon fill="#8b1a1a" stroke="#8b1a1a" points="20.7222,-427.092 23.0362,-437.431 27.6748,-427.905 20.7222,-427.092"/>
</g>
<!-- Node21 -->
<g id="node21" class="node"><title>Node21</title>
<g id="a_node21"><a xlink:href="classSplashScreen.html" target="_top" xlink:title="A component for showing a splash screen while your app starts up. ">
<polygon fill="none" stroke="black" points="118.5,-152.5 118.5,-171.5 195.5,-171.5 195.5,-152.5 118.5,-152.5"/>
<text text-anchor="middle" x="157" y="-159.5" font-family="Helvetica,sans-Serif" font-size="10.00">SplashScreen</text>
</a>
</g>
</g>
<!-- Node1&#45;&gt;Node21 -->
<g id="edge20" class="edge"><title>Node1&#45;&gt;Node21</title>
<path fill="none" stroke="#8b1a1a" d="M23.491,-427.075C28.0545,-371.484 43.6599,-216.437 78,-181 88.4752,-170.19 103.994,-165.12 118.437,-162.87"/>
<polygon fill="#8b1a1a" stroke="#8b1a1a" points="19.9779,-427.106 22.6821,-437.35 26.9563,-427.655 19.9779,-427.106"/>
</g>
<!-- Node22 -->
<g id="node22" class="node"><title>Node22</title>
<g id="a_node22"><a xlink:href="classStandalonePluginHolder.html" target="_top" xlink:title="An object that creates and plays a standalone instance of an AudioProcessor. ">
<polygon fill="none" stroke="black" points="96.5,-114.5 96.5,-133.5 217.5,-133.5 217.5,-114.5 96.5,-114.5"/>
<text text-anchor="middle" x="157" y="-121.5" font-family="Helvetica,sans-Serif" font-size="10.00">StandalonePluginHolder</text>
</a>
</g>
</g>
<!-- Node1&#45;&gt;Node22 -->
<g id="edge21" class="edge"><title>Node1&#45;&gt;Node22</title>
<path fill="none" stroke="#8b1a1a" d="M22.9176,-427.083C26.1285,-366.236 38.8752,-184.411 78,-143 83.073,-137.631 89.3887,-133.67 96.2151,-130.765"/>
<polygon fill="#8b1a1a" stroke="#8b1a1a" points="19.4121,-427.109 22.4111,-437.27 26.4035,-427.456 19.4121,-427.109"/>
</g>
<!-- Node23 -->
<g id="node23" class="node"><title>Node23</title>
<g id="a_node23"><a xlink:href="classThreadWithProgressWindow.html" target="_top" xlink:title="A thread that automatically pops up a modal dialog box with a progress bar and cancel button while it...">
<polygon fill="none" stroke="black" points="86.5,-76.5 86.5,-95.5 227.5,-95.5 227.5,-76.5 86.5,-76.5"/>
<text text-anchor="middle" x="157" y="-83.5" font-family="Helvetica,sans-Serif" font-size="10.00">ThreadWithProgressWindow</text>
</a>
</g>
</g>
<!-- Node1&#45;&gt;Node23 -->
<g id="edge22" class="edge"><title>Node1&#45;&gt;Node23</title>
<path fill="none" stroke="#8b1a1a" d="M22.4649,-427.223C24.4161,-361.592 34.0336,-152.472 78,-105 81.5041,-101.216 85.6247,-98.1298 90.1104,-95.6174"/>
<polygon fill="#8b1a1a" stroke="#8b1a1a" points="18.9607,-427.337 22.1906,-437.427 25.9582,-427.525 18.9607,-427.337"/>
</g>
<!-- Node24 -->
<g id="node24" class="node"><title>Node24</title>
<g id="a_node24"><a xlink:href="classTooltipWindow.html" target="_top" xlink:title="A window that displays a pop&#45;up tooltip when the mouse hovers over another component. ">
<polygon fill="none" stroke="black" points="116.5,-38.5 116.5,-57.5 197.5,-57.5 197.5,-38.5 116.5,-38.5"/>
<text text-anchor="middle" x="157" y="-45.5" font-family="Helvetica,sans-Serif" font-size="10.00">TooltipWindow</text>
</a>
</g>
</g>
<!-- Node1&#45;&gt;Node24 -->
<g id="edge23" class="edge"><title>Node1&#45;&gt;Node24</title>
<path fill="none" stroke="#8b1a1a" d="M22.1053,-427.339C22.8899,-357.196 29.1728,-120.573 78,-67 87.7641,-56.2869 102.468,-51.1424 116.486,-48.8102"/>
<polygon fill="#8b1a1a" stroke="#8b1a1a" points="18.6046,-427.416 22.019,-437.445 25.6043,-427.476 18.6046,-427.416"/>
</g>
<!-- Node25 -->
<g id="node25" class="node"><title>Node25</title>
<g id="a_node25"><a xlink:href="classVideoComponent.html" target="_top" xlink:title="A component that can play a movie. ">
<polygon fill="none" stroke="black" points="111,-0.5 111,-19.5 203,-19.5 203,-0.5 111,-0.5"/>
<text text-anchor="middle" x="157" y="-7.5" font-family="Helvetica,sans-Serif" font-size="10.00">VideoComponent</text>
</a>
</g>
</g>
<!-- Node1&#45;&gt;Node25 -->
<g id="edge24" class="edge"><title>Node1&#45;&gt;Node25</title>
<path fill="none" stroke="#8b1a1a" d="M21.8105,-426.853C21.5249,-351.641 24.4346,-88.5525 78,-29 86.3886,-19.6737 98.5195,-14.5567 110.725,-11.8419"/>
<polygon fill="#8b1a1a" stroke="#8b1a1a" points="18.313,-427.274 21.8765,-437.251 25.3128,-427.229 18.313,-427.274"/>
</g>
</g>
</svg>
