<?xml version="1.0" encoding="UTF-8" standalone="no"?>
<!DOCTYPE svg PUBLIC "-//W3C//DTD SVG 1.1//EN"
 "http://www.w3.org/Graphics/SVG/1.1/DTD/svg11.dtd">
<!-- Generated by graphviz version 2.36.0 (20140111.2315)
 -->
<!-- Title: ReferenceCountedObject Pages: 1 -->
<svg width="520pt" height="430pt"
 viewBox="0.00 0.00 520.00 430.00" xmlns="http://www.w3.org/2000/svg" xmlns:xlink="http://www.w3.org/1999/xlink">
<g id="graph0" class="graph" transform="scale(1 1) rotate(0) translate(4 426)">
<title>ReferenceCountedObject</title>
<!-- Node1 -->
<g id="node1" class="node"><title>Node1</title>
<polygon fill="#bfbfbf" stroke="black" points="0.5,-190.5 0.5,-209.5 127.5,-209.5 127.5,-190.5 0.5,-190.5"/>
<text text-anchor="middle" x="64" y="-197.5" font-family="Helvetica,sans-Serif" font-size="10.00">ReferenceCountedObject</text>
</g>
<!-- Node2 -->
<g id="node2" class="node"><title>Node2</title>
<g id="a_node2"><a xlink:href="structAudioDeviceManager_1_1LevelMeter.html" target="_top" xlink:title="A simple reference&#45;counted struct that holds a level&#45;meter value that can be read using getCurrentLev...">
<polygon fill="none" stroke="black" points="190,-392 190,-422 300,-422 300,-392 190,-392"/>
<text text-anchor="start" x="198" y="-410" font-family="Helvetica,sans-Serif" font-size="10.00">AudioDeviceManager</text>
<text text-anchor="middle" x="245" y="-399" font-family="Helvetica,sans-Serif" font-size="10.00">::LevelMeter</text>
</a>
</g>
</g>
<!-- Node1&#45;&gt;Node2 -->
<g id="edge1" class="edge"><title>Node1&#45;&gt;Node2</title>
<path fill="none" stroke="midnightblue" d="M70.2849,-219.617C81.3205,-256.84 110.351,-337.925 164,-382 171.533,-388.189 180.603,-392.851 189.889,-396.361"/>
<polygon fill="midnightblue" stroke="midnightblue" points="73.5286,-218.227 67.4305,-209.563 66.7948,-220.139 73.5286,-218.227"/>
</g>
<!-- Node3 -->
<g id="node3" class="node"><title>Node3</title>
<g id="a_node3"><a xlink:href="classAudioProcessorGraph_1_1Node.html" target="_top" xlink:title="Represents one of the nodes, or processors, in an AudioProcessorGraph. ">
<polygon fill="none" stroke="black" points="189,-343 189,-373 301,-373 301,-343 189,-343"/>
<text text-anchor="start" x="197" y="-361" font-family="Helvetica,sans-Serif" font-size="10.00">AudioProcessorGraph</text>
<text text-anchor="middle" x="245" y="-350" font-family="Helvetica,sans-Serif" font-size="10.00">::Node</text>
</a>
</g>
</g>
<!-- Node1&#45;&gt;Node3 -->
<g id="edge2" class="edge"><title>Node1&#45;&gt;Node3</title>
<path fill="none" stroke="midnightblue" d="M73.9859,-218.664C88.7733,-247.43 120.944,-302.463 164,-333 171.478,-338.303 180.12,-342.511 188.9,-345.84"/>
<polygon fill="midnightblue" stroke="midnightblue" points="77.0916,-217.049 69.491,-209.668 70.8297,-220.178 77.0916,-217.049"/>
</g>
<!-- Node4 -->
<g id="node4" class="node"><title>Node4</title>
<g id="a_node4"><a xlink:href="classBlock.html" target="_top" xlink:title="Represents an individual BLOCKS device. ">
<polygon fill="none" stroke="black" points="224.5,-304.5 224.5,-323.5 265.5,-323.5 265.5,-304.5 224.5,-304.5"/>
<text text-anchor="middle" x="245" y="-311.5" font-family="Helvetica,sans-Serif" font-size="10.00">Block</text>
</a>
</g>
</g>
<!-- Node1&#45;&gt;Node4 -->
<g id="edge3" class="edge"><title>Node1&#45;&gt;Node4</title>
<path fill="none" stroke="midnightblue" d="M78.2814,-217.54C95.6007,-239.137 127.968,-275.363 164,-295 182.927,-305.315 207.36,-310.072 224.218,-312.239"/>
<polygon fill="midnightblue" stroke="midnightblue" points="80.9296,-215.244 72.0096,-209.527 75.4175,-219.559 80.9296,-215.244"/>
</g>
<!-- Node5 -->
<g id="node5" class="node"><title>Node5</title>
<g id="a_node5"><a xlink:href="structdsp_1_1ProcessorState.html" target="_top" xlink:title="This is a handy base class for the state of a processor (such as parameter values) which is typically...">
<polygon fill="none" stroke="black" points="192,-266.5 192,-285.5 298,-285.5 298,-266.5 192,-266.5"/>
<text text-anchor="middle" x="245" y="-273.5" font-family="Helvetica,sans-Serif" font-size="10.00">dsp::ProcessorState</text>
</a>
</g>
</g>
<!-- Node1&#45;&gt;Node5 -->
<g id="edge4" class="edge"><title>Node1&#45;&gt;Node5</title>
<path fill="none" stroke="midnightblue" d="M87.2249,-215.307C106.694,-228.09 136.151,-245.948 164,-257 173.421,-260.739 183.769,-263.865 193.807,-266.431"/>
<polygon fill="midnightblue" stroke="midnightblue" points="89.0328,-212.306 78.7728,-209.663 85.1454,-218.127 89.0328,-212.306"/>
</g>
<!-- Node9 -->
<g id="node9" class="node"><title>Node9</title>
<g id="a_node9"><a xlink:href="classDynamicObject.html" target="_top" xlink:title="Represents a dynamically implemented object. ">
<polygon fill="none" stroke="black" points="203,-228.5 203,-247.5 287,-247.5 287,-228.5 203,-228.5"/>
<text text-anchor="middle" x="245" y="-235.5" font-family="Helvetica,sans-Serif" font-size="10.00">DynamicObject</text>
</a>
</g>
</g>
<!-- Node1&#45;&gt;Node9 -->
<g id="edge8" class="edge"><title>Node1&#45;&gt;Node9</title>
<path fill="none" stroke="midnightblue" d="M120.133,-211.704C146.806,-217.367 178.281,-224.049 202.828,-229.26"/>
<polygon fill="midnightblue" stroke="midnightblue" points="120.678,-208.242 110.169,-209.589 119.224,-215.089 120.678,-208.242"/>
</g>
<!-- Node10 -->
<g id="node10" class="node"><title>Node10</title>
<g id="a_node10"><a xlink:href="classImagePixelData.html" target="_top" xlink:title="This is a base class for holding image data in implementation&#45;specific ways. ">
<polygon fill="none" stroke="black" points="202,-190.5 202,-209.5 288,-209.5 288,-190.5 202,-190.5"/>
<text text-anchor="middle" x="245" y="-197.5" font-family="Helvetica,sans-Serif" font-size="10.00">ImagePixelData</text>
</a>
</g>
</g>
<!-- Node1&#45;&gt;Node10 -->
<g id="edge9" class="edge"><title>Node1&#45;&gt;Node10</title>
<path fill="none" stroke="midnightblue" d="M137.841,-200C159.647,-200 182.82,-200 201.933,-200"/>
<polygon fill="midnightblue" stroke="midnightblue" points="137.606,-196.5 127.606,-200 137.605,-203.5 137.606,-196.5"/>
</g>
<!-- Node11 -->
<g id="node11" class="node"><title>Node11</title>
<g id="a_node11"><a xlink:href="structLEDGrid_1_1Renderer.html" target="_top" xlink:title="An interface to use for LEDGrid rendering. ">
<polygon fill="none" stroke="black" points="195,-152.5 195,-171.5 295,-171.5 295,-152.5 195,-152.5"/>
<text text-anchor="middle" x="245" y="-159.5" font-family="Helvetica,sans-Serif" font-size="10.00">LEDGrid::Renderer</text>
</a>
</g>
</g>
<!-- Node1&#45;&gt;Node11 -->
<g id="edge10" class="edge"><title>Node1&#45;&gt;Node11</title>
<path fill="none" stroke="midnightblue" d="M120.024,-188.319C145.408,-182.93 175.161,-176.614 199.156,-171.52"/>
<polygon fill="midnightblue" stroke="midnightblue" points="119.224,-184.911 110.169,-190.411 120.678,-191.758 119.224,-184.911"/>
</g>
<!-- Node12 -->
<g id="node12" class="node"><title>Node12</title>
<g id="a_node12"><a xlink:href="classMessageManager_1_1MessageBase.html" target="_top" xlink:title="Internal class used as the base class for all message objects. ">
<polygon fill="none" stroke="black" points="164,-114.5 164,-133.5 326,-133.5 326,-114.5 164,-114.5"/>
<text text-anchor="middle" x="245" y="-121.5" font-family="Helvetica,sans-Serif" font-size="10.00">MessageManager::MessageBase</text>
</a>
</g>
</g>
<!-- Node1&#45;&gt;Node12 -->
<g id="edge11" class="edge"><title>Node1&#45;&gt;Node12</title>
<path fill="none" stroke="midnightblue" d="M87.2249,-184.693C106.694,-171.91 136.151,-154.052 164,-143 173.421,-139.261 183.769,-136.135 193.807,-133.569"/>
<polygon fill="midnightblue" stroke="midnightblue" points="85.1454,-181.873 78.7728,-190.337 89.0328,-187.694 85.1454,-181.873"/>
</g>
<!-- Node15 -->
<g id="node15" class="node"><title>Node15</title>
<g id="a_node15"><a xlink:href="classSynthesiserSound.html" target="_top" xlink:title="Describes one of the sounds that a Synthesiser can play. ">
<polygon fill="none" stroke="black" points="197,-76.5 197,-95.5 293,-95.5 293,-76.5 197,-76.5"/>
<text text-anchor="middle" x="245" y="-83.5" font-family="Helvetica,sans-Serif" font-size="10.00">SynthesiserSound</text>
</a>
</g>
</g>
<!-- Node1&#45;&gt;Node15 -->
<g id="edge14" class="edge"><title>Node1&#45;&gt;Node15</title>
<path fill="none" stroke="midnightblue" d="M78.2814,-182.46C95.6007,-160.863 127.968,-124.637 164,-105 174.028,-99.5351 185.601,-95.6303 196.774,-92.8442"/>
<polygon fill="midnightblue" stroke="midnightblue" points="75.4175,-180.441 72.0096,-190.473 80.9296,-184.756 75.4175,-180.441"/>
</g>
<!-- Node17 -->
<g id="node17" class="node"><title>Node17</title>
<g id="a_node17"><a xlink:href="classTypeface.html" target="_top" xlink:title="A typeface represents a size&#45;independent font. ">
<polygon fill="none" stroke="black" points="216.5,-38.5 216.5,-57.5 273.5,-57.5 273.5,-38.5 216.5,-38.5"/>
<text text-anchor="middle" x="245" y="-45.5" font-family="Helvetica,sans-Serif" font-size="10.00">Typeface</text>
</a>
</g>
</g>
<!-- Node1&#45;&gt;Node17 -->
<g id="edge16" class="edge"><title>Node1&#45;&gt;Node17</title>
<path fill="none" stroke="midnightblue" d="M73.5251,-181.396C87.8753,-152.252 119.691,-96.1596 164,-67 179.502,-56.7981 199.89,-52.0579 216.203,-49.8632"/>
<polygon fill="midnightblue" stroke="midnightblue" points="70.3326,-179.959 69.1858,-190.492 76.6505,-182.973 70.3326,-179.959"/>
</g>
<!-- Node19 -->
<g id="node19" class="node"><title>Node19</title>
<g id="a_node19"><a xlink:href="classValue_1_1ValueSource.html" target="_top" xlink:title="Used internally by the Value class as the base class for its shared value objects. ">
<polygon fill="none" stroke="black" points="193.5,-0.5 193.5,-19.5 296.5,-19.5 296.5,-0.5 193.5,-0.5"/>
<text text-anchor="middle" x="245" y="-7.5" font-family="Helvetica,sans-Serif" font-size="10.00">Value::ValueSource</text>
</a>
</g>
</g>
<!-- Node1&#45;&gt;Node19 -->
<g id="edge18" class="edge"><title>Node1&#45;&gt;Node19</title>
<path fill="none" stroke="midnightblue" d="M70.5382,-180.722C81.8519,-144.943 111.121,-68.3373 164,-29 172.59,-22.6097 183.014,-18.3329 193.459,-15.4798"/>
<polygon fill="midnightblue" stroke="midnightblue" points="67.1474,-179.843 67.5972,-190.429 73.8466,-181.873 67.1474,-179.843"/>
</g>
<!-- Node6 -->
<g id="node6" class="node"><title>Node6</title>
<g id="a_node6"><a xlink:href="structdsp_1_1FIR_1_1Coefficients.html" target="_top" xlink:title="A set of coefficients for use in an FIRFilter object. ">
<polygon fill="none" stroke="black" points="380.5,-310 380.5,-340 493.5,-340 493.5,-310 380.5,-310"/>
<text text-anchor="start" x="388.5" y="-328" font-family="Helvetica,sans-Serif" font-size="10.00">dsp::FIR::Coefficients</text>
<text text-anchor="middle" x="437" y="-317" font-family="Helvetica,sans-Serif" font-size="10.00">&lt; NumericType &gt;</text>
</a>
</g>
</g>
<!-- Node5&#45;&gt;Node6 -->
<g id="edge5" class="edge"><title>Node5&#45;&gt;Node6</title>
<path fill="none" stroke="midnightblue" d="M297.044,-287.857C306.677,-290.169 316.658,-292.617 326,-295 344.414,-299.696 364.486,-305.089 382.383,-309.996"/>
<polygon fill="midnightblue" stroke="midnightblue" points="297.712,-284.418 287.173,-285.504 296.089,-291.227 297.712,-284.418"/>
</g>
<!-- Node7 -->
<g id="node7" class="node"><title>Node7</title>
<g id="a_node7"><a xlink:href="structdsp_1_1IIR_1_1Coefficients.html" target="_top" xlink:title="A set of coefficients for use in an Filter object. ">
<polygon fill="none" stroke="black" points="382,-261 382,-291 492,-291 492,-261 382,-261"/>
<text text-anchor="start" x="390" y="-279" font-family="Helvetica,sans-Serif" font-size="10.00">dsp::IIR::Coefficients</text>
<text text-anchor="middle" x="437" y="-268" font-family="Helvetica,sans-Serif" font-size="10.00">&lt; NumericType &gt;</text>
</a>
</g>
</g>
<!-- Node5&#45;&gt;Node7 -->
<g id="edge6" class="edge"><title>Node5&#45;&gt;Node7</title>
<path fill="none" stroke="midnightblue" d="M308.486,-276C332.232,-276 359.06,-276 381.96,-276"/>
<polygon fill="midnightblue" stroke="midnightblue" points="308.17,-272.5 298.17,-276 308.17,-279.5 308.17,-272.5"/>
</g>
<!-- Node8 -->
<g id="node8" class="node"><title>Node8</title>
<g id="a_node8"><a xlink:href="structdsp_1_1StateVariableFilter_1_1Parameters.html" target="_top" xlink:title="Structure used for the state variable filter parameters. ">
<polygon fill="none" stroke="black" points="362.5,-212 362.5,-242 511.5,-242 511.5,-212 362.5,-212"/>
<text text-anchor="start" x="370.5" y="-230" font-family="Helvetica,sans-Serif" font-size="10.00">dsp::StateVariableFilter</text>
<text text-anchor="middle" x="437" y="-219" font-family="Helvetica,sans-Serif" font-size="10.00">::Parameters&lt; NumericType &gt;</text>
</a>
</g>
</g>
<!-- Node5&#45;&gt;Node8 -->
<g id="edge7" class="edge"><title>Node5&#45;&gt;Node8</title>
<path fill="none" stroke="midnightblue" d="M297.044,-264.143C306.677,-261.831 316.658,-259.383 326,-257 344.414,-252.304 364.486,-246.911 382.383,-242.004"/>
<polygon fill="midnightblue" stroke="midnightblue" points="296.089,-260.773 287.173,-266.496 297.712,-267.582 296.089,-260.773"/>
</g>
<!-- Node13 -->
<g id="node13" class="node"><title>Node13</title>
<g id="a_node13"><a xlink:href="classCallbackMessage.html" target="_top" xlink:title="A message that invokes a callback method when it gets delivered. ">
<polygon fill="none" stroke="black" points="389.5,-152.5 389.5,-171.5 484.5,-171.5 484.5,-152.5 389.5,-152.5"/>
<text text-anchor="middle" x="437" y="-159.5" font-family="Helvetica,sans-Serif" font-size="10.00">CallbackMessage</text>
</a>
</g>
</g>
<!-- Node12&#45;&gt;Node13 -->
<g id="edge12" class="edge"><title>Node12&#45;&gt;Node13</title>
<path fill="none" stroke="midnightblue" d="M303.805,-135.561C331.227,-141.045 363.559,-147.512 389.384,-152.677"/>
<polygon fill="midnightblue" stroke="midnightblue" points="304.437,-132.118 293.945,-133.589 303.064,-138.982 304.437,-132.118"/>
</g>
<!-- Node14 -->
<g id="node14" class="node"><title>Node14</title>
<g id="a_node14"><a xlink:href="classMessage.html" target="_top" xlink:title="The base class for objects that can be sent to a MessageListener. ">
<polygon fill="none" stroke="black" points="409,-114.5 409,-133.5 465,-133.5 465,-114.5 409,-114.5"/>
<text text-anchor="middle" x="437" y="-121.5" font-family="Helvetica,sans-Serif" font-size="10.00">Message</text>
</a>
</g>
</g>
<!-- Node12&#45;&gt;Node14 -->
<g id="edge13" class="edge"><title>Node12&#45;&gt;Node14</title>
<path fill="none" stroke="midnightblue" d="M336.15,-124C362.674,-124 389.703,-124 408.938,-124"/>
<polygon fill="midnightblue" stroke="midnightblue" points="336.026,-120.5 326.026,-124 336.026,-127.5 336.026,-120.5"/>
</g>
<!-- Node16 -->
<g id="node16" class="node"><title>Node16</title>
<g id="a_node16"><a xlink:href="classSamplerSound.html" target="_top" xlink:title="A subclass of SynthesiserSound that represents a sampled audio clip. ">
<polygon fill="none" stroke="black" points="397,-76.5 397,-95.5 477,-95.5 477,-76.5 397,-76.5"/>
<text text-anchor="middle" x="437" y="-83.5" font-family="Helvetica,sans-Serif" font-size="10.00">SamplerSound</text>
</a>
</g>
</g>
<!-- Node15&#45;&gt;Node16 -->
<g id="edge15" class="edge"><title>Node15&#45;&gt;Node16</title>
<path fill="none" stroke="midnightblue" d="M303.837,-86C333.956,-86 369.991,-86 396.821,-86"/>
<polygon fill="midnightblue" stroke="midnightblue" points="303.455,-82.5001 293.455,-86 303.455,-89.5001 303.455,-82.5001"/>
</g>
<!-- Node18 -->
<g id="node18" class="node"><title>Node18</title>
<g id="a_node18"><a xlink:href="classCustomTypeface.html" target="_top" xlink:title="A typeface that can be populated with custom glyphs. ">
<polygon fill="none" stroke="black" points="391,-38.5 391,-57.5 483,-57.5 483,-38.5 391,-38.5"/>
<text text-anchor="middle" x="437" y="-45.5" font-family="Helvetica,sans-Serif" font-size="10.00">CustomTypeface</text>
</a>
</g>
</g>
<!-- Node17&#45;&gt;Node18 -->
<g id="edge17" class="edge"><title>Node17&#45;&gt;Node18</title>
<path fill="none" stroke="midnightblue" d="M283.938,-48C314.689,-48 358.113,-48 390.688,-48"/>
<polygon fill="midnightblue" stroke="midnightblue" points="283.628,-44.5001 273.628,-48 283.628,-51.5001 283.628,-44.5001"/>
</g>
</g>
</svg>
