<?xml version="1.0" encoding="UTF-8" standalone="no"?>
<!DOCTYPE svg PUBLIC "-//W3C//DTD SVG 1.1//EN"
 "http://www.w3.org/Graphics/SVG/1.1/DTD/svg11.dtd">
<!-- Generated by graphviz version 2.36.0 (20140111.2315)
 -->
<!-- Title: ListBoxModel Pages: 1 -->
<svg width="365pt" height="84pt"
 viewBox="0.00 0.00 365.00 84.00" xmlns="http://www.w3.org/2000/svg" xmlns:xlink="http://www.w3.org/1999/xlink">
<g id="graph0" class="graph" transform="scale(1 1) rotate(0) translate(4 80)">
<title>ListBoxModel</title>
<!-- Node1 -->
<g id="node1" class="node"><title>Node1</title>
<polygon fill="#bfbfbf" stroke="black" points="152,-56.5 152,-75.5 228,-75.5 228,-56.5 152,-56.5"/>
<text text-anchor="middle" x="190" y="-63.5" font-family="Helvetica,sans-Serif" font-size="10.00">ListBoxModel</text>
</g>
<!-- Node2 -->
<g id="node2" class="node"><title>Node2</title>
<g id="a_node2"><a xlink:href="group__juce__gui__basics-filebrowser.html#classFileListComponent" target="_top" xlink:title="A component that displays the files in a directory as a listbox. ">
<polygon fill="none" stroke="black" points="0,-0.5 0,-19.5 98,-19.5 98,-0.5 0,-0.5"/>
<text text-anchor="middle" x="49" y="-7.5" font-family="Helvetica,sans-Serif" font-size="10.00">FileListComponent</text>
</a>
</g>
</g>
<!-- Node1&#45;&gt;Node2 -->
<g id="edge1" class="edge"><title>Node1&#45;&gt;Node2</title>
<path fill="none" stroke="#8b1a1a" d="M158.071,-52.772C131.586,-42.6287 94.6079,-28.4669 71.2373,-19.5164"/>
<polygon fill="#8b1a1a" stroke="#8b1a1a" points="157.068,-56.1355 167.658,-56.4435 159.571,-49.5985 157.068,-56.1355"/>
</g>
<!-- Node3 -->
<g id="node3" class="node"><title>Node3</title>
<g id="a_node3"><a xlink:href="group__juce__gui__basics-filebrowser.html#classFileSearchPathListComponent" target="_top" xlink:title="Shows a set of file paths in a list, allowing them to be added, removed or re&#45;ordered. ">
<polygon fill="none" stroke="black" points="115.5,-0.5 115.5,-19.5 264.5,-19.5 264.5,-0.5 115.5,-0.5"/>
<text text-anchor="middle" x="190" y="-7.5" font-family="Helvetica,sans-Serif" font-size="10.00">FileSearchPathListComponent</text>
</a>
</g>
</g>
<!-- Node1&#45;&gt;Node3 -->
<g id="edge2" class="edge"><title>Node1&#45;&gt;Node3</title>
<path fill="none" stroke="#8b1a1a" d="M190,-45.8045C190,-36.9102 190,-26.7798 190,-19.7511"/>
<polygon fill="#8b1a1a" stroke="#8b1a1a" points="186.5,-46.083 190,-56.083 193.5,-46.083 186.5,-46.083"/>
</g>
<!-- Node4 -->
<g id="node4" class="node"><title>Node4</title>
<g id="a_node4"><a xlink:href="group__juce__gui__basics-widgets.html#classTableListBox" target="_top" xlink:title="A table of cells, using a TableHeaderComponent as its header. ">
<polygon fill="none" stroke="black" points="283,-0.5 283,-19.5 357,-19.5 357,-0.5 283,-0.5"/>
<text text-anchor="middle" x="320" y="-7.5" font-family="Helvetica,sans-Serif" font-size="10.00">TableListBox</text>
</a>
</g>
</g>
<!-- Node1&#45;&gt;Node4 -->
<g id="edge3" class="edge"><title>Node1&#45;&gt;Node4</title>
<path fill="none" stroke="#8b1a1a" d="M220.085,-52.503C244.457,-42.3795 278.14,-28.388 299.497,-19.5164"/>
<polygon fill="#8b1a1a" stroke="#8b1a1a" points="218.491,-49.3752 210.599,-56.4435 221.177,-55.8397 218.491,-49.3752"/>
</g>
</g>
</svg>
