<?xml version="1.0" encoding="UTF-8" standalone="no"?>
<!DOCTYPE svg PUBLIC "-//W3C//DTD SVG 1.1//EN"
 "http://www.w3.org/Graphics/SVG/1.1/DTD/svg11.dtd">
<!-- Generated by graphviz version 2.36.0 (20140111.2315)
 -->
<!-- Title: Thread Pages: 1 -->
<svg width="242pt" height="241pt"
 viewBox="0.00 0.00 242.00 241.00" xmlns="http://www.w3.org/2000/svg" xmlns:xlink="http://www.w3.org/1999/xlink">
<g id="graph0" class="graph" transform="scale(1 1) rotate(0) translate(4 237)">
<title>Thread</title>
<!-- Node1 -->
<g id="node1" class="node"><title>Node1</title>
<polygon fill="#bfbfbf" stroke="black" points="0.5,-106.5 0.5,-125.5 47.5,-125.5 47.5,-106.5 0.5,-106.5"/>
<text text-anchor="middle" x="24" y="-113.5" font-family="Helvetica,sans-Serif" font-size="10.00">Thread</text>
</g>
<!-- Node2 -->
<g id="node2" class="node"><title>Node2</title>
<g id="a_node2"><a xlink:href="classInterprocessConnectionServer.html" target="_top" xlink:title="An object that waits for client sockets to connect to a port on this host, and creates InterprocessCo...">
<polygon fill="none" stroke="black" points="84.5,-213.5 84.5,-232.5 233.5,-232.5 233.5,-213.5 84.5,-213.5"/>
<text text-anchor="middle" x="159" y="-220.5" font-family="Helvetica,sans-Serif" font-size="10.00">InterprocessConnectionServer</text>
</a>
</g>
</g>
<!-- Node1&#45;&gt;Node2 -->
<g id="edge1" class="edge"><title>Node1&#45;&gt;Node2</title>
<path fill="none" stroke="#8b1a1a" d="M32.7823,-135.047C42.0127,-155.228 59.3217,-186.54 84,-204 89.5222,-207.907 95.7811,-211.011 102.264,-213.478"/>
<polygon fill="#8b1a1a" stroke="#8b1a1a" points="35.8905,-133.417 28.6956,-125.64 29.4702,-136.207 35.8905,-133.417"/>
</g>
<!-- Node3 -->
<g id="node3" class="node"><title>Node3</title>
<g id="a_node3"><a xlink:href="classMidiOutput.html" target="_top" xlink:title="Represents a midi output device. ">
<polygon fill="none" stroke="black" points="127,-175.5 127,-194.5 191,-194.5 191,-175.5 127,-175.5"/>
<text text-anchor="middle" x="159" y="-182.5" font-family="Helvetica,sans-Serif" font-size="10.00">MidiOutput</text>
</a>
</g>
</g>
<!-- Node1&#45;&gt;Node3 -->
<g id="edge2" class="edge"><title>Node1&#45;&gt;Node3</title>
<path fill="none" stroke="#8b1a1a" d="M41.3421,-132.901C52.4658,-143.513 68.0216,-156.712 84,-165 97.231,-171.863 113.049,-176.549 126.658,-179.65"/>
<polygon fill="#8b1a1a" stroke="#8b1a1a" points="43.6595,-130.27 34.083,-125.738 38.743,-135.253 43.6595,-130.27"/>
</g>
<!-- Node4 -->
<g id="node4" class="node"><title>Node4</title>
<g id="a_node4"><a xlink:href="structNetworkServiceDiscovery_1_1Advertiser.html" target="_top" xlink:title="An object which runs a thread to repeatedly broadcast the existence of a discoverable service...">
<polygon fill="none" stroke="black" points="93.5,-126 93.5,-156 224.5,-156 224.5,-126 93.5,-126"/>
<text text-anchor="start" x="101.5" y="-144" font-family="Helvetica,sans-Serif" font-size="10.00">NetworkServiceDiscovery</text>
<text text-anchor="middle" x="159" y="-133" font-family="Helvetica,sans-Serif" font-size="10.00">::Advertiser</text>
</a>
</g>
</g>
<!-- Node1&#45;&gt;Node4 -->
<g id="edge3" class="edge"><title>Node1&#45;&gt;Node4</title>
<path fill="none" stroke="#8b1a1a" d="M57.4518,-122.1C68.3626,-124.151 80.948,-126.517 93.4419,-128.865"/>
<polygon fill="#8b1a1a" stroke="#8b1a1a" points="58.0361,-118.649 47.5616,-120.241 56.7429,-125.528 58.0361,-118.649"/>
</g>
<!-- Node5 -->
<g id="node5" class="node"><title>Node5</title>
<g id="a_node5"><a xlink:href="structNetworkServiceDiscovery_1_1AvailableServiceList.html" target="_top" xlink:title="Watches the network for broadcasts from Advertiser objects, and keeps a list of all the currently act...">
<polygon fill="none" stroke="black" points="93.5,-77 93.5,-107 224.5,-107 224.5,-77 93.5,-77"/>
<text text-anchor="start" x="101.5" y="-95" font-family="Helvetica,sans-Serif" font-size="10.00">NetworkServiceDiscovery</text>
<text text-anchor="middle" x="159" y="-84" font-family="Helvetica,sans-Serif" font-size="10.00">::AvailableServiceList</text>
</a>
</g>
</g>
<!-- Node1&#45;&gt;Node5 -->
<g id="edge4" class="edge"><title>Node1&#45;&gt;Node5</title>
<path fill="none" stroke="#8b1a1a" d="M57.4518,-110.144C68.3626,-108.175 80.948,-105.904 93.4419,-103.65"/>
<polygon fill="#8b1a1a" stroke="#8b1a1a" points="56.7811,-106.708 47.5616,-111.929 58.0243,-113.597 56.7811,-106.708"/>
</g>
<!-- Node6 -->
<g id="node6" class="node"><title>Node6</title>
<g id="a_node6"><a xlink:href="classThreadWithProgressWindow.html" target="_top" xlink:title="A thread that automatically pops up a modal dialog box with a progress bar and cancel button while it...">
<polygon fill="none" stroke="black" points="88.5,-38.5 88.5,-57.5 229.5,-57.5 229.5,-38.5 88.5,-38.5"/>
<text text-anchor="middle" x="159" y="-45.5" font-family="Helvetica,sans-Serif" font-size="10.00">ThreadWithProgressWindow</text>
</a>
</g>
</g>
<!-- Node1&#45;&gt;Node6 -->
<g id="edge5" class="edge"><title>Node1&#45;&gt;Node6</title>
<path fill="none" stroke="midnightblue" d="M41.4029,-99.4577C52.5517,-89.068 68.1126,-76.1395 84,-68 92.291,-63.7523 101.581,-60.3322 110.703,-57.6048"/>
<polygon fill="midnightblue" stroke="midnightblue" points="38.8974,-97.0114 34.1231,-106.47 43.7535,-102.053 38.8974,-97.0114"/>
</g>
<!-- Node7 -->
<g id="node7" class="node"><title>Node7</title>
<g id="a_node7"><a xlink:href="classTimeSliceThread.html" target="_top" xlink:title="A thread that keeps a list of clients, and calls each one in turn, giving them all a chance to run so...">
<polygon fill="none" stroke="black" points="114,-0.5 114,-19.5 204,-19.5 204,-0.5 114,-0.5"/>
<text text-anchor="middle" x="159" y="-7.5" font-family="Helvetica,sans-Serif" font-size="10.00">TimeSliceThread</text>
</a>
</g>
</g>
<!-- Node1&#45;&gt;Node7 -->
<g id="edge6" class="edge"><title>Node1&#45;&gt;Node7</title>
<path fill="none" stroke="midnightblue" d="M32.839,-97.1685C42.1182,-77.2154 59.469,-46.2587 84,-29 92.787,-22.8179 103.422,-18.6458 113.855,-15.8306"/>
<polygon fill="midnightblue" stroke="midnightblue" points="29.5697,-95.9076 28.727,-106.469 35.9718,-98.7382 29.5697,-95.9076"/>
</g>
</g>
</svg>
