<?xml version="1.0" encoding="UTF-8" standalone="no"?>
<!DOCTYPE svg PUBLIC "-//W3C//DTD SVG 1.1//EN"
 "http://www.w3.org/Graphics/SVG/1.1/DTD/svg11.dtd">
<!-- Generated by graphviz version 2.36.0 (20140111.2315)
 -->
<!-- Title: Slider::Listener Pages: 1 -->
<svg width="235pt" height="84pt"
 viewBox="0.00 0.00 235.00 84.00" xmlns="http://www.w3.org/2000/svg" xmlns:xlink="http://www.w3.org/1999/xlink">
<g id="graph0" class="graph" transform="scale(1 1) rotate(0) translate(4 80)">
<title>Slider::Listener</title>
<!-- Node1 -->
<g id="node1" class="node"><title>Node1</title>
<polygon fill="#bfbfbf" stroke="black" points="60,-56.5 60,-75.5 142,-75.5 142,-56.5 60,-56.5"/>
<text text-anchor="middle" x="101" y="-63.5" font-family="Helvetica,sans-Serif" font-size="10.00">Slider::Listener</text>
</g>
<!-- Node2 -->
<g id="node2" class="node"><title>Node2</title>
<g id="a_node2"><a xlink:href="classColourSelector.html" target="_top" xlink:title="A component that lets the user choose a colour. ">
<polygon fill="none" stroke="black" points="-0.5,-0.5 -0.5,-19.5 80.5,-19.5 80.5,-0.5 -0.5,-0.5"/>
<text text-anchor="middle" x="40" y="-7.5" font-family="Helvetica,sans-Serif" font-size="10.00">ColourSelector</text>
</a>
</g>
</g>
<!-- Node1&#45;&gt;Node2 -->
<g id="edge1" class="edge"><title>Node1&#45;&gt;Node2</title>
<path fill="none" stroke="darkgreen" d="M83.5328,-49.5372C72.6562,-39.9087 59.0561,-27.8694 49.979,-19.8339"/>
<polygon fill="darkgreen" stroke="darkgreen" points="81.3917,-52.3162 91.1993,-56.324 86.0316,-47.0749 81.3917,-52.3162"/>
</g>
<!-- Node3 -->
<g id="node3" class="node"><title>Node3</title>
<g id="a_node3"><a xlink:href="classSliderPropertyComponent.html" target="_top" xlink:title="A PropertyComponent that shows its value as a slider. ">
<polygon fill="none" stroke="black" points="99,-0.5 99,-19.5 227,-19.5 227,-0.5 99,-0.5"/>
<text text-anchor="middle" x="163" y="-7.5" font-family="Helvetica,sans-Serif" font-size="10.00">SliderPropertyComponent</text>
</a>
</g>
</g>
<!-- Node1&#45;&gt;Node3 -->
<g id="edge2" class="edge"><title>Node1&#45;&gt;Node3</title>
<path fill="none" stroke="#8b1a1a" d="M118.754,-49.5372C129.808,-39.9087 143.631,-27.8694 152.857,-19.8339"/>
<polygon fill="#8b1a1a" stroke="#8b1a1a" points="116.203,-47.1168 110.961,-56.324 120.801,-52.3954 116.203,-47.1168"/>
</g>
</g>
</svg>
