<?xml version="1.0" encoding="UTF-8" standalone="no"?>
<!DOCTYPE svg PUBLIC "-//W3C//DTD SVG 1.1//EN"
 "http://www.w3.org/Graphics/SVG/1.1/DTD/svg11.dtd">
<!-- Generated by graphviz version 2.36.0 (20140111.2315)
 -->
<!-- Title: Thread Pages: 1 -->
<svg width="506pt" height="84pt"
 viewBox="0.00 0.00 506.00 84.00" xmlns="http://www.w3.org/2000/svg" xmlns:xlink="http://www.w3.org/1999/xlink">
<g id="graph0" class="graph" transform="scale(1 1) rotate(0) translate(4 80)">
<title>Thread</title>
<!-- Node1 -->
<g id="node1" class="node"><title>Node1</title>
<polygon fill="#bfbfbf" stroke="black" points="234.5,-56.5 234.5,-75.5 281.5,-75.5 281.5,-56.5 234.5,-56.5"/>
<text text-anchor="middle" x="258" y="-63.5" font-family="Helvetica,sans-Serif" font-size="10.00">Thread</text>
</g>
<!-- Node2 -->
<g id="node2" class="node"><title>Node2</title>
<g id="a_node2"><a xlink:href="group__juce__events-interprocess.html#classInterprocessConnectionServer" target="_top" xlink:title="An object that waits for client sockets to connect to a port on this host, and creates InterprocessCo...">
<polygon fill="none" stroke="black" points="-0.5,-0.5 -0.5,-19.5 148.5,-19.5 148.5,-0.5 -0.5,-0.5"/>
<text text-anchor="middle" x="74" y="-7.5" font-family="Helvetica,sans-Serif" font-size="10.00">InterprocessConnectionServer</text>
</a>
</g>
</g>
<!-- Node1&#45;&gt;Node2 -->
<g id="edge1" class="edge"><title>Node1&#45;&gt;Node2</title>
<path fill="none" stroke="#8b1a1a" d="M224.635,-55.208C189.907,-45.0162 136.069,-29.2159 103.04,-19.5225"/>
<polygon fill="#8b1a1a" stroke="#8b1a1a" points="223.741,-58.5933 234.322,-58.051 225.712,-51.8765 223.741,-58.5933"/>
</g>
<!-- Node3 -->
<g id="node3" class="node"><title>Node3</title>
<g id="a_node3"><a xlink:href="group__juce__audio__devices-midi__io.html#classMidiOutput" target="_top" xlink:title="Controls a physical MIDI output device. ">
<polygon fill="none" stroke="black" points="166,-0.5 166,-19.5 230,-19.5 230,-0.5 166,-0.5"/>
<text text-anchor="middle" x="198" y="-7.5" font-family="Helvetica,sans-Serif" font-size="10.00">MidiOutput</text>
</a>
</g>
</g>
<!-- Node1&#45;&gt;Node3 -->
<g id="edge2" class="edge"><title>Node1&#45;&gt;Node3</title>
<path fill="none" stroke="#8b1a1a" d="M240.819,-49.5372C230.121,-39.9087 216.744,-27.8694 207.815,-19.8339"/>
<polygon fill="#8b1a1a" stroke="#8b1a1a" points="238.586,-52.2358 248.36,-56.324 243.268,-47.0327 238.586,-52.2358"/>
</g>
<!-- Node4 -->
<g id="node4" class="node"><title>Node4</title>
<g id="a_node4"><a xlink:href="group__juce__gui__basics-windows.html#classThreadWithProgressWindow" target="_top" xlink:title="A thread that automatically pops up a modal dialog box with a progress bar and cancel button while it...">
<polygon fill="none" stroke="black" points="248.5,-0.5 248.5,-19.5 389.5,-19.5 389.5,-0.5 248.5,-0.5"/>
<text text-anchor="middle" x="319" y="-7.5" font-family="Helvetica,sans-Serif" font-size="10.00">ThreadWithProgressWindow</text>
</a>
</g>
</g>
<!-- Node1&#45;&gt;Node4 -->
<g id="edge3" class="edge"><title>Node1&#45;&gt;Node4</title>
<path fill="none" stroke="midnightblue" d="M275.467,-49.5372C286.344,-39.9087 299.944,-27.8694 309.021,-19.8339"/>
<polygon fill="midnightblue" stroke="midnightblue" points="272.968,-47.0749 267.801,-56.324 277.608,-52.3162 272.968,-47.0749"/>
</g>
<!-- Node5 -->
<g id="node5" class="node"><title>Node5</title>
<g id="a_node5"><a xlink:href="group__juce__core-threads.html#classTimeSliceThread" target="_top" xlink:title="A thread that keeps a list of clients, and calls each one in turn, giving them all a chance to run so...">
<polygon fill="none" stroke="black" points="408,-0.5 408,-19.5 498,-19.5 498,-0.5 408,-0.5"/>
<text text-anchor="middle" x="453" y="-7.5" font-family="Helvetica,sans-Serif" font-size="10.00">TimeSliceThread</text>
</a>
</g>
</g>
<!-- Node1&#45;&gt;Node5 -->
<g id="edge4" class="edge"><title>Node1&#45;&gt;Node5</title>
<path fill="none" stroke="midnightblue" d="M291.236,-55.7961C327.861,-45.654 386.298,-29.4713 422.003,-19.5837"/>
<polygon fill="midnightblue" stroke="midnightblue" points="290.225,-52.4444 281.522,-58.4863 292.093,-59.1905 290.225,-52.4444"/>
</g>
</g>
</svg>
