<?xml version="1.0" encoding="UTF-8" standalone="no"?>
<!DOCTYPE svg PUBLIC "-//W3C//DTD SVG 1.1//EN"
 "http://www.w3.org/Graphics/SVG/1.1/DTD/svg11.dtd">
<!-- Generated by graphviz version 2.36.0 (20140111.2315)
 -->
<!-- Title: juce::PositionableAudioSource Pages: 1 -->
<svg width="484pt" height="104pt"
 viewBox="0.00 0.00 484.00 104.00" xmlns="http://www.w3.org/2000/svg" xmlns:xlink="http://www.w3.org/1999/xlink">
<g id="graph0" class="graph" transform="scale(1 1) rotate(0) translate(4 100)">
<title>juce::PositionableAudioSource</title>
<!-- Node1 -->
<g id="node1" class="node"><title>Node1</title>
<polygon fill="#bfbfbf" stroke="black" points="132.5,-38.5 132.5,-57.5 281.5,-57.5 281.5,-38.5 132.5,-38.5"/>
<text text-anchor="middle" x="207" y="-45.5" font-family="Helvetica,sans-Serif" font-size="10.00">juce::PositionableAudioSource</text>
</g>
<!-- Node3 -->
<g id="node3" class="node"><title>Node3</title>
<g id="a_node3"><a xlink:href="classjuce_1_1AudioFormatReaderSource.html" target="_top" xlink:title="A type of AudioSource that will read from an AudioFormatReader. ">
<polygon fill="none" stroke="black" points="318,-76.5 318,-95.5 476,-95.5 476,-76.5 318,-76.5"/>
<text text-anchor="middle" x="397" y="-83.5" font-family="Helvetica,sans-Serif" font-size="10.00">juce::AudioFormatReaderSource</text>
</a>
</g>
</g>
<!-- Node1&#45;&gt;Node3 -->
<g id="edge2" class="edge"><title>Node1&#45;&gt;Node3</title>
<path fill="none" stroke="midnightblue" d="M265.437,-59.6095C292.174,-65.014 323.588,-71.3635 348.901,-76.4799"/>
<polygon fill="midnightblue" stroke="midnightblue" points="265.936,-56.1397 255.44,-57.589 264.549,-63.0009 265.936,-56.1397"/>
</g>
<!-- Node4 -->
<g id="node4" class="node"><title>Node4</title>
<g id="a_node4"><a xlink:href="classjuce_1_1AudioTransportSource.html" target="_top" xlink:title="An AudioSource that takes a PositionableAudioSource and allows it to be played, stopped, started, etc. ">
<polygon fill="none" stroke="black" points="328.5,-38.5 328.5,-57.5 465.5,-57.5 465.5,-38.5 328.5,-38.5"/>
<text text-anchor="middle" x="397" y="-45.5" font-family="Helvetica,sans-Serif" font-size="10.00">juce::AudioTransportSource</text>
</a>
</g>
</g>
<!-- Node1&#45;&gt;Node4 -->
<g id="edge3" class="edge"><title>Node1&#45;&gt;Node4</title>
<path fill="none" stroke="midnightblue" d="M291.912,-48C304.079,-48 316.474,-48 328.27,-48"/>
<polygon fill="midnightblue" stroke="midnightblue" points="291.763,-44.5001 281.763,-48 291.763,-51.5001 291.763,-44.5001"/>
</g>
<!-- Node5 -->
<g id="node5" class="node"><title>Node5</title>
<g id="a_node5"><a xlink:href="classjuce_1_1BufferingAudioSource.html" target="_top" xlink:title="An AudioSource which takes another source as input, and buffers it using a thread. ">
<polygon fill="none" stroke="black" points="329.5,-0.5 329.5,-19.5 464.5,-19.5 464.5,-0.5 329.5,-0.5"/>
<text text-anchor="middle" x="397" y="-7.5" font-family="Helvetica,sans-Serif" font-size="10.00">juce::BufferingAudioSource</text>
</a>
</g>
</g>
<!-- Node1&#45;&gt;Node5 -->
<g id="edge4" class="edge"><title>Node1&#45;&gt;Node5</title>
<path fill="none" stroke="midnightblue" d="M265.437,-36.3905C292.174,-30.986 323.588,-24.6365 348.901,-19.5201"/>
<polygon fill="midnightblue" stroke="midnightblue" points="264.549,-32.9991 255.44,-38.411 265.936,-39.8603 264.549,-32.9991"/>
</g>
<!-- Node2 -->
<g id="node2" class="node"><title>Node2</title>
<g id="a_node2"><a xlink:href="classjuce_1_1AudioSource.html" target="_top" xlink:title="Base class for objects that can produce a continuous stream of audio. ">
<polygon fill="none" stroke="black" points="0,-38.5 0,-57.5 96,-57.5 96,-38.5 0,-38.5"/>
<text text-anchor="middle" x="48" y="-45.5" font-family="Helvetica,sans-Serif" font-size="10.00">juce::AudioSource</text>
</a>
</g>
</g>
<!-- Node2&#45;&gt;Node1 -->
<g id="edge1" class="edge"><title>Node2&#45;&gt;Node1</title>
<path fill="none" stroke="midnightblue" d="M106.291,-48C114.813,-48 123.695,-48 132.494,-48"/>
<polygon fill="midnightblue" stroke="midnightblue" points="106.105,-44.5001 96.1052,-48 106.105,-51.5001 106.105,-44.5001"/>
</g>
</g>
</svg>
