<?xml version="1.0" encoding="UTF-8" standalone="no"?>
<!DOCTYPE svg PUBLIC "-//W3C//DTD SVG 1.1//EN"
 "http://www.w3.org/Graphics/SVG/1.1/DTD/svg11.dtd">
<!-- Generated by graphviz version 2.36.0 (20140111.2315)
 -->
<!-- Title: AudioProcessorGraph Pages: 1 -->
<svg width="191pt" height="84pt"
 viewBox="0.00 0.00 191.00 84.00" xmlns="http://www.w3.org/2000/svg" xmlns:xlink="http://www.w3.org/1999/xlink">
<g id="graph0" class="graph" transform="scale(1 1) rotate(0) translate(4 80)">
<title>AudioProcessorGraph</title>
<!-- Node1 -->
<g id="node1" class="node"><title>Node1</title>
<polygon fill="#bfbfbf" stroke="black" points="37,-0.5 37,-19.5 149,-19.5 149,-0.5 37,-0.5"/>
<text text-anchor="middle" x="93" y="-7.5" font-family="Helvetica,sans-Serif" font-size="10.00">AudioProcessorGraph</text>
</g>
<!-- Node2 -->
<g id="node2" class="node"><title>Node2</title>
<g id="a_node2"><a xlink:href="classAudioProcessor.html" target="_top" xlink:title="Base class for audio processing filters or plugins. ">
<polygon fill="none" stroke="black" points="0,-56.5 0,-75.5 86,-75.5 86,-56.5 0,-56.5"/>
<text text-anchor="middle" x="43" y="-63.5" font-family="Helvetica,sans-Serif" font-size="10.00">AudioProcessor</text>
</a>
</g>
</g>
<!-- Node2&#45;&gt;Node1 -->
<g id="edge1" class="edge"><title>Node2&#45;&gt;Node1</title>
<path fill="none" stroke="midnightblue" d="M58.0763,-48.7175C66.8891,-39.1997 77.6659,-27.5608 84.8972,-19.7511"/>
<polygon fill="midnightblue" stroke="midnightblue" points="55.4824,-46.3674 51.2565,-56.083 60.6188,-51.1233 55.4824,-46.3674"/>
</g>
<!-- Node3 -->
<g id="node3" class="node"><title>Node3</title>
<g id="a_node3"><a xlink:href="classAsyncUpdater.html" target="_top" xlink:title="Has a callback method that is triggered asynchronously. ">
<polygon fill="none" stroke="black" points="104.5,-56.5 104.5,-75.5 183.5,-75.5 183.5,-56.5 104.5,-56.5"/>
<text text-anchor="middle" x="144" y="-63.5" font-family="Helvetica,sans-Serif" font-size="10.00">AsyncUpdater</text>
</a>
</g>
</g>
<!-- Node3&#45;&gt;Node1 -->
<g id="edge2" class="edge"><title>Node3&#45;&gt;Node1</title>
<path fill="none" stroke="#8b1a1a" d="M128.622,-48.7175C119.633,-39.1997 108.641,-27.5608 101.265,-19.7511"/>
<polygon fill="#8b1a1a" stroke="#8b1a1a" points="126.168,-51.216 135.578,-56.083 131.257,-46.4096 126.168,-51.216"/>
</g>
</g>
</svg>
