<?xml version="1.0" encoding="UTF-8" standalone="no"?>
<!DOCTYPE svg PUBLIC "-//W3C//DTD SVG 1.1//EN"
 "http://www.w3.org/Graphics/SVG/1.1/DTD/svg11.dtd">
<!-- Generated by graphviz version 2.36.0 (20140111.2315)
 -->
<!-- Title: MidiInputCallback Pages: 1 -->
<svg width="251pt" height="84pt"
 viewBox="0.00 0.00 251.00 84.00" xmlns="http://www.w3.org/2000/svg" xmlns:xlink="http://www.w3.org/1999/xlink">
<g id="graph0" class="graph" transform="scale(1 1) rotate(0) translate(4 80)">
<title>MidiInputCallback</title>
<!-- Node1 -->
<g id="node1" class="node"><title>Node1</title>
<polygon fill="#bfbfbf" stroke="black" points="73.5,-56.5 73.5,-75.5 168.5,-75.5 168.5,-56.5 73.5,-56.5"/>
<text text-anchor="middle" x="121" y="-63.5" font-family="Helvetica,sans-Serif" font-size="10.00">MidiInputCallback</text>
</g>
<!-- Node2 -->
<g id="node2" class="node"><title>Node2</title>
<g id="a_node2"><a xlink:href="group__juce__audio__utils-players.html#classAudioProcessorPlayer" target="_top" xlink:title="An AudioIODeviceCallback object which streams audio through an AudioProcessor. ">
<polygon fill="none" stroke="black" points="-0.5,-0.5 -0.5,-19.5 112.5,-19.5 112.5,-0.5 -0.5,-0.5"/>
<text text-anchor="middle" x="56" y="-7.5" font-family="Helvetica,sans-Serif" font-size="10.00">AudioProcessorPlayer</text>
</a>
</g>
</g>
<!-- Node1&#45;&gt;Node2 -->
<g id="edge1" class="edge"><title>Node1&#45;&gt;Node2</title>
<path fill="none" stroke="midnightblue" d="M102.727,-49.8197C91.0822,-40.1452 76.4005,-27.9481 66.6334,-19.8339"/>
<polygon fill="midnightblue" stroke="midnightblue" points="100.628,-52.6259 110.557,-56.324 105.101,-47.2416 100.628,-52.6259"/>
</g>
<!-- Node3 -->
<g id="node3" class="node"><title>Node3</title>
<g id="a_node3"><a xlink:href="group__juce__audio__devices-midi__io.html#classMidiMessageCollector" target="_top" xlink:title="Collects incoming realtime MIDI messages and turns them into blocks suitable for processing by a bloc...">
<polygon fill="none" stroke="black" points="130.5,-0.5 130.5,-19.5 243.5,-19.5 243.5,-0.5 130.5,-0.5"/>
<text text-anchor="middle" x="187" y="-7.5" font-family="Helvetica,sans-Serif" font-size="10.00">MidiMessageCollector</text>
</a>
</g>
</g>
<!-- Node1&#45;&gt;Node3 -->
<g id="edge2" class="edge"><title>Node1&#45;&gt;Node3</title>
<path fill="none" stroke="midnightblue" d="M139.554,-49.8197C151.378,-40.1452 166.286,-27.9481 176.203,-19.8339"/>
<polygon fill="midnightblue" stroke="midnightblue" points="137.127,-47.2827 131.604,-56.324 141.56,-52.7004 137.127,-47.2827"/>
</g>
</g>
</svg>
