<?xml version="1.0" encoding="UTF-8" standalone="no"?>
<!DOCTYPE svg PUBLIC "-//W3C//DTD SVG 1.1//EN"
 "http://www.w3.org/Graphics/SVG/1.1/DTD/svg11.dtd">
<!-- Generated by graphviz version 2.36.0 (20140111.2315)
 -->
<!-- Title: juce::CallbackMessage Pages: 1 -->
<svg width="158pt" height="152pt"
 viewBox="0.00 0.00 158.00 152.00" xmlns="http://www.w3.org/2000/svg" xmlns:xlink="http://www.w3.org/1999/xlink">
<g id="graph0" class="graph" transform="scale(1 1) rotate(0) translate(4 148)">
<title>juce::CallbackMessage</title>
<!-- Node1 -->
<g id="node1" class="node"><title>Node1</title>
<polygon fill="#bfbfbf" stroke="black" points="15.5,-0.5 15.5,-19.5 134.5,-19.5 134.5,-0.5 15.5,-0.5"/>
<text text-anchor="middle" x="75" y="-7.5" font-family="Helvetica,sans-Serif" font-size="10.00">juce::CallbackMessage</text>
</g>
<!-- Node2 -->
<g id="node2" class="node"><title>Node2</title>
<g id="a_node2"><a xlink:href="classjuce_1_1MessageManager_1_1MessageBase.html" target="_top" xlink:title="Internal class used as the base class for all message objects. ">
<polygon fill="none" stroke="black" points="16,-57 16,-87 134,-87 134,-57 16,-57"/>
<text text-anchor="start" x="24" y="-75" font-family="Helvetica,sans-Serif" font-size="10.00">juce::MessageManager</text>
<text text-anchor="middle" x="75" y="-64" font-family="Helvetica,sans-Serif" font-size="10.00">::MessageBase</text>
</a>
</g>
</g>
<!-- Node2&#45;&gt;Node1 -->
<g id="edge1" class="edge"><title>Node2&#45;&gt;Node1</title>
<path fill="none" stroke="midnightblue" d="M75,-46.5858C75,-37.0743 75,-26.7864 75,-19.7305"/>
<polygon fill="midnightblue" stroke="midnightblue" points="71.5001,-46.7808 75,-56.7808 78.5001,-46.7809 71.5001,-46.7808"/>
</g>
<!-- Node3 -->
<g id="node3" class="node"><title>Node3</title>
<g id="a_node3"><a xlink:href="classjuce_1_1ReferenceCountedObject.html" target="_top" xlink:title="A base class which provides methods for reference&#45;counting. ">
<polygon fill="none" stroke="black" points="-0.5,-124.5 -0.5,-143.5 150.5,-143.5 150.5,-124.5 -0.5,-124.5"/>
<text text-anchor="middle" x="75" y="-131.5" font-family="Helvetica,sans-Serif" font-size="10.00">juce::ReferenceCountedObject</text>
</a>
</g>
</g>
<!-- Node3&#45;&gt;Node2 -->
<g id="edge2" class="edge"><title>Node3&#45;&gt;Node2</title>
<path fill="none" stroke="midnightblue" d="M75,-114.371C75,-105.585 75,-95.2721 75,-87.1408"/>
<polygon fill="midnightblue" stroke="midnightblue" points="71.5001,-114.403 75,-124.403 78.5001,-114.403 71.5001,-114.403"/>
</g>
</g>
</svg>
