<?xml version="1.0" encoding="UTF-8" standalone="no"?>
<!DOCTYPE svg PUBLIC "-//W3C//DTD SVG 1.1//EN"
 "http://www.w3.org/Graphics/SVG/1.1/DTD/svg11.dtd">
<!-- Generated by graphviz version 2.36.0 (20140111.2315)
 -->
<!-- Title: juce::DirectoryContentsList Pages: 1 -->
<svg width="263pt" height="84pt"
 viewBox="0.00 0.00 263.00 84.00" xmlns="http://www.w3.org/2000/svg" xmlns:xlink="http://www.w3.org/1999/xlink">
<g id="graph0" class="graph" transform="scale(1 1) rotate(0) translate(4 80)">
<title>juce::DirectoryContentsList</title>
<!-- Node1 -->
<g id="node1" class="node"><title>Node1</title>
<polygon fill="#bfbfbf" stroke="black" points="63,-0.5 63,-19.5 199,-19.5 199,-0.5 63,-0.5"/>
<text text-anchor="middle" x="131" y="-7.5" font-family="Helvetica,sans-Serif" font-size="10.00">juce::DirectoryContentsList</text>
</g>
<!-- Node2 -->
<g id="node2" class="node"><title>Node2</title>
<g id="a_node2"><a xlink:href="classjuce_1_1ChangeBroadcaster.html" target="_top" xlink:title="Holds a list of ChangeListeners, and sends messages to them when instructed. ">
<polygon fill="none" stroke="black" points="-0.5,-56.5 -0.5,-75.5 126.5,-75.5 126.5,-56.5 -0.5,-56.5"/>
<text text-anchor="middle" x="63" y="-63.5" font-family="Helvetica,sans-Serif" font-size="10.00">juce::ChangeBroadcaster</text>
</a>
</g>
</g>
<!-- Node2&#45;&gt;Node1 -->
<g id="edge1" class="edge"><title>Node2&#45;&gt;Node1</title>
<path fill="none" stroke="midnightblue" d="M81.762,-50.1008C93.9999,-40.3824 109.559,-28.0269 119.876,-19.8339"/>
<polygon fill="midnightblue" stroke="midnightblue" points="79.5799,-47.3642 73.9254,-56.324 83.9331,-52.846 79.5799,-47.3642"/>
</g>
<!-- Node3 -->
<g id="node3" class="node"><title>Node3</title>
<g id="a_node3"><a xlink:href="classjuce_1_1TimeSliceClient.html" target="_top" xlink:title="Used by the TimeSliceThread class. ">
<polygon fill="none" stroke="black" points="145,-56.5 145,-75.5 255,-75.5 255,-56.5 145,-56.5"/>
<text text-anchor="middle" x="200" y="-63.5" font-family="Helvetica,sans-Serif" font-size="10.00">juce::TimeSliceClient</text>
</a>
</g>
</g>
<!-- Node3&#45;&gt;Node1 -->
<g id="edge2" class="edge"><title>Node3&#45;&gt;Node1</title>
<path fill="none" stroke="#8b1a1a" d="M180.962,-50.1008C168.544,-40.3824 152.757,-28.0269 142.288,-19.8339"/>
<polygon fill="#8b1a1a" stroke="#8b1a1a" points="178.882,-52.9171 188.914,-56.324 183.196,-47.4046 178.882,-52.9171"/>
</g>
</g>
</svg>
