<?xml version="1.0" encoding="UTF-8" standalone="no"?>
<!DOCTYPE svg PUBLIC "-//W3C//DTD SVG 1.1//EN"
 "http://www.w3.org/Graphics/SVG/1.1/DTD/svg11.dtd">
<!-- Generated by graphviz version 2.36.0 (20140111.2315)
 -->
<!-- Title: CriticalSection Pages: 1 -->
<svg width="274pt" height="109pt"
 viewBox="0.00 0.00 274.00 109.00" xmlns="http://www.w3.org/2000/svg" xmlns:xlink="http://www.w3.org/1999/xlink">
<g id="graph0" class="graph" transform="scale(1 1) rotate(0) translate(4 105)">
<title>CriticalSection</title>
<!-- Node1 -->
<g id="node1" class="node"><title>Node1</title>
<polygon fill="#bfbfbf" stroke="black" points="0,-40.5 0,-59.5 80,-59.5 80,-40.5 0,-40.5"/>
<text text-anchor="middle" x="40" y="-47.5" font-family="Helvetica,sans-Serif" font-size="10.00">CriticalSection</text>
</g>
<!-- Node2 -->
<g id="node2" class="node"><title>Node2</title>
<g id="a_node2"><a xlink:href="group__juce__core-containers.html" target="_top" xlink:title="ArrayAllocationBase\l\&lt; Steinberg::Vst::Event,\l CriticalSection \&gt;">
<polygon fill="none" stroke="black" points="130,-59.5 130,-100.5 252,-100.5 252,-59.5 130,-59.5"/>
<text text-anchor="start" x="138" y="-88.5" font-family="Helvetica,sans-Serif" font-size="10.00">ArrayAllocationBase</text>
<text text-anchor="start" x="138" y="-77.5" font-family="Helvetica,sans-Serif" font-size="10.00">&lt; Steinberg::Vst::Event,</text>
<text text-anchor="middle" x="191" y="-66.5" font-family="Helvetica,sans-Serif" font-size="10.00"> CriticalSection &gt;</text>
</a>
</g>
</g>
<!-- Node1&#45;&gt;Node2 -->
<g id="edge1" class="edge"><title>Node1&#45;&gt;Node2</title>
<path fill="none" stroke="midnightblue" d="M90.0579,-59.8774C102.756,-62.434 116.574,-65.2163 129.772,-67.8735"/>
<polygon fill="midnightblue" stroke="midnightblue" points="90.6421,-56.4249 80.148,-57.8821 89.2604,-63.2872 90.6421,-56.4249"/>
</g>
<!-- Node3 -->
<g id="node3" class="node"><title>Node3</title>
<g id="a_node3"><a xlink:href="group__juce__core-containers.html" target="_top" xlink:title="ArrayAllocationBase\l\&lt; UnitTestRunner::TestResult\l *, CriticalSection \&gt;">
<polygon fill="none" stroke="black" points="116.5,0.5 116.5,-40.5 265.5,-40.5 265.5,0.5 116.5,0.5"/>
<text text-anchor="start" x="124.5" y="-28.5" font-family="Helvetica,sans-Serif" font-size="10.00">ArrayAllocationBase</text>
<text text-anchor="start" x="124.5" y="-17.5" font-family="Helvetica,sans-Serif" font-size="10.00">&lt; UnitTestRunner::TestResult</text>
<text text-anchor="middle" x="191" y="-6.5" font-family="Helvetica,sans-Serif" font-size="10.00"> *, CriticalSection &gt;</text>
</a>
</g>
</g>
<!-- Node1&#45;&gt;Node3 -->
<g id="edge2" class="edge"><title>Node1&#45;&gt;Node3</title>
<path fill="none" stroke="midnightblue" d="M90.1029,-40.1135C98.4901,-38.4248 107.365,-36.6379 116.226,-34.8537"/>
<polygon fill="midnightblue" stroke="midnightblue" points="89.2604,-36.7128 80.148,-42.1179 90.6421,-43.5751 89.2604,-36.7128"/>
</g>
</g>
</svg>
