<?xml version="1.0" encoding="UTF-8" standalone="no"?>
<!DOCTYPE svg PUBLIC "-//W3C//DTD SVG 1.1//EN"
 "http://www.w3.org/Graphics/SVG/1.1/DTD/svg11.dtd">
<!-- Generated by graphviz version 2.36.0 (20140111.2315)
 -->
<!-- Title: juce::SingleThreadedReferenceCountedObject Pages: 1 -->
<svg width="379pt" height="96pt"
 viewBox="0.00 0.00 379.00 96.00" xmlns="http://www.w3.org/2000/svg" xmlns:xlink="http://www.w3.org/1999/xlink">
<g id="graph0" class="graph" transform="scale(1 1) rotate(0) translate(4 92)">
<title>juce::SingleThreadedReferenceCountedObject</title>
<!-- Node1 -->
<g id="node1" class="node"><title>Node1</title>
<polygon fill="#bfbfbf" stroke="black" points="105.5,-57 105.5,-87 258.5,-87 258.5,-57 105.5,-57"/>
<text text-anchor="start" x="113.5" y="-75" font-family="Helvetica,sans-Serif" font-size="10.00">juce::SingleThreadedReference</text>
<text text-anchor="middle" x="182" y="-64" font-family="Helvetica,sans-Serif" font-size="10.00">CountedObject</text>
</g>
<!-- Node2 -->
<g id="node2" class="node"><title>Node2</title>
<g id="a_node2"><a xlink:href="classjuce_1_1PopupMenu_1_1CustomCallback.html" target="_top" xlink:title="A user&#45;defined callback that can be used for specific items in a popup menu. ">
<polygon fill="none" stroke="black" points="-0.5,-0.5 -0.5,-19.5 170.5,-19.5 170.5,-0.5 -0.5,-0.5"/>
<text text-anchor="middle" x="85" y="-7.5" font-family="Helvetica,sans-Serif" font-size="10.00">juce::PopupMenu::CustomCallback</text>
</a>
</g>
</g>
<!-- Node1&#45;&gt;Node2 -->
<g id="edge1" class="edge"><title>Node1&#45;&gt;Node2</title>
<path fill="none" stroke="midnightblue" d="M150.268,-51.3718C132.866,-40.6076 112.179,-27.8117 98.8317,-19.5557"/>
<polygon fill="midnightblue" stroke="midnightblue" points="148.667,-54.4969 159.012,-56.7808 152.349,-48.5437 148.667,-54.4969"/>
</g>
<!-- Node3 -->
<g id="node3" class="node"><title>Node3</title>
<g id="a_node3"><a xlink:href="classjuce_1_1PopupMenu_1_1CustomComponent.html" target="_top" xlink:title="A user&#45;defined component that can be used as an item in a popup menu. ">
<polygon fill="none" stroke="black" points="188.5,-0.5 188.5,-19.5 371.5,-19.5 371.5,-0.5 188.5,-0.5"/>
<text text-anchor="middle" x="280" y="-7.5" font-family="Helvetica,sans-Serif" font-size="10.00">juce::PopupMenu::CustomComponent</text>
</a>
</g>
</g>
<!-- Node1&#45;&gt;Node3 -->
<g id="edge2" class="edge"><title>Node1&#45;&gt;Node3</title>
<path fill="none" stroke="midnightblue" d="M214.059,-51.3718C231.641,-40.6076 252.541,-27.8117 266.026,-19.5557"/>
<polygon fill="midnightblue" stroke="midnightblue" points="211.926,-48.5743 205.225,-56.7808 215.581,-54.5442 211.926,-48.5743"/>
</g>
</g>
</svg>
