<?xml version="1.0" encoding="UTF-8" standalone="no"?>
<!DOCTYPE svg PUBLIC "-//W3C//DTD SVG 1.1//EN"
 "http://www.w3.org/Graphics/SVG/1.1/DTD/svg11.dtd">
<!-- Generated by graphviz version 2.36.0 (20140111.2315)
 -->
<!-- Title: FileDragAndDropTarget Pages: 1 -->
<svg width="508pt" height="140pt"
 viewBox="0.00 0.00 508.00 140.00" xmlns="http://www.w3.org/2000/svg" xmlns:xlink="http://www.w3.org/1999/xlink">
<g id="graph0" class="graph" transform="scale(1 1) rotate(0) translate(4 136)">
<title>FileDragAndDropTarget</title>
<!-- Node1 -->
<g id="node1" class="node"><title>Node1</title>
<polygon fill="#bfbfbf" stroke="black" points="213.5,-112.5 213.5,-131.5 332.5,-131.5 332.5,-112.5 213.5,-112.5"/>
<text text-anchor="middle" x="273" y="-119.5" font-family="Helvetica,sans-Serif" font-size="10.00">FileDragAndDropTarget</text>
</g>
<!-- Node2 -->
<g id="node2" class="node"><title>Node2</title>
<g id="a_node2"><a xlink:href="group__juce__gui__basics-filebrowser.html#classFilenameComponent" target="_top" xlink:title="Shows a filename as an editable text box, with a &#39;browse&#39; button and a drop&#45;down list for recently se...">
<polygon fill="none" stroke="black" points="-0.5,-56.5 -0.5,-75.5 106.5,-75.5 106.5,-56.5 -0.5,-56.5"/>
<text text-anchor="middle" x="53" y="-63.5" font-family="Helvetica,sans-Serif" font-size="10.00">FilenameComponent</text>
</a>
</g>
</g>
<!-- Node1&#45;&gt;Node2 -->
<g id="edge1" class="edge"><title>Node1&#45;&gt;Node2</title>
<path fill="none" stroke="midnightblue" d="M228.282,-110.024C186.724,-99.8232 125.687,-84.8414 87.6966,-75.5164"/>
<polygon fill="midnightblue" stroke="midnightblue" points="227.594,-113.459 238.14,-112.444 229.263,-106.661 227.594,-113.459"/>
</g>
<!-- Node3 -->
<g id="node3" class="node"><title>Node3</title>
<g id="a_node3"><a xlink:href="group__juce__gui__basics-filebrowser.html#classFileSearchPathListComponent" target="_top" xlink:title="Shows a set of file paths in a list, allowing them to be added, removed or re&#45;ordered. ">
<polygon fill="none" stroke="black" points="124.5,-56.5 124.5,-75.5 273.5,-75.5 273.5,-56.5 124.5,-56.5"/>
<text text-anchor="middle" x="199" y="-63.5" font-family="Helvetica,sans-Serif" font-size="10.00">FileSearchPathListComponent</text>
</a>
</g>
</g>
<!-- Node1&#45;&gt;Node3 -->
<g id="edge2" class="edge"><title>Node1&#45;&gt;Node3</title>
<path fill="none" stroke="midnightblue" d="M252.966,-106.38C239.591,-96.6204 222.441,-84.1057 211.106,-75.8339"/>
<polygon fill="midnightblue" stroke="midnightblue" points="250.97,-109.257 261.111,-112.324 255.096,-103.602 250.97,-109.257"/>
</g>
<!-- Node4 -->
<g id="node4" class="node"><title>Node4</title>
<g id="a_node4"><a xlink:href="group__juce__audio__processors-scanning.html#classPluginListComponent" target="_top" xlink:title="A component displaying a list of plugins, with options to scan for them, add, remove and sort them...">
<polygon fill="none" stroke="black" points="292,-56.5 292,-75.5 402,-75.5 402,-56.5 292,-56.5"/>
<text text-anchor="middle" x="347" y="-63.5" font-family="Helvetica,sans-Serif" font-size="10.00">PluginListComponent</text>
</a>
</g>
</g>
<!-- Node1&#45;&gt;Node4 -->
<g id="edge3" class="edge"><title>Node1&#45;&gt;Node4</title>
<path fill="none" stroke="midnightblue" d="M293.034,-106.38C306.409,-96.6204 323.559,-84.1057 334.894,-75.8339"/>
<polygon fill="midnightblue" stroke="midnightblue" points="290.904,-103.602 284.889,-112.324 295.03,-109.257 290.904,-103.602"/>
</g>
<!-- Node5 -->
<g id="node5" class="node"><title>Node5</title>
<g id="a_node5"><a xlink:href="group__juce__gui__basics-widgets.html#classTreeView" target="_top" xlink:title="A tree&#45;view component. ">
<polygon fill="none" stroke="black" points="420,-56.5 420,-75.5 478,-75.5 478,-56.5 420,-56.5"/>
<text text-anchor="middle" x="449" y="-63.5" font-family="Helvetica,sans-Serif" font-size="10.00">TreeView</text>
</a>
</g>
</g>
<!-- Node1&#45;&gt;Node5 -->
<g id="edge4" class="edge"><title>Node1&#45;&gt;Node5</title>
<path fill="none" stroke="midnightblue" d="M310.689,-109.436C343.872,-99.2551 391.428,-84.664 421.243,-75.5164"/>
<polygon fill="midnightblue" stroke="midnightblue" points="309.421,-106.164 300.888,-112.444 311.475,-112.856 309.421,-106.164"/>
</g>
<!-- Node6 -->
<g id="node6" class="node"><title>Node6</title>
<g id="a_node6"><a xlink:href="group__juce__gui__basics-filebrowser.html#classFileTreeComponent" target="_top" xlink:title="A component that displays the files in a directory as a treeview. ">
<polygon fill="none" stroke="black" points="398,-0.5 398,-19.5 500,-19.5 500,-0.5 398,-0.5"/>
<text text-anchor="middle" x="449" y="-7.5" font-family="Helvetica,sans-Serif" font-size="10.00">FileTreeComponent</text>
</a>
</g>
</g>
<!-- Node5&#45;&gt;Node6 -->
<g id="edge5" class="edge"><title>Node5&#45;&gt;Node6</title>
<path fill="none" stroke="midnightblue" d="M449,-45.8045C449,-36.9102 449,-26.7798 449,-19.7511"/>
<polygon fill="midnightblue" stroke="midnightblue" points="445.5,-46.083 449,-56.083 452.5,-46.083 445.5,-46.083"/>
</g>
</g>
</svg>
