<?xml version="1.0" encoding="UTF-8" standalone="no"?>
<!DOCTYPE svg PUBLIC "-//W3C//DTD SVG 1.1//EN"
 "http://www.w3.org/Graphics/SVG/1.1/DTD/svg11.dtd">
<!-- Generated by graphviz version 2.36.0 (20140111.2315)
 -->
<!-- Title: Button::Listener Pages: 1 -->
<svg width="544pt" height="84pt"
 viewBox="0.00 0.00 544.00 84.00" xmlns="http://www.w3.org/2000/svg" xmlns:xlink="http://www.w3.org/1999/xlink">
<g id="graph0" class="graph" transform="scale(1 1) rotate(0) translate(4 80)">
<title>Button::Listener</title>
<!-- Node1 -->
<g id="node1" class="node"><title>Node1</title>
<polygon fill="#bfbfbf" stroke="black" points="192,-56.5 192,-75.5 278,-75.5 278,-56.5 192,-56.5"/>
<text text-anchor="middle" x="235" y="-63.5" font-family="Helvetica,sans-Serif" font-size="10.00">Button::Listener</text>
</g>
<!-- Node2 -->
<g id="node2" class="node"><title>Node2</title>
<g id="a_node2"><a xlink:href="classAlertWindow.html" target="_top" xlink:title="A window that displays a message and has buttons for the user to react to it. ">
<polygon fill="none" stroke="black" points="0,-0.5 0,-19.5 72,-19.5 72,-0.5 0,-0.5"/>
<text text-anchor="middle" x="36" y="-7.5" font-family="Helvetica,sans-Serif" font-size="10.00">AlertWindow</text>
</a>
</g>
</g>
<!-- Node1&#45;&gt;Node2 -->
<g id="edge1" class="edge"><title>Node1&#45;&gt;Node2</title>
<path fill="none" stroke="#8b1a1a" d="M193.352,-53.6986C155.794,-43.507 101.386,-28.7429 67.3846,-19.5164"/>
<polygon fill="#8b1a1a" stroke="#8b1a1a" points="192.9,-57.2025 203.468,-56.4435 194.733,-50.4468 192.9,-57.2025"/>
</g>
<!-- Node3 -->
<g id="node3" class="node"><title>Node3</title>
<g id="a_node3"><a xlink:href="classButtonTracker.html" target="_top" xlink:title="A class that automatically sends analytics events to the Analytics singleton when a button is clicked...">
<polygon fill="none" stroke="black" points="90,-0.5 90,-19.5 168,-19.5 168,-0.5 90,-0.5"/>
<text text-anchor="middle" x="129" y="-7.5" font-family="Helvetica,sans-Serif" font-size="10.00">ButtonTracker</text>
</a>
</g>
</g>
<!-- Node1&#45;&gt;Node3 -->
<g id="edge2" class="edge"><title>Node1&#45;&gt;Node3</title>
<path fill="none" stroke="#8b1a1a" d="M208.944,-51.7261C189.316,-41.7271 162.972,-28.3065 145.988,-19.6545"/>
<polygon fill="#8b1a1a" stroke="#8b1a1a" points="207.47,-54.9033 217.969,-56.324 210.648,-48.666 207.47,-54.9033"/>
</g>
<!-- Node4 -->
<g id="node4" class="node"><title>Node4</title>
<g id="a_node4"><a xlink:href="classOnlineUnlockForm.html" target="_top" xlink:title="Acts as a GUI which asks the user for their details, and calls the approriate methods on your OnlineU...">
<polygon fill="none" stroke="black" points="186,-0.5 186,-19.5 284,-19.5 284,-0.5 186,-0.5"/>
<text text-anchor="middle" x="235" y="-7.5" font-family="Helvetica,sans-Serif" font-size="10.00">OnlineUnlockForm</text>
</a>
</g>
</g>
<!-- Node1&#45;&gt;Node4 -->
<g id="edge3" class="edge"><title>Node1&#45;&gt;Node4</title>
<path fill="none" stroke="#8b1a1a" d="M235,-45.8045C235,-36.9102 235,-26.7798 235,-19.7511"/>
<polygon fill="#8b1a1a" stroke="#8b1a1a" points="231.5,-46.083 235,-56.083 238.5,-46.083 231.5,-46.083"/>
</g>
<!-- Node5 -->
<g id="node5" class="node"><title>Node5</title>
<g id="a_node5"><a xlink:href="classPreferencesPanel.html" target="_top" xlink:title="A component with a set of buttons at the top for changing between pages of preferences. ">
<polygon fill="none" stroke="black" points="302,-0.5 302,-19.5 396,-19.5 396,-0.5 302,-0.5"/>
<text text-anchor="middle" x="349" y="-7.5" font-family="Helvetica,sans-Serif" font-size="10.00">PreferencesPanel</text>
</a>
</g>
</g>
<!-- Node1&#45;&gt;Node5 -->
<g id="edge4" class="edge"><title>Node1&#45;&gt;Node5</title>
<path fill="none" stroke="#8b1a1a" d="M262.242,-52.096C283.54,-42.0073 312.542,-28.2697 331.021,-19.5164"/>
<polygon fill="#8b1a1a" stroke="#8b1a1a" points="260.603,-48.9995 253.064,-56.4435 263.599,-55.3257 260.603,-48.9995"/>
</g>
<!-- Node6 -->
<g id="node6" class="node"><title>Node6</title>
<g id="a_node6"><a xlink:href="classStandaloneFilterWindow.html" target="_top" xlink:title="A class that can be used to run a simple standalone application containing your filter. ">
<polygon fill="none" stroke="black" points="414,-0.5 414,-19.5 536,-19.5 536,-0.5 414,-0.5"/>
<text text-anchor="middle" x="475" y="-7.5" font-family="Helvetica,sans-Serif" font-size="10.00">StandaloneFilterWindow</text>
</a>
</g>
</g>
<!-- Node1&#45;&gt;Node6 -->
<g id="edge5" class="edge"><title>Node1&#45;&gt;Node6</title>
<path fill="none" stroke="midnightblue" d="M282.923,-54.2172C328.274,-44.0134 395.442,-28.9006 437.149,-19.5164"/>
<polygon fill="midnightblue" stroke="midnightblue" points="282.016,-50.8337 273.029,-56.4435 283.553,-57.663 282.016,-50.8337"/>
</g>
</g>
</svg>
