<?xml version="1.0" encoding="UTF-8" standalone="no"?>
<!DOCTYPE svg PUBLIC "-//W3C//DTD SVG 1.1//EN"
 "http://www.w3.org/Graphics/SVG/1.1/DTD/svg11.dtd">
<!-- Generated by graphviz version 2.36.0 (20140111.2315)
 -->
<!-- Title: juce::KeyPressMappingSet Pages: 1 -->
<svg width="400pt" height="84pt"
 viewBox="0.00 0.00 400.00 84.00" xmlns="http://www.w3.org/2000/svg" xmlns:xlink="http://www.w3.org/1999/xlink">
<g id="graph0" class="graph" transform="scale(1 1) rotate(0) translate(4 80)">
<title>juce::KeyPressMappingSet</title>
<!-- Node1 -->
<g id="node1" class="node"><title>Node1</title>
<polygon fill="#bfbfbf" stroke="black" points="106.5,-0.5 106.5,-19.5 241.5,-19.5 241.5,-0.5 106.5,-0.5"/>
<text text-anchor="middle" x="174" y="-7.5" font-family="Helvetica,sans-Serif" font-size="10.00">juce::KeyPressMappingSet</text>
</g>
<!-- Node2 -->
<g id="node2" class="node"><title>Node2</title>
<g id="a_node2"><a xlink:href="classjuce_1_1KeyListener.html" target="_top" xlink:title="Receives callbacks when keys are pressed. ">
<polygon fill="none" stroke="black" points="0,-56.5 0,-75.5 92,-75.5 92,-56.5 0,-56.5"/>
<text text-anchor="middle" x="46" y="-63.5" font-family="Helvetica,sans-Serif" font-size="10.00">juce::KeyListener</text>
</a>
</g>
</g>
<!-- Node2&#45;&gt;Node1 -->
<g id="edge1" class="edge"><title>Node2&#45;&gt;Node1</title>
<path fill="none" stroke="midnightblue" d="M75.6226,-52.503C99.6189,-42.3795 132.784,-28.388 153.813,-19.5164"/>
<polygon fill="midnightblue" stroke="midnightblue" points="74.1352,-49.3317 66.282,-56.4435 76.8561,-55.7813 74.1352,-49.3317"/>
</g>
<!-- Node3 -->
<g id="node3" class="node"><title>Node3</title>
<g id="a_node3"><a xlink:href="classjuce_1_1ChangeBroadcaster.html" target="_top" xlink:title="Holds a list of ChangeListeners, and sends messages to them when instructed. ">
<polygon fill="none" stroke="black" points="110.5,-56.5 110.5,-75.5 237.5,-75.5 237.5,-56.5 110.5,-56.5"/>
<text text-anchor="middle" x="174" y="-63.5" font-family="Helvetica,sans-Serif" font-size="10.00">juce::ChangeBroadcaster</text>
</a>
</g>
</g>
<!-- Node3&#45;&gt;Node1 -->
<g id="edge2" class="edge"><title>Node3&#45;&gt;Node1</title>
<path fill="none" stroke="midnightblue" d="M174,-45.8045C174,-36.9102 174,-26.7798 174,-19.7511"/>
<polygon fill="midnightblue" stroke="midnightblue" points="170.5,-46.083 174,-56.083 177.5,-46.083 170.5,-46.083"/>
</g>
<!-- Node4 -->
<g id="node4" class="node"><title>Node4</title>
<g id="a_node4"><a xlink:href="classjuce_1_1FocusChangeListener.html" target="_top" xlink:title="Classes can implement this interface and register themselves with the Desktop class to receive callba...">
<polygon fill="none" stroke="black" points="256,-56.5 256,-75.5 392,-75.5 392,-56.5 256,-56.5"/>
<text text-anchor="middle" x="324" y="-63.5" font-family="Helvetica,sans-Serif" font-size="10.00">juce::FocusChangeListener</text>
</a>
</g>
</g>
<!-- Node4&#45;&gt;Node1 -->
<g id="edge3" class="edge"><title>Node4&#45;&gt;Node1</title>
<path fill="none" stroke="#8b1a1a" d="M290.775,-53.0392C262.552,-42.8786 222.738,-28.5457 197.657,-19.5164"/>
<polygon fill="#8b1a1a" stroke="#8b1a1a" points="289.638,-56.3494 300.232,-56.4435 292.009,-49.7632 289.638,-56.3494"/>
</g>
</g>
</svg>
