<?xml version="1.0" encoding="UTF-8" standalone="no"?>
<!DOCTYPE svg PUBLIC "-//W3C//DTD SVG 1.1//EN"
 "http://www.w3.org/Graphics/SVG/1.1/DTD/svg11.dtd">
<!-- Generated by graphviz version 2.36.0 (20140111.2315)
 -->
<!-- Title: juce::AudioProcessorParameterWithID Pages: 1 -->
<svg width="534pt" height="142pt"
 viewBox="0.00 0.00 534.00 142.00" xmlns="http://www.w3.org/2000/svg" xmlns:xlink="http://www.w3.org/1999/xlink">
<g id="graph0" class="graph" transform="scale(1 1) rotate(0) translate(4 138)">
<title>juce::AudioProcessorParameterWithID</title>
<!-- Node1 -->
<g id="node1" class="node"><title>Node1</title>
<polygon fill="#bfbfbf" stroke="black" points="192.5,-52 192.5,-82 347.5,-82 347.5,-52 192.5,-52"/>
<text text-anchor="start" x="200.5" y="-70" font-family="Helvetica,sans-Serif" font-size="10.00">juce::AudioProcessorParameter</text>
<text text-anchor="middle" x="270" y="-59" font-family="Helvetica,sans-Serif" font-size="10.00">WithID</text>
</g>
<!-- Node3 -->
<g id="node3" class="node"><title>Node3</title>
<g id="a_node3"><a xlink:href="classjuce_1_1AudioParameterBool.html" target="_top" xlink:title="Provides a class of AudioProcessorParameter that can be used as a boolean value. ">
<polygon fill="none" stroke="black" points="390,-114.5 390,-133.5 520,-133.5 520,-114.5 390,-114.5"/>
<text text-anchor="middle" x="455" y="-121.5" font-family="Helvetica,sans-Serif" font-size="10.00">juce::AudioParameterBool</text>
</a>
</g>
</g>
<!-- Node1&#45;&gt;Node3 -->
<g id="edge2" class="edge"><title>Node1&#45;&gt;Node3</title>
<path fill="none" stroke="midnightblue" d="M323.405,-85.3438C342.411,-91.8054 364.099,-98.9587 384,-105 394.724,-108.255 406.452,-111.544 417.19,-114.449"/>
<polygon fill="midnightblue" stroke="midnightblue" points="324.329,-81.9608 313.734,-82.0375 322.064,-88.5844 324.329,-81.9608"/>
</g>
<!-- Node4 -->
<g id="node4" class="node"><title>Node4</title>
<g id="a_node4"><a xlink:href="classjuce_1_1AudioParameterChoice.html" target="_top" xlink:title="Provides a class of AudioProcessorParameter that can be used to select an indexed, named choice from a list. ">
<polygon fill="none" stroke="black" points="384.5,-76.5 384.5,-95.5 525.5,-95.5 525.5,-76.5 384.5,-76.5"/>
<text text-anchor="middle" x="455" y="-83.5" font-family="Helvetica,sans-Serif" font-size="10.00">juce::AudioParameterChoice</text>
</a>
</g>
</g>
<!-- Node1&#45;&gt;Node4 -->
<g id="edge3" class="edge"><title>Node1&#45;&gt;Node4</title>
<path fill="none" stroke="midnightblue" d="M357.655,-75.997C366.647,-76.9305 375.701,-77.8706 384.469,-78.7809"/>
<polygon fill="midnightblue" stroke="midnightblue" points="357.856,-72.4991 347.548,-74.9476 357.133,-79.4617 357.856,-72.4991"/>
</g>
<!-- Node5 -->
<g id="node5" class="node"><title>Node5</title>
<g id="a_node5"><a xlink:href="classjuce_1_1AudioParameterFloat.html" target="_top" xlink:title="A subclass of AudioProcessorParameter that provides an easy way to create a parameter which maps onto...">
<polygon fill="none" stroke="black" points="389,-38.5 389,-57.5 521,-57.5 521,-38.5 389,-38.5"/>
<text text-anchor="middle" x="455" y="-45.5" font-family="Helvetica,sans-Serif" font-size="10.00">juce::AudioParameterFloat</text>
</a>
</g>
</g>
<!-- Node1&#45;&gt;Node5 -->
<g id="edge4" class="edge"><title>Node1&#45;&gt;Node5</title>
<path fill="none" stroke="midnightblue" d="M357.574,-58.0115C368.077,-56.921 378.667,-55.8214 388.788,-54.7706"/>
<polygon fill="midnightblue" stroke="midnightblue" points="357.133,-54.5383 347.548,-59.0524 357.856,-61.5009 357.133,-54.5383"/>
</g>
<!-- Node6 -->
<g id="node6" class="node"><title>Node6</title>
<g id="a_node6"><a xlink:href="classjuce_1_1AudioParameterInt.html" target="_top" xlink:title="Provides a class of AudioProcessorParameter that can be used as an integer value with a given range...">
<polygon fill="none" stroke="black" points="394,-0.5 394,-19.5 516,-19.5 516,-0.5 394,-0.5"/>
<text text-anchor="middle" x="455" y="-7.5" font-family="Helvetica,sans-Serif" font-size="10.00">juce::AudioParameterInt</text>
</a>
</g>
</g>
<!-- Node1&#45;&gt;Node6 -->
<g id="edge5" class="edge"><title>Node1&#45;&gt;Node6</title>
<path fill="none" stroke="midnightblue" d="M323.405,-48.6562C342.411,-42.1946 364.099,-35.0413 384,-29 394.724,-25.7446 406.452,-22.4562 417.19,-19.5514"/>
<polygon fill="midnightblue" stroke="midnightblue" points="322.064,-45.4156 313.734,-51.9625 324.329,-52.0392 322.064,-45.4156"/>
</g>
<!-- Node2 -->
<g id="node2" class="node"><title>Node2</title>
<g id="a_node2"><a xlink:href="classjuce_1_1AudioProcessorParameter.html" target="_top" xlink:title="An abstract base class for parameter objects that can be added to an AudioProcessor. ">
<polygon fill="none" stroke="black" points="0.5,-57.5 0.5,-76.5 155.5,-76.5 155.5,-57.5 0.5,-57.5"/>
<text text-anchor="middle" x="78" y="-64.5" font-family="Helvetica,sans-Serif" font-size="10.00">juce::AudioProcessorParameter</text>
</a>
</g>
</g>
<!-- Node2&#45;&gt;Node1 -->
<g id="edge1" class="edge"><title>Node2&#45;&gt;Node1</title>
<path fill="none" stroke="midnightblue" d="M165.978,-67C174.758,-67 183.629,-67 192.29,-67"/>
<polygon fill="midnightblue" stroke="midnightblue" points="165.733,-63.5001 155.733,-67 165.733,-70.5001 165.733,-63.5001"/>
</g>
</g>
</svg>
