<?xml version="1.0" encoding="UTF-8" standalone="no"?>
<!DOCTYPE svg PUBLIC "-//W3C//DTD SVG 1.1//EN"
 "http://www.w3.org/Graphics/SVG/1.1/DTD/svg11.dtd">
<!-- Generated by graphviz version 2.36.0 (20140111.2315)
 -->
<!-- Title: juce::FileBrowserComponent Pages: 1 -->
<svg width="458pt" height="256pt"
 viewBox="0.00 0.00 458.00 256.00" xmlns="http://www.w3.org/2000/svg" xmlns:xlink="http://www.w3.org/1999/xlink">
<g id="graph0" class="graph" transform="scale(1 1) rotate(0) translate(4 252)">
<title>juce::FileBrowserComponent</title>
<!-- Node1 -->
<g id="node1" class="node"><title>Node1</title>
<polygon fill="#bfbfbf" stroke="black" points="306.5,-114.5 306.5,-133.5 449.5,-133.5 449.5,-114.5 306.5,-114.5"/>
<text text-anchor="middle" x="378" y="-121.5" font-family="Helvetica,sans-Serif" font-size="10.00">juce::FileBrowserComponent</text>
</g>
<!-- Node2 -->
<g id="node2" class="node"><title>Node2</title>
<g id="a_node2"><a xlink:href="classjuce_1_1Component.html" target="_top" xlink:title="The base class for all JUCE user&#45;interface objects. ">
<polygon fill="none" stroke="black" points="159.5,-228.5 159.5,-247.5 250.5,-247.5 250.5,-228.5 159.5,-228.5"/>
<text text-anchor="middle" x="205" y="-235.5" font-family="Helvetica,sans-Serif" font-size="10.00">juce::Component</text>
</a>
</g>
</g>
<!-- Node2&#45;&gt;Node1 -->
<g id="edge1" class="edge"><title>Node2&#45;&gt;Node1</title>
<path fill="none" stroke="midnightblue" d="M257.569,-224.886C261.874,-223.137 266.076,-221.181 270,-219 312.34,-195.465 352.261,-152.664 368.881,-133.602"/>
<polygon fill="midnightblue" stroke="midnightblue" points="256.22,-221.653 248.045,-228.392 258.638,-228.222 256.22,-221.653"/>
</g>
<!-- Node3 -->
<g id="node3" class="node"><title>Node3</title>
<g id="a_node3"><a xlink:href="classjuce_1_1MouseListener.html" target="_top" xlink:title="A MouseListener can be registered with a component to receive callbacks about mouse events that happe...">
<polygon fill="none" stroke="black" points="0,-228.5 0,-247.5 104,-247.5 104,-228.5 0,-228.5"/>
<text text-anchor="middle" x="52" y="-235.5" font-family="Helvetica,sans-Serif" font-size="10.00">juce::MouseListener</text>
</a>
</g>
</g>
<!-- Node3&#45;&gt;Node2 -->
<g id="edge2" class="edge"><title>Node3&#45;&gt;Node2</title>
<path fill="none" stroke="midnightblue" d="M114.415,-238C129.507,-238 145.379,-238 159.499,-238"/>
<polygon fill="midnightblue" stroke="midnightblue" points="114.122,-234.5 104.122,-238 114.122,-241.5 114.122,-234.5"/>
</g>
<!-- Node4 -->
<g id="node4" class="node"><title>Node4</title>
<g id="a_node4"><a xlink:href="classjuce_1_1FileBrowserListener.html" target="_top" xlink:title="A listener for user selection events in a file browser. ">
<polygon fill="none" stroke="black" points="141.5,-190.5 141.5,-209.5 268.5,-209.5 268.5,-190.5 141.5,-190.5"/>
<text text-anchor="middle" x="205" y="-197.5" font-family="Helvetica,sans-Serif" font-size="10.00">juce::FileBrowserListener</text>
</a>
</g>
</g>
<!-- Node4&#45;&gt;Node1 -->
<g id="edge3" class="edge"><title>Node4&#45;&gt;Node1</title>
<path fill="none" stroke="#8b1a1a" d="M252.565,-187.376C258.497,-185.418 264.435,-183.281 270,-181 303.887,-167.109 341.14,-145.769 361.529,-133.523"/>
<polygon fill="#8b1a1a" stroke="#8b1a1a" points="251.143,-184.154 242.655,-190.495 253.244,-190.831 251.143,-184.154"/>
</g>
<!-- Node5 -->
<g id="node5" class="node"><title>Node5</title>
<g id="a_node5"><a xlink:href="classjuce_1_1TextEditor_1_1Listener.html" target="_top" xlink:title="Receives callbacks from a TextEditor component when it changes. ">
<polygon fill="none" stroke="black" points="142,-152.5 142,-171.5 268,-171.5 268,-152.5 142,-152.5"/>
<text text-anchor="middle" x="205" y="-159.5" font-family="Helvetica,sans-Serif" font-size="10.00">juce::TextEditor::Listener</text>
</a>
</g>
</g>
<!-- Node5&#45;&gt;Node1 -->
<g id="edge4" class="edge"><title>Node5&#45;&gt;Node1</title>
<path fill="none" stroke="#8b1a1a" d="M259.209,-150.176C283.317,-144.818 311.44,-138.569 334.16,-133.52"/>
<polygon fill="#8b1a1a" stroke="#8b1a1a" points="258.153,-146.825 249.151,-152.411 259.672,-153.658 258.153,-146.825"/>
</g>
<!-- Node6 -->
<g id="node6" class="node"><title>Node6</title>
<g id="a_node6"><a xlink:href="classjuce_1_1Button_1_1Listener.html" target="_top" xlink:title="Used to receive callbacks when a button is clicked. ">
<polygon fill="none" stroke="black" points="150,-114.5 150,-133.5 260,-133.5 260,-114.5 150,-114.5"/>
<text text-anchor="middle" x="205" y="-121.5" font-family="Helvetica,sans-Serif" font-size="10.00">juce::Button::Listener</text>
</a>
</g>
</g>
<!-- Node6&#45;&gt;Node1 -->
<g id="edge5" class="edge"><title>Node6&#45;&gt;Node1</title>
<path fill="none" stroke="#8b1a1a" d="M270.278,-124C282.048,-124 294.392,-124 306.337,-124"/>
<polygon fill="#8b1a1a" stroke="#8b1a1a" points="270.106,-120.5 260.105,-124 270.105,-127.5 270.106,-120.5"/>
</g>
<!-- Node7 -->
<g id="node7" class="node"><title>Node7</title>
<g id="a_node7"><a xlink:href="classjuce_1_1ComboBox_1_1Listener.html" target="_top" xlink:title="A class for receiving events from a ComboBox. ">
<polygon fill="none" stroke="black" points="140,-76.5 140,-95.5 270,-95.5 270,-76.5 140,-76.5"/>
<text text-anchor="middle" x="205" y="-83.5" font-family="Helvetica,sans-Serif" font-size="10.00">juce::ComboBox::Listener</text>
</a>
</g>
</g>
<!-- Node7&#45;&gt;Node1 -->
<g id="edge6" class="edge"><title>Node7&#45;&gt;Node1</title>
<path fill="none" stroke="#8b1a1a" d="M259.209,-97.8243C283.317,-103.182 311.44,-109.431 334.16,-114.48"/>
<polygon fill="#8b1a1a" stroke="#8b1a1a" points="259.672,-94.3417 249.151,-95.589 258.153,-101.175 259.672,-94.3417"/>
</g>
<!-- Node8 -->
<g id="node8" class="node"><title>Node8</title>
<g id="a_node8"><a xlink:href="classjuce_1_1FileFilter.html" target="_top" xlink:title="Interface for deciding which files are suitable for something. ">
<polygon fill="none" stroke="black" points="166,-38.5 166,-57.5 244,-57.5 244,-38.5 166,-38.5"/>
<text text-anchor="middle" x="205" y="-45.5" font-family="Helvetica,sans-Serif" font-size="10.00">juce::FileFilter</text>
</a>
</g>
</g>
<!-- Node8&#45;&gt;Node1 -->
<g id="edge7" class="edge"><title>Node8&#45;&gt;Node1</title>
<path fill="none" stroke="#8b1a1a" d="M252.565,-60.6242C258.497,-62.5818 264.435,-64.7188 270,-67 303.887,-80.8908 341.14,-102.231 361.529,-114.477"/>
<polygon fill="#8b1a1a" stroke="#8b1a1a" points="253.244,-57.1689 242.655,-57.5053 251.143,-63.846 253.244,-57.1689"/>
</g>
<!-- Node9 -->
<g id="node9" class="node"><title>Node9</title>
<g id="a_node9"><a xlink:href="classjuce_1_1Timer.html" target="_top" xlink:title="Makes repeated callbacks to a virtual method at a specified time interval. ">
<polygon fill="none" stroke="black" points="172.5,-0.5 172.5,-19.5 237.5,-19.5 237.5,-0.5 172.5,-0.5"/>
<text text-anchor="middle" x="205" y="-7.5" font-family="Helvetica,sans-Serif" font-size="10.00">juce::Timer</text>
</a>
</g>
</g>
<!-- Node9&#45;&gt;Node1 -->
<g id="edge8" class="edge"><title>Node9&#45;&gt;Node1</title>
<path fill="none" stroke="#8b1a1a" d="M247.4,-19.394C255.16,-21.9519 263.019,-25.1198 270,-29 312.34,-52.5346 352.261,-95.3362 368.881,-114.398"/>
<polygon fill="#8b1a1a" stroke="#8b1a1a" points="248.283,-16.0046 237.699,-16.4724 246.265,-22.7073 248.283,-16.0046"/>
</g>
</g>
</svg>
