<?xml version="1.0" encoding="UTF-8" standalone="no"?>
<!DOCTYPE svg PUBLIC "-//W3C//DTD SVG 1.1//EN"
 "http://www.w3.org/Graphics/SVG/1.1/DTD/svg11.dtd">
<!-- Generated by graphviz version 2.36.0 (20140111.2315)
 -->
<!-- Title: juce::Viewport Pages: 1 -->
<svg width="387pt" height="140pt"
 viewBox="0.00 0.00 387.00 140.00" xmlns="http://www.w3.org/2000/svg" xmlns:xlink="http://www.w3.org/1999/xlink">
<g id="graph0" class="graph" transform="scale(1 1) rotate(0) translate(4 136)">
<title>juce::Viewport</title>
<!-- Node1 -->
<g id="node1" class="node"><title>Node1</title>
<polygon fill="#bfbfbf" stroke="black" points="138.5,-0.5 138.5,-19.5 217.5,-19.5 217.5,-0.5 138.5,-0.5"/>
<text text-anchor="middle" x="178" y="-7.5" font-family="Helvetica,sans-Serif" font-size="10.00">juce::Viewport</text>
</g>
<!-- Node2 -->
<g id="node2" class="node"><title>Node2</title>
<g id="a_node2"><a xlink:href="classjuce_1_1Component.html" target="_top" xlink:title="The base class for all JUCE user&#45;interface objects. ">
<polygon fill="none" stroke="black" points="6.5,-56.5 6.5,-75.5 97.5,-75.5 97.5,-56.5 6.5,-56.5"/>
<text text-anchor="middle" x="52" y="-63.5" font-family="Helvetica,sans-Serif" font-size="10.00">juce::Component</text>
</a>
</g>
</g>
<!-- Node2&#45;&gt;Node1 -->
<g id="edge1" class="edge"><title>Node2&#45;&gt;Node1</title>
<path fill="none" stroke="midnightblue" d="M81.1597,-52.503C104.781,-42.3795 137.428,-28.388 158.128,-19.5164"/>
<polygon fill="midnightblue" stroke="midnightblue" points="79.7778,-49.2873 71.9651,-56.4435 82.5353,-55.7213 79.7778,-49.2873"/>
</g>
<!-- Node3 -->
<g id="node3" class="node"><title>Node3</title>
<g id="a_node3"><a xlink:href="classjuce_1_1MouseListener.html" target="_top" xlink:title="A MouseListener can be registered with a component to receive callbacks about mouse events that happe...">
<polygon fill="none" stroke="black" points="0,-112.5 0,-131.5 104,-131.5 104,-112.5 0,-112.5"/>
<text text-anchor="middle" x="52" y="-119.5" font-family="Helvetica,sans-Serif" font-size="10.00">juce::MouseListener</text>
</a>
</g>
</g>
<!-- Node3&#45;&gt;Node2 -->
<g id="edge2" class="edge"><title>Node3&#45;&gt;Node2</title>
<path fill="none" stroke="midnightblue" d="M52,-101.805C52,-92.9102 52,-82.7798 52,-75.7511"/>
<polygon fill="midnightblue" stroke="midnightblue" points="48.5001,-102.083 52,-112.083 55.5001,-102.083 48.5001,-102.083"/>
</g>
<!-- Node4 -->
<g id="node4" class="node"><title>Node4</title>
<g id="a_node4"><a xlink:href="classjuce_1_1ComponentListener.html" target="_top" xlink:title="Gets informed about changes to a component&#39;s hierarchy or position. ">
<polygon fill="none" stroke="black" points="115.5,-56.5 115.5,-75.5 240.5,-75.5 240.5,-56.5 115.5,-56.5"/>
<text text-anchor="middle" x="178" y="-63.5" font-family="Helvetica,sans-Serif" font-size="10.00">juce::ComponentListener</text>
</a>
</g>
</g>
<!-- Node4&#45;&gt;Node1 -->
<g id="edge3" class="edge"><title>Node4&#45;&gt;Node1</title>
<path fill="none" stroke="#8b1a1a" d="M178,-45.8045C178,-36.9102 178,-26.7798 178,-19.7511"/>
<polygon fill="#8b1a1a" stroke="#8b1a1a" points="174.5,-46.083 178,-56.083 181.5,-46.083 174.5,-46.083"/>
</g>
<!-- Node5 -->
<g id="node5" class="node"><title>Node5</title>
<g id="a_node5"><a xlink:href="classjuce_1_1ScrollBar_1_1Listener.html" target="_top" xlink:title="A class for receiving events from a ScrollBar. ">
<polygon fill="none" stroke="black" points="258.5,-56.5 258.5,-75.5 379.5,-75.5 379.5,-56.5 258.5,-56.5"/>
<text text-anchor="middle" x="319" y="-63.5" font-family="Helvetica,sans-Serif" font-size="10.00">juce::ScrollBar::Listener</text>
</a>
</g>
</g>
<!-- Node5&#45;&gt;Node1 -->
<g id="edge4" class="edge"><title>Node5&#45;&gt;Node1</title>
<path fill="none" stroke="#8b1a1a" d="M287.071,-52.772C260.586,-42.6287 223.608,-28.4669 200.237,-19.5164"/>
<polygon fill="#8b1a1a" stroke="#8b1a1a" points="286.068,-56.1355 296.658,-56.4435 288.571,-49.5985 286.068,-56.1355"/>
</g>
</g>
</svg>
