<?xml version="1.0" encoding="UTF-8" standalone="no"?>
<!DOCTYPE svg PUBLIC "-//W3C//DTD SVG 1.1//EN"
 "http://www.w3.org/Graphics/SVG/1.1/DTD/svg11.dtd">
<!-- Generated by graphviz version 2.36.0 (20140111.2315)
 -->
<!-- Title: PreferencesPanel Pages: 1 -->
<svg width="186pt" height="140pt"
 viewBox="0.00 0.00 186.00 140.00" xmlns="http://www.w3.org/2000/svg" xmlns:xlink="http://www.w3.org/1999/xlink">
<g id="graph0" class="graph" transform="scale(1 1) rotate(0) translate(4 136)">
<title>PreferencesPanel</title>
<!-- Node1 -->
<g id="node1" class="node"><title>Node1</title>
<polygon fill="#bfbfbf" stroke="black" points="40,-0.5 40,-19.5 134,-19.5 134,-0.5 40,-0.5"/>
<text text-anchor="middle" x="87" y="-7.5" font-family="Helvetica,sans-Serif" font-size="10.00">PreferencesPanel</text>
</g>
<!-- Node2 -->
<g id="node2" class="node"><title>Node2</title>
<g id="a_node2"><a xlink:href="classComponent.html" target="_top" xlink:title="The base class for all JUCE user&#45;interface objects. ">
<polygon fill="none" stroke="black" points="6.5,-56.5 6.5,-75.5 73.5,-75.5 73.5,-56.5 6.5,-56.5"/>
<text text-anchor="middle" x="40" y="-63.5" font-family="Helvetica,sans-Serif" font-size="10.00">Component</text>
</a>
</g>
</g>
<!-- Node2&#45;&gt;Node1 -->
<g id="edge1" class="edge"><title>Node2&#45;&gt;Node1</title>
<path fill="none" stroke="midnightblue" d="M54.4208,-48.4314C62.6581,-38.9673 72.6539,-27.4827 79.3833,-19.7511"/>
<polygon fill="midnightblue" stroke="midnightblue" points="51.6863,-46.2421 47.7611,-56.083 56.9664,-50.8378 51.6863,-46.2421"/>
</g>
<!-- Node3 -->
<g id="node3" class="node"><title>Node3</title>
<g id="a_node3"><a xlink:href="classMouseListener.html" target="_top" xlink:title="A MouseListener can be registered with a component to receive callbacks about mouse events that happe...">
<polygon fill="none" stroke="black" points="0,-112.5 0,-131.5 80,-131.5 80,-112.5 0,-112.5"/>
<text text-anchor="middle" x="40" y="-119.5" font-family="Helvetica,sans-Serif" font-size="10.00">MouseListener</text>
</a>
</g>
</g>
<!-- Node3&#45;&gt;Node2 -->
<g id="edge2" class="edge"><title>Node3&#45;&gt;Node2</title>
<path fill="none" stroke="midnightblue" d="M40,-101.805C40,-92.9102 40,-82.7798 40,-75.7511"/>
<polygon fill="midnightblue" stroke="midnightblue" points="36.5001,-102.083 40,-112.083 43.5001,-102.083 36.5001,-102.083"/>
</g>
<!-- Node4 -->
<g id="node4" class="node"><title>Node4</title>
<g id="a_node4"><a xlink:href="classButton_1_1Listener.html" target="_top" xlink:title="Used to receive callbacks when a button is clicked. ">
<polygon fill="none" stroke="black" points="92,-56.5 92,-75.5 178,-75.5 178,-56.5 92,-56.5"/>
<text text-anchor="middle" x="135" y="-63.5" font-family="Helvetica,sans-Serif" font-size="10.00">Button::Listener</text>
</a>
</g>
</g>
<!-- Node4&#45;&gt;Node1 -->
<g id="edge3" class="edge"><title>Node4&#45;&gt;Node1</title>
<path fill="none" stroke="#8b1a1a" d="M120.272,-48.4314C111.86,-38.9673 101.651,-27.4827 94.7787,-19.7511"/>
<polygon fill="#8b1a1a" stroke="#8b1a1a" points="117.814,-50.9342 127.074,-56.083 123.046,-46.2836 117.814,-50.9342"/>
</g>
</g>
</svg>
