<?xml version="1.0" encoding="UTF-8" standalone="no"?>
<!DOCTYPE svg PUBLIC "-//W3C//DTD SVG 1.1//EN"
 "http://www.w3.org/Graphics/SVG/1.1/DTD/svg11.dtd">
<!-- Generated by graphviz version 2.36.0 (20140111.2315)
 -->
<!-- Title: juce::FileListComponent Pages: 1 -->
<svg width="628pt" height="173pt"
 viewBox="0.00 0.00 628.00 173.00" xmlns="http://www.w3.org/2000/svg" xmlns:xlink="http://www.w3.org/1999/xlink">
<g id="graph0" class="graph" transform="scale(1 1) rotate(0) translate(4 169)">
<title>juce::FileListComponent</title>
<!-- Node1 -->
<g id="node1" class="node"><title>Node1</title>
<polygon fill="#bfbfbf" stroke="black" points="498,-60.5 498,-79.5 620,-79.5 620,-60.5 498,-60.5"/>
<text text-anchor="middle" x="559" y="-67.5" font-family="Helvetica,sans-Serif" font-size="10.00">juce::FileListComponent</text>
</g>
<!-- Node2 -->
<g id="node2" class="node"><title>Node2</title>
<g id="a_node2"><a xlink:href="classjuce_1_1ListBox.html" target="_top" xlink:title="A list of items that can be scrolled vertically. ">
<polygon fill="none" stroke="black" points="348,-126.5 348,-145.5 422,-145.5 422,-126.5 348,-126.5"/>
<text text-anchor="middle" x="385" y="-133.5" font-family="Helvetica,sans-Serif" font-size="10.00">juce::ListBox</text>
</a>
</g>
</g>
<!-- Node2&#45;&gt;Node1 -->
<g id="edge1" class="edge"><title>Node2&#45;&gt;Node1</title>
<path fill="none" stroke="midnightblue" d="M431.848,-125.436C441.895,-122.707 452.395,-119.529 462,-116 490.45,-105.548 521.847,-89.609 540.739,-79.503"/>
<polygon fill="midnightblue" stroke="midnightblue" points="430.791,-122.095 422.003,-128.013 432.563,-128.867 430.791,-122.095"/>
</g>
<!-- Node3 -->
<g id="node3" class="node"><title>Node3</title>
<g id="a_node3"><a xlink:href="classjuce_1_1Component.html" target="_top" xlink:title="The base class for all JUCE user&#45;interface objects. ">
<polygon fill="none" stroke="black" points="160.5,-145.5 160.5,-164.5 251.5,-164.5 251.5,-145.5 160.5,-145.5"/>
<text text-anchor="middle" x="206" y="-152.5" font-family="Helvetica,sans-Serif" font-size="10.00">juce::Component</text>
</a>
</g>
</g>
<!-- Node3&#45;&gt;Node2 -->
<g id="edge2" class="edge"><title>Node3&#45;&gt;Node2</title>
<path fill="none" stroke="midnightblue" d="M261.736,-149.124C289.797,-146.112 323.185,-142.528 347.975,-139.867"/>
<polygon fill="midnightblue" stroke="midnightblue" points="261.234,-145.658 251.665,-150.205 261.981,-152.618 261.234,-145.658"/>
</g>
<!-- Node4 -->
<g id="node4" class="node"><title>Node4</title>
<g id="a_node4"><a xlink:href="classjuce_1_1MouseListener.html" target="_top" xlink:title="A MouseListener can be registered with a component to receive callbacks about mouse events that happe...">
<polygon fill="none" stroke="black" points="0,-145.5 0,-164.5 104,-164.5 104,-145.5 0,-145.5"/>
<text text-anchor="middle" x="52" y="-152.5" font-family="Helvetica,sans-Serif" font-size="10.00">juce::MouseListener</text>
</a>
</g>
</g>
<!-- Node4&#45;&gt;Node3 -->
<g id="edge3" class="edge"><title>Node4&#45;&gt;Node3</title>
<path fill="none" stroke="midnightblue" d="M114.074,-155C129.582,-155 145.952,-155 160.464,-155"/>
<polygon fill="midnightblue" stroke="midnightblue" points="114.037,-151.5 104.037,-155 114.037,-158.5 114.037,-151.5"/>
</g>
<!-- Node5 -->
<g id="node5" class="node"><title>Node5</title>
<g id="a_node5"><a xlink:href="classjuce_1_1SettableTooltipClient.html" target="_top" xlink:title="An implementation of TooltipClient that stores the tooltip string and a method for changing it...">
<polygon fill="none" stroke="black" points="140.5,-107.5 140.5,-126.5 271.5,-126.5 271.5,-107.5 140.5,-107.5"/>
<text text-anchor="middle" x="206" y="-114.5" font-family="Helvetica,sans-Serif" font-size="10.00">juce::SettableTooltipClient</text>
</a>
</g>
</g>
<!-- Node5&#45;&gt;Node2 -->
<g id="edge4" class="edge"><title>Node5&#45;&gt;Node2</title>
<path fill="none" stroke="midnightblue" d="M281.706,-125.019C304.584,-127.475 328.722,-130.066 347.803,-132.114"/>
<polygon fill="midnightblue" stroke="midnightblue" points="281.969,-121.527 271.652,-123.94 281.222,-128.487 281.969,-121.527"/>
</g>
<!-- Node6 -->
<g id="node6" class="node"><title>Node6</title>
<g id="a_node6"><a xlink:href="classjuce_1_1TooltipClient.html" target="_top" xlink:title="Components that want to use pop&#45;up tooltips should implement this interface. ">
<polygon fill="none" stroke="black" points="4.5,-107.5 4.5,-126.5 99.5,-126.5 99.5,-107.5 4.5,-107.5"/>
<text text-anchor="middle" x="52" y="-114.5" font-family="Helvetica,sans-Serif" font-size="10.00">juce::TooltipClient</text>
</a>
</g>
</g>
<!-- Node6&#45;&gt;Node5 -->
<g id="edge5" class="edge"><title>Node6&#45;&gt;Node5</title>
<path fill="none" stroke="midnightblue" d="M109.992,-117C119.919,-117 130.309,-117 140.422,-117"/>
<polygon fill="midnightblue" stroke="midnightblue" points="109.845,-113.5 99.8453,-117 109.845,-120.5 109.845,-113.5"/>
</g>
<!-- Node7 -->
<g id="node7" class="node"><title>Node7</title>
<g id="a_node7"><a xlink:href="classjuce_1_1DirectoryContentsDisplayComponent.html" target="_top" xlink:title="A base class for components that display a list of the files in a directory. ">
<polygon fill="none" stroke="black" points="308.5,-77 308.5,-107 461.5,-107 461.5,-77 308.5,-77"/>
<text text-anchor="start" x="316.5" y="-95" font-family="Helvetica,sans-Serif" font-size="10.00">juce::DirectoryContentsDisplay</text>
<text text-anchor="middle" x="385" y="-84" font-family="Helvetica,sans-Serif" font-size="10.00">Component</text>
</a>
</g>
</g>
<!-- Node7&#45;&gt;Node1 -->
<g id="edge6" class="edge"><title>Node7&#45;&gt;Node1</title>
<path fill="none" stroke="midnightblue" d="M471.641,-81.0459C480.472,-79.9163 489.309,-78.7861 497.778,-77.7029"/>
<polygon fill="midnightblue" stroke="midnightblue" points="471.167,-77.5779 461.692,-82.3185 472.055,-84.5214 471.167,-77.5779"/>
</g>
<!-- Node8 -->
<g id="node8" class="node"><title>Node8</title>
<g id="a_node8"><a xlink:href="classjuce_1_1ListBoxModel.html" target="_top" xlink:title="A subclass of this is used to drive a ListBox. ">
<polygon fill="none" stroke="black" points="335,-38.5 335,-57.5 435,-57.5 435,-38.5 335,-38.5"/>
<text text-anchor="middle" x="385" y="-45.5" font-family="Helvetica,sans-Serif" font-size="10.00">juce::ListBoxModel</text>
</a>
</g>
</g>
<!-- Node8&#45;&gt;Node1 -->
<g id="edge7" class="edge"><title>Node8&#45;&gt;Node1</title>
<path fill="none" stroke="#8b1a1a" d="M445.568,-55.6191C462.431,-57.7761 480.797,-60.1252 497.703,-62.2876"/>
<polygon fill="#8b1a1a" stroke="#8b1a1a" points="445.652,-52.1014 435.288,-54.3043 444.763,-59.0449 445.652,-52.1014"/>
</g>
<!-- Node9 -->
<g id="node9" class="node"><title>Node9</title>
<g id="a_node9"><a xlink:href="classjuce_1_1ChangeListener.html" target="_top" xlink:title="Receives change event callbacks that are sent out by a ChangeBroadcaster. ">
<polygon fill="none" stroke="black" points="330.5,-0.5 330.5,-19.5 439.5,-19.5 439.5,-0.5 330.5,-0.5"/>
<text text-anchor="middle" x="385" y="-7.5" font-family="Helvetica,sans-Serif" font-size="10.00">juce::ChangeListener</text>
</a>
</g>
</g>
<!-- Node9&#45;&gt;Node1 -->
<g id="edge8" class="edge"><title>Node9&#45;&gt;Node1</title>
<path fill="none" stroke="#8b1a1a" d="M439.073,-22.1207C446.821,-24.2213 454.658,-26.5318 462,-29 488.97,-38.0666 518.967,-51.4331 538.134,-60.4154"/>
<polygon fill="#8b1a1a" stroke="#8b1a1a" points="439.911,-18.7221 429.35,-19.576 438.138,-25.494 439.911,-18.7221"/>
</g>
</g>
</svg>
