<?xml version="1.0" encoding="UTF-8" standalone="no"?>
<!DOCTYPE svg PUBLIC "-//W3C//DTD SVG 1.1//EN"
 "http://www.w3.org/Graphics/SVG/1.1/DTD/svg11.dtd">
<!-- Generated by graphviz version 2.36.0 (20140111.2315)
 -->
<!-- Title: TextEditor::Listener Pages: 1 -->
<svg width="185pt" height="84pt"
 viewBox="0.00 0.00 185.00 84.00" xmlns="http://www.w3.org/2000/svg" xmlns:xlink="http://www.w3.org/1999/xlink">
<g id="graph0" class="graph" transform="scale(1 1) rotate(0) translate(4 80)">
<title>TextEditor::Listener</title>
<!-- Node1 -->
<g id="node1" class="node"><title>Node1</title>
<polygon fill="#bfbfbf" stroke="black" points="57,-56.5 57,-75.5 159,-75.5 159,-56.5 57,-56.5"/>
<text text-anchor="middle" x="108" y="-63.5" font-family="Helvetica,sans-Serif" font-size="10.00">TextEditor::Listener</text>
</g>
<!-- Node2 -->
<g id="node2" class="node"><title>Node2</title>
<g id="a_node2"><a xlink:href="classFileBrowserComponent.html" target="_top" xlink:title="A component for browsing and selecting a file or directory to open or save. ">
<polygon fill="none" stroke="black" points="-0.5,-0.5 -0.5,-19.5 118.5,-19.5 118.5,-0.5 -0.5,-0.5"/>
<text text-anchor="middle" x="59" y="-7.5" font-family="Helvetica,sans-Serif" font-size="10.00">FileBrowserComponent</text>
</a>
</g>
</g>
<!-- Node1&#45;&gt;Node2 -->
<g id="edge1" class="edge"><title>Node1&#45;&gt;Node2</title>
<path fill="none" stroke="#8b1a1a" d="M92.9655,-48.4314C84.3778,-38.9673 73.9565,-27.4827 66.9408,-19.7511"/>
<polygon fill="#8b1a1a" stroke="#8b1a1a" points="90.5967,-51.0293 99.9086,-56.083 95.7807,-46.3254 90.5967,-51.0293"/>
</g>
<!-- Node3 -->
<g id="node3" class="node"><title>Node3</title>
<g id="a_node3"><a xlink:href="classLabel.html" target="_top" xlink:title="A component that displays a text string, and can optionally become a text editor when clicked...">
<polygon fill="none" stroke="black" points="137,-0.5 137,-19.5 177,-19.5 177,-0.5 137,-0.5"/>
<text text-anchor="middle" x="157" y="-7.5" font-family="Helvetica,sans-Serif" font-size="10.00">Label</text>
</a>
</g>
</g>
<!-- Node1&#45;&gt;Node3 -->
<g id="edge2" class="edge"><title>Node1&#45;&gt;Node3</title>
<path fill="none" stroke="darkgreen" d="M123.034,-48.4314C131.622,-38.9673 142.043,-27.4827 149.059,-19.7511"/>
<polygon fill="darkgreen" stroke="darkgreen" points="120.219,-46.3254 116.091,-56.083 125.403,-51.0293 120.219,-46.3254"/>
</g>
</g>
</svg>
