<?xml version="1.0" encoding="UTF-8" standalone="no"?>
<!DOCTYPE svg PUBLIC "-//W3C//DTD SVG 1.1//EN"
 "http://www.w3.org/Graphics/SVG/1.1/DTD/svg11.dtd">
<!-- Generated by graphviz version 2.36.0 (20140111.2315)
 -->
<!-- Title: juce::AudioThumbnailBase Pages: 1 -->
<svg width="480pt" height="87pt"
 viewBox="0.00 0.00 480.00 87.00" xmlns="http://www.w3.org/2000/svg" xmlns:xlink="http://www.w3.org/1999/xlink">
<g id="graph0" class="graph" transform="scale(1 1) rotate(0) translate(4 83)">
<title>juce::AudioThumbnailBase</title>
<!-- Node1 -->
<g id="node1" class="node"><title>Node1</title>
<polygon fill="#bfbfbf" stroke="black" points="192.5,-34.5 192.5,-53.5 325.5,-53.5 325.5,-34.5 192.5,-34.5"/>
<text text-anchor="middle" x="259" y="-41.5" font-family="Helvetica,sans-Serif" font-size="10.00">juce::AudioThumbnailBase</text>
</g>
<!-- Node4 -->
<g id="node4" class="node"><title>Node4</title>
<g id="a_node4"><a xlink:href="classjuce_1_1AudioThumbnail.html" target="_top" xlink:title="Makes it easy to quickly draw scaled views of the waveform shape of an audio file. ">
<polygon fill="none" stroke="black" points="362,-34.5 362,-53.5 472,-53.5 472,-34.5 362,-34.5"/>
<text text-anchor="middle" x="417" y="-41.5" font-family="Helvetica,sans-Serif" font-size="10.00">juce::AudioThumbnail</text>
</a>
</g>
</g>
<!-- Node1&#45;&gt;Node4 -->
<g id="edge3" class="edge"><title>Node1&#45;&gt;Node4</title>
<path fill="none" stroke="midnightblue" d="M335.891,-44C344.604,-44 353.351,-44 361.699,-44"/>
<polygon fill="midnightblue" stroke="midnightblue" points="335.706,-40.5001 325.706,-44 335.706,-47.5001 335.706,-40.5001"/>
</g>
<!-- Node2 -->
<g id="node2" class="node"><title>Node2</title>
<g id="a_node2"><a xlink:href="classjuce_1_1ChangeBroadcaster.html" target="_top" xlink:title="Holds a list of ChangeListeners, and sends messages to them when instructed. ">
<polygon fill="none" stroke="black" points="14.5,-59.5 14.5,-78.5 141.5,-78.5 141.5,-59.5 14.5,-59.5"/>
<text text-anchor="middle" x="78" y="-66.5" font-family="Helvetica,sans-Serif" font-size="10.00">juce::ChangeBroadcaster</text>
</a>
</g>
</g>
<!-- Node2&#45;&gt;Node1 -->
<g id="edge1" class="edge"><title>Node2&#45;&gt;Node1</title>
<path fill="none" stroke="midnightblue" d="M151.763,-58.8375C165.208,-56.9598 179.174,-55.0092 192.391,-53.1632"/>
<polygon fill="midnightblue" stroke="midnightblue" points="151.025,-55.4066 141.606,-60.2562 151.994,-62.3393 151.025,-55.4066"/>
</g>
<!-- Node3 -->
<g id="node3" class="node"><title>Node3</title>
<g id="a_node3"><a xlink:href="classjuce_1_1AudioFormatWriter_1_1ThreadedWriter_1_1IncomingDataReceiver.html" target="_top" xlink:title="juce::AudioFormatWriter\l::ThreadedWriter::IncomingData\lReceiver">
<polygon fill="none" stroke="black" points="0,0.5 0,-40.5 156,-40.5 156,0.5 0,0.5"/>
<text text-anchor="start" x="8" y="-28.5" font-family="Helvetica,sans-Serif" font-size="10.00">juce::AudioFormatWriter</text>
<text text-anchor="start" x="8" y="-17.5" font-family="Helvetica,sans-Serif" font-size="10.00">::ThreadedWriter::IncomingData</text>
<text text-anchor="middle" x="78" y="-6.5" font-family="Helvetica,sans-Serif" font-size="10.00">Receiver</text>
</a>
</g>
</g>
<!-- Node3&#45;&gt;Node1 -->
<g id="edge2" class="edge"><title>Node3&#45;&gt;Node1</title>
<path fill="none" stroke="midnightblue" d="M166.402,-31.7187C175.11,-32.8863 183.845,-34.0575 192.277,-35.1879"/>
<polygon fill="midnightblue" stroke="midnightblue" points="166.587,-28.2123 156.211,-30.3523 165.657,-35.1502 166.587,-28.2123"/>
</g>
</g>
</svg>
