<?xml version="1.0" encoding="UTF-8" standalone="no"?>
<!DOCTYPE svg PUBLIC "-//W3C//DTD SVG 1.1//EN"
 "http://www.w3.org/Graphics/SVG/1.1/DTD/svg11.dtd">
<!-- Generated by graphviz version 2.36.0 (20140111.2315)
 -->
<!-- Title: juce::MenuBarComponent Pages: 1 -->
<svg width="313pt" height="152pt"
 viewBox="0.00 0.00 313.00 152.00" xmlns="http://www.w3.org/2000/svg" xmlns:xlink="http://www.w3.org/1999/xlink">
<g id="graph0" class="graph" transform="scale(1 1) rotate(0) translate(4 148)">
<title>juce::MenuBarComponent</title>
<!-- Node1 -->
<g id="node1" class="node"><title>Node1</title>
<polygon fill="#bfbfbf" stroke="black" points="104,-0.5 104,-19.5 234,-19.5 234,-0.5 104,-0.5"/>
<text text-anchor="middle" x="169" y="-7.5" font-family="Helvetica,sans-Serif" font-size="10.00">juce::MenuBarComponent</text>
</g>
<!-- Node2 -->
<g id="node2" class="node"><title>Node2</title>
<g id="a_node2"><a xlink:href="classjuce_1_1Component.html" target="_top" xlink:title="The base class for all JUCE user&#45;interface objects. ">
<polygon fill="none" stroke="black" points="6.5,-62.5 6.5,-81.5 97.5,-81.5 97.5,-62.5 6.5,-62.5"/>
<text text-anchor="middle" x="52" y="-69.5" font-family="Helvetica,sans-Serif" font-size="10.00">juce::Component</text>
</a>
</g>
</g>
<!-- Node2&#45;&gt;Node1 -->
<g id="edge1" class="edge"><title>Node2&#45;&gt;Node1</title>
<path fill="none" stroke="midnightblue" d="M77.8255,-57.7561C100.501,-46.1274 132.82,-29.5538 152.268,-19.5806"/>
<polygon fill="midnightblue" stroke="midnightblue" points="76.0643,-54.7259 68.7632,-62.4035 79.2586,-60.9546 76.0643,-54.7259"/>
</g>
<!-- Node3 -->
<g id="node3" class="node"><title>Node3</title>
<g id="a_node3"><a xlink:href="classjuce_1_1MouseListener.html" target="_top" xlink:title="A MouseListener can be registered with a component to receive callbacks about mouse events that happe...">
<polygon fill="none" stroke="black" points="0,-124.5 0,-143.5 104,-143.5 104,-124.5 0,-124.5"/>
<text text-anchor="middle" x="52" y="-131.5" font-family="Helvetica,sans-Serif" font-size="10.00">juce::MouseListener</text>
</a>
</g>
</g>
<!-- Node3&#45;&gt;Node2 -->
<g id="edge2" class="edge"><title>Node3&#45;&gt;Node2</title>
<path fill="none" stroke="midnightblue" d="M52,-114.16C52,-103.248 52,-90.04 52,-81.5806"/>
<polygon fill="midnightblue" stroke="midnightblue" points="48.5001,-114.403 52,-124.403 55.5001,-114.403 48.5001,-114.403"/>
</g>
<!-- Node4 -->
<g id="node4" class="node"><title>Node4</title>
<g id="a_node4"><a xlink:href="classjuce_1_1MenuBarModel_1_1Listener.html" target="_top" xlink:title="A class to receive callbacks when a MenuBarModel changes. ">
<polygon fill="none" stroke="black" points="116,-57 116,-87 222,-87 222,-57 116,-57"/>
<text text-anchor="start" x="124" y="-75" font-family="Helvetica,sans-Serif" font-size="10.00">juce::MenuBarModel</text>
<text text-anchor="middle" x="169" y="-64" font-family="Helvetica,sans-Serif" font-size="10.00">::Listener</text>
</a>
</g>
</g>
<!-- Node4&#45;&gt;Node1 -->
<g id="edge3" class="edge"><title>Node4&#45;&gt;Node1</title>
<path fill="none" stroke="#8b1a1a" d="M169,-46.5858C169,-37.0743 169,-26.7864 169,-19.7305"/>
<polygon fill="#8b1a1a" stroke="#8b1a1a" points="165.5,-46.7808 169,-56.7808 172.5,-46.7809 165.5,-46.7808"/>
</g>
<!-- Node5 -->
<g id="node5" class="node"><title>Node5</title>
<g id="a_node5"><a xlink:href="classjuce_1_1Timer.html" target="_top" xlink:title="Makes repeated callbacks to a virtual method at a specified time interval. ">
<polygon fill="none" stroke="black" points="240.5,-62.5 240.5,-81.5 305.5,-81.5 305.5,-62.5 240.5,-62.5"/>
<text text-anchor="middle" x="273" y="-69.5" font-family="Helvetica,sans-Serif" font-size="10.00">juce::Timer</text>
</a>
</g>
</g>
<!-- Node5&#45;&gt;Node1 -->
<g id="edge4" class="edge"><title>Node5&#45;&gt;Node1</title>
<path fill="none" stroke="#8b1a1a" d="M249.23,-57.2863C229.12,-45.6847 200.928,-29.4202 183.873,-19.5806"/>
<polygon fill="#8b1a1a" stroke="#8b1a1a" points="247.688,-60.4378 258.099,-62.4035 251.187,-54.3745 247.688,-60.4378"/>
</g>
</g>
</svg>
