<?xml version="1.0" encoding="UTF-8" standalone="no"?>
<!DOCTYPE svg PUBLIC "-//W3C//DTD SVG 1.1//EN"
 "http://www.w3.org/Graphics/SVG/1.1/DTD/svg11.dtd">
<!-- Generated by graphviz version 2.36.0 (20140111.2315)
 -->
<!-- Title: juce::ResizableWindow Pages: 1 -->
<svg width="426pt" height="320pt"
 viewBox="0.00 0.00 426.00 320.00" xmlns="http://www.w3.org/2000/svg" xmlns:xlink="http://www.w3.org/1999/xlink">
<g id="graph0" class="graph" transform="scale(1 1) rotate(0) translate(4 316)">
<title>juce::ResizableWindow</title>
<!-- Node1 -->
<g id="node1" class="node"><title>Node1</title>
<polygon fill="#bfbfbf" stroke="black" points="202.5,-124.5 202.5,-143.5 321.5,-143.5 321.5,-124.5 202.5,-124.5"/>
<text text-anchor="middle" x="262" y="-131.5" font-family="Helvetica,sans-Serif" font-size="10.00">juce::ResizableWindow</text>
</g>
<!-- Node5 -->
<g id="node5" class="node"><title>Node5</title>
<g id="a_node5"><a xlink:href="classjuce_1_1DocumentWindow.html" target="_top" xlink:title="A resizable window with a title bar and maximise, minimise and close buttons. ">
<polygon fill="none" stroke="black" points="127.5,-68.5 127.5,-87.5 248.5,-87.5 248.5,-68.5 127.5,-68.5"/>
<text text-anchor="middle" x="188" y="-75.5" font-family="Helvetica,sans-Serif" font-size="10.00">juce::DocumentWindow</text>
</a>
</g>
</g>
<!-- Node1&#45;&gt;Node5 -->
<g id="edge4" class="edge"><title>Node1&#45;&gt;Node5</title>
<path fill="none" stroke="midnightblue" d="M241.966,-118.38C228.591,-108.62 211.441,-96.1057 200.106,-87.8339"/>
<polygon fill="midnightblue" stroke="midnightblue" points="239.97,-121.257 250.111,-124.324 244.096,-115.602 239.97,-121.257"/>
</g>
<!-- Node9 -->
<g id="node9" class="node"><title>Node9</title>
<g id="a_node9"><a xlink:href="classjuce_1_1FileChooserDialogBox.html" target="_top" xlink:title="A file open/save dialog box. ">
<polygon fill="none" stroke="black" points="267,-68.5 267,-87.5 405,-87.5 405,-68.5 267,-68.5"/>
<text text-anchor="middle" x="336" y="-75.5" font-family="Helvetica,sans-Serif" font-size="10.00">juce::FileChooserDialogBox</text>
</a>
</g>
</g>
<!-- Node1&#45;&gt;Node9 -->
<g id="edge8" class="edge"><title>Node1&#45;&gt;Node9</title>
<path fill="none" stroke="midnightblue" d="M282.034,-118.38C295.409,-108.62 312.559,-96.1057 323.894,-87.8339"/>
<polygon fill="midnightblue" stroke="midnightblue" points="279.904,-115.602 273.889,-124.324 284.03,-121.257 279.904,-115.602"/>
</g>
<!-- Node2 -->
<g id="node2" class="node"><title>Node2</title>
<g id="a_node2"><a xlink:href="classjuce_1_1TopLevelWindow.html" target="_top" xlink:title="A base class for top&#45;level windows. ">
<polygon fill="none" stroke="black" points="204,-180.5 204,-199.5 320,-199.5 320,-180.5 204,-180.5"/>
<text text-anchor="middle" x="262" y="-187.5" font-family="Helvetica,sans-Serif" font-size="10.00">juce::TopLevelWindow</text>
</a>
</g>
</g>
<!-- Node2&#45;&gt;Node1 -->
<g id="edge1" class="edge"><title>Node2&#45;&gt;Node1</title>
<path fill="none" stroke="midnightblue" d="M262,-169.805C262,-160.91 262,-150.78 262,-143.751"/>
<polygon fill="midnightblue" stroke="midnightblue" points="258.5,-170.083 262,-180.083 265.5,-170.083 258.5,-170.083"/>
</g>
<!-- Node3 -->
<g id="node3" class="node"><title>Node3</title>
<g id="a_node3"><a xlink:href="classjuce_1_1Component.html" target="_top" xlink:title="The base class for all JUCE user&#45;interface objects. ">
<polygon fill="none" stroke="black" points="216.5,-236.5 216.5,-255.5 307.5,-255.5 307.5,-236.5 216.5,-236.5"/>
<text text-anchor="middle" x="262" y="-243.5" font-family="Helvetica,sans-Serif" font-size="10.00">juce::Component</text>
</a>
</g>
</g>
<!-- Node3&#45;&gt;Node2 -->
<g id="edge2" class="edge"><title>Node3&#45;&gt;Node2</title>
<path fill="none" stroke="midnightblue" d="M262,-225.805C262,-216.91 262,-206.78 262,-199.751"/>
<polygon fill="midnightblue" stroke="midnightblue" points="258.5,-226.083 262,-236.083 265.5,-226.083 258.5,-226.083"/>
</g>
<!-- Node4 -->
<g id="node4" class="node"><title>Node4</title>
<g id="a_node4"><a xlink:href="classjuce_1_1MouseListener.html" target="_top" xlink:title="A MouseListener can be registered with a component to receive callbacks about mouse events that happe...">
<polygon fill="none" stroke="black" points="210,-292.5 210,-311.5 314,-311.5 314,-292.5 210,-292.5"/>
<text text-anchor="middle" x="262" y="-299.5" font-family="Helvetica,sans-Serif" font-size="10.00">juce::MouseListener</text>
</a>
</g>
</g>
<!-- Node4&#45;&gt;Node3 -->
<g id="edge3" class="edge"><title>Node4&#45;&gt;Node3</title>
<path fill="none" stroke="midnightblue" d="M262,-281.805C262,-272.91 262,-262.78 262,-255.751"/>
<polygon fill="midnightblue" stroke="midnightblue" points="258.5,-282.083 262,-292.083 265.5,-282.083 258.5,-282.083"/>
</g>
<!-- Node6 -->
<g id="node6" class="node"><title>Node6</title>
<g id="a_node6"><a xlink:href="classjuce_1_1DialogWindow.html" target="_top" xlink:title="A dialog&#45;box style window. ">
<polygon fill="none" stroke="black" points="0,-6.5 0,-25.5 104,-25.5 104,-6.5 0,-6.5"/>
<text text-anchor="middle" x="52" y="-13.5" font-family="Helvetica,sans-Serif" font-size="10.00">juce::DialogWindow</text>
</a>
</g>
</g>
<!-- Node5&#45;&gt;Node6 -->
<g id="edge5" class="edge"><title>Node5&#45;&gt;Node6</title>
<path fill="none" stroke="midnightblue" d="M159.034,-64.2207C132.631,-52.5726 94.358,-35.6874 71.4493,-25.5806"/>
<polygon fill="midnightblue" stroke="midnightblue" points="157.953,-67.5692 168.515,-68.4035 160.778,-61.1648 157.953,-67.5692"/>
</g>
<!-- Node7 -->
<g id="node7" class="node"><title>Node7</title>
<g id="a_node7"><a xlink:href="classjuce_1_1MultiDocumentPanelWindow.html" target="_top" xlink:title="This is a derivative of DocumentWindow that is used inside a MultiDocumentPanel component. ">
<polygon fill="none" stroke="black" points="122.5,-1 122.5,-31 253.5,-31 253.5,-1 122.5,-1"/>
<text text-anchor="start" x="130.5" y="-19" font-family="Helvetica,sans-Serif" font-size="10.00">juce::MultiDocumentPanel</text>
<text text-anchor="middle" x="188" y="-8" font-family="Helvetica,sans-Serif" font-size="10.00">Window</text>
</a>
</g>
</g>
<!-- Node5&#45;&gt;Node7 -->
<g id="edge6" class="edge"><title>Node5&#45;&gt;Node7</title>
<path fill="none" stroke="midnightblue" d="M188,-58.3707C188,-49.5849 188,-39.2721 188,-31.1408"/>
<polygon fill="midnightblue" stroke="midnightblue" points="184.5,-58.4034 188,-68.4035 191.5,-58.4035 184.5,-58.4034"/>
</g>
<!-- Node8 -->
<g id="node8" class="node"><title>Node8</title>
<g id="a_node8"><a xlink:href="classjuce_1_1StandaloneFilterWindow.html" target="_top" xlink:title="A class that can be used to run a simple standalone application containing your filter. ">
<polygon fill="none" stroke="black" points="272,-6.5 272,-25.5 418,-25.5 418,-6.5 272,-6.5"/>
<text text-anchor="middle" x="345" y="-13.5" font-family="Helvetica,sans-Serif" font-size="10.00">juce::StandaloneFilterWindow</text>
</a>
</g>
</g>
<!-- Node5&#45;&gt;Node8 -->
<g id="edge7" class="edge"><title>Node5&#45;&gt;Node8</title>
<path fill="none" stroke="midnightblue" d="M219.841,-64.8315C250.356,-53.1697 295.635,-35.8655 322.547,-25.5806"/>
<polygon fill="midnightblue" stroke="midnightblue" points="218.586,-61.5642 210.494,-68.4035 221.085,-68.1029 218.586,-61.5642"/>
</g>
</g>
</svg>
