<?xml version="1.0" encoding="UTF-8" standalone="no"?>
<!DOCTYPE svg PUBLIC "-//W3C//DTD SVG 1.1//EN"
 "http://www.w3.org/Graphics/SVG/1.1/DTD/svg11.dtd">
<!-- Generated by graphviz version 2.36.0 (20140111.2315)
 -->
<!-- Title: juce::AudioFormatReader Pages: 1 -->
<svg width="338pt" height="153pt"
 viewBox="0.00 0.00 338.00 153.00" xmlns="http://www.w3.org/2000/svg" xmlns:xlink="http://www.w3.org/1999/xlink">
<g id="graph0" class="graph" transform="scale(1 1) rotate(0) translate(4 149)">
<title>juce::AudioFormatReader</title>
<!-- Node1 -->
<g id="node1" class="node"><title>Node1</title>
<polygon fill="#bfbfbf" stroke="black" points="0,-68.5 0,-87.5 128,-87.5 128,-68.5 0,-68.5"/>
<text text-anchor="middle" x="64" y="-75.5" font-family="Helvetica,sans-Serif" font-size="10.00">juce::AudioFormatReader</text>
</g>
<!-- Node2 -->
<g id="node2" class="node"><title>Node2</title>
<g id="a_node2"><a xlink:href="classjuce_1_1AudioCDReader.html" target="_top" xlink:title="A type of AudioFormatReader that reads from an audio CD. ">
<polygon fill="none" stroke="black" points="191,-125.5 191,-144.5 303,-144.5 303,-125.5 191,-125.5"/>
<text text-anchor="middle" x="247" y="-132.5" font-family="Helvetica,sans-Serif" font-size="10.00">juce::AudioCDReader</text>
</a>
</g>
</g>
<!-- Node1&#45;&gt;Node2 -->
<g id="edge1" class="edge"><title>Node1&#45;&gt;Node2</title>
<path fill="none" stroke="midnightblue" d="M96.9586,-91.5649C116.161,-99.3878 141.214,-109.024 164,-116 175.458,-119.508 187.989,-122.718 199.73,-125.461"/>
<polygon fill="midnightblue" stroke="midnightblue" points="98.0724,-88.2383 87.4932,-87.6629 95.4045,-94.71 98.0724,-88.2383"/>
</g>
<!-- Node3 -->
<g id="node3" class="node"><title>Node3</title>
<g id="a_node3"><a xlink:href="classjuce_1_1AudioSubsectionReader.html" target="_top" xlink:title="This class is used to wrap an AudioFormatReader and only read from a subsection of the file...">
<polygon fill="none" stroke="black" points="174,-87.5 174,-106.5 320,-106.5 320,-87.5 174,-87.5"/>
<text text-anchor="middle" x="247" y="-94.5" font-family="Helvetica,sans-Serif" font-size="10.00">juce::AudioSubsectionReader</text>
</a>
</g>
</g>
<!-- Node1&#45;&gt;Node3 -->
<g id="edge2" class="edge"><title>Node1&#45;&gt;Node3</title>
<path fill="none" stroke="midnightblue" d="M138.251,-85.6894C150.001,-86.9227 162.153,-88.1984 173.875,-89.4289"/>
<polygon fill="midnightblue" stroke="midnightblue" points="138.362,-82.1818 128.051,-84.6186 137.631,-89.1436 138.362,-82.1818"/>
</g>
<!-- Node4 -->
<g id="node4" class="node"><title>Node4</title>
<g id="a_node4"><a xlink:href="classjuce_1_1BufferingAudioReader.html" target="_top" xlink:title="An AudioFormatReader that uses a background thread to pre&#45;read data from another reader. ">
<polygon fill="none" stroke="black" points="179,-49.5 179,-68.5 315,-68.5 315,-49.5 179,-49.5"/>
<text text-anchor="middle" x="247" y="-56.5" font-family="Helvetica,sans-Serif" font-size="10.00">juce::BufferingAudioReader</text>
</a>
</g>
</g>
<!-- Node1&#45;&gt;Node4 -->
<g id="edge3" class="edge"><title>Node1&#45;&gt;Node4</title>
<path fill="none" stroke="midnightblue" d="M138.205,-70.3155C151.645,-68.9047 165.613,-67.4384 178.864,-66.0474"/>
<polygon fill="midnightblue" stroke="midnightblue" points="137.631,-66.8564 128.051,-71.3814 138.362,-73.8182 137.631,-66.8564"/>
</g>
<!-- Node5 -->
<g id="node5" class="node"><title>Node5</title>
<g id="a_node5"><a xlink:href="classjuce_1_1MemoryMappedAudioFormatReader.html" target="_top" xlink:title="A specialised type of AudioFormatReader that uses a MemoryMappedFile to read directly from an audio f...">
<polygon fill="none" stroke="black" points="164,-0 164,-30 330,-30 330,-0 164,-0"/>
<text text-anchor="start" x="172" y="-18" font-family="Helvetica,sans-Serif" font-size="10.00">juce::MemoryMappedAudioFormat</text>
<text text-anchor="middle" x="247" y="-7" font-family="Helvetica,sans-Serif" font-size="10.00">Reader</text>
</a>
</g>
</g>
<!-- Node1&#45;&gt;Node5 -->
<g id="edge4" class="edge"><title>Node1&#45;&gt;Node5</title>
<path fill="none" stroke="midnightblue" d="M97.9063,-64.7001C117.069,-57.1237 141.762,-47.6472 164,-40 173.852,-36.6121 184.447,-33.2078 194.642,-30.0493"/>
<polygon fill="midnightblue" stroke="midnightblue" points="96.4302,-61.5204 88.4322,-68.4691 99.0177,-68.0247 96.4302,-61.5204"/>
</g>
</g>
</svg>
