<?xml version="1.0" encoding="UTF-8" standalone="no"?>
<!DOCTYPE svg PUBLIC "-//W3C//DTD SVG 1.1//EN"
 "http://www.w3.org/Graphics/SVG/1.1/DTD/svg11.dtd">
<!-- Generated by graphviz version 2.36.0 (20140111.2315)
 -->
<!-- Title: ReferenceCountedObject Pages: 1 -->
<svg width="520pt" height="322pt"
 viewBox="0.00 0.00 520.00 322.00" xmlns="http://www.w3.org/2000/svg" xmlns:xlink="http://www.w3.org/1999/xlink">
<g id="graph0" class="graph" transform="scale(1 1) rotate(0) translate(4 318)">
<title>ReferenceCountedObject</title>
<!-- Node1 -->
<g id="node1" class="node"><title>Node1</title>
<polygon fill="#bfbfbf" stroke="black" points="0.5,-150.5 0.5,-169.5 127.5,-169.5 127.5,-150.5 0.5,-150.5"/>
<text text-anchor="middle" x="64" y="-157.5" font-family="Helvetica,sans-Serif" font-size="10.00">ReferenceCountedObject</text>
</g>
<!-- Node2 -->
<g id="node2" class="node"><title>Node2</title>
<g id="a_node2"><a xlink:href="classAudioProcessorGraph_1_1Node.html" target="_top" xlink:title="Represents one of the nodes, or processors, in an AudioProcessorGraph. ">
<polygon fill="none" stroke="black" points="189,-284 189,-314 301,-314 301,-284 189,-284"/>
<text text-anchor="start" x="197" y="-302" font-family="Helvetica,sans-Serif" font-size="10.00">AudioProcessorGraph</text>
<text text-anchor="middle" x="245" y="-291" font-family="Helvetica,sans-Serif" font-size="10.00">::Node</text>
</a>
</g>
</g>
<!-- Node1&#45;&gt;Node2 -->
<g id="edge1" class="edge"><title>Node1&#45;&gt;Node2</title>
<path fill="none" stroke="midnightblue" d="M76.0337,-178.089C92.259,-203.204 124.903,-248.424 164,-274 171.55,-278.939 180.135,-282.952 188.811,-286.198"/>
<polygon fill="midnightblue" stroke="midnightblue" points="78.9328,-176.125 70.6398,-169.531 73.0109,-179.857 78.9328,-176.125"/>
</g>
<!-- Node3 -->
<g id="node3" class="node"><title>Node3</title>
<g id="a_node3"><a xlink:href="group__juce__core-containers.html#classDynamicObject" target="_top" xlink:title="Represents a dynamically implemented object. ">
<polygon fill="none" stroke="black" points="203,-245.5 203,-264.5 287,-264.5 287,-245.5 203,-245.5"/>
<text text-anchor="middle" x="245" y="-252.5" font-family="Helvetica,sans-Serif" font-size="10.00">DynamicObject</text>
</a>
</g>
</g>
<!-- Node1&#45;&gt;Node3 -->
<g id="edge2" class="edge"><title>Node1&#45;&gt;Node3</title>
<path fill="none" stroke="midnightblue" d="M81.8139,-176.552C100.395,-193.916 131.955,-220.759 164,-236 176.118,-241.763 190.123,-245.856 202.995,-248.728"/>
<polygon fill="midnightblue" stroke="midnightblue" points="84.1093,-173.905 74.4578,-169.535 79.2774,-178.97 84.1093,-173.905"/>
</g>
<!-- Node4 -->
<g id="node4" class="node"><title>Node4</title>
<g id="a_node4"><a xlink:href="group__juce__graphics-images.html#classImagePixelData" target="_top" xlink:title="This is a base class for holding image data in implementation&#45;specific ways. ">
<polygon fill="none" stroke="black" points="202,-207.5 202,-226.5 288,-226.5 288,-207.5 202,-207.5"/>
<text text-anchor="middle" x="245" y="-214.5" font-family="Helvetica,sans-Serif" font-size="10.00">ImagePixelData</text>
</a>
</g>
</g>
<!-- Node1&#45;&gt;Node4 -->
<g id="edge3" class="edge"><title>Node1&#45;&gt;Node4</title>
<path fill="none" stroke="midnightblue" d="M96.9727,-173.519C116.18,-181.326 141.234,-190.962 164,-198 176.138,-201.753 189.506,-205.192 201.781,-208.083"/>
<polygon fill="midnightblue" stroke="midnightblue" points="98.0841,-170.192 87.5044,-169.627 95.4225,-176.666 98.0841,-170.192"/>
</g>
<!-- Node5 -->
<g id="node5" class="node"><title>Node5</title>
<g id="a_node5"><a xlink:href="classMessageManager_1_1MessageBase.html" target="_top" xlink:title="Internal class used as the base class for all message objects. ">
<polygon fill="none" stroke="black" points="164,-169.5 164,-188.5 326,-188.5 326,-169.5 164,-169.5"/>
<text text-anchor="middle" x="245" y="-176.5" font-family="Helvetica,sans-Serif" font-size="10.00">MessageManager::MessageBase</text>
</a>
</g>
</g>
<!-- Node1&#45;&gt;Node5 -->
<g id="edge4" class="edge"><title>Node1&#45;&gt;Node5</title>
<path fill="none" stroke="midnightblue" d="M137.613,-167.708C146.24,-168.623 155.085,-169.562 163.81,-170.488"/>
<polygon fill="midnightblue" stroke="midnightblue" points="137.919,-164.22 127.606,-166.645 137.18,-171.181 137.919,-164.22"/>
</g>
<!-- Node8 -->
<g id="node8" class="node"><title>Node8</title>
<g id="a_node8"><a xlink:href="group__juce__dsp-processors.html#structProcessorState" target="_top" xlink:title="This is a handy base class for the state of a processor (such as parameter values) which is typically...">
<polygon fill="none" stroke="black" points="203,-131.5 203,-150.5 287,-150.5 287,-131.5 203,-131.5"/>
<text text-anchor="middle" x="245" y="-138.5" font-family="Helvetica,sans-Serif" font-size="10.00">ProcessorState</text>
</a>
</g>
</g>
<!-- Node1&#45;&gt;Node8 -->
<g id="edge7" class="edge"><title>Node1&#45;&gt;Node8</title>
<path fill="none" stroke="midnightblue" d="M137.669,-152.287C159.835,-149.934 183.43,-147.429 202.748,-145.379"/>
<polygon fill="midnightblue" stroke="midnightblue" points="137.18,-148.819 127.606,-153.355 137.919,-155.78 137.18,-148.819"/>
</g>
<!-- Node12 -->
<g id="node12" class="node"><title>Node12</title>
<g id="a_node12"><a xlink:href="group__juce__audio__basics-synthesisers.html#classSynthesiserSound" target="_top" xlink:title="Describes one of the sounds that a Synthesiser can play. ">
<polygon fill="none" stroke="black" points="197,-93.5 197,-112.5 293,-112.5 293,-93.5 197,-93.5"/>
<text text-anchor="middle" x="245" y="-100.5" font-family="Helvetica,sans-Serif" font-size="10.00">SynthesiserSound</text>
</a>
</g>
</g>
<!-- Node1&#45;&gt;Node12 -->
<g id="edge11" class="edge"><title>Node1&#45;&gt;Node12</title>
<path fill="none" stroke="midnightblue" d="M96.9727,-146.481C116.18,-138.674 141.234,-129.038 164,-122 175.32,-118.5 187.709,-115.273 199.284,-112.509"/>
<polygon fill="midnightblue" stroke="midnightblue" points="95.4225,-143.334 87.5044,-150.373 98.0841,-149.808 95.4225,-143.334"/>
</g>
<!-- Node14 -->
<g id="node14" class="node"><title>Node14</title>
<g id="a_node14"><a xlink:href="group__juce__graphics-fonts.html#classTypeface" target="_top" xlink:title="A typeface represents a size&#45;independent font. ">
<polygon fill="none" stroke="black" points="216.5,-55.5 216.5,-74.5 273.5,-74.5 273.5,-55.5 216.5,-55.5"/>
<text text-anchor="middle" x="245" y="-62.5" font-family="Helvetica,sans-Serif" font-size="10.00">Typeface</text>
</a>
</g>
</g>
<!-- Node1&#45;&gt;Node14 -->
<g id="edge13" class="edge"><title>Node1&#45;&gt;Node14</title>
<path fill="none" stroke="midnightblue" d="M81.8139,-143.448C100.395,-126.084 131.955,-99.241 164,-84 180.501,-76.1519 200.501,-71.4019 216.376,-68.6139"/>
<polygon fill="midnightblue" stroke="midnightblue" points="79.2774,-141.03 74.4578,-150.465 84.1093,-146.095 79.2774,-141.03"/>
</g>
<!-- Node16 -->
<g id="node16" class="node"><title>Node16</title>
<g id="a_node16"><a xlink:href="classValue_1_1ValueSource.html" target="_top" xlink:title="Used internally by the Value class as the base class for its shared value objects. ">
<polygon fill="none" stroke="black" points="193.5,-17.5 193.5,-36.5 296.5,-36.5 296.5,-17.5 193.5,-17.5"/>
<text text-anchor="middle" x="245" y="-24.5" font-family="Helvetica,sans-Serif" font-size="10.00">Value::ValueSource</text>
</a>
</g>
</g>
<!-- Node1&#45;&gt;Node16 -->
<g id="edge15" class="edge"><title>Node1&#45;&gt;Node16</title>
<path fill="none" stroke="midnightblue" d="M75.7935,-141.529C91.732,-115.959 124.035,-70.198 164,-46 172.914,-40.6026 183.25,-36.7384 193.471,-33.9719"/>
<polygon fill="midnightblue" stroke="midnightblue" points="72.6956,-139.888 70.5043,-150.254 78.6815,-143.517 72.6956,-139.888"/>
</g>
<!-- Node6 -->
<g id="node6" class="node"><title>Node6</title>
<g id="a_node6"><a xlink:href="group__juce__events-messages.html#classCallbackMessage" target="_top" xlink:title="A message that invokes a callback method when it gets delivered. ">
<polygon fill="none" stroke="black" points="389.5,-262.5 389.5,-281.5 484.5,-281.5 484.5,-262.5 389.5,-262.5"/>
<text text-anchor="middle" x="437" y="-269.5" font-family="Helvetica,sans-Serif" font-size="10.00">CallbackMessage</text>
</a>
</g>
</g>
<!-- Node5&#45;&gt;Node6 -->
<g id="edge5" class="edge"><title>Node5&#45;&gt;Node6</title>
<path fill="none" stroke="midnightblue" d="M317.308,-192.779C320.339,-194.338 323.255,-196.072 326,-198 349.909,-214.789 338.244,-235.994 362,-253 370.089,-258.79 379.79,-262.819 389.464,-265.621"/>
<polygon fill="midnightblue" stroke="midnightblue" points="318.481,-189.47 307.921,-188.604 315.636,-195.866 318.481,-189.47"/>
</g>
<!-- Node7 -->
<g id="node7" class="node"><title>Node7</title>
<g id="a_node7"><a xlink:href="group__juce__events-messages.html#classMessage" target="_top" xlink:title="The base class for objects that can be sent to a MessageListener. ">
<polygon fill="none" stroke="black" points="409,-224.5 409,-243.5 465,-243.5 465,-224.5 409,-224.5"/>
<text text-anchor="middle" x="437" y="-231.5" font-family="Helvetica,sans-Serif" font-size="10.00">Message</text>
</a>
</g>
</g>
<!-- Node5&#45;&gt;Node7 -->
<g id="edge6" class="edge"><title>Node5&#45;&gt;Node7</title>
<path fill="none" stroke="midnightblue" d="M302.252,-190.968C310.29,-193.08 318.404,-195.435 326,-198 342.589,-203.602 345.5,-208.143 362,-214 377.301,-219.431 394.824,-224.228 408.977,-227.762"/>
<polygon fill="midnightblue" stroke="midnightblue" points="303.076,-187.566 292.524,-188.514 301.364,-194.354 303.076,-187.566"/>
</g>
<!-- Node9 -->
<g id="node9" class="node"><title>Node9</title>
<g id="a_node9"><a xlink:href="group__juce__dsp-processors.html#structFIR_1_1Coefficients" target="_top" xlink:title="A set of coefficients for use in an FIRFilter object. ">
<polygon fill="none" stroke="black" points="388,-175 388,-205 486,-205 486,-175 388,-175"/>
<text text-anchor="start" x="396" y="-193" font-family="Helvetica,sans-Serif" font-size="10.00">FIR::Coefficients&lt;</text>
<text text-anchor="middle" x="437" y="-182" font-family="Helvetica,sans-Serif" font-size="10.00"> NumericType &gt;</text>
</a>
</g>
</g>
<!-- Node8&#45;&gt;Node9 -->
<g id="edge8" class="edge"><title>Node8&#45;&gt;Node9</title>
<path fill="none" stroke="midnightblue" d="M297.044,-152.857C306.677,-155.169 316.658,-157.617 326,-160 346.332,-165.185 368.685,-171.22 387.901,-176.512"/>
<polygon fill="midnightblue" stroke="midnightblue" points="297.712,-149.418 287.173,-150.504 296.089,-156.227 297.712,-149.418"/>
</g>
<!-- Node10 -->
<g id="node10" class="node"><title>Node10</title>
<g id="a_node10"><a xlink:href="structIIR_1_1Coefficients.html" target="_top" xlink:title="A set of coefficients for use in an Filter object. ">
<polygon fill="none" stroke="black" points="389.5,-126 389.5,-156 484.5,-156 484.5,-126 389.5,-126"/>
<text text-anchor="start" x="397.5" y="-144" font-family="Helvetica,sans-Serif" font-size="10.00">IIR::Coefficients&lt;</text>
<text text-anchor="middle" x="437" y="-133" font-family="Helvetica,sans-Serif" font-size="10.00"> NumericType &gt;</text>
</a>
</g>
</g>
<!-- Node8&#45;&gt;Node10 -->
<g id="edge9" class="edge"><title>Node8&#45;&gt;Node10</title>
<path fill="none" stroke="midnightblue" d="M297.432,-141C326.029,-141 361.349,-141 389.173,-141"/>
<polygon fill="midnightblue" stroke="midnightblue" points="297.227,-137.5 287.227,-141 297.227,-144.5 297.227,-137.5"/>
</g>
<!-- Node11 -->
<g id="node11" class="node"><title>Node11</title>
<g id="a_node11"><a xlink:href="group__juce__dsp-processors.html#structStateVariableFilter_1_1Parameters" target="_top" xlink:title="StateVariableFilter\l::Parameters\&lt; NumericType \&gt;">
<polygon fill="none" stroke="black" points="362.5,-77 362.5,-107 511.5,-107 511.5,-77 362.5,-77"/>
<text text-anchor="start" x="370.5" y="-95" font-family="Helvetica,sans-Serif" font-size="10.00">StateVariableFilter</text>
<text text-anchor="middle" x="437" y="-84" font-family="Helvetica,sans-Serif" font-size="10.00">::Parameters&lt; NumericType &gt;</text>
</a>
</g>
</g>
<!-- Node8&#45;&gt;Node11 -->
<g id="edge10" class="edge"><title>Node8&#45;&gt;Node11</title>
<path fill="none" stroke="midnightblue" d="M297.044,-129.143C306.677,-126.831 316.658,-124.383 326,-122 344.414,-117.304 364.486,-111.911 382.383,-107.004"/>
<polygon fill="midnightblue" stroke="midnightblue" points="296.089,-125.773 287.173,-131.496 297.712,-132.582 296.089,-125.773"/>
</g>
<!-- Node13 -->
<g id="node13" class="node"><title>Node13</title>
<g id="a_node13"><a xlink:href="group__juce__audio__formats-sampler.html#classSamplerSound" target="_top" xlink:title="A subclass of SynthesiserSound that represents a sampled audio clip. ">
<polygon fill="none" stroke="black" points="397,-38.5 397,-57.5 477,-57.5 477,-38.5 397,-38.5"/>
<text text-anchor="middle" x="437" y="-45.5" font-family="Helvetica,sans-Serif" font-size="10.00">SamplerSound</text>
</a>
</g>
</g>
<!-- Node12&#45;&gt;Node13 -->
<g id="edge12" class="edge"><title>Node12&#45;&gt;Node13</title>
<path fill="none" stroke="midnightblue" d="M302.873,-91.04C310.717,-88.9424 318.612,-86.5901 326,-84 342.698,-78.1463 345.356,-73.005 362,-67 373.104,-62.9937 385.432,-59.4766 396.789,-56.5928"/>
<polygon fill="midnightblue" stroke="midnightblue" points="301.829,-87.6943 293.005,-93.5594 303.56,-94.4767 301.829,-87.6943"/>
</g>
<!-- Node15 -->
<g id="node15" class="node"><title>Node15</title>
<g id="a_node15"><a xlink:href="group__juce__graphics-fonts.html#classCustomTypeface" target="_top" xlink:title="A typeface that can be populated with custom glyphs. ">
<polygon fill="none" stroke="black" points="391,-0.5 391,-19.5 483,-19.5 483,-0.5 391,-0.5"/>
<text text-anchor="middle" x="437" y="-7.5" font-family="Helvetica,sans-Serif" font-size="10.00">CustomTypeface</text>
</a>
</g>
</g>
<!-- Node14&#45;&gt;Node15 -->
<g id="edge14" class="edge"><title>Node14&#45;&gt;Node15</title>
<path fill="none" stroke="midnightblue" d="M283.744,-57.7306C297.252,-54.6868 312.474,-50.7418 326,-46 342.698,-40.1463 345.356,-35.005 362,-29 371.857,-25.4438 382.677,-22.2731 392.927,-19.5886"/>
<polygon fill="midnightblue" stroke="midnightblue" points="282.84,-54.3452 273.806,-59.8808 284.32,-61.1869 282.84,-54.3452"/>
</g>
</g>
</svg>
