<?xml version="1.0" encoding="UTF-8" standalone="no"?>
<!DOCTYPE svg PUBLIC "-//W3C//DTD SVG 1.1//EN"
 "http://www.w3.org/Graphics/SVG/1.1/DTD/svg11.dtd">
<!-- Generated by graphviz version 2.36.0 (20140111.2315)
 -->
<!-- Title: juce::ImagePreviewComponent Pages: 1 -->
<svg width="233pt" height="196pt"
 viewBox="0.00 0.00 233.00 196.00" xmlns="http://www.w3.org/2000/svg" xmlns:xlink="http://www.w3.org/1999/xlink">
<g id="graph0" class="graph" transform="scale(1 1) rotate(0) translate(4 192)">
<title>juce::ImagePreviewComponent</title>
<!-- Node1 -->
<g id="node1" class="node"><title>Node1</title>
<polygon fill="#bfbfbf" stroke="black" points="55.5,-0.5 55.5,-19.5 208.5,-19.5 208.5,-0.5 55.5,-0.5"/>
<text text-anchor="middle" x="132" y="-7.5" font-family="Helvetica,sans-Serif" font-size="10.00">juce::ImagePreviewComponent</text>
</g>
<!-- Node2 -->
<g id="node2" class="node"><title>Node2</title>
<g id="a_node2"><a xlink:href="classjuce_1_1FilePreviewComponent.html" target="_top" xlink:title="Base class for components that live inside a file chooser dialog box and show previews of the files t...">
<polygon fill="none" stroke="black" points="0,-56.5 0,-75.5 142,-75.5 142,-56.5 0,-56.5"/>
<text text-anchor="middle" x="71" y="-63.5" font-family="Helvetica,sans-Serif" font-size="10.00">juce::FilePreviewComponent</text>
</a>
</g>
</g>
<!-- Node2&#45;&gt;Node1 -->
<g id="edge1" class="edge"><title>Node2&#45;&gt;Node1</title>
<path fill="none" stroke="midnightblue" d="M88.4672,-49.5372C99.3438,-39.9087 112.944,-27.8694 122.021,-19.8339"/>
<polygon fill="midnightblue" stroke="midnightblue" points="85.9684,-47.0749 80.8007,-56.324 90.6083,-52.3162 85.9684,-47.0749"/>
</g>
<!-- Node3 -->
<g id="node3" class="node"><title>Node3</title>
<g id="a_node3"><a xlink:href="classjuce_1_1Component.html" target="_top" xlink:title="The base class for all JUCE user&#45;interface objects. ">
<polygon fill="none" stroke="black" points="25.5,-112.5 25.5,-131.5 116.5,-131.5 116.5,-112.5 25.5,-112.5"/>
<text text-anchor="middle" x="71" y="-119.5" font-family="Helvetica,sans-Serif" font-size="10.00">juce::Component</text>
</a>
</g>
</g>
<!-- Node3&#45;&gt;Node2 -->
<g id="edge2" class="edge"><title>Node3&#45;&gt;Node2</title>
<path fill="none" stroke="midnightblue" d="M71,-101.805C71,-92.9102 71,-82.7798 71,-75.7511"/>
<polygon fill="midnightblue" stroke="midnightblue" points="67.5001,-102.083 71,-112.083 74.5001,-102.083 67.5001,-102.083"/>
</g>
<!-- Node4 -->
<g id="node4" class="node"><title>Node4</title>
<g id="a_node4"><a xlink:href="classjuce_1_1MouseListener.html" target="_top" xlink:title="A MouseListener can be registered with a component to receive callbacks about mouse events that happe...">
<polygon fill="none" stroke="black" points="19,-168.5 19,-187.5 123,-187.5 123,-168.5 19,-168.5"/>
<text text-anchor="middle" x="71" y="-175.5" font-family="Helvetica,sans-Serif" font-size="10.00">juce::MouseListener</text>
</a>
</g>
</g>
<!-- Node4&#45;&gt;Node3 -->
<g id="edge3" class="edge"><title>Node4&#45;&gt;Node3</title>
<path fill="none" stroke="midnightblue" d="M71,-157.805C71,-148.91 71,-138.78 71,-131.751"/>
<polygon fill="midnightblue" stroke="midnightblue" points="67.5001,-158.083 71,-168.083 74.5001,-158.083 67.5001,-158.083"/>
</g>
<!-- Node5 -->
<g id="node5" class="node"><title>Node5</title>
<g id="a_node5"><a xlink:href="classjuce_1_1Timer.html" target="_top" xlink:title="Makes repeated callbacks to a virtual method at a specified time interval. ">
<polygon fill="none" stroke="black" points="160.5,-56.5 160.5,-75.5 225.5,-75.5 225.5,-56.5 160.5,-56.5"/>
<text text-anchor="middle" x="193" y="-63.5" font-family="Helvetica,sans-Serif" font-size="10.00">juce::Timer</text>
</a>
</g>
</g>
<!-- Node5&#45;&gt;Node1 -->
<g id="edge4" class="edge"><title>Node5&#45;&gt;Node1</title>
<path fill="none" stroke="#8b1a1a" d="M175.533,-49.5372C164.656,-39.9087 151.056,-27.8694 141.979,-19.8339"/>
<polygon fill="#8b1a1a" stroke="#8b1a1a" points="173.392,-52.3162 183.199,-56.324 178.032,-47.0749 173.392,-52.3162"/>
</g>
</g>
</svg>
