<?xml version="1.0" encoding="UTF-8" standalone="no"?>
<!DOCTYPE svg PUBLIC "-//W3C//DTD SVG 1.1//EN"
 "http://www.w3.org/Graphics/SVG/1.1/DTD/svg11.dtd">
<!-- Generated by graphviz version 2.36.0 (20140111.2315)
 -->
<!-- Title: juce::ComponentAnimator Pages: 1 -->
<svg width="217pt" height="84pt"
 viewBox="0.00 0.00 217.00 84.00" xmlns="http://www.w3.org/2000/svg" xmlns:xlink="http://www.w3.org/1999/xlink">
<g id="graph0" class="graph" transform="scale(1 1) rotate(0) translate(4 80)">
<title>juce::ComponentAnimator</title>
<!-- Node1 -->
<g id="node1" class="node"><title>Node1</title>
<polygon fill="#bfbfbf" stroke="black" points="55,-0.5 55,-19.5 185,-19.5 185,-0.5 55,-0.5"/>
<text text-anchor="middle" x="120" y="-7.5" font-family="Helvetica,sans-Serif" font-size="10.00">juce::ComponentAnimator</text>
</g>
<!-- Node2 -->
<g id="node2" class="node"><title>Node2</title>
<g id="a_node2"><a xlink:href="classjuce_1_1ChangeBroadcaster.html" target="_top" xlink:title="Holds a list of ChangeListeners, and sends messages to them when instructed. ">
<polygon fill="none" stroke="black" points="-0.5,-56.5 -0.5,-75.5 126.5,-75.5 126.5,-56.5 -0.5,-56.5"/>
<text text-anchor="middle" x="63" y="-63.5" font-family="Helvetica,sans-Serif" font-size="10.00">juce::ChangeBroadcaster</text>
</a>
</g>
</g>
<!-- Node2&#45;&gt;Node1 -->
<g id="edge1" class="edge"><title>Node2&#45;&gt;Node1</title>
<path fill="none" stroke="midnightblue" d="M79.6215,-49.2533C89.734,-39.6731 102.277,-27.7906 110.675,-19.8339"/>
<polygon fill="midnightblue" stroke="midnightblue" points="77.0105,-46.9056 72.158,-56.324 81.8247,-51.9873 77.0105,-46.9056"/>
</g>
<!-- Node3 -->
<g id="node3" class="node"><title>Node3</title>
<g id="a_node3"><a xlink:href="classjuce_1_1Timer.html" target="_top" xlink:title="Makes repeated callbacks to a virtual method at a specified time interval. ">
<polygon fill="none" stroke="black" points="144.5,-56.5 144.5,-75.5 209.5,-75.5 209.5,-56.5 144.5,-56.5"/>
<text text-anchor="middle" x="177" y="-63.5" font-family="Helvetica,sans-Serif" font-size="10.00">juce::Timer</text>
</a>
</g>
</g>
<!-- Node3&#45;&gt;Node1 -->
<g id="edge2" class="edge"><title>Node3&#45;&gt;Node1</title>
<path fill="none" stroke="#8b1a1a" d="M160.379,-49.2533C150.266,-39.6731 137.723,-27.7906 129.325,-19.8339"/>
<polygon fill="#8b1a1a" stroke="#8b1a1a" points="158.175,-51.9873 167.842,-56.324 162.99,-46.9056 158.175,-51.9873"/>
</g>
</g>
</svg>
