<?xml version="1.0" encoding="UTF-8" standalone="no"?>
<!DOCTYPE svg PUBLIC "-//W3C//DTD SVG 1.1//EN"
 "http://www.w3.org/Graphics/SVG/1.1/DTD/svg11.dtd">
<!-- Generated by graphviz version 2.36.0 (20140111.2315)
 -->
<!-- Title: RelativePointPath::ElementBase Pages: 1 -->
<svg width="248pt" height="234pt"
 viewBox="0.00 0.00 248.00 234.00" xmlns="http://www.w3.org/2000/svg" xmlns:xlink="http://www.w3.org/1999/xlink">
<g id="graph0" class="graph" transform="scale(1 1) rotate(0) translate(4 230)">
<title>RelativePointPath::ElementBase</title>
<!-- Node1 -->
<g id="node1" class="node"><title>Node1</title>
<polygon fill="#bfbfbf" stroke="black" points="0.5,-98 0.5,-128 101.5,-128 101.5,-98 0.5,-98"/>
<text text-anchor="start" x="8.5" y="-116" font-family="Helvetica,sans-Serif" font-size="10.00">RelativePointPath::</text>
<text text-anchor="middle" x="51" y="-105" font-family="Helvetica,sans-Serif" font-size="10.00">ElementBase</text>
</g>
<!-- Node2 -->
<g id="node2" class="node"><title>Node2</title>
<g id="a_node2"><a xlink:href="classRelativePointPath_1_1CloseSubPath.html" target="_top" xlink:title="Class for the close sub path element. ">
<polygon fill="none" stroke="black" points="138.5,-196 138.5,-226 239.5,-226 239.5,-196 138.5,-196"/>
<text text-anchor="start" x="146.5" y="-214" font-family="Helvetica,sans-Serif" font-size="10.00">RelativePointPath::</text>
<text text-anchor="middle" x="189" y="-203" font-family="Helvetica,sans-Serif" font-size="10.00">CloseSubPath</text>
</a>
</g>
</g>
<!-- Node1&#45;&gt;Node2 -->
<g id="edge1" class="edge"><title>Node1&#45;&gt;Node2</title>
<path fill="none" stroke="midnightblue" d="M75.1586,-135.332C91.8099,-150.701 115.25,-170.973 138,-186 143.345,-189.53 149.257,-192.902 155.089,-195.962"/>
<polygon fill="midnightblue" stroke="midnightblue" points="77.2562,-132.502 67.5624,-128.226 72.4741,-137.614 77.2562,-132.502"/>
</g>
<!-- Node3 -->
<g id="node3" class="node"><title>Node3</title>
<g id="a_node3"><a xlink:href="classRelativePointPath_1_1CubicTo.html" target="_top" xlink:title="Class for the cubic to element. ">
<polygon fill="none" stroke="black" points="138.5,-147 138.5,-177 239.5,-177 239.5,-147 138.5,-147"/>
<text text-anchor="start" x="146.5" y="-165" font-family="Helvetica,sans-Serif" font-size="10.00">RelativePointPath::</text>
<text text-anchor="middle" x="189" y="-154" font-family="Helvetica,sans-Serif" font-size="10.00">CubicTo</text>
</a>
</g>
</g>
<!-- Node1&#45;&gt;Node3 -->
<g id="edge2" class="edge"><title>Node1&#45;&gt;Node3</title>
<path fill="none" stroke="midnightblue" d="M103.445,-131.536C117.491,-136.596 132.539,-142.018 145.99,-146.864"/>
<polygon fill="midnightblue" stroke="midnightblue" points="104.509,-128.198 93.9142,-128.101 102.136,-134.784 104.509,-128.198"/>
</g>
<!-- Node4 -->
<g id="node4" class="node"><title>Node4</title>
<g id="a_node4"><a xlink:href="classRelativePointPath_1_1LineTo.html" target="_top" xlink:title="Class for the line to element. ">
<polygon fill="none" stroke="black" points="138.5,-98 138.5,-128 239.5,-128 239.5,-98 138.5,-98"/>
<text text-anchor="start" x="146.5" y="-116" font-family="Helvetica,sans-Serif" font-size="10.00">RelativePointPath::</text>
<text text-anchor="middle" x="189" y="-105" font-family="Helvetica,sans-Serif" font-size="10.00">LineTo</text>
</a>
</g>
</g>
<!-- Node1&#45;&gt;Node4 -->
<g id="edge3" class="edge"><title>Node1&#45;&gt;Node4</title>
<path fill="none" stroke="midnightblue" d="M112,-113C120.729,-113 129.637,-113 138.137,-113"/>
<polygon fill="midnightblue" stroke="midnightblue" points="111.869,-109.5 101.869,-113 111.869,-116.5 111.869,-109.5"/>
</g>
<!-- Node5 -->
<g id="node5" class="node"><title>Node5</title>
<g id="a_node5"><a xlink:href="classRelativePointPath_1_1QuadraticTo.html" target="_top" xlink:title="Class for the quadratic to element. ">
<polygon fill="none" stroke="black" points="138.5,-49 138.5,-79 239.5,-79 239.5,-49 138.5,-49"/>
<text text-anchor="start" x="146.5" y="-67" font-family="Helvetica,sans-Serif" font-size="10.00">RelativePointPath::</text>
<text text-anchor="middle" x="189" y="-56" font-family="Helvetica,sans-Serif" font-size="10.00">QuadraticTo</text>
</a>
</g>
</g>
<!-- Node1&#45;&gt;Node5 -->
<g id="edge4" class="edge"><title>Node1&#45;&gt;Node5</title>
<path fill="none" stroke="midnightblue" d="M103.445,-94.4645C117.491,-89.4041 132.539,-83.9823 145.99,-79.1359"/>
<polygon fill="midnightblue" stroke="midnightblue" points="102.136,-91.2161 93.9142,-97.8986 104.509,-97.8016 102.136,-91.2161"/>
</g>
<!-- Node6 -->
<g id="node6" class="node"><title>Node6</title>
<g id="a_node6"><a xlink:href="classRelativePointPath_1_1StartSubPath.html" target="_top" xlink:title="Class for the start sub path element. ">
<polygon fill="none" stroke="black" points="138.5,-0 138.5,-30 239.5,-30 239.5,-0 138.5,-0"/>
<text text-anchor="start" x="146.5" y="-18" font-family="Helvetica,sans-Serif" font-size="10.00">RelativePointPath::</text>
<text text-anchor="middle" x="189" y="-7" font-family="Helvetica,sans-Serif" font-size="10.00">StartSubPath</text>
</a>
</g>
</g>
<!-- Node1&#45;&gt;Node6 -->
<g id="edge5" class="edge"><title>Node1&#45;&gt;Node6</title>
<path fill="none" stroke="midnightblue" d="M75.1586,-90.6675C91.8099,-75.2991 115.25,-55.0269 138,-40 143.345,-36.4697 149.257,-33.098 155.089,-30.0379"/>
<polygon fill="midnightblue" stroke="midnightblue" points="72.4741,-88.386 67.5624,-97.7736 77.2562,-93.498 72.4741,-88.386"/>
</g>
</g>
</svg>
