<?xml version="1.0" encoding="UTF-8" standalone="no"?>
<!DOCTYPE svg PUBLIC "-//W3C//DTD SVG 1.1//EN"
 "http://www.w3.org/Graphics/SVG/1.1/DTD/svg11.dtd">
<!-- Generated by graphviz version 2.36.0 (20140111.2315)
 -->
<!-- Title: CriticalSection Pages: 1 -->
<svg width="274pt" height="169pt"
 viewBox="0.00 0.00 274.00 169.00" xmlns="http://www.w3.org/2000/svg" xmlns:xlink="http://www.w3.org/1999/xlink">
<g id="graph0" class="graph" transform="scale(1 1) rotate(0) translate(4 165)">
<title>CriticalSection</title>
<!-- Node1 -->
<g id="node1" class="node"><title>Node1</title>
<polygon fill="#bfbfbf" stroke="black" points="0,-70.5 0,-89.5 80,-89.5 80,-70.5 0,-70.5"/>
<text text-anchor="middle" x="40" y="-77.5" font-family="Helvetica,sans-Serif" font-size="10.00">CriticalSection</text>
</g>
<!-- Node2 -->
<g id="node2" class="node"><title>Node2</title>
<g id="a_node2"><a xlink:href="classArrayAllocationBase.html" target="_top" xlink:title="ArrayAllocationBase\l\&lt; Steinberg::Vst::Event,\l CriticalSection \&gt;">
<polygon fill="none" stroke="black" points="130,-119.5 130,-160.5 252,-160.5 252,-119.5 130,-119.5"/>
<text text-anchor="start" x="138" y="-148.5" font-family="Helvetica,sans-Serif" font-size="10.00">ArrayAllocationBase</text>
<text text-anchor="start" x="138" y="-137.5" font-family="Helvetica,sans-Serif" font-size="10.00">&lt; Steinberg::Vst::Event,</text>
<text text-anchor="middle" x="191" y="-126.5" font-family="Helvetica,sans-Serif" font-size="10.00"> CriticalSection &gt;</text>
</a>
</g>
</g>
<!-- Node1&#45;&gt;Node2 -->
<g id="edge1" class="edge"><title>Node1&#45;&gt;Node2</title>
<path fill="none" stroke="midnightblue" d="M74.0614,-93.3133C93.1469,-100.999 117.553,-110.827 139.046,-119.482"/>
<polygon fill="midnightblue" stroke="midnightblue" points="75.1931,-89.9959 64.6095,-89.5072 72.5783,-96.4893 75.1931,-89.9959"/>
</g>
<!-- Node3 -->
<g id="node3" class="node"><title>Node3</title>
<g id="a_node3"><a xlink:href="classArrayAllocationBase.html" target="_top" xlink:title="ArrayAllocationBase\l\&lt; Thread::Listener *,\l CriticalSection \&gt;">
<polygon fill="none" stroke="black" points="138,-59.5 138,-100.5 244,-100.5 244,-59.5 138,-59.5"/>
<text text-anchor="start" x="146" y="-88.5" font-family="Helvetica,sans-Serif" font-size="10.00">ArrayAllocationBase</text>
<text text-anchor="start" x="146" y="-77.5" font-family="Helvetica,sans-Serif" font-size="10.00">&lt; Thread::Listener *,</text>
<text text-anchor="middle" x="191" y="-66.5" font-family="Helvetica,sans-Serif" font-size="10.00"> CriticalSection &gt;</text>
</a>
</g>
</g>
<!-- Node1&#45;&gt;Node3 -->
<g id="edge2" class="edge"><title>Node1&#45;&gt;Node3</title>
<path fill="none" stroke="midnightblue" d="M90.4182,-80C105.673,-80 122.516,-80 137.943,-80"/>
<polygon fill="midnightblue" stroke="midnightblue" points="90.148,-76.5001 80.148,-80 90.148,-83.5001 90.148,-76.5001"/>
</g>
<!-- Node4 -->
<g id="node4" class="node"><title>Node4</title>
<g id="a_node4"><a xlink:href="classArrayAllocationBase.html" target="_top" xlink:title="ArrayAllocationBase\l\&lt; UnitTestRunner::TestResult\l *, CriticalSection \&gt;">
<polygon fill="none" stroke="black" points="116.5,0.5 116.5,-40.5 265.5,-40.5 265.5,0.5 116.5,0.5"/>
<text text-anchor="start" x="124.5" y="-28.5" font-family="Helvetica,sans-Serif" font-size="10.00">ArrayAllocationBase</text>
<text text-anchor="start" x="124.5" y="-17.5" font-family="Helvetica,sans-Serif" font-size="10.00">&lt; UnitTestRunner::TestResult</text>
<text text-anchor="middle" x="191" y="-6.5" font-family="Helvetica,sans-Serif" font-size="10.00"> *, CriticalSection &gt;</text>
</a>
</g>
</g>
<!-- Node1&#45;&gt;Node4 -->
<g id="edge3" class="edge"><title>Node1&#45;&gt;Node4</title>
<path fill="none" stroke="midnightblue" d="M74.0614,-66.6867C93.1469,-59.0012 117.553,-49.1731 139.046,-40.5184"/>
<polygon fill="midnightblue" stroke="midnightblue" points="72.5783,-63.5107 64.6095,-70.4928 75.1931,-70.0041 72.5783,-63.5107"/>
</g>
</g>
</svg>
