<?xml version="1.0" encoding="UTF-8" standalone="no"?>
<!DOCTYPE svg PUBLIC "-//W3C//DTD SVG 1.1//EN"
 "http://www.w3.org/Graphics/SVG/1.1/DTD/svg11.dtd">
<!-- Generated by graphviz version 2.36.0 (20140111.2315)
 -->
<!-- Title: juce::AudioIODeviceCallback Pages: 1 -->
<svg width="336pt" height="142pt"
 viewBox="0.00 0.00 336.00 142.00" xmlns="http://www.w3.org/2000/svg" xmlns:xlink="http://www.w3.org/1999/xlink">
<g id="graph0" class="graph" transform="scale(1 1) rotate(0) translate(4 138)">
<title>juce::AudioIODeviceCallback</title>
<!-- Node1 -->
<g id="node1" class="node"><title>Node1</title>
<polygon fill="#bfbfbf" stroke="black" points="0.5,-57.5 0.5,-76.5 145.5,-76.5 145.5,-57.5 0.5,-57.5"/>
<text text-anchor="middle" x="73" y="-64.5" font-family="Helvetica,sans-Serif" font-size="10.00">juce::AudioIODeviceCallback</text>
</g>
<!-- Node2 -->
<g id="node2" class="node"><title>Node2</title>
<g id="a_node2"><a xlink:href="classjuce_1_1AudioProcessorPlayer.html" target="_top" xlink:title="An AudioIODeviceCallback object which streams audio through an AudioProcessor. ">
<polygon fill="none" stroke="black" points="186.5,-114.5 186.5,-133.5 323.5,-133.5 323.5,-114.5 186.5,-114.5"/>
<text text-anchor="middle" x="255" y="-121.5" font-family="Helvetica,sans-Serif" font-size="10.00">juce::AudioProcessorPlayer</text>
</a>
</g>
</g>
<!-- Node1&#45;&gt;Node2 -->
<g id="edge1" class="edge"><title>Node1&#45;&gt;Node2</title>
<path fill="none" stroke="midnightblue" d="M109.031,-80.1283C130.05,-87.8041 157.397,-97.4388 182,-105 192.751,-108.304 204.51,-111.557 215.351,-114.411"/>
<polygon fill="midnightblue" stroke="midnightblue" points="110.15,-76.8107 99.5566,-76.6448 107.735,-83.3807 110.15,-76.8107"/>
</g>
<!-- Node3 -->
<g id="node3" class="node"><title>Node3</title>
<g id="a_node3"><a xlink:href="classjuce_1_1AudioSourcePlayer.html" target="_top" xlink:title="Wrapper class to continuously stream audio from an audio source to an AudioIODevice. ">
<polygon fill="none" stroke="black" points="193,-76.5 193,-95.5 317,-95.5 317,-76.5 193,-76.5"/>
<text text-anchor="middle" x="255" y="-83.5" font-family="Helvetica,sans-Serif" font-size="10.00">juce::AudioSourcePlayer</text>
</a>
</g>
</g>
<!-- Node1&#45;&gt;Node3 -->
<g id="edge2" class="edge"><title>Node1&#45;&gt;Node3</title>
<path fill="none" stroke="midnightblue" d="M155.606,-75.614C168.092,-76.9319 180.795,-78.2728 192.743,-79.534"/>
<polygon fill="midnightblue" stroke="midnightblue" points="155.97,-72.133 145.658,-74.5639 155.235,-79.0944 155.97,-72.133"/>
</g>
<!-- Node4 -->
<g id="node4" class="node"><title>Node4</title>
<g id="a_node4"><a xlink:href="classjuce_1_1SoundPlayer.html" target="_top" xlink:title="A simple sound player that you can add to the AudioDeviceManager to play simple sounds. ">
<polygon fill="none" stroke="black" points="207,-38.5 207,-57.5 303,-57.5 303,-38.5 207,-38.5"/>
<text text-anchor="middle" x="255" y="-45.5" font-family="Helvetica,sans-Serif" font-size="10.00">juce::SoundPlayer</text>
</a>
</g>
</g>
<!-- Node1&#45;&gt;Node4 -->
<g id="edge3" class="edge"><title>Node1&#45;&gt;Node4</title>
<path fill="none" stroke="midnightblue" d="M155.879,-58.3572C173.354,-56.5126 191.24,-54.6246 206.874,-52.9744"/>
<polygon fill="midnightblue" stroke="midnightblue" points="155.235,-54.9056 145.658,-59.4361 155.97,-61.867 155.235,-54.9056"/>
</g>
<!-- Node5 -->
<g id="node5" class="node"><title>Node5</title>
<g id="a_node5"><a xlink:href="classjuce_1_1StandalonePluginHolder.html" target="_top" xlink:title="An object that creates and plays a standalone instance of an AudioProcessor. ">
<polygon fill="none" stroke="black" points="182.5,-0.5 182.5,-19.5 327.5,-19.5 327.5,-0.5 182.5,-0.5"/>
<text text-anchor="middle" x="255" y="-7.5" font-family="Helvetica,sans-Serif" font-size="10.00">juce::StandalonePluginHolder</text>
</a>
</g>
</g>
<!-- Node1&#45;&gt;Node5 -->
<g id="edge4" class="edge"><title>Node1&#45;&gt;Node5</title>
<path fill="none" stroke="#8b1a1a" d="M109.031,-53.8717C130.05,-46.1959 157.397,-36.5612 182,-29 192.751,-25.6959 204.51,-22.4432 215.351,-19.5885"/>
<polygon fill="#8b1a1a" stroke="#8b1a1a" points="107.735,-50.6193 99.5566,-57.3552 110.15,-57.1893 107.735,-50.6193"/>
</g>
</g>
</svg>
