<?xml version="1.0" encoding="UTF-8" standalone="no"?>
<!DOCTYPE svg PUBLIC "-//W3C//DTD SVG 1.1//EN"
 "http://www.w3.org/Graphics/SVG/1.1/DTD/svg11.dtd">
<!-- Generated by graphviz version 2.36.0 (20140111.2315)
 -->
<!-- Title: AudioIODeviceCallback Pages: 1 -->
<svg width="468pt" height="84pt"
 viewBox="0.00 0.00 468.00 84.00" xmlns="http://www.w3.org/2000/svg" xmlns:xlink="http://www.w3.org/1999/xlink">
<g id="graph0" class="graph" transform="scale(1 1) rotate(0) translate(4 80)">
<title>AudioIODeviceCallback</title>
<!-- Node1 -->
<g id="node1" class="node"><title>Node1</title>
<polygon fill="#bfbfbf" stroke="black" points="172.5,-56.5 172.5,-75.5 293.5,-75.5 293.5,-56.5 172.5,-56.5"/>
<text text-anchor="middle" x="233" y="-63.5" font-family="Helvetica,sans-Serif" font-size="10.00">AudioIODeviceCallback</text>
</g>
<!-- Node2 -->
<g id="node2" class="node"><title>Node2</title>
<g id="a_node2"><a xlink:href="classAudioProcessorPlayer.html" target="_top" xlink:title="An AudioIODeviceCallback object which streams audio through an AudioProcessor. ">
<polygon fill="none" stroke="black" points="-0.5,-0.5 -0.5,-19.5 112.5,-19.5 112.5,-0.5 -0.5,-0.5"/>
<text text-anchor="middle" x="56" y="-7.5" font-family="Helvetica,sans-Serif" font-size="10.00">AudioProcessorPlayer</text>
</a>
</g>
</g>
<!-- Node1&#45;&gt;Node2 -->
<g id="edge1" class="edge"><title>Node1&#45;&gt;Node2</title>
<path fill="none" stroke="midnightblue" d="M195.097,-53.4363C161.725,-43.2551 113.899,-28.664 83.915,-19.5164"/>
<polygon fill="midnightblue" stroke="midnightblue" points="194.368,-56.8731 204.954,-56.4435 196.41,-50.1777 194.368,-56.8731"/>
</g>
<!-- Node3 -->
<g id="node3" class="node"><title>Node3</title>
<g id="a_node3"><a xlink:href="classAudioSourcePlayer.html" target="_top" xlink:title="Wrapper class to continuously stream audio from an audio source to an AudioIODevice. ">
<polygon fill="none" stroke="black" points="131,-0.5 131,-19.5 231,-19.5 231,-0.5 131,-0.5"/>
<text text-anchor="middle" x="181" y="-7.5" font-family="Helvetica,sans-Serif" font-size="10.00">AudioSourcePlayer</text>
</a>
</g>
</g>
<!-- Node1&#45;&gt;Node3 -->
<g id="edge2" class="edge"><title>Node1&#45;&gt;Node3</title>
<path fill="none" stroke="midnightblue" d="M217.321,-48.7175C208.155,-39.1997 196.947,-27.5608 189.427,-19.7511"/>
<polygon fill="midnightblue" stroke="midnightblue" points="214.956,-51.3075 224.413,-56.083 219.998,-46.452 214.956,-51.3075"/>
</g>
<!-- Node4 -->
<g id="node4" class="node"><title>Node4</title>
<g id="a_node4"><a xlink:href="classSoundPlayer.html" target="_top" xlink:title="A simple sound player that you can add to the AudioDeviceManager to play simple sounds. ">
<polygon fill="none" stroke="black" points="249,-0.5 249,-19.5 321,-19.5 321,-0.5 249,-0.5"/>
<text text-anchor="middle" x="285" y="-7.5" font-family="Helvetica,sans-Serif" font-size="10.00">SoundPlayer</text>
</a>
</g>
</g>
<!-- Node1&#45;&gt;Node4 -->
<g id="edge3" class="edge"><title>Node1&#45;&gt;Node4</title>
<path fill="none" stroke="midnightblue" d="M248.679,-48.7175C257.845,-39.1997 269.053,-27.5608 276.573,-19.7511"/>
<polygon fill="midnightblue" stroke="midnightblue" points="246.002,-46.452 241.587,-56.083 251.044,-51.3075 246.002,-46.452"/>
</g>
<!-- Node5 -->
<g id="node5" class="node"><title>Node5</title>
<g id="a_node5"><a xlink:href="classStandalonePluginHolder.html" target="_top" xlink:title="An object that creates and plays a standalone instance of an AudioProcessor. ">
<polygon fill="none" stroke="black" points="339.5,-0.5 339.5,-19.5 460.5,-19.5 460.5,-0.5 339.5,-0.5"/>
<text text-anchor="middle" x="400" y="-7.5" font-family="Helvetica,sans-Serif" font-size="10.00">StandalonePluginHolder</text>
</a>
</g>
</g>
<!-- Node1&#45;&gt;Node5 -->
<g id="edge4" class="edge"><title>Node1&#45;&gt;Node5</title>
<path fill="none" stroke="#8b1a1a" d="M269.17,-53.3044C300.637,-43.1294 345.494,-28.6246 373.662,-19.5164"/>
<polygon fill="#8b1a1a" stroke="#8b1a1a" points="267.9,-50.0366 259.462,-56.4435 270.053,-56.697 267.9,-50.0366"/>
</g>
</g>
</svg>
