<?xml version="1.0" encoding="UTF-8" standalone="no"?>
<!DOCTYPE svg PUBLIC "-//W3C//DTD SVG 1.1//EN"
 "http://www.w3.org/Graphics/SVG/1.1/DTD/svg11.dtd">
<!-- Generated by graphviz version 2.36.0 (20140111.2315)
 -->
<!-- Title: juce::BufferingAudioReader Pages: 1 -->
<svg width="264pt" height="84pt"
 viewBox="0.00 0.00 264.00 84.00" xmlns="http://www.w3.org/2000/svg" xmlns:xlink="http://www.w3.org/1999/xlink">
<g id="graph0" class="graph" transform="scale(1 1) rotate(0) translate(4 80)">
<title>juce::BufferingAudioReader</title>
<!-- Node1 -->
<g id="node1" class="node"><title>Node1</title>
<polygon fill="#bfbfbf" stroke="black" points="64,-0.5 64,-19.5 200,-19.5 200,-0.5 64,-0.5"/>
<text text-anchor="middle" x="132" y="-7.5" font-family="Helvetica,sans-Serif" font-size="10.00">juce::BufferingAudioReader</text>
</g>
<!-- Node2 -->
<g id="node2" class="node"><title>Node2</title>
<g id="a_node2"><a xlink:href="classjuce_1_1AudioFormatReader.html" target="_top" xlink:title="Reads samples from an audio file stream. ">
<polygon fill="none" stroke="black" points="0,-56.5 0,-75.5 128,-75.5 128,-56.5 0,-56.5"/>
<text text-anchor="middle" x="64" y="-63.5" font-family="Helvetica,sans-Serif" font-size="10.00">juce::AudioFormatReader</text>
</a>
</g>
</g>
<!-- Node2&#45;&gt;Node1 -->
<g id="edge1" class="edge"><title>Node2&#45;&gt;Node1</title>
<path fill="none" stroke="midnightblue" d="M82.762,-50.1008C94.9999,-40.3824 110.559,-28.0269 120.876,-19.8339"/>
<polygon fill="midnightblue" stroke="midnightblue" points="80.5799,-47.3642 74.9254,-56.324 84.9331,-52.846 80.5799,-47.3642"/>
</g>
<!-- Node3 -->
<g id="node3" class="node"><title>Node3</title>
<g id="a_node3"><a xlink:href="classjuce_1_1TimeSliceClient.html" target="_top" xlink:title="Used by the TimeSliceThread class. ">
<polygon fill="none" stroke="black" points="146,-56.5 146,-75.5 256,-75.5 256,-56.5 146,-56.5"/>
<text text-anchor="middle" x="201" y="-63.5" font-family="Helvetica,sans-Serif" font-size="10.00">juce::TimeSliceClient</text>
</a>
</g>
</g>
<!-- Node3&#45;&gt;Node1 -->
<g id="edge2" class="edge"><title>Node3&#45;&gt;Node1</title>
<path fill="none" stroke="#8b1a1a" d="M181.962,-50.1008C169.544,-40.3824 153.757,-28.0269 143.288,-19.8339"/>
<polygon fill="#8b1a1a" stroke="#8b1a1a" points="179.882,-52.9171 189.914,-56.324 184.196,-47.4046 179.882,-52.9171"/>
</g>
</g>
</svg>
