<?xml version="1.0" encoding="UTF-8" standalone="no"?>
<!DOCTYPE svg PUBLIC "-//W3C//DTD SVG 1.1//EN"
 "http://www.w3.org/Graphics/SVG/1.1/DTD/svg11.dtd">
<!-- Generated by graphviz version 2.36.0 (20140111.2315)
 -->
<!-- Title: juce::AudioDeviceSelectorComponent Pages: 1 -->
<svg width="446pt" height="180pt"
 viewBox="0.00 0.00 446.00 180.00" xmlns="http://www.w3.org/2000/svg" xmlns:xlink="http://www.w3.org/1999/xlink">
<g id="graph0" class="graph" transform="scale(1 1) rotate(0) translate(4 176)">
<title>juce::AudioDeviceSelectorComponent</title>
<!-- Node1 -->
<g id="node1" class="node"><title>Node1</title>
<polygon fill="#bfbfbf" stroke="black" points="306,-71 306,-101 438,-101 438,-71 306,-71"/>
<text text-anchor="start" x="314" y="-89" font-family="Helvetica,sans-Serif" font-size="10.00">juce::AudioDeviceSelector</text>
<text text-anchor="middle" x="372" y="-78" font-family="Helvetica,sans-Serif" font-size="10.00">Component</text>
</g>
<!-- Node2 -->
<g id="node2" class="node"><title>Node2</title>
<g id="a_node2"><a xlink:href="classjuce_1_1Component.html" target="_top" xlink:title="The base class for all JUCE user&#45;interface objects. ">
<polygon fill="none" stroke="black" points="159.5,-152.5 159.5,-171.5 250.5,-171.5 250.5,-152.5 159.5,-152.5"/>
<text text-anchor="middle" x="205" y="-159.5" font-family="Helvetica,sans-Serif" font-size="10.00">juce::Component</text>
</a>
</g>
</g>
<!-- Node2&#45;&gt;Node1 -->
<g id="edge1" class="edge"><title>Node2&#45;&gt;Node1</title>
<path fill="none" stroke="midnightblue" d="M253.057,-149.358C258.834,-147.418 264.6,-145.291 270,-143 297.803,-131.206 327.7,-113.664 347.692,-101.158"/>
<polygon fill="midnightblue" stroke="midnightblue" points="251.853,-146.068 243.389,-152.439 253.979,-152.737 251.853,-146.068"/>
</g>
<!-- Node3 -->
<g id="node3" class="node"><title>Node3</title>
<g id="a_node3"><a xlink:href="classjuce_1_1MouseListener.html" target="_top" xlink:title="A MouseListener can be registered with a component to receive callbacks about mouse events that happe...">
<polygon fill="none" stroke="black" points="0,-152.5 0,-171.5 104,-171.5 104,-152.5 0,-152.5"/>
<text text-anchor="middle" x="52" y="-159.5" font-family="Helvetica,sans-Serif" font-size="10.00">juce::MouseListener</text>
</a>
</g>
</g>
<!-- Node3&#45;&gt;Node2 -->
<g id="edge2" class="edge"><title>Node3&#45;&gt;Node2</title>
<path fill="none" stroke="midnightblue" d="M114.415,-162C129.507,-162 145.379,-162 159.499,-162"/>
<polygon fill="midnightblue" stroke="midnightblue" points="114.122,-158.5 104.122,-162 114.122,-165.5 114.122,-158.5"/>
</g>
<!-- Node4 -->
<g id="node4" class="node"><title>Node4</title>
<g id="a_node4"><a xlink:href="classjuce_1_1ChangeListener.html" target="_top" xlink:title="Receives change event callbacks that are sent out by a ChangeBroadcaster. ">
<polygon fill="none" stroke="black" points="150.5,-114.5 150.5,-133.5 259.5,-133.5 259.5,-114.5 150.5,-114.5"/>
<text text-anchor="middle" x="205" y="-121.5" font-family="Helvetica,sans-Serif" font-size="10.00">juce::ChangeListener</text>
</a>
</g>
</g>
<!-- Node4&#45;&gt;Node1 -->
<g id="edge3" class="edge"><title>Node4&#45;&gt;Node1</title>
<path fill="none" stroke="#8b1a1a" d="M257.454,-112.15C272.802,-108.615 289.829,-104.694 305.928,-100.986"/>
<polygon fill="#8b1a1a" stroke="#8b1a1a" points="256.596,-108.756 247.636,-114.411 258.167,-115.577 256.596,-108.756"/>
</g>
<!-- Node5 -->
<g id="node5" class="node"><title>Node5</title>
<g id="a_node5"><a xlink:href="classjuce_1_1ComboBox_1_1Listener.html" target="_top" xlink:title="A class for receiving events from a ComboBox. ">
<polygon fill="none" stroke="black" points="140,-76.5 140,-95.5 270,-95.5 270,-76.5 140,-76.5"/>
<text text-anchor="middle" x="205" y="-83.5" font-family="Helvetica,sans-Serif" font-size="10.00">juce::ComboBox::Listener</text>
</a>
</g>
</g>
<!-- Node5&#45;&gt;Node1 -->
<g id="edge4" class="edge"><title>Node5&#45;&gt;Node1</title>
<path fill="none" stroke="#8b1a1a" d="M280.493,-86C288.943,-86 297.506,-86 305.823,-86"/>
<polygon fill="#8b1a1a" stroke="#8b1a1a" points="280.266,-82.5001 270.266,-86 280.266,-89.5001 280.266,-82.5001"/>
</g>
<!-- Node6 -->
<g id="node6" class="node"><title>Node6</title>
<g id="a_node6"><a xlink:href="classjuce_1_1Button_1_1Listener.html" target="_top" xlink:title="Used to receive callbacks when a button is clicked. ">
<polygon fill="none" stroke="black" points="150,-38.5 150,-57.5 260,-57.5 260,-38.5 150,-38.5"/>
<text text-anchor="middle" x="205" y="-45.5" font-family="Helvetica,sans-Serif" font-size="10.00">juce::Button::Listener</text>
</a>
</g>
</g>
<!-- Node6&#45;&gt;Node1 -->
<g id="edge5" class="edge"><title>Node6&#45;&gt;Node1</title>
<path fill="none" stroke="#8b1a1a" d="M257.454,-59.8499C272.802,-63.3847 289.829,-67.3061 305.928,-71.0138"/>
<polygon fill="#8b1a1a" stroke="#8b1a1a" points="258.167,-56.4226 247.636,-57.589 256.596,-63.2441 258.167,-56.4226"/>
</g>
<!-- Node7 -->
<g id="node7" class="node"><title>Node7</title>
<g id="a_node7"><a xlink:href="classjuce_1_1Timer.html" target="_top" xlink:title="Makes repeated callbacks to a virtual method at a specified time interval. ">
<polygon fill="none" stroke="black" points="172.5,-0.5 172.5,-19.5 237.5,-19.5 237.5,-0.5 172.5,-0.5"/>
<text text-anchor="middle" x="205" y="-7.5" font-family="Helvetica,sans-Serif" font-size="10.00">juce::Timer</text>
</a>
</g>
</g>
<!-- Node7&#45;&gt;Node1 -->
<g id="edge6" class="edge"><title>Node7&#45;&gt;Node1</title>
<path fill="none" stroke="#8b1a1a" d="M247.539,-20.845C255.118,-23.2413 262.878,-25.9787 270,-29 297.803,-40.7942 327.7,-58.3365 347.692,-70.8416"/>
<polygon fill="#8b1a1a" stroke="#8b1a1a" points="248.331,-17.4283 237.746,-17.8962 246.312,-24.131 248.331,-17.4283"/>
</g>
</g>
</svg>
