<?xml version="1.0" encoding="UTF-8" standalone="no"?>
<!DOCTYPE svg PUBLIC "-//W3C//DTD SVG 1.1//EN"
 "http://www.w3.org/Graphics/SVG/1.1/DTD/svg11.dtd">
<!-- Generated by graphviz version 2.36.0 (20140111.2315)
 -->
<!-- Title: juce::DragAndDropTarget Pages: 1 -->
<svg width="203pt" height="140pt"
 viewBox="0.00 0.00 203.00 140.00" xmlns="http://www.w3.org/2000/svg" xmlns:xlink="http://www.w3.org/1999/xlink">
<g id="graph0" class="graph" transform="scale(1 1) rotate(0) translate(4 136)">
<title>juce::DragAndDropTarget</title>
<!-- Node1 -->
<g id="node1" class="node"><title>Node1</title>
<polygon fill="#bfbfbf" stroke="black" points="20,-112.5 20,-131.5 148,-131.5 148,-112.5 20,-112.5"/>
<text text-anchor="middle" x="84" y="-119.5" font-family="Helvetica,sans-Serif" font-size="10.00">juce::DragAndDropTarget</text>
</g>
<!-- Node2 -->
<g id="node2" class="node"><title>Node2</title>
<g id="a_node2"><a xlink:href="classjuce_1_1Toolbar.html" target="_top" xlink:title="A toolbar component. ">
<polygon fill="none" stroke="black" points="-0.5,-56.5 -0.5,-75.5 72.5,-75.5 72.5,-56.5 -0.5,-56.5"/>
<text text-anchor="middle" x="36" y="-63.5" font-family="Helvetica,sans-Serif" font-size="10.00">juce::Toolbar</text>
</a>
</g>
</g>
<!-- Node1&#45;&gt;Node2 -->
<g id="edge1" class="edge"><title>Node1&#45;&gt;Node2</title>
<path fill="none" stroke="midnightblue" d="M69.2723,-104.431C60.8599,-94.9673 50.6513,-83.4827 43.7787,-75.7511"/>
<polygon fill="midnightblue" stroke="midnightblue" points="66.8142,-106.934 76.0738,-112.083 72.046,-102.284 66.8142,-106.934"/>
</g>
<!-- Node3 -->
<g id="node3" class="node"><title>Node3</title>
<g id="a_node3"><a xlink:href="classjuce_1_1TreeView.html" target="_top" xlink:title="A tree&#45;view component. ">
<polygon fill="none" stroke="black" points="91,-56.5 91,-75.5 173,-75.5 173,-56.5 91,-56.5"/>
<text text-anchor="middle" x="132" y="-63.5" font-family="Helvetica,sans-Serif" font-size="10.00">juce::TreeView</text>
</a>
</g>
</g>
<!-- Node1&#45;&gt;Node3 -->
<g id="edge2" class="edge"><title>Node1&#45;&gt;Node3</title>
<path fill="none" stroke="midnightblue" d="M98.7277,-104.431C107.14,-94.9673 117.349,-83.4827 124.221,-75.7511"/>
<polygon fill="midnightblue" stroke="midnightblue" points="95.954,-102.284 91.9262,-112.083 101.186,-106.934 95.954,-102.284"/>
</g>
<!-- Node4 -->
<g id="node4" class="node"><title>Node4</title>
<g id="a_node4"><a xlink:href="classjuce_1_1FileTreeComponent.html" target="_top" xlink:title="A component that displays the files in a directory as a treeview. ">
<polygon fill="none" stroke="black" points="69,-0.5 69,-19.5 195,-19.5 195,-0.5 69,-0.5"/>
<text text-anchor="middle" x="132" y="-7.5" font-family="Helvetica,sans-Serif" font-size="10.00">juce::FileTreeComponent</text>
</a>
</g>
</g>
<!-- Node3&#45;&gt;Node4 -->
<g id="edge3" class="edge"><title>Node3&#45;&gt;Node4</title>
<path fill="none" stroke="midnightblue" d="M132,-45.8045C132,-36.9102 132,-26.7798 132,-19.7511"/>
<polygon fill="midnightblue" stroke="midnightblue" points="128.5,-46.083 132,-56.083 135.5,-46.083 128.5,-46.083"/>
</g>
</g>
</svg>
