<?xml version="1.0" encoding="UTF-8" standalone="no"?>
<!DOCTYPE svg PUBLIC "-//W3C//DTD SVG 1.1//EN"
 "http://www.w3.org/Graphics/SVG/1.1/DTD/svg11.dtd">
<!-- Generated by graphviz version 2.36.0 (20140111.2315)
 -->
<!-- Title: MidiKeyboardComponent Pages: 1 -->
<svg width="384pt" height="152pt"
 viewBox="0.00 0.00 384.00 152.00" xmlns="http://www.w3.org/2000/svg" xmlns:xlink="http://www.w3.org/1999/xlink">
<g id="graph0" class="graph" transform="scale(1 1) rotate(0) translate(4 148)">
<title>MidiKeyboardComponent</title>
<!-- Node1 -->
<g id="node1" class="node"><title>Node1</title>
<polygon fill="#bfbfbf" stroke="black" points="142,-0.5 142,-19.5 268,-19.5 268,-0.5 142,-0.5"/>
<text text-anchor="middle" x="205" y="-7.5" font-family="Helvetica,sans-Serif" font-size="10.00">MidiKeyboardComponent</text>
</g>
<!-- Node2 -->
<g id="node2" class="node"><title>Node2</title>
<g id="a_node2"><a xlink:href="classComponent.html" target="_top" xlink:title="The base class for all JUCE user&#45;interface objects. ">
<polygon fill="none" stroke="black" points="6.5,-62.5 6.5,-81.5 73.5,-81.5 73.5,-62.5 6.5,-62.5"/>
<text text-anchor="middle" x="40" y="-69.5" font-family="Helvetica,sans-Serif" font-size="10.00">Component</text>
</a>
</g>
</g>
<!-- Node2&#45;&gt;Node1 -->
<g id="edge1" class="edge"><title>Node2&#45;&gt;Node1</title>
<path fill="none" stroke="midnightblue" d="M73.0478,-58.9826C105.121,-47.3197 152.998,-29.91 181.403,-19.5806"/>
<polygon fill="midnightblue" stroke="midnightblue" points="71.8423,-55.6967 63.6405,-62.4035 74.2345,-62.2752 71.8423,-55.6967"/>
</g>
<!-- Node3 -->
<g id="node3" class="node"><title>Node3</title>
<g id="a_node3"><a xlink:href="classMouseListener.html" target="_top" xlink:title="A MouseListener can be registered with a component to receive callbacks about mouse events that happe...">
<polygon fill="none" stroke="black" points="0,-124.5 0,-143.5 80,-143.5 80,-124.5 0,-124.5"/>
<text text-anchor="middle" x="40" y="-131.5" font-family="Helvetica,sans-Serif" font-size="10.00">MouseListener</text>
</a>
</g>
</g>
<!-- Node3&#45;&gt;Node2 -->
<g id="edge2" class="edge"><title>Node3&#45;&gt;Node2</title>
<path fill="none" stroke="midnightblue" d="M40,-114.16C40,-103.248 40,-90.04 40,-81.5806"/>
<polygon fill="midnightblue" stroke="midnightblue" points="36.5001,-114.403 40,-124.403 43.5001,-114.403 36.5001,-114.403"/>
</g>
<!-- Node4 -->
<g id="node4" class="node"><title>Node4</title>
<g id="a_node4"><a xlink:href="classMidiKeyboardState_1_1Listener.html" target="_top" xlink:title="Receives events from a MidiKeyboardState object. ">
<polygon fill="none" stroke="black" points="91.5,-57 91.5,-87 196.5,-87 196.5,-57 91.5,-57"/>
<text text-anchor="start" x="99.5" y="-75" font-family="Helvetica,sans-Serif" font-size="10.00">MidiKeyboardState::</text>
<text text-anchor="middle" x="144" y="-64" font-family="Helvetica,sans-Serif" font-size="10.00">Listener</text>
</a>
</g>
</g>
<!-- Node4&#45;&gt;Node1 -->
<g id="edge3" class="edge"><title>Node4&#45;&gt;Node1</title>
<path fill="none" stroke="midnightblue" d="M165.734,-49.622C176.204,-39.3242 188.179,-27.5451 196.124,-19.7305"/>
<polygon fill="midnightblue" stroke="midnightblue" points="163.131,-47.2732 158.456,-56.7808 168.04,-52.2637 163.131,-47.2732"/>
</g>
<!-- Node5 -->
<g id="node5" class="node"><title>Node5</title>
<g id="a_node5"><a xlink:href="classChangeBroadcaster.html" target="_top" xlink:title="Holds a list of ChangeListeners, and sends messages to them when instructed. ">
<polygon fill="none" stroke="black" points="214.5,-62.5 214.5,-81.5 317.5,-81.5 317.5,-62.5 214.5,-62.5"/>
<text text-anchor="middle" x="266" y="-69.5" font-family="Helvetica,sans-Serif" font-size="10.00">ChangeBroadcaster</text>
</a>
</g>
</g>
<!-- Node5&#45;&gt;Node1 -->
<g id="edge4" class="edge"><title>Node5&#45;&gt;Node1</title>
<path fill="none" stroke="midnightblue" d="M249.929,-55.1928C238.34,-43.7935 223.139,-28.8414 213.724,-19.5806"/>
<polygon fill="midnightblue" stroke="midnightblue" points="247.677,-57.8863 257.26,-62.4035 252.585,-52.8958 247.677,-57.8863"/>
</g>
<!-- Node6 -->
<g id="node6" class="node"><title>Node6</title>
<g id="a_node6"><a xlink:href="classTimer.html" target="_top" xlink:title="Makes repeated callbacks to a virtual method at a specified time interval. ">
<polygon fill="none" stroke="black" points="335.5,-62.5 335.5,-81.5 376.5,-81.5 376.5,-62.5 335.5,-62.5"/>
<text text-anchor="middle" x="356" y="-69.5" font-family="Helvetica,sans-Serif" font-size="10.00">Timer</text>
</a>
</g>
</g>
<!-- Node6&#45;&gt;Node1 -->
<g id="edge5" class="edge"><title>Node6&#45;&gt;Node1</title>
<path fill="none" stroke="#8b1a1a" d="M330.269,-57.9125C328.832,-57.251 327.402,-56.6091 326,-56 293.521,-41.8893 255.042,-28.0551 230.341,-19.5311"/>
<polygon fill="#8b1a1a" stroke="#8b1a1a" points="329.117,-61.2423 339.646,-62.4247 332.153,-54.9346 329.117,-61.2423"/>
</g>
</g>
</svg>
