<?xml version="1.0" encoding="UTF-8" standalone="no"?>
<!DOCTYPE svg PUBLIC "-//W3C//DTD SVG 1.1//EN"
 "http://www.w3.org/Graphics/SVG/1.1/DTD/svg11.dtd">
<!-- Generated by graphviz version 2.36.0 (20140111.2315)
 -->
<!-- Title: AudioFormatReader Pages: 1 -->
<svg width="322pt" height="142pt"
 viewBox="0.00 0.00 322.00 142.00" xmlns="http://www.w3.org/2000/svg" xmlns:xlink="http://www.w3.org/1999/xlink">
<g id="graph0" class="graph" transform="scale(1 1) rotate(0) translate(4 138)">
<title>AudioFormatReader</title>
<!-- Node1 -->
<g id="node1" class="node"><title>Node1</title>
<polygon fill="#bfbfbf" stroke="black" points="0,-57.5 0,-76.5 104,-76.5 104,-57.5 0,-57.5"/>
<text text-anchor="middle" x="52" y="-64.5" font-family="Helvetica,sans-Serif" font-size="10.00">AudioFormatReader</text>
</g>
<!-- Node2 -->
<g id="node2" class="node"><title>Node2</title>
<g id="a_node2"><a xlink:href="group__juce__audio__utils-audio__cd.html#classAudioCDReader" target="_top" xlink:title="A type of AudioFormatReader that reads from an audio CD. ">
<polygon fill="none" stroke="black" points="183,-114.5 183,-133.5 271,-133.5 271,-114.5 183,-114.5"/>
<text text-anchor="middle" x="227" y="-121.5" font-family="Helvetica,sans-Serif" font-size="10.00">AudioCDReader</text>
</a>
</g>
</g>
<!-- Node1&#45;&gt;Node2 -->
<g id="edge1" class="edge"><title>Node1&#45;&gt;Node2</title>
<path fill="none" stroke="midnightblue" d="M81.1663,-80.9683C97.9389,-88.8622 119.823,-98.4339 140,-105 153.668,-109.448 168.893,-113.191 182.69,-116.147"/>
<polygon fill="midnightblue" stroke="midnightblue" points="82.4644,-77.7093 71.9332,-76.5497 79.4426,-84.0236 82.4644,-77.7093"/>
</g>
<!-- Node3 -->
<g id="node3" class="node"><title>Node3</title>
<g id="a_node3"><a xlink:href="group__juce__audio__formats-format.html#classAudioSubsectionReader" target="_top" xlink:title="This class is used to wrap an AudioFormatReader and only read from a subsection of the file...">
<polygon fill="none" stroke="black" points="166,-76.5 166,-95.5 288,-95.5 288,-76.5 166,-76.5"/>
<text text-anchor="middle" x="227" y="-83.5" font-family="Helvetica,sans-Serif" font-size="10.00">AudioSubsectionReader</text>
</a>
</g>
</g>
<!-- Node1&#45;&gt;Node3 -->
<g id="edge2" class="edge"><title>Node1&#45;&gt;Node3</title>
<path fill="none" stroke="midnightblue" d="M114.625,-73.768C131.306,-75.6001 149.336,-77.5803 165.931,-79.4028"/>
<polygon fill="midnightblue" stroke="midnightblue" points="114.76,-70.2619 104.437,-72.6492 113.995,-77.2201 114.76,-70.2619"/>
</g>
<!-- Node4 -->
<g id="node4" class="node"><title>Node4</title>
<g id="a_node4"><a xlink:href="group__juce__audio__formats-format.html#classBufferingAudioReader" target="_top" xlink:title="An AudioFormatReader that uses a background thread to pre&#45;read data from another reader. ">
<polygon fill="none" stroke="black" points="171,-38.5 171,-57.5 283,-57.5 283,-38.5 171,-38.5"/>
<text text-anchor="middle" x="227" y="-45.5" font-family="Helvetica,sans-Serif" font-size="10.00">BufferingAudioReader</text>
</a>
</g>
</g>
<!-- Node1&#45;&gt;Node4 -->
<g id="edge3" class="edge"><title>Node1&#45;&gt;Node4</title>
<path fill="none" stroke="midnightblue" d="M114.459,-60.2501C132.847,-58.2306 152.887,-56.0297 170.844,-54.0576"/>
<polygon fill="midnightblue" stroke="midnightblue" points="113.995,-56.7799 104.437,-61.3508 114.76,-63.7381 113.995,-56.7799"/>
</g>
<!-- Node5 -->
<g id="node5" class="node"><title>Node5</title>
<g id="a_node5"><a xlink:href="group__juce__audio__formats-format.html#classMemoryMappedAudioFormatReader" target="_top" xlink:title="A specialised type of AudioFormatReader that uses a MemoryMappedFile to read directly from an audio f...">
<polygon fill="none" stroke="black" points="140.5,-0.5 140.5,-19.5 313.5,-19.5 313.5,-0.5 140.5,-0.5"/>
<text text-anchor="middle" x="227" y="-7.5" font-family="Helvetica,sans-Serif" font-size="10.00">MemoryMappedAudioFormatReader</text>
</a>
</g>
</g>
<!-- Node1&#45;&gt;Node5 -->
<g id="edge4" class="edge"><title>Node1&#45;&gt;Node5</title>
<path fill="none" stroke="midnightblue" d="M81.1663,-53.0317C97.9389,-45.1378 119.823,-35.5661 140,-29 151.196,-25.3565 163.437,-22.1859 175.082,-19.5333"/>
<polygon fill="midnightblue" stroke="midnightblue" points="79.4426,-49.9764 71.9332,-57.4503 82.4644,-56.2907 79.4426,-49.9764"/>
</g>
</g>
</svg>
