<?xml version="1.0" encoding="UTF-8" standalone="no"?>
<!DOCTYPE svg PUBLIC "-//W3C//DTD SVG 1.1//EN"
 "http://www.w3.org/Graphics/SVG/1.1/DTD/svg11.dtd">
<!-- Generated by graphviz version 2.36.0 (20140111.2315)
 -->
<!-- Title: MidiMessageCollector Pages: 1 -->
<svg width="255pt" height="84pt"
 viewBox="0.00 0.00 255.00 84.00" xmlns="http://www.w3.org/2000/svg" xmlns:xlink="http://www.w3.org/1999/xlink">
<g id="graph0" class="graph" transform="scale(1 1) rotate(0) translate(4 80)">
<title>MidiMessageCollector</title>
<!-- Node1 -->
<g id="node1" class="node"><title>Node1</title>
<polygon fill="#bfbfbf" stroke="black" points="76.5,-0.5 76.5,-19.5 189.5,-19.5 189.5,-0.5 76.5,-0.5"/>
<text text-anchor="middle" x="133" y="-7.5" font-family="Helvetica,sans-Serif" font-size="10.00">MidiMessageCollector</text>
</g>
<!-- Node2 -->
<g id="node2" class="node"><title>Node2</title>
<g id="a_node2"><a xlink:href="classMidiKeyboardStateListener.html" target="_top" xlink:title="Receives events from a MidiKeyboardState object. ">
<polygon fill="none" stroke="black" points="0,-56.5 0,-75.5 134,-75.5 134,-56.5 0,-56.5"/>
<text text-anchor="middle" x="67" y="-63.5" font-family="Helvetica,sans-Serif" font-size="10.00">MidiKeyboardStateListener</text>
</a>
</g>
</g>
<!-- Node2&#45;&gt;Node1 -->
<g id="edge1" class="edge"><title>Node2&#45;&gt;Node1</title>
<path fill="none" stroke="midnightblue" d="M85.5537,-49.8197C97.3781,-40.1452 112.286,-27.9481 122.203,-19.8339"/>
<polygon fill="midnightblue" stroke="midnightblue" points="83.1273,-47.2827 77.604,-56.324 87.56,-52.7004 83.1273,-47.2827"/>
</g>
<!-- Node3 -->
<g id="node3" class="node"><title>Node3</title>
<g id="a_node3"><a xlink:href="classMidiInputCallback.html" target="_top" xlink:title="Receives incoming messages from a physical MIDI input device. ">
<polygon fill="none" stroke="black" points="152.5,-56.5 152.5,-75.5 247.5,-75.5 247.5,-56.5 152.5,-56.5"/>
<text text-anchor="middle" x="200" y="-63.5" font-family="Helvetica,sans-Serif" font-size="10.00">MidiInputCallback</text>
</a>
</g>
</g>
<!-- Node3&#45;&gt;Node1 -->
<g id="edge2" class="edge"><title>Node3&#45;&gt;Node1</title>
<path fill="none" stroke="midnightblue" d="M181.165,-49.8197C169.162,-40.1452 154.028,-27.9481 143.961,-19.8339"/>
<polygon fill="midnightblue" stroke="midnightblue" points="179.253,-52.7738 189.235,-56.324 183.646,-47.3236 179.253,-52.7738"/>
</g>
</g>
</svg>
