<?xml version="1.0" encoding="UTF-8" standalone="no"?>
<!DOCTYPE svg PUBLIC "-//W3C//DTD SVG 1.1//EN"
 "http://www.w3.org/Graphics/SVG/1.1/DTD/svg11.dtd">
<!-- Generated by graphviz version 2.36.0 (20140111.2315)
 -->
<!-- Title: juce::MidiKeyboardStateListener Pages: 1 -->
<svg width="313pt" height="84pt"
 viewBox="0.00 0.00 313.00 84.00" xmlns="http://www.w3.org/2000/svg" xmlns:xlink="http://www.w3.org/1999/xlink">
<g id="graph0" class="graph" transform="scale(1 1) rotate(0) translate(4 80)">
<title>juce::MidiKeyboardStateListener</title>
<!-- Node1 -->
<g id="node1" class="node"><title>Node1</title>
<polygon fill="#bfbfbf" stroke="black" points="77,-56.5 77,-75.5 235,-75.5 235,-56.5 77,-56.5"/>
<text text-anchor="middle" x="156" y="-63.5" font-family="Helvetica,sans-Serif" font-size="10.00">juce::MidiKeyboardStateListener</text>
</g>
<!-- Node2 -->
<g id="node2" class="node"><title>Node2</title>
<g id="a_node2"><a xlink:href="classjuce_1_1MidiKeyboardComponent.html" target="_top" xlink:title="A component that displays a piano keyboard, whose notes can be clicked on. ">
<polygon fill="none" stroke="black" points="0,-0.5 0,-19.5 150,-19.5 150,-0.5 0,-0.5"/>
<text text-anchor="middle" x="75" y="-7.5" font-family="Helvetica,sans-Serif" font-size="10.00">juce::MidiKeyboardComponent</text>
</a>
</g>
</g>
<!-- Node1&#45;&gt;Node2 -->
<g id="edge1" class="edge"><title>Node1&#45;&gt;Node2</title>
<path fill="none" stroke="midnightblue" d="M134.433,-50.6221C119.636,-40.7574 100.488,-27.9919 87.9818,-19.6545"/>
<polygon fill="midnightblue" stroke="midnightblue" points="132.724,-53.6891 142.986,-56.324 136.607,-47.8647 132.724,-53.6891"/>
</g>
<!-- Node3 -->
<g id="node3" class="node"><title>Node3</title>
<g id="a_node3"><a xlink:href="classjuce_1_1MidiMessageCollector.html" target="_top" xlink:title="Collects incoming realtime MIDI messages and turns them into blocks suitable for processing by a bloc...">
<polygon fill="none" stroke="black" points="168.5,-0.5 168.5,-19.5 305.5,-19.5 305.5,-0.5 168.5,-0.5"/>
<text text-anchor="middle" x="237" y="-7.5" font-family="Helvetica,sans-Serif" font-size="10.00">juce::MidiMessageCollector</text>
</a>
</g>
</g>
<!-- Node1&#45;&gt;Node3 -->
<g id="edge2" class="edge"><title>Node1&#45;&gt;Node3</title>
<path fill="none" stroke="midnightblue" d="M177.567,-50.6221C192.364,-40.7574 211.512,-27.9919 224.018,-19.6545"/>
<polygon fill="midnightblue" stroke="midnightblue" points="175.393,-47.8647 169.014,-56.324 179.276,-53.6891 175.393,-47.8647"/>
</g>
</g>
</svg>
