<?xml version="1.0" encoding="UTF-8" standalone="no"?>
<!DOCTYPE svg PUBLIC "-//W3C//DTD SVG 1.1//EN"
 "http://www.w3.org/Graphics/SVG/1.1/DTD/svg11.dtd">
<!-- Generated by graphviz version 2.36.0 (20140111.2315)
 -->
<!-- Title: DrawableRectangle Pages: 1 -->
<svg width="242pt" height="252pt"
 viewBox="0.00 0.00 242.00 252.00" xmlns="http://www.w3.org/2000/svg" xmlns:xlink="http://www.w3.org/1999/xlink">
<g id="graph0" class="graph" transform="scale(1 1) rotate(0) translate(4 248)">
<title>DrawableRectangle</title>
<!-- Node1 -->
<g id="node1" class="node"><title>Node1</title>
<polygon fill="#bfbfbf" stroke="black" points="50,-0.5 50,-19.5 152,-19.5 152,-0.5 50,-0.5"/>
<text text-anchor="middle" x="101" y="-7.5" font-family="Helvetica,sans-Serif" font-size="10.00">DrawableRectangle</text>
</g>
<!-- Node2 -->
<g id="node2" class="node"><title>Node2</title>
<g id="a_node2"><a xlink:href="classDrawableShape.html" target="_top" xlink:title="A base class implementing common functionality for Drawable classes which consist of some kind of fil...">
<polygon fill="none" stroke="black" points="58,-56.5 58,-75.5 144,-75.5 144,-56.5 58,-56.5"/>
<text text-anchor="middle" x="101" y="-63.5" font-family="Helvetica,sans-Serif" font-size="10.00">DrawableShape</text>
</a>
</g>
</g>
<!-- Node2&#45;&gt;Node1 -->
<g id="edge1" class="edge"><title>Node2&#45;&gt;Node1</title>
<path fill="none" stroke="midnightblue" d="M101,-45.8045C101,-36.9102 101,-26.7798 101,-19.7511"/>
<polygon fill="midnightblue" stroke="midnightblue" points="97.5001,-46.083 101,-56.083 104.5,-46.083 97.5001,-46.083"/>
</g>
<!-- Node3 -->
<g id="node3" class="node"><title>Node3</title>
<g id="a_node3"><a xlink:href="classDrawable.html" target="_top" xlink:title="The base class for objects which can draw themselves, e.g. ">
<polygon fill="none" stroke="black" points="72,-112.5 72,-131.5 130,-131.5 130,-112.5 72,-112.5"/>
<text text-anchor="middle" x="101" y="-119.5" font-family="Helvetica,sans-Serif" font-size="10.00">Drawable</text>
</a>
</g>
</g>
<!-- Node3&#45;&gt;Node2 -->
<g id="edge2" class="edge"><title>Node3&#45;&gt;Node2</title>
<path fill="none" stroke="midnightblue" d="M101,-101.805C101,-92.9102 101,-82.7798 101,-75.7511"/>
<polygon fill="midnightblue" stroke="midnightblue" points="97.5001,-102.083 101,-112.083 104.5,-102.083 97.5001,-102.083"/>
</g>
<!-- Node4 -->
<g id="node4" class="node"><title>Node4</title>
<g id="a_node4"><a xlink:href="classComponent.html" target="_top" xlink:title="The base class for all JUCE user&#45;interface objects. ">
<polygon fill="none" stroke="black" points="6.5,-168.5 6.5,-187.5 73.5,-187.5 73.5,-168.5 6.5,-168.5"/>
<text text-anchor="middle" x="40" y="-175.5" font-family="Helvetica,sans-Serif" font-size="10.00">Component</text>
</a>
</g>
</g>
<!-- Node4&#45;&gt;Node3 -->
<g id="edge3" class="edge"><title>Node4&#45;&gt;Node3</title>
<path fill="none" stroke="midnightblue" d="M57.4672,-161.537C68.3438,-151.909 81.9439,-139.869 91.021,-131.834"/>
<polygon fill="midnightblue" stroke="midnightblue" points="54.9684,-159.075 49.8007,-168.324 59.6083,-164.316 54.9684,-159.075"/>
</g>
<!-- Node5 -->
<g id="node5" class="node"><title>Node5</title>
<g id="a_node5"><a xlink:href="classMouseListener.html" target="_top" xlink:title="A MouseListener can be registered with a component to receive callbacks about mouse events that happe...">
<polygon fill="none" stroke="black" points="0,-224.5 0,-243.5 80,-243.5 80,-224.5 0,-224.5"/>
<text text-anchor="middle" x="40" y="-231.5" font-family="Helvetica,sans-Serif" font-size="10.00">MouseListener</text>
</a>
</g>
</g>
<!-- Node5&#45;&gt;Node4 -->
<g id="edge4" class="edge"><title>Node5&#45;&gt;Node4</title>
<path fill="none" stroke="midnightblue" d="M40,-213.805C40,-204.91 40,-194.78 40,-187.751"/>
<polygon fill="midnightblue" stroke="midnightblue" points="36.5001,-214.083 40,-224.083 43.5001,-214.083 36.5001,-214.083"/>
</g>
<!-- Node6 -->
<g id="node6" class="node"><title>Node6</title>
<g id="a_node6"><a xlink:href="structMarkerList_1_1MarkerListHolder.html" target="_top" xlink:title="A base class for objects that want to provide a MarkerList. ">
<polygon fill="none" stroke="black" points="91.5,-168.5 91.5,-187.5 234.5,-187.5 234.5,-168.5 91.5,-168.5"/>
<text text-anchor="middle" x="163" y="-175.5" font-family="Helvetica,sans-Serif" font-size="10.00">MarkerList::MarkerListHolder</text>
</a>
</g>
</g>
<!-- Node6&#45;&gt;Node3 -->
<g id="edge5" class="edge"><title>Node6&#45;&gt;Node3</title>
<path fill="none" stroke="midnightblue" d="M145.246,-161.537C134.192,-151.909 120.369,-139.869 111.143,-131.834"/>
<polygon fill="midnightblue" stroke="midnightblue" points="143.199,-164.395 153.039,-168.324 147.797,-159.117 143.199,-164.395"/>
</g>
</g>
</svg>
