<?xml version="1.0" encoding="UTF-8" standalone="no"?>
<!DOCTYPE svg PUBLIC "-//W3C//DTD SVG 1.1//EN"
 "http://www.w3.org/Graphics/SVG/1.1/DTD/svg11.dtd">
<!-- Generated by graphviz version 2.36.0 (20140111.2315)
 -->
<!-- Title: juce::TooltipClient Pages: 1 -->
<svg width="778pt" height="642pt"
 viewBox="0.00 0.00 778.00 642.00" xmlns="http://www.w3.org/2000/svg" xmlns:xlink="http://www.w3.org/1999/xlink">
<g id="graph0" class="graph" transform="scale(1 1) rotate(0) translate(4 638)">
<title>juce::TooltipClient</title>
<!-- Node1 -->
<g id="node1" class="node"><title>Node1</title>
<polygon fill="#bfbfbf" stroke="black" points="0.5,-241.5 0.5,-260.5 95.5,-260.5 95.5,-241.5 0.5,-241.5"/>
<text text-anchor="middle" x="48" y="-248.5" font-family="Helvetica,sans-Serif" font-size="10.00">juce::TooltipClient</text>
</g>
<!-- Node2 -->
<g id="node2" class="node"><title>Node2</title>
<g id="a_node2"><a xlink:href="classjuce_1_1SettableTooltipClient.html" target="_top" xlink:title="An implementation of TooltipClient that stores the tooltip string and a method for changing it...">
<polygon fill="none" stroke="black" points="132.5,-241.5 132.5,-260.5 263.5,-260.5 263.5,-241.5 132.5,-241.5"/>
<text text-anchor="middle" x="198" y="-248.5" font-family="Helvetica,sans-Serif" font-size="10.00">juce::SettableTooltipClient</text>
</a>
</g>
</g>
<!-- Node1&#45;&gt;Node2 -->
<g id="edge1" class="edge"><title>Node1&#45;&gt;Node2</title>
<path fill="none" stroke="midnightblue" d="M105.832,-251C114.511,-251 123.523,-251 132.354,-251"/>
<polygon fill="midnightblue" stroke="midnightblue" points="105.828,-247.5 95.8281,-251 105.828,-254.5 105.828,-247.5"/>
</g>
<!-- Node3 -->
<g id="node3" class="node"><title>Node3</title>
<g id="a_node3"><a xlink:href="classjuce_1_1Button.html" target="_top" xlink:title="A base class for buttons. ">
<polygon fill="none" stroke="black" points="331.5,-462.5 331.5,-481.5 400.5,-481.5 400.5,-462.5 331.5,-462.5"/>
<text text-anchor="middle" x="366" y="-469.5" font-family="Helvetica,sans-Serif" font-size="10.00">juce::Button</text>
</a>
</g>
</g>
<!-- Node2&#45;&gt;Node3 -->
<g id="edge2" class="edge"><title>Node2&#45;&gt;Node3</title>
<path fill="none" stroke="midnightblue" d="M203.245,-270.646C212.997,-311.008 240.856,-403.61 300,-453 308.844,-460.385 320.442,-464.9 331.39,-467.661"/>
<polygon fill="midnightblue" stroke="midnightblue" points="206.616,-269.687 200.963,-260.726 199.794,-271.256 206.616,-269.687"/>
</g>
<!-- Node14 -->
<g id="node14" class="node"><title>Node14</title>
<g id="a_node14"><a xlink:href="classjuce_1_1ComboBox.html" target="_top" xlink:title="A component that lets the user choose from a drop&#45;down list of choices. ">
<polygon fill="none" stroke="black" points="321.5,-424.5 321.5,-443.5 410.5,-443.5 410.5,-424.5 321.5,-424.5"/>
<text text-anchor="middle" x="366" y="-431.5" font-family="Helvetica,sans-Serif" font-size="10.00">juce::ComboBox</text>
</a>
</g>
</g>
<!-- Node2&#45;&gt;Node14 -->
<g id="edge13" class="edge"><title>Node2&#45;&gt;Node14</title>
<path fill="none" stroke="midnightblue" d="M205.707,-270.675C218.484,-305.178 249.619,-376.573 300,-415 306.263,-419.777 313.7,-423.355 321.268,-426.035"/>
<polygon fill="midnightblue" stroke="midnightblue" points="208.861,-269.099 202.203,-260.858 202.269,-271.452 208.861,-269.099"/>
</g>
<!-- Node15 -->
<g id="node15" class="node"><title>Node15</title>
<g id="a_node15"><a xlink:href="classjuce_1_1FilenameComponent.html" target="_top" xlink:title="Shows a filename as an editable text box, with a &#39;browse&#39; button and a drop&#45;down list for recently se...">
<polygon fill="none" stroke="black" points="300.5,-386.5 300.5,-405.5 431.5,-405.5 431.5,-386.5 300.5,-386.5"/>
<text text-anchor="middle" x="366" y="-393.5" font-family="Helvetica,sans-Serif" font-size="10.00">juce::FilenameComponent</text>
</a>
</g>
</g>
<!-- Node2&#45;&gt;Node15 -->
<g id="edge14" class="edge"><title>Node2&#45;&gt;Node15</title>
<path fill="none" stroke="midnightblue" d="M209.211,-269.705C225.078,-297.046 258.222,-347.733 300,-376 306.356,-380.301 313.675,-383.707 321.058,-386.395"/>
<polygon fill="midnightblue" stroke="midnightblue" points="212.13,-267.757 204.163,-260.774 206.036,-271.202 212.13,-267.757"/>
</g>
<!-- Node16 -->
<g id="node16" class="node"><title>Node16</title>
<g id="a_node16"><a xlink:href="classjuce_1_1FileSearchPathListComponent.html" target="_top" xlink:title="Shows a set of file paths in a list, allowing them to be added, removed or re&#45;ordered. ">
<polygon fill="none" stroke="black" points="304.5,-337 304.5,-367 427.5,-367 427.5,-337 304.5,-337"/>
<text text-anchor="start" x="312.5" y="-355" font-family="Helvetica,sans-Serif" font-size="10.00">juce::FileSearchPathList</text>
<text text-anchor="middle" x="366" y="-344" font-family="Helvetica,sans-Serif" font-size="10.00">Component</text>
</a>
</g>
</g>
<!-- Node2&#45;&gt;Node16 -->
<g id="edge15" class="edge"><title>Node2&#45;&gt;Node16</title>
<path fill="none" stroke="midnightblue" d="M217.267,-267.237C236.711,-283.902 268.902,-309.763 300,-327 306.556,-330.634 313.75,-333.974 320.887,-336.95"/>
<polygon fill="midnightblue" stroke="midnightblue" points="219.361,-264.42 209.517,-260.501 214.769,-269.703 219.361,-264.42"/>
</g>
<!-- Node17 -->
<g id="node17" class="node"><title>Node17</title>
<g id="a_node17"><a xlink:href="classjuce_1_1ImageComponent.html" target="_top" xlink:title="A component that simply displays an image. ">
<polygon fill="none" stroke="black" points="307,-298.5 307,-317.5 425,-317.5 425,-298.5 307,-298.5"/>
<text text-anchor="middle" x="366" y="-305.5" font-family="Helvetica,sans-Serif" font-size="10.00">juce::ImageComponent</text>
</a>
</g>
</g>
<!-- Node2&#45;&gt;Node17 -->
<g id="edge16" class="edge"><title>Node2&#45;&gt;Node17</title>
<path fill="none" stroke="midnightblue" d="M232.293,-264.249C251.877,-271.861 277.196,-281.389 300,-289 309.814,-292.275 320.562,-295.544 330.441,-298.424"/>
<polygon fill="midnightblue" stroke="midnightblue" points="233.486,-260.958 222.898,-260.574 230.936,-267.477 233.486,-260.958"/>
</g>
<!-- Node18 -->
<g id="node18" class="node"><title>Node18</title>
<g id="a_node18"><a xlink:href="classjuce_1_1Label.html" target="_top" xlink:title="A component that displays a text string, and can optionally become a text editor when clicked...">
<polygon fill="none" stroke="black" points="334,-260.5 334,-279.5 398,-279.5 398,-260.5 334,-260.5"/>
<text text-anchor="middle" x="366" y="-267.5" font-family="Helvetica,sans-Serif" font-size="10.00">juce::Label</text>
</a>
</g>
</g>
<!-- Node2&#45;&gt;Node18 -->
<g id="edge17" class="edge"><title>Node2&#45;&gt;Node18</title>
<path fill="none" stroke="midnightblue" d="M273.612,-259.54C294.73,-261.957 316.58,-264.458 333.618,-266.408"/>
<polygon fill="midnightblue" stroke="midnightblue" points="273.988,-256.06 263.655,-258.4 273.192,-263.015 273.988,-256.06"/>
</g>
<!-- Node19 -->
<g id="node19" class="node"><title>Node19</title>
<g id="a_node19"><a xlink:href="classjuce_1_1ListBox.html" target="_top" xlink:title="A list of items that can be scrolled vertically. ">
<polygon fill="none" stroke="black" points="329,-222.5 329,-241.5 403,-241.5 403,-222.5 329,-222.5"/>
<text text-anchor="middle" x="366" y="-229.5" font-family="Helvetica,sans-Serif" font-size="10.00">juce::ListBox</text>
</a>
</g>
</g>
<!-- Node2&#45;&gt;Node19 -->
<g id="edge18" class="edge"><title>Node2&#45;&gt;Node19</title>
<path fill="none" stroke="midnightblue" d="M273.827,-242.435C292.839,-240.259 312.429,-238.017 328.555,-236.171"/>
<polygon fill="midnightblue" stroke="midnightblue" points="273.192,-238.985 263.655,-243.6 273.988,-245.94 273.192,-238.985"/>
</g>
<!-- Node22 -->
<g id="node22" class="node"><title>Node22</title>
<g id="a_node22"><a xlink:href="classjuce_1_1ProgressBar.html" target="_top" xlink:title="A progress bar component. ">
<polygon fill="none" stroke="black" points="318.5,-184.5 318.5,-203.5 413.5,-203.5 413.5,-184.5 318.5,-184.5"/>
<text text-anchor="middle" x="366" y="-191.5" font-family="Helvetica,sans-Serif" font-size="10.00">juce::ProgressBar</text>
</a>
</g>
</g>
<!-- Node2&#45;&gt;Node22 -->
<g id="edge21" class="edge"><title>Node2&#45;&gt;Node22</title>
<path fill="none" stroke="midnightblue" d="M232.293,-237.751C251.877,-230.139 277.196,-220.611 300,-213 309.814,-209.725 320.562,-206.456 330.441,-203.576"/>
<polygon fill="midnightblue" stroke="midnightblue" points="230.936,-234.523 222.898,-241.426 233.486,-241.042 230.936,-234.523"/>
</g>
<!-- Node23 -->
<g id="node23" class="node"><title>Node23</title>
<g id="a_node23"><a xlink:href="classjuce_1_1PropertyComponent.html" target="_top" xlink:title="A base class for a component that goes in a PropertyPanel and displays one of an item&#39;s properties...">
<polygon fill="none" stroke="black" points="302,-146.5 302,-165.5 430,-165.5 430,-146.5 302,-146.5"/>
<text text-anchor="middle" x="366" y="-153.5" font-family="Helvetica,sans-Serif" font-size="10.00">juce::PropertyComponent</text>
</a>
</g>
</g>
<!-- Node2&#45;&gt;Node23 -->
<g id="edge22" class="edge"><title>Node2&#45;&gt;Node23</title>
<path fill="none" stroke="midnightblue" d="M216.681,-234.511C235.863,-217.425 268.045,-191.021 300,-175 307.462,-171.259 315.785,-168.131 323.917,-165.565"/>
<polygon fill="midnightblue" stroke="midnightblue" points="214.118,-232.111 209.062,-241.421 218.821,-237.296 214.118,-232.111"/>
</g>
<!-- Node29 -->
<g id="node29" class="node"><title>Node29</title>
<g id="a_node29"><a xlink:href="classjuce_1_1Slider.html" target="_top" xlink:title="A slider control for changing a value. ">
<polygon fill="none" stroke="black" points="333.5,-108.5 333.5,-127.5 398.5,-127.5 398.5,-108.5 333.5,-108.5"/>
<text text-anchor="middle" x="366" y="-115.5" font-family="Helvetica,sans-Serif" font-size="10.00">juce::Slider</text>
</a>
</g>
</g>
<!-- Node2&#45;&gt;Node29 -->
<g id="edge28" class="edge"><title>Node2&#45;&gt;Node29</title>
<path fill="none" stroke="midnightblue" d="M210.28,-232.817C226.862,-207.59 260.199,-162.236 300,-137 310.029,-130.641 322.261,-126.343 333.398,-123.468"/>
<polygon fill="midnightblue" stroke="midnightblue" points="207.218,-231.109 204.767,-241.416 213.111,-234.887 207.218,-231.109"/>
</g>
<!-- Node30 -->
<g id="node30" class="node"><title>Node30</title>
<g id="a_node30"><a xlink:href="classjuce_1_1TextEditor.html" target="_top" xlink:title="An editable text box. ">
<polygon fill="none" stroke="black" points="323,-70.5 323,-89.5 409,-89.5 409,-70.5 323,-70.5"/>
<text text-anchor="middle" x="366" y="-77.5" font-family="Helvetica,sans-Serif" font-size="10.00">juce::TextEditor</text>
</a>
</g>
</g>
<!-- Node2&#45;&gt;Node30 -->
<g id="edge29" class="edge"><title>Node2&#45;&gt;Node30</title>
<path fill="none" stroke="midnightblue" d="M206.487,-231.879C220.119,-199.571 252.081,-134.259 300,-99 306.724,-94.0529 314.717,-90.3884 322.76,-87.6756"/>
<polygon fill="midnightblue" stroke="midnightblue" points="203.107,-230.898 202.57,-241.479 209.588,-233.543 203.107,-230.898"/>
</g>
<!-- Node31 -->
<g id="node31" class="node"><title>Node31</title>
<g id="a_node31"><a xlink:href="classjuce_1_1TreeView.html" target="_top" xlink:title="A tree&#45;view component. ">
<polygon fill="none" stroke="black" points="325,-19.5 325,-38.5 407,-38.5 407,-19.5 325,-19.5"/>
<text text-anchor="middle" x="366" y="-26.5" font-family="Helvetica,sans-Serif" font-size="10.00">juce::TreeView</text>
</a>
</g>
</g>
<!-- Node2&#45;&gt;Node31 -->
<g id="edge30" class="edge"><title>Node2&#45;&gt;Node31</title>
<path fill="none" stroke="midnightblue" d="M204.772,-231.762C216.836,-194.429 248,-111.407 300,-61 310.205,-51.1073 324.066,-43.7131 336.366,-38.5392"/>
<polygon fill="midnightblue" stroke="midnightblue" points="201.4,-230.818 201.756,-241.407 208.081,-232.907 201.4,-230.818"/>
</g>
<!-- Node4 -->
<g id="node4" class="node"><title>Node4</title>
<g id="a_node4"><a xlink:href="classjuce_1_1ArrowButton.html" target="_top" xlink:title="A button with an arrow in it. ">
<polygon fill="none" stroke="black" points="502.5,-614.5 502.5,-633.5 597.5,-633.5 597.5,-614.5 502.5,-614.5"/>
<text text-anchor="middle" x="550" y="-621.5" font-family="Helvetica,sans-Serif" font-size="10.00">juce::ArrowButton</text>
</a>
</g>
</g>
<!-- Node3&#45;&gt;Node4 -->
<g id="edge3" class="edge"><title>Node3&#45;&gt;Node4</title>
<path fill="none" stroke="midnightblue" d="M375.79,-490.62C390.558,-519.784 423.189,-575.906 468,-605 478.176,-611.607 490.395,-615.924 502.221,-618.742"/>
<polygon fill="midnightblue" stroke="midnightblue" points="378.87,-488.951 371.321,-481.517 372.586,-492.036 378.87,-488.951"/>
</g>
<!-- Node5 -->
<g id="node5" class="node"><title>Node5</title>
<g id="a_node5"><a xlink:href="classjuce_1_1DrawableButton.html" target="_top" xlink:title="A button that displays a Drawable. ">
<polygon fill="none" stroke="black" points="495,-576.5 495,-595.5 605,-595.5 605,-576.5 495,-576.5"/>
<text text-anchor="middle" x="550" y="-583.5" font-family="Helvetica,sans-Serif" font-size="10.00">juce::DrawableButton</text>
</a>
</g>
</g>
<!-- Node3&#45;&gt;Node5 -->
<g id="edge4" class="edge"><title>Node3&#45;&gt;Node5</title>
<path fill="none" stroke="midnightblue" d="M380.621,-489.548C398.364,-511.154 431.462,-547.389 468,-567 476.272,-571.44 485.566,-574.85 494.829,-577.467"/>
<polygon fill="midnightblue" stroke="midnightblue" points="383.179,-487.144 374.193,-481.532 377.718,-491.523 383.179,-487.144"/>
</g>
<!-- Node6 -->
<g id="node6" class="node"><title>Node6</title>
<g id="a_node6"><a xlink:href="classjuce_1_1HyperlinkButton.html" target="_top" xlink:title="A button showing an underlined weblink, that will launch the link when it&#39;s clicked. ">
<polygon fill="none" stroke="black" points="495,-538.5 495,-557.5 605,-557.5 605,-538.5 495,-538.5"/>
<text text-anchor="middle" x="550" y="-545.5" font-family="Helvetica,sans-Serif" font-size="10.00">juce::HyperlinkButton</text>
</a>
</g>
</g>
<!-- Node3&#45;&gt;Node6 -->
<g id="edge5" class="edge"><title>Node3&#45;&gt;Node6</title>
<path fill="none" stroke="midnightblue" d="M389.712,-487.304C409.598,-500.084 439.664,-517.941 468,-529 477.554,-532.729 488.038,-535.85 498.203,-538.415"/>
<polygon fill="midnightblue" stroke="midnightblue" points="391.363,-484.201 381.077,-481.661 387.534,-490.061 391.363,-484.201"/>
</g>
<!-- Node7 -->
<g id="node7" class="node"><title>Node7</title>
<g id="a_node7"><a xlink:href="classjuce_1_1ImageButton.html" target="_top" xlink:title="As the title suggests, this is a button containing an image. ">
<polygon fill="none" stroke="black" points="502,-500.5 502,-519.5 598,-519.5 598,-500.5 502,-500.5"/>
<text text-anchor="middle" x="550" y="-507.5" font-family="Helvetica,sans-Serif" font-size="10.00">juce::ImageButton</text>
</a>
</g>
</g>
<!-- Node3&#45;&gt;Node7 -->
<g id="edge6" class="edge"><title>Node3&#45;&gt;Node7</title>
<path fill="none" stroke="midnightblue" d="M410.719,-481.128C438.721,-486.975 474.994,-494.548 503.363,-500.471"/>
<polygon fill="midnightblue" stroke="midnightblue" points="411.311,-477.676 400.806,-479.058 409.88,-484.528 411.311,-477.676"/>
</g>
<!-- Node8 -->
<g id="node8" class="node"><title>Node8</title>
<g id="a_node8"><a xlink:href="classjuce_1_1ShapeButton.html" target="_top" xlink:title="A button that contains a filled shape. ">
<polygon fill="none" stroke="black" points="501.5,-462.5 501.5,-481.5 598.5,-481.5 598.5,-462.5 501.5,-462.5"/>
<text text-anchor="middle" x="550" y="-469.5" font-family="Helvetica,sans-Serif" font-size="10.00">juce::ShapeButton</text>
</a>
</g>
</g>
<!-- Node3&#45;&gt;Node8 -->
<g id="edge7" class="edge"><title>Node3&#45;&gt;Node8</title>
<path fill="none" stroke="midnightblue" d="M410.859,-472C438.17,-472 473.307,-472 501.309,-472"/>
<polygon fill="midnightblue" stroke="midnightblue" points="410.806,-468.5 400.806,-472 410.806,-475.5 410.806,-468.5"/>
</g>
<!-- Node9 -->
<g id="node9" class="node"><title>Node9</title>
<g id="a_node9"><a xlink:href="classjuce_1_1TabBarButton.html" target="_top" xlink:title="In a TabbedButtonBar, this component is used for each of the buttons. ">
<polygon fill="none" stroke="black" points="499.5,-424.5 499.5,-443.5 600.5,-443.5 600.5,-424.5 499.5,-424.5"/>
<text text-anchor="middle" x="550" y="-431.5" font-family="Helvetica,sans-Serif" font-size="10.00">juce::TabBarButton</text>
</a>
</g>
</g>
<!-- Node3&#45;&gt;Node9 -->
<g id="edge8" class="edge"><title>Node3&#45;&gt;Node9</title>
<path fill="none" stroke="midnightblue" d="M410.719,-462.872C438.721,-457.025 474.994,-449.452 503.363,-443.529"/>
<polygon fill="midnightblue" stroke="midnightblue" points="409.88,-459.472 400.806,-464.942 411.311,-466.324 409.88,-459.472"/>
</g>
<!-- Node10 -->
<g id="node10" class="node"><title>Node10</title>
<g id="a_node10"><a xlink:href="classjuce_1_1TextButton.html" target="_top" xlink:title="A button that uses the standard lozenge&#45;shaped background with a line of text on it. ">
<polygon fill="none" stroke="black" points="505.5,-386.5 505.5,-405.5 594.5,-405.5 594.5,-386.5 505.5,-386.5"/>
<text text-anchor="middle" x="550" y="-393.5" font-family="Helvetica,sans-Serif" font-size="10.00">juce::TextButton</text>
</a>
</g>
</g>
<!-- Node3&#45;&gt;Node10 -->
<g id="edge9" class="edge"><title>Node3&#45;&gt;Node10</title>
<path fill="none" stroke="midnightblue" d="M410.543,-462.748C417.997,-460.205 425.443,-457.006 432,-453 451.853,-440.872 447.827,-426.588 468,-415 479.272,-408.525 492.63,-404.254 505.214,-401.438"/>
<polygon fill="midnightblue" stroke="midnightblue" points="409.353,-459.452 400.815,-465.725 411.401,-466.145 409.353,-459.452"/>
</g>
<!-- Node11 -->
<g id="node11" class="node"><title>Node11</title>
<g id="a_node11"><a xlink:href="classjuce_1_1ToggleButton.html" target="_top" xlink:title="A button that can be toggled on/off. ">
<polygon fill="none" stroke="black" points="501,-348.5 501,-367.5 599,-367.5 599,-348.5 501,-348.5"/>
<text text-anchor="middle" x="550" y="-355.5" font-family="Helvetica,sans-Serif" font-size="10.00">juce::ToggleButton</text>
</a>
</g>
</g>
<!-- Node3&#45;&gt;Node11 -->
<g id="edge10" class="edge"><title>Node3&#45;&gt;Node11</title>
<path fill="none" stroke="midnightblue" d="M410.533,-464.815C418.283,-462.063 425.837,-458.259 432,-453 460.432,-428.739 438.924,-400.484 468,-377 477.327,-369.467 489.12,-364.822 500.8,-361.983"/>
<polygon fill="midnightblue" stroke="midnightblue" points="409.271,-461.539 400.701,-467.768 411.285,-468.243 409.271,-461.539"/>
</g>
<!-- Node12 -->
<g id="node12" class="node"><title>Node12</title>
<g id="a_node12"><a xlink:href="classjuce_1_1ToolbarItemComponent.html" target="_top" xlink:title="A component that can be used as one of the items in a Toolbar. ">
<polygon fill="none" stroke="black" points="478.5,-310.5 478.5,-329.5 621.5,-329.5 621.5,-310.5 478.5,-310.5"/>
<text text-anchor="middle" x="550" y="-317.5" font-family="Helvetica,sans-Serif" font-size="10.00">juce::ToolbarItemComponent</text>
</a>
</g>
</g>
<!-- Node3&#45;&gt;Node12 -->
<g id="edge11" class="edge"><title>Node3&#45;&gt;Node12</title>
<path fill="none" stroke="midnightblue" d="M410.396,-465.732C418.358,-462.911 426.027,-458.846 432,-453 469.972,-415.835 429.039,-375.126 468,-339 472.131,-335.17 476.883,-332.066 481.971,-329.555"/>
<polygon fill="midnightblue" stroke="midnightblue" points="409.246,-462.422 400.634,-468.594 411.214,-469.14 409.246,-462.422"/>
</g>
<!-- Node13 -->
<g id="node13" class="node"><title>Node13</title>
<g id="a_node13"><a xlink:href="classjuce_1_1ToolbarButton.html" target="_top" xlink:title="A type of button designed to go on a toolbar. ">
<polygon fill="none" stroke="black" points="668.5,-310.5 668.5,-329.5 769.5,-329.5 769.5,-310.5 668.5,-310.5"/>
<text text-anchor="middle" x="719" y="-317.5" font-family="Helvetica,sans-Serif" font-size="10.00">juce::ToolbarButton</text>
</a>
</g>
</g>
<!-- Node12&#45;&gt;Node13 -->
<g id="edge12" class="edge"><title>Node12&#45;&gt;Node13</title>
<path fill="none" stroke="midnightblue" d="M632.154,-320C644.501,-320 656.916,-320 668.318,-320"/>
<polygon fill="midnightblue" stroke="midnightblue" points="631.823,-316.5 621.823,-320 631.823,-323.5 631.823,-316.5"/>
</g>
<!-- Node20 -->
<g id="node20" class="node"><title>Node20</title>
<g id="a_node20"><a xlink:href="classjuce_1_1FileListComponent.html" target="_top" xlink:title="A component that displays the files in a directory as a listbox. ">
<polygon fill="none" stroke="black" points="489,-266.5 489,-285.5 611,-285.5 611,-266.5 489,-266.5"/>
<text text-anchor="middle" x="550" y="-273.5" font-family="Helvetica,sans-Serif" font-size="10.00">juce::FileListComponent</text>
</a>
</g>
</g>
<!-- Node19&#45;&gt;Node20 -->
<g id="edge19" class="edge"><title>Node19&#45;&gt;Node20</title>
<path fill="none" stroke="midnightblue" d="M413.237,-243.571C430.421,-247.838 450.091,-252.683 468,-257 480.919,-260.114 495.013,-263.444 507.77,-266.432"/>
<polygon fill="midnightblue" stroke="midnightblue" points="413.987,-240.151 403.438,-241.134 412.298,-246.944 413.987,-240.151"/>
</g>
<!-- Node21 -->
<g id="node21" class="node"><title>Node21</title>
<g id="a_node21"><a xlink:href="classjuce_1_1TableListBox.html" target="_top" xlink:title="A table of cells, using a TableHeaderComponent as its header. ">
<polygon fill="none" stroke="black" points="501,-228.5 501,-247.5 599,-247.5 599,-228.5 501,-228.5"/>
<text text-anchor="middle" x="550" y="-235.5" font-family="Helvetica,sans-Serif" font-size="10.00">juce::TableListBox</text>
</a>
</g>
</g>
<!-- Node19&#45;&gt;Node21 -->
<g id="edge20" class="edge"><title>Node19&#45;&gt;Node21</title>
<path fill="none" stroke="midnightblue" d="M413.66,-233.538C440.418,-234.42 473.944,-235.526 500.934,-236.415"/>
<polygon fill="midnightblue" stroke="midnightblue" points="413.503,-230.031 403.393,-233.2 413.272,-237.027 413.503,-230.031"/>
</g>
<!-- Node24 -->
<g id="node24" class="node"><title>Node24</title>
<g id="a_node24"><a xlink:href="classjuce_1_1BooleanPropertyComponent.html" target="_top" xlink:title="A PropertyComponent that contains an on/off toggle button. ">
<polygon fill="none" stroke="black" points="468.5,-190.5 468.5,-209.5 631.5,-209.5 631.5,-190.5 468.5,-190.5"/>
<text text-anchor="middle" x="550" y="-197.5" font-family="Helvetica,sans-Serif" font-size="10.00">juce::BooleanPropertyComponent</text>
</a>
</g>
</g>
<!-- Node23&#45;&gt;Node24 -->
<g id="edge23" class="edge"><title>Node23&#45;&gt;Node24</title>
<path fill="none" stroke="midnightblue" d="M415.406,-168.109C432.064,-172.243 450.84,-176.864 468,-181 480.919,-184.114 495.013,-187.444 507.77,-190.432"/>
<polygon fill="midnightblue" stroke="midnightblue" points="415.89,-164.623 405.341,-165.608 414.202,-171.417 415.89,-164.623"/>
</g>
<!-- Node25 -->
<g id="node25" class="node"><title>Node25</title>
<g id="a_node25"><a xlink:href="classjuce_1_1ButtonPropertyComponent.html" target="_top" xlink:title="A PropertyComponent that contains a button. ">
<polygon fill="none" stroke="black" points="472,-152.5 472,-171.5 628,-171.5 628,-152.5 472,-152.5"/>
<text text-anchor="middle" x="550" y="-159.5" font-family="Helvetica,sans-Serif" font-size="10.00">juce::ButtonPropertyComponent</text>
</a>
</g>
</g>
<!-- Node23&#45;&gt;Node25 -->
<g id="edge24" class="edge"><title>Node23&#45;&gt;Node25</title>
<path fill="none" stroke="midnightblue" d="M440.379,-158.419C450.74,-158.761 461.418,-159.113 471.848,-159.457"/>
<polygon fill="midnightblue" stroke="midnightblue" points="440.254,-154.913 430.144,-158.082 440.023,-161.909 440.254,-154.913"/>
</g>
<!-- Node26 -->
<g id="node26" class="node"><title>Node26</title>
<g id="a_node26"><a xlink:href="classjuce_1_1ChoicePropertyComponent.html" target="_top" xlink:title="A PropertyComponent that shows its value as a combo box. ">
<polygon fill="none" stroke="black" points="471,-114.5 471,-133.5 629,-133.5 629,-114.5 471,-114.5"/>
<text text-anchor="middle" x="550" y="-121.5" font-family="Helvetica,sans-Serif" font-size="10.00">juce::ChoicePropertyComponent</text>
</a>
</g>
</g>
<!-- Node23&#45;&gt;Node26 -->
<g id="edge25" class="edge"><title>Node23&#45;&gt;Node26</title>
<path fill="none" stroke="midnightblue" d="M431.135,-144.724C451.93,-141.067 474.78,-137.05 494.781,-133.533"/>
<polygon fill="midnightblue" stroke="midnightblue" points="430.356,-141.307 421.113,-146.486 431.568,-148.201 430.356,-141.307"/>
</g>
<!-- Node27 -->
<g id="node27" class="node"><title>Node27</title>
<g id="a_node27"><a xlink:href="classjuce_1_1SliderPropertyComponent.html" target="_top" xlink:title="A PropertyComponent that shows its value as a slider. ">
<polygon fill="none" stroke="black" points="474,-76.5 474,-95.5 626,-95.5 626,-76.5 474,-76.5"/>
<text text-anchor="middle" x="550" y="-83.5" font-family="Helvetica,sans-Serif" font-size="10.00">juce::SliderPropertyComponent</text>
</a>
</g>
</g>
<!-- Node23&#45;&gt;Node27 -->
<g id="edge26" class="edge"><title>Node23&#45;&gt;Node27</title>
<path fill="none" stroke="midnightblue" d="M419.376,-142.939C423.749,-141.178 428.016,-139.205 432,-137 450.73,-126.633 448.997,-114.857 468,-105 475.437,-101.142 483.661,-98.0574 491.935,-95.5931"/>
<polygon fill="midnightblue" stroke="midnightblue" points="417.903,-139.75 409.704,-146.461 420.298,-146.328 417.903,-139.75"/>
</g>
<!-- Node28 -->
<g id="node28" class="node"><title>Node28</title>
<g id="a_node28"><a xlink:href="classjuce_1_1TextPropertyComponent.html" target="_top" xlink:title="A PropertyComponent that shows its value as editable text. ">
<polygon fill="none" stroke="black" points="476.5,-38.5 476.5,-57.5 623.5,-57.5 623.5,-38.5 476.5,-38.5"/>
<text text-anchor="middle" x="550" y="-45.5" font-family="Helvetica,sans-Serif" font-size="10.00">juce::TextPropertyComponent</text>
</a>
</g>
</g>
<!-- Node23&#45;&gt;Node28 -->
<g id="edge27" class="edge"><title>Node23&#45;&gt;Node28</title>
<path fill="none" stroke="midnightblue" d="M425.414,-141.664C427.728,-140.253 429.937,-138.703 432,-137 458.98,-114.729 440.429,-88.5349 468,-67 472.895,-63.1768 478.431,-60.1018 484.254,-57.6317"/>
<polygon fill="midnightblue" stroke="midnightblue" points="423.371,-138.778 416.062,-146.448 426.559,-145.01 423.371,-138.778"/>
</g>
<!-- Node32 -->
<g id="node32" class="node"><title>Node32</title>
<g id="a_node32"><a xlink:href="classjuce_1_1FileTreeComponent.html" target="_top" xlink:title="A component that displays the files in a directory as a treeview. ">
<polygon fill="none" stroke="black" points="487,-0.5 487,-19.5 613,-19.5 613,-0.5 487,-0.5"/>
<text text-anchor="middle" x="550" y="-7.5" font-family="Helvetica,sans-Serif" font-size="10.00">juce::FileTreeComponent</text>
</a>
</g>
</g>
<!-- Node31&#45;&gt;Node32 -->
<g id="edge31" class="edge"><title>Node31&#45;&gt;Node32</title>
<path fill="none" stroke="midnightblue" d="M417.603,-23.7173C439.076,-21.4756 464.315,-18.8407 486.903,-16.4827"/>
<polygon fill="midnightblue" stroke="midnightblue" points="416.974,-20.2638 407.392,-24.7833 417.701,-27.226 416.974,-20.2638"/>
</g>
</g>
</svg>
