<?xml version="1.0" encoding="UTF-8" standalone="no"?>
<!DOCTYPE svg PUBLIC "-//W3C//DTD SVG 1.1//EN"
 "http://www.w3.org/Graphics/SVG/1.1/DTD/svg11.dtd">
<!-- Generated by graphviz version 2.36.0 (20140111.2315)
 -->
<!-- Title: ResizableWindow Pages: 1 -->
<svg width="390pt" height="308pt"
 viewBox="0.00 0.00 390.00 308.00" xmlns="http://www.w3.org/2000/svg" xmlns:xlink="http://www.w3.org/1999/xlink">
<g id="graph0" class="graph" transform="scale(1 1) rotate(0) translate(4 304)">
<title>ResizableWindow</title>
<!-- Node1 -->
<g id="node1" class="node"><title>Node1</title>
<polygon fill="#bfbfbf" stroke="black" points="184.5,-112.5 184.5,-131.5 279.5,-131.5 279.5,-112.5 184.5,-112.5"/>
<text text-anchor="middle" x="232" y="-119.5" font-family="Helvetica,sans-Serif" font-size="10.00">ResizableWindow</text>
</g>
<!-- Node5 -->
<g id="node5" class="node"><title>Node5</title>
<g id="a_node5"><a xlink:href="group__juce__gui__basics-windows.html#classDocumentWindow" target="_top" xlink:title="A resizable window with a title bar and maximise, minimise and close buttons. ">
<polygon fill="none" stroke="black" points="121.5,-56.5 121.5,-75.5 218.5,-75.5 218.5,-56.5 121.5,-56.5"/>
<text text-anchor="middle" x="170" y="-63.5" font-family="Helvetica,sans-Serif" font-size="10.00">DocumentWindow</text>
</a>
</g>
</g>
<!-- Node1&#45;&gt;Node5 -->
<g id="edge4" class="edge"><title>Node1&#45;&gt;Node5</title>
<path fill="none" stroke="midnightblue" d="M214.246,-105.537C203.192,-95.9087 189.369,-83.8694 180.143,-75.8339"/>
<polygon fill="midnightblue" stroke="midnightblue" points="212.199,-108.395 222.039,-112.324 216.797,-103.117 212.199,-108.395"/>
</g>
<!-- Node9 -->
<g id="node9" class="node"><title>Node9</title>
<g id="a_node9"><a xlink:href="group__juce__gui__basics-filebrowser.html#classFileChooserDialogBox" target="_top" xlink:title="A file open/save dialog box. ">
<polygon fill="none" stroke="black" points="237,-56.5 237,-75.5 351,-75.5 351,-56.5 237,-56.5"/>
<text text-anchor="middle" x="294" y="-63.5" font-family="Helvetica,sans-Serif" font-size="10.00">FileChooserDialogBox</text>
</a>
</g>
</g>
<!-- Node1&#45;&gt;Node9 -->
<g id="edge8" class="edge"><title>Node1&#45;&gt;Node9</title>
<path fill="none" stroke="midnightblue" d="M249.754,-105.537C260.808,-95.9087 274.631,-83.8694 283.857,-75.8339"/>
<polygon fill="midnightblue" stroke="midnightblue" points="247.203,-103.117 241.961,-112.324 251.801,-108.395 247.203,-103.117"/>
</g>
<!-- Node2 -->
<g id="node2" class="node"><title>Node2</title>
<g id="a_node2"><a xlink:href="group__juce__gui__basics-windows.html#classTopLevelWindow" target="_top" xlink:title="A base class for top&#45;level windows. ">
<polygon fill="none" stroke="black" points="186,-168.5 186,-187.5 278,-187.5 278,-168.5 186,-168.5"/>
<text text-anchor="middle" x="232" y="-175.5" font-family="Helvetica,sans-Serif" font-size="10.00">TopLevelWindow</text>
</a>
</g>
</g>
<!-- Node2&#45;&gt;Node1 -->
<g id="edge1" class="edge"><title>Node2&#45;&gt;Node1</title>
<path fill="none" stroke="midnightblue" d="M232,-157.805C232,-148.91 232,-138.78 232,-131.751"/>
<polygon fill="midnightblue" stroke="midnightblue" points="228.5,-158.083 232,-168.083 235.5,-158.083 228.5,-158.083"/>
</g>
<!-- Node3 -->
<g id="node3" class="node"><title>Node3</title>
<g id="a_node3"><a xlink:href="group__juce__gui__basics-components.html#classComponent" target="_top" xlink:title="The base class for all JUCE user&#45;interface objects. ">
<polygon fill="none" stroke="black" points="198.5,-224.5 198.5,-243.5 265.5,-243.5 265.5,-224.5 198.5,-224.5"/>
<text text-anchor="middle" x="232" y="-231.5" font-family="Helvetica,sans-Serif" font-size="10.00">Component</text>
</a>
</g>
</g>
<!-- Node3&#45;&gt;Node2 -->
<g id="edge2" class="edge"><title>Node3&#45;&gt;Node2</title>
<path fill="none" stroke="midnightblue" d="M232,-213.805C232,-204.91 232,-194.78 232,-187.751"/>
<polygon fill="midnightblue" stroke="midnightblue" points="228.5,-214.083 232,-224.083 235.5,-214.083 228.5,-214.083"/>
</g>
<!-- Node4 -->
<g id="node4" class="node"><title>Node4</title>
<g id="a_node4"><a xlink:href="group__juce__gui__basics-mouse.html#classMouseListener" target="_top" xlink:title="A MouseListener can be registered with a component to receive callbacks about mouse events that happe...">
<polygon fill="none" stroke="black" points="192,-280.5 192,-299.5 272,-299.5 272,-280.5 192,-280.5"/>
<text text-anchor="middle" x="232" y="-287.5" font-family="Helvetica,sans-Serif" font-size="10.00">MouseListener</text>
</a>
</g>
</g>
<!-- Node4&#45;&gt;Node3 -->
<g id="edge3" class="edge"><title>Node4&#45;&gt;Node3</title>
<path fill="none" stroke="midnightblue" d="M232,-269.805C232,-260.91 232,-250.78 232,-243.751"/>
<polygon fill="midnightblue" stroke="midnightblue" points="228.5,-270.083 232,-280.083 235.5,-270.083 228.5,-270.083"/>
</g>
<!-- Node6 -->
<g id="node6" class="node"><title>Node6</title>
<g id="a_node6"><a xlink:href="group__juce__gui__basics-windows.html#classDialogWindow" target="_top" xlink:title="A dialog&#45;box style window. ">
<polygon fill="none" stroke="black" points="0,-0.5 0,-19.5 80,-19.5 80,-0.5 0,-0.5"/>
<text text-anchor="middle" x="40" y="-7.5" font-family="Helvetica,sans-Serif" font-size="10.00">DialogWindow</text>
</a>
</g>
</g>
<!-- Node5&#45;&gt;Node6 -->
<g id="edge5" class="edge"><title>Node5&#45;&gt;Node6</title>
<path fill="none" stroke="midnightblue" d="M139.915,-52.503C115.543,-42.3795 81.86,-28.388 60.5025,-19.5164"/>
<polygon fill="midnightblue" stroke="midnightblue" points="138.823,-55.8397 149.401,-56.4435 141.509,-49.3752 138.823,-55.8397"/>
</g>
<!-- Node7 -->
<g id="node7" class="node"><title>Node7</title>
<g id="a_node7"><a xlink:href="group__juce__gui__basics-layout.html#classMultiDocumentPanelWindow" target="_top" xlink:title="This is a derivative of DocumentWindow that is used inside a MultiDocumentPanel component. ">
<polygon fill="none" stroke="black" points="98.5,-0.5 98.5,-19.5 241.5,-19.5 241.5,-0.5 98.5,-0.5"/>
<text text-anchor="middle" x="170" y="-7.5" font-family="Helvetica,sans-Serif" font-size="10.00">MultiDocumentPanelWindow</text>
</a>
</g>
</g>
<!-- Node5&#45;&gt;Node7 -->
<g id="edge6" class="edge"><title>Node5&#45;&gt;Node7</title>
<path fill="none" stroke="midnightblue" d="M170,-45.8045C170,-36.9102 170,-26.7798 170,-19.7511"/>
<polygon fill="midnightblue" stroke="midnightblue" points="166.5,-46.083 170,-56.083 173.5,-46.083 166.5,-46.083"/>
</g>
<!-- Node8 -->
<g id="node8" class="node"><title>Node8</title>
<g id="a_node8"><a xlink:href="group__juce__audio__plugin__client-Standalone.html#classStandaloneFilterWindow" target="_top" xlink:title="A class that can be used to run a simple standalone application containing your filter. ">
<polygon fill="none" stroke="black" points="260,-0.5 260,-19.5 382,-19.5 382,-0.5 260,-0.5"/>
<text text-anchor="middle" x="321" y="-7.5" font-family="Helvetica,sans-Serif" font-size="10.00">StandaloneFilterWindow</text>
</a>
</g>
</g>
<!-- Node5&#45;&gt;Node8 -->
<g id="edge7" class="edge"><title>Node5&#45;&gt;Node8</title>
<path fill="none" stroke="midnightblue" d="M203.446,-53.0392C231.858,-42.8786 271.937,-28.5457 297.186,-19.5164"/>
<polygon fill="midnightblue" stroke="midnightblue" points="202.164,-49.7806 193.926,-56.4435 204.521,-56.3718 202.164,-49.7806"/>
</g>
</g>
</svg>
