<?xml version="1.0" encoding="UTF-8" standalone="no"?>
<!DOCTYPE svg PUBLIC "-//W3C//DTD SVG 1.1//EN"
 "http://www.w3.org/Graphics/SVG/1.1/DTD/svg11.dtd">
<!-- Generated by graphviz version 2.36.0 (20140111.2315)
 -->
<!-- Title: AudioTransportSource Pages: 1 -->
<svg width="253pt" height="140pt"
 viewBox="0.00 0.00 253.00 140.00" xmlns="http://www.w3.org/2000/svg" xmlns:xlink="http://www.w3.org/1999/xlink">
<g id="graph0" class="graph" transform="scale(1 1) rotate(0) translate(4 136)">
<title>AudioTransportSource</title>
<!-- Node1 -->
<g id="node1" class="node"><title>Node1</title>
<polygon fill="#bfbfbf" stroke="black" points="71.5,-0.5 71.5,-19.5 184.5,-19.5 184.5,-0.5 71.5,-0.5"/>
<text text-anchor="middle" x="128" y="-7.5" font-family="Helvetica,sans-Serif" font-size="10.00">AudioTransportSource</text>
</g>
<!-- Node2 -->
<g id="node2" class="node"><title>Node2</title>
<g id="a_node2"><a xlink:href="group__juce__audio__basics-sources.html#classPositionableAudioSource" target="_top" xlink:title="A type of AudioSource which can be repositioned. ">
<polygon fill="none" stroke="black" points="-0.5,-56.5 -0.5,-75.5 124.5,-75.5 124.5,-56.5 -0.5,-56.5"/>
<text text-anchor="middle" x="62" y="-63.5" font-family="Helvetica,sans-Serif" font-size="10.00">PositionableAudioSource</text>
</a>
</g>
</g>
<!-- Node2&#45;&gt;Node1 -->
<g id="edge1" class="edge"><title>Node2&#45;&gt;Node1</title>
<path fill="none" stroke="midnightblue" d="M80.5537,-49.8197C92.3781,-40.1452 107.286,-27.9481 117.203,-19.8339"/>
<polygon fill="midnightblue" stroke="midnightblue" points="78.1273,-47.2827 72.604,-56.324 82.56,-52.7004 78.1273,-47.2827"/>
</g>
<!-- Node3 -->
<g id="node3" class="node"><title>Node3</title>
<g id="a_node3"><a xlink:href="group__juce__audio__basics-sources.html#classAudioSource" target="_top" xlink:title="Base class for objects that can produce a continuous stream of audio. ">
<polygon fill="none" stroke="black" points="26,-112.5 26,-131.5 98,-131.5 98,-112.5 26,-112.5"/>
<text text-anchor="middle" x="62" y="-119.5" font-family="Helvetica,sans-Serif" font-size="10.00">AudioSource</text>
</a>
</g>
</g>
<!-- Node3&#45;&gt;Node2 -->
<g id="edge2" class="edge"><title>Node3&#45;&gt;Node2</title>
<path fill="none" stroke="midnightblue" d="M62,-101.805C62,-92.9102 62,-82.7798 62,-75.7511"/>
<polygon fill="midnightblue" stroke="midnightblue" points="58.5001,-102.083 62,-112.083 65.5001,-102.083 58.5001,-102.083"/>
</g>
<!-- Node4 -->
<g id="node4" class="node"><title>Node4</title>
<g id="a_node4"><a xlink:href="group__juce__events-broadcasters.html#classChangeBroadcaster" target="_top" xlink:title="Holds a list of ChangeListeners, and sends messages to them when instructed. ">
<polygon fill="none" stroke="black" points="142.5,-56.5 142.5,-75.5 245.5,-75.5 245.5,-56.5 142.5,-56.5"/>
<text text-anchor="middle" x="194" y="-63.5" font-family="Helvetica,sans-Serif" font-size="10.00">ChangeBroadcaster</text>
</a>
</g>
</g>
<!-- Node4&#45;&gt;Node1 -->
<g id="edge3" class="edge"><title>Node4&#45;&gt;Node1</title>
<path fill="none" stroke="midnightblue" d="M175.446,-49.8197C163.622,-40.1452 148.714,-27.9481 138.797,-19.8339"/>
<polygon fill="midnightblue" stroke="midnightblue" points="173.44,-52.7004 183.396,-56.324 177.873,-47.2827 173.44,-52.7004"/>
</g>
</g>
</svg>
