<?xml version="1.0" encoding="UTF-8" standalone="no"?>
<!DOCTYPE svg PUBLIC "-//W3C//DTD SVG 1.1//EN"
 "http://www.w3.org/Graphics/SVG/1.1/DTD/svg11.dtd">
<!-- Generated by graphviz version 2.36.0 (20140111.2315)
 -->
<!-- Title: AudioPluginFormat Pages: 1 -->
<svg width="487pt" height="140pt"
 viewBox="0.00 0.00 487.00 140.00" xmlns="http://www.w3.org/2000/svg" xmlns:xlink="http://www.w3.org/1999/xlink">
<g id="graph0" class="graph" transform="scale(1 1) rotate(0) translate(4 136)">
<title>AudioPluginFormat</title>
<!-- Node1 -->
<g id="node1" class="node"><title>Node1</title>
<polygon fill="#bfbfbf" stroke="black" points="204.5,-56.5 204.5,-75.5 303.5,-75.5 303.5,-56.5 204.5,-56.5"/>
<text text-anchor="middle" x="254" y="-63.5" font-family="Helvetica,sans-Serif" font-size="10.00">AudioPluginFormat</text>
</g>
<!-- Node3 -->
<g id="node3" class="node"><title>Node3</title>
<g id="a_node3"><a xlink:href="classAudioUnitPluginFormat.html" target="_top" xlink:title="Implements a plugin format manager for AudioUnits. ">
<polygon fill="none" stroke="black" points="-0.5,-0.5 -0.5,-19.5 116.5,-19.5 116.5,-0.5 -0.5,-0.5"/>
<text text-anchor="middle" x="58" y="-7.5" font-family="Helvetica,sans-Serif" font-size="10.00">AudioUnitPluginFormat</text>
</a>
</g>
</g>
<!-- Node1&#45;&gt;Node3 -->
<g id="edge2" class="edge"><title>Node1&#45;&gt;Node3</title>
<path fill="none" stroke="midnightblue" d="M212.98,-53.6986C175.989,-43.507 122.4,-28.7429 88.9115,-19.5164"/>
<polygon fill="midnightblue" stroke="midnightblue" points="212.373,-57.1616 222.943,-56.4435 214.232,-50.4131 212.373,-57.1616"/>
</g>
<!-- Node4 -->
<g id="node4" class="node"><title>Node4</title>
<g id="a_node4"><a xlink:href="classLADSPAPluginFormat.html" target="_top" xlink:title="Implements a plugin format manager for LADSPA plugins. ">
<polygon fill="none" stroke="black" points="135,-0.5 135,-19.5 249,-19.5 249,-0.5 135,-0.5"/>
<text text-anchor="middle" x="192" y="-7.5" font-family="Helvetica,sans-Serif" font-size="10.00">LADSPAPluginFormat</text>
</a>
</g>
</g>
<!-- Node1&#45;&gt;Node4 -->
<g id="edge3" class="edge"><title>Node1&#45;&gt;Node4</title>
<path fill="none" stroke="midnightblue" d="M236.246,-49.5372C225.192,-39.9087 211.369,-27.8694 202.143,-19.8339"/>
<polygon fill="midnightblue" stroke="midnightblue" points="234.199,-52.3954 244.039,-56.324 238.797,-47.1168 234.199,-52.3954"/>
</g>
<!-- Node5 -->
<g id="node5" class="node"><title>Node5</title>
<g id="a_node5"><a xlink:href="classVST3PluginFormat.html" target="_top" xlink:title="Implements a plugin format for VST3s. ">
<polygon fill="none" stroke="black" points="267.5,-0.5 267.5,-19.5 366.5,-19.5 366.5,-0.5 267.5,-0.5"/>
<text text-anchor="middle" x="317" y="-7.5" font-family="Helvetica,sans-Serif" font-size="10.00">VST3PluginFormat</text>
</a>
</g>
</g>
<!-- Node1&#45;&gt;Node5 -->
<g id="edge4" class="edge"><title>Node1&#45;&gt;Node5</title>
<path fill="none" stroke="midnightblue" d="M272.04,-49.5372C283.273,-39.9087 297.319,-27.8694 306.694,-19.8339"/>
<polygon fill="midnightblue" stroke="midnightblue" points="269.437,-47.1586 264.122,-56.324 273.992,-52.4734 269.437,-47.1586"/>
</g>
<!-- Node6 -->
<g id="node6" class="node"><title>Node6</title>
<g id="a_node6"><a xlink:href="classVSTPluginFormat.html" target="_top" xlink:title="Implements a plugin format manager for VSTs. ">
<polygon fill="none" stroke="black" points="385,-0.5 385,-19.5 479,-19.5 479,-0.5 385,-0.5"/>
<text text-anchor="middle" x="432" y="-7.5" font-family="Helvetica,sans-Serif" font-size="10.00">VSTPluginFormat</text>
</a>
</g>
</g>
<!-- Node1&#45;&gt;Node6 -->
<g id="edge5" class="edge"><title>Node1&#45;&gt;Node6</title>
<path fill="none" stroke="midnightblue" d="M292.117,-53.4363C325.678,-43.2551 373.774,-28.664 403.927,-19.5164"/>
<polygon fill="midnightblue" stroke="midnightblue" points="290.758,-50.1911 282.205,-56.4435 292.79,-56.8897 290.758,-50.1911"/>
</g>
<!-- Node2 -->
<g id="node2" class="node"><title>Node2</title>
<g id="a_node2"><a xlink:href="classMessageListener.html" target="_top" xlink:title="MessageListener subclasses can post and receive Message objects. ">
<polygon fill="none" stroke="black" points="208.5,-112.5 208.5,-131.5 299.5,-131.5 299.5,-112.5 208.5,-112.5"/>
<text text-anchor="middle" x="254" y="-119.5" font-family="Helvetica,sans-Serif" font-size="10.00">MessageListener</text>
</a>
</g>
</g>
<!-- Node2&#45;&gt;Node1 -->
<g id="edge1" class="edge"><title>Node2&#45;&gt;Node1</title>
<path fill="none" stroke="#8b1a1a" d="M254,-101.805C254,-92.9102 254,-82.7798 254,-75.7511"/>
<polygon fill="#8b1a1a" stroke="#8b1a1a" points="250.5,-102.083 254,-112.083 257.5,-102.083 250.5,-102.083"/>
</g>
</g>
</svg>
