<?xml version="1.0" encoding="UTF-8" standalone="no"?>
<!DOCTYPE svg PUBLIC "-//W3C//DTD SVG 1.1//EN"
 "http://www.w3.org/Graphics/SVG/1.1/DTD/svg11.dtd">
<!-- Generated by graphviz version 2.36.0 (20140111.2315)
 -->
<!-- Title: juce::MouseListener Pages: 1 -->
<svg width="516pt" height="1774pt"
 viewBox="0.00 0.00 516.00 1774.00" xmlns="http://www.w3.org/2000/svg" xmlns:xlink="http://www.w3.org/1999/xlink">
<g id="graph0" class="graph" transform="scale(1 1) rotate(0) translate(4 1770)">
<title>juce::MouseListener</title>
<!-- Node1 -->
<g id="node1" class="node"><title>Node1</title>
<polygon fill="#bfbfbf" stroke="black" points="0,-848.5 0,-867.5 104,-867.5 104,-848.5 0,-848.5"/>
<text text-anchor="middle" x="52" y="-855.5" font-family="Helvetica,sans-Serif" font-size="10.00">juce::MouseListener</text>
</g>
<!-- Node2 -->
<g id="node2" class="node"><title>Node2</title>
<g id="a_node2"><a xlink:href="classjuce_1_1Component.html" target="_top" xlink:title="The base class for all JUCE user&#45;interface objects. ">
<polygon fill="none" stroke="red" points="168.5,-867.5 168.5,-886.5 259.5,-886.5 259.5,-867.5 168.5,-867.5"/>
<text text-anchor="middle" x="214" y="-874.5" font-family="Helvetica,sans-Serif" font-size="10.00">juce::Component</text>
</a>
</g>
</g>
<!-- Node1&#45;&gt;Node2 -->
<g id="edge1" class="edge"><title>Node1&#45;&gt;Node2</title>
<path fill="none" stroke="midnightblue" d="M114.197,-865.267C132.214,-867.407 151.579,-869.706 168.35,-871.698"/>
<polygon fill="midnightblue" stroke="midnightblue" points="114.408,-861.768 104.065,-864.064 113.582,-868.719 114.408,-861.768"/>
</g>
<!-- Node49 -->
<g id="node49" class="node"><title>Node49</title>
<g id="a_node49"><a xlink:href="classjuce_1_1MouseInactivityDetector.html" target="_top" xlink:title="This object watches for mouse&#45;events happening within a component, and if the mouse remains still for...">
<polygon fill="none" stroke="black" points="140.5,-829.5 140.5,-848.5 287.5,-848.5 287.5,-829.5 140.5,-829.5"/>
<text text-anchor="middle" x="214" y="-836.5" font-family="Helvetica,sans-Serif" font-size="10.00">juce::MouseInactivityDetector</text>
</a>
</g>
</g>
<!-- Node1&#45;&gt;Node49 -->
<g id="edge48" class="edge"><title>Node1&#45;&gt;Node49</title>
<path fill="none" stroke="#8b1a1a" d="M114.262,-850.725C122.766,-849.715 131.57,-848.67 140.259,-847.638"/>
<polygon fill="#8b1a1a" stroke="#8b1a1a" points="113.582,-847.281 104.065,-851.936 114.408,-854.232 113.582,-847.281"/>
</g>
<!-- Node3 -->
<g id="node3" class="node"><title>Node3</title>
<g id="a_node3"><a xlink:href="classjuce_1_1ActiveXControlComponent.html" target="_top" xlink:title="A Windows&#45;specific class that can create and embed an ActiveX control inside itself. ">
<polygon fill="none" stroke="black" points="337.5,-1746.5 337.5,-1765.5 494.5,-1765.5 494.5,-1746.5 337.5,-1746.5"/>
<text text-anchor="middle" x="416" y="-1753.5" font-family="Helvetica,sans-Serif" font-size="10.00">juce::ActiveXControlComponent</text>
</a>
</g>
</g>
<!-- Node2&#45;&gt;Node3 -->
<g id="edge2" class="edge"><title>Node2&#45;&gt;Node3</title>
<path fill="none" stroke="midnightblue" d="M216.154,-896.927C223.458,-1019.94 264.844,-1672.93 324,-1737 327.832,-1741.15 332.317,-1744.52 337.205,-1747.25"/>
<polygon fill="midnightblue" stroke="midnightblue" points="219.635,-896.491 215.555,-886.714 212.647,-896.902 219.635,-896.491"/>
</g>
<!-- Node4 -->
<g id="node4" class="node"><title>Node4</title>
<g id="a_node4"><a xlink:href="classjuce_1_1AnimatedAppComponent.html" target="_top" xlink:title="A base class for writing simple one&#45;page graphical apps. ">
<polygon fill="none" stroke="black" points="341.5,-1708.5 341.5,-1727.5 490.5,-1727.5 490.5,-1708.5 341.5,-1708.5"/>
<text text-anchor="middle" x="416" y="-1715.5" font-family="Helvetica,sans-Serif" font-size="10.00">juce::AnimatedAppComponent</text>
</a>
</g>
</g>
<!-- Node2&#45;&gt;Node4 -->
<g id="edge3" class="edge"><title>Node2&#45;&gt;Node4</title>
<path fill="none" stroke="midnightblue" d="M214.661,-896.816C213.135,-1010.37 211.3,-1577.64 324,-1699 328.832,-1704.2 334.692,-1708.18 341.082,-1711.2"/>
<polygon fill="midnightblue" stroke="midnightblue" points="218.161,-896.81 214.812,-886.758 211.162,-896.704 218.161,-896.81"/>
</g>
<!-- Node5 -->
<g id="node5" class="node"><title>Node5</title>
<g id="a_node5"><a xlink:href="classjuce_1_1AudioAppComponent.html" target="_top" xlink:title="A base class for writing audio apps that stream from the audio i/o devices. ">
<polygon fill="none" stroke="black" points="349.5,-1670.5 349.5,-1689.5 482.5,-1689.5 482.5,-1670.5 349.5,-1670.5"/>
<text text-anchor="middle" x="416" y="-1677.5" font-family="Helvetica,sans-Serif" font-size="10.00">juce::AudioAppComponent</text>
</a>
</g>
</g>
<!-- Node2&#45;&gt;Node5 -->
<g id="edge4" class="edge"><title>Node2&#45;&gt;Node5</title>
<path fill="none" stroke="midnightblue" d="M214.824,-896.873C214.262,-1007.29 217.115,-1544.43 324,-1660 330.81,-1667.36 339.658,-1672.33 349.159,-1675.64"/>
<polygon fill="midnightblue" stroke="midnightblue" points="218.326,-896.568 214.894,-886.544 211.326,-896.52 218.326,-896.568"/>
</g>
<!-- Node6 -->
<g id="node6" class="node"><title>Node6</title>
<g id="a_node6"><a xlink:href="classjuce_1_1AudioDeviceSelectorComponent.html" target="_top" xlink:title="A component containing controls to let the user change the audio settings of an AudioDeviceManager ob...">
<polygon fill="none" stroke="black" points="350,-1621 350,-1651 482,-1651 482,-1621 350,-1621"/>
<text text-anchor="start" x="358" y="-1639" font-family="Helvetica,sans-Serif" font-size="10.00">juce::AudioDeviceSelector</text>
<text text-anchor="middle" x="416" y="-1628" font-family="Helvetica,sans-Serif" font-size="10.00">Component</text>
</a>
</g>
</g>
<!-- Node2&#45;&gt;Node6 -->
<g id="edge5" class="edge"><title>Node2&#45;&gt;Node6</title>
<path fill="none" stroke="midnightblue" d="M215.125,-896.865C216.195,-1002.83 226.417,-1500.87 324,-1611 330.954,-1618.85 340.118,-1624.33 349.953,-1628.15"/>
<polygon fill="midnightblue" stroke="midnightblue" points="218.623,-896.611 215.039,-886.641 211.623,-896.67 218.623,-896.611"/>
</g>
<!-- Node7 -->
<g id="node7" class="node"><title>Node7</title>
<g id="a_node7"><a xlink:href="classjuce_1_1AudioProcessorEditor.html" target="_top" xlink:title="Base class for the component that acts as the GUI for an AudioProcessor. ">
<polygon fill="none" stroke="red" points="348.5,-1582.5 348.5,-1601.5 483.5,-1601.5 483.5,-1582.5 348.5,-1582.5"/>
<text text-anchor="middle" x="416" y="-1589.5" font-family="Helvetica,sans-Serif" font-size="10.00">juce::AudioProcessorEditor</text>
</a>
</g>
</g>
<!-- Node2&#45;&gt;Node7 -->
<g id="edge6" class="edge"><title>Node2&#45;&gt;Node7</title>
<path fill="none" stroke="midnightblue" d="M215.184,-896.904C216.552,-999.966 228.045,-1472.07 324,-1573 330.672,-1580.02 339.216,-1584.79 348.387,-1587.98"/>
<polygon fill="midnightblue" stroke="midnightblue" points="218.681,-896.634 215.066,-886.675 211.681,-896.715 218.681,-896.634"/>
</g>
<!-- Node8 -->
<g id="node8" class="node"><title>Node8</title>
<g id="a_node8"><a xlink:href="classjuce_1_1AudioVisualiserComponent.html" target="_top" xlink:title="A simple component that can be used to show a scrolling waveform of audio data. ">
<polygon fill="none" stroke="black" points="337,-1544.5 337,-1563.5 495,-1563.5 495,-1544.5 337,-1544.5"/>
<text text-anchor="middle" x="416" y="-1551.5" font-family="Helvetica,sans-Serif" font-size="10.00">juce::AudioVisualiserComponent</text>
</a>
</g>
</g>
<!-- Node2&#45;&gt;Node8 -->
<g id="edge7" class="edge"><title>Node2&#45;&gt;Node8</title>
<path fill="none" stroke="midnightblue" d="M215.377,-896.752C217.683,-996.1 233.02,-1440.15 324,-1535 327.798,-1538.96 332.193,-1542.2 336.959,-1544.85"/>
<polygon fill="midnightblue" stroke="midnightblue" points="218.873,-896.538 215.16,-886.615 211.875,-896.688 218.873,-896.538"/>
</g>
<!-- Node9 -->
<g id="node9" class="node"><title>Node9</title>
<g id="a_node9"><a xlink:href="classjuce_1_1BubbleComponent.html" target="_top" xlink:title="A component for showing a message or other graphics inside a speech&#45;bubble&#45;shaped outline...">
<polygon fill="none" stroke="red" points="355.5,-1506.5 355.5,-1525.5 476.5,-1525.5 476.5,-1506.5 355.5,-1506.5"/>
<text text-anchor="middle" x="416" y="-1513.5" font-family="Helvetica,sans-Serif" font-size="10.00">juce::BubbleComponent</text>
</a>
</g>
</g>
<!-- Node2&#45;&gt;Node9 -->
<g id="edge8" class="edge"><title>Node2&#45;&gt;Node9</title>
<path fill="none" stroke="midnightblue" d="M215.587,-896.511C218.86,-991.902 237.96,-1408.18 324,-1497 332.422,-1505.69 343.72,-1510.92 355.486,-1513.98"/>
<polygon fill="midnightblue" stroke="midnightblue" points="219.085,-896.394 215.262,-886.512 212.088,-896.621 219.085,-896.394"/>
</g>
<!-- Node10 -->
<g id="node10" class="node"><title>Node10</title>
<g id="a_node10"><a xlink:href="classjuce_1_1Button.html" target="_top" xlink:title="A base class for buttons. ">
<polygon fill="none" stroke="red" points="381.5,-1468.5 381.5,-1487.5 450.5,-1487.5 450.5,-1468.5 381.5,-1468.5"/>
<text text-anchor="middle" x="416" y="-1475.5" font-family="Helvetica,sans-Serif" font-size="10.00">juce::Button</text>
</a>
</g>
</g>
<!-- Node2&#45;&gt;Node10 -->
<g id="edge9" class="edge"><title>Node2&#45;&gt;Node10</title>
<path fill="none" stroke="midnightblue" d="M215.855,-897.047C220.225,-989.816 243.117,-1376.43 324,-1459 338.682,-1473.99 361.919,-1478.65 381.236,-1479.62"/>
<polygon fill="midnightblue" stroke="midnightblue" points="219.34,-896.636 215.393,-886.804 212.347,-896.951 219.34,-896.636"/>
</g>
<!-- Node11 -->
<g id="node11" class="node"><title>Node11</title>
<g id="a_node11"><a xlink:href="classjuce_1_1CallOutBox.html" target="_top" xlink:title="A box with a small arrow that can be used as a temporary pop&#45;up window to show extra controls when a ...">
<polygon fill="none" stroke="black" points="370.5,-1430.5 370.5,-1449.5 461.5,-1449.5 461.5,-1430.5 370.5,-1430.5"/>
<text text-anchor="middle" x="416" y="-1437.5" font-family="Helvetica,sans-Serif" font-size="10.00">juce::CallOutBox</text>
</a>
</g>
</g>
<!-- Node2&#45;&gt;Node11 -->
<g id="edge10" class="edge"><title>Node2&#45;&gt;Node11</title>
<path fill="none" stroke="midnightblue" d="M216.11,-896.579C221.512,-984.795 247.967,-1344.35 324,-1421 336.048,-1433.15 353.72,-1438.49 370.294,-1440.58"/>
<polygon fill="midnightblue" stroke="midnightblue" points="219.603,-896.365 215.518,-886.59 212.616,-896.779 219.603,-896.365"/>
</g>
<!-- Node12 -->
<g id="node12" class="node"><title>Node12</title>
<g id="a_node12"><a xlink:href="classjuce_1_1CaretComponent.html" target="_top" xlink:title="juce::CaretComponent">
<polygon fill="none" stroke="black" points="358.5,-1392.5 358.5,-1411.5 473.5,-1411.5 473.5,-1392.5 358.5,-1392.5"/>
<text text-anchor="middle" x="416" y="-1399.5" font-family="Helvetica,sans-Serif" font-size="10.00">juce::CaretComponent</text>
</a>
</g>
</g>
<!-- Node2&#45;&gt;Node12 -->
<g id="edge11" class="edge"><title>Node2&#45;&gt;Node12</title>
<path fill="none" stroke="midnightblue" d="M216.445,-896.808C223.031,-981.548 253.002,-1312.45 324,-1383 333.159,-1392.1 345.48,-1397.37 358.093,-1400.31"/>
<polygon fill="midnightblue" stroke="midnightblue" points="219.927,-896.44 215.683,-886.732 212.947,-896.968 219.927,-896.44"/>
</g>
<!-- Node13 -->
<g id="node13" class="node"><title>Node13</title>
<g id="a_node13"><a xlink:href="classjuce_1_1CodeEditorComponent.html" target="_top" xlink:title="A text editor component designed specifically for source code. ">
<polygon fill="none" stroke="black" points="346,-1354.5 346,-1373.5 486,-1373.5 486,-1354.5 346,-1354.5"/>
<text text-anchor="middle" x="416" y="-1361.5" font-family="Helvetica,sans-Serif" font-size="10.00">juce::CodeEditorComponent</text>
</a>
</g>
</g>
<!-- Node2&#45;&gt;Node13 -->
<g id="edge12" class="edge"><title>Node2&#45;&gt;Node13</title>
<path fill="none" stroke="midnightblue" d="M216.845,-897.101C224.702,-978.262 258.034,-1280.53 324,-1345 330.118,-1350.98 337.603,-1355.3 345.627,-1358.38"/>
<polygon fill="midnightblue" stroke="midnightblue" points="220.295,-896.411 215.87,-886.785 213.326,-897.07 220.295,-896.411"/>
</g>
<!-- Node14 -->
<g id="node14" class="node"><title>Node14</title>
<g id="a_node14"><a xlink:href="classjuce_1_1ColourSelector.html" target="_top" xlink:title="A component that lets the user choose a colour. ">
<polygon fill="none" stroke="black" points="363.5,-1316.5 363.5,-1335.5 468.5,-1335.5 468.5,-1316.5 363.5,-1316.5"/>
<text text-anchor="middle" x="416" y="-1323.5" font-family="Helvetica,sans-Serif" font-size="10.00">juce::ColourSelector</text>
</a>
</g>
</g>
<!-- Node2&#45;&gt;Node14 -->
<g id="edge13" class="edge"><title>Node2&#45;&gt;Node14</title>
<path fill="none" stroke="midnightblue" d="M217.267,-896.933C226.392,-973.647 262.918,-1248.46 324,-1307 334.487,-1317.05 348.847,-1322.38 363.061,-1325.07"/>
<polygon fill="midnightblue" stroke="midnightblue" points="220.713,-896.268 216.078,-886.741 213.76,-897.079 220.713,-896.268"/>
</g>
<!-- Node15 -->
<g id="node15" class="node"><title>Node15</title>
<g id="a_node15"><a xlink:href="classjuce_1_1ComboBox.html" target="_top" xlink:title="A component that lets the user choose from a drop&#45;down list of choices. ">
<polygon fill="none" stroke="black" points="371.5,-1278.5 371.5,-1297.5 460.5,-1297.5 460.5,-1278.5 371.5,-1278.5"/>
<text text-anchor="middle" x="416" y="-1285.5" font-family="Helvetica,sans-Serif" font-size="10.00">juce::ComboBox</text>
</a>
</g>
</g>
<!-- Node2&#45;&gt;Node15 -->
<g id="edge14" class="edge"><title>Node2&#45;&gt;Node15</title>
<path fill="none" stroke="midnightblue" d="M217.731,-896.551C228.159,-968.385 267.724,-1216.29 324,-1269 336.604,-1280.81 354.569,-1286.06 371.212,-1288.18"/>
<polygon fill="midnightblue" stroke="midnightblue" points="221.188,-895.996 216.31,-886.591 214.258,-896.985 221.188,-895.996"/>
</g>
<!-- Node16 -->
<g id="node16" class="node"><title>Node16</title>
<g id="a_node16"><a xlink:href="classjuce_1_1ConcertinaPanel.html" target="_top" xlink:title="A panel which holds a vertical stack of components which can be expanded and contracted. ">
<polygon fill="none" stroke="black" points="359.5,-1240.5 359.5,-1259.5 472.5,-1259.5 472.5,-1240.5 359.5,-1240.5"/>
<text text-anchor="middle" x="416" y="-1247.5" font-family="Helvetica,sans-Serif" font-size="10.00">juce::ConcertinaPanel</text>
</a>
</g>
</g>
<!-- Node2&#45;&gt;Node16 -->
<g id="edge15" class="edge"><title>Node2&#45;&gt;Node16</title>
<path fill="none" stroke="midnightblue" d="M214.623,-896.771C214.622,-956.931 223.304,-1139.25 324,-1231 333.663,-1239.8 346.321,-1244.94 359.112,-1247.85"/>
<polygon fill="midnightblue" stroke="midnightblue" points="218.123,-896.748 214.709,-886.718 211.123,-896.688 218.123,-896.748"/>
</g>
<!-- Node17 -->
<g id="node17" class="node"><title>Node17</title>
<g id="a_node17"><a xlink:href="classjuce_1_1Drawable.html" target="_top" xlink:title="The base class for objects which can draw themselves, e.g. ">
<polygon fill="none" stroke="red" points="375,-1202.5 375,-1221.5 457,-1221.5 457,-1202.5 375,-1202.5"/>
<text text-anchor="middle" x="416" y="-1209.5" font-family="Helvetica,sans-Serif" font-size="10.00">juce::Drawable</text>
</a>
</g>
</g>
<!-- Node2&#45;&gt;Node17 -->
<g id="edge16" class="edge"><title>Node2&#45;&gt;Node17</title>
<path fill="none" stroke="midnightblue" d="M215.466,-896.835C217.915,-952.748 232.939,-1112.77 324,-1193 337.805,-1205.16 357.361,-1210.26 374.808,-1212.17"/>
<polygon fill="midnightblue" stroke="midnightblue" points="218.954,-896.423 215.111,-886.55 211.958,-896.665 218.954,-896.423"/>
</g>
<!-- Node18 -->
<g id="node18" class="node"><title>Node18</title>
<g id="a_node18"><a xlink:href="classjuce_1_1FileBrowserComponent.html" target="_top" xlink:title="A component for browsing and selecting a file or directory to open or save. ">
<polygon fill="none" stroke="black" points="344.5,-1164.5 344.5,-1183.5 487.5,-1183.5 487.5,-1164.5 344.5,-1164.5"/>
<text text-anchor="middle" x="416" y="-1171.5" font-family="Helvetica,sans-Serif" font-size="10.00">juce::FileBrowserComponent</text>
</a>
</g>
</g>
<!-- Node2&#45;&gt;Node18 -->
<g id="edge17" class="edge"><title>Node2&#45;&gt;Node18</title>
<path fill="none" stroke="midnightblue" d="M216.519,-896.84C221.569,-948.167 242.452,-1086.11 324,-1155 329.918,-1160 336.816,-1163.79 344.118,-1166.65"/>
<polygon fill="midnightblue" stroke="midnightblue" points="219.994,-896.401 215.626,-886.748 213.022,-897.018 219.994,-896.401"/>
</g>
<!-- Node19 -->
<g id="node19" class="node"><title>Node19</title>
<g id="a_node19"><a xlink:href="classjuce_1_1FilenameComponent.html" target="_top" xlink:title="Shows a filename as an editable text box, with a &#39;browse&#39; button and a drop&#45;down list for recently se...">
<polygon fill="none" stroke="black" points="350.5,-1126.5 350.5,-1145.5 481.5,-1145.5 481.5,-1126.5 350.5,-1126.5"/>
<text text-anchor="middle" x="416" y="-1133.5" font-family="Helvetica,sans-Serif" font-size="10.00">juce::FilenameComponent</text>
</a>
</g>
</g>
<!-- Node2&#45;&gt;Node19 -->
<g id="edge18" class="edge"><title>Node2&#45;&gt;Node19</title>
<path fill="none" stroke="midnightblue" d="M217.835,-896.6C225.61,-942.831 251.727,-1059.13 324,-1117 331.685,-1123.15 340.875,-1127.45 350.415,-1130.43"/>
<polygon fill="midnightblue" stroke="midnightblue" points="221.283,-895.999 216.27,-886.666 214.369,-897.088 221.283,-895.999"/>
</g>
<!-- Node20 -->
<g id="node20" class="node"><title>Node20</title>
<g id="a_node20"><a xlink:href="classjuce_1_1FilePreviewComponent.html" target="_top" xlink:title="Base class for components that live inside a file chooser dialog box and show previews of the files t...">
<polygon fill="none" stroke="red" points="345,-1088.5 345,-1107.5 487,-1107.5 487,-1088.5 345,-1088.5"/>
<text text-anchor="middle" x="416" y="-1095.5" font-family="Helvetica,sans-Serif" font-size="10.00">juce::FilePreviewComponent</text>
</a>
</g>
</g>
<!-- Node2&#45;&gt;Node20 -->
<g id="edge19" class="edge"><title>Node2&#45;&gt;Node20</title>
<path fill="none" stroke="midnightblue" d="M219.753,-896.65C230.668,-937.352 261.532,-1030.99 324,-1078 330.204,-1082.67 337.281,-1086.29 344.685,-1089.09"/>
<polygon fill="midnightblue" stroke="midnightblue" points="223.118,-895.684 217.244,-886.867 216.338,-897.423 223.118,-895.684"/>
</g>
<!-- Node21 -->
<g id="node21" class="node"><title>Node21</title>
<g id="a_node21"><a xlink:href="classjuce_1_1FileSearchPathListComponent.html" target="_top" xlink:title="Shows a set of file paths in a list, allowing them to be added, removed or re&#45;ordered. ">
<polygon fill="none" stroke="black" points="354.5,-1039 354.5,-1069 477.5,-1069 477.5,-1039 354.5,-1039"/>
<text text-anchor="start" x="362.5" y="-1057" font-family="Helvetica,sans-Serif" font-size="10.00">juce::FileSearchPathList</text>
<text text-anchor="middle" x="416" y="-1046" font-family="Helvetica,sans-Serif" font-size="10.00">Component</text>
</a>
</g>
</g>
<!-- Node2&#45;&gt;Node21 -->
<g id="edge20" class="edge"><title>Node2&#45;&gt;Node21</title>
<path fill="none" stroke="midnightblue" d="M223.24,-895.787C238.382,-928.077 273.748,-993.998 324,-1029 333.008,-1035.27 343.533,-1039.98 354.166,-1043.5"/>
<polygon fill="midnightblue" stroke="midnightblue" points="226.371,-894.217 219.042,-886.567 220.001,-897.118 226.371,-894.217"/>
</g>
<!-- Node22 -->
<g id="node22" class="node"><title>Node22</title>
<g id="a_node22"><a xlink:href="classjuce_1_1GroupComponent.html" target="_top" xlink:title="A component that draws an outline around itself and has an optional title at the top, for drawing an outline around a group of controls. ">
<polygon fill="none" stroke="black" points="357.5,-1000.5 357.5,-1019.5 474.5,-1019.5 474.5,-1000.5 357.5,-1000.5"/>
<text text-anchor="middle" x="416" y="-1007.5" font-family="Helvetica,sans-Serif" font-size="10.00">juce::GroupComponent</text>
</a>
</g>
</g>
<!-- Node2&#45;&gt;Node22 -->
<g id="edge21" class="edge"><title>Node2&#45;&gt;Node22</title>
<path fill="none" stroke="midnightblue" d="M227.016,-895.272C244.924,-920.944 281.143,-967.206 324,-991 334.16,-996.641 345.803,-1000.61 357.291,-1003.41"/>
<polygon fill="midnightblue" stroke="midnightblue" points="229.788,-893.124 221.268,-886.825 224,-897.062 229.788,-893.124"/>
</g>
<!-- Node23 -->
<g id="node23" class="node"><title>Node23</title>
<g id="a_node23"><a xlink:href="classjuce_1_1ImageComponent.html" target="_top" xlink:title="A component that simply displays an image. ">
<polygon fill="none" stroke="black" points="357,-962.5 357,-981.5 475,-981.5 475,-962.5 357,-962.5"/>
<text text-anchor="middle" x="416" y="-969.5" font-family="Helvetica,sans-Serif" font-size="10.00">juce::ImageComponent</text>
</a>
</g>
</g>
<!-- Node2&#45;&gt;Node23 -->
<g id="edge22" class="edge"><title>Node2&#45;&gt;Node23</title>
<path fill="none" stroke="midnightblue" d="M233.191,-893.191C253.772,-910.629 289.001,-937.898 324,-953 334.225,-957.412 345.549,-960.826 356.636,-963.459"/>
<polygon fill="midnightblue" stroke="midnightblue" points="235.414,-890.487 225.557,-886.601 230.84,-895.785 235.414,-890.487"/>
</g>
<!-- Node24 -->
<g id="node24" class="node"><title>Node24</title>
<g id="a_node24"><a xlink:href="classjuce_1_1JUCESplashScreen.html" target="_top" xlink:title="The standard JUCE splash screen component. ">
<polygon fill="none" stroke="black" points="352,-924.5 352,-943.5 480,-943.5 480,-924.5 352,-924.5"/>
<text text-anchor="middle" x="416" y="-931.5" font-family="Helvetica,sans-Serif" font-size="10.00">juce::JUCESplashScreen</text>
</a>
</g>
</g>
<!-- Node2&#45;&gt;Node24 -->
<g id="edge23" class="edge"><title>Node2&#45;&gt;Node24</title>
<path fill="none" stroke="midnightblue" d="M248.965,-890.117C270.291,-898.033 298.493,-907.923 324,-915 336.597,-918.495 350.333,-921.68 363.225,-924.402"/>
<polygon fill="midnightblue" stroke="midnightblue" points="249.98,-886.76 239.387,-886.523 247.52,-893.313 249.98,-886.76"/>
</g>
<!-- Node25 -->
<g id="node25" class="node"><title>Node25</title>
<g id="a_node25"><a xlink:href="classjuce_1_1KeyMappingEditorComponent.html" target="_top" xlink:title="A component to allow editing of the keymaps stored by a KeyPressMappingSet object. ">
<polygon fill="none" stroke="black" points="331,-886.5 331,-905.5 501,-905.5 501,-886.5 331,-886.5"/>
<text text-anchor="middle" x="416" y="-893.5" font-family="Helvetica,sans-Serif" font-size="10.00">juce::KeyMappingEditorComponent</text>
</a>
</g>
</g>
<!-- Node2&#45;&gt;Node25 -->
<g id="edge24" class="edge"><title>Node2&#45;&gt;Node25</title>
<path fill="none" stroke="midnightblue" d="M270.031,-882.228C288.832,-884.014 310.311,-886.055 330.873,-888.008"/>
<polygon fill="midnightblue" stroke="midnightblue" points="270.17,-878.725 259.884,-881.264 269.508,-885.694 270.17,-878.725"/>
</g>
<!-- Node26 -->
<g id="node26" class="node"><title>Node26</title>
<g id="a_node26"><a xlink:href="classjuce_1_1Label.html" target="_top" xlink:title="A component that displays a text string, and can optionally become a text editor when clicked...">
<polygon fill="none" stroke="black" points="384,-848.5 384,-867.5 448,-867.5 448,-848.5 384,-848.5"/>
<text text-anchor="middle" x="416" y="-855.5" font-family="Helvetica,sans-Serif" font-size="10.00">juce::Label</text>
</a>
</g>
</g>
<!-- Node2&#45;&gt;Node26 -->
<g id="edge25" class="edge"><title>Node2&#45;&gt;Node26</title>
<path fill="none" stroke="midnightblue" d="M269.939,-871.781C306.629,-868.295 353.551,-863.838 383.935,-860.951"/>
<polygon fill="midnightblue" stroke="midnightblue" points="269.508,-868.306 259.884,-872.736 270.17,-875.275 269.508,-868.306"/>
</g>
<!-- Node27 -->
<g id="node27" class="node"><title>Node27</title>
<g id="a_node27"><a xlink:href="classjuce_1_1LassoComponent.html" target="_top" xlink:title="A component that acts as a rectangular selection region, which you drag with the mouse to select grou...">
<polygon fill="none" stroke="black" points="355,-799 355,-829 477,-829 477,-799 355,-799"/>
<text text-anchor="start" x="363" y="-817" font-family="Helvetica,sans-Serif" font-size="10.00">juce::LassoComponent</text>
<text text-anchor="middle" x="416" y="-806" font-family="Helvetica,sans-Serif" font-size="10.00">&lt; SelectableItemType &gt;</text>
</a>
</g>
</g>
<!-- Node2&#45;&gt;Node27 -->
<g id="edge26" class="edge"><title>Node2&#45;&gt;Node27</title>
<path fill="none" stroke="midnightblue" d="M268.197,-864.695C274.939,-862.687 281.684,-860.451 288,-858 304.867,-851.456 307.178,-845.658 324,-839 333.75,-835.141 344.312,-831.649 354.672,-828.582"/>
<polygon fill="midnightblue" stroke="midnightblue" points="267.042,-861.384 258.372,-867.473 268.947,-868.12 267.042,-861.384"/>
</g>
<!-- Node28 -->
<g id="node28" class="node"><title>Node28</title>
<g id="a_node28"><a xlink:href="classjuce_1_1ListBox.html" target="_top" xlink:title="A list of items that can be scrolled vertically. ">
<polygon fill="none" stroke="red" points="379,-760.5 379,-779.5 453,-779.5 453,-760.5 379,-760.5"/>
<text text-anchor="middle" x="416" y="-767.5" font-family="Helvetica,sans-Serif" font-size="10.00">juce::ListBox</text>
</a>
</g>
</g>
<!-- Node2&#45;&gt;Node28 -->
<g id="edge27" class="edge"><title>Node2&#45;&gt;Node28</title>
<path fill="none" stroke="midnightblue" d="M269.611,-868.24C276.219,-865.653 282.548,-862.312 288,-858 314.819,-836.784 296.779,-810.698 324,-790 339.58,-778.153 360.762,-773.037 378.769,-770.936"/>
<polygon fill="midnightblue" stroke="midnightblue" points="268.176,-865.03 259.799,-871.516 270.392,-871.669 268.176,-865.03"/>
</g>
<!-- Node29 -->
<g id="node29" class="node"><title>Node29</title>
<g id="a_node29"><a xlink:href="classjuce_1_1MenuBarComponent.html" target="_top" xlink:title="A menu bar component. ">
<polygon fill="none" stroke="black" points="351,-722.5 351,-741.5 481,-741.5 481,-722.5 351,-722.5"/>
<text text-anchor="middle" x="416" y="-729.5" font-family="Helvetica,sans-Serif" font-size="10.00">juce::MenuBarComponent</text>
</a>
</g>
</g>
<!-- Node2&#45;&gt;Node29 -->
<g id="edge28" class="edge"><title>Node2&#45;&gt;Node29</title>
<path fill="none" stroke="midnightblue" d="M269.343,-869.441C276.199,-866.682 282.666,-862.973 288,-858 324.698,-823.783 286.479,-784.312 324,-751 331.604,-744.249 340.976,-739.671 350.786,-736.604"/>
<polygon fill="midnightblue" stroke="midnightblue" points="268.185,-866.138 259.824,-872.644 270.418,-872.772 268.185,-866.138"/>
</g>
<!-- Node30 -->
<g id="node30" class="node"><title>Node30</title>
<g id="a_node30"><a xlink:href="classjuce_1_1MidiKeyboardComponent.html" target="_top" xlink:title="A component that displays a piano keyboard, whose notes can be clicked on. ">
<polygon fill="none" stroke="black" points="341,-684.5 341,-703.5 491,-703.5 491,-684.5 341,-684.5"/>
<text text-anchor="middle" x="416" y="-691.5" font-family="Helvetica,sans-Serif" font-size="10.00">juce::MidiKeyboardComponent</text>
</a>
</g>
</g>
<!-- Node2&#45;&gt;Node30 -->
<g id="edge29" class="edge"><title>Node2&#45;&gt;Node30</title>
<path fill="none" stroke="midnightblue" d="M269.47,-869.935C276.364,-867.109 282.809,-863.25 288,-858 334.687,-810.784 276.175,-759.063 324,-713 328.882,-708.298 334.612,-704.627 340.779,-701.776"/>
<polygon fill="midnightblue" stroke="midnightblue" points="268.217,-866.664 259.864,-873.182 270.459,-873.295 268.217,-866.664"/>
</g>
<!-- Node31 -->
<g id="node31" class="node"><title>Node31</title>
<g id="a_node31"><a xlink:href="classjuce_1_1MultiDocumentPanel.html" target="_top" xlink:title="A component that contains a set of other components either in floating windows or tabs...">
<polygon fill="none" stroke="black" points="350.5,-646.5 350.5,-665.5 481.5,-665.5 481.5,-646.5 350.5,-646.5"/>
<text text-anchor="middle" x="416" y="-653.5" font-family="Helvetica,sans-Serif" font-size="10.00">juce::MultiDocumentPanel</text>
</a>
</g>
</g>
<!-- Node2&#45;&gt;Node31 -->
<g id="edge30" class="edge"><title>Node2&#45;&gt;Node31</title>
<path fill="none" stroke="midnightblue" d="M269.456,-870.269C276.412,-867.401 282.878,-863.441 288,-858 344.818,-797.644 265.727,-733.952 324,-675 331.261,-667.654 340.58,-662.793 350.472,-659.635"/>
<polygon fill="midnightblue" stroke="midnightblue" points="268.107,-867.03 259.748,-873.54 270.342,-873.664 268.107,-867.03"/>
</g>
<!-- Node32 -->
<g id="node32" class="node"><title>Node32</title>
<g id="a_node32"><a xlink:href="classjuce_1_1NSViewComponent.html" target="_top" xlink:title="A Mac&#45;specific class that can create and embed an NSView inside itself. ">
<polygon fill="none" stroke="black" points="352.5,-608.5 352.5,-627.5 479.5,-627.5 479.5,-608.5 352.5,-608.5"/>
<text text-anchor="middle" x="416" y="-615.5" font-family="Helvetica,sans-Serif" font-size="10.00">juce::NSViewComponent</text>
</a>
</g>
</g>
<!-- Node2&#45;&gt;Node32 -->
<g id="edge31" class="edge"><title>Node2&#45;&gt;Node32</title>
<path fill="none" stroke="midnightblue" d="M269.368,-870.523C276.397,-867.626 282.907,-863.591 288,-858 355.017,-784.431 255.209,-708.912 324,-637 331.586,-629.07 341.563,-624.012 352.125,-620.86"/>
<polygon fill="midnightblue" stroke="midnightblue" points="267.921,-867.317 259.547,-873.808 270.141,-873.956 267.921,-867.317"/>
</g>
<!-- Node33 -->
<g id="node33" class="node"><title>Node33</title>
<g id="a_node33"><a xlink:href="classjuce_1_1OnlineUnlockForm.html" target="_top" xlink:title="Acts as a GUI which asks the user for their details, and calls the approriate methods on your OnlineU...">
<polygon fill="none" stroke="black" points="355,-570.5 355,-589.5 477,-589.5 477,-570.5 355,-570.5"/>
<text text-anchor="middle" x="416" y="-577.5" font-family="Helvetica,sans-Serif" font-size="10.00">juce::OnlineUnlockForm</text>
</a>
</g>
</g>
<!-- Node2&#45;&gt;Node33 -->
<g id="edge32" class="edge"><title>Node2&#45;&gt;Node33</title>
<path fill="none" stroke="midnightblue" d="M269.486,-870.63C276.499,-867.718 282.973,-863.65 288,-858 365.254,-771.176 244.651,-683.913 324,-599 332.154,-590.274 343.198,-585.005 354.78,-581.924"/>
<polygon fill="midnightblue" stroke="midnightblue" points="268.042,-867.423 259.676,-873.924 270.27,-874.059 268.042,-867.423"/>
</g>
<!-- Node34 -->
<g id="node34" class="node"><title>Node34</title>
<g id="a_node34"><a xlink:href="classjuce_1_1OpenGLAppComponent.html" target="_top" xlink:title="A base class for writing simple one&#45;page graphical apps. ">
<polygon fill="none" stroke="black" points="344,-532.5 344,-551.5 488,-551.5 488,-532.5 344,-532.5"/>
<text text-anchor="middle" x="416" y="-539.5" font-family="Helvetica,sans-Serif" font-size="10.00">juce::OpenGLAppComponent</text>
</a>
</g>
</g>
<!-- Node2&#45;&gt;Node34 -->
<g id="edge33" class="edge"><title>Node2&#45;&gt;Node34</title>
<path fill="none" stroke="midnightblue" d="M269.576,-870.708C276.575,-867.786 283.022,-863.694 288,-858 375.516,-757.895 234.069,-658.941 324,-561 329.458,-555.056 336.255,-550.709 343.66,-547.562"/>
<polygon fill="midnightblue" stroke="midnightblue" points="268.133,-867.501 259.774,-874.01 270.368,-874.135 268.133,-867.501"/>
</g>
<!-- Node35 -->
<g id="node35" class="node"><title>Node35</title>
<g id="a_node35"><a xlink:href="classjuce_1_1PluginListComponent.html" target="_top" xlink:title="A component displaying a list of plugins, with options to scan for them, add, remove and sort them...">
<polygon fill="none" stroke="black" points="349,-494.5 349,-513.5 483,-513.5 483,-494.5 349,-494.5"/>
<text text-anchor="middle" x="416" y="-501.5" font-family="Helvetica,sans-Serif" font-size="10.00">juce::PluginListComponent</text>
</a>
</g>
</g>
<!-- Node2&#45;&gt;Node35 -->
<g id="edge34" class="edge"><title>Node2&#45;&gt;Node35</title>
<path fill="none" stroke="midnightblue" d="M269.645,-870.769C276.636,-867.838 283.061,-863.727 288,-858 385.792,-744.596 223.47,-633.985 324,-523 330.609,-515.703 339.236,-510.805 348.542,-507.577"/>
<polygon fill="midnightblue" stroke="midnightblue" points="268.205,-867.561 259.85,-874.076 270.444,-874.193 268.205,-867.561"/>
</g>
<!-- Node36 -->
<g id="node36" class="node"><title>Node36</title>
<g id="a_node36"><a xlink:href="classjuce_1_1PopupMenu_1_1CustomComponent.html" target="_top" xlink:title="A user&#45;defined component that can be used as an item in a popup menu. ">
<polygon fill="none" stroke="black" points="324.5,-456.5 324.5,-475.5 507.5,-475.5 507.5,-456.5 324.5,-456.5"/>
<text text-anchor="middle" x="416" y="-463.5" font-family="Helvetica,sans-Serif" font-size="10.00">juce::PopupMenu::CustomComponent</text>
</a>
</g>
</g>
<!-- Node2&#45;&gt;Node36 -->
<g id="edge35" class="edge"><title>Node2&#45;&gt;Node36</title>
<path fill="none" stroke="midnightblue" d="M269.452,-870.921C276.531,-867.977 283.034,-863.823 288,-858 342.04,-794.642 268.43,-547.021 324,-485 327.339,-481.274 331.203,-478.171 335.417,-475.596"/>
<polygon fill="midnightblue" stroke="midnightblue" points="267.911,-867.746 259.531,-874.229 270.125,-874.386 267.911,-867.746"/>
</g>
<!-- Node37 -->
<g id="node37" class="node"><title>Node37</title>
<g id="a_node37"><a xlink:href="classjuce_1_1PreferencesPanel.html" target="_top" xlink:title="A component with a set of buttons at the top for changing between pages of preferences. ">
<polygon fill="none" stroke="black" points="357,-418.5 357,-437.5 475,-437.5 475,-418.5 357,-418.5"/>
<text text-anchor="middle" x="416" y="-425.5" font-family="Helvetica,sans-Serif" font-size="10.00">juce::PreferencesPanel</text>
</a>
</g>
</g>
<!-- Node2&#45;&gt;Node37 -->
<g id="edge36" class="edge"><title>Node2&#45;&gt;Node37</title>
<path fill="none" stroke="midnightblue" d="M269.498,-870.961C276.571,-868.011 283.06,-863.845 288,-858 347.188,-787.982 263.122,-515.554 324,-447 332.466,-437.466 344.373,-432.008 356.791,-429.016"/>
<polygon fill="midnightblue" stroke="midnightblue" points="267.958,-867.785 259.582,-874.272 270.175,-874.424 267.958,-867.785"/>
</g>
<!-- Node38 -->
<g id="node38" class="node"><title>Node38</title>
<g id="a_node38"><a xlink:href="classjuce_1_1ProgressBar.html" target="_top" xlink:title="A progress bar component. ">
<polygon fill="none" stroke="black" points="368.5,-380.5 368.5,-399.5 463.5,-399.5 463.5,-380.5 368.5,-380.5"/>
<text text-anchor="middle" x="416" y="-387.5" font-family="Helvetica,sans-Serif" font-size="10.00">juce::ProgressBar</text>
</a>
</g>
</g>
<!-- Node2&#45;&gt;Node38 -->
<g id="edge37" class="edge"><title>Node2&#45;&gt;Node38</title>
<path fill="none" stroke="midnightblue" d="M269.536,-870.993C276.604,-868.039 283.081,-863.863 288,-858 352.338,-781.318 257.81,-484.09 324,-409 334.992,-396.53 351.87,-391.018 368.119,-388.885"/>
<polygon fill="midnightblue" stroke="midnightblue" points="267.998,-867.817 259.624,-874.307 270.217,-874.456 267.998,-867.817"/>
</g>
<!-- Node39 -->
<g id="node39" class="node"><title>Node39</title>
<g id="a_node39"><a xlink:href="classjuce_1_1PropertyComponent.html" target="_top" xlink:title="A base class for a component that goes in a PropertyPanel and displays one of an item&#39;s properties...">
<polygon fill="none" stroke="red" points="352,-342.5 352,-361.5 480,-361.5 480,-342.5 352,-342.5"/>
<text text-anchor="middle" x="416" y="-349.5" font-family="Helvetica,sans-Serif" font-size="10.00">juce::PropertyComponent</text>
</a>
</g>
</g>
<!-- Node2&#45;&gt;Node39 -->
<g id="edge38" class="edge"><title>Node2&#45;&gt;Node39</title>
<path fill="none" stroke="midnightblue" d="M269.569,-871.02C276.632,-868.062 283.099,-863.878 288,-858 357.491,-774.651 252.496,-452.629 324,-371 331.231,-362.745 341.042,-357.534 351.551,-354.334"/>
<polygon fill="midnightblue" stroke="midnightblue" points="268.031,-867.844 259.659,-874.337 270.253,-874.482 268.031,-867.844"/>
</g>
<!-- Node40 -->
<g id="node40" class="node"><title>Node40</title>
<g id="a_node40"><a xlink:href="classjuce_1_1PropertyPanel.html" target="_top" xlink:title="A panel that holds a list of PropertyComponent objects. ">
<polygon fill="none" stroke="black" points="365,-304.5 365,-323.5 467,-323.5 467,-304.5 365,-304.5"/>
<text text-anchor="middle" x="416" y="-311.5" font-family="Helvetica,sans-Serif" font-size="10.00">juce::PropertyPanel</text>
</a>
</g>
</g>
<!-- Node2&#45;&gt;Node40 -->
<g id="edge39" class="edge"><title>Node2&#45;&gt;Node40</title>
<path fill="none" stroke="midnightblue" d="M269.597,-871.043C276.656,-868.082 283.115,-863.891 288,-858 362.646,-767.983 247.181,-421.17 324,-333 334.178,-321.318 349.519,-315.726 364.72,-313.299"/>
<polygon fill="midnightblue" stroke="midnightblue" points="268.06,-867.867 259.69,-874.363 270.284,-874.505 268.06,-867.867"/>
</g>
<!-- Node41 -->
<g id="node41" class="node"><title>Node41</title>
<g id="a_node41"><a xlink:href="classjuce_1_1ResizableBorderComponent.html" target="_top" xlink:title="A component that resizes its parent component when dragged. ">
<polygon fill="none" stroke="black" points="334.5,-266.5 334.5,-285.5 497.5,-285.5 497.5,-266.5 334.5,-266.5"/>
<text text-anchor="middle" x="416" y="-273.5" font-family="Helvetica,sans-Serif" font-size="10.00">juce::ResizableBorderComponent</text>
</a>
</g>
</g>
<!-- Node2&#45;&gt;Node41 -->
<g id="edge40" class="edge"><title>Node2&#45;&gt;Node41</title>
<path fill="none" stroke="midnightblue" d="M269.621,-871.064C276.677,-868.1 283.129,-863.902 288,-858 367.802,-761.313 241.863,-389.712 324,-295 327.172,-291.342 330.851,-288.281 334.873,-285.726"/>
<polygon fill="midnightblue" stroke="midnightblue" points="268.085,-867.887 259.716,-874.384 270.31,-874.524 268.085,-867.887"/>
</g>
<!-- Node42 -->
<g id="node42" class="node"><title>Node42</title>
<g id="a_node42"><a xlink:href="classjuce_1_1ResizableCornerComponent.html" target="_top" xlink:title="A component that resizes a parent component when dragged. ">
<polygon fill="none" stroke="black" points="334,-228.5 334,-247.5 498,-247.5 498,-228.5 334,-228.5"/>
<text text-anchor="middle" x="416" y="-235.5" font-family="Helvetica,sans-Serif" font-size="10.00">juce::ResizableCornerComponent</text>
</a>
</g>
</g>
<!-- Node2&#45;&gt;Node42 -->
<g id="edge41" class="edge"><title>Node2&#45;&gt;Node42</title>
<path fill="none" stroke="midnightblue" d="M269.643,-871.081C276.696,-868.115 283.14,-863.912 288,-858 372.959,-754.641 236.545,-358.256 324,-257 327.165,-253.336 330.838,-250.269 334.856,-247.711"/>
<polygon fill="midnightblue" stroke="midnightblue" points="268.107,-867.905 259.739,-874.403 270.333,-874.541 268.107,-867.905"/>
</g>
<!-- Node43 -->
<g id="node43" class="node"><title>Node43</title>
<g id="a_node43"><a xlink:href="classjuce_1_1ResizableEdgeComponent.html" target="_top" xlink:title="A component that resizes its parent component when dragged. ">
<polygon fill="none" stroke="black" points="337.5,-190.5 337.5,-209.5 494.5,-209.5 494.5,-190.5 337.5,-190.5"/>
<text text-anchor="middle" x="416" y="-197.5" font-family="Helvetica,sans-Serif" font-size="10.00">juce::ResizableEdgeComponent</text>
</a>
</g>
</g>
<!-- Node2&#45;&gt;Node43 -->
<g id="edge42" class="edge"><title>Node2&#45;&gt;Node43</title>
<path fill="none" stroke="midnightblue" d="M269.661,-871.096C276.712,-868.128 283.151,-863.921 288,-858 378.117,-747.968 231.226,-326.801 324,-219 327.79,-214.596 332.314,-211.055 337.29,-208.221"/>
<polygon fill="midnightblue" stroke="midnightblue" points="268.126,-867.92 259.76,-874.42 270.354,-874.556 268.126,-867.92"/>
</g>
<!-- Node44 -->
<g id="node44" class="node"><title>Node44</title>
<g id="a_node44"><a xlink:href="classjuce_1_1ScrollBar.html" target="_top" xlink:title="A scrollbar component. ">
<polygon fill="none" stroke="black" points="376,-152.5 376,-171.5 456,-171.5 456,-152.5 376,-152.5"/>
<text text-anchor="middle" x="416" y="-159.5" font-family="Helvetica,sans-Serif" font-size="10.00">juce::ScrollBar</text>
</a>
</g>
</g>
<!-- Node2&#45;&gt;Node44 -->
<g id="edge43" class="edge"><title>Node2&#45;&gt;Node44</title>
<path fill="none" stroke="midnightblue" d="M269.678,-871.11C276.726,-868.14 283.16,-863.928 288,-858 383.276,-741.295 225.906,-295.346 324,-181 336.61,-166.301 357.393,-161.207 375.917,-159.944"/>
<polygon fill="midnightblue" stroke="midnightblue" points="268.143,-867.933 259.778,-874.435 270.372,-874.569 268.143,-867.933"/>
</g>
<!-- Node45 -->
<g id="node45" class="node"><title>Node45</title>
<g id="a_node45"><a xlink:href="classjuce_1_1Slider.html" target="_top" xlink:title="A slider control for changing a value. ">
<polygon fill="none" stroke="black" points="383.5,-114.5 383.5,-133.5 448.5,-133.5 448.5,-114.5 383.5,-114.5"/>
<text text-anchor="middle" x="416" y="-121.5" font-family="Helvetica,sans-Serif" font-size="10.00">juce::Slider</text>
</a>
</g>
</g>
<!-- Node2&#45;&gt;Node45 -->
<g id="edge44" class="edge"><title>Node2&#45;&gt;Node45</title>
<path fill="none" stroke="midnightblue" d="M269.693,-871.122C276.739,-868.151 283.169,-863.935 288,-858 388.435,-734.621 220.585,-263.893 324,-143 338.268,-126.321 363.059,-122.001 383.165,-121.616"/>
<polygon fill="midnightblue" stroke="midnightblue" points="268.159,-867.945 259.794,-874.448 270.388,-874.581 268.159,-867.945"/>
</g>
<!-- Node46 -->
<g id="node46" class="node"><title>Node46</title>
<g id="a_node46"><a xlink:href="classjuce_1_1SplashScreen.html" target="_top" xlink:title="A component for showing a splash screen while your app starts up. ">
<polygon fill="none" stroke="black" points="365.5,-76.5 365.5,-95.5 466.5,-95.5 466.5,-76.5 365.5,-76.5"/>
<text text-anchor="middle" x="416" y="-83.5" font-family="Helvetica,sans-Serif" font-size="10.00">juce::SplashScreen</text>
</a>
</g>
</g>
<!-- Node2&#45;&gt;Node46 -->
<g id="edge45" class="edge"><title>Node2&#45;&gt;Node46</title>
<path fill="none" stroke="midnightblue" d="M269.706,-871.133C276.751,-868.16 283.176,-863.941 288,-858 340.797,-792.973 269.632,-168.72 324,-105 334.161,-93.0908 349.687,-87.4787 365.053,-85.1015"/>
<polygon fill="midnightblue" stroke="midnightblue" points="268.172,-867.956 259.809,-874.46 270.403,-874.591 268.172,-867.956"/>
</g>
<!-- Node47 -->
<g id="node47" class="node"><title>Node47</title>
<g id="a_node47"><a xlink:href="classjuce_1_1StretchableLayoutResizerBar.html" target="_top" xlink:title="A component that acts as one of the vertical or horizontal bars you see being used to resize panels i...">
<polygon fill="none" stroke="black" points="332,-38.5 332,-57.5 500,-57.5 500,-38.5 332,-38.5"/>
<text text-anchor="middle" x="416" y="-45.5" font-family="Helvetica,sans-Serif" font-size="10.00">juce::StretchableLayoutResizerBar</text>
</a>
</g>
</g>
<!-- Node2&#45;&gt;Node47 -->
<g id="edge46" class="edge"><title>Node2&#45;&gt;Node47</title>
<path fill="none" stroke="midnightblue" d="M269.719,-871.143C276.761,-868.169 283.183,-863.947 288,-858 343.378,-789.635 266.971,-133.994 324,-67 327.138,-63.3131 330.791,-60.2294 334.794,-57.6582"/>
<polygon fill="midnightblue" stroke="midnightblue" points="268.185,-867.966 259.822,-874.471 270.416,-874.601 268.185,-867.966"/>
</g>
<!-- Node48 -->
<g id="node48" class="node"><title>Node48</title>
<g id="a_node48"><a xlink:href="classjuce_1_1SystemTrayIconComponent.html" target="_top" xlink:title="This component sits in the taskbar tray as a small icon. ">
<polygon fill="none" stroke="black" points="334.5,-0.5 334.5,-19.5 497.5,-19.5 497.5,-0.5 334.5,-0.5"/>
<text text-anchor="middle" x="416" y="-7.5" font-family="Helvetica,sans-Serif" font-size="10.00">juce::SystemTrayIconComponent</text>
</a>
</g>
</g>
<!-- Node2&#45;&gt;Node48 -->
<g id="edge47" class="edge"><title>Node2&#45;&gt;Node48</title>
<path fill="none" stroke="midnightblue" d="M269.73,-871.152C276.771,-868.176 283.189,-863.952 288,-858 345.958,-786.297 264.31,-99.268 324,-29 327.135,-25.3099 330.784,-22.2237 334.785,-19.6506"/>
<polygon fill="midnightblue" stroke="midnightblue" points="268.196,-867.975 259.834,-874.481 270.428,-874.61 268.196,-867.975"/>
</g>
</g>
</svg>
