<?xml version="1.0" encoding="UTF-8" standalone="no"?>
<!DOCTYPE svg PUBLIC "-//W3C//DTD SVG 1.1//EN"
 "http://www.w3.org/Graphics/SVG/1.1/DTD/svg11.dtd">
<!-- Generated by graphviz version 2.36.0 (20140111.2315)
 -->
<!-- Title: ChangeBroadcaster Pages: 1 -->
<svg width="414pt" height="572pt"
 viewBox="0.00 0.00 414.00 572.00" xmlns="http://www.w3.org/2000/svg" xmlns:xlink="http://www.w3.org/1999/xlink">
<g id="graph0" class="graph" transform="scale(1 1) rotate(0) translate(4 568)">
<title>ChangeBroadcaster</title>
<!-- Node1 -->
<g id="node1" class="node"><title>Node1</title>
<polygon fill="#bfbfbf" stroke="black" points="0.5,-278.5 0.5,-297.5 103.5,-297.5 103.5,-278.5 0.5,-278.5"/>
<text text-anchor="middle" x="52" y="-285.5" font-family="Helvetica,sans-Serif" font-size="10.00">ChangeBroadcaster</text>
</g>
<!-- Node2 -->
<g id="node2" class="node"><title>Node2</title>
<g id="a_node2"><a xlink:href="group__juce__audio__utils-audio__cd.html#classAudioCDBurner" target="_top" xlink:title="AudioCDBurner">
<polygon fill="none" stroke="black" points="169.5,-544.5 169.5,-563.5 254.5,-563.5 254.5,-544.5 169.5,-544.5"/>
<text text-anchor="middle" x="212" y="-551.5" font-family="Helvetica,sans-Serif" font-size="10.00">AudioCDBurner</text>
</a>
</g>
</g>
<!-- Node1&#45;&gt;Node2 -->
<g id="edge1" class="edge"><title>Node1&#45;&gt;Node2</title>
<path fill="none" stroke="midnightblue" d="M53.9677,-307.785C57.3516,-354.523 72.4977,-472.516 140,-535 148.053,-542.454 158.708,-547.045 169.308,-549.854"/>
<polygon fill="midnightblue" stroke="midnightblue" points="57.4577,-307.514 53.3478,-297.749 50.471,-307.946 57.4577,-307.514"/>
</g>
<!-- Node3 -->
<g id="node3" class="node"><title>Node3</title>
<g id="a_node3"><a xlink:href="group__juce__audio__devices-audio__io.html#classAudioDeviceManager" target="_top" xlink:title="Manages the state of some audio and midi i/o devices. ">
<polygon fill="none" stroke="black" points="157,-506.5 157,-525.5 267,-525.5 267,-506.5 157,-506.5"/>
<text text-anchor="middle" x="212" y="-513.5" font-family="Helvetica,sans-Serif" font-size="10.00">AudioDeviceManager</text>
</a>
</g>
</g>
<!-- Node1&#45;&gt;Node3 -->
<g id="edge2" class="edge"><title>Node1&#45;&gt;Node3</title>
<path fill="none" stroke="midnightblue" d="M55.4078,-307.785C61.5347,-349.303 81.6053,-445.896 140,-497 144.897,-501.286 150.661,-504.618 156.752,-507.206"/>
<polygon fill="midnightblue" stroke="midnightblue" points="58.8413,-307.057 54.0292,-297.618 51.9048,-307.998 58.8413,-307.057"/>
</g>
<!-- Node4 -->
<g id="node4" class="node"><title>Node4</title>
<g id="a_node4"><a xlink:href="group__juce__audio__utils-gui.html#classAudioThumbnailBase" target="_top" xlink:title="Provides a base for classes that can store and draw scaled views of an audio waveform. ">
<polygon fill="none" stroke="black" points="157.5,-468.5 157.5,-487.5 266.5,-487.5 266.5,-468.5 157.5,-468.5"/>
<text text-anchor="middle" x="212" y="-475.5" font-family="Helvetica,sans-Serif" font-size="10.00">AudioThumbnailBase</text>
</a>
</g>
</g>
<!-- Node1&#45;&gt;Node4 -->
<g id="edge3" class="edge"><title>Node1&#45;&gt;Node4</title>
<path fill="none" stroke="midnightblue" d="M57.5033,-308.07C66.6195,-343.955 90.7202,-419.083 140,-459 145.156,-463.176 151.147,-466.44 157.421,-468.99"/>
<polygon fill="midnightblue" stroke="midnightblue" points="60.7972,-306.798 55.0571,-297.893 53.9911,-308.434 60.7972,-306.798"/>
</g>
<!-- Node6 -->
<g id="node6" class="node"><title>Node6</title>
<g id="a_node6"><a xlink:href="group__juce__audio__devices-sources.html#classAudioTransportSource" target="_top" xlink:title="An AudioSource that takes a PositionableAudioSource and allows it to be played, stopped, started, etc. ">
<polygon fill="none" stroke="black" points="155.5,-430.5 155.5,-449.5 268.5,-449.5 268.5,-430.5 155.5,-430.5"/>
<text text-anchor="middle" x="212" y="-437.5" font-family="Helvetica,sans-Serif" font-size="10.00">AudioTransportSource</text>
</a>
</g>
</g>
<!-- Node1&#45;&gt;Node6 -->
<g id="edge5" class="edge"><title>Node1&#45;&gt;Node6</title>
<path fill="none" stroke="midnightblue" d="M60.2936,-307.256C72.3392,-336.408 99.191,-391.464 140,-421 145.375,-424.89 151.496,-427.984 157.838,-430.445"/>
<polygon fill="midnightblue" stroke="midnightblue" points="63.4744,-305.783 56.5272,-297.784 56.9697,-308.369 63.4744,-305.783"/>
</g>
<!-- Node7 -->
<g id="node7" class="node"><title>Node7</title>
<g id="a_node7"><a xlink:href="group__juce__gui__extra-misc.html#classColourSelector" target="_top" xlink:title="A component that lets the user choose a colour. ">
<polygon fill="none" stroke="black" points="171.5,-392.5 171.5,-411.5 252.5,-411.5 252.5,-392.5 171.5,-392.5"/>
<text text-anchor="middle" x="212" y="-399.5" font-family="Helvetica,sans-Serif" font-size="10.00">ColourSelector</text>
</a>
</g>
</g>
<!-- Node1&#45;&gt;Node7 -->
<g id="edge6" class="edge"><title>Node1&#45;&gt;Node7</title>
<path fill="none" stroke="midnightblue" d="M64.8899,-306.335C79.8413,-327.913 107.523,-363.293 140,-383 149.491,-388.759 160.731,-392.798 171.435,-395.621"/>
<polygon fill="midnightblue" stroke="midnightblue" points="67.603,-304.098 59.1144,-297.758 61.7967,-308.007 67.603,-304.098"/>
</g>
<!-- Node8 -->
<g id="node8" class="node"><title>Node8</title>
<g id="a_node8"><a xlink:href="group__juce__gui__basics-layout.html#classComponentAnimator" target="_top" xlink:title="Animates a set of components, moving them to a new position and/or fading their alpha levels...">
<polygon fill="none" stroke="black" points="159,-354.5 159,-373.5 265,-373.5 265,-354.5 159,-354.5"/>
<text text-anchor="middle" x="212" y="-361.5" font-family="Helvetica,sans-Serif" font-size="10.00">ComponentAnimator</text>
</a>
</g>
</g>
<!-- Node1&#45;&gt;Node8 -->
<g id="edge7" class="edge"><title>Node1&#45;&gt;Node8</title>
<path fill="none" stroke="midnightblue" d="M73.0119,-303.784C89.9902,-316.499 115.437,-334.009 140,-345 148.386,-348.752 157.671,-351.897 166.686,-354.479"/>
<polygon fill="midnightblue" stroke="midnightblue" points="75.0268,-300.919 64.9548,-297.632 70.7787,-306.482 75.0268,-300.919"/>
</g>
<!-- Node9 -->
<g id="node9" class="node"><title>Node9</title>
<g id="a_node9"><a xlink:href="group__juce__gui__basics-filebrowser.html#classDirectoryContentsList" target="_top" xlink:title="A class to asynchronously scan for details about the files in a directory. ">
<polygon fill="none" stroke="black" points="156,-316.5 156,-335.5 268,-335.5 268,-316.5 156,-316.5"/>
<text text-anchor="middle" x="212" y="-323.5" font-family="Helvetica,sans-Serif" font-size="10.00">DirectoryContentsList</text>
</a>
</g>
</g>
<!-- Node1&#45;&gt;Node9 -->
<g id="edge8" class="edge"><title>Node1&#45;&gt;Node9</title>
<path fill="none" stroke="midnightblue" d="M102.762,-299.968C124.903,-305.293 150.612,-311.476 171.417,-316.48"/>
<polygon fill="midnightblue" stroke="midnightblue" points="103.411,-296.524 92.8701,-297.589 101.774,-303.33 103.411,-296.524"/>
</g>
<!-- Node10 -->
<g id="node10" class="node"><title>Node10</title>
<g id="a_node10"><a xlink:href="group__juce__gui__extra-documents.html#classFileBasedDocument" target="_top" xlink:title="A class to take care of the logic involved with the loading/saving of some kind of document...">
<polygon fill="none" stroke="black" points="159.5,-278.5 159.5,-297.5 264.5,-297.5 264.5,-278.5 159.5,-278.5"/>
<text text-anchor="middle" x="212" y="-285.5" font-family="Helvetica,sans-Serif" font-size="10.00">FileBasedDocument</text>
</a>
</g>
</g>
<!-- Node1&#45;&gt;Node10 -->
<g id="edge9" class="edge"><title>Node1&#45;&gt;Node10</title>
<path fill="none" stroke="midnightblue" d="M114.061,-288C129.043,-288 144.934,-288 159.42,-288"/>
<polygon fill="midnightblue" stroke="midnightblue" points="113.862,-284.5 103.862,-288 113.862,-291.5 113.862,-284.5"/>
</g>
<!-- Node11 -->
<g id="node11" class="node"><title>Node11</title>
<g id="a_node11"><a xlink:href="group__juce__gui__basics-commands.html#classKeyPressMappingSet" target="_top" xlink:title="Manages and edits a list of keypresses, which it uses to invoke the appropriate command in an Applica...">
<polygon fill="none" stroke="black" points="156.5,-240.5 156.5,-259.5 267.5,-259.5 267.5,-240.5 156.5,-240.5"/>
<text text-anchor="middle" x="212" y="-247.5" font-family="Helvetica,sans-Serif" font-size="10.00">KeyPressMappingSet</text>
</a>
</g>
</g>
<!-- Node1&#45;&gt;Node11 -->
<g id="edge10" class="edge"><title>Node1&#45;&gt;Node11</title>
<path fill="none" stroke="midnightblue" d="M102.762,-276.032C124.903,-270.707 150.612,-264.524 171.417,-259.52"/>
<polygon fill="midnightblue" stroke="midnightblue" points="101.774,-272.67 92.8701,-278.411 103.411,-279.476 101.774,-272.67"/>
</g>
<!-- Node12 -->
<g id="node12" class="node"><title>Node12</title>
<g id="a_node12"><a xlink:href="group__juce__audio__processors-scanning.html#classKnownPluginList" target="_top" xlink:title="Manages a list of plugin types. ">
<polygon fill="none" stroke="black" points="167.5,-202.5 167.5,-221.5 256.5,-221.5 256.5,-202.5 167.5,-202.5"/>
<text text-anchor="middle" x="212" y="-209.5" font-family="Helvetica,sans-Serif" font-size="10.00">KnownPluginList</text>
</a>
</g>
</g>
<!-- Node1&#45;&gt;Node12 -->
<g id="edge11" class="edge"><title>Node1&#45;&gt;Node12</title>
<path fill="none" stroke="midnightblue" d="M73.0119,-272.216C89.9902,-259.501 115.437,-241.991 140,-231 148.619,-227.143 158.188,-223.929 167.437,-221.307"/>
<polygon fill="midnightblue" stroke="midnightblue" points="70.7787,-269.518 64.9548,-278.368 75.0268,-275.081 70.7787,-269.518"/>
</g>
<!-- Node13 -->
<g id="node13" class="node"><title>Node13</title>
<g id="a_node13"><a xlink:href="group__juce__audio__utils-gui.html#classMidiKeyboardComponent" target="_top" xlink:title="A component that displays a piano keyboard, whose notes can be clicked on. ">
<polygon fill="none" stroke="black" points="149,-164.5 149,-183.5 275,-183.5 275,-164.5 149,-164.5"/>
<text text-anchor="middle" x="212" y="-171.5" font-family="Helvetica,sans-Serif" font-size="10.00">MidiKeyboardComponent</text>
</a>
</g>
</g>
<!-- Node1&#45;&gt;Node13 -->
<g id="edge12" class="edge"><title>Node1&#45;&gt;Node13</title>
<path fill="none" stroke="midnightblue" d="M64.8899,-269.665C79.8413,-248.087 107.523,-212.707 140,-193 146.327,-189.161 153.432,-186.086 160.637,-183.626"/>
<polygon fill="midnightblue" stroke="midnightblue" points="61.7967,-267.993 59.1144,-278.242 67.603,-271.902 61.7967,-267.993"/>
</g>
<!-- Node14 -->
<g id="node14" class="node"><title>Node14</title>
<g id="a_node14"><a xlink:href="group__juce__data__structures-app__properties.html#classPropertiesFile" target="_top" xlink:title="Wrapper on a file that stores a list of key/value data pairs. ">
<polygon fill="none" stroke="black" points="173.5,-126.5 173.5,-145.5 250.5,-145.5 250.5,-126.5 173.5,-126.5"/>
<text text-anchor="middle" x="212" y="-133.5" font-family="Helvetica,sans-Serif" font-size="10.00">PropertiesFile</text>
</a>
</g>
</g>
<!-- Node1&#45;&gt;Node14 -->
<g id="edge13" class="edge"><title>Node1&#45;&gt;Node14</title>
<path fill="none" stroke="midnightblue" d="M60.2936,-268.744C72.3392,-239.592 99.191,-184.536 140,-155 149.717,-147.967 161.87,-143.538 173.361,-140.748"/>
<polygon fill="midnightblue" stroke="midnightblue" points="56.9697,-267.631 56.5272,-278.216 63.4744,-270.217 56.9697,-267.631"/>
</g>
<!-- Node15 -->
<g id="node15" class="node"><title>Node15</title>
<g id="a_node15"><a xlink:href="group__juce__gui__basics-mouse.html#classSelectedItemSet" target="_top" xlink:title="Manages a list of selectable items. ">
<polygon fill="none" stroke="black" points="140,-77 140,-107 284,-107 284,-77 140,-77"/>
<text text-anchor="start" x="148" y="-95" font-family="Helvetica,sans-Serif" font-size="10.00">SelectedItemSet&lt; Selectable</text>
<text text-anchor="middle" x="212" y="-84" font-family="Helvetica,sans-Serif" font-size="10.00">ItemType &gt;</text>
</a>
</g>
</g>
<!-- Node1&#45;&gt;Node15 -->
<g id="edge14" class="edge"><title>Node1&#45;&gt;Node15</title>
<path fill="none" stroke="midnightblue" d="M57.8135,-268.298C67.4265,-233.003 92.2948,-158.786 140,-117 144.424,-113.125 149.486,-109.84 154.826,-107.057"/>
<polygon fill="midnightblue" stroke="midnightblue" points="54.3423,-267.741 55.2189,-278.299 61.118,-269.498 54.3423,-267.741"/>
</g>
<!-- Node16 -->
<g id="node16" class="node"><title>Node16</title>
<g id="a_node16"><a xlink:href="group__juce__gui__basics-layout.html#classTabbedButtonBar" target="_top" xlink:title="A vertical or horizontal bar containing tabs that you can select. ">
<polygon fill="none" stroke="black" points="166,-38.5 166,-57.5 258,-57.5 258,-38.5 166,-38.5"/>
<text text-anchor="middle" x="212" y="-45.5" font-family="Helvetica,sans-Serif" font-size="10.00">TabbedButtonBar</text>
</a>
</g>
</g>
<!-- Node1&#45;&gt;Node16 -->
<g id="edge15" class="edge"><title>Node1&#45;&gt;Node16</title>
<path fill="none" stroke="midnightblue" d="M54.9797,-268.412C60.3758,-225.535 79.2731,-122.828 140,-68 147.224,-61.4778 156.416,-57.0654 165.771,-54.0851"/>
<polygon fill="midnightblue" stroke="midnightblue" points="51.4968,-268.063 53.8362,-278.397 58.4513,-268.86 51.4968,-268.063"/>
</g>
<!-- Node17 -->
<g id="node17" class="node"><title>Node17</title>
<g id="a_node17"><a xlink:href="group__juce__data__structures-undomanager.html#classUndoManager" target="_top" xlink:title="Manages a list of undo/redo commands. ">
<polygon fill="none" stroke="black" points="173.5,-0.5 173.5,-19.5 250.5,-19.5 250.5,-0.5 173.5,-0.5"/>
<text text-anchor="middle" x="212" y="-7.5" font-family="Helvetica,sans-Serif" font-size="10.00">UndoManager</text>
</a>
</g>
</g>
<!-- Node1&#45;&gt;Node17 -->
<g id="edge16" class="edge"><title>Node1&#45;&gt;Node17</title>
<path fill="none" stroke="midnightblue" d="M53.5925,-268.25C56.144,-219.979 69.5822,-95.1429 140,-29 149.022,-20.526 161.4,-15.7459 173.296,-13.077"/>
<polygon fill="midnightblue" stroke="midnightblue" points="50.0926,-268.174 53.165,-278.314 57.0863,-268.471 50.0926,-268.174"/>
</g>
<!-- Node5 -->
<g id="node5" class="node"><title>Node5</title>
<g id="a_node5"><a xlink:href="group__juce__audio__utils-gui.html#classAudioThumbnail" target="_top" xlink:title="Makes it easy to quickly draw scaled views of the waveform shape of an audio file. ">
<polygon fill="none" stroke="black" points="320,-468.5 320,-487.5 406,-487.5 406,-468.5 320,-468.5"/>
<text text-anchor="middle" x="363" y="-475.5" font-family="Helvetica,sans-Serif" font-size="10.00">AudioThumbnail</text>
</a>
</g>
</g>
<!-- Node4&#45;&gt;Node5 -->
<g id="edge4" class="edge"><title>Node4&#45;&gt;Node5</title>
<path fill="none" stroke="midnightblue" d="M277.207,-478C291.682,-478 306.685,-478 319.975,-478"/>
<polygon fill="midnightblue" stroke="midnightblue" points="276.792,-474.5 266.792,-478 276.792,-481.5 276.792,-474.5"/>
</g>
</g>
</svg>
