<?xml version="1.0" encoding="UTF-8" standalone="no"?>
<!DOCTYPE svg PUBLIC "-//W3C//DTD SVG 1.1//EN"
 "http://www.w3.org/Graphics/SVG/1.1/DTD/svg11.dtd">
<!-- Generated by graphviz version 2.36.0 (20140111.2315)
 -->
<!-- Title: Drawable::ValueTreeWrapperBase Pages: 1 -->
<svg width="578pt" height="175pt"
 viewBox="0.00 0.00 578.00 175.00" xmlns="http://www.w3.org/2000/svg" xmlns:xlink="http://www.w3.org/1999/xlink">
<g id="graph0" class="graph" transform="scale(1 1) rotate(0) translate(4 171)">
<title>Drawable::ValueTreeWrapperBase</title>
<!-- Node1 -->
<g id="node1" class="node"><title>Node1</title>
<polygon fill="#bfbfbf" stroke="black" points="0.5,-68.5 0.5,-87.5 167.5,-87.5 167.5,-68.5 0.5,-68.5"/>
<text text-anchor="middle" x="84" y="-75.5" font-family="Helvetica,sans-Serif" font-size="10.00">Drawable::ValueTreeWrapperBase</text>
</g>
<!-- Node2 -->
<g id="node2" class="node"><title>Node2</title>
<g id="a_node2"><a xlink:href="classDrawableComposite_1_1ValueTreeWrapper.html" target="_top" xlink:title="Internally&#45;used class for wrapping a DrawableComposite&#39;s state into a ValueTree. ">
<polygon fill="none" stroke="black" points="230.5,-137 230.5,-167 341.5,-167 341.5,-137 230.5,-137"/>
<text text-anchor="start" x="238.5" y="-155" font-family="Helvetica,sans-Serif" font-size="10.00">DrawableComposite::</text>
<text text-anchor="middle" x="286" y="-144" font-family="Helvetica,sans-Serif" font-size="10.00">ValueTreeWrapper</text>
</a>
</g>
</g>
<!-- Node1&#45;&gt;Node2 -->
<g id="edge1" class="edge"><title>Node1&#45;&gt;Node2</title>
<path fill="none" stroke="midnightblue" d="M115.946,-91.6522C139.789,-101.948 173.693,-116.109 204,-127 213.556,-130.434 223.846,-133.833 233.779,-136.967"/>
<polygon fill="midnightblue" stroke="midnightblue" points="117.266,-88.4099 106.7,-87.6354 114.477,-94.8302 117.266,-88.4099"/>
</g>
<!-- Node3 -->
<g id="node3" class="node"><title>Node3</title>
<g id="a_node3"><a xlink:href="classDrawableImage_1_1ValueTreeWrapper.html" target="_top" xlink:title="Internally&#45;used class for wrapping a DrawableImage&#39;s state into a ValueTree. ">
<polygon fill="none" stroke="black" points="218.5,-88 218.5,-118 353.5,-118 353.5,-88 218.5,-88"/>
<text text-anchor="start" x="226.5" y="-106" font-family="Helvetica,sans-Serif" font-size="10.00">DrawableImage::ValueTree</text>
<text text-anchor="middle" x="286" y="-95" font-family="Helvetica,sans-Serif" font-size="10.00">Wrapper</text>
</a>
</g>
</g>
<!-- Node1&#45;&gt;Node3 -->
<g id="edge2" class="edge"><title>Node1&#45;&gt;Node3</title>
<path fill="none" stroke="midnightblue" d="M171.397,-88.7996C187.066,-90.7582 203.189,-92.7736 218.188,-94.6485"/>
<polygon fill="midnightblue" stroke="midnightblue" points="171.539,-85.2902 161.182,-87.5227 170.671,-92.2362 171.539,-85.2902"/>
</g>
<!-- Node4 -->
<g id="node4" class="node"><title>Node4</title>
<g id="a_node4"><a xlink:href="classDrawableShape_1_1FillAndStrokeState.html" target="_top" xlink:title="DrawableShape::FillAndStroke\lState">
<polygon fill="none" stroke="black" points="211,-39 211,-69 361,-69 361,-39 211,-39"/>
<text text-anchor="start" x="219" y="-57" font-family="Helvetica,sans-Serif" font-size="10.00">DrawableShape::FillAndStroke</text>
<text text-anchor="middle" x="286" y="-46" font-family="Helvetica,sans-Serif" font-size="10.00">State</text>
</a>
</g>
</g>
<!-- Node1&#45;&gt;Node4 -->
<g id="edge3" class="edge"><title>Node1&#45;&gt;Node4</title>
<path fill="none" stroke="midnightblue" d="M174.506,-67.2593C186.695,-65.7966 199.094,-64.3087 210.969,-62.8838"/>
<polygon fill="midnightblue" stroke="midnightblue" points="173.844,-63.8135 164.333,-68.4801 174.678,-70.7636 173.844,-63.8135"/>
</g>
<!-- Node7 -->
<g id="node7" class="node"><title>Node7</title>
<g id="a_node7"><a xlink:href="classDrawableText_1_1ValueTreeWrapper.html" target="_top" xlink:title="Internally&#45;used class for wrapping a DrawableText&#39;s state into a ValueTree. ">
<polygon fill="none" stroke="black" points="204,-0.5 204,-19.5 368,-19.5 368,-0.5 204,-0.5"/>
<text text-anchor="middle" x="286" y="-7.5" font-family="Helvetica,sans-Serif" font-size="10.00">DrawableText::ValueTreeWrapper</text>
</a>
</g>
</g>
<!-- Node1&#45;&gt;Node7 -->
<g id="edge6" class="edge"><title>Node1&#45;&gt;Node7</title>
<path fill="none" stroke="midnightblue" d="M115.372,-64.3625C139.161,-54.0211 173.261,-39.9394 204,-30 215.991,-26.1229 229.186,-22.5711 241.383,-19.5714"/>
<polygon fill="midnightblue" stroke="midnightblue" points="113.913,-61.1804 106.162,-68.4033 116.726,-67.5905 113.913,-61.1804"/>
</g>
<!-- Node5 -->
<g id="node5" class="node"><title>Node5</title>
<g id="a_node5"><a xlink:href="classDrawablePath_1_1ValueTreeWrapper.html" target="_top" xlink:title="Internally&#45;used class for wrapping a DrawablePath&#39;s state into a ValueTree. ">
<polygon fill="none" stroke="black" points="404.5,-66.5 404.5,-85.5 569.5,-85.5 569.5,-66.5 404.5,-66.5"/>
<text text-anchor="middle" x="487" y="-73.5" font-family="Helvetica,sans-Serif" font-size="10.00">DrawablePath::ValueTreeWrapper</text>
</a>
</g>
</g>
<!-- Node4&#45;&gt;Node5 -->
<g id="edge4" class="edge"><title>Node4&#45;&gt;Node5</title>
<path fill="none" stroke="midnightblue" d="M371.151,-63.3031C382.191,-64.5236 393.489,-65.7727 404.485,-66.9883"/>
<polygon fill="midnightblue" stroke="midnightblue" points="371.424,-59.8121 361.1,-62.192 370.655,-66.7697 371.424,-59.8121"/>
</g>
<!-- Node6 -->
<g id="node6" class="node"><title>Node6</title>
<g id="a_node6"><a xlink:href="classDrawableRectangle_1_1ValueTreeWrapper.html" target="_top" xlink:title="Internally&#45;used class for wrapping a DrawableRectangle&#39;s state into a ValueTree. ">
<polygon fill="none" stroke="black" points="433,-17 433,-47 541,-47 541,-17 433,-17"/>
<text text-anchor="start" x="441" y="-35" font-family="Helvetica,sans-Serif" font-size="10.00">DrawableRectangle::</text>
<text text-anchor="middle" x="487" y="-24" font-family="Helvetica,sans-Serif" font-size="10.00">ValueTreeWrapper</text>
</a>
</g>
</g>
<!-- Node4&#45;&gt;Node6 -->
<g id="edge5" class="edge"><title>Node4&#45;&gt;Node6</title>
<path fill="none" stroke="midnightblue" d="M371.277,-44.6829C392.193,-42.3707 414.027,-39.9568 432.966,-37.8631"/>
<polygon fill="midnightblue" stroke="midnightblue" points="370.655,-41.2303 361.1,-45.808 371.424,-48.1879 370.655,-41.2303"/>
</g>
</g>
</svg>
