<?xml version="1.0" encoding="UTF-8" standalone="no"?>
<!DOCTYPE svg PUBLIC "-//W3C//DTD SVG 1.1//EN"
 "http://www.w3.org/Graphics/SVG/1.1/DTD/svg11.dtd">
<!-- Generated by graphviz version 2.36.0 (20140111.2315)
 -->
<!-- Title: ListBoxModel Pages: 1 -->
<svg width="502pt" height="84pt"
 viewBox="0.00 0.00 502.00 84.00" xmlns="http://www.w3.org/2000/svg" xmlns:xlink="http://www.w3.org/1999/xlink">
<g id="graph0" class="graph" transform="scale(1 1) rotate(0) translate(4 80)">
<title>ListBoxModel</title>
<!-- Node1 -->
<g id="node1" class="node"><title>Node1</title>
<polygon fill="#bfbfbf" stroke="black" points="218,-56.5 218,-75.5 294,-75.5 294,-56.5 218,-56.5"/>
<text text-anchor="middle" x="256" y="-63.5" font-family="Helvetica,sans-Serif" font-size="10.00">ListBoxModel</text>
</g>
<!-- Node2 -->
<g id="node2" class="node"><title>Node2</title>
<g id="a_node2"><a xlink:href="classBurgerMenuComponent.html" target="_top" xlink:title="A component which lists all menu items and groups them into categories by their respective parent men...">
<polygon fill="none" stroke="black" points="-0.5,-0.5 -0.5,-19.5 118.5,-19.5 118.5,-0.5 -0.5,-0.5"/>
<text text-anchor="middle" x="59" y="-7.5" font-family="Helvetica,sans-Serif" font-size="10.00">BurgerMenuComponent</text>
</a>
</g>
</g>
<!-- Node1&#45;&gt;Node2 -->
<g id="edge1" class="edge"><title>Node1&#45;&gt;Node2</title>
<path fill="none" stroke="#8b1a1a" d="M214.771,-53.6986C177.591,-43.507 123.729,-28.7429 90.0692,-19.5164"/>
<polygon fill="#8b1a1a" stroke="#8b1a1a" points="214.215,-57.1754 224.785,-56.4435 216.066,-50.4244 214.215,-57.1754"/>
</g>
<!-- Node3 -->
<g id="node3" class="node"><title>Node3</title>
<g id="a_node3"><a xlink:href="classFileListComponent.html" target="_top" xlink:title="A component that displays the files in a directory as a listbox. ">
<polygon fill="none" stroke="black" points="137,-0.5 137,-19.5 235,-19.5 235,-0.5 137,-0.5"/>
<text text-anchor="middle" x="186" y="-7.5" font-family="Helvetica,sans-Serif" font-size="10.00">FileListComponent</text>
</a>
</g>
</g>
<!-- Node1&#45;&gt;Node3 -->
<g id="edge2" class="edge"><title>Node1&#45;&gt;Node3</title>
<path fill="none" stroke="#8b1a1a" d="M236.686,-50.1008C224.088,-40.3824 208.072,-28.0269 197.451,-19.8339"/>
<polygon fill="#8b1a1a" stroke="#8b1a1a" points="234.698,-52.9871 244.753,-56.324 238.973,-47.4446 234.698,-52.9871"/>
</g>
<!-- Node4 -->
<g id="node4" class="node"><title>Node4</title>
<g id="a_node4"><a xlink:href="classFileSearchPathListComponent.html" target="_top" xlink:title="Shows a set of file paths in a list, allowing them to be added, removed or re&#45;ordered. ">
<polygon fill="none" stroke="black" points="252.5,-0.5 252.5,-19.5 401.5,-19.5 401.5,-0.5 252.5,-0.5"/>
<text text-anchor="middle" x="327" y="-7.5" font-family="Helvetica,sans-Serif" font-size="10.00">FileSearchPathListComponent</text>
</a>
</g>
</g>
<!-- Node1&#45;&gt;Node4 -->
<g id="edge3" class="edge"><title>Node1&#45;&gt;Node4</title>
<path fill="none" stroke="#8b1a1a" d="M275.59,-50.1008C288.368,-40.3824 304.613,-28.0269 315.385,-19.8339"/>
<polygon fill="#8b1a1a" stroke="#8b1a1a" points="273.248,-47.4844 267.407,-56.324 277.486,-53.0561 273.248,-47.4844"/>
</g>
<!-- Node5 -->
<g id="node5" class="node"><title>Node5</title>
<g id="a_node5"><a xlink:href="classTableListBox.html" target="_top" xlink:title="A table of cells, using a TableHeaderComponent as its header. ">
<polygon fill="none" stroke="black" points="420,-0.5 420,-19.5 494,-19.5 494,-0.5 420,-0.5"/>
<text text-anchor="middle" x="457" y="-7.5" font-family="Helvetica,sans-Serif" font-size="10.00">TableListBox</text>
</a>
</g>
</g>
<!-- Node1&#45;&gt;Node5 -->
<g id="edge4" class="edge"><title>Node1&#45;&gt;Node5</title>
<path fill="none" stroke="#8b1a1a" d="M297.581,-53.8291C335.531,-43.6333 390.81,-28.7823 425.3,-19.5164"/>
<polygon fill="#8b1a1a" stroke="#8b1a1a" points="296.598,-50.4688 287.849,-56.4435 298.415,-57.229 296.598,-50.4688"/>
</g>
</g>
</svg>
