<?xml version="1.0" encoding="UTF-8" standalone="no"?>
<!DOCTYPE svg PUBLIC "-//W3C//DTD SVG 1.1//EN"
 "http://www.w3.org/Graphics/SVG/1.1/DTD/svg11.dtd">
<!-- Generated by graphviz version 2.36.0 (20140111.2315)
 -->
<!-- Title: juce::ListBoxModel Pages: 1 -->
<svg width="388pt" height="96pt"
 viewBox="0.00 0.00 388.00 96.00" xmlns="http://www.w3.org/2000/svg" xmlns:xlink="http://www.w3.org/1999/xlink">
<g id="graph0" class="graph" transform="scale(1 1) rotate(0) translate(4 92)">
<title>juce::ListBoxModel</title>
<!-- Node1 -->
<g id="node1" class="node"><title>Node1</title>
<polygon fill="#bfbfbf" stroke="black" points="152,-68.5 152,-87.5 252,-87.5 252,-68.5 152,-68.5"/>
<text text-anchor="middle" x="202" y="-75.5" font-family="Helvetica,sans-Serif" font-size="10.00">juce::ListBoxModel</text>
</g>
<!-- Node2 -->
<g id="node2" class="node"><title>Node2</title>
<g id="a_node2"><a xlink:href="classjuce_1_1FileListComponent.html" target="_top" xlink:title="A component that displays the files in a directory as a listbox. ">
<polygon fill="none" stroke="black" points="0,-6.5 0,-25.5 122,-25.5 122,-6.5 0,-6.5"/>
<text text-anchor="middle" x="61" y="-13.5" font-family="Helvetica,sans-Serif" font-size="10.00">juce::FileListComponent</text>
</a>
</g>
</g>
<!-- Node1&#45;&gt;Node2 -->
<g id="edge1" class="edge"><title>Node1&#45;&gt;Node2</title>
<path fill="none" stroke="#8b1a1a" d="M172.33,-64.3743C144.945,-52.7215 105.02,-35.7319 81.1644,-25.5806"/>
<polygon fill="#8b1a1a" stroke="#8b1a1a" points="171.226,-67.7084 181.798,-68.4035 173.967,-61.2673 171.226,-67.7084"/>
</g>
<!-- Node3 -->
<g id="node3" class="node"><title>Node3</title>
<g id="a_node3"><a xlink:href="classjuce_1_1FileSearchPathListComponent.html" target="_top" xlink:title="Shows a set of file paths in a list, allowing them to be added, removed or re&#45;ordered. ">
<polygon fill="none" stroke="black" points="140.5,-1 140.5,-31 263.5,-31 263.5,-1 140.5,-1"/>
<text text-anchor="start" x="148.5" y="-19" font-family="Helvetica,sans-Serif" font-size="10.00">juce::FileSearchPathList</text>
<text text-anchor="middle" x="202" y="-8" font-family="Helvetica,sans-Serif" font-size="10.00">Component</text>
</a>
</g>
</g>
<!-- Node1&#45;&gt;Node3 -->
<g id="edge2" class="edge"><title>Node1&#45;&gt;Node3</title>
<path fill="none" stroke="#8b1a1a" d="M202,-58.3707C202,-49.5849 202,-39.2721 202,-31.1408"/>
<polygon fill="#8b1a1a" stroke="#8b1a1a" points="198.5,-58.4034 202,-68.4035 205.5,-58.4035 198.5,-58.4034"/>
</g>
<!-- Node4 -->
<g id="node4" class="node"><title>Node4</title>
<g id="a_node4"><a xlink:href="classjuce_1_1TableListBox.html" target="_top" xlink:title="A table of cells, using a TableHeaderComponent as its header. ">
<polygon fill="none" stroke="black" points="282,-6.5 282,-25.5 380,-25.5 380,-6.5 282,-6.5"/>
<text text-anchor="middle" x="331" y="-13.5" font-family="Helvetica,sans-Serif" font-size="10.00">juce::TableListBox</text>
</a>
</g>
</g>
<!-- Node1&#45;&gt;Node4 -->
<g id="edge3" class="edge"><title>Node1&#45;&gt;Node4</title>
<path fill="none" stroke="#8b1a1a" d="M229.807,-64.0664C254.839,-52.4239 290.918,-35.6429 312.552,-25.5806"/>
<polygon fill="#8b1a1a" stroke="#8b1a1a" points="228.074,-61.0126 220.483,-68.4035 231.026,-67.3596 228.074,-61.0126"/>
</g>
</g>
</svg>
