<?xml version="1.0" encoding="UTF-8" standalone="no"?>
<!DOCTYPE svg PUBLIC "-//W3C//DTD SVG 1.1//EN"
 "http://www.w3.org/Graphics/SVG/1.1/DTD/svg11.dtd">
<!-- Generated by graphviz version 2.36.0 (20140111.2315)
 -->
<!-- Title: CriticalSection Pages: 1 -->
<svg width="280pt" height="136pt"
 viewBox="0.00 0.00 280.00 136.00" xmlns="http://www.w3.org/2000/svg" xmlns:xlink="http://www.w3.org/1999/xlink">
<g id="graph0" class="graph" transform="scale(1 1) rotate(0) translate(4 132)">
<title>CriticalSection</title>
<!-- Node1 -->
<g id="node1" class="node"><title>Node1</title>
<polygon fill="#bfbfbf" stroke="black" points="0,-54.5 0,-73.5 80,-73.5 80,-54.5 0,-54.5"/>
<text text-anchor="middle" x="40" y="-61.5" font-family="Helvetica,sans-Serif" font-size="10.00">CriticalSection</text>
</g>
<!-- Node2 -->
<g id="node2" class="node"><title>Node2</title>
<g id="a_node2"><a xlink:href="classArrayBase.html" target="_top" xlink:title="ArrayBase\&lt; Block::Array,\l CriticalSection \&gt;">
<polygon fill="none" stroke="black" points="130,-98 130,-128 258,-128 258,-98 130,-98"/>
<text text-anchor="start" x="138" y="-116" font-family="Helvetica,sans-Serif" font-size="10.00">ArrayBase&lt; Block::Array,</text>
<text text-anchor="middle" x="194" y="-105" font-family="Helvetica,sans-Serif" font-size="10.00"> CriticalSection &gt;</text>
</a>
</g>
</g>
<!-- Node1&#45;&gt;Node2 -->
<g id="edge1" class="edge"><title>Node1&#45;&gt;Node2</title>
<path fill="none" stroke="midnightblue" d="M80.4587,-76.7202C100.612,-83.2172 125.265,-91.1645 146.355,-97.963"/>
<polygon fill="midnightblue" stroke="midnightblue" points="81.2595,-73.3011 70.668,-73.564 79.1118,-79.9635 81.2595,-73.3011"/>
</g>
<!-- Node3 -->
<g id="node3" class="node"><title>Node3</title>
<g id="a_node3"><a xlink:href="classArrayBase.html" target="_top" xlink:title="ArrayBase\&lt; Thread::\lListener *, CriticalSection \&gt;">
<polygon fill="none" stroke="black" points="125.5,-49 125.5,-79 262.5,-79 262.5,-49 125.5,-49"/>
<text text-anchor="start" x="133.5" y="-67" font-family="Helvetica,sans-Serif" font-size="10.00">ArrayBase&lt; Thread::</text>
<text text-anchor="middle" x="194" y="-56" font-family="Helvetica,sans-Serif" font-size="10.00">Listener *, CriticalSection &gt;</text>
</a>
</g>
</g>
<!-- Node1&#45;&gt;Node3 -->
<g id="edge2" class="edge"><title>Node1&#45;&gt;Node3</title>
<path fill="none" stroke="midnightblue" d="M90.1734,-64C101.406,-64 113.535,-64 125.388,-64"/>
<polygon fill="midnightblue" stroke="midnightblue" points="90.1438,-60.5001 80.1438,-64 90.1437,-67.5001 90.1438,-60.5001"/>
</g>
<!-- Node4 -->
<g id="node4" class="node"><title>Node4</title>
<g id="a_node4"><a xlink:href="classArrayBase.html" target="_top" xlink:title="ArrayBase\&lt; UnitTestRunner\l::TestResult *, CriticalSection \&gt;">
<polygon fill="none" stroke="black" points="116,-0 116,-30 272,-30 272,-0 116,-0"/>
<text text-anchor="start" x="124" y="-18" font-family="Helvetica,sans-Serif" font-size="10.00">ArrayBase&lt; UnitTestRunner</text>
<text text-anchor="middle" x="194" y="-7" font-family="Helvetica,sans-Serif" font-size="10.00">::TestResult *, CriticalSection &gt;</text>
</a>
</g>
</g>
<!-- Node1&#45;&gt;Node4 -->
<g id="edge3" class="edge"><title>Node1&#45;&gt;Node4</title>
<path fill="none" stroke="midnightblue" d="M80.4587,-51.2798C100.612,-44.7828 125.265,-36.8355 146.355,-30.037"/>
<polygon fill="midnightblue" stroke="midnightblue" points="79.1118,-48.0365 70.668,-54.436 81.2595,-54.6989 79.1118,-48.0365"/>
</g>
</g>
</svg>
