<?xml version="1.0" encoding="UTF-8" standalone="no"?>
<!DOCTYPE svg PUBLIC "-//W3C//DTD SVG 1.1//EN"
 "http://www.w3.org/Graphics/SVG/1.1/DTD/svg11.dtd">
<!-- Generated by graphviz version 2.36.0 (20140111.2315)
 -->
<!-- Title: juce::AudioProcessorEditor Pages: 1 -->
<svg width="150pt" height="208pt"
 viewBox="0.00 0.00 150.00 208.00" xmlns="http://www.w3.org/2000/svg" xmlns:xlink="http://www.w3.org/1999/xlink">
<g id="graph0" class="graph" transform="scale(1 1) rotate(0) translate(4 204)">
<title>juce::AudioProcessorEditor</title>
<!-- Node1 -->
<g id="node1" class="node"><title>Node1</title>
<polygon fill="#bfbfbf" stroke="black" points="3.5,-68.5 3.5,-87.5 138.5,-87.5 138.5,-68.5 3.5,-68.5"/>
<text text-anchor="middle" x="71" y="-75.5" font-family="Helvetica,sans-Serif" font-size="10.00">juce::AudioProcessorEditor</text>
</g>
<!-- Node4 -->
<g id="node4" class="node"><title>Node4</title>
<g id="a_node4"><a xlink:href="classjuce_1_1GenericAudioProcessorEditor.html" target="_top" xlink:title="A type of UI component that displays the parameters of an AudioProcessor as a simple list of sliders...">
<polygon fill="none" stroke="black" points="-0.5,-1 -0.5,-31 142.5,-31 142.5,-1 -0.5,-1"/>
<text text-anchor="start" x="7.5" y="-19" font-family="Helvetica,sans-Serif" font-size="10.00">juce::GenericAudioProcessor</text>
<text text-anchor="middle" x="71" y="-8" font-family="Helvetica,sans-Serif" font-size="10.00">Editor</text>
</a>
</g>
</g>
<!-- Node1&#45;&gt;Node4 -->
<g id="edge3" class="edge"><title>Node1&#45;&gt;Node4</title>
<path fill="none" stroke="midnightblue" d="M71,-58.3707C71,-49.5849 71,-39.2721 71,-31.1408"/>
<polygon fill="midnightblue" stroke="midnightblue" points="67.5001,-58.4034 71,-68.4035 74.5001,-58.4035 67.5001,-58.4034"/>
</g>
<!-- Node2 -->
<g id="node2" class="node"><title>Node2</title>
<g id="a_node2"><a xlink:href="classjuce_1_1Component.html" target="_top" xlink:title="The base class for all JUCE user&#45;interface objects. ">
<polygon fill="none" stroke="black" points="25.5,-124.5 25.5,-143.5 116.5,-143.5 116.5,-124.5 25.5,-124.5"/>
<text text-anchor="middle" x="71" y="-131.5" font-family="Helvetica,sans-Serif" font-size="10.00">juce::Component</text>
</a>
</g>
</g>
<!-- Node2&#45;&gt;Node1 -->
<g id="edge1" class="edge"><title>Node2&#45;&gt;Node1</title>
<path fill="none" stroke="midnightblue" d="M71,-113.805C71,-104.91 71,-94.7798 71,-87.7511"/>
<polygon fill="midnightblue" stroke="midnightblue" points="67.5001,-114.083 71,-124.083 74.5001,-114.083 67.5001,-114.083"/>
</g>
<!-- Node3 -->
<g id="node3" class="node"><title>Node3</title>
<g id="a_node3"><a xlink:href="classjuce_1_1MouseListener.html" target="_top" xlink:title="A MouseListener can be registered with a component to receive callbacks about mouse events that happe...">
<polygon fill="none" stroke="black" points="19,-180.5 19,-199.5 123,-199.5 123,-180.5 19,-180.5"/>
<text text-anchor="middle" x="71" y="-187.5" font-family="Helvetica,sans-Serif" font-size="10.00">juce::MouseListener</text>
</a>
</g>
</g>
<!-- Node3&#45;&gt;Node2 -->
<g id="edge2" class="edge"><title>Node3&#45;&gt;Node2</title>
<path fill="none" stroke="midnightblue" d="M71,-169.805C71,-160.91 71,-150.78 71,-143.751"/>
<polygon fill="midnightblue" stroke="midnightblue" points="67.5001,-170.083 71,-180.083 74.5001,-170.083 67.5001,-170.083"/>
</g>
</g>
</svg>
