<?xml version="1.0" encoding="UTF-8" standalone="no"?>
<!DOCTYPE svg PUBLIC "-//W3C//DTD SVG 1.1//EN"
 "http://www.w3.org/Graphics/SVG/1.1/DTD/svg11.dtd">
<!-- Generated by graphviz version 2.36.0 (20140111.2315)
 -->
<!-- Title: juce::ImageEffectFilter Pages: 1 -->
<svg width="237pt" height="84pt"
 viewBox="0.00 0.00 237.00 84.00" xmlns="http://www.w3.org/2000/svg" xmlns:xlink="http://www.w3.org/1999/xlink">
<g id="graph0" class="graph" transform="scale(1 1) rotate(0) translate(4 80)">
<title>juce::ImageEffectFilter</title>
<!-- Node1 -->
<g id="node1" class="node"><title>Node1</title>
<polygon fill="#bfbfbf" stroke="black" points="65,-56.5 65,-75.5 181,-75.5 181,-56.5 65,-56.5"/>
<text text-anchor="middle" x="123" y="-63.5" font-family="Helvetica,sans-Serif" font-size="10.00">juce::ImageEffectFilter</text>
</g>
<!-- Node2 -->
<g id="node2" class="node"><title>Node2</title>
<g id="a_node2"><a xlink:href="classjuce_1_1DropShadowEffect.html" target="_top" xlink:title="An effect filter that adds a drop&#45;shadow behind the image&#39;s content. ">
<polygon fill="none" stroke="black" points="-0.5,-0.5 -0.5,-19.5 122.5,-19.5 122.5,-0.5 -0.5,-0.5"/>
<text text-anchor="middle" x="61" y="-7.5" font-family="Helvetica,sans-Serif" font-size="10.00">juce::DropShadowEffect</text>
</a>
</g>
</g>
<!-- Node1&#45;&gt;Node2 -->
<g id="edge1" class="edge"><title>Node1&#45;&gt;Node2</title>
<path fill="none" stroke="midnightblue" d="M105.246,-49.5372C94.1915,-39.9087 80.3685,-27.8694 71.1426,-19.8339"/>
<polygon fill="midnightblue" stroke="midnightblue" points="103.199,-52.3954 113.039,-56.324 107.797,-47.1168 103.199,-52.3954"/>
</g>
<!-- Node3 -->
<g id="node3" class="node"><title>Node3</title>
<g id="a_node3"><a xlink:href="classjuce_1_1GlowEffect.html" target="_top" xlink:title="A component effect that adds a coloured blur around the component&#39;s contents. ">
<polygon fill="none" stroke="black" points="140.5,-0.5 140.5,-19.5 229.5,-19.5 229.5,-0.5 140.5,-0.5"/>
<text text-anchor="middle" x="185" y="-7.5" font-family="Helvetica,sans-Serif" font-size="10.00">juce::GlowEffect</text>
</a>
</g>
</g>
<!-- Node1&#45;&gt;Node3 -->
<g id="edge2" class="edge"><title>Node1&#45;&gt;Node3</title>
<path fill="none" stroke="midnightblue" d="M140.754,-49.5372C151.808,-39.9087 165.631,-27.8694 174.857,-19.8339"/>
<polygon fill="midnightblue" stroke="midnightblue" points="138.203,-47.1168 132.961,-56.324 142.801,-52.3954 138.203,-47.1168"/>
</g>
</g>
</svg>
