<?xml version="1.0" encoding="UTF-8" standalone="no"?>
<!DOCTYPE svg PUBLIC "-//W3C//DTD SVG 1.1//EN"
 "http://www.w3.org/Graphics/SVG/1.1/DTD/svg11.dtd">
<!-- Generated by graphviz version 2.36.0 (20140111.2315)
 -->
<!-- Title: DirectoryContentsList Pages: 1 -->
<svg width="215pt" height="84pt"
 viewBox="0.00 0.00 215.00 84.00" xmlns="http://www.w3.org/2000/svg" xmlns:xlink="http://www.w3.org/1999/xlink">
<g id="graph0" class="graph" transform="scale(1 1) rotate(0) translate(4 80)">
<title>DirectoryContentsList</title>
<!-- Node1 -->
<g id="node1" class="node"><title>Node1</title>
<polygon fill="#bfbfbf" stroke="black" points="51,-0.5 51,-19.5 163,-19.5 163,-0.5 51,-0.5"/>
<text text-anchor="middle" x="107" y="-7.5" font-family="Helvetica,sans-Serif" font-size="10.00">DirectoryContentsList</text>
</g>
<!-- Node2 -->
<g id="node2" class="node"><title>Node2</title>
<g id="a_node2"><a xlink:href="group__juce__events-broadcasters.html#classChangeBroadcaster" target="_top" xlink:title="Holds a list of ChangeListeners, and sends messages to them when instructed. ">
<polygon fill="none" stroke="black" points="-0.5,-56.5 -0.5,-75.5 102.5,-75.5 102.5,-56.5 -0.5,-56.5"/>
<text text-anchor="middle" x="51" y="-63.5" font-family="Helvetica,sans-Serif" font-size="10.00">ChangeBroadcaster</text>
</a>
</g>
</g>
<!-- Node2&#45;&gt;Node1 -->
<g id="edge1" class="edge"><title>Node2&#45;&gt;Node1</title>
<path fill="none" stroke="midnightblue" d="M67.3299,-49.2533C77.265,-39.6731 89.5875,-27.7906 97.8389,-19.8339"/>
<polygon fill="midnightblue" stroke="midnightblue" points="64.7664,-46.8631 59.9974,-56.324 69.6253,-51.902 64.7664,-46.8631"/>
</g>
<!-- Node3 -->
<g id="node3" class="node"><title>Node3</title>
<g id="a_node3"><a xlink:href="group__juce__core-threads.html#classTimeSliceClient" target="_top" xlink:title="Used by the TimeSliceThread class. ">
<polygon fill="none" stroke="black" points="121,-56.5 121,-75.5 207,-75.5 207,-56.5 121,-56.5"/>
<text text-anchor="middle" x="164" y="-63.5" font-family="Helvetica,sans-Serif" font-size="10.00">TimeSliceClient</text>
</a>
</g>
</g>
<!-- Node3&#45;&gt;Node1 -->
<g id="edge2" class="edge"><title>Node3&#45;&gt;Node1</title>
<path fill="none" stroke="#8b1a1a" d="M147.379,-49.2533C137.266,-39.6731 124.723,-27.7906 116.325,-19.8339"/>
<polygon fill="#8b1a1a" stroke="#8b1a1a" points="145.175,-51.9873 154.842,-56.324 149.99,-46.9056 145.175,-51.9873"/>
</g>
</g>
</svg>
