<?xml version="1.0" encoding="UTF-8" standalone="no"?>
<!DOCTYPE svg PUBLIC "-//W3C//DTD SVG 1.1//EN"
 "http://www.w3.org/Graphics/SVG/1.1/DTD/svg11.dtd">
<!-- Generated by graphviz version 2.36.0 (20140111.2315)
 -->
<!-- Title: juce::InputStream Pages: 1 -->
<svg width="288pt" height="230pt"
 viewBox="0.00 0.00 288.00 230.00" xmlns="http://www.w3.org/2000/svg" xmlns:xlink="http://www.w3.org/1999/xlink">
<g id="graph0" class="graph" transform="scale(1 1) rotate(0) translate(4 226)">
<title>juce::InputStream</title>
<!-- Node1 -->
<g id="node1" class="node"><title>Node1</title>
<polygon fill="#bfbfbf" stroke="black" points="0,-98.5 0,-117.5 94,-117.5 94,-98.5 0,-98.5"/>
<text text-anchor="middle" x="47" y="-105.5" font-family="Helvetica,sans-Serif" font-size="10.00">juce::InputStream</text>
</g>
<!-- Node2 -->
<g id="node2" class="node"><title>Node2</title>
<g id="a_node2"><a xlink:href="classjuce_1_1BufferedInputStream.html" target="_top" xlink:title="Wraps another input stream, and reads from it using an intermediate buffer. ">
<polygon fill="none" stroke="black" points="139.5,-202.5 139.5,-221.5 270.5,-221.5 270.5,-202.5 139.5,-202.5"/>
<text text-anchor="middle" x="205" y="-209.5" font-family="Helvetica,sans-Serif" font-size="10.00">juce::BufferedInputStream</text>
</a>
</g>
</g>
<!-- Node1&#45;&gt;Node2 -->
<g id="edge1" class="edge"><title>Node1&#45;&gt;Node2</title>
<path fill="none" stroke="midnightblue" d="M60.4379,-125.867C74.9177,-145.308 100.631,-175.897 130,-193 136.648,-196.871 144.082,-199.964 151.605,-202.432"/>
<polygon fill="midnightblue" stroke="midnightblue" points="63.1306,-123.618 54.4337,-117.567 57.4589,-127.72 63.1306,-123.618"/>
</g>
<!-- Node3 -->
<g id="node3" class="node"><title>Node3</title>
<g id="a_node3"><a xlink:href="classjuce_1_1FileInputStream.html" target="_top" xlink:title="An input stream that reads from a local file. ">
<polygon fill="none" stroke="black" points="150,-164.5 150,-183.5 260,-183.5 260,-164.5 150,-164.5"/>
<text text-anchor="middle" x="205" y="-171.5" font-family="Helvetica,sans-Serif" font-size="10.00">juce::FileInputStream</text>
</a>
</g>
</g>
<!-- Node1&#45;&gt;Node3 -->
<g id="edge2" class="edge"><title>Node1&#45;&gt;Node3</title>
<path fill="none" stroke="midnightblue" d="M71.229,-123.079C87.2376,-132.951 109.282,-145.542 130,-154 139.98,-158.074 151.053,-161.573 161.528,-164.452"/>
<polygon fill="midnightblue" stroke="midnightblue" points="72.8865,-119.987 62.5565,-117.632 69.1637,-125.915 72.8865,-119.987"/>
</g>
<!-- Node4 -->
<g id="node4" class="node"><title>Node4</title>
<g id="a_node4"><a xlink:href="classjuce_1_1GZIPDecompressorInputStream.html" target="_top" xlink:title="This stream will decompress a source&#45;stream using zlib. ">
<polygon fill="none" stroke="black" points="130.5,-115 130.5,-145 279.5,-145 279.5,-115 130.5,-115"/>
<text text-anchor="start" x="138.5" y="-133" font-family="Helvetica,sans-Serif" font-size="10.00">juce::GZIPDecompressorInput</text>
<text text-anchor="middle" x="205" y="-122" font-family="Helvetica,sans-Serif" font-size="10.00">Stream</text>
</a>
</g>
</g>
<!-- Node1&#45;&gt;Node4 -->
<g id="edge3" class="edge"><title>Node1&#45;&gt;Node4</title>
<path fill="none" stroke="midnightblue" d="M104.435,-115.959C112.848,-117.145 121.624,-118.383 130.327,-119.61"/>
<polygon fill="midnightblue" stroke="midnightblue" points="104.774,-112.472 94.3828,-114.541 103.796,-119.403 104.774,-112.472"/>
</g>
<!-- Node5 -->
<g id="node5" class="node"><title>Node5</title>
<g id="a_node5"><a xlink:href="classjuce_1_1MemoryInputStream.html" target="_top" xlink:title="Allows a block of data to be accessed as a stream. ">
<polygon fill="none" stroke="black" points="140.5,-76.5 140.5,-95.5 269.5,-95.5 269.5,-76.5 140.5,-76.5"/>
<text text-anchor="middle" x="205" y="-83.5" font-family="Helvetica,sans-Serif" font-size="10.00">juce::MemoryInputStream</text>
</a>
</g>
</g>
<!-- Node1&#45;&gt;Node5 -->
<g id="edge4" class="edge"><title>Node1&#45;&gt;Node5</title>
<path fill="none" stroke="midnightblue" d="M104.45,-100.039C116.146,-98.3897 128.542,-96.6415 140.471,-94.9593"/>
<polygon fill="midnightblue" stroke="midnightblue" points="103.796,-96.5966 94.3828,-101.459 104.774,-103.528 103.796,-96.5966"/>
</g>
<!-- Node6 -->
<g id="node6" class="node"><title>Node6</title>
<g id="a_node6"><a xlink:href="classjuce_1_1SubregionStream.html" target="_top" xlink:title="Wraps another input stream, and reads from a specific part of it. ">
<polygon fill="none" stroke="black" points="147,-38.5 147,-57.5 263,-57.5 263,-38.5 147,-38.5"/>
<text text-anchor="middle" x="205" y="-45.5" font-family="Helvetica,sans-Serif" font-size="10.00">juce::SubregionStream</text>
</a>
</g>
</g>
<!-- Node1&#45;&gt;Node6 -->
<g id="edge5" class="edge"><title>Node1&#45;&gt;Node6</title>
<path fill="none" stroke="midnightblue" d="M73.645,-93.4084C89.5034,-84.836 110.491,-74.2874 130,-67 139.692,-63.3798 150.347,-60.2017 160.48,-57.5326"/>
<polygon fill="midnightblue" stroke="midnightblue" points="71.5672,-90.5568 64.4929,-98.4438 74.9415,-96.6898 71.5672,-90.5568"/>
</g>
<!-- Node7 -->
<g id="node7" class="node"><title>Node7</title>
<g id="a_node7"><a xlink:href="classjuce_1_1WebInputStream.html" target="_top" xlink:title="An InputStream which can be used to read from a given url. ">
<polygon fill="none" stroke="black" points="148,-0.5 148,-19.5 262,-19.5 262,-0.5 148,-0.5"/>
<text text-anchor="middle" x="205" y="-7.5" font-family="Helvetica,sans-Serif" font-size="10.00">juce::WebInputStream</text>
</a>
</g>
</g>
<!-- Node1&#45;&gt;Node7 -->
<g id="edge6" class="edge"><title>Node1&#45;&gt;Node7</title>
<path fill="none" stroke="midnightblue" d="M61.6213,-90.3219C76.4947,-72.2402 101.963,-44.6475 130,-29 136.949,-25.1215 144.706,-22.0174 152.51,-19.5377"/>
<polygon fill="midnightblue" stroke="midnightblue" points="58.7204,-88.3453 55.2062,-98.3403 64.1864,-92.7183 58.7204,-88.3453"/>
</g>
</g>
</svg>
