<?xml version="1.0" encoding="UTF-8" standalone="no"?>
<!DOCTYPE svg PUBLIC "-//W3C//DTD SVG 1.1//EN"
 "http://www.w3.org/Graphics/SVG/1.1/DTD/svg11.dtd">
<!-- Generated by graphviz version 2.36.0 (20140111.2315)
 -->
<!-- Title: juce::ComboBox::Listener Pages: 1 -->
<svg width="332pt" height="153pt"
 viewBox="0.00 0.00 332.00 153.00" xmlns="http://www.w3.org/2000/svg" xmlns:xlink="http://www.w3.org/1999/xlink">
<g id="graph0" class="graph" transform="scale(1 1) rotate(0) translate(4 149)">
<title>juce::ComboBox::Listener</title>
<!-- Node1 -->
<g id="node1" class="node"><title>Node1</title>
<polygon fill="#bfbfbf" stroke="black" points="0,-57.5 0,-76.5 130,-76.5 130,-57.5 0,-57.5"/>
<text text-anchor="middle" x="65" y="-64.5" font-family="Helvetica,sans-Serif" font-size="10.00">juce::ComboBox::Listener</text>
</g>
<!-- Node2 -->
<g id="node2" class="node"><title>Node2</title>
<g id="a_node2"><a xlink:href="classjuce_1_1AudioDeviceSelectorComponent.html" target="_top" xlink:title="A component containing controls to let the user change the audio settings of an AudioDeviceManager ob...">
<polygon fill="none" stroke="black" points="179,-115 179,-145 311,-145 311,-115 179,-115"/>
<text text-anchor="start" x="187" y="-133" font-family="Helvetica,sans-Serif" font-size="10.00">juce::AudioDeviceSelector</text>
<text text-anchor="middle" x="245" y="-122" font-family="Helvetica,sans-Serif" font-size="10.00">Component</text>
</a>
</g>
</g>
<!-- Node1&#45;&gt;Node2 -->
<g id="edge1" class="edge"><title>Node1&#45;&gt;Node2</title>
<path fill="none" stroke="#8b1a1a" d="M99.6804,-80.3081C118.998,-87.8128 143.758,-97.2156 166,-105 175.53,-108.335 185.773,-111.743 195.601,-114.928"/>
<polygon fill="#8b1a1a" stroke="#8b1a1a" points="100.705,-76.9509 90.1167,-76.5753 98.1597,-83.4718 100.705,-76.9509"/>
</g>
<!-- Node3 -->
<g id="node3" class="node"><title>Node3</title>
<g id="a_node3"><a xlink:href="classjuce_1_1ChoicePropertyComponent.html" target="_top" xlink:title="A PropertyComponent that shows its value as a combo box. ">
<polygon fill="none" stroke="black" points="166,-76.5 166,-95.5 324,-95.5 324,-76.5 166,-76.5"/>
<text text-anchor="middle" x="245" y="-83.5" font-family="Helvetica,sans-Serif" font-size="10.00">juce::ChoicePropertyComponent</text>
</a>
</g>
</g>
<!-- Node1&#45;&gt;Node3 -->
<g id="edge2" class="edge"><title>Node1&#45;&gt;Node3</title>
<path fill="none" stroke="#8b1a1a" d="M139.978,-74.8965C148.56,-75.8126 157.335,-76.7492 165.97,-77.6709"/>
<polygon fill="#8b1a1a" stroke="#8b1a1a" points="140.326,-71.4138 130.011,-73.8326 139.583,-78.3743 140.326,-71.4138"/>
</g>
<!-- Node4 -->
<g id="node4" class="node"><title>Node4</title>
<g id="a_node4"><a xlink:href="classjuce_1_1FileBrowserComponent.html" target="_top" xlink:title="A component for browsing and selecting a file or directory to open or save. ">
<polygon fill="none" stroke="black" points="173.5,-38.5 173.5,-57.5 316.5,-57.5 316.5,-38.5 173.5,-38.5"/>
<text text-anchor="middle" x="245" y="-45.5" font-family="Helvetica,sans-Serif" font-size="10.00">juce::FileBrowserComponent</text>
</a>
</g>
</g>
<!-- Node1&#45;&gt;Node4 -->
<g id="edge3" class="edge"><title>Node1&#45;&gt;Node4</title>
<path fill="none" stroke="#8b1a1a" d="M140.021,-59.0989C151.039,-57.9228 162.373,-56.713 173.321,-55.5444"/>
<polygon fill="#8b1a1a" stroke="#8b1a1a" points="139.583,-55.6257 130.011,-60.1674 140.326,-62.5862 139.583,-55.6257"/>
</g>
<!-- Node5 -->
<g id="node5" class="node"><title>Node5</title>
<g id="a_node5"><a xlink:href="classjuce_1_1FilenameComponent.html" target="_top" xlink:title="Shows a filename as an editable text box, with a &#39;browse&#39; button and a drop&#45;down list for recently se...">
<polygon fill="none" stroke="black" points="179.5,-0.5 179.5,-19.5 310.5,-19.5 310.5,-0.5 179.5,-0.5"/>
<text text-anchor="middle" x="245" y="-7.5" font-family="Helvetica,sans-Serif" font-size="10.00">juce::FilenameComponent</text>
</a>
</g>
</g>
<!-- Node1&#45;&gt;Node5 -->
<g id="edge4" class="edge"><title>Node1&#45;&gt;Node5</title>
<path fill="none" stroke="#8b1a1a" d="M98.0567,-53.6537C117.502,-45.8511 142.936,-36.1608 166,-29 177.181,-25.5285 189.423,-22.2895 200.825,-19.5042"/>
<polygon fill="#8b1a1a" stroke="#8b1a1a" points="96.7059,-50.4246 88.7537,-57.4256 99.3361,-56.9117 96.7059,-50.4246"/>
</g>
</g>
</svg>
