<?xml version="1.0" encoding="UTF-8" standalone="no"?>
<!DOCTYPE svg PUBLIC "-//W3C//DTD SVG 1.1//EN"
 "http://www.w3.org/Graphics/SVG/1.1/DTD/svg11.dtd">
<!-- Generated by graphviz version 2.36.0 (20140111.2315)
 -->
<!-- Title: LookAndFeel_V3 Pages: 1 -->
<svg width="704pt" height="1256pt"
 viewBox="0.00 0.00 704.00 1256.00" xmlns="http://www.w3.org/2000/svg" xmlns:xlink="http://www.w3.org/1999/xlink">
<g id="graph0" class="graph" transform="scale(1 1) rotate(0) translate(4 1252)">
<title>LookAndFeel_V3</title>
<!-- Node1 -->
<g id="node1" class="node"><title>Node1</title>
<polygon fill="#bfbfbf" stroke="black" points="476.5,-645.5 476.5,-664.5 567.5,-664.5 567.5,-645.5 476.5,-645.5"/>
<text text-anchor="middle" x="522" y="-652.5" font-family="Helvetica,sans-Serif" font-size="10.00">LookAndFeel_V3</text>
</g>
<!-- Node32 -->
<g id="node32" class="node"><title>Node32</title>
<g id="a_node32"><a xlink:href="classLookAndFeel__V4.html" target="_top" xlink:title="LookAndFeel_V4">
<polygon fill="none" stroke="black" points="604.5,-645.5 604.5,-664.5 695.5,-664.5 695.5,-645.5 604.5,-645.5"/>
<text text-anchor="middle" x="650" y="-652.5" font-family="Helvetica,sans-Serif" font-size="10.00">LookAndFeel_V4</text>
</a>
</g>
</g>
<!-- Node1&#45;&gt;Node32 -->
<g id="edge31" class="edge"><title>Node1&#45;&gt;Node32</title>
<path fill="none" stroke="midnightblue" d="M577.987,-655C586.802,-655 595.831,-655 604.367,-655"/>
<polygon fill="midnightblue" stroke="midnightblue" points="577.778,-651.5 567.778,-655 577.778,-658.5 577.778,-651.5"/>
</g>
<!-- Node2 -->
<g id="node2" class="node"><title>Node2</title>
<g id="a_node2"><a xlink:href="classLookAndFeel__V2.html" target="_top" xlink:title="This LookAndFeel subclass implements the juce style from around 2008&#45;12. ">
<polygon fill="none" stroke="black" points="348.5,-645.5 348.5,-664.5 439.5,-664.5 439.5,-645.5 348.5,-645.5"/>
<text text-anchor="middle" x="394" y="-652.5" font-family="Helvetica,sans-Serif" font-size="10.00">LookAndFeel_V2</text>
</a>
</g>
</g>
<!-- Node2&#45;&gt;Node1 -->
<g id="edge1" class="edge"><title>Node2&#45;&gt;Node1</title>
<path fill="none" stroke="midnightblue" d="M449.987,-655C458.802,-655 467.831,-655 476.367,-655"/>
<polygon fill="midnightblue" stroke="midnightblue" points="449.778,-651.5 439.778,-655 449.778,-658.5 449.778,-651.5"/>
</g>
<!-- Node3 -->
<g id="node3" class="node"><title>Node3</title>
<g id="a_node3"><a xlink:href="classLookAndFeel.html" target="_top" xlink:title="LookAndFeel objects define the appearance of all the JUCE widgets, and subclasses can be used to appl...">
<polygon fill="none" stroke="black" points="238,-645.5 238,-664.5 312,-664.5 312,-645.5 238,-645.5"/>
<text text-anchor="middle" x="275" y="-652.5" font-family="Helvetica,sans-Serif" font-size="10.00">LookAndFeel</text>
</a>
</g>
</g>
<!-- Node3&#45;&gt;Node2 -->
<g id="edge2" class="edge"><title>Node3&#45;&gt;Node2</title>
<path fill="none" stroke="midnightblue" d="M322.242,-655C330.781,-655 339.685,-655 348.182,-655"/>
<polygon fill="midnightblue" stroke="midnightblue" points="322.059,-651.5 312.059,-655 322.059,-658.5 322.059,-651.5"/>
</g>
<!-- Node4 -->
<g id="node4" class="node"><title>Node4</title>
<g id="a_node4"><a xlink:href="structScrollBar_1_1LookAndFeelMethods.html" target="_top" xlink:title="This abstract base class is implemented by LookAndFeel classes to provide scrollbar&#45;drawing functiona...">
<polygon fill="none" stroke="black" points="22.5,-1228.5 22.5,-1247.5 179.5,-1247.5 179.5,-1228.5 22.5,-1228.5"/>
<text text-anchor="middle" x="101" y="-1235.5" font-family="Helvetica,sans-Serif" font-size="10.00">ScrollBar::LookAndFeelMethods</text>
</a>
</g>
</g>
<!-- Node4&#45;&gt;Node3 -->
<g id="edge3" class="edge"><title>Node4&#45;&gt;Node3</title>
<path fill="none" stroke="midnightblue" d="M188.859,-1229.24C193.691,-1226.48 198.14,-1223.1 202,-1219 281.146,-1134.89 275.76,-733.316 274.25,-664.916"/>
<polygon fill="midnightblue" stroke="midnightblue" points="187.298,-1226.11 179.793,-1233.59 190.324,-1232.42 187.298,-1226.11"/>
</g>
<!-- Node5 -->
<g id="node5" class="node"><title>Node5</title>
<g id="a_node5"><a xlink:href="structButton_1_1LookAndFeelMethods.html" target="_top" xlink:title="This abstract base class is implemented by LookAndFeel classes to provide button&#45;drawing functionalit...">
<polygon fill="none" stroke="black" points="28,-1190.5 28,-1209.5 174,-1209.5 174,-1190.5 28,-1190.5"/>
<text text-anchor="middle" x="101" y="-1197.5" font-family="Helvetica,sans-Serif" font-size="10.00">Button::LookAndFeelMethods</text>
</a>
</g>
</g>
<!-- Node5&#45;&gt;Node3 -->
<g id="edge4" class="edge"><title>Node5&#45;&gt;Node3</title>
<path fill="none" stroke="midnightblue" d="M183.665,-1193.01C190.507,-1189.79 196.787,-1185.54 202,-1180 275.594,-1101.77 274.836,-729.478 274.135,-664.641"/>
<polygon fill="midnightblue" stroke="midnightblue" points="182.054,-1189.89 174.034,-1196.81 184.621,-1196.4 182.054,-1189.89"/>
</g>
<!-- Node6 -->
<g id="node6" class="node"><title>Node6</title>
<g id="a_node6"><a xlink:href="structImageButton_1_1LookAndFeelMethods.html" target="_top" xlink:title="This abstract base class is implemented by LookAndFeel classes. ">
<polygon fill="none" stroke="black" points="33.5,-1141 33.5,-1171 168.5,-1171 168.5,-1141 33.5,-1141"/>
<text text-anchor="start" x="41.5" y="-1159" font-family="Helvetica,sans-Serif" font-size="10.00">ImageButton::LookAndFeel</text>
<text text-anchor="middle" x="101" y="-1148" font-family="Helvetica,sans-Serif" font-size="10.00">Methods</text>
</a>
</g>
</g>
<!-- Node6&#45;&gt;Node3 -->
<g id="edge5" class="edge"><title>Node6&#45;&gt;Node3</title>
<path fill="none" stroke="midnightblue" d="M178.112,-1147.34C187.123,-1143.5 195.432,-1138.22 202,-1131 267.228,-1059.27 273.363,-726.617 273.94,-664.875"/>
<polygon fill="midnightblue" stroke="midnightblue" points="176.71,-1144.12 168.512,-1150.84 179.106,-1150.7 176.71,-1144.12"/>
</g>
<!-- Node7 -->
<g id="node7" class="node"><title>Node7</title>
<g id="a_node7"><a xlink:href="structTextEditor_1_1LookAndFeelMethods.html" target="_top" xlink:title="This abstract base class is implemented by LookAndFeel classes to provide TextEditor drawing function...">
<polygon fill="none" stroke="black" points="20,-1102.5 20,-1121.5 182,-1121.5 182,-1102.5 20,-1102.5"/>
<text text-anchor="middle" x="101" y="-1109.5" font-family="Helvetica,sans-Serif" font-size="10.00">TextEditor::LookAndFeelMethods</text>
</a>
</g>
</g>
<!-- Node7&#45;&gt;Node3 -->
<g id="edge6" class="edge"><title>Node7&#45;&gt;Node3</title>
<path fill="none" stroke="midnightblue" d="M191.104,-1100.76C195.056,-1098.28 198.728,-1095.39 202,-1092 263.718,-1028.14 272.678,-723.712 273.84,-664.862"/>
<polygon fill="midnightblue" stroke="midnightblue" points="189.266,-1097.77 182.048,-1105.53 192.527,-1103.96 189.266,-1097.77"/>
</g>
<!-- Node8 -->
<g id="node8" class="node"><title>Node8</title>
<g id="a_node8"><a xlink:href="structFileBrowserComponent_1_1LookAndFeelMethods.html" target="_top" xlink:title="This abstract base class is implemented by LookAndFeel classes to provide various file&#45;browser layout...">
<polygon fill="none" stroke="black" points="41.5,-1053 41.5,-1083 160.5,-1083 160.5,-1053 41.5,-1053"/>
<text text-anchor="start" x="49.5" y="-1071" font-family="Helvetica,sans-Serif" font-size="10.00">FileBrowserComponent</text>
<text text-anchor="middle" x="101" y="-1060" font-family="Helvetica,sans-Serif" font-size="10.00">::LookAndFeelMethods</text>
</a>
</g>
</g>
<!-- Node8&#45;&gt;Node3 -->
<g id="edge7" class="edge"><title>Node8&#45;&gt;Node3</title>
<path fill="none" stroke="midnightblue" d="M170.71,-1061.83C182.459,-1057.91 193.572,-1051.96 202,-1043 255.855,-985.727 271.015,-719.313 273.576,-664.771"/>
<polygon fill="midnightblue" stroke="midnightblue" points="169.403,-1058.56 160.737,-1064.65 171.312,-1065.29 169.403,-1058.56"/>
</g>
<!-- Node9 -->
<g id="node9" class="node"><title>Node9</title>
<g id="a_node9"><a xlink:href="structTreeView_1_1LookAndFeelMethods.html" target="_top" xlink:title="This abstract base class is implemented by LookAndFeel classes to provide treeview drawing functional...">
<polygon fill="none" stroke="black" points="22,-1014.5 22,-1033.5 180,-1033.5 180,-1014.5 22,-1014.5"/>
<text text-anchor="middle" x="101" y="-1021.5" font-family="Helvetica,sans-Serif" font-size="10.00">TreeView::LookAndFeelMethods</text>
</a>
</g>
</g>
<!-- Node9&#45;&gt;Node3 -->
<g id="edge8" class="edge"><title>Node9&#45;&gt;Node3</title>
<path fill="none" stroke="midnightblue" d="M189.459,-1013.48C194.015,-1010.86 198.251,-1007.73 202,-1004 252.021,-954.281 270.053,-716.293 273.4,-664.827"/>
<polygon fill="midnightblue" stroke="midnightblue" points="187.803,-1010.39 180.343,-1017.91 190.866,-1016.68 187.803,-1010.39"/>
</g>
<!-- Node10 -->
<g id="node10" class="node"><title>Node10</title>
<g id="a_node10"><a xlink:href="structBubbleComponent_1_1LookAndFeelMethods.html" target="_top" xlink:title="This abstract base class is implemented by LookAndFeel classes. ">
<polygon fill="none" stroke="black" points="30.5,-965 30.5,-995 171.5,-995 171.5,-965 30.5,-965"/>
<text text-anchor="start" x="38.5" y="-983" font-family="Helvetica,sans-Serif" font-size="10.00">BubbleComponent::LookAnd</text>
<text text-anchor="middle" x="101" y="-972" font-family="Helvetica,sans-Serif" font-size="10.00">FeelMethods</text>
</a>
</g>
</g>
<!-- Node10&#45;&gt;Node3 -->
<g id="edge9" class="edge"><title>Node10&#45;&gt;Node3</title>
<path fill="none" stroke="midnightblue" d="M181.075,-969.266C188.832,-965.685 196.026,-961.031 202,-955 244.596,-912.001 268.097,-711.115 273.02,-664.623"/>
<polygon fill="midnightblue" stroke="midnightblue" points="179.737,-966.032 171.751,-972.994 182.336,-972.531 179.737,-966.032"/>
</g>
<!-- Node11 -->
<g id="node11" class="node"><title>Node11</title>
<g id="a_node11"><a xlink:href="structAlertWindow_1_1LookAndFeelMethods.html" target="_top" xlink:title="This abstract base class is implemented by LookAndFeel classes to provide alert&#45;window drawing functi...">
<polygon fill="none" stroke="black" points="33.5,-916 33.5,-946 168.5,-946 168.5,-916 33.5,-916"/>
<text text-anchor="start" x="41.5" y="-934" font-family="Helvetica,sans-Serif" font-size="10.00">AlertWindow::LookAndFeel</text>
<text text-anchor="middle" x="101" y="-923" font-family="Helvetica,sans-Serif" font-size="10.00">Methods</text>
</a>
</g>
</g>
<!-- Node11&#45;&gt;Node3 -->
<g id="edge10" class="edge"><title>Node11&#45;&gt;Node3</title>
<path fill="none" stroke="midnightblue" d="M178.296,-921.1C187.05,-917.432 195.242,-912.529 202,-906 273.561,-836.857 275.339,-701.755 274.391,-664.636"/>
<polygon fill="midnightblue" stroke="midnightblue" points="176.822,-917.912 168.617,-924.615 179.211,-924.491 176.822,-917.912"/>
</g>
<!-- Node12 -->
<g id="node12" class="node"><title>Node12</title>
<g id="a_node12"><a xlink:href="structPopupMenu_1_1LookAndFeelMethods.html" target="_top" xlink:title="This abstract base class is implemented by LookAndFeel classes to provide menu drawing functionality...">
<polygon fill="none" stroke="black" points="16.5,-877.5 16.5,-896.5 185.5,-896.5 185.5,-877.5 16.5,-877.5"/>
<text text-anchor="middle" x="101" y="-884.5" font-family="Helvetica,sans-Serif" font-size="10.00">PopupMenu::LookAndFeelMethods</text>
</a>
</g>
</g>
<!-- Node12&#45;&gt;Node3 -->
<g id="edge11" class="edge"><title>Node12&#45;&gt;Node3</title>
<path fill="none" stroke="midnightblue" d="M194.4,-873.662C197.067,-871.961 199.611,-870.079 202,-868 265.594,-812.639 273.131,-699.062 273.934,-664.921"/>
<polygon fill="midnightblue" stroke="midnightblue" points="192.619,-870.646 185.51,-878.502 195.966,-876.794 192.619,-870.646"/>
</g>
<!-- Node13 -->
<g id="node13" class="node"><title>Node13</title>
<g id="a_node13"><a xlink:href="structComboBox_1_1LookAndFeelMethods.html" target="_top" xlink:title="This abstract base class is implemented by LookAndFeel classes to provide ComboBox functionality...">
<polygon fill="none" stroke="black" points="18,-839.5 18,-858.5 184,-858.5 184,-839.5 18,-839.5"/>
<text text-anchor="middle" x="101" y="-846.5" font-family="Helvetica,sans-Serif" font-size="10.00">ComboBox::LookAndFeelMethods</text>
</a>
</g>
</g>
<!-- Node13&#45;&gt;Node3 -->
<g id="edge12" class="edge"><title>Node13&#45;&gt;Node3</title>
<path fill="none" stroke="midnightblue" d="M193.231,-836.054C196.308,-834.256 199.246,-832.246 202,-830 255.976,-785.983 269.931,-694.856 273.134,-664.831"/>
<polygon fill="midnightblue" stroke="midnightblue" points="191.594,-832.959 184.231,-840.577 194.738,-839.214 191.594,-832.959"/>
</g>
<!-- Node14 -->
<g id="node14" class="node"><title>Node14</title>
<g id="a_node14"><a xlink:href="structLabel_1_1LookAndFeelMethods.html" target="_top" xlink:title="This abstract base class is implemented by LookAndFeel classes to provide label drawing functionality...">
<polygon fill="none" stroke="black" points="31,-801.5 31,-820.5 171,-820.5 171,-801.5 31,-801.5"/>
<text text-anchor="middle" x="101" y="-808.5" font-family="Helvetica,sans-Serif" font-size="10.00">Label::LookAndFeelMethods</text>
</a>
</g>
</g>
<!-- Node14&#45;&gt;Node3 -->
<g id="edge13" class="edge"><title>Node14&#45;&gt;Node3</title>
<path fill="none" stroke="midnightblue" d="M180.791,-803.199C188.375,-800.388 195.609,-796.732 202,-792 246.484,-759.063 265.998,-690.423 271.924,-664.868"/>
<polygon fill="midnightblue" stroke="midnightblue" points="179.491,-799.94 171.036,-806.326 181.628,-806.606 179.491,-799.94"/>
</g>
<!-- Node15 -->
<g id="node15" class="node"><title>Node15</title>
<g id="a_node15"><a xlink:href="structSlider_1_1LookAndFeelMethods.html" target="_top" xlink:title="This abstract base class is implemented by LookAndFeel classes to provide slider drawing functionalit...">
<polygon fill="none" stroke="black" points="30,-763.5 30,-782.5 172,-782.5 172,-763.5 30,-763.5"/>
<text text-anchor="middle" x="101" y="-770.5" font-family="Helvetica,sans-Serif" font-size="10.00">Slider::LookAndFeelMethods</text>
</a>
</g>
</g>
<!-- Node15&#45;&gt;Node3 -->
<g id="edge14" class="edge"><title>Node15&#45;&gt;Node3</title>
<path fill="none" stroke="midnightblue" d="M181.869,-762.739C188.957,-760.156 195.789,-756.957 202,-753 237.076,-730.652 260.805,-684.665 269.879,-664.656"/>
<polygon fill="midnightblue" stroke="midnightblue" points="180.524,-759.495 172.079,-765.893 182.671,-766.158 180.524,-759.495"/>
</g>
<!-- Node16 -->
<g id="node16" class="node"><title>Node16</title>
<g id="a_node16"><a xlink:href="structResizableWindow_1_1LookAndFeelMethods.html" target="_top" xlink:title="This abstract base class is implemented by LookAndFeel classes to provide window drawing functionalit...">
<polygon fill="none" stroke="black" points="31,-714 31,-744 171,-744 171,-714 31,-714"/>
<text text-anchor="start" x="39" y="-732" font-family="Helvetica,sans-Serif" font-size="10.00">ResizableWindow::LookAnd</text>
<text text-anchor="middle" x="101" y="-721" font-family="Helvetica,sans-Serif" font-size="10.00">FeelMethods</text>
</a>
</g>
</g>
<!-- Node16&#45;&gt;Node3 -->
<g id="edge15" class="edge"><title>Node16&#45;&gt;Node3</title>
<path fill="none" stroke="midnightblue" d="M181.008,-712.051C188.221,-709.669 195.32,-706.993 202,-704 225.181,-693.613 248.945,-675.756 262.543,-664.707"/>
<polygon fill="midnightblue" stroke="midnightblue" points="179.641,-708.81 171.13,-715.12 181.718,-715.495 179.641,-708.81"/>
</g>
<!-- Node17 -->
<g id="node17" class="node"><title>Node17</title>
<g id="a_node17"><a xlink:href="structDocumentWindow_1_1LookAndFeelMethods.html" target="_top" xlink:title="This abstract base class is implemented by LookAndFeel classes to provide window drawing functionalit...">
<polygon fill="none" stroke="black" points="21,-665 21,-695 181,-695 181,-665 21,-665"/>
<text text-anchor="start" x="29" y="-683" font-family="Helvetica,sans-Serif" font-size="10.00">DocumentWindow::LookAndFeel</text>
<text text-anchor="middle" x="101" y="-672" font-family="Helvetica,sans-Serif" font-size="10.00">Methods</text>
</a>
</g>
</g>
<!-- Node17&#45;&gt;Node3 -->
<g id="edge16" class="edge"><title>Node17&#45;&gt;Node3</title>
<path fill="none" stroke="midnightblue" d="M191.408,-667.005C207.797,-664.622 224.021,-662.264 237.694,-660.277"/>
<polygon fill="midnightblue" stroke="midnightblue" points="190.596,-663.586 181.204,-668.488 191.603,-670.513 190.596,-663.586"/>
</g>
<!-- Node18 -->
<g id="node18" class="node"><title>Node18</title>
<g id="a_node18"><a xlink:href="structTooltipWindow_1_1LookAndFeelMethods.html" target="_top" xlink:title="This abstract base class is implemented by LookAndFeel classes to provide window drawing functionalit...">
<polygon fill="none" stroke="black" points="29,-616 29,-646 173,-646 173,-616 29,-616"/>
<text text-anchor="start" x="37" y="-634" font-family="Helvetica,sans-Serif" font-size="10.00">TooltipWindow::LookAndFeel</text>
<text text-anchor="middle" x="101" y="-623" font-family="Helvetica,sans-Serif" font-size="10.00">Methods</text>
</a>
</g>
</g>
<!-- Node18&#45;&gt;Node3 -->
<g id="edge17" class="edge"><title>Node18&#45;&gt;Node3</title>
<path fill="none" stroke="midnightblue" d="M183.381,-642.356C202.466,-645.018 221.854,-647.724 237.773,-649.945"/>
<polygon fill="midnightblue" stroke="midnightblue" points="183.837,-638.885 173.449,-640.97 182.87,-645.818 183.837,-638.885"/>
</g>
<!-- Node19 -->
<g id="node19" class="node"><title>Node19</title>
<g id="a_node19"><a xlink:href="structTabbedButtonBar_1_1LookAndFeelMethods.html" target="_top" xlink:title="This abstract base class is implemented by LookAndFeel classes to provide window drawing functionalit...">
<polygon fill="none" stroke="black" points="32.5,-567 32.5,-597 169.5,-597 169.5,-567 32.5,-567"/>
<text text-anchor="start" x="40.5" y="-585" font-family="Helvetica,sans-Serif" font-size="10.00">TabbedButtonBar::LookAnd</text>
<text text-anchor="middle" x="101" y="-574" font-family="Helvetica,sans-Serif" font-size="10.00">FeelMethods</text>
</a>
</g>
</g>
<!-- Node19&#45;&gt;Node3 -->
<g id="edge18" class="edge"><title>Node19&#45;&gt;Node3</title>
<path fill="none" stroke="midnightblue" d="M179.554,-598.554C187.261,-601.038 194.866,-603.844 202,-607 224.807,-617.089 248.31,-634.276 262.017,-645.114"/>
<polygon fill="midnightblue" stroke="midnightblue" points="180.349,-595.138 169.764,-595.578 178.313,-601.835 180.349,-595.138"/>
</g>
<!-- Node20 -->
<g id="node20" class="node"><title>Node20</title>
<g id="a_node20"><a xlink:href="structPropertyComponent_1_1LookAndFeelMethods.html" target="_top" xlink:title="This abstract base class is implemented by LookAndFeel classes. ">
<polygon fill="none" stroke="black" points="45.5,-518 45.5,-548 156.5,-548 156.5,-518 45.5,-518"/>
<text text-anchor="start" x="53.5" y="-536" font-family="Helvetica,sans-Serif" font-size="10.00">PropertyComponent::</text>
<text text-anchor="middle" x="101" y="-525" font-family="Helvetica,sans-Serif" font-size="10.00">LookAndFeelMethods</text>
</a>
</g>
</g>
<!-- Node20&#45;&gt;Node3 -->
<g id="edge19" class="edge"><title>Node20&#45;&gt;Node3</title>
<path fill="none" stroke="midnightblue" d="M166.627,-542.243C179.029,-545.879 191.43,-550.944 202,-558 236.188,-580.823 260.231,-625.558 269.623,-645.274"/>
<polygon fill="midnightblue" stroke="midnightblue" points="167.277,-538.795 156.714,-539.623 165.488,-545.562 167.277,-538.795"/>
</g>
<!-- Node21 -->
<g id="node21" class="node"><title>Node21</title>
<g id="a_node21"><a xlink:href="structFilenameComponent_1_1LookAndFeelMethods.html" target="_top" xlink:title="This abstract base class is implemented by LookAndFeel classes. ">
<polygon fill="none" stroke="black" points="44.5,-469 44.5,-499 157.5,-499 157.5,-469 44.5,-469"/>
<text text-anchor="start" x="52.5" y="-487" font-family="Helvetica,sans-Serif" font-size="10.00">FilenameComponent::</text>
<text text-anchor="middle" x="101" y="-476" font-family="Helvetica,sans-Serif" font-size="10.00">LookAndFeelMethods</text>
</a>
</g>
</g>
<!-- Node21&#45;&gt;Node3 -->
<g id="edge20" class="edge"><title>Node21&#45;&gt;Node3</title>
<path fill="none" stroke="midnightblue" d="M167.484,-491.735C179.875,-495.484 192.054,-500.976 202,-509 247.753,-545.909 266.689,-619.224 272.181,-645.419"/>
<polygon fill="midnightblue" stroke="midnightblue" points="168.103,-488.278 157.539,-489.086 166.302,-495.042 168.103,-488.278"/>
</g>
<!-- Node22 -->
<g id="node22" class="node"><title>Node22</title>
<g id="a_node22"><a xlink:href="structGroupComponent_1_1LookAndFeelMethods.html" target="_top" xlink:title="This abstract base class is implemented by LookAndFeel classes. ">
<polygon fill="none" stroke="black" points="23,-420 23,-450 179,-450 179,-420 23,-420"/>
<text text-anchor="start" x="31" y="-438" font-family="Helvetica,sans-Serif" font-size="10.00">GroupComponent::LookAndFeel</text>
<text text-anchor="middle" x="101" y="-427" font-family="Helvetica,sans-Serif" font-size="10.00">Methods</text>
</a>
</g>
</g>
<!-- Node22&#45;&gt;Node3 -->
<g id="edge21" class="edge"><title>Node22&#45;&gt;Node3</title>
<path fill="none" stroke="midnightblue" d="M188.267,-450.34C193.2,-453.072 197.837,-456.266 202,-460 259.495,-511.561 271.179,-613.183 273.465,-645.14"/>
<polygon fill="midnightblue" stroke="midnightblue" points="189.632,-447.113 179.106,-445.907 186.583,-453.413 189.632,-447.113"/>
</g>
<!-- Node23 -->
<g id="node23" class="node"><title>Node23</title>
<g id="a_node23"><a xlink:href="structTableHeaderComponent_1_1LookAndFeelMethods.html" target="_top" xlink:title="This abstract base class is implemented by LookAndFeel classes. ">
<polygon fill="none" stroke="black" points="40,-371 40,-401 162,-401 162,-371 40,-371"/>
<text text-anchor="start" x="48" y="-389" font-family="Helvetica,sans-Serif" font-size="10.00">TableHeaderComponent</text>
<text text-anchor="middle" x="101" y="-378" font-family="Helvetica,sans-Serif" font-size="10.00">::LookAndFeelMethods</text>
</a>
</g>
</g>
<!-- Node23&#45;&gt;Node3 -->
<g id="edge22" class="edge"><title>Node23&#45;&gt;Node3</title>
<path fill="none" stroke="midnightblue" d="M171.929,-393.544C183.035,-397.38 193.608,-402.953 202,-411 271.815,-477.945 274.872,-608.917 274.298,-645.378"/>
<polygon fill="midnightblue" stroke="midnightblue" points="172.656,-390.109 162.072,-390.602 170.653,-396.816 172.656,-390.109"/>
</g>
<!-- Node24 -->
<g id="node24" class="node"><title>Node24</title>
<g id="a_node24"><a xlink:href="structCallOutBox_1_1LookAndFeelMethods.html" target="_top" xlink:title="This abstract base class is implemented by LookAndFeel classes. ">
<polygon fill="none" stroke="black" points="17.5,-332.5 17.5,-351.5 184.5,-351.5 184.5,-332.5 17.5,-332.5"/>
<text text-anchor="middle" x="101" y="-339.5" font-family="Helvetica,sans-Serif" font-size="10.00">CallOutBox::LookAndFeelMethods</text>
</a>
</g>
</g>
<!-- Node24&#45;&gt;Node3 -->
<g id="edge23" class="edge"><title>Node24&#45;&gt;Node3</title>
<path fill="none" stroke="midnightblue" d="M193.468,-355.227C196.5,-357.227 199.362,-359.475 202,-362 244.661,-402.842 268.031,-599.075 272.994,-645.253"/>
<polygon fill="midnightblue" stroke="midnightblue" points="194.951,-352.047 184.513,-350.228 191.539,-358.159 194.951,-352.047"/>
</g>
<!-- Node25 -->
<g id="node25" class="node"><title>Node25</title>
<g id="a_node25"><a xlink:href="structToolbar_1_1LookAndFeelMethods.html" target="_top" xlink:title="This abstract base class is implemented by LookAndFeel classes. ">
<polygon fill="none" stroke="black" points="26.5,-294.5 26.5,-313.5 175.5,-313.5 175.5,-294.5 26.5,-294.5"/>
<text text-anchor="middle" x="101" y="-301.5" font-family="Helvetica,sans-Serif" font-size="10.00">Toolbar::LookAndFeelMethods</text>
</a>
</g>
</g>
<!-- Node25&#45;&gt;Node3 -->
<g id="edge24" class="edge"><title>Node25&#45;&gt;Node3</title>
<path fill="none" stroke="midnightblue" d="M184.96,-311.374C191.221,-314.345 197.026,-318.152 202,-323 250.047,-369.823 269.559,-595.618 273.308,-645.313"/>
<polygon fill="midnightblue" stroke="midnightblue" points="186.086,-308.055 175.501,-307.594 183.488,-314.555 186.086,-308.055"/>
</g>
<!-- Node26 -->
<g id="node26" class="node"><title>Node26</title>
<g id="a_node26"><a xlink:href="structConcertinaPanel_1_1LookAndFeelMethods.html" target="_top" xlink:title="This abstract base class is implemented by LookAndFeel classes. ">
<polygon fill="none" stroke="black" points="34.5,-245 34.5,-275 167.5,-275 167.5,-245 34.5,-245"/>
<text text-anchor="start" x="42.5" y="-263" font-family="Helvetica,sans-Serif" font-size="10.00">ConcertinaPanel::LookAnd</text>
<text text-anchor="middle" x="101" y="-252" font-family="Helvetica,sans-Serif" font-size="10.00">FeelMethods</text>
</a>
</g>
</g>
<!-- Node26&#45;&gt;Node3 -->
<g id="edge25" class="edge"><title>Node26&#45;&gt;Node3</title>
<path fill="none" stroke="midnightblue" d="M177.172,-268.647C186.477,-272.467 195.119,-277.745 202,-285 253.567,-339.363 270.491,-592.536 273.487,-645.335"/>
<polygon fill="midnightblue" stroke="midnightblue" points="178.281,-265.327 167.686,-265.294 175.948,-271.927 178.281,-265.327"/>
</g>
<!-- Node27 -->
<g id="node27" class="node"><title>Node27</title>
<g id="a_node27"><a xlink:href="structProgressBar_1_1LookAndFeelMethods.html" target="_top" xlink:title="This abstract base class is implemented by LookAndFeel classes. ">
<polygon fill="none" stroke="black" points="34,-196 34,-226 168,-226 168,-196 34,-196"/>
<text text-anchor="start" x="42" y="-214" font-family="Helvetica,sans-Serif" font-size="10.00">ProgressBar::LookAndFeel</text>
<text text-anchor="middle" x="101" y="-203" font-family="Helvetica,sans-Serif" font-size="10.00">Methods</text>
</a>
</g>
</g>
<!-- Node27&#45;&gt;Node3 -->
<g id="edge26" class="edge"><title>Node27&#45;&gt;Node3</title>
<path fill="none" stroke="midnightblue" d="M177.794,-219.707C186.896,-223.531 195.315,-228.795 202,-236 259.859,-298.357 271.897,-588.107 273.721,-645.212"/>
<polygon fill="midnightblue" stroke="midnightblue" points="178.7,-216.313 168.106,-216.221 176.331,-222.9 178.7,-216.313"/>
</g>
<!-- Node28 -->
<g id="node28" class="node"><title>Node28</title>
<g id="a_node28"><a xlink:href="structStretchableLayoutResizerBar_1_1LookAndFeelMethods.html" target="_top" xlink:title="This abstract base class is implemented by LookAndFeel classes. ">
<polygon fill="none" stroke="black" points="35,-147 35,-177 167,-177 167,-147 35,-147"/>
<text text-anchor="start" x="43" y="-165" font-family="Helvetica,sans-Serif" font-size="10.00">StretchableLayoutResizer</text>
<text text-anchor="middle" x="101" y="-154" font-family="Helvetica,sans-Serif" font-size="10.00">Bar::LookAndFeelMethods</text>
</a>
</g>
</g>
<!-- Node28&#45;&gt;Node3 -->
<g id="edge27" class="edge"><title>Node28&#45;&gt;Node3</title>
<path fill="none" stroke="midnightblue" d="M176.877,-170.169C186.358,-174.041 195.128,-179.462 202,-187 266.245,-257.469 273.179,-584.576 273.914,-645.289"/>
<polygon fill="midnightblue" stroke="midnightblue" points="177.797,-166.783 167.202,-166.792 175.49,-173.392 177.797,-166.783"/>
</g>
<!-- Node29 -->
<g id="node29" class="node"><title>Node29</title>
<g id="a_node29"><a xlink:href="structExtraLookAndFeelBaseClasses_1_1KeyMappingEditorComponentMethods.html" target="_top" xlink:title="This abstract base class is implemented by LookAndFeel classes. ">
<polygon fill="none" stroke="black" points="6,-98 6,-128 196,-128 196,-98 6,-98"/>
<text text-anchor="start" x="14" y="-116" font-family="Helvetica,sans-Serif" font-size="10.00">ExtraLookAndFeelBaseClasses</text>
<text text-anchor="middle" x="101" y="-105" font-family="Helvetica,sans-Serif" font-size="10.00">::KeyMappingEditorComponentMethods</text>
</a>
</g>
</g>
<!-- Node29&#45;&gt;Node3 -->
<g id="edge28" class="edge"><title>Node29&#45;&gt;Node3</title>
<path fill="none" stroke="midnightblue" d="M198.253,-134.213C199.556,-135.412 200.808,-136.673 202,-138 272.57,-216.525 274.324,-580.385 274.07,-645.132"/>
<polygon fill="midnightblue" stroke="midnightblue" points="200.304,-131.374 190.258,-128.005 196.01,-136.903 200.304,-131.374"/>
</g>
<!-- Node30 -->
<g id="node30" class="node"><title>Node30</title>
<g id="a_node30"><a xlink:href="structExtraLookAndFeelBaseClasses_1_1AudioDeviceSelectorComponentMethods.html" target="_top" xlink:title="This abstract base class is implemented by LookAndFeel classes. ">
<polygon fill="none" stroke="black" points="0,-49 0,-79 202,-79 202,-49 0,-49"/>
<text text-anchor="start" x="8" y="-67" font-family="Helvetica,sans-Serif" font-size="10.00">ExtraLookAndFeelBaseClasses</text>
<text text-anchor="middle" x="101" y="-56" font-family="Helvetica,sans-Serif" font-size="10.00">::AudioDeviceSelectorComponentMethods</text>
</a>
</g>
</g>
<!-- Node30&#45;&gt;Node3 -->
<g id="edge29" class="edge"><title>Node30&#45;&gt;Node3</title>
<path fill="none" stroke="midnightblue" d="M198.748,-85.6379C199.875,-86.7092 200.96,-87.8292 202,-89 278.956,-175.657 275.384,-576.793 274.201,-645.098"/>
<polygon fill="midnightblue" stroke="midnightblue" points="200.753,-82.7599 190.755,-79.2526 196.384,-88.2289 200.753,-82.7599"/>
</g>
<!-- Node31 -->
<g id="node31" class="node"><title>Node31</title>
<g id="a_node31"><a xlink:href="structExtraLookAndFeelBaseClasses_1_1LassoComponentMethods.html" target="_top" xlink:title="This abstract base class is implemented by LookAndFeel classes. ">
<polygon fill="none" stroke="black" points="23.5,-0 23.5,-30 178.5,-30 178.5,-0 23.5,-0"/>
<text text-anchor="start" x="31.5" y="-18" font-family="Helvetica,sans-Serif" font-size="10.00">ExtraLookAndFeelBaseClasses</text>
<text text-anchor="middle" x="101" y="-7" font-family="Helvetica,sans-Serif" font-size="10.00">::LassoComponentMethods</text>
</a>
</g>
</g>
<!-- Node31&#45;&gt;Node3 -->
<g id="edge30" class="edge"><title>Node31&#45;&gt;Node3</title>
<path fill="none" stroke="midnightblue" d="M187.843,-28.3207C193.104,-31.5013 197.912,-35.3506 202,-40 243.878,-87.6339 269.733,-570.103 273.517,-645.198"/>
<polygon fill="midnightblue" stroke="midnightblue" points="189.105,-25.0341 178.611,-23.5761 185.905,-31.26 189.105,-25.0341"/>
</g>
</g>
</svg>
