<?xml version="1.0" encoding="UTF-8" standalone="no"?>
<!DOCTYPE svg PUBLIC "-//W3C//DTD SVG 1.1//EN"
 "http://www.w3.org/Graphics/SVG/1.1/DTD/svg11.dtd">
<!-- Generated by graphviz version 2.36.0 (20140111.2315)
 -->
<!-- Title: InputStream Pages: 1 -->
<svg width="272pt" height="218pt"
 viewBox="0.00 0.00 272.00 218.00" xmlns="http://www.w3.org/2000/svg" xmlns:xlink="http://www.w3.org/1999/xlink">
<g id="graph0" class="graph" transform="scale(1 1) rotate(0) translate(4 214)">
<title>InputStream</title>
<!-- Node1 -->
<g id="node1" class="node"><title>Node1</title>
<polygon fill="#bfbfbf" stroke="black" points="0,-95.5 0,-114.5 70,-114.5 70,-95.5 0,-95.5"/>
<text text-anchor="middle" x="35" y="-102.5" font-family="Helvetica,sans-Serif" font-size="10.00">InputStream</text>
</g>
<!-- Node2 -->
<g id="node2" class="node"><title>Node2</title>
<g id="a_node2"><a xlink:href="group__juce__core-streams.html#classBufferedInputStream" target="_top" xlink:title="Wraps another input stream, and reads from it using an intermediate buffer. ">
<polygon fill="none" stroke="black" points="131.5,-190.5 131.5,-209.5 238.5,-209.5 238.5,-190.5 131.5,-190.5"/>
<text text-anchor="middle" x="185" y="-197.5" font-family="Helvetica,sans-Serif" font-size="10.00">BufferedInputStream</text>
</a>
</g>
</g>
<!-- Node1&#45;&gt;Node2 -->
<g id="edge1" class="edge"><title>Node1&#45;&gt;Node2</title>
<path fill="none" stroke="midnightblue" d="M47.6961,-122.867C60.0882,-140.35 81.2611,-166.415 106,-181 113.684,-185.53 122.401,-188.983 131.154,-191.613"/>
<polygon fill="midnightblue" stroke="midnightblue" points="50.5818,-120.886 42.0438,-114.613 44.8062,-124.841 50.5818,-120.886"/>
</g>
<!-- Node3 -->
<g id="node3" class="node"><title>Node3</title>
<g id="a_node3"><a xlink:href="group__juce__core-files.html#classFileInputStream" target="_top" xlink:title="An input stream that reads from a local file. ">
<polygon fill="none" stroke="black" points="142,-152.5 142,-171.5 228,-171.5 228,-152.5 142,-152.5"/>
<text text-anchor="middle" x="185" y="-159.5" font-family="Helvetica,sans-Serif" font-size="10.00">FileInputStream</text>
</a>
</g>
</g>
<!-- Node1&#45;&gt;Node3 -->
<g id="edge2" class="edge"><title>Node1&#45;&gt;Node3</title>
<path fill="none" stroke="midnightblue" d="M59.905,-119.983C73.1002,-127.732 90.0122,-136.833 106,-143 117.313,-147.364 129.946,-150.956 141.694,-153.797"/>
<polygon fill="midnightblue" stroke="midnightblue" points="61.3938,-116.794 51.0202,-114.641 57.7866,-122.793 61.3938,-116.794"/>
</g>
<!-- Node4 -->
<g id="node4" class="node"><title>Node4</title>
<g id="a_node4"><a xlink:href="group__juce__core-zip.html#classGZIPDecompressorInputStream" target="_top" xlink:title="This stream will decompress a source&#45;stream using zlib. ">
<polygon fill="none" stroke="black" points="106.5,-114.5 106.5,-133.5 263.5,-133.5 263.5,-114.5 106.5,-114.5"/>
<text text-anchor="middle" x="185" y="-121.5" font-family="Helvetica,sans-Serif" font-size="10.00">GZIPDecompressorInputStream</text>
</a>
</g>
</g>
<!-- Node1&#45;&gt;Node4 -->
<g id="edge3" class="edge"><title>Node1&#45;&gt;Node4</title>
<path fill="none" stroke="midnightblue" d="M80.4572,-110.707C89.7448,-111.9 99.7752,-113.187 109.81,-114.476"/>
<polygon fill="midnightblue" stroke="midnightblue" points="80.6905,-107.209 70.3262,-109.407 79.7991,-114.152 80.6905,-107.209"/>
</g>
<!-- Node5 -->
<g id="node5" class="node"><title>Node5</title>
<g id="a_node5"><a xlink:href="group__juce__core-streams.html#classMemoryInputStream" target="_top" xlink:title="Allows a block of data to be accessed as a stream. ">
<polygon fill="none" stroke="black" points="132.5,-76.5 132.5,-95.5 237.5,-95.5 237.5,-76.5 132.5,-76.5"/>
<text text-anchor="middle" x="185" y="-83.5" font-family="Helvetica,sans-Serif" font-size="10.00">MemoryInputStream</text>
</a>
</g>
</g>
<!-- Node1&#45;&gt;Node5 -->
<g id="edge4" class="edge"><title>Node1&#45;&gt;Node5</title>
<path fill="none" stroke="midnightblue" d="M80.6793,-99.2641C96.9948,-97.1696 115.579,-94.7838 132.445,-92.6186"/>
<polygon fill="midnightblue" stroke="midnightblue" points="79.7991,-95.8483 70.3262,-100.593 80.6905,-102.791 79.7991,-95.8483"/>
</g>
<!-- Node6 -->
<g id="node6" class="node"><title>Node6</title>
<g id="a_node6"><a xlink:href="group__juce__core-streams.html#classSubregionStream" target="_top" xlink:title="Wraps another input stream, and reads from a specific part of it. ">
<polygon fill="none" stroke="black" points="139,-38.5 139,-57.5 231,-57.5 231,-38.5 139,-38.5"/>
<text text-anchor="middle" x="185" y="-45.5" font-family="Helvetica,sans-Serif" font-size="10.00">SubregionStream</text>
</a>
</g>
</g>
<!-- Node1&#45;&gt;Node6 -->
<g id="edge5" class="edge"><title>Node1&#45;&gt;Node6</title>
<path fill="none" stroke="midnightblue" d="M59.905,-90.0169C73.1002,-82.2677 90.0122,-73.1669 106,-67 116.403,-62.9873 127.921,-59.6271 138.842,-56.9034"/>
<polygon fill="midnightblue" stroke="midnightblue" points="57.7866,-87.2066 51.0202,-95.3593 61.3938,-93.2056 57.7866,-87.2066"/>
</g>
<!-- Node7 -->
<g id="node7" class="node"><title>Node7</title>
<g id="a_node7"><a xlink:href="group__juce__core-network.html#classWebInputStream" target="_top" xlink:title="An InputStream which can be used to read from a given url. ">
<polygon fill="none" stroke="black" points="140,-0.5 140,-19.5 230,-19.5 230,-0.5 140,-0.5"/>
<text text-anchor="middle" x="185" y="-7.5" font-family="Helvetica,sans-Serif" font-size="10.00">WebInputStream</text>
</a>
</g>
</g>
<!-- Node1&#45;&gt;Node7 -->
<g id="edge6" class="edge"><title>Node1&#45;&gt;Node7</title>
<path fill="none" stroke="midnightblue" d="M47.6961,-87.1333C60.0882,-69.6503 81.2611,-43.5849 106,-29 116.205,-22.9833 128.233,-18.8675 139.747,-16.0534"/>
<polygon fill="midnightblue" stroke="midnightblue" points="44.8062,-85.1587 42.0438,-95.3871 50.5818,-89.1139 44.8062,-85.1587"/>
</g>
</g>
</svg>
