<?xml version="1.0" encoding="UTF-8" standalone="no"?>
<!DOCTYPE svg PUBLIC "-//W3C//DTD SVG 1.1//EN"
 "http://www.w3.org/Graphics/SVG/1.1/DTD/svg11.dtd">
<!-- Generated by graphviz version 2.36.0 (20140111.2315)
 -->
<!-- Title: FocusChangeListener Pages: 1 -->
<svg width="283pt" height="84pt"
 viewBox="0.00 0.00 283.00 84.00" xmlns="http://www.w3.org/2000/svg" xmlns:xlink="http://www.w3.org/1999/xlink">
<g id="graph0" class="graph" transform="scale(1 1) rotate(0) translate(4 80)">
<title>FocusChangeListener</title>
<!-- Node1 -->
<g id="node1" class="node"><title>Node1</title>
<polygon fill="#bfbfbf" stroke="black" points="90,-56.5 90,-75.5 202,-75.5 202,-56.5 90,-56.5"/>
<text text-anchor="middle" x="146" y="-63.5" font-family="Helvetica,sans-Serif" font-size="10.00">FocusChangeListener</text>
</g>
<!-- Node2 -->
<g id="node2" class="node"><title>Node2</title>
<g id="a_node2"><a xlink:href="group__juce__gui__basics-commands.html#classApplicationCommandManager" target="_top" xlink:title="One of these objects holds a list of all the commands your app can perform, and despatches these comm...">
<polygon fill="none" stroke="black" points="-0.5,-0.5 -0.5,-19.5 146.5,-19.5 146.5,-0.5 -0.5,-0.5"/>
<text text-anchor="middle" x="73" y="-7.5" font-family="Helvetica,sans-Serif" font-size="10.00">ApplicationCommandManager</text>
</a>
</g>
</g>
<!-- Node1&#45;&gt;Node2 -->
<g id="edge1" class="edge"><title>Node1&#45;&gt;Node2</title>
<path fill="none" stroke="#8b1a1a" d="M125.858,-50.1008C112.721,-40.3824 96.0179,-28.0269 84.9421,-19.8339"/>
<polygon fill="#8b1a1a" stroke="#8b1a1a" points="124.15,-53.1907 134.271,-56.324 128.313,-47.5631 124.15,-53.1907"/>
</g>
<!-- Node3 -->
<g id="node3" class="node"><title>Node3</title>
<g id="a_node3"><a xlink:href="group__juce__gui__basics-commands.html#classKeyPressMappingSet" target="_top" xlink:title="Manages and edits a list of keypresses, which it uses to invoke the appropriate command in an Applica...">
<polygon fill="none" stroke="black" points="164.5,-0.5 164.5,-19.5 275.5,-19.5 275.5,-0.5 164.5,-0.5"/>
<text text-anchor="middle" x="220" y="-7.5" font-family="Helvetica,sans-Serif" font-size="10.00">KeyPressMappingSet</text>
</a>
</g>
</g>
<!-- Node1&#45;&gt;Node3 -->
<g id="edge2" class="edge"><title>Node1&#45;&gt;Node3</title>
<path fill="none" stroke="#8b1a1a" d="M166.034,-50.3804C179.409,-40.6204 196.559,-28.1057 207.894,-19.8339"/>
<polygon fill="#8b1a1a" stroke="#8b1a1a" points="163.904,-47.602 157.889,-56.324 168.03,-53.2565 163.904,-47.602"/>
</g>
</g>
</svg>
