<?xml version="1.0" encoding="UTF-8" standalone="no"?>
<!DOCTYPE svg PUBLIC "-//W3C//DTD SVG 1.1//EN"
 "http://www.w3.org/Graphics/SVG/1.1/DTD/svg11.dtd">
<!-- Generated by graphviz version 2.36.0 (20140111.2315)
 -->
<!-- Title: juce::TableListBox Pages: 1 -->
<svg width="443pt" height="208pt"
 viewBox="0.00 0.00 443.00 208.00" xmlns="http://www.w3.org/2000/svg" xmlns:xlink="http://www.w3.org/1999/xlink">
<g id="graph0" class="graph" transform="scale(1 1) rotate(0) translate(4 204)">
<title>juce::TableListBox</title>
<!-- Node1 -->
<g id="node1" class="node"><title>Node1</title>
<polygon fill="#bfbfbf" stroke="black" points="172,-0.5 172,-19.5 270,-19.5 270,-0.5 172,-0.5"/>
<text text-anchor="middle" x="221" y="-7.5" font-family="Helvetica,sans-Serif" font-size="10.00">juce::TableListBox</text>
</g>
<!-- Node2 -->
<g id="node2" class="node"><title>Node2</title>
<g id="a_node2"><a xlink:href="classjuce_1_1ListBox.html" target="_top" xlink:title="A list of items that can be scrolled vertically. ">
<polygon fill="none" stroke="black" points="79,-62.5 79,-81.5 153,-81.5 153,-62.5 79,-62.5"/>
<text text-anchor="middle" x="116" y="-69.5" font-family="Helvetica,sans-Serif" font-size="10.00">juce::ListBox</text>
</a>
</g>
</g>
<!-- Node2&#45;&gt;Node1 -->
<g id="edge1" class="edge"><title>Node2&#45;&gt;Node1</title>
<path fill="none" stroke="midnightblue" d="M139.999,-57.2863C160.302,-45.6847 188.765,-29.4202 205.984,-19.5806"/>
<polygon fill="midnightblue" stroke="midnightblue" points="137.99,-54.4032 131.044,-62.4035 141.463,-60.4809 137.99,-54.4032"/>
</g>
<!-- Node3 -->
<g id="node3" class="node"><title>Node3</title>
<g id="a_node3"><a xlink:href="classjuce_1_1Component.html" target="_top" xlink:title="The base class for all JUCE user&#45;interface objects. ">
<polygon fill="none" stroke="black" points="6.5,-124.5 6.5,-143.5 97.5,-143.5 97.5,-124.5 6.5,-124.5"/>
<text text-anchor="middle" x="52" y="-131.5" font-family="Helvetica,sans-Serif" font-size="10.00">juce::Component</text>
</a>
</g>
</g>
<!-- Node3&#45;&gt;Node2 -->
<g id="edge2" class="edge"><title>Node3&#45;&gt;Node2</title>
<path fill="none" stroke="midnightblue" d="M68.5113,-117.521C80.713,-106.082 96.8742,-90.9305 106.847,-81.5806"/>
<polygon fill="midnightblue" stroke="midnightblue" points="66.0712,-115.011 61.1696,-124.403 70.8588,-120.117 66.0712,-115.011"/>
</g>
<!-- Node4 -->
<g id="node4" class="node"><title>Node4</title>
<g id="a_node4"><a xlink:href="classjuce_1_1MouseListener.html" target="_top" xlink:title="A MouseListener can be registered with a component to receive callbacks about mouse events that happe...">
<polygon fill="none" stroke="black" points="0,-180.5 0,-199.5 104,-199.5 104,-180.5 0,-180.5"/>
<text text-anchor="middle" x="52" y="-187.5" font-family="Helvetica,sans-Serif" font-size="10.00">juce::MouseListener</text>
</a>
</g>
</g>
<!-- Node4&#45;&gt;Node3 -->
<g id="edge3" class="edge"><title>Node4&#45;&gt;Node3</title>
<path fill="none" stroke="midnightblue" d="M52,-169.805C52,-160.91 52,-150.78 52,-143.751"/>
<polygon fill="midnightblue" stroke="midnightblue" points="48.5001,-170.083 52,-180.083 55.5001,-170.083 48.5001,-170.083"/>
</g>
<!-- Node5 -->
<g id="node5" class="node"><title>Node5</title>
<g id="a_node5"><a xlink:href="classjuce_1_1SettableTooltipClient.html" target="_top" xlink:title="An implementation of TooltipClient that stores the tooltip string and a method for changing it...">
<polygon fill="none" stroke="black" points="115.5,-124.5 115.5,-143.5 246.5,-143.5 246.5,-124.5 115.5,-124.5"/>
<text text-anchor="middle" x="181" y="-131.5" font-family="Helvetica,sans-Serif" font-size="10.00">juce::SettableTooltipClient</text>
</a>
</g>
</g>
<!-- Node5&#45;&gt;Node2 -->
<g id="edge4" class="edge"><title>Node5&#45;&gt;Node2</title>
<path fill="none" stroke="midnightblue" d="M164.231,-117.521C151.838,-106.082 135.425,-90.9305 125.296,-81.5806"/>
<polygon fill="midnightblue" stroke="midnightblue" points="161.965,-120.192 171.687,-124.403 166.713,-115.049 161.965,-120.192"/>
</g>
<!-- Node6 -->
<g id="node6" class="node"><title>Node6</title>
<g id="a_node6"><a xlink:href="classjuce_1_1TooltipClient.html" target="_top" xlink:title="Components that want to use pop&#45;up tooltips should implement this interface. ">
<polygon fill="none" stroke="black" points="133.5,-180.5 133.5,-199.5 228.5,-199.5 228.5,-180.5 133.5,-180.5"/>
<text text-anchor="middle" x="181" y="-187.5" font-family="Helvetica,sans-Serif" font-size="10.00">juce::TooltipClient</text>
</a>
</g>
</g>
<!-- Node6&#45;&gt;Node5 -->
<g id="edge5" class="edge"><title>Node6&#45;&gt;Node5</title>
<path fill="none" stroke="midnightblue" d="M181,-169.805C181,-160.91 181,-150.78 181,-143.751"/>
<polygon fill="midnightblue" stroke="midnightblue" points="177.5,-170.083 181,-180.083 184.5,-170.083 177.5,-170.083"/>
</g>
<!-- Node7 -->
<g id="node7" class="node"><title>Node7</title>
<g id="a_node7"><a xlink:href="classjuce_1_1ListBoxModel.html" target="_top" xlink:title="A subclass of this is used to drive a ListBox. ">
<polygon fill="none" stroke="black" points="171,-62.5 171,-81.5 271,-81.5 271,-62.5 171,-62.5"/>
<text text-anchor="middle" x="221" y="-69.5" font-family="Helvetica,sans-Serif" font-size="10.00">juce::ListBoxModel</text>
</a>
</g>
</g>
<!-- Node7&#45;&gt;Node1 -->
<g id="edge6" class="edge"><title>Node7&#45;&gt;Node1</title>
<path fill="none" stroke="#8b1a1a" d="M221,-52.1595C221,-41.2482 221,-28.04 221,-19.5806"/>
<polygon fill="#8b1a1a" stroke="#8b1a1a" points="217.5,-52.4034 221,-62.4035 224.5,-52.4035 217.5,-52.4034"/>
</g>
<!-- Node8 -->
<g id="node8" class="node"><title>Node8</title>
<g id="a_node8"><a xlink:href="classjuce_1_1TableHeaderComponent_1_1Listener.html" target="_top" xlink:title="Receives events from a TableHeaderComponent when columns are resized, moved, etc. ...">
<polygon fill="none" stroke="black" points="289,-57 289,-87 435,-87 435,-57 289,-57"/>
<text text-anchor="start" x="297" y="-75" font-family="Helvetica,sans-Serif" font-size="10.00">juce::TableHeaderComponent</text>
<text text-anchor="middle" x="362" y="-64" font-family="Helvetica,sans-Serif" font-size="10.00">::Listener</text>
</a>
</g>
</g>
<!-- Node8&#45;&gt;Node1 -->
<g id="edge7" class="edge"><title>Node8&#45;&gt;Node1</title>
<path fill="none" stroke="#8b1a1a" d="M319.679,-52.9909C293.695,-41.9342 261.6,-28.2765 241.21,-19.6"/>
<polygon fill="#8b1a1a" stroke="#8b1a1a" points="318.37,-56.2376 328.942,-56.9327 321.111,-49.7965 318.37,-56.2376"/>
</g>
</g>
</svg>
