<?xml version="1.0" encoding="UTF-8" standalone="no"?>
<!DOCTYPE svg PUBLIC "-//W3C//DTD SVG 1.1//EN"
 "http://www.w3.org/Graphics/SVG/1.1/DTD/svg11.dtd">
<!-- Generated by graphviz version 2.36.0 (20140111.2315)
 -->
<!-- Title: juce::FileFilter Pages: 1 -->
<svg width="285pt" height="84pt"
 viewBox="0.00 0.00 285.00 84.00" xmlns="http://www.w3.org/2000/svg" xmlns:xlink="http://www.w3.org/1999/xlink">
<g id="graph0" class="graph" transform="scale(1 1) rotate(0) translate(4 80)">
<title>juce::FileFilter</title>
<!-- Node1 -->
<g id="node1" class="node"><title>Node1</title>
<polygon fill="#bfbfbf" stroke="black" points="106,-56.5 106,-75.5 184,-75.5 184,-56.5 106,-56.5"/>
<text text-anchor="middle" x="145" y="-63.5" font-family="Helvetica,sans-Serif" font-size="10.00">juce::FileFilter</text>
</g>
<!-- Node2 -->
<g id="node2" class="node"><title>Node2</title>
<g id="a_node2"><a xlink:href="classjuce_1_1FileBrowserComponent.html" target="_top" xlink:title="A component for browsing and selecting a file or directory to open or save. ">
<polygon fill="none" stroke="black" points="-0.5,-0.5 -0.5,-19.5 142.5,-19.5 142.5,-0.5 -0.5,-0.5"/>
<text text-anchor="middle" x="71" y="-7.5" font-family="Helvetica,sans-Serif" font-size="10.00">juce::FileBrowserComponent</text>
</a>
</g>
</g>
<!-- Node1&#45;&gt;Node2 -->
<g id="edge1" class="edge"><title>Node1&#45;&gt;Node2</title>
<path fill="none" stroke="#8b1a1a" d="M124.966,-50.3804C111.591,-40.6204 94.4412,-28.1057 83.1057,-19.8339"/>
<polygon fill="#8b1a1a" stroke="#8b1a1a" points="122.97,-53.2565 133.111,-56.324 127.096,-47.602 122.97,-53.2565"/>
</g>
<!-- Node3 -->
<g id="node3" class="node"><title>Node3</title>
<g id="a_node3"><a xlink:href="classjuce_1_1WildcardFileFilter.html" target="_top" xlink:title="A type of FileFilter that works by wildcard pattern matching. ">
<polygon fill="none" stroke="black" points="161,-0.5 161,-19.5 277,-19.5 277,-0.5 161,-0.5"/>
<text text-anchor="middle" x="219" y="-7.5" font-family="Helvetica,sans-Serif" font-size="10.00">juce::WildcardFileFilter</text>
</a>
</g>
</g>
<!-- Node1&#45;&gt;Node3 -->
<g id="edge2" class="edge"><title>Node1&#45;&gt;Node3</title>
<path fill="none" stroke="midnightblue" d="M165.034,-50.3804C178.409,-40.6204 195.559,-28.1057 206.894,-19.8339"/>
<polygon fill="midnightblue" stroke="midnightblue" points="162.904,-47.602 156.889,-56.324 167.03,-53.2565 162.904,-47.602"/>
</g>
</g>
</svg>
