<?xml version="1.0" encoding="UTF-8" standalone="no"?>
<!DOCTYPE svg PUBLIC "-//W3C//DTD SVG 1.1//EN"
 "http://www.w3.org/Graphics/SVG/1.1/DTD/svg11.dtd">
<!-- Generated by graphviz version 2.36.0 (20140111.2315)
 -->
<!-- Title: AlertWindow Pages: 1 -->
<svg width="204pt" height="196pt"
 viewBox="0.00 0.00 204.00 196.00" xmlns="http://www.w3.org/2000/svg" xmlns:xlink="http://www.w3.org/1999/xlink">
<g id="graph0" class="graph" transform="scale(1 1) rotate(0) translate(4 192)">
<title>AlertWindow</title>
<!-- Node1 -->
<g id="node1" class="node"><title>Node1</title>
<polygon fill="#bfbfbf" stroke="black" points="63,-0.5 63,-19.5 135,-19.5 135,-0.5 63,-0.5"/>
<text text-anchor="middle" x="99" y="-7.5" font-family="Helvetica,sans-Serif" font-size="10.00">AlertWindow</text>
</g>
<!-- Node2 -->
<g id="node2" class="node"><title>Node2</title>
<g id="a_node2"><a xlink:href="classTopLevelWindow.html" target="_top" xlink:title="A base class for top&#45;level windows. ">
<polygon fill="none" stroke="black" points="0,-56.5 0,-75.5 92,-75.5 92,-56.5 0,-56.5"/>
<text text-anchor="middle" x="46" y="-63.5" font-family="Helvetica,sans-Serif" font-size="10.00">TopLevelWindow</text>
</a>
</g>
</g>
<!-- Node2&#45;&gt;Node1 -->
<g id="edge1" class="edge"><title>Node2&#45;&gt;Node1</title>
<path fill="none" stroke="midnightblue" d="M61.9809,-48.7175C71.3225,-39.1997 82.7459,-27.5608 90.411,-19.7511"/>
<polygon fill="midnightblue" stroke="midnightblue" points="59.2587,-46.4945 54.7519,-56.083 64.2545,-51.3978 59.2587,-46.4945"/>
</g>
<!-- Node3 -->
<g id="node3" class="node"><title>Node3</title>
<g id="a_node3"><a xlink:href="classComponent.html" target="_top" xlink:title="The base class for all JUCE user&#45;interface objects. ">
<polygon fill="none" stroke="black" points="12.5,-112.5 12.5,-131.5 79.5,-131.5 79.5,-112.5 12.5,-112.5"/>
<text text-anchor="middle" x="46" y="-119.5" font-family="Helvetica,sans-Serif" font-size="10.00">Component</text>
</a>
</g>
</g>
<!-- Node3&#45;&gt;Node2 -->
<g id="edge2" class="edge"><title>Node3&#45;&gt;Node2</title>
<path fill="none" stroke="midnightblue" d="M46,-101.805C46,-92.9102 46,-82.7798 46,-75.7511"/>
<polygon fill="midnightblue" stroke="midnightblue" points="42.5001,-102.083 46,-112.083 49.5001,-102.083 42.5001,-102.083"/>
</g>
<!-- Node4 -->
<g id="node4" class="node"><title>Node4</title>
<g id="a_node4"><a xlink:href="classMouseListener.html" target="_top" xlink:title="A MouseListener can be registered with a component to receive callbacks about mouse events that happe...">
<polygon fill="none" stroke="black" points="6,-168.5 6,-187.5 86,-187.5 86,-168.5 6,-168.5"/>
<text text-anchor="middle" x="46" y="-175.5" font-family="Helvetica,sans-Serif" font-size="10.00">MouseListener</text>
</a>
</g>
</g>
<!-- Node4&#45;&gt;Node3 -->
<g id="edge3" class="edge"><title>Node4&#45;&gt;Node3</title>
<path fill="none" stroke="midnightblue" d="M46,-157.805C46,-148.91 46,-138.78 46,-131.751"/>
<polygon fill="midnightblue" stroke="midnightblue" points="42.5001,-158.083 46,-168.083 49.5001,-158.083 42.5001,-158.083"/>
</g>
<!-- Node5 -->
<g id="node5" class="node"><title>Node5</title>
<g id="a_node5"><a xlink:href="classButton_1_1Listener.html" target="_top" xlink:title="Used to receive callbacks when a button is clicked. ">
<polygon fill="none" stroke="black" points="110,-56.5 110,-75.5 196,-75.5 196,-56.5 110,-56.5"/>
<text text-anchor="middle" x="153" y="-63.5" font-family="Helvetica,sans-Serif" font-size="10.00">Button::Listener</text>
</a>
</g>
</g>
<!-- Node5&#45;&gt;Node1 -->
<g id="edge4" class="edge"><title>Node5&#45;&gt;Node1</title>
<path fill="none" stroke="#8b1a1a" d="M137.002,-49.0024C127.433,-39.4329 115.639,-27.6389 107.751,-19.7511"/>
<polygon fill="#8b1a1a" stroke="#8b1a1a" points="134.537,-51.4868 144.083,-56.083 139.487,-46.537 134.537,-51.4868"/>
</g>
</g>
</svg>
