<?xml version="1.0" encoding="UTF-8" standalone="no"?>
<!DOCTYPE svg PUBLIC "-//W3C//DTD SVG 1.1//EN"
 "http://www.w3.org/Graphics/SVG/1.1/DTD/svg11.dtd">
<!-- Generated by graphviz version 2.36.0 (20140111.2315)
 -->
<!-- Title: DrawableShape::FillAndStrokeState Pages: 1 -->
<svg width="299pt" height="164pt"
 viewBox="0.00 0.00 299.00 164.00" xmlns="http://www.w3.org/2000/svg" xmlns:xlink="http://www.w3.org/1999/xlink">
<g id="graph0" class="graph" transform="scale(1 1) rotate(0) translate(4 160)">
<title>DrawableShape::FillAndStrokeState</title>
<!-- Node1 -->
<g id="node1" class="node"><title>Node1</title>
<polygon fill="#bfbfbf" stroke="black" points="84,-69 84,-99 234,-99 234,-69 84,-69"/>
<text text-anchor="start" x="92" y="-87" font-family="Helvetica,sans-Serif" font-size="10.00">DrawableShape::FillAndStroke</text>
<text text-anchor="middle" x="159" y="-76" font-family="Helvetica,sans-Serif" font-size="10.00">State</text>
</g>
<!-- Node3 -->
<g id="node3" class="node"><title>Node3</title>
<g id="a_node3"><a xlink:href="classDrawablePath_1_1ValueTreeWrapper.html" target="_top" xlink:title="Internally&#45;used class for wrapping a DrawablePath&#39;s state into a ValueTree. ">
<polygon fill="none" stroke="black" points="-0.5,-6.5 -0.5,-25.5 164.5,-25.5 164.5,-6.5 -0.5,-6.5"/>
<text text-anchor="middle" x="82" y="-13.5" font-family="Helvetica,sans-Serif" font-size="10.00">DrawablePath::ValueTreeWrapper</text>
</a>
</g>
</g>
<!-- Node1&#45;&gt;Node3 -->
<g id="edge2" class="edge"><title>Node1&#45;&gt;Node3</title>
<path fill="none" stroke="midnightblue" d="M134.327,-61.8517C120.11,-49.6656 102.992,-34.9929 92.2997,-25.8283"/>
<polygon fill="midnightblue" stroke="midnightblue" points="132.422,-64.8284 142.292,-68.679 136.977,-59.5136 132.422,-64.8284"/>
</g>
<!-- Node4 -->
<g id="node4" class="node"><title>Node4</title>
<g id="a_node4"><a xlink:href="classDrawableRectangle_1_1ValueTreeWrapper.html" target="_top" xlink:title="Internally&#45;used class for wrapping a DrawableRectangle&#39;s state into a ValueTree. ">
<polygon fill="none" stroke="black" points="183,-1 183,-31 291,-31 291,-1 183,-1"/>
<text text-anchor="start" x="191" y="-19" font-family="Helvetica,sans-Serif" font-size="10.00">DrawableRectangle::</text>
<text text-anchor="middle" x="237" y="-8" font-family="Helvetica,sans-Serif" font-size="10.00">ValueTreeWrapper</text>
</a>
</g>
</g>
<!-- Node1&#45;&gt;Node4 -->
<g id="edge3" class="edge"><title>Node1&#45;&gt;Node4</title>
<path fill="none" stroke="midnightblue" d="M183.796,-62.0184C195.737,-51.9145 209.736,-40.0696 220.376,-31.0663"/>
<polygon fill="midnightblue" stroke="midnightblue" points="181.298,-59.5477 175.925,-68.679 185.82,-64.8914 181.298,-59.5477"/>
</g>
<!-- Node2 -->
<g id="node2" class="node"><title>Node2</title>
<g id="a_node2"><a xlink:href="classDrawable_1_1ValueTreeWrapperBase.html" target="_top" xlink:title="Internal class used to manage ValueTrees that represent Drawables. ">
<polygon fill="none" stroke="black" points="75.5,-136.5 75.5,-155.5 242.5,-155.5 242.5,-136.5 75.5,-136.5"/>
<text text-anchor="middle" x="159" y="-143.5" font-family="Helvetica,sans-Serif" font-size="10.00">Drawable::ValueTreeWrapperBase</text>
</a>
</g>
</g>
<!-- Node2&#45;&gt;Node1 -->
<g id="edge1" class="edge"><title>Node2&#45;&gt;Node1</title>
<path fill="none" stroke="midnightblue" d="M159,-126.371C159,-117.585 159,-107.272 159,-99.1408"/>
<polygon fill="midnightblue" stroke="midnightblue" points="155.5,-126.403 159,-136.403 162.5,-126.403 155.5,-126.403"/>
</g>
</g>
</svg>
