<?xml version="1.0" encoding="UTF-8" standalone="no"?>
<!DOCTYPE svg PUBLIC "-//W3C//DTD SVG 1.1//EN"
 "http://www.w3.org/Graphics/SVG/1.1/DTD/svg11.dtd">
<!-- Generated by graphviz version 2.36.0 (20140111.2315)
 -->
<!-- Title: SingleThreadedReferenceCountedObject Pages: 1 -->
<svg width="331pt" height="96pt"
 viewBox="0.00 0.00 331.00 96.00" xmlns="http://www.w3.org/2000/svg" xmlns:xlink="http://www.w3.org/1999/xlink">
<g id="graph0" class="graph" transform="scale(1 1) rotate(0) translate(4 92)">
<title>SingleThreadedReferenceCountedObject</title>
<!-- Node1 -->
<g id="node1" class="node"><title>Node1</title>
<polygon fill="#bfbfbf" stroke="black" points="75,-57 75,-87 241,-87 241,-57 75,-57"/>
<text text-anchor="start" x="83" y="-75" font-family="Helvetica,sans-Serif" font-size="10.00">SingleThreadedReferenceCounted</text>
<text text-anchor="middle" x="158" y="-64" font-family="Helvetica,sans-Serif" font-size="10.00">Object</text>
</g>
<!-- Node2 -->
<g id="node2" class="node"><title>Node2</title>
<g id="a_node2"><a xlink:href="classPopupMenu_1_1CustomCallback.html" target="_top" xlink:title="A user&#45;defined callback that can be used for specific items in a popup menu. ">
<polygon fill="none" stroke="black" points="-0.5,-0.5 -0.5,-19.5 146.5,-19.5 146.5,-0.5 -0.5,-0.5"/>
<text text-anchor="middle" x="73" y="-7.5" font-family="Helvetica,sans-Serif" font-size="10.00">PopupMenu::CustomCallback</text>
</a>
</g>
</g>
<!-- Node1&#45;&gt;Node2 -->
<g id="edge1" class="edge"><title>Node1&#45;&gt;Node2</title>
<path fill="none" stroke="midnightblue" d="M129.351,-50.7773C114.281,-40.1395 96.602,-27.6602 85.1206,-19.5557"/>
<polygon fill="midnightblue" stroke="midnightblue" points="127.668,-53.8734 137.856,-56.7808 131.705,-48.1546 127.668,-53.8734"/>
</g>
<!-- Node3 -->
<g id="node3" class="node"><title>Node3</title>
<g id="a_node3"><a xlink:href="classPopupMenu_1_1CustomComponent.html" target="_top" xlink:title="A user&#45;defined component that can be used as an item in a popup menu. ">
<polygon fill="none" stroke="black" points="164.5,-0.5 164.5,-19.5 323.5,-19.5 323.5,-0.5 164.5,-0.5"/>
<text text-anchor="middle" x="244" y="-7.5" font-family="Helvetica,sans-Serif" font-size="10.00">PopupMenu::CustomComponent</text>
</a>
</g>
</g>
<!-- Node1&#45;&gt;Node3 -->
<g id="edge2" class="edge"><title>Node1&#45;&gt;Node3</title>
<path fill="none" stroke="midnightblue" d="M186.986,-50.7773C202.233,-40.1395 220.12,-27.6602 231.737,-19.5557"/>
<polygon fill="midnightblue" stroke="midnightblue" points="184.579,-48.1885 178.381,-56.7808 188.585,-53.9294 184.579,-48.1885"/>
</g>
</g>
</svg>
