<?xml version="1.0" encoding="UTF-8" standalone="no"?>
<!DOCTYPE svg PUBLIC "-//W3C//DTD SVG 1.1//EN"
 "http://www.w3.org/Graphics/SVG/1.1/DTD/svg11.dtd">
<!-- Generated by graphviz version 2.36.0 (20140111.2315)
 -->
<!-- Title: juce::ReferenceCountedObject Pages: 1 -->
<svg width="540pt" height="393pt"
 viewBox="0.00 0.00 540.00 393.00" xmlns="http://www.w3.org/2000/svg" xmlns:xlink="http://www.w3.org/1999/xlink">
<g id="graph0" class="graph" transform="scale(1 1) rotate(0) translate(4 389)">
<title>juce::ReferenceCountedObject</title>
<!-- Node1 -->
<g id="node1" class="node"><title>Node1</title>
<polygon fill="#bfbfbf" stroke="black" points="0.5,-183.5 0.5,-202.5 151.5,-202.5 151.5,-183.5 0.5,-183.5"/>
<text text-anchor="middle" x="76" y="-190.5" font-family="Helvetica,sans-Serif" font-size="10.00">juce::ReferenceCountedObject</text>
</g>
<!-- Node2 -->
<g id="node2" class="node"><title>Node2</title>
<g id="a_node2"><a xlink:href="classjuce_1_1AudioProcessorGraph_1_1Node.html" target="_top" xlink:title="Represents one of the nodes, or processors, in an AudioProcessorGraph. ">
<polygon fill="none" stroke="black" points="188,-355 188,-385 324,-385 324,-355 188,-355"/>
<text text-anchor="start" x="196" y="-373" font-family="Helvetica,sans-Serif" font-size="10.00">juce::AudioProcessorGraph</text>
<text text-anchor="middle" x="256" y="-362" font-family="Helvetica,sans-Serif" font-size="10.00">::Node</text>
</a>
</g>
</g>
<!-- Node1&#45;&gt;Node2 -->
<g id="edge1" class="edge"><title>Node1&#45;&gt;Node2</title>
<path fill="none" stroke="midnightblue" d="M86.0528,-211.78C102.251,-243.526 139.124,-307.953 188,-345 193.046,-348.825 198.741,-352.118 204.625,-354.939"/>
<polygon fill="midnightblue" stroke="midnightblue" points="89.1209,-210.089 81.5309,-202.697 82.8545,-213.209 89.1209,-210.089"/>
</g>
<!-- Node3 -->
<g id="node3" class="node"><title>Node3</title>
<g id="a_node3"><a xlink:href="classjuce_1_1Block.html" target="_top" xlink:title="Represents an individual BLOCKS device. ">
<polygon fill="none" stroke="black" points="223.5,-316.5 223.5,-335.5 288.5,-335.5 288.5,-316.5 223.5,-316.5"/>
<text text-anchor="middle" x="256" y="-323.5" font-family="Helvetica,sans-Serif" font-size="10.00">juce::Block</text>
</a>
</g>
</g>
<!-- Node1&#45;&gt;Node3 -->
<g id="edge2" class="edge"><title>Node1&#45;&gt;Node3</title>
<path fill="none" stroke="midnightblue" d="M89.5528,-210.858C108.174,-236.027 145.523,-281.68 188,-307 198.697,-313.376 211.632,-317.697 223.273,-320.585"/>
<polygon fill="midnightblue" stroke="midnightblue" points="92.2644,-208.635 83.5647,-202.588 86.5946,-212.741 92.2644,-208.635"/>
</g>
<!-- Node4 -->
<g id="node4" class="node"><title>Node4</title>
<g id="a_node4"><a xlink:href="structjuce_1_1dsp_1_1ProcessorState.html" target="_top" xlink:title="This is a handy base class for the state of a processor (such as parameter values) which is typically...">
<polygon fill="none" stroke="black" points="191,-278.5 191,-297.5 321,-297.5 321,-278.5 191,-278.5"/>
<text text-anchor="middle" x="256" y="-285.5" font-family="Helvetica,sans-Serif" font-size="10.00">juce::dsp::ProcessorState</text>
</a>
</g>
</g>
<!-- Node1&#45;&gt;Node4 -->
<g id="edge3" class="edge"><title>Node1&#45;&gt;Node4</title>
<path fill="none" stroke="midnightblue" d="M96.1281,-208.982C117.363,-226.009 153.244,-252.708 188,-269 195.992,-272.746 204.874,-275.901 213.488,-278.497"/>
<polygon fill="midnightblue" stroke="midnightblue" points="98.1905,-206.148 88.2262,-202.547 93.7704,-211.576 98.1905,-206.148"/>
</g>
<!-- Node8 -->
<g id="node8" class="node"><title>Node8</title>
<g id="a_node8"><a xlink:href="classjuce_1_1DynamicObject.html" target="_top" xlink:title="Represents a dynamically implemented object. ">
<polygon fill="none" stroke="black" points="202,-240.5 202,-259.5 310,-259.5 310,-240.5 202,-240.5"/>
<text text-anchor="middle" x="256" y="-247.5" font-family="Helvetica,sans-Serif" font-size="10.00">juce::DynamicObject</text>
</a>
</g>
</g>
<!-- Node1&#45;&gt;Node8 -->
<g id="edge7" class="edge"><title>Node1&#45;&gt;Node8</title>
<path fill="none" stroke="midnightblue" d="M113.228,-205.95C134.841,-213.539 162.881,-223.145 188,-231 198.386,-234.248 209.75,-237.56 220.121,-240.491"/>
<polygon fill="midnightblue" stroke="midnightblue" points="114.378,-202.644 103.783,-202.619 112.05,-209.246 114.378,-202.644"/>
</g>
<!-- Node9 -->
<g id="node9" class="node"><title>Node9</title>
<g id="a_node9"><a xlink:href="classjuce_1_1ImagePixelData.html" target="_top" xlink:title="This is a base class for holding image data in implementation&#45;specific ways. ">
<polygon fill="none" stroke="black" points="201,-202.5 201,-221.5 311,-221.5 311,-202.5 201,-202.5"/>
<text text-anchor="middle" x="256" y="-209.5" font-family="Helvetica,sans-Serif" font-size="10.00">juce::ImagePixelData</text>
</a>
</g>
</g>
<!-- Node1&#45;&gt;Node9 -->
<g id="edge8" class="edge"><title>Node1&#45;&gt;Node9</title>
<path fill="none" stroke="midnightblue" d="M161.807,-202.052C175.063,-203.467 188.444,-204.896 200.768,-206.211"/>
<polygon fill="midnightblue" stroke="midnightblue" points="162.029,-198.556 151.714,-200.975 161.286,-205.517 162.029,-198.556"/>
</g>
<!-- Node10 -->
<g id="node10" class="node"><title>Node10</title>
<g id="a_node10"><a xlink:href="structjuce_1_1LEDGrid_1_1Renderer.html" target="_top" xlink:title="juce::LEDGrid::Renderer">
<polygon fill="none" stroke="black" points="194,-164.5 194,-183.5 318,-183.5 318,-164.5 194,-164.5"/>
<text text-anchor="middle" x="256" y="-171.5" font-family="Helvetica,sans-Serif" font-size="10.00">juce::LEDGrid::Renderer</text>
</a>
</g>
</g>
<!-- Node1&#45;&gt;Node10 -->
<g id="edge9" class="edge"><title>Node1&#45;&gt;Node10</title>
<path fill="none" stroke="midnightblue" d="M161.677,-183.961C172.572,-182.799 183.553,-181.626 193.966,-180.515"/>
<polygon fill="midnightblue" stroke="midnightblue" points="161.286,-180.483 151.714,-185.025 162.029,-187.444 161.286,-180.483"/>
</g>
<!-- Node11 -->
<g id="node11" class="node"><title>Node11</title>
<g id="a_node11"><a xlink:href="classjuce_1_1MessageManager_1_1MessageBase.html" target="_top" xlink:title="Internal class used as the base class for all message objects. ">
<polygon fill="none" stroke="black" points="197,-115 197,-145 315,-145 315,-115 197,-115"/>
<text text-anchor="start" x="205" y="-133" font-family="Helvetica,sans-Serif" font-size="10.00">juce::MessageManager</text>
<text text-anchor="middle" x="256" y="-122" font-family="Helvetica,sans-Serif" font-size="10.00">::MessageBase</text>
</a>
</g>
</g>
<!-- Node1&#45;&gt;Node11 -->
<g id="edge10" class="edge"><title>Node1&#45;&gt;Node11</title>
<path fill="none" stroke="midnightblue" d="M113.681,-180.017C142.38,-169.86 182.33,-155.72 212.435,-145.065"/>
<polygon fill="midnightblue" stroke="midnightblue" points="112.294,-176.796 104.034,-183.432 114.629,-183.395 112.294,-176.796"/>
</g>
<!-- Node14 -->
<g id="node14" class="node"><title>Node14</title>
<g id="a_node14"><a xlink:href="classjuce_1_1SynthesiserSound.html" target="_top" xlink:title="Describes one of the sounds that a Synthesiser can play. ">
<polygon fill="none" stroke="black" points="196,-76.5 196,-95.5 316,-95.5 316,-76.5 196,-76.5"/>
<text text-anchor="middle" x="256" y="-83.5" font-family="Helvetica,sans-Serif" font-size="10.00">juce::SynthesiserSound</text>
</a>
</g>
</g>
<!-- Node1&#45;&gt;Node14 -->
<g id="edge13" class="edge"><title>Node1&#45;&gt;Node14</title>
<path fill="none" stroke="midnightblue" d="M93.7471,-176.157C114.267,-156.419 150.899,-124.002 188,-105 195.425,-101.197 203.715,-98.0638 211.864,-95.5156"/>
<polygon fill="midnightblue" stroke="midnightblue" points="91.1621,-173.79 86.4639,-183.286 96.0586,-178.792 91.1621,-173.79"/>
</g>
<!-- Node16 -->
<g id="node16" class="node"><title>Node16</title>
<g id="a_node16"><a xlink:href="classjuce_1_1Typeface.html" target="_top" xlink:title="A typeface represents a size&#45;independent font. ">
<polygon fill="none" stroke="black" points="215.5,-38.5 215.5,-57.5 296.5,-57.5 296.5,-38.5 215.5,-38.5"/>
<text text-anchor="middle" x="256" y="-45.5" font-family="Helvetica,sans-Serif" font-size="10.00">juce::Typeface</text>
</a>
</g>
</g>
<!-- Node1&#45;&gt;Node16 -->
<g id="edge15" class="edge"><title>Node1&#45;&gt;Node16</title>
<path fill="none" stroke="midnightblue" d="M88.0702,-174.814C105.751,-147.318 142.997,-95.3697 188,-67 196.285,-61.7774 206.034,-57.9576 215.492,-55.1757"/>
<polygon fill="midnightblue" stroke="midnightblue" points="85.0064,-173.112 82.6517,-183.441 90.9343,-176.835 85.0064,-173.112"/>
</g>
<!-- Node18 -->
<g id="node18" class="node"><title>Node18</title>
<g id="a_node18"><a xlink:href="classjuce_1_1Value_1_1ValueSource.html" target="_top" xlink:title="Used internally by the Value class as the base class for its shared value objects. ">
<polygon fill="none" stroke="black" points="192.5,-0.5 192.5,-19.5 319.5,-19.5 319.5,-0.5 192.5,-0.5"/>
<text text-anchor="middle" x="256" y="-7.5" font-family="Helvetica,sans-Serif" font-size="10.00">juce::Value::ValueSource</text>
</a>
</g>
</g>
<!-- Node1&#45;&gt;Node18 -->
<g id="edge17" class="edge"><title>Node1&#45;&gt;Node18</title>
<path fill="none" stroke="midnightblue" d="M84.7014,-173.721C99.4455,-139.311 134.979,-67.3395 188,-29 193.389,-25.1035 199.554,-22.0043 205.915,-19.5396"/>
<polygon fill="midnightblue" stroke="midnightblue" points="81.4029,-172.538 80.7967,-183.115 87.8668,-175.225 81.4029,-172.538"/>
</g>
<!-- Node5 -->
<g id="node5" class="node"><title>Node5</title>
<g id="a_node5"><a xlink:href="structjuce_1_1dsp_1_1FIR_1_1Coefficients.html" target="_top" xlink:title="A set of coefficients for use in an FIRFilter object. ">
<polygon fill="none" stroke="black" points="377.5,-322 377.5,-352 514.5,-352 514.5,-322 377.5,-322"/>
<text text-anchor="start" x="385.5" y="-340" font-family="Helvetica,sans-Serif" font-size="10.00">juce::dsp::FIR::Coefficients</text>
<text text-anchor="middle" x="446" y="-329" font-family="Helvetica,sans-Serif" font-size="10.00">&lt; NumericType &gt;</text>
</a>
</g>
</g>
<!-- Node4&#45;&gt;Node5 -->
<g id="edge4" class="edge"><title>Node4&#45;&gt;Node5</title>
<path fill="none" stroke="midnightblue" d="M303.431,-300.102C328.777,-306.708 360.389,-314.947 387.307,-321.963"/>
<polygon fill="midnightblue" stroke="midnightblue" points="304.254,-296.699 293.695,-297.564 302.489,-303.473 304.254,-296.699"/>
</g>
<!-- Node6 -->
<g id="node6" class="node"><title>Node6</title>
<g id="a_node6"><a xlink:href="structjuce_1_1dsp_1_1IIR_1_1Coefficients.html" target="_top" xlink:title="A set of coefficients for use in an Filter object. ">
<polygon fill="none" stroke="black" points="379,-273 379,-303 513,-303 513,-273 379,-273"/>
<text text-anchor="start" x="387" y="-291" font-family="Helvetica,sans-Serif" font-size="10.00">juce::dsp::IIR::Coefficients</text>
<text text-anchor="middle" x="446" y="-280" font-family="Helvetica,sans-Serif" font-size="10.00">&lt; NumericType &gt;</text>
</a>
</g>
</g>
<!-- Node4&#45;&gt;Node6 -->
<g id="edge5" class="edge"><title>Node4&#45;&gt;Node6</title>
<path fill="none" stroke="midnightblue" d="M331.357,-288C347.051,-288 363.51,-288 378.876,-288"/>
<polygon fill="midnightblue" stroke="midnightblue" points="331.173,-284.5 321.173,-288 331.173,-291.5 331.173,-284.5"/>
</g>
<!-- Node7 -->
<g id="node7" class="node"><title>Node7</title>
<g id="a_node7"><a xlink:href="structjuce_1_1dsp_1_1StateVariableFilter_1_1Parameters.html" target="_top" xlink:title="juce::dsp::StateVariable\lFilter::Parameters\&lt; NumericType \&gt;">
<polygon fill="none" stroke="black" points="360.5,-224 360.5,-254 531.5,-254 531.5,-224 360.5,-224"/>
<text text-anchor="start" x="368.5" y="-242" font-family="Helvetica,sans-Serif" font-size="10.00">juce::dsp::StateVariable</text>
<text text-anchor="middle" x="446" y="-231" font-family="Helvetica,sans-Serif" font-size="10.00">Filter::Parameters&lt; NumericType &gt;</text>
</a>
</g>
</g>
<!-- Node4&#45;&gt;Node7 -->
<g id="edge6" class="edge"><title>Node4&#45;&gt;Node7</title>
<path fill="none" stroke="midnightblue" d="M303.431,-275.898C328.777,-269.292 360.389,-261.053 387.307,-254.037"/>
<polygon fill="midnightblue" stroke="midnightblue" points="302.489,-272.527 293.695,-278.436 304.254,-279.301 302.489,-272.527"/>
</g>
<!-- Node12 -->
<g id="node12" class="node"><title>Node12</title>
<g id="a_node12"><a xlink:href="classjuce_1_1CallbackMessage.html" target="_top" xlink:title="A message that invokes a callback method when it gets delivered. ">
<polygon fill="none" stroke="black" points="386.5,-155.5 386.5,-174.5 505.5,-174.5 505.5,-155.5 386.5,-155.5"/>
<text text-anchor="middle" x="446" y="-162.5" font-family="Helvetica,sans-Serif" font-size="10.00">juce::CallbackMessage</text>
</a>
</g>
</g>
<!-- Node11&#45;&gt;Node12 -->
<g id="edge11" class="edge"><title>Node11&#45;&gt;Node12</title>
<path fill="none" stroke="midnightblue" d="M325.095,-142.677C347.755,-146.896 372.595,-151.52 393.759,-155.46"/>
<polygon fill="midnightblue" stroke="midnightblue" points="325.669,-139.224 315.197,-140.835 324.387,-146.106 325.669,-139.224"/>
</g>
<!-- Node13 -->
<g id="node13" class="node"><title>Node13</title>
<g id="a_node13"><a xlink:href="classjuce_1_1Message.html" target="_top" xlink:title="The base class for objects that can be sent to a MessageListener. ">
<polygon fill="none" stroke="black" points="406,-117.5 406,-136.5 486,-136.5 486,-117.5 406,-117.5"/>
<text text-anchor="middle" x="446" y="-124.5" font-family="Helvetica,sans-Serif" font-size="10.00">juce::Message</text>
</a>
</g>
</g>
<!-- Node11&#45;&gt;Node13 -->
<g id="edge12" class="edge"><title>Node11&#45;&gt;Node13</title>
<path fill="none" stroke="midnightblue" d="M325.393,-128.909C352.443,-128.477 382.555,-127.996 405.799,-127.626"/>
<polygon fill="midnightblue" stroke="midnightblue" points="325.14,-125.412 315.197,-129.071 325.251,-132.411 325.14,-125.412"/>
</g>
<!-- Node15 -->
<g id="node15" class="node"><title>Node15</title>
<g id="a_node15"><a xlink:href="classjuce_1_1SamplerSound.html" target="_top" xlink:title="A subclass of SynthesiserSound that represents a sampled audio clip. ">
<polygon fill="none" stroke="black" points="394,-76.5 394,-95.5 498,-95.5 498,-76.5 394,-76.5"/>
<text text-anchor="middle" x="446" y="-83.5" font-family="Helvetica,sans-Serif" font-size="10.00">juce::SamplerSound</text>
</a>
</g>
</g>
<!-- Node14&#45;&gt;Node15 -->
<g id="edge14" class="edge"><title>Node14&#45;&gt;Node15</title>
<path fill="none" stroke="midnightblue" d="M326.357,-86C348.757,-86 373.167,-86 393.989,-86"/>
<polygon fill="midnightblue" stroke="midnightblue" points="326.226,-82.5001 316.226,-86 326.226,-89.5001 326.226,-82.5001"/>
</g>
<!-- Node17 -->
<g id="node17" class="node"><title>Node17</title>
<g id="a_node17"><a xlink:href="classjuce_1_1CustomTypeface.html" target="_top" xlink:title="A typeface that can be populated with custom glyphs. ">
<polygon fill="none" stroke="black" points="388,-38.5 388,-57.5 504,-57.5 504,-38.5 388,-38.5"/>
<text text-anchor="middle" x="446" y="-45.5" font-family="Helvetica,sans-Serif" font-size="10.00">juce::CustomTypeface</text>
</a>
</g>
</g>
<!-- Node16&#45;&gt;Node17 -->
<g id="edge16" class="edge"><title>Node16&#45;&gt;Node17</title>
<path fill="none" stroke="midnightblue" d="M307.15,-48C331.952,-48 362.003,-48 387.708,-48"/>
<polygon fill="midnightblue" stroke="midnightblue" points="306.87,-44.5001 296.87,-48 306.87,-51.5001 306.87,-44.5001"/>
</g>
</g>
</svg>
