<?xml version="1.0" encoding="UTF-8" standalone="no"?>
<!DOCTYPE svg PUBLIC "-//W3C//DTD SVG 1.1//EN"
 "http://www.w3.org/Graphics/SVG/1.1/DTD/svg11.dtd">
<!-- Generated by graphviz version 2.36.0 (20140111.2315)
 -->
<!-- Title: DirectoryContentsDisplayComponent Pages: 1 -->
<svg width="226pt" height="96pt"
 viewBox="0.00 0.00 226.00 96.00" xmlns="http://www.w3.org/2000/svg" xmlns:xlink="http://www.w3.org/1999/xlink">
<g id="graph0" class="graph" transform="scale(1 1) rotate(0) translate(4 92)">
<title>DirectoryContentsDisplayComponent</title>
<!-- Node1 -->
<g id="node1" class="node"><title>Node1</title>
<polygon fill="#bfbfbf" stroke="black" points="43.5,-57 43.5,-87 172.5,-87 172.5,-57 43.5,-57"/>
<text text-anchor="start" x="51.5" y="-75" font-family="Helvetica,sans-Serif" font-size="10.00">DirectoryContentsDisplay</text>
<text text-anchor="middle" x="108" y="-64" font-family="Helvetica,sans-Serif" font-size="10.00">Component</text>
</g>
<!-- Node2 -->
<g id="node2" class="node"><title>Node2</title>
<g id="a_node2"><a xlink:href="group__juce__gui__basics-filebrowser.html#classFileListComponent" target="_top" xlink:title="A component that displays the files in a directory as a listbox. ">
<polygon fill="none" stroke="black" points="0,-0.5 0,-19.5 98,-19.5 98,-0.5 0,-0.5"/>
<text text-anchor="middle" x="49" y="-7.5" font-family="Helvetica,sans-Serif" font-size="10.00">FileListComponent</text>
</a>
</g>
</g>
<!-- Node1&#45;&gt;Node2 -->
<g id="edge1" class="edge"><title>Node1&#45;&gt;Node2</title>
<path fill="none" stroke="midnightblue" d="M86.9783,-49.622C76.8521,-39.3242 65.2693,-27.5451 57.585,-19.7305"/>
<polygon fill="midnightblue" stroke="midnightblue" points="84.5108,-52.1046 94.0178,-56.7808 89.502,-47.1966 84.5108,-52.1046"/>
</g>
<!-- Node3 -->
<g id="node3" class="node"><title>Node3</title>
<g id="a_node3"><a xlink:href="group__juce__gui__basics-filebrowser.html#classFileTreeComponent" target="_top" xlink:title="A component that displays the files in a directory as a treeview. ">
<polygon fill="none" stroke="black" points="116,-0.5 116,-19.5 218,-19.5 218,-0.5 116,-0.5"/>
<text text-anchor="middle" x="167" y="-7.5" font-family="Helvetica,sans-Serif" font-size="10.00">FileTreeComponent</text>
</a>
</g>
</g>
<!-- Node1&#45;&gt;Node3 -->
<g id="edge2" class="edge"><title>Node1&#45;&gt;Node3</title>
<path fill="none" stroke="midnightblue" d="M129.022,-49.622C139.148,-39.3242 150.731,-27.5451 158.415,-19.7305"/>
<polygon fill="midnightblue" stroke="midnightblue" points="126.498,-47.1966 121.982,-56.7808 131.489,-52.1046 126.498,-47.1966"/>
</g>
</g>
</svg>
