<?xml version="1.0" encoding="UTF-8" standalone="no"?>
<!DOCTYPE svg PUBLIC "-//W3C//DTD SVG 1.1//EN"
 "http://www.w3.org/Graphics/SVG/1.1/DTD/svg11.dtd">
<!-- Generated by graphviz version 2.36.0 (20140111.2315)
 -->
<!-- Title: juce::FileTreeComponent Pages: 1 -->
<svg width="644pt" height="142pt"
 viewBox="0.00 0.00 644.00 142.00" xmlns="http://www.w3.org/2000/svg" xmlns:xlink="http://www.w3.org/1999/xlink">
<g id="graph0" class="graph" transform="scale(1 1) rotate(0) translate(4 138)">
<title>juce::FileTreeComponent</title>
<!-- Node1 -->
<g id="node1" class="node"><title>Node1</title>
<polygon fill="#bfbfbf" stroke="black" points="510,-35.5 510,-54.5 636,-54.5 636,-35.5 510,-35.5"/>
<text text-anchor="middle" x="573" y="-42.5" font-family="Helvetica,sans-Serif" font-size="10.00">juce::FileTreeComponent</text>
</g>
<!-- Node2 -->
<g id="node2" class="node"><title>Node2</title>
<g id="a_node2"><a xlink:href="classjuce_1_1TreeView.html" target="_top" xlink:title="A tree&#45;view component. ">
<polygon fill="none" stroke="black" points="356,-57.5 356,-76.5 438,-76.5 438,-57.5 356,-57.5"/>
<text text-anchor="middle" x="397" y="-64.5" font-family="Helvetica,sans-Serif" font-size="10.00">juce::TreeView</text>
</a>
</g>
</g>
<!-- Node2&#45;&gt;Node1 -->
<g id="edge1" class="edge"><title>Node2&#45;&gt;Node1</title>
<path fill="none" stroke="midnightblue" d="M448.374,-60.6308C467.527,-58.2092 489.577,-55.4212 509.704,-52.8765"/>
<polygon fill="midnightblue" stroke="midnightblue" points="447.838,-57.1706 438.356,-61.8975 448.717,-64.1153 447.838,-57.1706"/>
</g>
<!-- Node3 -->
<g id="node3" class="node"><title>Node3</title>
<g id="a_node3"><a xlink:href="classjuce_1_1Component.html" target="_top" xlink:title="The base class for all JUCE user&#45;interface objects. ">
<polygon fill="none" stroke="black" points="166.5,-114.5 166.5,-133.5 257.5,-133.5 257.5,-114.5 166.5,-114.5"/>
<text text-anchor="middle" x="212" y="-121.5" font-family="Helvetica,sans-Serif" font-size="10.00">juce::Component</text>
</a>
</g>
</g>
<!-- Node3&#45;&gt;Node2 -->
<g id="edge2" class="edge"><title>Node3&#45;&gt;Node2</title>
<path fill="none" stroke="midnightblue" d="M260.259,-111.817C268.21,-109.635 276.358,-107.316 284,-105 313.476,-96.0663 346.862,-84.5555 369.456,-76.5548"/>
<polygon fill="midnightblue" stroke="midnightblue" points="259.087,-108.509 250.347,-114.498 260.914,-115.266 259.087,-108.509"/>
</g>
<!-- Node4 -->
<g id="node4" class="node"><title>Node4</title>
<g id="a_node4"><a xlink:href="classjuce_1_1MouseListener.html" target="_top" xlink:title="A MouseListener can be registered with a component to receive callbacks about mouse events that happe...">
<polygon fill="none" stroke="black" points="0,-114.5 0,-133.5 104,-133.5 104,-114.5 0,-114.5"/>
<text text-anchor="middle" x="52" y="-121.5" font-family="Helvetica,sans-Serif" font-size="10.00">juce::MouseListener</text>
</a>
</g>
</g>
<!-- Node4&#45;&gt;Node3 -->
<g id="edge3" class="edge"><title>Node4&#45;&gt;Node3</title>
<path fill="none" stroke="midnightblue" d="M114.336,-124C131.664,-124 150.188,-124 166.336,-124"/>
<polygon fill="midnightblue" stroke="midnightblue" points="114.298,-120.5 104.298,-124 114.298,-127.5 114.298,-120.5"/>
</g>
<!-- Node5 -->
<g id="node5" class="node"><title>Node5</title>
<g id="a_node5"><a xlink:href="classjuce_1_1SettableTooltipClient.html" target="_top" xlink:title="An implementation of TooltipClient that stores the tooltip string and a method for changing it...">
<polygon fill="none" stroke="black" points="146.5,-76.5 146.5,-95.5 277.5,-95.5 277.5,-76.5 146.5,-76.5"/>
<text text-anchor="middle" x="212" y="-83.5" font-family="Helvetica,sans-Serif" font-size="10.00">juce::SettableTooltipClient</text>
</a>
</g>
</g>
<!-- Node5&#45;&gt;Node2 -->
<g id="edge4" class="edge"><title>Node5&#45;&gt;Node2</title>
<path fill="none" stroke="midnightblue" d="M287.767,-78.2373C311.12,-75.8126 335.979,-73.2317 355.976,-71.1555"/>
<polygon fill="midnightblue" stroke="midnightblue" points="287.104,-74.7872 277.519,-79.3013 287.827,-81.7498 287.104,-74.7872"/>
</g>
<!-- Node6 -->
<g id="node6" class="node"><title>Node6</title>
<g id="a_node6"><a xlink:href="classjuce_1_1TooltipClient.html" target="_top" xlink:title="Components that want to use pop&#45;up tooltips should implement this interface. ">
<polygon fill="none" stroke="black" points="4.5,-76.5 4.5,-95.5 99.5,-95.5 99.5,-76.5 4.5,-76.5"/>
<text text-anchor="middle" x="52" y="-83.5" font-family="Helvetica,sans-Serif" font-size="10.00">juce::TooltipClient</text>
</a>
</g>
</g>
<!-- Node6&#45;&gt;Node5 -->
<g id="edge5" class="edge"><title>Node6&#45;&gt;Node5</title>
<path fill="none" stroke="midnightblue" d="M109.759,-86C121.624,-86 134.217,-86 146.344,-86"/>
<polygon fill="midnightblue" stroke="midnightblue" points="109.551,-82.5001 99.5506,-86 109.551,-89.5001 109.551,-82.5001"/>
</g>
<!-- Node7 -->
<g id="node7" class="node"><title>Node7</title>
<g id="a_node7"><a xlink:href="classjuce_1_1FileDragAndDropTarget.html" target="_top" xlink:title="Components derived from this class can have files dropped onto them by an external application...">
<polygon fill="none" stroke="black" points="140.5,-38.5 140.5,-57.5 283.5,-57.5 283.5,-38.5 140.5,-38.5"/>
<text text-anchor="middle" x="212" y="-45.5" font-family="Helvetica,sans-Serif" font-size="10.00">juce::FileDragAndDropTarget</text>
</a>
</g>
</g>
<!-- Node7&#45;&gt;Node2 -->
<g id="edge6" class="edge"><title>Node7&#45;&gt;Node2</title>
<path fill="none" stroke="midnightblue" d="M293.875,-56.3968C315.345,-58.626 337.607,-60.9373 355.844,-62.8308"/>
<polygon fill="midnightblue" stroke="midnightblue" points="294.061,-52.8974 283.753,-55.3459 293.338,-59.86 294.061,-52.8974"/>
</g>
<!-- Node8 -->
<g id="node8" class="node"><title>Node8</title>
<g id="a_node8"><a xlink:href="classjuce_1_1DragAndDropTarget.html" target="_top" xlink:title="Components derived from this class can have things dropped onto them by a DragAndDropContainer. ">
<polygon fill="none" stroke="black" points="148,-0.5 148,-19.5 276,-19.5 276,-0.5 148,-0.5"/>
<text text-anchor="middle" x="212" y="-7.5" font-family="Helvetica,sans-Serif" font-size="10.00">juce::DragAndDropTarget</text>
</a>
</g>
</g>
<!-- Node8&#45;&gt;Node2 -->
<g id="edge7" class="edge"><title>Node8&#45;&gt;Node2</title>
<path fill="none" stroke="midnightblue" d="M264.173,-22.3605C270.909,-24.3751 277.667,-26.5979 284,-29 300.726,-35.3446 303.261,-40.6902 320,-47 331.362,-51.2831 344.01,-55.0055 355.676,-58.0392"/>
<polygon fill="midnightblue" stroke="midnightblue" points="264.949,-18.9423 254.372,-19.5612 263.026,-25.6731 264.949,-18.9423"/>
</g>
<!-- Node9 -->
<g id="node9" class="node"><title>Node9</title>
<g id="a_node9"><a xlink:href="classjuce_1_1DirectoryContentsDisplayComponent.html" target="_top" xlink:title="A base class for components that display a list of the files in a directory. ">
<polygon fill="none" stroke="black" points="320.5,-8 320.5,-38 473.5,-38 473.5,-8 320.5,-8"/>
<text text-anchor="start" x="328.5" y="-26" font-family="Helvetica,sans-Serif" font-size="10.00">juce::DirectoryContentsDisplay</text>
<text text-anchor="middle" x="397" y="-15" font-family="Helvetica,sans-Serif" font-size="10.00">Component</text>
</a>
</g>
</g>
<!-- Node9&#45;&gt;Node1 -->
<g id="edge8" class="edge"><title>Node9&#45;&gt;Node1</title>
<path fill="none" stroke="midnightblue" d="M483.539,-33.8152C492.402,-34.9359 501.285,-36.0591 509.821,-37.1383"/>
<polygon fill="midnightblue" stroke="midnightblue" points="483.92,-30.3357 473.56,-32.5535 483.042,-37.2804 483.92,-30.3357"/>
</g>
</g>
</svg>
