<?xml version="1.0" encoding="UTF-8" standalone="no"?>
<!DOCTYPE svg PUBLIC "-//W3C//DTD SVG 1.1//EN"
 "http://www.w3.org/Graphics/SVG/1.1/DTD/svg11.dtd">
<!-- Generated by graphviz version 2.36.0 (20140111.2315)
 -->
<!-- Title: TimeSliceClient Pages: 1 -->
<svg width="380pt" height="84pt"
 viewBox="0.00 0.00 380.00 84.00" xmlns="http://www.w3.org/2000/svg" xmlns:xlink="http://www.w3.org/1999/xlink">
<g id="graph0" class="graph" transform="scale(1 1) rotate(0) translate(4 80)">
<title>TimeSliceClient</title>
<!-- Node1 -->
<g id="node1" class="node"><title>Node1</title>
<polygon fill="#bfbfbf" stroke="black" points="143,-56.5 143,-75.5 229,-75.5 229,-56.5 143,-56.5"/>
<text text-anchor="middle" x="186" y="-63.5" font-family="Helvetica,sans-Serif" font-size="10.00">TimeSliceClient</text>
</g>
<!-- Node2 -->
<g id="node2" class="node"><title>Node2</title>
<g id="a_node2"><a xlink:href="classBufferingAudioReader.html" target="_top" xlink:title="An AudioFormatReader that uses a background thread to pre&#45;read data from another reader. ">
<polygon fill="none" stroke="black" points="0,-0.5 0,-19.5 112,-19.5 112,-0.5 0,-0.5"/>
<text text-anchor="middle" x="56" y="-7.5" font-family="Helvetica,sans-Serif" font-size="10.00">BufferingAudioReader</text>
</a>
</g>
</g>
<!-- Node1&#45;&gt;Node2 -->
<g id="edge1" class="edge"><title>Node1&#45;&gt;Node2</title>
<path fill="none" stroke="#8b1a1a" d="M155.915,-52.503C131.543,-42.3795 97.86,-28.388 76.5025,-19.5164"/>
<polygon fill="#8b1a1a" stroke="#8b1a1a" points="154.823,-55.8397 165.401,-56.4435 157.509,-49.3752 154.823,-55.8397"/>
</g>
<!-- Node3 -->
<g id="node3" class="node"><title>Node3</title>
<g id="a_node3"><a xlink:href="classBufferingAudioSource.html" target="_top" xlink:title="An AudioSource which takes another source as input, and buffers it using a thread. ">
<polygon fill="none" stroke="black" points="130.5,-0.5 130.5,-19.5 241.5,-19.5 241.5,-0.5 130.5,-0.5"/>
<text text-anchor="middle" x="186" y="-7.5" font-family="Helvetica,sans-Serif" font-size="10.00">BufferingAudioSource</text>
</a>
</g>
</g>
<!-- Node1&#45;&gt;Node3 -->
<g id="edge2" class="edge"><title>Node1&#45;&gt;Node3</title>
<path fill="none" stroke="#8b1a1a" d="M186,-45.8045C186,-36.9102 186,-26.7798 186,-19.7511"/>
<polygon fill="#8b1a1a" stroke="#8b1a1a" points="182.5,-46.083 186,-56.083 189.5,-46.083 182.5,-46.083"/>
</g>
<!-- Node4 -->
<g id="node4" class="node"><title>Node4</title>
<g id="a_node4"><a xlink:href="classDirectoryContentsList.html" target="_top" xlink:title="A class to asynchronously scan for details about the files in a directory. ">
<polygon fill="none" stroke="black" points="260,-0.5 260,-19.5 372,-19.5 372,-0.5 260,-0.5"/>
<text text-anchor="middle" x="316" y="-7.5" font-family="Helvetica,sans-Serif" font-size="10.00">DirectoryContentsList</text>
</a>
</g>
</g>
<!-- Node1&#45;&gt;Node4 -->
<g id="edge3" class="edge"><title>Node1&#45;&gt;Node4</title>
<path fill="none" stroke="#8b1a1a" d="M216.085,-52.503C240.457,-42.3795 274.14,-28.388 295.497,-19.5164"/>
<polygon fill="#8b1a1a" stroke="#8b1a1a" points="214.491,-49.3752 206.599,-56.4435 217.177,-55.8397 214.491,-49.3752"/>
</g>
</g>
</svg>
