<?xml version="1.0" encoding="UTF-8" standalone="no"?>
<!DOCTYPE svg PUBLIC "-//W3C//DTD SVG 1.1//EN"
 "http://www.w3.org/Graphics/SVG/1.1/DTD/svg11.dtd">
<!-- Generated by graphviz version 2.36.0 (20140111.2315)
 -->
<!-- Title: juce::TreeView Pages: 1 -->
<svg width="572pt" height="142pt"
 viewBox="0.00 0.00 572.00 142.00" xmlns="http://www.w3.org/2000/svg" xmlns:xlink="http://www.w3.org/1999/xlink">
<g id="graph0" class="graph" transform="scale(1 1) rotate(0) translate(4 138)">
<title>juce::TreeView</title>
<!-- Node1 -->
<g id="node1" class="node"><title>Node1</title>
<polygon fill="#bfbfbf" stroke="black" points="320,-57.5 320,-76.5 402,-76.5 402,-57.5 320,-57.5"/>
<text text-anchor="middle" x="361" y="-64.5" font-family="Helvetica,sans-Serif" font-size="10.00">juce::TreeView</text>
</g>
<!-- Node8 -->
<g id="node8" class="node"><title>Node8</title>
<g id="a_node8"><a xlink:href="classjuce_1_1FileTreeComponent.html" target="_top" xlink:title="A component that displays the files in a directory as a treeview. ">
<polygon fill="none" stroke="black" points="438,-57.5 438,-76.5 564,-76.5 564,-57.5 438,-57.5"/>
<text text-anchor="middle" x="501" y="-64.5" font-family="Helvetica,sans-Serif" font-size="10.00">juce::FileTreeComponent</text>
</a>
</g>
</g>
<!-- Node1&#45;&gt;Node8 -->
<g id="edge7" class="edge"><title>Node1&#45;&gt;Node8</title>
<path fill="none" stroke="midnightblue" d="M412.488,-67C420.734,-67 429.36,-67 437.847,-67"/>
<polygon fill="midnightblue" stroke="midnightblue" points="412.286,-63.5001 402.286,-67 412.286,-70.5001 412.286,-63.5001"/>
</g>
<!-- Node2 -->
<g id="node2" class="node"><title>Node2</title>
<g id="a_node2"><a xlink:href="classjuce_1_1Component.html" target="_top" xlink:title="The base class for all JUCE user&#45;interface objects. ">
<polygon fill="none" stroke="black" points="166.5,-114.5 166.5,-133.5 257.5,-133.5 257.5,-114.5 166.5,-114.5"/>
<text text-anchor="middle" x="212" y="-121.5" font-family="Helvetica,sans-Serif" font-size="10.00">juce::Component</text>
</a>
</g>
</g>
<!-- Node2&#45;&gt;Node1 -->
<g id="edge1" class="edge"><title>Node2&#45;&gt;Node1</title>
<path fill="none" stroke="midnightblue" d="M264.173,-111.64C270.909,-109.625 277.667,-107.402 284,-105 305.103,-96.9949 328.128,-84.9851 343.24,-76.6168"/>
<polygon fill="midnightblue" stroke="midnightblue" points="263.026,-108.327 254.372,-114.439 264.949,-115.058 263.026,-108.327"/>
</g>
<!-- Node3 -->
<g id="node3" class="node"><title>Node3</title>
<g id="a_node3"><a xlink:href="classjuce_1_1MouseListener.html" target="_top" xlink:title="A MouseListener can be registered with a component to receive callbacks about mouse events that happe...">
<polygon fill="none" stroke="black" points="0,-114.5 0,-133.5 104,-133.5 104,-114.5 0,-114.5"/>
<text text-anchor="middle" x="52" y="-121.5" font-family="Helvetica,sans-Serif" font-size="10.00">juce::MouseListener</text>
</a>
</g>
</g>
<!-- Node3&#45;&gt;Node2 -->
<g id="edge2" class="edge"><title>Node3&#45;&gt;Node2</title>
<path fill="none" stroke="midnightblue" d="M114.336,-124C131.664,-124 150.188,-124 166.336,-124"/>
<polygon fill="midnightblue" stroke="midnightblue" points="114.298,-120.5 104.298,-124 114.298,-127.5 114.298,-120.5"/>
</g>
<!-- Node4 -->
<g id="node4" class="node"><title>Node4</title>
<g id="a_node4"><a xlink:href="classjuce_1_1SettableTooltipClient.html" target="_top" xlink:title="An implementation of TooltipClient that stores the tooltip string and a method for changing it...">
<polygon fill="none" stroke="black" points="146.5,-76.5 146.5,-95.5 277.5,-95.5 277.5,-76.5 146.5,-76.5"/>
<text text-anchor="middle" x="212" y="-83.5" font-family="Helvetica,sans-Serif" font-size="10.00">juce::SettableTooltipClient</text>
</a>
</g>
</g>
<!-- Node4&#45;&gt;Node1 -->
<g id="edge3" class="edge"><title>Node4&#45;&gt;Node1</title>
<path fill="none" stroke="midnightblue" d="M288.007,-76.3052C299.025,-74.8811 309.998,-73.4628 319.935,-72.1785"/>
<polygon fill="midnightblue" stroke="midnightblue" points="287.373,-72.858 277.904,-77.611 288.27,-79.8002 287.373,-72.858"/>
</g>
<!-- Node5 -->
<g id="node5" class="node"><title>Node5</title>
<g id="a_node5"><a xlink:href="classjuce_1_1TooltipClient.html" target="_top" xlink:title="Components that want to use pop&#45;up tooltips should implement this interface. ">
<polygon fill="none" stroke="black" points="4.5,-76.5 4.5,-95.5 99.5,-95.5 99.5,-76.5 4.5,-76.5"/>
<text text-anchor="middle" x="52" y="-83.5" font-family="Helvetica,sans-Serif" font-size="10.00">juce::TooltipClient</text>
</a>
</g>
</g>
<!-- Node5&#45;&gt;Node4 -->
<g id="edge4" class="edge"><title>Node5&#45;&gt;Node4</title>
<path fill="none" stroke="midnightblue" d="M109.759,-86C121.624,-86 134.217,-86 146.344,-86"/>
<polygon fill="midnightblue" stroke="midnightblue" points="109.551,-82.5001 99.5506,-86 109.551,-89.5001 109.551,-82.5001"/>
</g>
<!-- Node6 -->
<g id="node6" class="node"><title>Node6</title>
<g id="a_node6"><a xlink:href="classjuce_1_1FileDragAndDropTarget.html" target="_top" xlink:title="Components derived from this class can have files dropped onto them by an external application...">
<polygon fill="none" stroke="black" points="140.5,-38.5 140.5,-57.5 283.5,-57.5 283.5,-38.5 140.5,-38.5"/>
<text text-anchor="middle" x="212" y="-45.5" font-family="Helvetica,sans-Serif" font-size="10.00">juce::FileDragAndDropTarget</text>
</a>
</g>
</g>
<!-- Node6&#45;&gt;Node1 -->
<g id="edge5" class="edge"><title>Node6&#45;&gt;Node1</title>
<path fill="none" stroke="midnightblue" d="M294.028,-58.473C302.953,-59.6265 311.728,-60.7607 319.819,-61.8066"/>
<polygon fill="midnightblue" stroke="midnightblue" points="294.283,-54.9769 283.916,-57.1661 293.385,-61.9191 294.283,-54.9769"/>
</g>
<!-- Node7 -->
<g id="node7" class="node"><title>Node7</title>
<g id="a_node7"><a xlink:href="classjuce_1_1DragAndDropTarget.html" target="_top" xlink:title="Components derived from this class can have things dropped onto them by a DragAndDropContainer. ">
<polygon fill="none" stroke="black" points="148,-0.5 148,-19.5 276,-19.5 276,-0.5 148,-0.5"/>
<text text-anchor="middle" x="212" y="-7.5" font-family="Helvetica,sans-Serif" font-size="10.00">juce::DragAndDropTarget</text>
</a>
</g>
</g>
<!-- Node7&#45;&gt;Node1 -->
<g id="edge6" class="edge"><title>Node7&#45;&gt;Node1</title>
<path fill="none" stroke="midnightblue" d="M264.173,-22.3605C270.909,-24.3751 277.667,-26.5979 284,-29 305.103,-37.0051 328.128,-49.0149 343.24,-57.3832"/>
<polygon fill="midnightblue" stroke="midnightblue" points="264.949,-18.9423 254.372,-19.5612 263.026,-25.6731 264.949,-18.9423"/>
</g>
</g>
</svg>
