<?xml version="1.0" encoding="UTF-8" standalone="no"?>
<!DOCTYPE svg PUBLIC "-//W3C//DTD SVG 1.1//EN"
 "http://www.w3.org/Graphics/SVG/1.1/DTD/svg11.dtd">
<!-- Generated by graphviz version 2.36.0 (20140111.2315)
 -->
<!-- Title: RelativeCoordinatePositionerBase Pages: 1 -->
<svg width="364pt" height="84pt"
 viewBox="0.00 0.00 364.00 84.00" xmlns="http://www.w3.org/2000/svg" xmlns:xlink="http://www.w3.org/1999/xlink">
<g id="graph0" class="graph" transform="scale(1 1) rotate(0) translate(4 80)">
<title>RelativeCoordinatePositionerBase</title>
<!-- Node1 -->
<g id="node1" class="node"><title>Node1</title>
<polygon fill="#bfbfbf" stroke="black" points="102,-0.5 102,-19.5 268,-19.5 268,-0.5 102,-0.5"/>
<text text-anchor="middle" x="185" y="-7.5" font-family="Helvetica,sans-Serif" font-size="10.00">RelativeCoordinatePositionerBase</text>
</g>
<!-- Node2 -->
<g id="node2" class="node"><title>Node2</title>
<g id="a_node2"><a xlink:href="classComponent_1_1Positioner.html" target="_top" xlink:title="Base class for objects that can be used to automatically position a component according to some kind ...">
<polygon fill="none" stroke="black" points="0,-56.5 0,-75.5 116,-75.5 116,-56.5 0,-56.5"/>
<text text-anchor="middle" x="58" y="-63.5" font-family="Helvetica,sans-Serif" font-size="10.00">Component::Positioner</text>
</a>
</g>
</g>
<!-- Node2&#45;&gt;Node1 -->
<g id="edge1" class="edge"><title>Node2&#45;&gt;Node1</title>
<path fill="none" stroke="midnightblue" d="M87.3912,-52.503C111.2,-42.3795 144.106,-28.388 164.971,-19.5164"/>
<polygon fill="midnightblue" stroke="midnightblue" points="85.9566,-49.3096 78.1235,-56.4435 88.6957,-55.7515 85.9566,-49.3096"/>
</g>
<!-- Node3 -->
<g id="node3" class="node"><title>Node3</title>
<g id="a_node3"><a xlink:href="group__juce__gui__basics-components.html#classComponentListener" target="_top" xlink:title="Gets informed about changes to a component&#39;s hierarchy or position. ">
<polygon fill="none" stroke="black" points="134.5,-56.5 134.5,-75.5 235.5,-75.5 235.5,-56.5 134.5,-56.5"/>
<text text-anchor="middle" x="185" y="-63.5" font-family="Helvetica,sans-Serif" font-size="10.00">ComponentListener</text>
</a>
</g>
</g>
<!-- Node3&#45;&gt;Node1 -->
<g id="edge2" class="edge"><title>Node3&#45;&gt;Node1</title>
<path fill="none" stroke="midnightblue" d="M185,-45.8045C185,-36.9102 185,-26.7798 185,-19.7511"/>
<polygon fill="midnightblue" stroke="midnightblue" points="181.5,-46.083 185,-56.083 188.5,-46.083 181.5,-46.083"/>
</g>
<!-- Node4 -->
<g id="node4" class="node"><title>Node4</title>
<g id="a_node4"><a xlink:href="classMarkerList_1_1Listener.html" target="_top" xlink:title="A class for receiving events when changes are made to a MarkerList. ">
<polygon fill="none" stroke="black" points="253.5,-56.5 253.5,-75.5 356.5,-75.5 356.5,-56.5 253.5,-56.5"/>
<text text-anchor="middle" x="305" y="-63.5" font-family="Helvetica,sans-Serif" font-size="10.00">MarkerList::Listener</text>
</a>
</g>
</g>
<!-- Node4&#45;&gt;Node1 -->
<g id="edge3" class="edge"><title>Node4&#45;&gt;Node1</title>
<path fill="none" stroke="midnightblue" d="M276.627,-52.2321C254.18,-42.1312 223.465,-28.3091 203.925,-19.5164"/>
<polygon fill="midnightblue" stroke="midnightblue" points="275.43,-55.5316 285.986,-56.4435 278.303,-49.1481 275.43,-55.5316"/>
</g>
</g>
</svg>
