<?xml version="1.0" encoding="UTF-8" standalone="no"?>
<!DOCTYPE svg PUBLIC "-//W3C//DTD SVG 1.1//EN"
 "http://www.w3.org/Graphics/SVG/1.1/DTD/svg11.dtd">
<!-- Generated by graphviz version 2.36.0 (20140111.2315)
 -->
<!-- Title: OutputStream Pages: 1 -->
<svg width="404pt" height="84pt"
 viewBox="0.00 0.00 404.00 84.00" xmlns="http://www.w3.org/2000/svg" xmlns:xlink="http://www.w3.org/1999/xlink">
<g id="graph0" class="graph" transform="scale(1 1) rotate(0) translate(4 80)">
<title>OutputStream</title>
<!-- Node1 -->
<g id="node1" class="node"><title>Node1</title>
<polygon fill="#bfbfbf" stroke="black" points="149.5,-56.5 149.5,-75.5 226.5,-75.5 226.5,-56.5 149.5,-56.5"/>
<text text-anchor="middle" x="188" y="-63.5" font-family="Helvetica,sans-Serif" font-size="10.00">OutputStream</text>
</g>
<!-- Node2 -->
<g id="node2" class="node"><title>Node2</title>
<g id="a_node2"><a xlink:href="classFileOutputStream.html" target="_top" xlink:title="An output stream that writes into a local file. ">
<polygon fill="none" stroke="black" points="-0.5,-0.5 -0.5,-19.5 92.5,-19.5 92.5,-0.5 -0.5,-0.5"/>
<text text-anchor="middle" x="46" y="-7.5" font-family="Helvetica,sans-Serif" font-size="10.00">FileOutputStream</text>
</a>
</g>
</g>
<!-- Node1&#45;&gt;Node2 -->
<g id="edge1" class="edge"><title>Node1&#45;&gt;Node2</title>
<path fill="none" stroke="midnightblue" d="M155.845,-52.772C129.172,-42.6287 91.9314,-28.4669 68.3951,-19.5164"/>
<polygon fill="midnightblue" stroke="midnightblue" points="154.909,-56.1604 165.5,-56.4435 157.397,-49.6176 154.909,-56.1604"/>
</g>
<!-- Node3 -->
<g id="node3" class="node"><title>Node3</title>
<g id="a_node3"><a xlink:href="classGZIPCompressorOutputStream.html" target="_top" xlink:title="A stream which uses zlib to compress the data written into it. ">
<polygon fill="none" stroke="black" points="111,-0.5 111,-19.5 265,-19.5 265,-0.5 111,-0.5"/>
<text text-anchor="middle" x="188" y="-7.5" font-family="Helvetica,sans-Serif" font-size="10.00">GZIPCompressorOutputStream</text>
</a>
</g>
</g>
<!-- Node1&#45;&gt;Node3 -->
<g id="edge2" class="edge"><title>Node1&#45;&gt;Node3</title>
<path fill="none" stroke="midnightblue" d="M188,-45.8045C188,-36.9102 188,-26.7798 188,-19.7511"/>
<polygon fill="midnightblue" stroke="midnightblue" points="184.5,-46.083 188,-56.083 191.5,-46.083 184.5,-46.083"/>
</g>
<!-- Node4 -->
<g id="node4" class="node"><title>Node4</title>
<g id="a_node4"><a xlink:href="classMemoryOutputStream.html" target="_top" xlink:title="Writes data to an internal memory buffer, which grows as required. ">
<polygon fill="none" stroke="black" points="283.5,-0.5 283.5,-19.5 396.5,-19.5 396.5,-0.5 283.5,-0.5"/>
<text text-anchor="middle" x="340" y="-7.5" font-family="Helvetica,sans-Serif" font-size="10.00">MemoryOutputStream</text>
</a>
</g>
</g>
<!-- Node1&#45;&gt;Node4 -->
<g id="edge3" class="edge"><title>Node1&#45;&gt;Node4</title>
<path fill="none" stroke="midnightblue" d="M221.668,-53.0392C250.268,-42.8786 290.612,-28.5457 316.028,-19.5164"/>
<polygon fill="midnightblue" stroke="midnightblue" points="220.336,-49.7978 212.085,-56.4435 222.68,-56.3939 220.336,-49.7978"/>
</g>
</g>
</svg>
