<?xml version="1.0" encoding="UTF-8" standalone="no"?>
<!DOCTYPE svg PUBLIC "-//W3C//DTD SVG 1.1//EN"
 "http://www.w3.org/Graphics/SVG/1.1/DTD/svg11.dtd">
<!-- Generated by graphviz version 2.36.0 (20140111.2315)
 -->
<!-- Title: juce::Label Pages: 1 -->
<svg width="380pt" height="180pt"
 viewBox="0.00 0.00 380.00 180.00" xmlns="http://www.w3.org/2000/svg" xmlns:xlink="http://www.w3.org/1999/xlink">
<g id="graph0" class="graph" transform="scale(1 1) rotate(0) translate(4 176)">
<title>juce::Label</title>
<!-- Node1 -->
<g id="node1" class="node"><title>Node1</title>
<polygon fill="#bfbfbf" stroke="black" points="308,-76.5 308,-95.5 372,-95.5 372,-76.5 308,-76.5"/>
<text text-anchor="middle" x="340" y="-83.5" font-family="Helvetica,sans-Serif" font-size="10.00">juce::Label</text>
</g>
<!-- Node2 -->
<g id="node2" class="node"><title>Node2</title>
<g id="a_node2"><a xlink:href="classjuce_1_1Component.html" target="_top" xlink:title="The base class for all JUCE user&#45;interface objects. ">
<polygon fill="none" stroke="black" points="160.5,-152.5 160.5,-171.5 251.5,-171.5 251.5,-152.5 160.5,-152.5"/>
<text text-anchor="middle" x="206" y="-159.5" font-family="Helvetica,sans-Serif" font-size="10.00">juce::Component</text>
</a>
</g>
</g>
<!-- Node2&#45;&gt;Node1 -->
<g id="edge1" class="edge"><title>Node2&#45;&gt;Node1</title>
<path fill="none" stroke="midnightblue" d="M258.768,-149.065C263.345,-147.269 267.822,-145.253 272,-143 295.388,-130.385 317.935,-108.586 329.98,-95.9152"/>
<polygon fill="midnightblue" stroke="midnightblue" points="257.533,-145.789 249.294,-152.45 259.888,-152.381 257.533,-145.789"/>
</g>
<!-- Node3 -->
<g id="node3" class="node"><title>Node3</title>
<g id="a_node3"><a xlink:href="classjuce_1_1MouseListener.html" target="_top" xlink:title="A MouseListener can be registered with a component to receive callbacks about mouse events that happe...">
<polygon fill="none" stroke="black" points="0,-152.5 0,-171.5 104,-171.5 104,-152.5 0,-152.5"/>
<text text-anchor="middle" x="52" y="-159.5" font-family="Helvetica,sans-Serif" font-size="10.00">juce::MouseListener</text>
</a>
</g>
</g>
<!-- Node3&#45;&gt;Node2 -->
<g id="edge2" class="edge"><title>Node3&#45;&gt;Node2</title>
<path fill="none" stroke="midnightblue" d="M114.074,-162C129.582,-162 145.952,-162 160.464,-162"/>
<polygon fill="midnightblue" stroke="midnightblue" points="114.037,-158.5 104.037,-162 114.037,-165.5 114.037,-158.5"/>
</g>
<!-- Node4 -->
<g id="node4" class="node"><title>Node4</title>
<g id="a_node4"><a xlink:href="classjuce_1_1SettableTooltipClient.html" target="_top" xlink:title="An implementation of TooltipClient that stores the tooltip string and a method for changing it...">
<polygon fill="none" stroke="black" points="140.5,-114.5 140.5,-133.5 271.5,-133.5 271.5,-114.5 140.5,-114.5"/>
<text text-anchor="middle" x="206" y="-121.5" font-family="Helvetica,sans-Serif" font-size="10.00">juce::SettableTooltipClient</text>
</a>
</g>
</g>
<!-- Node4&#45;&gt;Node1 -->
<g id="edge3" class="edge"><title>Node4&#45;&gt;Node1</title>
<path fill="none" stroke="midnightblue" d="M250.164,-111.574C269.03,-106.143 290.735,-99.8944 307.968,-94.9333"/>
<polygon fill="midnightblue" stroke="midnightblue" points="248.951,-108.281 240.309,-114.411 250.887,-115.008 248.951,-108.281"/>
</g>
<!-- Node5 -->
<g id="node5" class="node"><title>Node5</title>
<g id="a_node5"><a xlink:href="classjuce_1_1TooltipClient.html" target="_top" xlink:title="Components that want to use pop&#45;up tooltips should implement this interface. ">
<polygon fill="none" stroke="black" points="4.5,-114.5 4.5,-133.5 99.5,-133.5 99.5,-114.5 4.5,-114.5"/>
<text text-anchor="middle" x="52" y="-121.5" font-family="Helvetica,sans-Serif" font-size="10.00">juce::TooltipClient</text>
</a>
</g>
</g>
<!-- Node5&#45;&gt;Node4 -->
<g id="edge4" class="edge"><title>Node5&#45;&gt;Node4</title>
<path fill="none" stroke="midnightblue" d="M109.992,-124C119.919,-124 130.309,-124 140.422,-124"/>
<polygon fill="midnightblue" stroke="midnightblue" points="109.845,-120.5 99.8453,-124 109.845,-127.5 109.845,-120.5"/>
</g>
<!-- Node6 -->
<g id="node6" class="node"><title>Node6</title>
<g id="a_node6"><a xlink:href="classjuce_1_1TextEditor_1_1Listener.html" target="_top" xlink:title="Receives callbacks from a TextEditor component when it changes. ">
<polygon fill="none" stroke="black" points="143,-76.5 143,-95.5 269,-95.5 269,-76.5 143,-76.5"/>
<text text-anchor="middle" x="206" y="-83.5" font-family="Helvetica,sans-Serif" font-size="10.00">juce::TextEditor::Listener</text>
</a>
</g>
</g>
<!-- Node6&#45;&gt;Node1 -->
<g id="edge5" class="edge"><title>Node6&#45;&gt;Node1</title>
<path fill="none" stroke="darkgreen" d="M279.17,-86C289.177,-86 298.993,-86 307.686,-86"/>
<polygon fill="darkgreen" stroke="darkgreen" points="279.135,-82.5001 269.135,-86 279.135,-89.5001 279.135,-82.5001"/>
</g>
<!-- Node7 -->
<g id="node7" class="node"><title>Node7</title>
<g id="a_node7"><a xlink:href="classjuce_1_1ComponentListener.html" target="_top" xlink:title="Gets informed about changes to a component&#39;s hierarchy or position. ">
<polygon fill="none" stroke="black" points="143.5,-38.5 143.5,-57.5 268.5,-57.5 268.5,-38.5 143.5,-38.5"/>
<text text-anchor="middle" x="206" y="-45.5" font-family="Helvetica,sans-Serif" font-size="10.00">juce::ComponentListener</text>
</a>
</g>
</g>
<!-- Node7&#45;&gt;Node1 -->
<g id="edge6" class="edge"><title>Node7&#45;&gt;Node1</title>
<path fill="none" stroke="#8b1a1a" d="M250.164,-60.4259C269.03,-65.857 290.735,-72.1056 307.968,-77.0667"/>
<polygon fill="#8b1a1a" stroke="#8b1a1a" points="250.887,-56.9921 240.309,-57.589 248.951,-63.7189 250.887,-56.9921"/>
</g>
<!-- Node8 -->
<g id="node8" class="node"><title>Node8</title>
<g id="a_node8"><a xlink:href="classjuce_1_1Value_1_1Listener.html" target="_top" xlink:title="Receives callbacks when a Value object changes. ">
<polygon fill="none" stroke="black" points="153,-0.5 153,-19.5 259,-19.5 259,-0.5 153,-0.5"/>
<text text-anchor="middle" x="206" y="-7.5" font-family="Helvetica,sans-Serif" font-size="10.00">juce::Value::Listener</text>
</a>
</g>
</g>
<!-- Node8&#45;&gt;Node1 -->
<g id="edge7" class="edge"><title>Node8&#45;&gt;Node1</title>
<path fill="none" stroke="#8b1a1a" d="M258.768,-22.9351C263.345,-24.7313 267.822,-26.7465 272,-29 295.388,-41.615 317.935,-63.4141 329.98,-76.0848"/>
<polygon fill="#8b1a1a" stroke="#8b1a1a" points="259.888,-19.6188 249.294,-19.5499 257.533,-26.2107 259.888,-19.6188"/>
</g>
</g>
</svg>
