<?xml version="1.0" encoding="UTF-8" standalone="no"?>
<!DOCTYPE svg PUBLIC "-//W3C//DTD SVG 1.1//EN"
 "http://www.w3.org/Graphics/SVG/1.1/DTD/svg11.dtd">
<!-- Generated by graphviz version 2.36.0 (20140111.2315)
 -->
<!-- Title: juce::AudioParameterChoice Pages: 1 -->
<svg width="162pt" height="152pt"
 viewBox="0.00 0.00 162.00 152.00" xmlns="http://www.w3.org/2000/svg" xmlns:xlink="http://www.w3.org/1999/xlink">
<g id="graph0" class="graph" transform="scale(1 1) rotate(0) translate(4 148)">
<title>juce::AudioParameterChoice</title>
<!-- Node1 -->
<g id="node1" class="node"><title>Node1</title>
<polygon fill="#bfbfbf" stroke="black" points="6.5,-0.5 6.5,-19.5 147.5,-19.5 147.5,-0.5 6.5,-0.5"/>
<text text-anchor="middle" x="77" y="-7.5" font-family="Helvetica,sans-Serif" font-size="10.00">juce::AudioParameterChoice</text>
</g>
<!-- Node2 -->
<g id="node2" class="node"><title>Node2</title>
<g id="a_node2"><a xlink:href="classjuce_1_1AudioProcessorParameterWithID.html" target="_top" xlink:title="This abstract base class is used by some AudioProcessorParameter helper classes. ">
<polygon fill="none" stroke="black" points="-0.5,-57 -0.5,-87 154.5,-87 154.5,-57 -0.5,-57"/>
<text text-anchor="start" x="7.5" y="-75" font-family="Helvetica,sans-Serif" font-size="10.00">juce::AudioProcessorParameter</text>
<text text-anchor="middle" x="77" y="-64" font-family="Helvetica,sans-Serif" font-size="10.00">WithID</text>
</a>
</g>
</g>
<!-- Node2&#45;&gt;Node1 -->
<g id="edge1" class="edge"><title>Node2&#45;&gt;Node1</title>
<path fill="none" stroke="midnightblue" d="M77,-46.5858C77,-37.0743 77,-26.7864 77,-19.7305"/>
<polygon fill="midnightblue" stroke="midnightblue" points="73.5001,-46.7808 77,-56.7808 80.5001,-46.7809 73.5001,-46.7808"/>
</g>
<!-- Node3 -->
<g id="node3" class="node"><title>Node3</title>
<g id="a_node3"><a xlink:href="classjuce_1_1AudioProcessorParameter.html" target="_top" xlink:title="An abstract base class for parameter objects that can be added to an AudioProcessor. ">
<polygon fill="none" stroke="black" points="-0.5,-124.5 -0.5,-143.5 154.5,-143.5 154.5,-124.5 -0.5,-124.5"/>
<text text-anchor="middle" x="77" y="-131.5" font-family="Helvetica,sans-Serif" font-size="10.00">juce::AudioProcessorParameter</text>
</a>
</g>
</g>
<!-- Node3&#45;&gt;Node2 -->
<g id="edge2" class="edge"><title>Node3&#45;&gt;Node2</title>
<path fill="none" stroke="midnightblue" d="M77,-114.371C77,-105.585 77,-95.2721 77,-87.1408"/>
<polygon fill="midnightblue" stroke="midnightblue" points="73.5001,-114.403 77,-124.403 80.5001,-114.403 73.5001,-114.403"/>
</g>
</g>
</svg>
