<?xml version="1.0" encoding="UTF-8" standalone="no"?>
<!DOCTYPE svg PUBLIC "-//W3C//DTD SVG 1.1//EN"
 "http://www.w3.org/Graphics/SVG/1.1/DTD/svg11.dtd">
<!-- Generated by graphviz version 2.36.0 (20140111.2315)
 -->
<!-- Title: DrawablePath::ValueTreeWrapper Pages: 1 -->
<svg width="174pt" height="152pt"
 viewBox="0.00 0.00 174.00 152.00" xmlns="http://www.w3.org/2000/svg" xmlns:xlink="http://www.w3.org/1999/xlink">
<g id="graph0" class="graph" transform="scale(1 1) rotate(0) translate(4 148)">
<title>DrawablePath::ValueTreeWrapper</title>
<!-- Node1 -->
<g id="node1" class="node"><title>Node1</title>
<polygon fill="#bfbfbf" stroke="black" points="0.5,-0.5 0.5,-19.5 165.5,-19.5 165.5,-0.5 0.5,-0.5"/>
<text text-anchor="middle" x="83" y="-7.5" font-family="Helvetica,sans-Serif" font-size="10.00">DrawablePath::ValueTreeWrapper</text>
</g>
<!-- Node2 -->
<g id="node2" class="node"><title>Node2</title>
<g id="a_node2"><a xlink:href="classDrawableShape_1_1FillAndStrokeState.html" target="_top" xlink:title="DrawableShape::FillAndStroke\lState">
<polygon fill="none" stroke="black" points="8,-57 8,-87 158,-87 158,-57 8,-57"/>
<text text-anchor="start" x="16" y="-75" font-family="Helvetica,sans-Serif" font-size="10.00">DrawableShape::FillAndStroke</text>
<text text-anchor="middle" x="83" y="-64" font-family="Helvetica,sans-Serif" font-size="10.00">State</text>
</a>
</g>
</g>
<!-- Node2&#45;&gt;Node1 -->
<g id="edge1" class="edge"><title>Node2&#45;&gt;Node1</title>
<path fill="none" stroke="midnightblue" d="M83,-46.5858C83,-37.0743 83,-26.7864 83,-19.7305"/>
<polygon fill="midnightblue" stroke="midnightblue" points="79.5001,-46.7808 83,-56.7808 86.5001,-46.7809 79.5001,-46.7808"/>
</g>
<!-- Node3 -->
<g id="node3" class="node"><title>Node3</title>
<g id="a_node3"><a xlink:href="classDrawable_1_1ValueTreeWrapperBase.html" target="_top" xlink:title="Internal class used to manage ValueTrees that represent Drawables. ">
<polygon fill="none" stroke="black" points="-0.5,-124.5 -0.5,-143.5 166.5,-143.5 166.5,-124.5 -0.5,-124.5"/>
<text text-anchor="middle" x="83" y="-131.5" font-family="Helvetica,sans-Serif" font-size="10.00">Drawable::ValueTreeWrapperBase</text>
</a>
</g>
</g>
<!-- Node3&#45;&gt;Node2 -->
<g id="edge2" class="edge"><title>Node3&#45;&gt;Node2</title>
<path fill="none" stroke="midnightblue" d="M83,-114.371C83,-105.585 83,-95.2721 83,-87.1408"/>
<polygon fill="midnightblue" stroke="midnightblue" points="79.5001,-114.403 83,-124.403 86.5001,-114.403 79.5001,-114.403"/>
</g>
</g>
</svg>
