<?xml version="1.0" encoding="UTF-8" standalone="no"?>
<!DOCTYPE svg PUBLIC "-//W3C//DTD SVG 1.1//EN"
 "http://www.w3.org/Graphics/SVG/1.1/DTD/svg11.dtd">
<!-- Generated by graphviz version 2.36.0 (20140111.2315)
 -->
<!-- Title: CodeEditorComponent Pages: 1 -->
<svg width="341pt" height="140pt"
 viewBox="0.00 0.00 341.00 140.00" xmlns="http://www.w3.org/2000/svg" xmlns:xlink="http://www.w3.org/1999/xlink">
<g id="graph0" class="graph" transform="scale(1 1) rotate(0) translate(4 136)">
<title>CodeEditorComponent</title>
<!-- Node1 -->
<g id="node1" class="node"><title>Node1</title>
<polygon fill="#bfbfbf" stroke="black" points="102,-0.5 102,-19.5 218,-19.5 218,-0.5 102,-0.5"/>
<text text-anchor="middle" x="160" y="-7.5" font-family="Helvetica,sans-Serif" font-size="10.00">CodeEditorComponent</text>
</g>
<!-- Node2 -->
<g id="node2" class="node"><title>Node2</title>
<g id="a_node2"><a xlink:href="group__juce__gui__basics-components.html#classComponent" target="_top" xlink:title="The base class for all JUCE user&#45;interface objects. ">
<polygon fill="none" stroke="black" points="6.5,-56.5 6.5,-75.5 73.5,-75.5 73.5,-56.5 6.5,-56.5"/>
<text text-anchor="middle" x="40" y="-63.5" font-family="Helvetica,sans-Serif" font-size="10.00">Component</text>
</a>
</g>
</g>
<!-- Node2&#45;&gt;Node1 -->
<g id="edge1" class="edge"><title>Node2&#45;&gt;Node1</title>
<path fill="none" stroke="midnightblue" d="M68.3731,-52.2321C90.8196,-42.1312 121.535,-28.3091 141.075,-19.5164"/>
<polygon fill="midnightblue" stroke="midnightblue" points="66.6973,-49.1481 59.0144,-56.4435 69.5699,-55.5316 66.6973,-49.1481"/>
</g>
<!-- Node3 -->
<g id="node3" class="node"><title>Node3</title>
<g id="a_node3"><a xlink:href="group__juce__gui__basics-mouse.html#classMouseListener" target="_top" xlink:title="A MouseListener can be registered with a component to receive callbacks about mouse events that happe...">
<polygon fill="none" stroke="black" points="0,-112.5 0,-131.5 80,-131.5 80,-112.5 0,-112.5"/>
<text text-anchor="middle" x="40" y="-119.5" font-family="Helvetica,sans-Serif" font-size="10.00">MouseListener</text>
</a>
</g>
</g>
<!-- Node3&#45;&gt;Node2 -->
<g id="edge2" class="edge"><title>Node3&#45;&gt;Node2</title>
<path fill="none" stroke="midnightblue" d="M40,-101.805C40,-92.9102 40,-82.7798 40,-75.7511"/>
<polygon fill="midnightblue" stroke="midnightblue" points="36.5001,-102.083 40,-112.083 43.5001,-102.083 36.5001,-102.083"/>
</g>
<!-- Node4 -->
<g id="node4" class="node"><title>Node4</title>
<g id="a_node4"><a xlink:href="group__juce__gui__basics-commands.html#classApplicationCommandTarget" target="_top" xlink:title="A command target publishes a list of command IDs that it can perform. ">
<polygon fill="none" stroke="black" points="91.5,-56.5 91.5,-75.5 228.5,-75.5 228.5,-56.5 91.5,-56.5"/>
<text text-anchor="middle" x="160" y="-63.5" font-family="Helvetica,sans-Serif" font-size="10.00">ApplicationCommandTarget</text>
</a>
</g>
</g>
<!-- Node4&#45;&gt;Node1 -->
<g id="edge3" class="edge"><title>Node4&#45;&gt;Node1</title>
<path fill="none" stroke="midnightblue" d="M160,-45.8045C160,-36.9102 160,-26.7798 160,-19.7511"/>
<polygon fill="midnightblue" stroke="midnightblue" points="156.5,-46.083 160,-56.083 163.5,-46.083 156.5,-46.083"/>
</g>
<!-- Node5 -->
<g id="node5" class="node"><title>Node5</title>
<g id="a_node5"><a xlink:href="group__juce__gui__basics-keyboard.html#classTextInputTarget" target="_top" xlink:title="An abstract base class which can be implemented by components that function as text editors...">
<polygon fill="none" stroke="black" points="247,-56.5 247,-75.5 333,-75.5 333,-56.5 247,-56.5"/>
<text text-anchor="middle" x="290" y="-63.5" font-family="Helvetica,sans-Serif" font-size="10.00">TextInputTarget</text>
</a>
</g>
</g>
<!-- Node5&#45;&gt;Node1 -->
<g id="edge4" class="edge"><title>Node5&#45;&gt;Node1</title>
<path fill="none" stroke="midnightblue" d="M259.915,-52.503C235.543,-42.3795 201.86,-28.388 180.503,-19.5164"/>
<polygon fill="midnightblue" stroke="midnightblue" points="258.823,-55.8397 269.401,-56.4435 261.509,-49.3752 258.823,-55.8397"/>
</g>
</g>
</svg>
