<?xml version="1.0" encoding="UTF-8" standalone="no"?>
<!DOCTYPE svg PUBLIC "-//W3C//DTD SVG 1.1//EN"
 "http://www.w3.org/Graphics/SVG/1.1/DTD/svg11.dtd">
<!-- Generated by graphviz version 2.36.0 (20140111.2315)
 -->
<!-- Title: juce::CriticalSection Pages: 1 -->
<svg width="328pt" height="109pt"
 viewBox="0.00 0.00 328.00 109.00" xmlns="http://www.w3.org/2000/svg" xmlns:xlink="http://www.w3.org/1999/xlink">
<g id="graph0" class="graph" transform="scale(1 1) rotate(0) translate(4 105)">
<title>juce::CriticalSection</title>
<!-- Node1 -->
<g id="node1" class="node"><title>Node1</title>
<polygon fill="#bfbfbf" stroke="black" points="0,-40.5 0,-59.5 104,-59.5 104,-40.5 0,-40.5"/>
<text text-anchor="middle" x="52" y="-47.5" font-family="Helvetica,sans-Serif" font-size="10.00">juce::CriticalSection</text>
</g>
<!-- Node2 -->
<g id="node2" class="node"><title>Node2</title>
<g id="a_node2"><a xlink:href="classjuce_1_1ArrayAllocationBase.html" target="_top" xlink:title="juce::ArrayAllocationBase\l\&lt; juce::UnitTestRunner\l::TestResult *, juce::CriticalSection \&gt;">
<polygon fill="none" stroke="black" points="140,-59.5 140,-100.5 320,-100.5 320,-59.5 140,-59.5"/>
<text text-anchor="start" x="148" y="-88.5" font-family="Helvetica,sans-Serif" font-size="10.00">juce::ArrayAllocationBase</text>
<text text-anchor="start" x="148" y="-77.5" font-family="Helvetica,sans-Serif" font-size="10.00">&lt; juce::UnitTestRunner</text>
<text text-anchor="middle" x="230" y="-66.5" font-family="Helvetica,sans-Serif" font-size="10.00">::TestResult *, juce::CriticalSection &gt;</text>
</a>
</g>
</g>
<!-- Node1&#45;&gt;Node2 -->
<g id="edge1" class="edge"><title>Node1&#45;&gt;Node2</title>
<path fill="none" stroke="midnightblue" d="M114.276,-60.4447C122.548,-61.8548 131.169,-63.3243 139.806,-64.7964"/>
<polygon fill="midnightblue" stroke="midnightblue" points="114.826,-56.988 104.38,-58.7579 113.649,-63.8885 114.826,-56.988"/>
</g>
<!-- Node3 -->
<g id="node3" class="node"><title>Node3</title>
<g id="a_node3"><a xlink:href="classjuce_1_1ArrayAllocationBase.html" target="_top" xlink:title="juce::ArrayAllocationBase\l\&lt; Steinberg::Vst::Event,\l juce::CriticalSection \&gt;">
<polygon fill="none" stroke="black" points="165.5,0.5 165.5,-40.5 294.5,-40.5 294.5,0.5 165.5,0.5"/>
<text text-anchor="start" x="173.5" y="-28.5" font-family="Helvetica,sans-Serif" font-size="10.00">juce::ArrayAllocationBase</text>
<text text-anchor="start" x="173.5" y="-17.5" font-family="Helvetica,sans-Serif" font-size="10.00">&lt; Steinberg::Vst::Event,</text>
<text text-anchor="middle" x="230" y="-6.5" font-family="Helvetica,sans-Serif" font-size="10.00"> juce::CriticalSection &gt;</text>
</a>
</g>
</g>
<!-- Node1&#45;&gt;Node3 -->
<g id="edge2" class="edge"><title>Node1&#45;&gt;Node3</title>
<path fill="none" stroke="midnightblue" d="M114.439,-39.5274C130.918,-36.7185 148.768,-33.676 165.363,-30.8473"/>
<polygon fill="midnightblue" stroke="midnightblue" points="113.649,-36.1115 104.38,-41.2421 114.826,-43.012 113.649,-36.1115"/>
</g>
</g>
</svg>
