<?xml version="1.0" encoding="UTF-8" standalone="no"?>
<!DOCTYPE svg PUBLIC "-//W3C//DTD SVG 1.1//EN"
 "http://www.w3.org/Graphics/SVG/1.1/DTD/svg11.dtd">
<!-- Generated by graphviz version 2.36.0 (20140111.2315)
 -->
<!-- Title: ListBox Pages: 1 -->
<svg width="215pt" height="196pt"
 viewBox="0.00 0.00 215.00 196.00" xmlns="http://www.w3.org/2000/svg" xmlns:xlink="http://www.w3.org/1999/xlink">
<g id="graph0" class="graph" transform="scale(1 1) rotate(0) translate(4 192)">
<title>ListBox</title>
<!-- Node1 -->
<g id="node1" class="node"><title>Node1</title>
<polygon fill="#bfbfbf" stroke="black" points="76,-56.5 76,-75.5 126,-75.5 126,-56.5 76,-56.5"/>
<text text-anchor="middle" x="101" y="-63.5" font-family="Helvetica,sans-Serif" font-size="10.00">ListBox</text>
</g>
<!-- Node6 -->
<g id="node6" class="node"><title>Node6</title>
<g id="a_node6"><a xlink:href="group__juce__gui__basics-filebrowser.html#classFileListComponent" target="_top" xlink:title="A component that displays the files in a directory as a listbox. ">
<polygon fill="none" stroke="black" points="0,-0.5 0,-19.5 98,-19.5 98,-0.5 0,-0.5"/>
<text text-anchor="middle" x="49" y="-7.5" font-family="Helvetica,sans-Serif" font-size="10.00">FileListComponent</text>
</a>
</g>
</g>
<!-- Node1&#45;&gt;Node6 -->
<g id="edge5" class="edge"><title>Node1&#45;&gt;Node6</title>
<path fill="none" stroke="midnightblue" d="M85.3206,-48.7175C76.1553,-39.1997 64.9474,-27.5608 57.427,-19.7511"/>
<polygon fill="midnightblue" stroke="midnightblue" points="82.9557,-51.3075 92.4133,-56.083 87.9979,-46.452 82.9557,-51.3075"/>
</g>
<!-- Node7 -->
<g id="node7" class="node"><title>Node7</title>
<g id="a_node7"><a xlink:href="group__juce__gui__basics-widgets.html#classTableListBox" target="_top" xlink:title="A table of cells, using a TableHeaderComponent as its header. ">
<polygon fill="none" stroke="black" points="116,-0.5 116,-19.5 190,-19.5 190,-0.5 116,-0.5"/>
<text text-anchor="middle" x="153" y="-7.5" font-family="Helvetica,sans-Serif" font-size="10.00">TableListBox</text>
</a>
</g>
</g>
<!-- Node1&#45;&gt;Node7 -->
<g id="edge6" class="edge"><title>Node1&#45;&gt;Node7</title>
<path fill="none" stroke="midnightblue" d="M116.679,-48.7175C125.845,-39.1997 137.053,-27.5608 144.573,-19.7511"/>
<polygon fill="midnightblue" stroke="midnightblue" points="114.002,-46.452 109.587,-56.083 119.044,-51.3075 114.002,-46.452"/>
</g>
<!-- Node2 -->
<g id="node2" class="node"><title>Node2</title>
<g id="a_node2"><a xlink:href="group__juce__gui__basics-components.html#classComponent" target="_top" xlink:title="The base class for all JUCE user&#45;interface objects. ">
<polygon fill="none" stroke="black" points="15.5,-112.5 15.5,-131.5 82.5,-131.5 82.5,-112.5 15.5,-112.5"/>
<text text-anchor="middle" x="49" y="-119.5" font-family="Helvetica,sans-Serif" font-size="10.00">Component</text>
</a>
</g>
</g>
<!-- Node2&#45;&gt;Node1 -->
<g id="edge1" class="edge"><title>Node2&#45;&gt;Node1</title>
<path fill="none" stroke="midnightblue" d="M64.6794,-104.718C73.8447,-95.1997 85.0526,-83.5608 92.573,-75.7511"/>
<polygon fill="midnightblue" stroke="midnightblue" points="62.0021,-102.452 57.5867,-112.083 67.0443,-107.308 62.0021,-102.452"/>
</g>
<!-- Node3 -->
<g id="node3" class="node"><title>Node3</title>
<g id="a_node3"><a xlink:href="group__juce__gui__basics-mouse.html#classMouseListener" target="_top" xlink:title="A MouseListener can be registered with a component to receive callbacks about mouse events that happe...">
<polygon fill="none" stroke="black" points="9,-168.5 9,-187.5 89,-187.5 89,-168.5 9,-168.5"/>
<text text-anchor="middle" x="49" y="-175.5" font-family="Helvetica,sans-Serif" font-size="10.00">MouseListener</text>
</a>
</g>
</g>
<!-- Node3&#45;&gt;Node2 -->
<g id="edge2" class="edge"><title>Node3&#45;&gt;Node2</title>
<path fill="none" stroke="midnightblue" d="M49,-157.805C49,-148.91 49,-138.78 49,-131.751"/>
<polygon fill="midnightblue" stroke="midnightblue" points="45.5001,-158.083 49,-168.083 52.5001,-158.083 45.5001,-158.083"/>
</g>
<!-- Node4 -->
<g id="node4" class="node"><title>Node4</title>
<g id="a_node4"><a xlink:href="group__juce__gui__basics-mouse.html#classSettableTooltipClient" target="_top" xlink:title="An implementation of TooltipClient that stores the tooltip string and a method for changing it...">
<polygon fill="none" stroke="black" points="100.5,-112.5 100.5,-131.5 207.5,-131.5 207.5,-112.5 100.5,-112.5"/>
<text text-anchor="middle" x="154" y="-119.5" font-family="Helvetica,sans-Serif" font-size="10.00">SettableTooltipClient</text>
</a>
</g>
</g>
<!-- Node4&#45;&gt;Node1 -->
<g id="edge3" class="edge"><title>Node4&#45;&gt;Node1</title>
<path fill="none" stroke="midnightblue" d="M138.019,-104.718C128.678,-95.1997 117.254,-83.5608 109.589,-75.7511"/>
<polygon fill="midnightblue" stroke="midnightblue" points="135.746,-107.398 145.248,-112.083 140.741,-102.494 135.746,-107.398"/>
</g>
<!-- Node5 -->
<g id="node5" class="node"><title>Node5</title>
<g id="a_node5"><a xlink:href="group__juce__gui__basics-mouse.html#classTooltipClient" target="_top" xlink:title="Components that want to use pop&#45;up tooltips should implement this interface. ">
<polygon fill="none" stroke="black" points="118.5,-168.5 118.5,-187.5 189.5,-187.5 189.5,-168.5 118.5,-168.5"/>
<text text-anchor="middle" x="154" y="-175.5" font-family="Helvetica,sans-Serif" font-size="10.00">TooltipClient</text>
</a>
</g>
</g>
<!-- Node5&#45;&gt;Node4 -->
<g id="edge4" class="edge"><title>Node5&#45;&gt;Node4</title>
<path fill="none" stroke="midnightblue" d="M154,-157.805C154,-148.91 154,-138.78 154,-131.751"/>
<polygon fill="midnightblue" stroke="midnightblue" points="150.5,-158.083 154,-168.083 157.5,-158.083 150.5,-158.083"/>
</g>
</g>
</svg>
