<?xml version="1.0" encoding="UTF-8" standalone="no"?>
<!DOCTYPE svg PUBLIC "-//W3C//DTD SVG 1.1//EN"
 "http://www.w3.org/Graphics/SVG/1.1/DTD/svg11.dtd">
<!-- Generated by graphviz version 2.36.0 (20140111.2315)
 -->
<!-- Title: Button::Listener Pages: 1 -->
<svg width="288pt" height="522pt"
 viewBox="0.00 0.00 288.00 522.00" xmlns="http://www.w3.org/2000/svg" xmlns:xlink="http://www.w3.org/1999/xlink">
<g id="graph0" class="graph" transform="scale(1 1) rotate(0) translate(4 518)">
<title>Button::Listener</title>
<!-- Node1 -->
<g id="node1" class="node"><title>Node1</title>
<polygon fill="#bfbfbf" stroke="black" points="0,-247.5 0,-266.5 86,-266.5 86,-247.5 0,-247.5"/>
<text text-anchor="middle" x="43" y="-254.5" font-family="Helvetica,sans-Serif" font-size="10.00">Button::Listener</text>
</g>
<!-- Node2 -->
<g id="node2" class="node"><title>Node2</title>
<g id="a_node2"><a xlink:href="classAlertWindow.html" target="_top" xlink:title="A window that displays a message and has buttons for the user to react to it. ">
<polygon fill="none" stroke="black" points="165,-494.5 165,-513.5 237,-513.5 237,-494.5 165,-494.5"/>
<text text-anchor="middle" x="201" y="-501.5" font-family="Helvetica,sans-Serif" font-size="10.00">AlertWindow</text>
</a>
</g>
</g>
<!-- Node1&#45;&gt;Node2 -->
<g id="edge1" class="edge"><title>Node1&#45;&gt;Node2</title>
<path fill="none" stroke="#8b1a1a" d="M44.6901,-276.78C47.3464,-321.029 60.1783,-428.545 122,-485 133.527,-495.526 149.898,-500.479 164.667,-502.72"/>
<polygon fill="#8b1a1a" stroke="#8b1a1a" points="48.1727,-276.334 44.194,-266.514 41.1808,-276.672 48.1727,-276.334"/>
</g>
<!-- Node3 -->
<g id="node3" class="node"><title>Node3</title>
<g id="a_node3"><a xlink:href="classAudioDeviceSelectorComponent.html" target="_top" xlink:title="A component containing controls to let the user change the audio settings of an AudioDeviceManager ob...">
<polygon fill="none" stroke="black" points="122,-456.5 122,-475.5 280,-475.5 280,-456.5 122,-456.5"/>
<text text-anchor="middle" x="201" y="-463.5" font-family="Helvetica,sans-Serif" font-size="10.00">AudioDeviceSelectorComponent</text>
</a>
</g>
</g>
<!-- Node1&#45;&gt;Node3 -->
<g id="edge2" class="edge"><title>Node1&#45;&gt;Node3</title>
<path fill="none" stroke="#8b1a1a" d="M46.2134,-276.636C51.6569,-315.358 69.3349,-401.724 122,-447 126.439,-450.816 131.521,-453.891 136.915,-456.366"/>
<polygon fill="#8b1a1a" stroke="#8b1a1a" points="49.6763,-276.123 44.9371,-266.647 42.7328,-277.01 49.6763,-276.123"/>
</g>
<!-- Node4 -->
<g id="node4" class="node"><title>Node4</title>
<g id="a_node4"><a xlink:href="classBooleanPropertyComponent.html" target="_top" xlink:title="A PropertyComponent that contains an on/off toggle button. ">
<polygon fill="none" stroke="black" points="131.5,-418.5 131.5,-437.5 270.5,-437.5 270.5,-418.5 131.5,-418.5"/>
<text text-anchor="middle" x="201" y="-425.5" font-family="Helvetica,sans-Serif" font-size="10.00">BooleanPropertyComponent</text>
</a>
</g>
</g>
<!-- Node1&#45;&gt;Node4 -->
<g id="edge3" class="edge"><title>Node1&#45;&gt;Node4</title>
<path fill="none" stroke="#8b1a1a" d="M48.4593,-276.711C56.914,-309.41 78.4597,-374.66 122,-409 126.925,-412.884 132.528,-415.99 138.419,-418.47"/>
<polygon fill="#8b1a1a" stroke="#8b1a1a" points="51.7657,-275.496 46.0001,-266.607 44.9642,-277.151 51.7657,-275.496"/>
</g>
<!-- Node5 -->
<g id="node5" class="node"><title>Node5</title>
<g id="a_node5"><a xlink:href="classButtonPropertyComponent.html" target="_top" xlink:title="A PropertyComponent that contains a button. ">
<polygon fill="none" stroke="black" points="135,-380.5 135,-399.5 267,-399.5 267,-380.5 135,-380.5"/>
<text text-anchor="middle" x="201" y="-387.5" font-family="Helvetica,sans-Serif" font-size="10.00">ButtonPropertyComponent</text>
</a>
</g>
</g>
<!-- Node1&#45;&gt;Node5 -->
<g id="edge4" class="edge"><title>Node1&#45;&gt;Node5</title>
<path fill="none" stroke="#8b1a1a" d="M51.7903,-276.121C63.2548,-301.78 87.151,-346.91 122,-371 127.618,-374.883 133.943,-377.976 140.498,-380.439"/>
<polygon fill="#8b1a1a" stroke="#8b1a1a" points="54.9211,-274.541 47.7634,-266.73 48.4876,-277.3 54.9211,-274.541"/>
</g>
<!-- Node6 -->
<g id="node6" class="node"><title>Node6</title>
<g id="a_node6"><a xlink:href="classButtonTracker.html" target="_top" xlink:title="A class that automatically sends analytics events to the Analytics singleton when a button is clicked...">
<polygon fill="none" stroke="black" points="162,-342.5 162,-361.5 240,-361.5 240,-342.5 162,-342.5"/>
<text text-anchor="middle" x="201" y="-349.5" font-family="Helvetica,sans-Serif" font-size="10.00">ButtonTracker</text>
</a>
</g>
</g>
<!-- Node1&#45;&gt;Node6 -->
<g id="edge5" class="edge"><title>Node1&#45;&gt;Node6</title>
<path fill="none" stroke="#8b1a1a" d="M57.4899,-274.834C71.6545,-292.292 95.5195,-318.338 122,-333 134.193,-339.751 148.762,-344.127 161.991,-346.954"/>
<polygon fill="#8b1a1a" stroke="#8b1a1a" points="59.9393,-272.287 51.0044,-266.594 54.4386,-276.617 59.9393,-272.287"/>
</g>
<!-- Node7 -->
<g id="node7" class="node"><title>Node7</title>
<g id="a_node7"><a xlink:href="classFileBrowserComponent.html" target="_top" xlink:title="A component for browsing and selecting a file or directory to open or save. ">
<polygon fill="none" stroke="black" points="141.5,-304.5 141.5,-323.5 260.5,-323.5 260.5,-304.5 141.5,-304.5"/>
<text text-anchor="middle" x="201" y="-311.5" font-family="Helvetica,sans-Serif" font-size="10.00">FileBrowserComponent</text>
</a>
</g>
</g>
<!-- Node1&#45;&gt;Node7 -->
<g id="edge6" class="edge"><title>Node1&#45;&gt;Node7</title>
<path fill="none" stroke="#8b1a1a" d="M69.9857,-271.403C84.8718,-279.206 104.1,-288.544 122,-295 132.095,-298.641 143.174,-301.811 153.732,-304.463"/>
<polygon fill="#8b1a1a" stroke="#8b1a1a" points="71.3574,-268.168 60.888,-266.542 68.0588,-274.342 71.3574,-268.168"/>
</g>
<!-- Node8 -->
<g id="node8" class="node"><title>Node8</title>
<g id="a_node8"><a xlink:href="classFileChooserDialogBox.html" target="_top" xlink:title="A file open/save dialog box. ">
<polygon fill="none" stroke="black" points="144,-266.5 144,-285.5 258,-285.5 258,-266.5 144,-266.5"/>
<text text-anchor="middle" x="201" y="-273.5" font-family="Helvetica,sans-Serif" font-size="10.00">FileChooserDialogBox</text>
</a>
</g>
</g>
<!-- Node1&#45;&gt;Node8 -->
<g id="edge7" class="edge"><title>Node1&#45;&gt;Node8</title>
<path fill="none" stroke="#8b1a1a" d="M96.5154,-263.396C111.778,-265.255 128.504,-267.292 143.974,-269.176"/>
<polygon fill="#8b1a1a" stroke="#8b1a1a" points="96.5657,-259.876 86.2158,-262.142 95.7193,-266.825 96.5657,-259.876"/>
</g>
<!-- Node9 -->
<g id="node9" class="node"><title>Node9</title>
<g id="a_node9"><a xlink:href="classFilenameComponent.html" target="_top" xlink:title="Shows a filename as an editable text box, with a &#39;browse&#39; button and a drop&#45;down list for recently se...">
<polygon fill="none" stroke="black" points="147.5,-228.5 147.5,-247.5 254.5,-247.5 254.5,-228.5 147.5,-228.5"/>
<text text-anchor="middle" x="201" y="-235.5" font-family="Helvetica,sans-Serif" font-size="10.00">FilenameComponent</text>
</a>
</g>
</g>
<!-- Node1&#45;&gt;Node9 -->
<g id="edge8" class="edge"><title>Node1&#45;&gt;Node9</title>
<path fill="none" stroke="#8b1a1a" d="M96.2251,-250.639C112.709,-248.632 130.923,-246.413 147.431,-244.403"/>
<polygon fill="#8b1a1a" stroke="#8b1a1a" points="95.7193,-247.175 86.2158,-251.858 96.5657,-254.124 95.7193,-247.175"/>
</g>
<!-- Node10 -->
<g id="node10" class="node"><title>Node10</title>
<g id="a_node10"><a xlink:href="classFileSearchPathListComponent.html" target="_top" xlink:title="Shows a set of file paths in a list, allowing them to be added, removed or re&#45;ordered. ">
<polygon fill="none" stroke="black" points="126.5,-190.5 126.5,-209.5 275.5,-209.5 275.5,-190.5 126.5,-190.5"/>
<text text-anchor="middle" x="201" y="-197.5" font-family="Helvetica,sans-Serif" font-size="10.00">FileSearchPathListComponent</text>
</a>
</g>
</g>
<!-- Node1&#45;&gt;Node10 -->
<g id="edge9" class="edge"><title>Node1&#45;&gt;Node10</title>
<path fill="none" stroke="#8b1a1a" d="M69.9857,-242.597C84.8718,-234.794 104.1,-225.456 122,-219 132.095,-215.359 143.174,-212.189 153.732,-209.537"/>
<polygon fill="#8b1a1a" stroke="#8b1a1a" points="68.0588,-239.658 60.888,-247.458 71.3574,-245.832 68.0588,-239.658"/>
</g>
<!-- Node11 -->
<g id="node11" class="node"><title>Node11</title>
<g id="a_node11"><a xlink:href="classOnlineUnlockForm.html" target="_top" xlink:title="Acts as a GUI which asks the user for their details, and calls the approriate methods on your OnlineU...">
<polygon fill="none" stroke="black" points="152,-152.5 152,-171.5 250,-171.5 250,-152.5 152,-152.5"/>
<text text-anchor="middle" x="201" y="-159.5" font-family="Helvetica,sans-Serif" font-size="10.00">OnlineUnlockForm</text>
</a>
</g>
</g>
<!-- Node1&#45;&gt;Node11 -->
<g id="edge10" class="edge"><title>Node1&#45;&gt;Node11</title>
<path fill="none" stroke="#8b1a1a" d="M57.4899,-239.166C71.6545,-221.708 95.5195,-195.662 122,-181 131.145,-175.936 141.626,-172.209 151.876,-169.47"/>
<polygon fill="#8b1a1a" stroke="#8b1a1a" points="54.4386,-237.383 51.0044,-247.406 59.9393,-241.713 54.4386,-237.383"/>
</g>
<!-- Node12 -->
<g id="node12" class="node"><title>Node12</title>
<g id="a_node12"><a xlink:href="classPluginListComponent.html" target="_top" xlink:title="A component displaying a list of plugins, with options to scan for them, add, remove and sort them...">
<polygon fill="none" stroke="black" points="146,-114.5 146,-133.5 256,-133.5 256,-114.5 146,-114.5"/>
<text text-anchor="middle" x="201" y="-121.5" font-family="Helvetica,sans-Serif" font-size="10.00">PluginListComponent</text>
</a>
</g>
</g>
<!-- Node1&#45;&gt;Node12 -->
<g id="edge11" class="edge"><title>Node1&#45;&gt;Node12</title>
<path fill="none" stroke="#8b1a1a" d="M51.7903,-237.879C63.2548,-212.22 87.151,-167.09 122,-143 129.108,-138.086 137.349,-134.438 145.756,-131.731"/>
<polygon fill="#8b1a1a" stroke="#8b1a1a" points="48.4876,-236.7 47.7634,-247.27 54.9211,-239.459 48.4876,-236.7"/>
</g>
<!-- Node13 -->
<g id="node13" class="node"><title>Node13</title>
<g id="a_node13"><a xlink:href="classPreferencesPanel.html" target="_top" xlink:title="A component with a set of buttons at the top for changing between pages of preferences. ">
<polygon fill="none" stroke="black" points="154,-76.5 154,-95.5 248,-95.5 248,-76.5 154,-76.5"/>
<text text-anchor="middle" x="201" y="-83.5" font-family="Helvetica,sans-Serif" font-size="10.00">PreferencesPanel</text>
</a>
</g>
</g>
<!-- Node1&#45;&gt;Node13 -->
<g id="edge12" class="edge"><title>Node1&#45;&gt;Node13</title>
<path fill="none" stroke="#8b1a1a" d="M48.4593,-237.289C56.914,-204.59 78.4597,-139.34 122,-105 131.083,-97.8362 142.476,-93.3204 153.725,-90.4887"/>
<polygon fill="#8b1a1a" stroke="#8b1a1a" points="44.9642,-236.849 46.0001,-247.393 51.7657,-238.504 44.9642,-236.849"/>
</g>
<!-- Node14 -->
<g id="node14" class="node"><title>Node14</title>
<g id="a_node14"><a xlink:href="classStandaloneFilterWindow.html" target="_top" xlink:title="A class that can be used to run a simple standalone application containing your filter. ">
<polygon fill="none" stroke="black" points="140,-38.5 140,-57.5 262,-57.5 262,-38.5 140,-38.5"/>
<text text-anchor="middle" x="201" y="-45.5" font-family="Helvetica,sans-Serif" font-size="10.00">StandaloneFilterWindow</text>
</a>
</g>
</g>
<!-- Node1&#45;&gt;Node14 -->
<g id="edge13" class="edge"><title>Node1&#45;&gt;Node14</title>
<path fill="none" stroke="midnightblue" d="M46.2134,-237.364C51.6569,-198.642 69.3349,-112.276 122,-67 127.179,-62.5479 133.233,-59.104 139.637,-56.4455"/>
<polygon fill="midnightblue" stroke="midnightblue" points="42.7328,-236.99 44.9371,-247.353 49.6763,-237.877 42.7328,-236.99"/>
</g>
<!-- Node15 -->
<g id="node15" class="node"><title>Node15</title>
<g id="a_node15"><a xlink:href="classToolbar.html" target="_top" xlink:title="A toolbar component. ">
<polygon fill="none" stroke="black" points="176.5,-0.5 176.5,-19.5 225.5,-19.5 225.5,-0.5 176.5,-0.5"/>
<text text-anchor="middle" x="201" y="-7.5" font-family="Helvetica,sans-Serif" font-size="10.00">Toolbar</text>
</a>
</g>
</g>
<!-- Node1&#45;&gt;Node15 -->
<g id="edge14" class="edge"><title>Node1&#45;&gt;Node15</title>
<path fill="none" stroke="#8b1a1a" d="M44.6901,-237.22C47.3464,-192.971 60.1783,-85.4549 122,-29 136.718,-15.5601 159.331,-11.2066 176.427,-9.98185"/>
<polygon fill="#8b1a1a" stroke="#8b1a1a" points="41.1808,-237.328 44.194,-247.486 48.1727,-237.666 41.1808,-237.328"/>
</g>
</g>
</svg>
