<?xml version="1.0" encoding="UTF-8" standalone="no"?>
<!DOCTYPE svg PUBLIC "-//W3C//DTD SVG 1.1//EN"
 "http://www.w3.org/Graphics/SVG/1.1/DTD/svg11.dtd">
<!-- Generated by graphviz version 2.36.0 (20140111.2315)
 -->
<!-- Title: AudioPluginInstance Pages: 1 -->
<svg width="136pt" height="152pt"
 viewBox="0.00 0.00 136.00 152.00" xmlns="http://www.w3.org/2000/svg" xmlns:xlink="http://www.w3.org/1999/xlink">
<g id="graph0" class="graph" transform="scale(1 1) rotate(0) translate(4 148)">
<title>AudioPluginInstance</title>
<!-- Node1 -->
<g id="node1" class="node"><title>Node1</title>
<polygon fill="#bfbfbf" stroke="black" points="11,-68.5 11,-87.5 117,-87.5 117,-68.5 11,-68.5"/>
<text text-anchor="middle" x="64" y="-75.5" font-family="Helvetica,sans-Serif" font-size="10.00">AudioPluginInstance</text>
</g>
<!-- Node3 -->
<g id="node3" class="node"><title>Node3</title>
<g id="a_node3"><a xlink:href="classAudioProcessorGraph_1_1AudioGraphIOProcessor.html" target="_top" xlink:title="A special type of AudioProcessor that can live inside an AudioProcessorGraph in order to use the audi...">
<polygon fill="none" stroke="black" points="0,-1 0,-31 128,-31 128,-1 0,-1"/>
<text text-anchor="start" x="8" y="-19" font-family="Helvetica,sans-Serif" font-size="10.00">AudioProcessorGraph</text>
<text text-anchor="middle" x="64" y="-8" font-family="Helvetica,sans-Serif" font-size="10.00">::AudioGraphIOProcessor</text>
</a>
</g>
</g>
<!-- Node1&#45;&gt;Node3 -->
<g id="edge2" class="edge"><title>Node1&#45;&gt;Node3</title>
<path fill="none" stroke="midnightblue" d="M64,-58.3707C64,-49.5849 64,-39.2721 64,-31.1408"/>
<polygon fill="midnightblue" stroke="midnightblue" points="60.5001,-58.4034 64,-68.4035 67.5001,-58.4035 60.5001,-58.4034"/>
</g>
<!-- Node2 -->
<g id="node2" class="node"><title>Node2</title>
<g id="a_node2"><a xlink:href="classAudioProcessor.html" target="_top" xlink:title="Base class for audio processing filters or plugins. ">
<polygon fill="none" stroke="black" points="21,-124.5 21,-143.5 107,-143.5 107,-124.5 21,-124.5"/>
<text text-anchor="middle" x="64" y="-131.5" font-family="Helvetica,sans-Serif" font-size="10.00">AudioProcessor</text>
</a>
</g>
</g>
<!-- Node2&#45;&gt;Node1 -->
<g id="edge1" class="edge"><title>Node2&#45;&gt;Node1</title>
<path fill="none" stroke="midnightblue" d="M64,-113.805C64,-104.91 64,-94.7798 64,-87.7511"/>
<polygon fill="midnightblue" stroke="midnightblue" points="60.5001,-114.083 64,-124.083 67.5001,-114.083 60.5001,-114.083"/>
</g>
</g>
</svg>
