<?xml version="1.0" encoding="UTF-8" standalone="no"?>
<!DOCTYPE svg PUBLIC "-//W3C//DTD SVG 1.1//EN"
 "http://www.w3.org/Graphics/SVG/1.1/DTD/svg11.dtd">
<!-- Generated by graphviz version 2.36.0 (20140111.2315)
 -->
<!-- Title: juce::ValueTree::Listener Pages: 1 -->
<svg width="312pt" height="164pt"
 viewBox="0.00 0.00 312.00 164.00" xmlns="http://www.w3.org/2000/svg" xmlns:xlink="http://www.w3.org/1999/xlink">
<g id="graph0" class="graph" transform="scale(1 1) rotate(0) translate(4 160)">
<title>juce::ValueTree::Listener</title>
<!-- Node1 -->
<g id="node1" class="node"><title>Node1</title>
<polygon fill="#bfbfbf" stroke="black" points="0.5,-60.5 0.5,-79.5 125.5,-79.5 125.5,-60.5 0.5,-60.5"/>
<text text-anchor="middle" x="63" y="-67.5" font-family="Helvetica,sans-Serif" font-size="10.00">juce::ValueTree::Listener</text>
</g>
<!-- Node2 -->
<g id="node2" class="node"><title>Node2</title>
<g id="a_node2"><a xlink:href="classjuce_1_1AudioProcessorValueTreeState.html" target="_top" xlink:title="This class contains a ValueTree which is used to manage an AudioProcessor&#39;s entire state...">
<polygon fill="none" stroke="black" points="166,-126 166,-156 300,-156 300,-126 166,-126"/>
<text text-anchor="start" x="174" y="-144" font-family="Helvetica,sans-Serif" font-size="10.00">juce::AudioProcessorValue</text>
<text text-anchor="middle" x="233" y="-133" font-family="Helvetica,sans-Serif" font-size="10.00">TreeState</text>
</a>
</g>
</g>
<!-- Node1&#45;&gt;Node2 -->
<g id="edge1" class="edge"><title>Node1&#45;&gt;Node2</title>
<path fill="none" stroke="#8b1a1a" d="M92.0987,-84.0663C111.52,-93.5707 138.067,-106.136 162,-116 170.232,-119.393 179.112,-122.773 187.693,-125.901"/>
<polygon fill="#8b1a1a" stroke="#8b1a1a" points="93.4296,-80.8202 82.9125,-79.5388 90.335,-87.0991 93.4296,-80.8202"/>
</g>
<!-- Node3 -->
<g id="node3" class="node"><title>Node3</title>
<g id="a_node3"><a xlink:href="classjuce_1_1CachedValue.html" target="_top" xlink:title="This class acts as a typed wrapper around a property inside a ValueTree. ">
<polygon fill="none" stroke="black" points="180.5,-77 180.5,-107 285.5,-107 285.5,-77 180.5,-77"/>
<text text-anchor="start" x="188.5" y="-95" font-family="Helvetica,sans-Serif" font-size="10.00">juce::CachedValue&lt;</text>
<text text-anchor="middle" x="233" y="-84" font-family="Helvetica,sans-Serif" font-size="10.00"> Type &gt;</text>
</a>
</g>
</g>
<!-- Node1&#45;&gt;Node3 -->
<g id="edge2" class="edge"><title>Node1&#45;&gt;Node3</title>
<path fill="none" stroke="#8b1a1a" d="M135.849,-79.4088C150.804,-81.3672 166.284,-83.3943 180.338,-85.2348"/>
<polygon fill="#8b1a1a" stroke="#8b1a1a" points="135.973,-75.8952 125.603,-78.0671 135.064,-82.836 135.973,-75.8952"/>
</g>
<!-- Node4 -->
<g id="node4" class="node"><title>Node4</title>
<g id="a_node4"><a xlink:href="classjuce_1_1ComponentBuilder.html" target="_top" xlink:title="Loads and maintains a tree of Components from a ValueTree that represents them. ">
<polygon fill="none" stroke="black" points="172.5,-38.5 172.5,-57.5 293.5,-57.5 293.5,-38.5 172.5,-38.5"/>
<text text-anchor="middle" x="233" y="-45.5" font-family="Helvetica,sans-Serif" font-size="10.00">juce::ComponentBuilder</text>
</a>
</g>
</g>
<!-- Node1&#45;&gt;Node4 -->
<g id="edge3" class="edge"><title>Node1&#45;&gt;Node4</title>
<path fill="none" stroke="#8b1a1a" d="M135.75,-60.6042C147.956,-59.0058 160.514,-57.3612 172.365,-55.8094"/>
<polygon fill="#8b1a1a" stroke="#8b1a1a" points="135.064,-57.164 125.603,-61.9329 135.973,-64.1048 135.064,-57.164"/>
</g>
<!-- Node5 -->
<g id="node5" class="node"><title>Node5</title>
<g id="a_node5"><a xlink:href="classjuce_1_1ValueTreeSynchroniser.html" target="_top" xlink:title="This class can be used to watch for all changes to the state of a ValueTree, and to convert them to a...">
<polygon fill="none" stroke="black" points="162,-0.5 162,-19.5 304,-19.5 304,-0.5 162,-0.5"/>
<text text-anchor="middle" x="233" y="-7.5" font-family="Helvetica,sans-Serif" font-size="10.00">juce::ValueTreeSynchroniser</text>
</a>
</g>
</g>
<!-- Node1&#45;&gt;Node5 -->
<g id="edge4" class="edge"><title>Node1&#45;&gt;Node5</title>
<path fill="none" stroke="#8b1a1a" d="M93.867,-56.3023C113.08,-47.792 138.721,-36.9905 162,-29 172.005,-25.566 182.98,-22.3399 193.213,-19.555"/>
<polygon fill="#8b1a1a" stroke="#8b1a1a" points="92.4195,-53.1155 84.7214,-60.395 95.2788,-59.505 92.4195,-53.1155"/>
</g>
</g>
</svg>
