<?xml version="1.0" encoding="UTF-8" standalone="no"?>
<!DOCTYPE svg PUBLIC "-//W3C//DTD SVG 1.1//EN"
 "http://www.w3.org/Graphics/SVG/1.1/DTD/svg11.dtd">
<!-- Generated by graphviz version 2.36.0 (20140111.2315)
 -->
<!-- Title: juce::AsyncUpdater Pages: 1 -->
<svg width="304pt" height="381pt"
 viewBox="0.00 0.00 304.00 381.00" xmlns="http://www.w3.org/2000/svg" xmlns:xlink="http://www.w3.org/1999/xlink">
<g id="graph0" class="graph" transform="scale(1 1) rotate(0) translate(4 377)">
<title>juce::AsyncUpdater</title>
<!-- Node1 -->
<g id="node1" class="node"><title>Node1</title>
<polygon fill="#bfbfbf" stroke="black" points="0.5,-171.5 0.5,-190.5 103.5,-190.5 103.5,-171.5 0.5,-171.5"/>
<text text-anchor="middle" x="52" y="-178.5" font-family="Helvetica,sans-Serif" font-size="10.00">juce::AsyncUpdater</text>
</g>
<!-- Node2 -->
<g id="node2" class="node"><title>Node2</title>
<g id="a_node2"><a xlink:href="classjuce_1_1ApplicationCommandManager.html" target="_top" xlink:title="One of these objects holds a list of all the commands your app can perform, and despatches these comm...">
<polygon fill="none" stroke="black" points="151,-343 151,-373 285,-373 285,-343 151,-343"/>
<text text-anchor="start" x="159" y="-361" font-family="Helvetica,sans-Serif" font-size="10.00">juce::ApplicationCommand</text>
<text text-anchor="middle" x="218" y="-350" font-family="Helvetica,sans-Serif" font-size="10.00">Manager</text>
</a>
</g>
</g>
<!-- Node1&#45;&gt;Node2 -->
<g id="edge1" class="edge"><title>Node1&#45;&gt;Node2</title>
<path fill="none" stroke="#8b1a1a" d="M58.9591,-200.424C69.8272,-232.651 95.9051,-297.164 140,-333 144.799,-336.9 150.223,-340.198 155.916,-342.986"/>
<polygon fill="#8b1a1a" stroke="#8b1a1a" points="62.2606,-199.258 55.8524,-190.82 55.6004,-201.412 62.2606,-199.258"/>
</g>
<!-- Node3 -->
<g id="node3" class="node"><title>Node3</title>
<g id="a_node3"><a xlink:href="classjuce_1_1AudioProcessorGraph.html" target="_top" xlink:title="A type of AudioProcessor which plays back a graph of other AudioProcessors. ">
<polygon fill="none" stroke="black" points="150,-304.5 150,-323.5 286,-323.5 286,-304.5 150,-304.5"/>
<text text-anchor="middle" x="218" y="-311.5" font-family="Helvetica,sans-Serif" font-size="10.00">juce::AudioProcessorGraph</text>
</a>
</g>
</g>
<!-- Node1&#45;&gt;Node3 -->
<g id="edge2" class="edge"><title>Node1&#45;&gt;Node3</title>
<path fill="none" stroke="#8b1a1a" d="M62.1126,-199.771C75.5285,-225.361 103.057,-270.774 140,-295 145.872,-298.851 152.461,-301.921 159.247,-304.37"/>
<polygon fill="#8b1a1a" stroke="#8b1a1a" points="65.1701,-198.062 57.527,-190.725 58.9264,-201.227 65.1701,-198.062"/>
</g>
<!-- Node4 -->
<g id="node4" class="node"><title>Node4</title>
<g id="a_node4"><a xlink:href="classjuce_1_1ComboBox.html" target="_top" xlink:title="A component that lets the user choose from a drop&#45;down list of choices. ">
<polygon fill="none" stroke="black" points="173.5,-266.5 173.5,-285.5 262.5,-285.5 262.5,-266.5 173.5,-266.5"/>
<text text-anchor="middle" x="218" y="-273.5" font-family="Helvetica,sans-Serif" font-size="10.00">juce::ComboBox</text>
</a>
</g>
</g>
<!-- Node1&#45;&gt;Node4 -->
<g id="edge3" class="edge"><title>Node1&#45;&gt;Node4</title>
<path fill="none" stroke="#8b1a1a" d="M68.0494,-198.288C84.1435,-215.691 111.259,-242.038 140,-257 150.259,-262.341 162.076,-266.222 173.324,-269.027"/>
<polygon fill="#8b1a1a" stroke="#8b1a1a" points="70.3708,-195.636 61.0751,-190.553 65.1718,-200.324 70.3708,-195.636"/>
</g>
<!-- Node5 -->
<g id="node5" class="node"><title>Node5</title>
<g id="a_node5"><a xlink:href="classjuce_1_1Desktop.html" target="_top" xlink:title="Describes and controls aspects of the computer&#39;s desktop. ">
<polygon fill="none" stroke="black" points="179.5,-228.5 179.5,-247.5 256.5,-247.5 256.5,-228.5 179.5,-228.5"/>
<text text-anchor="middle" x="218" y="-235.5" font-family="Helvetica,sans-Serif" font-size="10.00">juce::Desktop</text>
</a>
</g>
</g>
<!-- Node1&#45;&gt;Node5 -->
<g id="edge4" class="edge"><title>Node1&#45;&gt;Node5</title>
<path fill="none" stroke="#8b1a1a" d="M81.5548,-194.938C98.3045,-202.741 120.036,-212.232 140,-219 152.649,-223.288 166.767,-227.055 179.425,-230.079"/>
<polygon fill="#8b1a1a" stroke="#8b1a1a" points="82.8562,-191.682 72.3196,-190.572 79.8643,-198.011 82.8562,-191.682"/>
</g>
<!-- Node6 -->
<g id="node6" class="node"><title>Node6</title>
<g id="a_node6"><a xlink:href="classjuce_1_1FilenameComponent.html" target="_top" xlink:title="Shows a filename as an editable text box, with a &#39;browse&#39; button and a drop&#45;down list for recently se...">
<polygon fill="none" stroke="black" points="152.5,-190.5 152.5,-209.5 283.5,-209.5 283.5,-190.5 152.5,-190.5"/>
<text text-anchor="middle" x="218" y="-197.5" font-family="Helvetica,sans-Serif" font-size="10.00">juce::FilenameComponent</text>
</a>
</g>
</g>
<!-- Node1&#45;&gt;Node6 -->
<g id="edge5" class="edge"><title>Node1&#45;&gt;Node6</title>
<path fill="none" stroke="#8b1a1a" d="M113.52,-188.011C126.187,-189.479 139.59,-191.032 152.4,-192.516"/>
<polygon fill="#8b1a1a" stroke="#8b1a1a" points="113.88,-184.53 103.544,-186.856 113.074,-191.483 113.88,-184.53"/>
</g>
<!-- Node7 -->
<g id="node7" class="node"><title>Node7</title>
<g id="a_node7"><a xlink:href="classjuce_1_1MenuBarModel.html" target="_top" xlink:title="A class for controlling MenuBar components. ">
<polygon fill="none" stroke="black" points="165,-152.5 165,-171.5 271,-171.5 271,-152.5 165,-152.5"/>
<text text-anchor="middle" x="218" y="-159.5" font-family="Helvetica,sans-Serif" font-size="10.00">juce::MenuBarModel</text>
</a>
</g>
</g>
<!-- Node1&#45;&gt;Node7 -->
<g id="edge6" class="edge"><title>Node1&#45;&gt;Node7</title>
<path fill="none" stroke="#8b1a1a" d="M113.809,-173.955C130.604,-172.009 148.672,-169.916 164.924,-168.033"/>
<polygon fill="#8b1a1a" stroke="#8b1a1a" points="113.074,-170.517 103.544,-175.144 113.88,-177.47 113.074,-170.517"/>
</g>
<!-- Node8 -->
<g id="node8" class="node"><title>Node8</title>
<g id="a_node8"><a xlink:href="classjuce_1_1ModalComponentManager.html" target="_top" xlink:title="Manages the system&#39;s stack of modal components. ">
<polygon fill="none" stroke="black" points="140.5,-114.5 140.5,-133.5 295.5,-133.5 295.5,-114.5 140.5,-114.5"/>
<text text-anchor="middle" x="218" y="-121.5" font-family="Helvetica,sans-Serif" font-size="10.00">juce::ModalComponentManager</text>
</a>
</g>
</g>
<!-- Node1&#45;&gt;Node8 -->
<g id="edge7" class="edge"><title>Node1&#45;&gt;Node8</title>
<path fill="none" stroke="#8b1a1a" d="M81.5548,-167.062C98.3045,-159.259 120.036,-149.768 140,-143 150.432,-139.463 161.864,-136.282 172.651,-133.578"/>
<polygon fill="#8b1a1a" stroke="#8b1a1a" points="79.8643,-163.989 72.3196,-171.428 82.8562,-170.318 79.8643,-163.989"/>
</g>
<!-- Node9 -->
<g id="node9" class="node"><title>Node9</title>
<g id="a_node9"><a xlink:href="classjuce_1_1ScrollBar.html" target="_top" xlink:title="A scrollbar component. ">
<polygon fill="none" stroke="black" points="178,-76.5 178,-95.5 258,-95.5 258,-76.5 178,-76.5"/>
<text text-anchor="middle" x="218" y="-83.5" font-family="Helvetica,sans-Serif" font-size="10.00">juce::ScrollBar</text>
</a>
</g>
</g>
<!-- Node1&#45;&gt;Node9 -->
<g id="edge8" class="edge"><title>Node1&#45;&gt;Node9</title>
<path fill="none" stroke="midnightblue" d="M68.0494,-163.712C84.1435,-146.309 111.259,-119.962 140,-105 151.603,-98.96 165.198,-94.7864 177.708,-91.9256"/>
<polygon fill="midnightblue" stroke="midnightblue" points="65.1718,-161.676 61.0751,-171.447 70.3708,-166.364 65.1718,-161.676"/>
</g>
<!-- Node10 -->
<g id="node10" class="node"><title>Node10</title>
<g id="a_node10"><a xlink:href="classjuce_1_1TableHeaderComponent.html" target="_top" xlink:title="A component that displays a strip of column headings for a table, and allows these to be resized...">
<polygon fill="none" stroke="black" points="145,-38.5 145,-57.5 291,-57.5 291,-38.5 145,-38.5"/>
<text text-anchor="middle" x="218" y="-45.5" font-family="Helvetica,sans-Serif" font-size="10.00">juce::TableHeaderComponent</text>
</a>
</g>
</g>
<!-- Node1&#45;&gt;Node10 -->
<g id="edge9" class="edge"><title>Node1&#45;&gt;Node10</title>
<path fill="none" stroke="#8b1a1a" d="M62.1126,-162.229C75.5285,-136.639 103.057,-91.2263 140,-67 145.872,-63.1492 152.461,-60.0786 159.247,-57.6302"/>
<polygon fill="#8b1a1a" stroke="#8b1a1a" points="58.9264,-160.773 57.527,-171.275 65.1701,-163.938 58.9264,-160.773"/>
</g>
<!-- Node11 -->
<g id="node11" class="node"><title>Node11</title>
<g id="a_node11"><a xlink:href="classjuce_1_1Value_1_1ValueSource.html" target="_top" xlink:title="Used internally by the Value class as the base class for its shared value objects. ">
<polygon fill="none" stroke="black" points="154.5,-0.5 154.5,-19.5 281.5,-19.5 281.5,-0.5 154.5,-0.5"/>
<text text-anchor="middle" x="218" y="-7.5" font-family="Helvetica,sans-Serif" font-size="10.00">juce::Value::ValueSource</text>
</a>
</g>
</g>
<!-- Node1&#45;&gt;Node11 -->
<g id="edge10" class="edge"><title>Node1&#45;&gt;Node11</title>
<path fill="none" stroke="#8b1a1a" d="M58.5333,-161.694C68.9012,-129.108 94.4254,-63.39 140,-29 145.166,-25.102 151.03,-21.9948 157.162,-19.5196"/>
<polygon fill="#8b1a1a" stroke="#8b1a1a" points="55.1482,-160.796 55.5912,-171.382 61.8461,-162.83 55.1482,-160.796"/>
</g>
</g>
</svg>
