<?xml version="1.0" encoding="UTF-8" standalone="no"?>
<!DOCTYPE svg PUBLIC "-//W3C//DTD SVG 1.1//EN"
 "http://www.w3.org/Graphics/SVG/1.1/DTD/svg11.dtd">
<!-- Generated by graphviz version 2.36.0 (20140111.2315)
 -->
<!-- Title: juce::Drawable::ValueTreeWrapperBase Pages: 1 -->
<svg width="468pt" height="185pt"
 viewBox="0.00 0.00 468.00 185.00" xmlns="http://www.w3.org/2000/svg" xmlns:xlink="http://www.w3.org/1999/xlink">
<g id="graph0" class="graph" transform="scale(1 1) rotate(0) translate(4 181)">
<title>juce::Drawable::ValueTreeWrapperBase</title>
<!-- Node1 -->
<g id="node1" class="node"><title>Node1</title>
<polygon fill="#bfbfbf" stroke="black" points="0,-73 0,-103 132,-103 132,-73 0,-73"/>
<text text-anchor="start" x="8" y="-91" font-family="Helvetica,sans-Serif" font-size="10.00">juce::Drawable::ValueTree</text>
<text text-anchor="middle" x="66" y="-80" font-family="Helvetica,sans-Serif" font-size="10.00">WrapperBase</text>
</g>
<!-- Node2 -->
<g id="node2" class="node"><title>Node2</title>
<g id="a_node2"><a xlink:href="classjuce_1_1DrawableComposite_1_1ValueTreeWrapper.html" target="_top" xlink:title="Internally&#45;used class for wrapping a DrawableComposite&#39;s state into a ValueTree. ">
<polygon fill="none" stroke="black" points="168.5,-147 168.5,-177 297.5,-177 297.5,-147 168.5,-147"/>
<text text-anchor="start" x="176.5" y="-165" font-family="Helvetica,sans-Serif" font-size="10.00">juce::DrawableComposite</text>
<text text-anchor="middle" x="233" y="-154" font-family="Helvetica,sans-Serif" font-size="10.00">::ValueTreeWrapper</text>
</a>
</g>
</g>
<!-- Node1&#45;&gt;Node2 -->
<g id="edge1" class="edge"><title>Node1&#45;&gt;Node2</title>
<path fill="none" stroke="midnightblue" d="M105.829,-107.73C124.47,-116.972 147.223,-127.919 168,-137 175.651,-140.344 183.903,-143.729 191.856,-146.881"/>
<polygon fill="midnightblue" stroke="midnightblue" points="107.273,-104.539 96.7622,-103.209 104.15,-110.803 107.273,-104.539"/>
</g>
<!-- Node3 -->
<g id="node3" class="node"><title>Node3</title>
<g id="a_node3"><a xlink:href="classjuce_1_1DrawableImage_1_1ValueTreeWrapper.html" target="_top" xlink:title="Internally&#45;used class for wrapping a DrawableImage&#39;s state into a ValueTree. ">
<polygon fill="none" stroke="black" points="178.5,-98 178.5,-128 287.5,-128 287.5,-98 178.5,-98"/>
<text text-anchor="start" x="186.5" y="-116" font-family="Helvetica,sans-Serif" font-size="10.00">juce::DrawableImage</text>
<text text-anchor="middle" x="233" y="-105" font-family="Helvetica,sans-Serif" font-size="10.00">::ValueTreeWrapper</text>
</a>
</g>
</g>
<!-- Node1&#45;&gt;Node3 -->
<g id="edge2" class="edge"><title>Node1&#45;&gt;Node3</title>
<path fill="none" stroke="midnightblue" d="M142.358,-99.4178C154.522,-101.261 166.895,-103.136 178.408,-104.88"/>
<polygon fill="midnightblue" stroke="midnightblue" points="142.624,-95.9183 132.212,-97.8807 141.575,-102.839 142.624,-95.9183"/>
</g>
<!-- Node4 -->
<g id="node4" class="node"><title>Node4</title>
<g id="a_node4"><a xlink:href="classjuce_1_1DrawableShape_1_1FillAndStrokeState.html" target="_top" xlink:title="juce::DrawableShape\l::FillAndStrokeState">
<polygon fill="none" stroke="black" points="178,-49 178,-79 288,-79 288,-49 178,-49"/>
<text text-anchor="start" x="186" y="-67" font-family="Helvetica,sans-Serif" font-size="10.00">juce::DrawableShape</text>
<text text-anchor="middle" x="233" y="-56" font-family="Helvetica,sans-Serif" font-size="10.00">::FillAndStrokeState</text>
</a>
</g>
</g>
<!-- Node1&#45;&gt;Node4 -->
<g id="edge3" class="edge"><title>Node1&#45;&gt;Node4</title>
<path fill="none" stroke="midnightblue" d="M142.238,-77.0564C154.257,-75.308 166.484,-73.5296 177.887,-71.871"/>
<polygon fill="midnightblue" stroke="midnightblue" points="141.604,-73.6115 132.212,-78.5146 142.612,-80.5386 141.604,-73.6115"/>
</g>
<!-- Node7 -->
<g id="node7" class="node"><title>Node7</title>
<g id="a_node7"><a xlink:href="classjuce_1_1DrawableText_1_1ValueTreeWrapper.html" target="_top" xlink:title="Internally&#45;used class for wrapping a DrawableText&#39;s state into a ValueTree. ">
<polygon fill="none" stroke="black" points="181,-0 181,-30 285,-30 285,-0 181,-0"/>
<text text-anchor="start" x="189" y="-18" font-family="Helvetica,sans-Serif" font-size="10.00">juce::DrawableText</text>
<text text-anchor="middle" x="233" y="-7" font-family="Helvetica,sans-Serif" font-size="10.00">::ValueTreeWrapper</text>
</a>
</g>
</g>
<!-- Node1&#45;&gt;Node7 -->
<g id="edge6" class="edge"><title>Node1&#45;&gt;Node7</title>
<path fill="none" stroke="midnightblue" d="M106.28,-68.5329C124.853,-59.535 147.42,-48.8966 168,-40 175.774,-36.6394 184.159,-33.2198 192.218,-30.0326"/>
<polygon fill="midnightblue" stroke="midnightblue" points="104.696,-65.4116 97.2379,-72.9368 107.761,-71.7049 104.696,-65.4116"/>
</g>
<!-- Node5 -->
<g id="node5" class="node"><title>Node5</title>
<g id="a_node5"><a xlink:href="classjuce_1_1DrawablePath_1_1ValueTreeWrapper.html" target="_top" xlink:title="Internally&#45;used class for wrapping a DrawablePath&#39;s state into a ValueTree. ">
<polygon fill="none" stroke="black" points="345,-73 345,-103 449,-103 449,-73 345,-73"/>
<text text-anchor="start" x="353" y="-91" font-family="Helvetica,sans-Serif" font-size="10.00">juce::DrawablePath</text>
<text text-anchor="middle" x="397" y="-80" font-family="Helvetica,sans-Serif" font-size="10.00">::ValueTreeWrapper</text>
</a>
</g>
</g>
<!-- Node4&#45;&gt;Node5 -->
<g id="edge4" class="edge"><title>Node4&#45;&gt;Node5</title>
<path fill="none" stroke="midnightblue" d="M298.376,-73.5371C313.786,-75.8202 330.036,-78.2275 344.761,-80.4091"/>
<polygon fill="midnightblue" stroke="midnightblue" points="298.799,-70.0618 288.394,-72.0584 297.773,-76.9862 298.799,-70.0618"/>
</g>
<!-- Node6 -->
<g id="node6" class="node"><title>Node6</title>
<g id="a_node6"><a xlink:href="classjuce_1_1DrawableRectangle_1_1ValueTreeWrapper.html" target="_top" xlink:title="Internally&#45;used class for wrapping a DrawableRectangle&#39;s state into a ValueTree. ">
<polygon fill="none" stroke="black" points="334,-24 334,-54 460,-54 460,-24 334,-24"/>
<text text-anchor="start" x="342" y="-42" font-family="Helvetica,sans-Serif" font-size="10.00">juce::DrawableRectangle</text>
<text text-anchor="middle" x="397" y="-31" font-family="Helvetica,sans-Serif" font-size="10.00">::ValueTreeWrapper</text>
</a>
</g>
</g>
<!-- Node4&#45;&gt;Node6 -->
<g id="edge5" class="edge"><title>Node4&#45;&gt;Node6</title>
<path fill="none" stroke="midnightblue" d="M298.502,-54.0459C310.174,-52.2448 322.323,-50.3699 333.923,-48.5798"/>
<polygon fill="midnightblue" stroke="midnightblue" points="297.743,-50.6215 288.394,-55.6058 298.811,-57.5396 297.743,-50.6215"/>
</g>
</g>
</svg>
