<?xml version="1.0" encoding="UTF-8" standalone="no"?>
<!DOCTYPE svg PUBLIC "-//W3C//DTD SVG 1.1//EN"
 "http://www.w3.org/Graphics/SVG/1.1/DTD/svg11.dtd">
<!-- Generated by graphviz version 2.36.0 (20140111.2315)
 -->
<!-- Title: AudioProcessorParameter Pages: 1 -->
<svg width="492pt" height="152pt"
 viewBox="0.00 0.00 492.00 152.00" xmlns="http://www.w3.org/2000/svg" xmlns:xlink="http://www.w3.org/1999/xlink">
<g id="graph0" class="graph" transform="scale(1 1) rotate(0) translate(4 148)">
<title>AudioProcessorParameter</title>
<!-- Node1 -->
<g id="node1" class="node"><title>Node1</title>
<polygon fill="#bfbfbf" stroke="black" points="107.5,-124.5 107.5,-143.5 238.5,-143.5 238.5,-124.5 107.5,-124.5"/>
<text text-anchor="middle" x="173" y="-131.5" font-family="Helvetica,sans-Serif" font-size="10.00">AudioProcessorParameter</text>
</g>
<!-- Node2 -->
<g id="node2" class="node"><title>Node2</title>
<g id="a_node2"><a xlink:href="structAudioPluginInstance_1_1Parameter.html" target="_top" xlink:title="Structure used to describe plugin parameters. ">
<polygon fill="none" stroke="black" points="44,-57 44,-87 150,-87 150,-57 44,-57"/>
<text text-anchor="start" x="52" y="-75" font-family="Helvetica,sans-Serif" font-size="10.00">AudioPluginInstance</text>
<text text-anchor="middle" x="97" y="-64" font-family="Helvetica,sans-Serif" font-size="10.00">::Parameter</text>
</a>
</g>
</g>
<!-- Node1&#45;&gt;Node2 -->
<g id="edge1" class="edge"><title>Node1&#45;&gt;Node2</title>
<path fill="none" stroke="midnightblue" d="M154.09,-118.071C142.106,-108.61 126.699,-96.4466 114.912,-87.1408"/>
<polygon fill="midnightblue" stroke="midnightblue" points="152.093,-120.954 162.111,-124.403 156.431,-115.46 152.093,-120.954"/>
</g>
<!-- Node3 -->
<g id="node3" class="node"><title>Node3</title>
<g id="a_node3"><a xlink:href="classAudioProcessorParameterWithID.html" target="_top" xlink:title="This abstract base class is used by some AudioProcessorParameter helper classes. ">
<polygon fill="none" stroke="black" points="168.5,-62.5 168.5,-81.5 329.5,-81.5 329.5,-62.5 168.5,-62.5"/>
<text text-anchor="middle" x="249" y="-69.5" font-family="Helvetica,sans-Serif" font-size="10.00">AudioProcessorParameterWithID</text>
</a>
</g>
</g>
<!-- Node1&#45;&gt;Node3 -->
<g id="edge2" class="edge"><title>Node1&#45;&gt;Node3</title>
<path fill="none" stroke="midnightblue" d="M191.784,-118.17C206.363,-106.661 226.062,-91.1086 238.131,-81.5806"/>
<polygon fill="midnightblue" stroke="midnightblue" points="189.569,-115.46 183.889,-124.403 193.907,-120.954 189.569,-115.46"/>
</g>
<!-- Node4 -->
<g id="node4" class="node"><title>Node4</title>
<g id="a_node4"><a xlink:href="classAudioParameterBool.html" target="_top" xlink:title="Provides a class of AudioProcessorParameter that can be used as a boolean value. ">
<polygon fill="none" stroke="black" points="0,-0.5 0,-19.5 106,-19.5 106,-0.5 0,-0.5"/>
<text text-anchor="middle" x="53" y="-7.5" font-family="Helvetica,sans-Serif" font-size="10.00">AudioParameterBool</text>
</a>
</g>
</g>
<!-- Node3&#45;&gt;Node4 -->
<g id="edge3" class="edge"><title>Node3&#45;&gt;Node4</title>
<path fill="none" stroke="midnightblue" d="M211.212,-59.4322C173.119,-47.7711 115.209,-30.0436 81.0299,-19.5806"/>
<polygon fill="midnightblue" stroke="midnightblue" points="210.331,-62.823 220.918,-62.4035 212.38,-56.1295 210.331,-62.823"/>
</g>
<!-- Node5 -->
<g id="node5" class="node"><title>Node5</title>
<g id="a_node5"><a xlink:href="classAudioParameterChoice.html" target="_top" xlink:title="Provides a class of AudioProcessorParameter that can be used to select an indexed, named choice from a list. ">
<polygon fill="none" stroke="black" points="124.5,-0.5 124.5,-19.5 241.5,-19.5 241.5,-0.5 124.5,-0.5"/>
<text text-anchor="middle" x="183" y="-7.5" font-family="Helvetica,sans-Serif" font-size="10.00">AudioParameterChoice</text>
</a>
</g>
</g>
<!-- Node3&#45;&gt;Node5 -->
<g id="edge4" class="edge"><title>Node3&#45;&gt;Node5</title>
<path fill="none" stroke="midnightblue" d="M231.973,-55.5206C219.39,-44.0815 202.724,-28.9305 192.439,-19.5806"/>
<polygon fill="midnightblue" stroke="midnightblue" points="229.79,-58.2665 239.544,-62.4035 234.499,-53.0869 229.79,-58.2665"/>
</g>
<!-- Node6 -->
<g id="node6" class="node"><title>Node6</title>
<g id="a_node6"><a xlink:href="classAudioParameterFloat.html" target="_top" xlink:title="A subclass of AudioProcessorParameter that provides an easy way to create a parameter which maps onto...">
<polygon fill="none" stroke="black" points="260,-0.5 260,-19.5 368,-19.5 368,-0.5 260,-0.5"/>
<text text-anchor="middle" x="314" y="-7.5" font-family="Helvetica,sans-Serif" font-size="10.00">AudioParameterFloat</text>
</a>
</g>
</g>
<!-- Node3&#45;&gt;Node6 -->
<g id="edge5" class="edge"><title>Node3&#45;&gt;Node6</title>
<path fill="none" stroke="midnightblue" d="M265.769,-55.5206C278.162,-44.0815 294.575,-28.9305 304.704,-19.5806"/>
<polygon fill="midnightblue" stroke="midnightblue" points="263.287,-53.0488 258.313,-62.4035 268.035,-58.1925 263.287,-53.0488"/>
</g>
<!-- Node7 -->
<g id="node7" class="node"><title>Node7</title>
<g id="a_node7"><a xlink:href="classAudioParameterInt.html" target="_top" xlink:title="Provides a class of AudioProcessorParameter that can be used as an integer value with a given range...">
<polygon fill="none" stroke="black" points="386,-0.5 386,-19.5 484,-19.5 484,-0.5 386,-0.5"/>
<text text-anchor="middle" x="435" y="-7.5" font-family="Helvetica,sans-Serif" font-size="10.00">AudioParameterInt</text>
</a>
</g>
</g>
<!-- Node3&#45;&gt;Node7 -->
<g id="edge6" class="edge"><title>Node3&#45;&gt;Node7</title>
<path fill="none" stroke="midnightblue" d="M285.323,-59.283C321.477,-47.6204 376.103,-29.999 408.4,-19.5806"/>
<polygon fill="midnightblue" stroke="midnightblue" points="284.092,-56.0024 275.649,-62.4035 286.241,-62.6643 284.092,-56.0024"/>
</g>
</g>
</svg>
