<?xml version="1.0" encoding="UTF-8" standalone="no"?>
<!DOCTYPE svg PUBLIC "-//W3C//DTD SVG 1.1//EN"
 "http://www.w3.org/Graphics/SVG/1.1/DTD/svg11.dtd">
<!-- Generated by graphviz version 2.36.0 (20140111.2315)
 -->
<!-- Title: StandaloneFilterWindow Pages: 1 -->
<svg width="209pt" height="308pt"
 viewBox="0.00 0.00 209.00 308.00" xmlns="http://www.w3.org/2000/svg" xmlns:xlink="http://www.w3.org/1999/xlink">
<g id="graph0" class="graph" transform="scale(1 1) rotate(0) translate(4 304)">
<title>StandaloneFilterWindow</title>
<!-- Node1 -->
<g id="node1" class="node"><title>Node1</title>
<polygon fill="#bfbfbf" stroke="black" points="42,-0.5 42,-19.5 164,-19.5 164,-0.5 42,-0.5"/>
<text text-anchor="middle" x="103" y="-7.5" font-family="Helvetica,sans-Serif" font-size="10.00">StandaloneFilterWindow</text>
</g>
<!-- Node2 -->
<g id="node2" class="node"><title>Node2</title>
<g id="a_node2"><a xlink:href="classDocumentWindow.html" target="_top" xlink:title="A resizable window with a title bar and maximise, minimise and close buttons. ">
<polygon fill="none" stroke="black" points="-0.5,-56.5 -0.5,-75.5 96.5,-75.5 96.5,-56.5 -0.5,-56.5"/>
<text text-anchor="middle" x="48" y="-63.5" font-family="Helvetica,sans-Serif" font-size="10.00">DocumentWindow</text>
</a>
</g>
</g>
<!-- Node2&#45;&gt;Node1 -->
<g id="edge1" class="edge"><title>Node2&#45;&gt;Node1</title>
<path fill="none" stroke="midnightblue" d="M64.2938,-49.0024C74.0406,-39.4329 86.053,-27.6389 94.0869,-19.7511"/>
<polygon fill="midnightblue" stroke="midnightblue" points="61.7657,-46.5796 57.0821,-56.083 66.6699,-51.5746 61.7657,-46.5796"/>
</g>
<!-- Node3 -->
<g id="node3" class="node"><title>Node3</title>
<g id="a_node3"><a xlink:href="classResizableWindow.html" target="_top" xlink:title="A base class for top&#45;level windows that can be dragged around and resized. ">
<polygon fill="none" stroke="black" points="0.5,-112.5 0.5,-131.5 95.5,-131.5 95.5,-112.5 0.5,-112.5"/>
<text text-anchor="middle" x="48" y="-119.5" font-family="Helvetica,sans-Serif" font-size="10.00">ResizableWindow</text>
</a>
</g>
</g>
<!-- Node3&#45;&gt;Node2 -->
<g id="edge2" class="edge"><title>Node3&#45;&gt;Node2</title>
<path fill="none" stroke="midnightblue" d="M48,-101.805C48,-92.9102 48,-82.7798 48,-75.7511"/>
<polygon fill="midnightblue" stroke="midnightblue" points="44.5001,-102.083 48,-112.083 51.5001,-102.083 44.5001,-102.083"/>
</g>
<!-- Node4 -->
<g id="node4" class="node"><title>Node4</title>
<g id="a_node4"><a xlink:href="classTopLevelWindow.html" target="_top" xlink:title="A base class for top&#45;level windows. ">
<polygon fill="none" stroke="black" points="2,-168.5 2,-187.5 94,-187.5 94,-168.5 2,-168.5"/>
<text text-anchor="middle" x="48" y="-175.5" font-family="Helvetica,sans-Serif" font-size="10.00">TopLevelWindow</text>
</a>
</g>
</g>
<!-- Node4&#45;&gt;Node3 -->
<g id="edge3" class="edge"><title>Node4&#45;&gt;Node3</title>
<path fill="none" stroke="midnightblue" d="M48,-157.805C48,-148.91 48,-138.78 48,-131.751"/>
<polygon fill="midnightblue" stroke="midnightblue" points="44.5001,-158.083 48,-168.083 51.5001,-158.083 44.5001,-158.083"/>
</g>
<!-- Node5 -->
<g id="node5" class="node"><title>Node5</title>
<g id="a_node5"><a xlink:href="classComponent.html" target="_top" xlink:title="The base class for all JUCE user&#45;interface objects. ">
<polygon fill="none" stroke="black" points="14.5,-224.5 14.5,-243.5 81.5,-243.5 81.5,-224.5 14.5,-224.5"/>
<text text-anchor="middle" x="48" y="-231.5" font-family="Helvetica,sans-Serif" font-size="10.00">Component</text>
</a>
</g>
</g>
<!-- Node5&#45;&gt;Node4 -->
<g id="edge4" class="edge"><title>Node5&#45;&gt;Node4</title>
<path fill="none" stroke="midnightblue" d="M48,-213.805C48,-204.91 48,-194.78 48,-187.751"/>
<polygon fill="midnightblue" stroke="midnightblue" points="44.5001,-214.083 48,-224.083 51.5001,-214.083 44.5001,-214.083"/>
</g>
<!-- Node6 -->
<g id="node6" class="node"><title>Node6</title>
<g id="a_node6"><a xlink:href="classMouseListener.html" target="_top" xlink:title="A MouseListener can be registered with a component to receive callbacks about mouse events that happe...">
<polygon fill="none" stroke="black" points="8,-280.5 8,-299.5 88,-299.5 88,-280.5 8,-280.5"/>
<text text-anchor="middle" x="48" y="-287.5" font-family="Helvetica,sans-Serif" font-size="10.00">MouseListener</text>
</a>
</g>
</g>
<!-- Node6&#45;&gt;Node5 -->
<g id="edge5" class="edge"><title>Node6&#45;&gt;Node5</title>
<path fill="none" stroke="midnightblue" d="M48,-269.805C48,-260.91 48,-250.78 48,-243.751"/>
<polygon fill="midnightblue" stroke="midnightblue" points="44.5001,-270.083 48,-280.083 51.5001,-270.083 44.5001,-270.083"/>
</g>
<!-- Node7 -->
<g id="node7" class="node"><title>Node7</title>
<g id="a_node7"><a xlink:href="classButton_1_1Listener.html" target="_top" xlink:title="Used to receive callbacks when a button is clicked. ">
<polygon fill="none" stroke="black" points="115,-56.5 115,-75.5 201,-75.5 201,-56.5 115,-56.5"/>
<text text-anchor="middle" x="158" y="-63.5" font-family="Helvetica,sans-Serif" font-size="10.00">Button::Listener</text>
</a>
</g>
</g>
<!-- Node7&#45;&gt;Node1 -->
<g id="edge6" class="edge"><title>Node7&#45;&gt;Node1</title>
<path fill="none" stroke="#8b1a1a" d="M141.706,-49.0024C131.959,-39.4329 119.947,-27.6389 111.913,-19.7511"/>
<polygon fill="#8b1a1a" stroke="#8b1a1a" points="139.33,-51.5746 148.918,-56.083 144.234,-46.5796 139.33,-51.5746"/>
</g>
</g>
</svg>
