<?xml version="1.0" encoding="UTF-8" standalone="no"?>
<!DOCTYPE svg PUBLIC "-//W3C//DTD SVG 1.1//EN"
 "http://www.w3.org/Graphics/SVG/1.1/DTD/svg11.dtd">
<!-- Generated by graphviz version 2.36.0 (20140111.2315)
 -->
<!-- Title: juce::Value::ValueSource Pages: 1 -->
<svg width="279pt" height="84pt"
 viewBox="0.00 0.00 279.00 84.00" xmlns="http://www.w3.org/2000/svg" xmlns:xlink="http://www.w3.org/1999/xlink">
<g id="graph0" class="graph" transform="scale(1 1) rotate(0) translate(4 80)">
<title>juce::Value::ValueSource</title>
<!-- Node1 -->
<g id="node1" class="node"><title>Node1</title>
<polygon fill="#bfbfbf" stroke="black" points="83.5,-0.5 83.5,-19.5 210.5,-19.5 210.5,-0.5 83.5,-0.5"/>
<text text-anchor="middle" x="147" y="-7.5" font-family="Helvetica,sans-Serif" font-size="10.00">juce::Value::ValueSource</text>
</g>
<!-- Node2 -->
<g id="node2" class="node"><title>Node2</title>
<g id="a_node2"><a xlink:href="classjuce_1_1ReferenceCountedObject.html" target="_top" xlink:title="A base class which provides methods for reference&#45;counting. ">
<polygon fill="none" stroke="black" points="-0.5,-56.5 -0.5,-75.5 150.5,-75.5 150.5,-56.5 -0.5,-56.5"/>
<text text-anchor="middle" x="75" y="-63.5" font-family="Helvetica,sans-Serif" font-size="10.00">juce::ReferenceCountedObject</text>
</a>
</g>
</g>
<!-- Node2&#45;&gt;Node1 -->
<g id="edge1" class="edge"><title>Node2&#45;&gt;Node1</title>
<path fill="none" stroke="midnightblue" d="M94.8657,-50.1008C107.823,-40.3824 124.297,-28.0269 135.221,-19.8339"/>
<polygon fill="midnightblue" stroke="midnightblue" points="92.4681,-47.5239 86.568,-56.324 96.6681,-53.1239 92.4681,-47.5239"/>
</g>
<!-- Node3 -->
<g id="node3" class="node"><title>Node3</title>
<g id="a_node3"><a xlink:href="classjuce_1_1AsyncUpdater.html" target="_top" xlink:title="Has a callback method that is triggered asynchronously. ">
<polygon fill="none" stroke="black" points="168.5,-56.5 168.5,-75.5 271.5,-75.5 271.5,-56.5 168.5,-56.5"/>
<text text-anchor="middle" x="220" y="-63.5" font-family="Helvetica,sans-Serif" font-size="10.00">juce::AsyncUpdater</text>
</a>
</g>
</g>
<!-- Node3&#45;&gt;Node1 -->
<g id="edge2" class="edge"><title>Node3&#45;&gt;Node1</title>
<path fill="none" stroke="#8b1a1a" d="M199.858,-50.1008C186.721,-40.3824 170.018,-28.0269 158.942,-19.8339"/>
<polygon fill="#8b1a1a" stroke="#8b1a1a" points="198.15,-53.1907 208.271,-56.324 202.313,-47.5631 198.15,-53.1907"/>
</g>
</g>
</svg>
