<?xml version="1.0" encoding="UTF-8" standalone="no"?>
<!DOCTYPE svg PUBLIC "-//W3C//DTD SVG 1.1//EN"
 "http://www.w3.org/Graphics/SVG/1.1/DTD/svg11.dtd">
<!-- Generated by graphviz version 2.36.0 (20140111.2315)
 -->
<!-- Title: CodeTokeniser Pages: 1 -->
<svg width="324pt" height="84pt"
 viewBox="0.00 0.00 324.00 84.00" xmlns="http://www.w3.org/2000/svg" xmlns:xlink="http://www.w3.org/1999/xlink">
<g id="graph0" class="graph" transform="scale(1 1) rotate(0) translate(4 80)">
<title>CodeTokeniser</title>
<!-- Node1 -->
<g id="node1" class="node"><title>Node1</title>
<polygon fill="#bfbfbf" stroke="black" points="142.5,-56.5 142.5,-75.5 225.5,-75.5 225.5,-56.5 142.5,-56.5"/>
<text text-anchor="middle" x="184" y="-63.5" font-family="Helvetica,sans-Serif" font-size="10.00">CodeTokeniser</text>
</g>
<!-- Node2 -->
<g id="node2" class="node"><title>Node2</title>
<g id="a_node2"><a xlink:href="group__juce__gui__extra-code__editor.html#classCPlusPlusCodeTokeniser" target="_top" xlink:title="A simple lexical analyser for syntax colouring of C++ code. ">
<polygon fill="none" stroke="black" points="-0.5,-0.5 -0.5,-19.5 128.5,-19.5 128.5,-0.5 -0.5,-0.5"/>
<text text-anchor="middle" x="64" y="-7.5" font-family="Helvetica,sans-Serif" font-size="10.00">CPlusPlusCodeTokeniser</text>
</a>
</g>
</g>
<!-- Node1&#45;&gt;Node2 -->
<g id="edge1" class="edge"><title>Node1&#45;&gt;Node2</title>
<path fill="none" stroke="midnightblue" d="M155.627,-52.2321C133.18,-42.1312 102.465,-28.3091 82.9254,-19.5164"/>
<polygon fill="midnightblue" stroke="midnightblue" points="154.43,-55.5316 164.986,-56.4435 157.303,-49.1481 154.43,-55.5316"/>
</g>
<!-- Node3 -->
<g id="node3" class="node"><title>Node3</title>
<g id="a_node3"><a xlink:href="group__juce__gui__extra-code__editor.html#classLuaTokeniser" target="_top" xlink:title="LuaTokeniser">
<polygon fill="none" stroke="black" points="146.5,-0.5 146.5,-19.5 221.5,-19.5 221.5,-0.5 146.5,-0.5"/>
<text text-anchor="middle" x="184" y="-7.5" font-family="Helvetica,sans-Serif" font-size="10.00">LuaTokeniser</text>
</a>
</g>
</g>
<!-- Node1&#45;&gt;Node3 -->
<g id="edge2" class="edge"><title>Node1&#45;&gt;Node3</title>
<path fill="none" stroke="midnightblue" d="M184,-45.8045C184,-36.9102 184,-26.7798 184,-19.7511"/>
<polygon fill="midnightblue" stroke="midnightblue" points="180.5,-46.083 184,-56.083 187.5,-46.083 180.5,-46.083"/>
</g>
<!-- Node4 -->
<g id="node4" class="node"><title>Node4</title>
<g id="a_node4"><a xlink:href="group__juce__gui__extra-code__editor.html#classXmlTokeniser" target="_top" xlink:title="XmlTokeniser">
<polygon fill="none" stroke="black" points="239.5,-0.5 239.5,-19.5 316.5,-19.5 316.5,-0.5 239.5,-0.5"/>
<text text-anchor="middle" x="278" y="-7.5" font-family="Helvetica,sans-Serif" font-size="10.00">XmlTokeniser</text>
</a>
</g>
</g>
<!-- Node1&#45;&gt;Node4 -->
<g id="edge3" class="edge"><title>Node1&#45;&gt;Node4</title>
<path fill="none" stroke="midnightblue" d="M208.062,-51.1774C225.359,-41.2407 248.148,-28.1492 262.935,-19.6545"/>
<polygon fill="midnightblue" stroke="midnightblue" points="206.03,-48.3078 199.103,-56.324 209.517,-54.3775 206.03,-48.3078"/>
</g>
</g>
</svg>
