<?xml version="1.0" encoding="UTF-8" standalone="no"?>
<!DOCTYPE svg PUBLIC "-//W3C//DTD SVG 1.1//EN"
 "http://www.w3.org/Graphics/SVG/1.1/DTD/svg11.dtd">
<!-- Generated by graphviz version 2.36.0 (20140111.2315)
 -->
<!-- Title: Button Pages: 1 -->
<svg width="584pt" height="332pt"
 viewBox="0.00 0.00 584.00 332.00" xmlns="http://www.w3.org/2000/svg" xmlns:xlink="http://www.w3.org/1999/xlink">
<g id="graph0" class="graph" transform="scale(1 1) rotate(0) translate(4 328)">
<title>Button</title>
<!-- Node1 -->
<g id="node1" class="node"><title>Node1</title>
<polygon fill="#bfbfbf" stroke="black" points="260.5,-152.5 260.5,-171.5 305.5,-171.5 305.5,-152.5 260.5,-152.5"/>
<text text-anchor="middle" x="283" y="-159.5" font-family="Helvetica,sans-Serif" font-size="10.00">Button</text>
</g>
<!-- Node6 -->
<g id="node6" class="node"><title>Node6</title>
<g id="a_node6"><a xlink:href="classArrowButton.html" target="_top" xlink:title="A button with an arrow in it. ">
<polygon fill="none" stroke="black" points="366.5,-304.5 366.5,-323.5 437.5,-323.5 437.5,-304.5 366.5,-304.5"/>
<text text-anchor="middle" x="402" y="-311.5" font-family="Helvetica,sans-Serif" font-size="10.00">ArrowButton</text>
</a>
</g>
</g>
<!-- Node1&#45;&gt;Node6 -->
<g id="edge5" class="edge"><title>Node1&#45;&gt;Node6</title>
<path fill="none" stroke="midnightblue" d="M287.315,-181.691C293.202,-210.602 308.198,-264.41 342,-295 348.782,-301.138 357.565,-305.294 366.272,-308.108"/>
<polygon fill="midnightblue" stroke="midnightblue" points="290.708,-180.793 285.43,-171.607 283.827,-182.08 290.708,-180.793"/>
</g>
<!-- Node7 -->
<g id="node7" class="node"><title>Node7</title>
<g id="a_node7"><a xlink:href="classDrawableButton.html" target="_top" xlink:title="A button that displays a Drawable. ">
<polygon fill="none" stroke="black" points="359,-266.5 359,-285.5 445,-285.5 445,-266.5 359,-266.5"/>
<text text-anchor="middle" x="402" y="-273.5" font-family="Helvetica,sans-Serif" font-size="10.00">DrawableButton</text>
</a>
</g>
</g>
<!-- Node1&#45;&gt;Node7 -->
<g id="edge6" class="edge"><title>Node1&#45;&gt;Node7</title>
<path fill="none" stroke="midnightblue" d="M290.873,-181.001C299.573,-202.452 316.56,-236.964 342,-257 346.988,-260.928 352.811,-264.055 358.818,-266.541"/>
<polygon fill="midnightblue" stroke="midnightblue" points="294.128,-179.713 287.268,-171.64 287.596,-182.23 294.128,-179.713"/>
</g>
<!-- Node8 -->
<g id="node8" class="node"><title>Node8</title>
<g id="a_node8"><a xlink:href="classHyperlinkButton.html" target="_top" xlink:title="A button showing an underlined weblink, that will launch the link when it&#39;s clicked. ">
<polygon fill="none" stroke="black" points="359,-228.5 359,-247.5 445,-247.5 445,-228.5 359,-228.5"/>
<text text-anchor="middle" x="402" y="-235.5" font-family="Helvetica,sans-Serif" font-size="10.00">HyperlinkButton</text>
</a>
</g>
</g>
<!-- Node1&#45;&gt;Node8 -->
<g id="edge7" class="edge"><title>Node1&#45;&gt;Node8</title>
<path fill="none" stroke="midnightblue" d="M298.2,-179.835C309.019,-192.364 324.923,-208.668 342,-219 348.261,-222.788 355.358,-225.904 362.406,-228.438"/>
<polygon fill="midnightblue" stroke="midnightblue" points="300.663,-177.323 291.571,-171.884 295.287,-181.806 300.663,-177.323"/>
</g>
<!-- Node9 -->
<g id="node9" class="node"><title>Node9</title>
<g id="a_node9"><a xlink:href="classImageButton.html" target="_top" xlink:title="As the title suggests, this is a button containing an image. ">
<polygon fill="none" stroke="black" points="366,-190.5 366,-209.5 438,-209.5 438,-190.5 366,-190.5"/>
<text text-anchor="middle" x="402" y="-197.5" font-family="Helvetica,sans-Serif" font-size="10.00">ImageButton</text>
</a>
</g>
</g>
<!-- Node1&#45;&gt;Node9 -->
<g id="edge8" class="edge"><title>Node1&#45;&gt;Node9</title>
<path fill="none" stroke="midnightblue" d="M315.437,-172.33C324.046,-175.15 333.38,-178.2 342,-181 351.518,-184.092 361.907,-187.444 371.278,-190.461"/>
<polygon fill="midnightblue" stroke="midnightblue" points="316.343,-168.944 305.75,-169.154 314.161,-175.595 316.343,-168.944"/>
</g>
<!-- Node10 -->
<g id="node10" class="node"><title>Node10</title>
<g id="a_node10"><a xlink:href="classShapeButton.html" target="_top" xlink:title="A button that contains a filled shape. ">
<polygon fill="none" stroke="black" points="365.5,-152.5 365.5,-171.5 438.5,-171.5 438.5,-152.5 365.5,-152.5"/>
<text text-anchor="middle" x="402" y="-159.5" font-family="Helvetica,sans-Serif" font-size="10.00">ShapeButton</text>
</a>
</g>
</g>
<!-- Node1&#45;&gt;Node10 -->
<g id="edge9" class="edge"><title>Node1&#45;&gt;Node10</title>
<path fill="none" stroke="midnightblue" d="M315.735,-162C331,-162 349.364,-162 365.133,-162"/>
<polygon fill="midnightblue" stroke="midnightblue" points="315.733,-158.5 305.733,-162 315.733,-165.5 315.733,-158.5"/>
</g>
<!-- Node11 -->
<g id="node11" class="node"><title>Node11</title>
<g id="a_node11"><a xlink:href="classTabBarButton.html" target="_top" xlink:title="In a TabbedButtonBar, this component is used for each of the buttons. ">
<polygon fill="none" stroke="black" points="363.5,-114.5 363.5,-133.5 440.5,-133.5 440.5,-114.5 363.5,-114.5"/>
<text text-anchor="middle" x="402" y="-121.5" font-family="Helvetica,sans-Serif" font-size="10.00">TabBarButton</text>
</a>
</g>
</g>
<!-- Node1&#45;&gt;Node11 -->
<g id="edge10" class="edge"><title>Node1&#45;&gt;Node11</title>
<path fill="none" stroke="midnightblue" d="M315.437,-151.67C324.046,-148.85 333.38,-145.8 342,-143 351.518,-139.908 361.907,-136.556 371.278,-133.539"/>
<polygon fill="midnightblue" stroke="midnightblue" points="314.161,-148.405 305.75,-154.846 316.343,-155.056 314.161,-148.405"/>
</g>
<!-- Node12 -->
<g id="node12" class="node"><title>Node12</title>
<g id="a_node12"><a xlink:href="classTextButton.html" target="_top" xlink:title="A button that uses the standard lozenge&#45;shaped background with a line of text on it. ">
<polygon fill="none" stroke="black" points="369.5,-76.5 369.5,-95.5 434.5,-95.5 434.5,-76.5 369.5,-76.5"/>
<text text-anchor="middle" x="402" y="-83.5" font-family="Helvetica,sans-Serif" font-size="10.00">TextButton</text>
</a>
</g>
</g>
<!-- Node1&#45;&gt;Node12 -->
<g id="edge11" class="edge"><title>Node1&#45;&gt;Node12</title>
<path fill="none" stroke="midnightblue" d="M298.2,-144.165C309.019,-131.636 324.923,-115.332 342,-105 350.286,-99.9864 360.038,-96.1496 369.202,-93.2819"/>
<polygon fill="midnightblue" stroke="midnightblue" points="295.287,-142.194 291.571,-152.116 300.663,-146.677 295.287,-142.194"/>
</g>
<!-- Node13 -->
<g id="node13" class="node"><title>Node13</title>
<g id="a_node13"><a xlink:href="classToggleButton.html" target="_top" xlink:title="A button that can be toggled on/off. ">
<polygon fill="none" stroke="black" points="365,-38.5 365,-57.5 439,-57.5 439,-38.5 365,-38.5"/>
<text text-anchor="middle" x="402" y="-45.5" font-family="Helvetica,sans-Serif" font-size="10.00">ToggleButton</text>
</a>
</g>
</g>
<!-- Node1&#45;&gt;Node13 -->
<g id="edge12" class="edge"><title>Node1&#45;&gt;Node13</title>
<path fill="none" stroke="midnightblue" d="M290.873,-142.999C299.573,-121.548 316.56,-87.0358 342,-67 348.679,-61.7401 356.854,-57.9172 364.966,-55.1453"/>
<polygon fill="midnightblue" stroke="midnightblue" points="287.596,-141.77 287.268,-152.36 294.128,-144.287 287.596,-141.77"/>
</g>
<!-- Node14 -->
<g id="node14" class="node"><title>Node14</title>
<g id="a_node14"><a xlink:href="classToolbarItemComponent.html" target="_top" xlink:title="A component that can be used as one of the items in a Toolbar. ">
<polygon fill="none" stroke="black" points="342.5,-0.5 342.5,-19.5 461.5,-19.5 461.5,-0.5 342.5,-0.5"/>
<text text-anchor="middle" x="402" y="-7.5" font-family="Helvetica,sans-Serif" font-size="10.00">ToolbarItemComponent</text>
</a>
</g>
</g>
<!-- Node1&#45;&gt;Node14 -->
<g id="edge13" class="edge"><title>Node1&#45;&gt;Node14</title>
<path fill="none" stroke="midnightblue" d="M287.315,-142.309C293.202,-113.398 308.198,-59.59 342,-29 346.309,-25.1008 351.425,-22.0012 356.816,-19.5373"/>
<polygon fill="midnightblue" stroke="midnightblue" points="283.827,-141.92 285.43,-152.393 290.708,-143.207 283.827,-141.92"/>
</g>
<!-- Node2 -->
<g id="node2" class="node"><title>Node2</title>
<g id="a_node2"><a xlink:href="classComponent.html" target="_top" xlink:title="The base class for all JUCE user&#45;interface objects. ">
<polygon fill="none" stroke="black" points="136.5,-171.5 136.5,-190.5 203.5,-190.5 203.5,-171.5 136.5,-171.5"/>
<text text-anchor="middle" x="170" y="-178.5" font-family="Helvetica,sans-Serif" font-size="10.00">Component</text>
</a>
</g>
</g>
<!-- Node2&#45;&gt;Node1 -->
<g id="edge1" class="edge"><title>Node2&#45;&gt;Node1</title>
<path fill="none" stroke="midnightblue" d="M213.891,-173.658C229.803,-170.935 247.175,-167.961 260.392,-165.699"/>
<polygon fill="midnightblue" stroke="midnightblue" points="212.969,-170.265 203.703,-175.402 214.15,-177.165 212.969,-170.265"/>
</g>
<!-- Node3 -->
<g id="node3" class="node"><title>Node3</title>
<g id="a_node3"><a xlink:href="classMouseListener.html" target="_top" xlink:title="A MouseListener can be registered with a component to receive callbacks about mouse events that happe...">
<polygon fill="none" stroke="black" points="0,-171.5 0,-190.5 80,-190.5 80,-171.5 0,-171.5"/>
<text text-anchor="middle" x="40" y="-178.5" font-family="Helvetica,sans-Serif" font-size="10.00">MouseListener</text>
</a>
</g>
</g>
<!-- Node3&#45;&gt;Node2 -->
<g id="edge2" class="edge"><title>Node3&#45;&gt;Node2</title>
<path fill="none" stroke="midnightblue" d="M90.4703,-181C105.787,-181 122.277,-181 136.172,-181"/>
<polygon fill="midnightblue" stroke="midnightblue" points="90.0998,-177.5 80.0997,-181 90.0997,-184.5 90.0998,-177.5"/>
</g>
<!-- Node4 -->
<g id="node4" class="node"><title>Node4</title>
<g id="a_node4"><a xlink:href="classSettableTooltipClient.html" target="_top" xlink:title="An implementation of TooltipClient that stores the tooltip string and a method for changing it...">
<polygon fill="none" stroke="black" points="116.5,-133.5 116.5,-152.5 223.5,-152.5 223.5,-133.5 116.5,-133.5"/>
<text text-anchor="middle" x="170" y="-140.5" font-family="Helvetica,sans-Serif" font-size="10.00">SettableTooltipClient</text>
</a>
</g>
</g>
<!-- Node4&#45;&gt;Node1 -->
<g id="edge3" class="edge"><title>Node4&#45;&gt;Node1</title>
<path fill="none" stroke="midnightblue" d="M233.623,-153.719C243.212,-155.361 252.513,-156.953 260.355,-158.295"/>
<polygon fill="midnightblue" stroke="midnightblue" points="234.022,-150.237 223.574,-151.999 232.841,-157.136 234.022,-150.237"/>
</g>
<!-- Node5 -->
<g id="node5" class="node"><title>Node5</title>
<g id="a_node5"><a xlink:href="classTooltipClient.html" target="_top" xlink:title="Components that want to use pop&#45;up tooltips should implement this interface. ">
<polygon fill="none" stroke="black" points="4.5,-133.5 4.5,-152.5 75.5,-152.5 75.5,-133.5 4.5,-133.5"/>
<text text-anchor="middle" x="40" y="-140.5" font-family="Helvetica,sans-Serif" font-size="10.00">TooltipClient</text>
</a>
</g>
</g>
<!-- Node5&#45;&gt;Node4 -->
<g id="edge4" class="edge"><title>Node5&#45;&gt;Node4</title>
<path fill="none" stroke="midnightblue" d="M85.9021,-143C95.64,-143 106.027,-143 116.042,-143"/>
<polygon fill="midnightblue" stroke="midnightblue" points="85.6387,-139.5 75.6386,-143 85.6386,-146.5 85.6387,-139.5"/>
</g>
<!-- Node15 -->
<g id="node15" class="node"><title>Node15</title>
<g id="a_node15"><a xlink:href="classToolbarButton.html" target="_top" xlink:title="A type of button designed to go on a toolbar. ">
<polygon fill="none" stroke="black" points="498.5,-0.5 498.5,-19.5 575.5,-19.5 575.5,-0.5 498.5,-0.5"/>
<text text-anchor="middle" x="537" y="-7.5" font-family="Helvetica,sans-Serif" font-size="10.00">ToolbarButton</text>
</a>
</g>
</g>
<!-- Node14&#45;&gt;Node15 -->
<g id="edge14" class="edge"><title>Node14&#45;&gt;Node15</title>
<path fill="none" stroke="midnightblue" d="M471.93,-10C480.979,-10 489.969,-10 498.227,-10"/>
<polygon fill="midnightblue" stroke="midnightblue" points="471.723,-6.5001 461.723,-10 471.723,-13.5001 471.723,-6.5001"/>
</g>
</g>
</svg>
