<?xml version="1.0" encoding="UTF-8" standalone="no"?>
<!DOCTYPE svg PUBLIC "-//W3C//DTD SVG 1.1//EN"
 "http://www.w3.org/Graphics/SVG/1.1/DTD/svg11.dtd">
<!-- Generated by graphviz version 2.36.0 (20140111.2315)
 -->
<!-- Title: PopupMenu::CustomComponent Pages: 1 -->
<svg width="266pt" height="152pt"
 viewBox="0.00 0.00 266.00 152.00" xmlns="http://www.w3.org/2000/svg" xmlns:xlink="http://www.w3.org/1999/xlink">
<g id="graph0" class="graph" transform="scale(1 1) rotate(0) translate(4 148)">
<title>PopupMenu::CustomComponent</title>
<!-- Node1 -->
<g id="node1" class="node"><title>Node1</title>
<polygon fill="#bfbfbf" stroke="black" points="27.5,-0.5 27.5,-19.5 186.5,-19.5 186.5,-0.5 27.5,-0.5"/>
<text text-anchor="middle" x="107" y="-7.5" font-family="Helvetica,sans-Serif" font-size="10.00">PopupMenu::CustomComponent</text>
</g>
<!-- Node2 -->
<g id="node2" class="node"><title>Node2</title>
<g id="a_node2"><a xlink:href="classComponent.html" target="_top" xlink:title="The base class for all JUCE user&#45;interface objects. ">
<polygon fill="none" stroke="black" points="6.5,-62.5 6.5,-81.5 73.5,-81.5 73.5,-62.5 6.5,-62.5"/>
<text text-anchor="middle" x="40" y="-69.5" font-family="Helvetica,sans-Serif" font-size="10.00">Component</text>
</a>
</g>
</g>
<!-- Node2&#45;&gt;Node1 -->
<g id="edge1" class="edge"><title>Node2&#45;&gt;Node1</title>
<path fill="none" stroke="midnightblue" d="M57.2853,-55.5206C70.059,-44.0815 86.9776,-28.9305 97.4183,-19.5806"/>
<polygon fill="midnightblue" stroke="midnightblue" points="54.7141,-53.1249 49.5995,-62.4035 59.3839,-58.3396 54.7141,-53.1249"/>
</g>
<!-- Node3 -->
<g id="node3" class="node"><title>Node3</title>
<g id="a_node3"><a xlink:href="classMouseListener.html" target="_top" xlink:title="A MouseListener can be registered with a component to receive callbacks about mouse events that happe...">
<polygon fill="none" stroke="black" points="0,-124.5 0,-143.5 80,-143.5 80,-124.5 0,-124.5"/>
<text text-anchor="middle" x="40" y="-131.5" font-family="Helvetica,sans-Serif" font-size="10.00">MouseListener</text>
</a>
</g>
</g>
<!-- Node3&#45;&gt;Node2 -->
<g id="edge2" class="edge"><title>Node3&#45;&gt;Node2</title>
<path fill="none" stroke="midnightblue" d="M40,-114.16C40,-103.248 40,-90.04 40,-81.5806"/>
<polygon fill="midnightblue" stroke="midnightblue" points="36.5001,-114.403 40,-124.403 43.5001,-114.403 36.5001,-114.403"/>
</g>
<!-- Node4 -->
<g id="node4" class="node"><title>Node4</title>
<g id="a_node4"><a xlink:href="classSingleThreadedReferenceCountedObject.html" target="_top" xlink:title="Adds reference&#45;counting to an object. ">
<polygon fill="none" stroke="black" points="92,-57 92,-87 258,-87 258,-57 92,-57"/>
<text text-anchor="start" x="100" y="-75" font-family="Helvetica,sans-Serif" font-size="10.00">SingleThreadedReferenceCounted</text>
<text text-anchor="middle" x="175" y="-64" font-family="Helvetica,sans-Serif" font-size="10.00">Object</text>
</a>
</g>
</g>
<!-- Node4&#45;&gt;Node1 -->
<g id="edge3" class="edge"><title>Node4&#45;&gt;Node1</title>
<path fill="none" stroke="midnightblue" d="M151.111,-49.9216C139.36,-39.5533 125.837,-27.6209 116.895,-19.7305"/>
<polygon fill="midnightblue" stroke="midnightblue" points="149.071,-52.789 158.885,-56.7808 153.702,-47.5401 149.071,-52.789"/>
</g>
</g>
</svg>
