<?xml version="1.0" encoding="UTF-8" standalone="no"?>
<!DOCTYPE svg PUBLIC "-//W3C//DTD SVG 1.1//EN"
 "http://www.w3.org/Graphics/SVG/1.1/DTD/svg11.dtd">
<!-- Generated by graphviz version 2.36.0 (20140111.2315)
 -->
<!-- Title: DrawableShape Pages: 1 -->
<svg width="206pt" height="252pt"
 viewBox="0.00 0.00 206.00 252.00" xmlns="http://www.w3.org/2000/svg" xmlns:xlink="http://www.w3.org/1999/xlink">
<g id="graph0" class="graph" transform="scale(1 1) rotate(0) translate(4 248)">
<title>DrawableShape</title>
<!-- Node1 -->
<g id="node1" class="node"><title>Node1</title>
<polygon fill="#bfbfbf" stroke="black" points="50,-56.5 50,-75.5 136,-75.5 136,-56.5 50,-56.5"/>
<text text-anchor="middle" x="93" y="-63.5" font-family="Helvetica,sans-Serif" font-size="10.00">DrawableShape</text>
</g>
<!-- Node5 -->
<g id="node5" class="node"><title>Node5</title>
<g id="a_node5"><a xlink:href="classDrawablePath.html" target="_top" xlink:title="A drawable object which renders a filled or outlined shape. ">
<polygon fill="none" stroke="black" points="0,-0.5 0,-19.5 78,-19.5 78,-0.5 0,-0.5"/>
<text text-anchor="middle" x="39" y="-7.5" font-family="Helvetica,sans-Serif" font-size="10.00">DrawablePath</text>
</a>
</g>
</g>
<!-- Node1&#45;&gt;Node5 -->
<g id="edge4" class="edge"><title>Node1&#45;&gt;Node5</title>
<path fill="none" stroke="midnightblue" d="M77.0024,-49.0024C67.4329,-39.4329 55.6389,-27.6389 47.7511,-19.7511"/>
<polygon fill="midnightblue" stroke="midnightblue" points="74.537,-51.4868 84.083,-56.083 79.4868,-46.537 74.537,-51.4868"/>
</g>
<!-- Node6 -->
<g id="node6" class="node"><title>Node6</title>
<g id="a_node6"><a xlink:href="classDrawableRectangle.html" target="_top" xlink:title="A Drawable object which draws a rectangle. ">
<polygon fill="none" stroke="black" points="96,-0.5 96,-19.5 198,-19.5 198,-0.5 96,-0.5"/>
<text text-anchor="middle" x="147" y="-7.5" font-family="Helvetica,sans-Serif" font-size="10.00">DrawableRectangle</text>
</a>
</g>
</g>
<!-- Node1&#45;&gt;Node6 -->
<g id="edge5" class="edge"><title>Node1&#45;&gt;Node6</title>
<path fill="none" stroke="midnightblue" d="M108.998,-49.0024C118.567,-39.4329 130.361,-27.6389 138.249,-19.7511"/>
<polygon fill="midnightblue" stroke="midnightblue" points="106.513,-46.537 101.917,-56.083 111.463,-51.4868 106.513,-46.537"/>
</g>
<!-- Node2 -->
<g id="node2" class="node"><title>Node2</title>
<g id="a_node2"><a xlink:href="classDrawable.html" target="_top" xlink:title="The base class for objects which can draw themselves, e.g. ">
<polygon fill="none" stroke="black" points="64,-112.5 64,-131.5 122,-131.5 122,-112.5 64,-112.5"/>
<text text-anchor="middle" x="93" y="-119.5" font-family="Helvetica,sans-Serif" font-size="10.00">Drawable</text>
</a>
</g>
</g>
<!-- Node2&#45;&gt;Node1 -->
<g id="edge1" class="edge"><title>Node2&#45;&gt;Node1</title>
<path fill="none" stroke="midnightblue" d="M93,-101.805C93,-92.9102 93,-82.7798 93,-75.7511"/>
<polygon fill="midnightblue" stroke="midnightblue" points="89.5001,-102.083 93,-112.083 96.5001,-102.083 89.5001,-102.083"/>
</g>
<!-- Node3 -->
<g id="node3" class="node"><title>Node3</title>
<g id="a_node3"><a xlink:href="classComponent.html" target="_top" xlink:title="The base class for all JUCE user&#45;interface objects. ">
<polygon fill="none" stroke="black" points="59.5,-168.5 59.5,-187.5 126.5,-187.5 126.5,-168.5 59.5,-168.5"/>
<text text-anchor="middle" x="93" y="-175.5" font-family="Helvetica,sans-Serif" font-size="10.00">Component</text>
</a>
</g>
</g>
<!-- Node3&#45;&gt;Node2 -->
<g id="edge2" class="edge"><title>Node3&#45;&gt;Node2</title>
<path fill="none" stroke="midnightblue" d="M93,-157.805C93,-148.91 93,-138.78 93,-131.751"/>
<polygon fill="midnightblue" stroke="midnightblue" points="89.5001,-158.083 93,-168.083 96.5001,-158.083 89.5001,-158.083"/>
</g>
<!-- Node4 -->
<g id="node4" class="node"><title>Node4</title>
<g id="a_node4"><a xlink:href="classMouseListener.html" target="_top" xlink:title="A MouseListener can be registered with a component to receive callbacks about mouse events that happe...">
<polygon fill="none" stroke="black" points="53,-224.5 53,-243.5 133,-243.5 133,-224.5 53,-224.5"/>
<text text-anchor="middle" x="93" y="-231.5" font-family="Helvetica,sans-Serif" font-size="10.00">MouseListener</text>
</a>
</g>
</g>
<!-- Node4&#45;&gt;Node3 -->
<g id="edge3" class="edge"><title>Node4&#45;&gt;Node3</title>
<path fill="none" stroke="midnightblue" d="M93,-213.805C93,-204.91 93,-194.78 93,-187.751"/>
<polygon fill="midnightblue" stroke="midnightblue" points="89.5001,-214.083 93,-224.083 96.5001,-214.083 89.5001,-214.083"/>
</g>
</g>
</svg>
