<?xml version="1.0" encoding="UTF-8" standalone="no"?>
<!DOCTYPE svg PUBLIC "-//W3C//DTD SVG 1.1//EN"
 "http://www.w3.org/Graphics/SVG/1.1/DTD/svg11.dtd">
<!-- Generated by graphviz version 2.36.0 (20140111.2315)
 -->
<!-- Title: RangedAudioParameter Pages: 1 -->
<svg width="492pt" height="264pt"
 viewBox="0.00 0.00 492.00 264.00" xmlns="http://www.w3.org/2000/svg" xmlns:xlink="http://www.w3.org/1999/xlink">
<g id="graph0" class="graph" transform="scale(1 1) rotate(0) translate(4 260)">
<title>RangedAudioParameter</title>
<!-- Node1 -->
<g id="node1" class="node"><title>Node1</title>
<polygon fill="#bfbfbf" stroke="black" points="188,-124.5 188,-143.5 308,-143.5 308,-124.5 188,-124.5"/>
<text text-anchor="middle" x="248" y="-131.5" font-family="Helvetica,sans-Serif" font-size="10.00">RangedAudioParameter</text>
</g>
<!-- Node4 -->
<g id="node4" class="node"><title>Node4</title>
<g id="a_node4"><a xlink:href="classAudioParameterBool.html" target="_top" xlink:title="Provides a class of AudioProcessorParameter that can be used as a boolean value. ">
<polygon fill="none" stroke="black" points="0,-68.5 0,-87.5 106,-87.5 106,-68.5 0,-68.5"/>
<text text-anchor="middle" x="53" y="-75.5" font-family="Helvetica,sans-Serif" font-size="10.00">AudioParameterBool</text>
</a>
</g>
</g>
<!-- Node1&#45;&gt;Node4 -->
<g id="edge3" class="edge"><title>Node1&#45;&gt;Node4</title>
<path fill="none" stroke="midnightblue" d="M207.19,-121.699C170.387,-111.507 117.071,-96.7429 83.7538,-87.5164"/>
<polygon fill="midnightblue" stroke="midnightblue" points="206.53,-125.148 217.102,-124.444 208.398,-118.402 206.53,-125.148"/>
</g>
<!-- Node5 -->
<g id="node5" class="node"><title>Node5</title>
<g id="a_node5"><a xlink:href="classAudioParameterChoice.html" target="_top" xlink:title="Provides a class of AudioProcessorParameter that can be used to select an indexed, named choice from a list. ">
<polygon fill="none" stroke="black" points="124.5,-68.5 124.5,-87.5 241.5,-87.5 241.5,-68.5 124.5,-68.5"/>
<text text-anchor="middle" x="183" y="-75.5" font-family="Helvetica,sans-Serif" font-size="10.00">AudioParameterChoice</text>
</a>
</g>
</g>
<!-- Node1&#45;&gt;Node5 -->
<g id="edge4" class="edge"><title>Node1&#45;&gt;Node5</title>
<path fill="none" stroke="midnightblue" d="M229.727,-117.82C218.082,-108.145 203.401,-95.9481 193.633,-87.8339"/>
<polygon fill="midnightblue" stroke="midnightblue" points="227.628,-120.626 237.557,-124.324 232.101,-115.242 227.628,-120.626"/>
</g>
<!-- Node6 -->
<g id="node6" class="node"><title>Node6</title>
<g id="a_node6"><a xlink:href="classAudioParameterFloat.html" target="_top" xlink:title="A subclass of AudioProcessorParameter that provides an easy way to create a parameter which maps onto...">
<polygon fill="none" stroke="black" points="260,-68.5 260,-87.5 368,-87.5 368,-68.5 260,-68.5"/>
<text text-anchor="middle" x="314" y="-75.5" font-family="Helvetica,sans-Serif" font-size="10.00">AudioParameterFloat</text>
</a>
</g>
</g>
<!-- Node1&#45;&gt;Node6 -->
<g id="edge5" class="edge"><title>Node1&#45;&gt;Node6</title>
<path fill="none" stroke="midnightblue" d="M266.554,-117.82C278.378,-108.145 293.286,-95.9481 303.203,-87.8339"/>
<polygon fill="midnightblue" stroke="midnightblue" points="264.127,-115.283 258.604,-124.324 268.56,-120.7 264.127,-115.283"/>
</g>
<!-- Node8 -->
<g id="node8" class="node"><title>Node8</title>
<g id="a_node8"><a xlink:href="classAudioParameterInt.html" target="_top" xlink:title="Provides a class of AudioProcessorParameter that can be used as an integer value with a given range...">
<polygon fill="none" stroke="black" points="386,-68.5 386,-87.5 484,-87.5 484,-68.5 386,-68.5"/>
<text text-anchor="middle" x="435" y="-75.5" font-family="Helvetica,sans-Serif" font-size="10.00">AudioParameterInt</text>
</a>
</g>
</g>
<!-- Node1&#45;&gt;Node8 -->
<g id="edge7" class="edge"><title>Node1&#45;&gt;Node8</title>
<path fill="none" stroke="midnightblue" d="M287.59,-121.568C322.866,-111.381 373.694,-96.7034 405.508,-87.5164"/>
<polygon fill="midnightblue" stroke="midnightblue" points="286.267,-118.307 277.631,-124.444 288.209,-125.032 286.267,-118.307"/>
</g>
<!-- Node2 -->
<g id="node2" class="node"><title>Node2</title>
<g id="a_node2"><a xlink:href="classAudioProcessorParameterWithID.html" target="_top" xlink:title="This abstract base class is used by some AudioProcessorParameter helper classes. ">
<polygon fill="none" stroke="black" points="167.5,-180.5 167.5,-199.5 328.5,-199.5 328.5,-180.5 167.5,-180.5"/>
<text text-anchor="middle" x="248" y="-187.5" font-family="Helvetica,sans-Serif" font-size="10.00">AudioProcessorParameterWithID</text>
</a>
</g>
</g>
<!-- Node2&#45;&gt;Node1 -->
<g id="edge1" class="edge"><title>Node2&#45;&gt;Node1</title>
<path fill="none" stroke="midnightblue" d="M248,-169.805C248,-160.91 248,-150.78 248,-143.751"/>
<polygon fill="midnightblue" stroke="midnightblue" points="244.5,-170.083 248,-180.083 251.5,-170.083 244.5,-170.083"/>
</g>
<!-- Node3 -->
<g id="node3" class="node"><title>Node3</title>
<g id="a_node3"><a xlink:href="classAudioProcessorParameter.html" target="_top" xlink:title="An abstract base class for parameter objects that can be added to an AudioProcessor. ">
<polygon fill="none" stroke="black" points="182.5,-236.5 182.5,-255.5 313.5,-255.5 313.5,-236.5 182.5,-236.5"/>
<text text-anchor="middle" x="248" y="-243.5" font-family="Helvetica,sans-Serif" font-size="10.00">AudioProcessorParameter</text>
</a>
</g>
</g>
<!-- Node3&#45;&gt;Node2 -->
<g id="edge2" class="edge"><title>Node3&#45;&gt;Node2</title>
<path fill="none" stroke="midnightblue" d="M248,-225.805C248,-216.91 248,-206.78 248,-199.751"/>
<polygon fill="midnightblue" stroke="midnightblue" points="244.5,-226.083 248,-236.083 251.5,-226.083 244.5,-226.083"/>
</g>
<!-- Node7 -->
<g id="node7" class="node"><title>Node7</title>
<g id="a_node7"><a xlink:href="classAudioProcessorValueTreeState_1_1Parameter.html" target="_top" xlink:title="A parameter class that maintains backwards compatibility with deprecated AudioProcessorValueTreeState...">
<polygon fill="none" stroke="black" points="237.5,-1 237.5,-31 390.5,-31 390.5,-1 237.5,-1"/>
<text text-anchor="start" x="245.5" y="-19" font-family="Helvetica,sans-Serif" font-size="10.00">AudioProcessorValueTreeState</text>
<text text-anchor="middle" x="314" y="-8" font-family="Helvetica,sans-Serif" font-size="10.00">::Parameter</text>
</a>
</g>
</g>
<!-- Node6&#45;&gt;Node7 -->
<g id="edge6" class="edge"><title>Node6&#45;&gt;Node7</title>
<path fill="none" stroke="midnightblue" d="M314,-58.3707C314,-49.5849 314,-39.2721 314,-31.1408"/>
<polygon fill="midnightblue" stroke="midnightblue" points="310.5,-58.4034 314,-68.4035 317.5,-58.4035 310.5,-58.4034"/>
</g>
</g>
</svg>
