<?xml version="1.0" encoding="UTF-8" standalone="no"?>
<!DOCTYPE svg PUBLIC "-//W3C//DTD SVG 1.1//EN"
 "http://www.w3.org/Graphics/SVG/1.1/DTD/svg11.dtd">
<!-- Generated by graphviz version 2.36.0 (20140111.2315)
 -->
<!-- Title: juce::Slider::Listener Pages: 1 -->
<svg width="283pt" height="84pt"
 viewBox="0.00 0.00 283.00 84.00" xmlns="http://www.w3.org/2000/svg" xmlns:xlink="http://www.w3.org/1999/xlink">
<g id="graph0" class="graph" transform="scale(1 1) rotate(0) translate(4 80)">
<title>juce::Slider::Listener</title>
<!-- Node1 -->
<g id="node1" class="node"><title>Node1</title>
<polygon fill="#bfbfbf" stroke="black" points="72,-56.5 72,-75.5 178,-75.5 178,-56.5 72,-56.5"/>
<text text-anchor="middle" x="125" y="-63.5" font-family="Helvetica,sans-Serif" font-size="10.00">juce::Slider::Listener</text>
</g>
<!-- Node2 -->
<g id="node2" class="node"><title>Node2</title>
<g id="a_node2"><a xlink:href="classjuce_1_1ColourSelector.html" target="_top" xlink:title="A component that lets the user choose a colour. ">
<polygon fill="none" stroke="black" points="-0.5,-0.5 -0.5,-19.5 104.5,-19.5 104.5,-0.5 -0.5,-0.5"/>
<text text-anchor="middle" x="52" y="-7.5" font-family="Helvetica,sans-Serif" font-size="10.00">juce::ColourSelector</text>
</a>
</g>
</g>
<!-- Node1&#45;&gt;Node2 -->
<g id="edge1" class="edge"><title>Node1&#45;&gt;Node2</title>
<path fill="none" stroke="darkgreen" d="M104.858,-50.1008C91.7207,-40.3824 75.0179,-28.0269 63.9421,-19.8339"/>
<polygon fill="darkgreen" stroke="darkgreen" points="103.15,-53.1907 113.271,-56.324 107.313,-47.5631 103.15,-53.1907"/>
</g>
<!-- Node3 -->
<g id="node3" class="node"><title>Node3</title>
<g id="a_node3"><a xlink:href="classjuce_1_1SliderPropertyComponent.html" target="_top" xlink:title="A PropertyComponent that shows its value as a slider. ">
<polygon fill="none" stroke="black" points="123,-0.5 123,-19.5 275,-19.5 275,-0.5 123,-0.5"/>
<text text-anchor="middle" x="199" y="-7.5" font-family="Helvetica,sans-Serif" font-size="10.00">juce::SliderPropertyComponent</text>
</a>
</g>
</g>
<!-- Node1&#45;&gt;Node3 -->
<g id="edge2" class="edge"><title>Node1&#45;&gt;Node3</title>
<path fill="none" stroke="#8b1a1a" d="M145.034,-50.3804C158.409,-40.6204 175.559,-28.1057 186.894,-19.8339"/>
<polygon fill="#8b1a1a" stroke="#8b1a1a" points="142.904,-47.602 136.889,-56.324 147.03,-53.2565 142.904,-47.602"/>
</g>
</g>
</svg>
