<?xml version="1.0" encoding="UTF-8" standalone="no"?>
<!DOCTYPE svg PUBLIC "-//W3C//DTD SVG 1.1//EN"
 "http://www.w3.org/Graphics/SVG/1.1/DTD/svg11.dtd">
<!-- Generated by graphviz version 2.36.0 (20140111.2315)
 -->
<!-- Title: ImageFileFormat Pages: 1 -->
<svg width="332pt" height="84pt"
 viewBox="0.00 0.00 332.00 84.00" xmlns="http://www.w3.org/2000/svg" xmlns:xlink="http://www.w3.org/1999/xlink">
<g id="graph0" class="graph" transform="scale(1 1) rotate(0) translate(4 80)">
<title>ImageFileFormat</title>
<!-- Node1 -->
<g id="node1" class="node"><title>Node1</title>
<polygon fill="#bfbfbf" stroke="black" points="114,-56.5 114,-75.5 204,-75.5 204,-56.5 114,-56.5"/>
<text text-anchor="middle" x="159" y="-63.5" font-family="Helvetica,sans-Serif" font-size="10.00">ImageFileFormat</text>
</g>
<!-- Node2 -->
<g id="node2" class="node"><title>Node2</title>
<g id="a_node2"><a xlink:href="group__juce__graphics-images.html#classGIFImageFormat" target="_top" xlink:title="A subclass of ImageFileFormat for reading GIF files. ">
<polygon fill="none" stroke="black" points="-0.5,-0.5 -0.5,-19.5 90.5,-19.5 90.5,-0.5 -0.5,-0.5"/>
<text text-anchor="middle" x="45" y="-7.5" font-family="Helvetica,sans-Serif" font-size="10.00">GIFImageFormat</text>
</a>
</g>
</g>
<!-- Node1&#45;&gt;Node2 -->
<g id="edge1" class="edge"><title>Node1&#45;&gt;Node2</title>
<path fill="none" stroke="midnightblue" d="M131.758,-52.096C110.46,-42.0073 81.4583,-28.2697 62.9791,-19.5164"/>
<polygon fill="midnightblue" stroke="midnightblue" points="130.401,-55.3257 140.936,-56.4435 133.397,-48.9995 130.401,-55.3257"/>
</g>
<!-- Node3 -->
<g id="node3" class="node"><title>Node3</title>
<g id="a_node3"><a xlink:href="group__juce__graphics-images.html#classJPEGImageFormat" target="_top" xlink:title="A subclass of ImageFileFormat for reading and writing JPEG files. ">
<polygon fill="none" stroke="black" points="108.5,-0.5 108.5,-19.5 209.5,-19.5 209.5,-0.5 108.5,-0.5"/>
<text text-anchor="middle" x="159" y="-7.5" font-family="Helvetica,sans-Serif" font-size="10.00">JPEGImageFormat</text>
</a>
</g>
</g>
<!-- Node1&#45;&gt;Node3 -->
<g id="edge2" class="edge"><title>Node1&#45;&gt;Node3</title>
<path fill="none" stroke="midnightblue" d="M159,-45.8045C159,-36.9102 159,-26.7798 159,-19.7511"/>
<polygon fill="midnightblue" stroke="midnightblue" points="155.5,-46.083 159,-56.083 162.5,-46.083 155.5,-46.083"/>
</g>
<!-- Node4 -->
<g id="node4" class="node"><title>Node4</title>
<g id="a_node4"><a xlink:href="group__juce__graphics-images.html#classPNGImageFormat" target="_top" xlink:title="A subclass of ImageFileFormat for reading and writing PNG files. ">
<polygon fill="none" stroke="black" points="228,-0.5 228,-19.5 324,-19.5 324,-0.5 228,-0.5"/>
<text text-anchor="middle" x="276" y="-7.5" font-family="Helvetica,sans-Serif" font-size="10.00">PNGImageFormat</text>
</a>
</g>
</g>
<!-- Node1&#45;&gt;Node4 -->
<g id="edge3" class="edge"><title>Node1&#45;&gt;Node4</title>
<path fill="none" stroke="midnightblue" d="M186.664,-52.2321C208.549,-42.1312 238.497,-28.3091 257.548,-19.5164"/>
<polygon fill="midnightblue" stroke="midnightblue" points="185.152,-49.075 177.539,-56.4435 188.085,-55.4308 185.152,-49.075"/>
</g>
</g>
</svg>
