<?xml version="1.0" encoding="UTF-8" standalone="no"?>
<!DOCTYPE svg PUBLIC "-//W3C//DTD SVG 1.1//EN"
 "http://www.w3.org/Graphics/SVG/1.1/DTD/svg11.dtd">
<!-- Generated by graphviz version 2.36.0 (20140111.2315)
 -->
<!-- Title: FileChooserDialogBox Pages: 1 -->
<svg width="223pt" height="252pt"
 viewBox="0.00 0.00 223.00 252.00" xmlns="http://www.w3.org/2000/svg" xmlns:xlink="http://www.w3.org/1999/xlink">
<g id="graph0" class="graph" transform="scale(1 1) rotate(0) translate(4 248)">
<title>FileChooserDialogBox</title>
<!-- Node1 -->
<g id="node1" class="node"><title>Node1</title>
<polygon fill="#bfbfbf" stroke="black" points="48,-0.5 48,-19.5 162,-19.5 162,-0.5 48,-0.5"/>
<text text-anchor="middle" x="105" y="-7.5" font-family="Helvetica,sans-Serif" font-size="10.00">FileChooserDialogBox</text>
</g>
<!-- Node2 -->
<g id="node2" class="node"><title>Node2</title>
<g id="a_node2"><a xlink:href="classResizableWindow.html" target="_top" xlink:title="A base class for top&#45;level windows that can be dragged around and resized. ">
<polygon fill="none" stroke="black" points="-0.5,-56.5 -0.5,-75.5 94.5,-75.5 94.5,-56.5 -0.5,-56.5"/>
<text text-anchor="middle" x="47" y="-63.5" font-family="Helvetica,sans-Serif" font-size="10.00">ResizableWindow</text>
</a>
</g>
</g>
<!-- Node2&#45;&gt;Node1 -->
<g id="edge1" class="edge"><title>Node2&#45;&gt;Node1</title>
<path fill="none" stroke="midnightblue" d="M63.9131,-49.2533C74.203,-39.6731 86.9657,-27.7906 95.5117,-19.8339"/>
<polygon fill="midnightblue" stroke="midnightblue" points="61.2527,-46.9481 56.3187,-56.324 66.0226,-52.0714 61.2527,-46.9481"/>
</g>
<!-- Node3 -->
<g id="node3" class="node"><title>Node3</title>
<g id="a_node3"><a xlink:href="classTopLevelWindow.html" target="_top" xlink:title="A base class for top&#45;level windows. ">
<polygon fill="none" stroke="black" points="1,-112.5 1,-131.5 93,-131.5 93,-112.5 1,-112.5"/>
<text text-anchor="middle" x="47" y="-119.5" font-family="Helvetica,sans-Serif" font-size="10.00">TopLevelWindow</text>
</a>
</g>
</g>
<!-- Node3&#45;&gt;Node2 -->
<g id="edge2" class="edge"><title>Node3&#45;&gt;Node2</title>
<path fill="none" stroke="midnightblue" d="M47,-101.805C47,-92.9102 47,-82.7798 47,-75.7511"/>
<polygon fill="midnightblue" stroke="midnightblue" points="43.5001,-102.083 47,-112.083 50.5001,-102.083 43.5001,-102.083"/>
</g>
<!-- Node4 -->
<g id="node4" class="node"><title>Node4</title>
<g id="a_node4"><a xlink:href="classComponent.html" target="_top" xlink:title="The base class for all JUCE user&#45;interface objects. ">
<polygon fill="none" stroke="black" points="13.5,-168.5 13.5,-187.5 80.5,-187.5 80.5,-168.5 13.5,-168.5"/>
<text text-anchor="middle" x="47" y="-175.5" font-family="Helvetica,sans-Serif" font-size="10.00">Component</text>
</a>
</g>
</g>
<!-- Node4&#45;&gt;Node3 -->
<g id="edge3" class="edge"><title>Node4&#45;&gt;Node3</title>
<path fill="none" stroke="midnightblue" d="M47,-157.805C47,-148.91 47,-138.78 47,-131.751"/>
<polygon fill="midnightblue" stroke="midnightblue" points="43.5001,-158.083 47,-168.083 50.5001,-158.083 43.5001,-158.083"/>
</g>
<!-- Node5 -->
<g id="node5" class="node"><title>Node5</title>
<g id="a_node5"><a xlink:href="classMouseListener.html" target="_top" xlink:title="A MouseListener can be registered with a component to receive callbacks about mouse events that happe...">
<polygon fill="none" stroke="black" points="7,-224.5 7,-243.5 87,-243.5 87,-224.5 7,-224.5"/>
<text text-anchor="middle" x="47" y="-231.5" font-family="Helvetica,sans-Serif" font-size="10.00">MouseListener</text>
</a>
</g>
</g>
<!-- Node5&#45;&gt;Node4 -->
<g id="edge4" class="edge"><title>Node5&#45;&gt;Node4</title>
<path fill="none" stroke="midnightblue" d="M47,-213.805C47,-204.91 47,-194.78 47,-187.751"/>
<polygon fill="midnightblue" stroke="midnightblue" points="43.5001,-214.083 47,-224.083 50.5001,-214.083 43.5001,-214.083"/>
</g>
<!-- Node6 -->
<g id="node6" class="node"><title>Node6</title>
<g id="a_node6"><a xlink:href="classFileBrowserListener.html" target="_top" xlink:title="A listener for user selection events in a file browser. ">
<polygon fill="none" stroke="black" points="112.5,-56.5 112.5,-75.5 215.5,-75.5 215.5,-56.5 112.5,-56.5"/>
<text text-anchor="middle" x="164" y="-63.5" font-family="Helvetica,sans-Serif" font-size="10.00">FileBrowserListener</text>
</a>
</g>
</g>
<!-- Node6&#45;&gt;Node1 -->
<g id="edge5" class="edge"><title>Node6&#45;&gt;Node1</title>
<path fill="none" stroke="#8b1a1a" d="M147.105,-49.5372C136.585,-39.9087 123.431,-27.8694 114.652,-19.8339"/>
<polygon fill="#8b1a1a" stroke="#8b1a1a" points="144.781,-52.1542 154.521,-56.324 149.507,-46.9905 144.781,-52.1542"/>
</g>
</g>
</svg>
