<?xml version="1.0" encoding="UTF-8" standalone="no"?>
<!DOCTYPE svg PUBLIC "-//W3C//DTD SVG 1.1//EN"
 "http://www.w3.org/Graphics/SVG/1.1/DTD/svg11.dtd">
<!-- Generated by graphviz version 2.36.0 (20140111.2315)
 -->
<!-- Title: juce::CodeEditorComponent Pages: 1 -->
<svg width="386pt" height="152pt"
 viewBox="0.00 0.00 386.00 152.00" xmlns="http://www.w3.org/2000/svg" xmlns:xlink="http://www.w3.org/1999/xlink">
<g id="graph0" class="graph" transform="scale(1 1) rotate(0) translate(4 148)">
<title>juce::CodeEditorComponent</title>
<!-- Node1 -->
<g id="node1" class="node"><title>Node1</title>
<polygon fill="#bfbfbf" stroke="black" points="113,-0.5 113,-19.5 253,-19.5 253,-0.5 113,-0.5"/>
<text text-anchor="middle" x="183" y="-7.5" font-family="Helvetica,sans-Serif" font-size="10.00">juce::CodeEditorComponent</text>
</g>
<!-- Node2 -->
<g id="node2" class="node"><title>Node2</title>
<g id="a_node2"><a xlink:href="classjuce_1_1Component.html" target="_top" xlink:title="The base class for all JUCE user&#45;interface objects. ">
<polygon fill="none" stroke="black" points="6.5,-62.5 6.5,-81.5 97.5,-81.5 97.5,-62.5 6.5,-62.5"/>
<text text-anchor="middle" x="52" y="-69.5" font-family="Helvetica,sans-Serif" font-size="10.00">juce::Component</text>
</a>
</g>
</g>
<!-- Node2&#45;&gt;Node1 -->
<g id="edge1" class="edge"><title>Node2&#45;&gt;Node1</title>
<path fill="none" stroke="midnightblue" d="M79.9015,-58.2207C105.333,-46.5726 142.199,-29.6874 164.266,-19.5806"/>
<polygon fill="midnightblue" stroke="midnightblue" points="78.4034,-55.0571 70.7691,-62.4035 81.3183,-61.4214 78.4034,-55.0571"/>
</g>
<!-- Node3 -->
<g id="node3" class="node"><title>Node3</title>
<g id="a_node3"><a xlink:href="classjuce_1_1MouseListener.html" target="_top" xlink:title="A MouseListener can be registered with a component to receive callbacks about mouse events that happe...">
<polygon fill="none" stroke="black" points="0,-124.5 0,-143.5 104,-143.5 104,-124.5 0,-124.5"/>
<text text-anchor="middle" x="52" y="-131.5" font-family="Helvetica,sans-Serif" font-size="10.00">juce::MouseListener</text>
</a>
</g>
</g>
<!-- Node3&#45;&gt;Node2 -->
<g id="edge2" class="edge"><title>Node3&#45;&gt;Node2</title>
<path fill="none" stroke="midnightblue" d="M52,-114.16C52,-103.248 52,-90.04 52,-81.5806"/>
<polygon fill="midnightblue" stroke="midnightblue" points="48.5001,-114.403 52,-124.403 55.5001,-114.403 48.5001,-114.403"/>
</g>
<!-- Node4 -->
<g id="node4" class="node"><title>Node4</title>
<g id="a_node4"><a xlink:href="classjuce_1_1ApplicationCommandTarget.html" target="_top" xlink:title="A command target publishes a list of command IDs that it can perform. ">
<polygon fill="none" stroke="black" points="116,-57 116,-87 250,-87 250,-57 116,-57"/>
<text text-anchor="start" x="124" y="-75" font-family="Helvetica,sans-Serif" font-size="10.00">juce::ApplicationCommand</text>
<text text-anchor="middle" x="183" y="-64" font-family="Helvetica,sans-Serif" font-size="10.00">Target</text>
</a>
</g>
</g>
<!-- Node4&#45;&gt;Node1 -->
<g id="edge3" class="edge"><title>Node4&#45;&gt;Node1</title>
<path fill="none" stroke="midnightblue" d="M183,-46.5858C183,-37.0743 183,-26.7864 183,-19.7305"/>
<polygon fill="midnightblue" stroke="midnightblue" points="179.5,-46.7808 183,-56.7808 186.5,-46.7809 179.5,-46.7808"/>
</g>
<!-- Node5 -->
<g id="node5" class="node"><title>Node5</title>
<g id="a_node5"><a xlink:href="classjuce_1_1TextInputTarget.html" target="_top" xlink:title="An abstract base class which can be implemented by components that function as text editors...">
<polygon fill="none" stroke="black" points="268,-62.5 268,-81.5 378,-81.5 378,-62.5 268,-62.5"/>
<text text-anchor="middle" x="323" y="-69.5" font-family="Helvetica,sans-Serif" font-size="10.00">juce::TextInputTarget</text>
</a>
</g>
</g>
<!-- Node5&#45;&gt;Node1 -->
<g id="edge4" class="edge"><title>Node5&#45;&gt;Node1</title>
<path fill="none" stroke="midnightblue" d="M293.54,-58.3743C266.35,-46.7215 226.708,-29.7319 203.021,-19.5806"/>
<polygon fill="midnightblue" stroke="midnightblue" points="292.371,-61.6812 302.941,-62.4035 295.129,-55.2472 292.371,-61.6812"/>
</g>
</g>
</svg>
