<?xml version="1.0" encoding="UTF-8" standalone="no"?>
<!DOCTYPE svg PUBLIC "-//W3C//DTD SVG 1.1//EN"
 "http://www.w3.org/Graphics/SVG/1.1/DTD/svg11.dtd">
<!-- Generated by graphviz version 2.36.0 (20140111.2315)
 -->
<!-- Title: ComboBox::Listener Pages: 1 -->
<svg width="308pt" height="142pt"
 viewBox="0.00 0.00 308.00 142.00" xmlns="http://www.w3.org/2000/svg" xmlns:xlink="http://www.w3.org/1999/xlink">
<g id="graph0" class="graph" transform="scale(1 1) rotate(0) translate(4 138)">
<title>ComboBox::Listener</title>
<!-- Node1 -->
<g id="node1" class="node"><title>Node1</title>
<polygon fill="#bfbfbf" stroke="black" points="0,-57.5 0,-76.5 106,-76.5 106,-57.5 0,-57.5"/>
<text text-anchor="middle" x="53" y="-64.5" font-family="Helvetica,sans-Serif" font-size="10.00">ComboBox::Listener</text>
</g>
<!-- Node2 -->
<g id="node2" class="node"><title>Node2</title>
<g id="a_node2"><a xlink:href="classAudioDeviceSelectorComponent.html" target="_top" xlink:title="A component containing controls to let the user change the audio settings of an AudioDeviceManager ob...">
<polygon fill="none" stroke="black" points="142,-114.5 142,-133.5 300,-133.5 300,-114.5 142,-114.5"/>
<text text-anchor="middle" x="221" y="-121.5" font-family="Helvetica,sans-Serif" font-size="10.00">AudioDeviceSelectorComponent</text>
</a>
</g>
</g>
<!-- Node1&#45;&gt;Node2 -->
<g id="edge1" class="edge"><title>Node1&#45;&gt;Node2</title>
<path fill="none" stroke="#8b1a1a" d="M82.8923,-80.9434C99.8375,-88.7482 121.819,-98.2385 142,-105 152.572,-108.542 164.154,-111.726 175.082,-114.429"/>
<polygon fill="#8b1a1a" stroke="#8b1a1a" points="84.0901,-77.6399 73.5488,-76.5762 81.126,-83.9814 84.0901,-77.6399"/>
</g>
<!-- Node3 -->
<g id="node3" class="node"><title>Node3</title>
<g id="a_node3"><a xlink:href="classChoicePropertyComponent.html" target="_top" xlink:title="A PropertyComponent that shows its value as a combo box. ">
<polygon fill="none" stroke="black" points="154,-76.5 154,-95.5 288,-95.5 288,-76.5 154,-76.5"/>
<text text-anchor="middle" x="221" y="-83.5" font-family="Helvetica,sans-Serif" font-size="10.00">ChoicePropertyComponent</text>
</a>
</g>
</g>
<!-- Node1&#45;&gt;Node3 -->
<g id="edge2" class="edge"><title>Node1&#45;&gt;Node3</title>
<path fill="none" stroke="#8b1a1a" d="M116.193,-74.1185C128.459,-75.5224 141.372,-77.0004 153.765,-78.4189"/>
<polygon fill="#8b1a1a" stroke="#8b1a1a" points="116.401,-70.6195 106.068,-72.9596 115.605,-77.5741 116.401,-70.6195"/>
</g>
<!-- Node4 -->
<g id="node4" class="node"><title>Node4</title>
<g id="a_node4"><a xlink:href="classFileBrowserComponent.html" target="_top" xlink:title="A component for browsing and selecting a file or directory to open or save. ">
<polygon fill="none" stroke="black" points="161.5,-38.5 161.5,-57.5 280.5,-57.5 280.5,-38.5 161.5,-38.5"/>
<text text-anchor="middle" x="221" y="-45.5" font-family="Helvetica,sans-Serif" font-size="10.00">FileBrowserComponent</text>
</a>
</g>
</g>
<!-- Node1&#45;&gt;Node4 -->
<g id="edge3" class="edge"><title>Node1&#45;&gt;Node4</title>
<path fill="none" stroke="#8b1a1a" d="M116.165,-59.8847C131.006,-58.186 146.797,-56.3786 161.468,-54.6994"/>
<polygon fill="#8b1a1a" stroke="#8b1a1a" points="115.605,-56.4259 106.068,-61.0404 116.401,-63.3805 115.605,-56.4259"/>
</g>
<!-- Node5 -->
<g id="node5" class="node"><title>Node5</title>
<g id="a_node5"><a xlink:href="classFilenameComponent.html" target="_top" xlink:title="Shows a filename as an editable text box, with a &#39;browse&#39; button and a drop&#45;down list for recently se...">
<polygon fill="none" stroke="black" points="167.5,-0.5 167.5,-19.5 274.5,-19.5 274.5,-0.5 167.5,-0.5"/>
<text text-anchor="middle" x="221" y="-7.5" font-family="Helvetica,sans-Serif" font-size="10.00">FilenameComponent</text>
</a>
</g>
</g>
<!-- Node1&#45;&gt;Node5 -->
<g id="edge4" class="edge"><title>Node1&#45;&gt;Node5</title>
<path fill="none" stroke="#8b1a1a" d="M82.8923,-53.0566C99.8375,-45.2518 121.819,-35.7615 142,-29 152.572,-25.4578 164.154,-22.274 175.082,-19.5705"/>
<polygon fill="#8b1a1a" stroke="#8b1a1a" points="81.126,-50.0186 73.5488,-57.4238 84.0901,-56.3601 81.126,-50.0186"/>
</g>
</g>
</svg>
