<?xml version="1.0" encoding="UTF-8" standalone="no"?>
<!DOCTYPE svg PUBLIC "-//W3C//DTD SVG 1.1//EN"
 "http://www.w3.org/Graphics/SVG/1.1/DTD/svg11.dtd">
<!-- Generated by graphviz version 2.36.0 (20140111.2315)
 -->
<!-- Title: FileBrowserComponent Pages: 1 -->
<svg width="386pt" height="256pt"
 viewBox="0.00 0.00 386.00 256.00" xmlns="http://www.w3.org/2000/svg" xmlns:xlink="http://www.w3.org/1999/xlink">
<g id="graph0" class="graph" transform="scale(1 1) rotate(0) translate(4 252)">
<title>FileBrowserComponent</title>
<!-- Node1 -->
<g id="node1" class="node"><title>Node1</title>
<polygon fill="#bfbfbf" stroke="black" points="258.5,-114.5 258.5,-133.5 377.5,-133.5 377.5,-114.5 258.5,-114.5"/>
<text text-anchor="middle" x="318" y="-121.5" font-family="Helvetica,sans-Serif" font-size="10.00">FileBrowserComponent</text>
</g>
<!-- Node2 -->
<g id="node2" class="node"><title>Node2</title>
<g id="a_node2"><a xlink:href="group__juce__gui__basics-components.html#classComponent" target="_top" xlink:title="The base class for all JUCE user&#45;interface objects. ">
<polygon fill="none" stroke="black" points="135.5,-228.5 135.5,-247.5 202.5,-247.5 202.5,-228.5 135.5,-228.5"/>
<text text-anchor="middle" x="169" y="-235.5" font-family="Helvetica,sans-Serif" font-size="10.00">Component</text>
</a>
</g>
</g>
<!-- Node2&#45;&gt;Node1 -->
<g id="edge1" class="edge"><title>Node2&#45;&gt;Node1</title>
<path fill="none" stroke="midnightblue" d="M211.994,-224.506C215.474,-222.838 218.858,-221.005 222,-219 260.148,-194.663 295.035,-152.655 309.695,-133.735"/>
<polygon fill="midnightblue" stroke="midnightblue" points="210.451,-221.36 202.658,-228.539 213.226,-227.786 210.451,-221.36"/>
</g>
<!-- Node3 -->
<g id="node3" class="node"><title>Node3</title>
<g id="a_node3"><a xlink:href="group__juce__gui__basics-mouse.html#classMouseListener" target="_top" xlink:title="A MouseListener can be registered with a component to receive callbacks about mouse events that happe...">
<polygon fill="none" stroke="black" points="0,-228.5 0,-247.5 80,-247.5 80,-228.5 0,-228.5"/>
<text text-anchor="middle" x="40" y="-235.5" font-family="Helvetica,sans-Serif" font-size="10.00">MouseListener</text>
</a>
</g>
</g>
<!-- Node3&#45;&gt;Node2 -->
<g id="edge2" class="edge"><title>Node3&#45;&gt;Node2</title>
<path fill="none" stroke="midnightblue" d="M90.3288,-238C105.367,-238 121.523,-238 135.185,-238"/>
<polygon fill="midnightblue" stroke="midnightblue" points="90.1405,-234.5 80.1405,-238 90.1404,-241.5 90.1405,-234.5"/>
</g>
<!-- Node4 -->
<g id="node4" class="node"><title>Node4</title>
<g id="a_node4"><a xlink:href="group__juce__gui__basics-filebrowser.html#classFileBrowserListener" target="_top" xlink:title="A listener for user selection events in a file browser. ">
<polygon fill="none" stroke="black" points="117.5,-190.5 117.5,-209.5 220.5,-209.5 220.5,-190.5 117.5,-190.5"/>
<text text-anchor="middle" x="169" y="-197.5" font-family="Helvetica,sans-Serif" font-size="10.00">FileBrowserListener</text>
</a>
</g>
</g>
<!-- Node4&#45;&gt;Node1 -->
<g id="edge3" class="edge"><title>Node4&#45;&gt;Node1</title>
<path fill="none" stroke="#8b1a1a" d="M208.96,-186.688C213.409,-184.896 217.838,-182.987 222,-181 252.029,-166.666 284.857,-145.674 302.987,-133.569"/>
<polygon fill="#8b1a1a" stroke="#8b1a1a" points="207.363,-183.552 199.283,-190.405 209.873,-190.086 207.363,-183.552"/>
</g>
<!-- Node5 -->
<g id="node5" class="node"><title>Node5</title>
<g id="a_node5"><a xlink:href="classTextEditor_1_1Listener.html" target="_top" xlink:title="Receives callbacks from a TextEditor component when it changes. ">
<polygon fill="none" stroke="black" points="118,-152.5 118,-171.5 220,-171.5 220,-152.5 118,-152.5"/>
<text text-anchor="middle" x="169" y="-159.5" font-family="Helvetica,sans-Serif" font-size="10.00">TextEditor::Listener</text>
</a>
</g>
</g>
<!-- Node5&#45;&gt;Node1 -->
<g id="edge4" class="edge"><title>Node5&#45;&gt;Node1</title>
<path fill="none" stroke="#8b1a1a" d="M216.855,-149.888C237.328,-144.596 260.99,-138.479 280.172,-133.52"/>
<polygon fill="#8b1a1a" stroke="#8b1a1a" points="215.9,-146.52 207.094,-152.411 217.652,-153.297 215.9,-146.52"/>
</g>
<!-- Node6 -->
<g id="node6" class="node"><title>Node6</title>
<g id="a_node6"><a xlink:href="classButton_1_1Listener.html" target="_top" xlink:title="Used to receive callbacks when a button is clicked. ">
<polygon fill="none" stroke="black" points="126,-114.5 126,-133.5 212,-133.5 212,-114.5 126,-114.5"/>
<text text-anchor="middle" x="169" y="-121.5" font-family="Helvetica,sans-Serif" font-size="10.00">Button::Listener</text>
</a>
</g>
</g>
<!-- Node6&#45;&gt;Node1 -->
<g id="edge5" class="edge"><title>Node6&#45;&gt;Node1</title>
<path fill="none" stroke="#8b1a1a" d="M222.199,-124C233.934,-124 246.462,-124 258.438,-124"/>
<polygon fill="#8b1a1a" stroke="#8b1a1a" points="222.124,-120.5 212.124,-124 222.124,-127.5 222.124,-120.5"/>
</g>
<!-- Node7 -->
<g id="node7" class="node"><title>Node7</title>
<g id="a_node7"><a xlink:href="classComboBox_1_1Listener.html" target="_top" xlink:title="A class for receiving events from a ComboBox. ">
<polygon fill="none" stroke="black" points="116,-76.5 116,-95.5 222,-95.5 222,-76.5 116,-76.5"/>
<text text-anchor="middle" x="169" y="-83.5" font-family="Helvetica,sans-Serif" font-size="10.00">ComboBox::Listener</text>
</a>
</g>
</g>
<!-- Node7&#45;&gt;Node1 -->
<g id="edge6" class="edge"><title>Node7&#45;&gt;Node1</title>
<path fill="none" stroke="#8b1a1a" d="M216.855,-98.1121C237.328,-103.404 260.99,-109.521 280.172,-114.48"/>
<polygon fill="#8b1a1a" stroke="#8b1a1a" points="217.652,-94.7032 207.094,-95.589 215.9,-101.48 217.652,-94.7032"/>
</g>
<!-- Node8 -->
<g id="node8" class="node"><title>Node8</title>
<g id="a_node8"><a xlink:href="group__juce__core-files.html#classFileFilter" target="_top" xlink:title="Interface for deciding which files are suitable for something. ">
<polygon fill="none" stroke="black" points="142,-38.5 142,-57.5 196,-57.5 196,-38.5 142,-38.5"/>
<text text-anchor="middle" x="169" y="-45.5" font-family="Helvetica,sans-Serif" font-size="10.00">FileFilter</text>
</a>
</g>
</g>
<!-- Node8&#45;&gt;Node1 -->
<g id="edge7" class="edge"><title>Node8&#45;&gt;Node1</title>
<path fill="none" stroke="#8b1a1a" d="M205.791,-60.057C211.291,-62.2014 216.85,-64.5416 222,-67 252.029,-81.3345 284.857,-102.326 302.987,-114.431"/>
<polygon fill="#8b1a1a" stroke="#8b1a1a" points="206.647,-56.6407 196.054,-56.425 204.2,-63.1993 206.647,-56.6407"/>
</g>
<!-- Node9 -->
<g id="node9" class="node"><title>Node9</title>
<g id="a_node9"><a xlink:href="group__juce__events-timers.html#classTimer" target="_top" xlink:title="Makes repeated callbacks to a virtual method at a specified time interval. ">
<polygon fill="none" stroke="black" points="148.5,-0.5 148.5,-19.5 189.5,-19.5 189.5,-0.5 148.5,-0.5"/>
<text text-anchor="middle" x="169" y="-7.5" font-family="Helvetica,sans-Serif" font-size="10.00">Timer</text>
</a>
</g>
</g>
<!-- Node9&#45;&gt;Node1 -->
<g id="edge8" class="edge"><title>Node9&#45;&gt;Node1</title>
<path fill="none" stroke="#8b1a1a" d="M199.436,-18.2426C207.098,-21.0498 215.126,-24.615 222,-29 260.148,-53.3366 295.035,-95.3446 309.695,-114.265"/>
<polygon fill="#8b1a1a" stroke="#8b1a1a" points="200.295,-14.8393 189.701,-14.9837 198.073,-21.4772 200.295,-14.8393"/>
</g>
</g>
</svg>
