<?xml version="1.0" encoding="UTF-8" standalone="no"?>
<!DOCTYPE svg PUBLIC "-//W3C//DTD SVG 1.1//EN"
 "http://www.w3.org/Graphics/SVG/1.1/DTD/svg11.dtd">
<!-- Generated by graphviz version 2.36.0 (20140111.2315)
 -->
<!-- Title: juce::RelativePointPath::ElementBase Pages: 1 -->
<svg width="284pt" height="234pt"
 viewBox="0.00 0.00 284.00 234.00" xmlns="http://www.w3.org/2000/svg" xmlns:xlink="http://www.w3.org/1999/xlink">
<g id="graph0" class="graph" transform="scale(1 1) rotate(0) translate(4 230)">
<title>juce::RelativePointPath::ElementBase</title>
<!-- Node1 -->
<g id="node1" class="node"><title>Node1</title>
<polygon fill="#bfbfbf" stroke="black" points="0.5,-98 0.5,-128 119.5,-128 119.5,-98 0.5,-98"/>
<text text-anchor="start" x="8.5" y="-116" font-family="Helvetica,sans-Serif" font-size="10.00">juce::RelativePointPath</text>
<text text-anchor="middle" x="60" y="-105" font-family="Helvetica,sans-Serif" font-size="10.00">::ElementBase</text>
</g>
<!-- Node2 -->
<g id="node2" class="node"><title>Node2</title>
<g id="a_node2"><a xlink:href="classjuce_1_1RelativePointPath_1_1CloseSubPath.html" target="_top" xlink:title="juce::RelativePointPath\l::CloseSubPath">
<polygon fill="none" stroke="black" points="156.5,-196 156.5,-226 275.5,-226 275.5,-196 156.5,-196"/>
<text text-anchor="start" x="164.5" y="-214" font-family="Helvetica,sans-Serif" font-size="10.00">juce::RelativePointPath</text>
<text text-anchor="middle" x="216" y="-203" font-family="Helvetica,sans-Serif" font-size="10.00">::CloseSubPath</text>
</a>
</g>
</g>
<!-- Node1&#45;&gt;Node2 -->
<g id="edge1" class="edge"><title>Node1&#45;&gt;Node2</title>
<path fill="none" stroke="midnightblue" d="M85.5642,-134.687C104.052,-150.29 130.488,-171.121 156,-186 162.15,-189.587 168.913,-192.943 175.597,-195.959"/>
<polygon fill="midnightblue" stroke="midnightblue" points="87.7826,-131.979 77.9078,-128.14 83.2332,-137.299 87.7826,-131.979"/>
</g>
<!-- Node3 -->
<g id="node3" class="node"><title>Node3</title>
<g id="a_node3"><a xlink:href="classjuce_1_1RelativePointPath_1_1CubicTo.html" target="_top" xlink:title="juce::RelativePointPath\l::CubicTo">
<polygon fill="none" stroke="black" points="156.5,-147 156.5,-177 275.5,-177 275.5,-147 156.5,-147"/>
<text text-anchor="start" x="164.5" y="-165" font-family="Helvetica,sans-Serif" font-size="10.00">juce::RelativePointPath</text>
<text text-anchor="middle" x="216" y="-154" font-family="Helvetica,sans-Serif" font-size="10.00">::CubicTo</text>
</a>
</g>
</g>
<!-- Node1&#45;&gt;Node3 -->
<g id="edge2" class="edge"><title>Node1&#45;&gt;Node3</title>
<path fill="none" stroke="midnightblue" d="M118.386,-131.259C134.629,-136.427 152.119,-141.992 167.695,-146.948"/>
<polygon fill="midnightblue" stroke="midnightblue" points="119.052,-127.798 108.462,-128.101 116.93,-134.469 119.052,-127.798"/>
</g>
<!-- Node4 -->
<g id="node4" class="node"><title>Node4</title>
<g id="a_node4"><a xlink:href="classjuce_1_1RelativePointPath_1_1LineTo.html" target="_top" xlink:title="juce::RelativePointPath\l::LineTo">
<polygon fill="none" stroke="black" points="156.5,-98 156.5,-128 275.5,-128 275.5,-98 156.5,-98"/>
<text text-anchor="start" x="164.5" y="-116" font-family="Helvetica,sans-Serif" font-size="10.00">juce::RelativePointPath</text>
<text text-anchor="middle" x="216" y="-105" font-family="Helvetica,sans-Serif" font-size="10.00">::LineTo</text>
</a>
</g>
</g>
<!-- Node1&#45;&gt;Node4 -->
<g id="edge3" class="edge"><title>Node1&#45;&gt;Node4</title>
<path fill="none" stroke="midnightblue" d="M129.894,-113C138.691,-113 147.631,-113 156.248,-113"/>
<polygon fill="midnightblue" stroke="midnightblue" points="129.66,-109.5 119.66,-113 129.66,-116.5 129.66,-109.5"/>
</g>
<!-- Node5 -->
<g id="node5" class="node"><title>Node5</title>
<g id="a_node5"><a xlink:href="classjuce_1_1RelativePointPath_1_1QuadraticTo.html" target="_top" xlink:title="juce::RelativePointPath\l::QuadraticTo">
<polygon fill="none" stroke="black" points="156.5,-49 156.5,-79 275.5,-79 275.5,-49 156.5,-49"/>
<text text-anchor="start" x="164.5" y="-67" font-family="Helvetica,sans-Serif" font-size="10.00">juce::RelativePointPath</text>
<text text-anchor="middle" x="216" y="-56" font-family="Helvetica,sans-Serif" font-size="10.00">::QuadraticTo</text>
</a>
</g>
</g>
<!-- Node1&#45;&gt;Node5 -->
<g id="edge4" class="edge"><title>Node1&#45;&gt;Node5</title>
<path fill="none" stroke="midnightblue" d="M118.386,-94.7409C134.629,-89.5727 152.119,-84.0076 167.695,-79.0516"/>
<polygon fill="midnightblue" stroke="midnightblue" points="116.93,-91.5312 108.462,-97.8986 119.052,-98.2017 116.93,-91.5312"/>
</g>
<!-- Node6 -->
<g id="node6" class="node"><title>Node6</title>
<g id="a_node6"><a xlink:href="classjuce_1_1RelativePointPath_1_1StartSubPath.html" target="_top" xlink:title="juce::RelativePointPath\l::StartSubPath">
<polygon fill="none" stroke="black" points="156.5,-0 156.5,-30 275.5,-30 275.5,-0 156.5,-0"/>
<text text-anchor="start" x="164.5" y="-18" font-family="Helvetica,sans-Serif" font-size="10.00">juce::RelativePointPath</text>
<text text-anchor="middle" x="216" y="-7" font-family="Helvetica,sans-Serif" font-size="10.00">::StartSubPath</text>
</a>
</g>
</g>
<!-- Node1&#45;&gt;Node6 -->
<g id="edge5" class="edge"><title>Node1&#45;&gt;Node6</title>
<path fill="none" stroke="midnightblue" d="M85.5642,-91.3129C104.052,-75.7098 130.488,-54.879 156,-40 162.15,-36.4131 168.913,-33.0571 175.597,-30.0408"/>
<polygon fill="midnightblue" stroke="midnightblue" points="83.2332,-88.701 77.9078,-97.8602 87.7826,-94.0211 83.2332,-88.701"/>
</g>
</g>
</svg>
