<?xml version="1.0" encoding="UTF-8" standalone="no"?>
<!DOCTYPE svg PUBLIC "-//W3C//DTD SVG 1.1//EN"
 "http://www.w3.org/Graphics/SVG/1.1/DTD/svg11.dtd">
<!-- Generated by graphviz version 2.36.0 (20140111.2315)
 -->
<!-- Title: juce::ChangeBroadcaster Pages: 1 -->
<svg width="468pt" height="572pt"
 viewBox="0.00 0.00 468.00 572.00" xmlns="http://www.w3.org/2000/svg" xmlns:xlink="http://www.w3.org/1999/xlink">
<g id="graph0" class="graph" transform="scale(1 1) rotate(0) translate(4 568)">
<title>juce::ChangeBroadcaster</title>
<!-- Node1 -->
<g id="node1" class="node"><title>Node1</title>
<polygon fill="#bfbfbf" stroke="black" points="0.5,-278.5 0.5,-297.5 127.5,-297.5 127.5,-278.5 0.5,-278.5"/>
<text text-anchor="middle" x="64" y="-285.5" font-family="Helvetica,sans-Serif" font-size="10.00">juce::ChangeBroadcaster</text>
</g>
<!-- Node2 -->
<g id="node2" class="node"><title>Node2</title>
<g id="a_node2"><a xlink:href="classjuce_1_1AudioCDBurner.html" target="_top" xlink:title="juce::AudioCDBurner">
<polygon fill="none" stroke="black" points="184.5,-544.5 184.5,-563.5 293.5,-563.5 293.5,-544.5 184.5,-544.5"/>
<text text-anchor="middle" x="239" y="-551.5" font-family="Helvetica,sans-Serif" font-size="10.00">juce::AudioCDBurner</text>
</a>
</g>
</g>
<!-- Node1&#45;&gt;Node2 -->
<g id="edge1" class="edge"><title>Node1&#45;&gt;Node2</title>
<path fill="none" stroke="midnightblue" d="M66.929,-307.573C72.6121,-354.326 93.5987,-473.196 164,-535 169.881,-540.163 176.982,-543.955 184.428,-546.734"/>
<polygon fill="midnightblue" stroke="midnightblue" points="70.3985,-307.104 65.8162,-297.552 63.4413,-307.877 70.3985,-307.104"/>
</g>
<!-- Node3 -->
<g id="node3" class="node"><title>Node3</title>
<g id="a_node3"><a xlink:href="classjuce_1_1AudioDeviceManager.html" target="_top" xlink:title="Manages the state of some audio and midi i/o devices. ">
<polygon fill="none" stroke="black" points="172,-506.5 172,-525.5 306,-525.5 306,-506.5 172,-506.5"/>
<text text-anchor="middle" x="239" y="-513.5" font-family="Helvetica,sans-Serif" font-size="10.00">juce::AudioDeviceManager</text>
</a>
</g>
</g>
<!-- Node1&#45;&gt;Node3 -->
<g id="edge2" class="edge"><title>Node1&#45;&gt;Node3</title>
<path fill="none" stroke="midnightblue" d="M68.5183,-307.62C77.0297,-349.188 102.726,-446.441 164,-497 168.706,-500.883 174.11,-503.984 179.81,-506.459"/>
<polygon fill="midnightblue" stroke="midnightblue" points="71.9294,-306.825 66.5964,-297.671 65.0565,-308.153 71.9294,-306.825"/>
</g>
<!-- Node4 -->
<g id="node4" class="node"><title>Node4</title>
<g id="a_node4"><a xlink:href="classjuce_1_1AudioThumbnailBase.html" target="_top" xlink:title="Provides a base for classes that can store and draw scaled views of an audio waveform. ">
<polygon fill="none" stroke="black" points="172.5,-468.5 172.5,-487.5 305.5,-487.5 305.5,-468.5 172.5,-468.5"/>
<text text-anchor="middle" x="239" y="-475.5" font-family="Helvetica,sans-Serif" font-size="10.00">juce::AudioThumbnailBase</text>
</a>
</g>
</g>
<!-- Node1&#45;&gt;Node4 -->
<g id="edge3" class="edge"><title>Node1&#45;&gt;Node4</title>
<path fill="none" stroke="midnightblue" d="M70.6053,-307.189C82.0311,-342.818 111.48,-419.184 164,-459 169.074,-462.846 174.846,-465.918 180.877,-468.371"/>
<polygon fill="midnightblue" stroke="midnightblue" points="73.918,-306.053 67.6324,-297.524 67.2274,-308.112 73.918,-306.053"/>
</g>
<!-- Node6 -->
<g id="node6" class="node"><title>Node6</title>
<g id="a_node6"><a xlink:href="classjuce_1_1AudioTransportSource.html" target="_top" xlink:title="An AudioSource that takes a PositionableAudioSource and allows it to be played, stopped, started, etc. ">
<polygon fill="none" stroke="black" points="170.5,-430.5 170.5,-449.5 307.5,-449.5 307.5,-430.5 170.5,-430.5"/>
<text text-anchor="middle" x="239" y="-437.5" font-family="Helvetica,sans-Serif" font-size="10.00">juce::AudioTransportSource</text>
</a>
</g>
</g>
<!-- Node1&#45;&gt;Node6 -->
<g id="edge5" class="edge"><title>Node1&#45;&gt;Node6</title>
<path fill="none" stroke="midnightblue" d="M73.7993,-306.934C88.3349,-336.065 120.171,-391.583 164,-421 169.837,-424.918 176.429,-428.028 183.213,-430.496"/>
<polygon fill="midnightblue" stroke="midnightblue" points="76.894,-305.294 69.3882,-297.817 70.5928,-308.343 76.894,-305.294"/>
</g>
<!-- Node7 -->
<g id="node7" class="node"><title>Node7</title>
<g id="a_node7"><a xlink:href="classjuce_1_1ColourSelector.html" target="_top" xlink:title="A component that lets the user choose a colour. ">
<polygon fill="none" stroke="black" points="186.5,-392.5 186.5,-411.5 291.5,-411.5 291.5,-392.5 186.5,-392.5"/>
<text text-anchor="middle" x="239" y="-399.5" font-family="Helvetica,sans-Serif" font-size="10.00">juce::ColourSelector</text>
</a>
</g>
</g>
<!-- Node1&#45;&gt;Node7 -->
<g id="edge6" class="edge"><title>Node1&#45;&gt;Node7</title>
<path fill="none" stroke="midnightblue" d="M78.6063,-305.765C96.0492,-327.292 128.331,-363.139 164,-383 170.953,-386.872 178.712,-389.972 186.517,-392.45"/>
<polygon fill="midnightblue" stroke="midnightblue" points="81.2224,-303.431 72.2715,-297.762 75.7337,-307.775 81.2224,-303.431"/>
</g>
<!-- Node8 -->
<g id="node8" class="node"><title>Node8</title>
<g id="a_node8"><a xlink:href="classjuce_1_1ComponentAnimator.html" target="_top" xlink:title="Animates a set of components, moving them to a new position and/or fading their alpha levels...">
<polygon fill="none" stroke="black" points="174,-354.5 174,-373.5 304,-373.5 304,-354.5 174,-354.5"/>
<text text-anchor="middle" x="239" y="-361.5" font-family="Helvetica,sans-Serif" font-size="10.00">juce::ComponentAnimator</text>
</a>
</g>
</g>
<!-- Node1&#45;&gt;Node8 -->
<g id="edge7" class="edge"><title>Node1&#45;&gt;Node8</title>
<path fill="none" stroke="midnightblue" d="M87.276,-303.18C106.777,-315.883 136.252,-333.696 164,-345 173.09,-348.703 183.108,-351.853 192.758,-354.46"/>
<polygon fill="midnightblue" stroke="midnightblue" points="89.0788,-300.176 78.808,-297.575 85.2153,-306.013 89.0788,-300.176"/>
</g>
<!-- Node9 -->
<g id="node9" class="node"><title>Node9</title>
<g id="a_node9"><a xlink:href="classjuce_1_1DirectoryContentsList.html" target="_top" xlink:title="A class to asynchronously scan for details about the files in a directory. ">
<polygon fill="none" stroke="black" points="171,-316.5 171,-335.5 307,-335.5 307,-316.5 171,-316.5"/>
<text text-anchor="middle" x="239" y="-323.5" font-family="Helvetica,sans-Serif" font-size="10.00">juce::DirectoryContentsList</text>
</a>
</g>
</g>
<!-- Node1&#45;&gt;Node9 -->
<g id="edge8" class="edge"><title>Node1&#45;&gt;Node9</title>
<path fill="none" stroke="midnightblue" d="M118.505,-299.753C142.967,-305.126 171.571,-311.409 194.659,-316.48"/>
<polygon fill="midnightblue" stroke="midnightblue" points="119.173,-296.316 108.655,-297.589 117.671,-303.153 119.173,-296.316"/>
</g>
<!-- Node10 -->
<g id="node10" class="node"><title>Node10</title>
<g id="a_node10"><a xlink:href="classjuce_1_1FileBasedDocument.html" target="_top" xlink:title="A class to take care of the logic involved with the loading/saving of some kind of document...">
<polygon fill="none" stroke="black" points="174.5,-278.5 174.5,-297.5 303.5,-297.5 303.5,-278.5 174.5,-278.5"/>
<text text-anchor="middle" x="239" y="-285.5" font-family="Helvetica,sans-Serif" font-size="10.00">juce::FileBasedDocument</text>
</a>
</g>
</g>
<!-- Node1&#45;&gt;Node10 -->
<g id="edge9" class="edge"><title>Node1&#45;&gt;Node10</title>
<path fill="none" stroke="midnightblue" d="M137.964,-288C150.016,-288 162.427,-288 174.23,-288"/>
<polygon fill="midnightblue" stroke="midnightblue" points="137.946,-284.5 127.946,-288 137.946,-291.5 137.946,-284.5"/>
</g>
<!-- Node11 -->
<g id="node11" class="node"><title>Node11</title>
<g id="a_node11"><a xlink:href="classjuce_1_1KeyPressMappingSet.html" target="_top" xlink:title="Manages and edits a list of keypresses, which it uses to invoke the appropriate command in an Applica...">
<polygon fill="none" stroke="black" points="171.5,-240.5 171.5,-259.5 306.5,-259.5 306.5,-240.5 171.5,-240.5"/>
<text text-anchor="middle" x="239" y="-247.5" font-family="Helvetica,sans-Serif" font-size="10.00">juce::KeyPressMappingSet</text>
</a>
</g>
</g>
<!-- Node1&#45;&gt;Node11 -->
<g id="edge10" class="edge"><title>Node1&#45;&gt;Node11</title>
<path fill="none" stroke="midnightblue" d="M118.505,-276.247C142.967,-270.874 171.571,-264.591 194.659,-259.52"/>
<polygon fill="midnightblue" stroke="midnightblue" points="117.671,-272.847 108.655,-278.411 119.173,-279.684 117.671,-272.847"/>
</g>
<!-- Node12 -->
<g id="node12" class="node"><title>Node12</title>
<g id="a_node12"><a xlink:href="classjuce_1_1KnownPluginList.html" target="_top" xlink:title="Manages a list of plugin types. ">
<polygon fill="none" stroke="black" points="182.5,-202.5 182.5,-221.5 295.5,-221.5 295.5,-202.5 182.5,-202.5"/>
<text text-anchor="middle" x="239" y="-209.5" font-family="Helvetica,sans-Serif" font-size="10.00">juce::KnownPluginList</text>
</a>
</g>
</g>
<!-- Node1&#45;&gt;Node12 -->
<g id="edge11" class="edge"><title>Node1&#45;&gt;Node12</title>
<path fill="none" stroke="midnightblue" d="M87.276,-272.82C106.777,-260.117 136.252,-242.304 164,-231 173.09,-227.297 183.108,-224.147 192.758,-221.54"/>
<polygon fill="midnightblue" stroke="midnightblue" points="85.2153,-269.987 78.808,-278.425 89.0788,-275.824 85.2153,-269.987"/>
</g>
<!-- Node13 -->
<g id="node13" class="node"><title>Node13</title>
<g id="a_node13"><a xlink:href="classjuce_1_1MidiKeyboardComponent.html" target="_top" xlink:title="A component that displays a piano keyboard, whose notes can be clicked on. ">
<polygon fill="none" stroke="black" points="164,-164.5 164,-183.5 314,-183.5 314,-164.5 164,-164.5"/>
<text text-anchor="middle" x="239" y="-171.5" font-family="Helvetica,sans-Serif" font-size="10.00">juce::MidiKeyboardComponent</text>
</a>
</g>
</g>
<!-- Node1&#45;&gt;Node13 -->
<g id="edge12" class="edge"><title>Node1&#45;&gt;Node13</title>
<path fill="none" stroke="midnightblue" d="M78.6063,-270.235C96.0492,-248.708 128.331,-212.861 164,-193 170.953,-189.128 178.712,-186.028 186.517,-183.55"/>
<polygon fill="midnightblue" stroke="midnightblue" points="75.7337,-268.225 72.2715,-278.238 81.2224,-272.569 75.7337,-268.225"/>
</g>
<!-- Node14 -->
<g id="node14" class="node"><title>Node14</title>
<g id="a_node14"><a xlink:href="classjuce_1_1PropertiesFile.html" target="_top" xlink:title="Wrapper on a file that stores a list of key/value data pairs. ">
<polygon fill="none" stroke="black" points="188.5,-126.5 188.5,-145.5 289.5,-145.5 289.5,-126.5 188.5,-126.5"/>
<text text-anchor="middle" x="239" y="-133.5" font-family="Helvetica,sans-Serif" font-size="10.00">juce::PropertiesFile</text>
</a>
</g>
</g>
<!-- Node1&#45;&gt;Node14 -->
<g id="edge13" class="edge"><title>Node1&#45;&gt;Node14</title>
<path fill="none" stroke="midnightblue" d="M73.7993,-269.066C88.3349,-239.935 120.171,-184.417 164,-155 171.269,-150.121 179.708,-146.495 188.231,-143.8"/>
<polygon fill="midnightblue" stroke="midnightblue" points="70.5928,-267.657 69.3882,-278.183 76.894,-270.706 70.5928,-267.657"/>
</g>
<!-- Node15 -->
<g id="node15" class="node"><title>Node15</title>
<g id="a_node15"><a xlink:href="classjuce_1_1SelectedItemSet.html" target="_top" xlink:title="Manages a list of selectable items. ">
<polygon fill="none" stroke="black" points="178,-77 178,-107 300,-107 300,-77 178,-77"/>
<text text-anchor="start" x="186" y="-95" font-family="Helvetica,sans-Serif" font-size="10.00">juce::SelectedItemSet</text>
<text text-anchor="middle" x="239" y="-84" font-family="Helvetica,sans-Serif" font-size="10.00">&lt; SelectableItemType &gt;</text>
</a>
</g>
</g>
<!-- Node1&#45;&gt;Node15 -->
<g id="edge14" class="edge"><title>Node1&#45;&gt;Node15</title>
<path fill="none" stroke="midnightblue" d="M71.0585,-268.673C83.0744,-233.433 113.239,-158.546 164,-117 168.722,-113.135 174.071,-109.856 179.68,-107.077"/>
<polygon fill="midnightblue" stroke="midnightblue" points="67.7064,-267.663 67.9094,-278.256 74.3565,-269.848 67.7064,-267.663"/>
</g>
<!-- Node16 -->
<g id="node16" class="node"><title>Node16</title>
<g id="a_node16"><a xlink:href="classjuce_1_1TabbedButtonBar.html" target="_top" xlink:title="A vertical or horizontal bar containing tabs that you can select. ">
<polygon fill="none" stroke="black" points="181,-38.5 181,-57.5 297,-57.5 297,-38.5 181,-38.5"/>
<text text-anchor="middle" x="239" y="-45.5" font-family="Helvetica,sans-Serif" font-size="10.00">juce::TabbedButtonBar</text>
</a>
</g>
</g>
<!-- Node1&#45;&gt;Node16 -->
<g id="edge15" class="edge"><title>Node1&#45;&gt;Node16</title>
<path fill="none" stroke="midnightblue" d="M68.0816,-268.308C75.8836,-225.223 100.509,-122.127 164,-68 169.064,-63.6831 174.972,-60.2895 181.203,-57.6233"/>
<polygon fill="midnightblue" stroke="midnightblue" points="64.6011,-267.899 66.3773,-278.343 71.5023,-269.071 64.6011,-267.899"/>
</g>
<!-- Node17 -->
<g id="node17" class="node"><title>Node17</title>
<g id="a_node17"><a xlink:href="classjuce_1_1UndoManager.html" target="_top" xlink:title="Manages a list of undo/redo commands. ">
<polygon fill="none" stroke="black" points="188.5,-0.5 188.5,-19.5 289.5,-19.5 289.5,-0.5 188.5,-0.5"/>
<text text-anchor="middle" x="239" y="-7.5" font-family="Helvetica,sans-Serif" font-size="10.00">juce::UndoManager</text>
</a>
</g>
</g>
<!-- Node1&#45;&gt;Node17 -->
<g id="edge16" class="edge"><title>Node1&#45;&gt;Node17</title>
<path fill="none" stroke="midnightblue" d="M66.5483,-268.141C71.4285,-219.624 90.8429,-94.2737 164,-29 170.829,-22.9069 179.353,-18.7181 188.161,-15.8496"/>
<polygon fill="midnightblue" stroke="midnightblue" points="63.0483,-267.984 65.6346,-278.258 70.02,-268.613 63.0483,-267.984"/>
</g>
<!-- Node5 -->
<g id="node5" class="node"><title>Node5</title>
<g id="a_node5"><a xlink:href="classjuce_1_1AudioThumbnail.html" target="_top" xlink:title="Makes it easy to quickly draw scaled views of the waveform shape of an audio file. ">
<polygon fill="none" stroke="black" points="350,-468.5 350,-487.5 460,-487.5 460,-468.5 350,-468.5"/>
<text text-anchor="middle" x="405" y="-475.5" font-family="Helvetica,sans-Serif" font-size="10.00">juce::AudioThumbnail</text>
</a>
</g>
</g>
<!-- Node4&#45;&gt;Node5 -->
<g id="edge4" class="edge"><title>Node4&#45;&gt;Node5</title>
<path fill="none" stroke="midnightblue" d="M315.781,-478C327.258,-478 338.898,-478 349.796,-478"/>
<polygon fill="midnightblue" stroke="midnightblue" points="315.76,-474.5 305.76,-478 315.76,-481.5 315.76,-474.5"/>
</g>
</g>
</svg>
