<?xml version="1.0" encoding="UTF-8" standalone="no"?>
<!DOCTYPE svg PUBLIC "-//W3C//DTD SVG 1.1//EN"
 "http://www.w3.org/Graphics/SVG/1.1/DTD/svg11.dtd">
<!-- Generated by graphviz version 2.36.0 (20140111.2315)
 -->
<!-- Title: juce::OutputStream Pages: 1 -->
<svg width="444pt" height="96pt"
 viewBox="0.00 0.00 444.00 96.00" xmlns="http://www.w3.org/2000/svg" xmlns:xlink="http://www.w3.org/1999/xlink">
<g id="graph0" class="graph" transform="scale(1 1) rotate(0) translate(4 92)">
<title>juce::OutputStream</title>
<!-- Node1 -->
<g id="node1" class="node"><title>Node1</title>
<polygon fill="#bfbfbf" stroke="black" points="157.5,-68.5 157.5,-87.5 258.5,-87.5 258.5,-68.5 157.5,-68.5"/>
<text text-anchor="middle" x="208" y="-75.5" font-family="Helvetica,sans-Serif" font-size="10.00">juce::OutputStream</text>
</g>
<!-- Node2 -->
<g id="node2" class="node"><title>Node2</title>
<g id="a_node2"><a xlink:href="classjuce_1_1FileOutputStream.html" target="_top" xlink:title="An output stream that writes into a local file. ">
<polygon fill="none" stroke="black" points="-0.5,-6.5 -0.5,-25.5 116.5,-25.5 116.5,-6.5 -0.5,-6.5"/>
<text text-anchor="middle" x="58" y="-13.5" font-family="Helvetica,sans-Serif" font-size="10.00">juce::FileOutputStream</text>
</a>
</g>
</g>
<!-- Node1&#45;&gt;Node2 -->
<g id="edge1" class="edge"><title>Node1&#45;&gt;Node2</title>
<path fill="none" stroke="midnightblue" d="M177.199,-64.6797C148.05,-53.0201 105.052,-35.8209 79.4515,-25.5806"/>
<polygon fill="midnightblue" stroke="midnightblue" points="175.924,-67.9392 186.509,-68.4035 178.524,-61.4398 175.924,-67.9392"/>
</g>
<!-- Node3 -->
<g id="node3" class="node"><title>Node3</title>
<g id="a_node3"><a xlink:href="classjuce_1_1GZIPCompressorOutputStream.html" target="_top" xlink:title="A stream which uses zlib to compress the data written into it. ">
<polygon fill="none" stroke="black" points="135,-1 135,-31 281,-31 281,-1 135,-1"/>
<text text-anchor="start" x="143" y="-19" font-family="Helvetica,sans-Serif" font-size="10.00">juce::GZIPCompressorOutput</text>
<text text-anchor="middle" x="208" y="-8" font-family="Helvetica,sans-Serif" font-size="10.00">Stream</text>
</a>
</g>
</g>
<!-- Node1&#45;&gt;Node3 -->
<g id="edge2" class="edge"><title>Node1&#45;&gt;Node3</title>
<path fill="none" stroke="midnightblue" d="M208,-58.3707C208,-49.5849 208,-39.2721 208,-31.1408"/>
<polygon fill="midnightblue" stroke="midnightblue" points="204.5,-58.4034 208,-68.4035 211.5,-58.4035 204.5,-58.4034"/>
</g>
<!-- Node4 -->
<g id="node4" class="node"><title>Node4</title>
<g id="a_node4"><a xlink:href="classjuce_1_1MemoryOutputStream.html" target="_top" xlink:title="Writes data to an internal memory buffer, which grows as required. ">
<polygon fill="none" stroke="black" points="299.5,-6.5 299.5,-25.5 436.5,-25.5 436.5,-6.5 299.5,-6.5"/>
<text text-anchor="middle" x="368" y="-13.5" font-family="Helvetica,sans-Serif" font-size="10.00">juce::MemoryOutputStream</text>
</a>
</g>
</g>
<!-- Node1&#45;&gt;Node4 -->
<g id="edge3" class="edge"><title>Node1&#45;&gt;Node4</title>
<path fill="none" stroke="midnightblue" d="M240.449,-64.8315C271.547,-53.1697 317.692,-35.8655 345.118,-25.5806"/>
<polygon fill="midnightblue" stroke="midnightblue" points="239.058,-61.615 230.924,-68.4035 241.516,-68.1693 239.058,-61.615"/>
</g>
</g>
</svg>
