<?xml version="1.0" encoding="UTF-8" standalone="no"?>
<!DOCTYPE svg PUBLIC "-//W3C//DTD SVG 1.1//EN"
 "http://www.w3.org/Graphics/SVG/1.1/DTD/svg11.dtd">
<!-- Generated by graphviz version 2.36.0 (20140111.2315)
 -->
<!-- Title: AudioFormat Pages: 1 -->
<svg width="256pt" height="294pt"
 viewBox="0.00 0.00 256.00 294.00" xmlns="http://www.w3.org/2000/svg" xmlns:xlink="http://www.w3.org/1999/xlink">
<g id="graph0" class="graph" transform="scale(1 1) rotate(0) translate(4 290)">
<title>AudioFormat</title>
<!-- Node1 -->
<g id="node1" class="node"><title>Node1</title>
<polygon fill="#bfbfbf" stroke="black" points="0,-133.5 0,-152.5 72,-152.5 72,-133.5 0,-133.5"/>
<text text-anchor="middle" x="36" y="-140.5" font-family="Helvetica,sans-Serif" font-size="10.00">AudioFormat</text>
</g>
<!-- Node2 -->
<g id="node2" class="node"><title>Node2</title>
<g id="a_node2"><a xlink:href="group__juce__audio__formats-codecs.html#classAiffAudioFormat" target="_top" xlink:title="Reads and Writes AIFF format audio files. ">
<polygon fill="none" stroke="black" points="134.5,-266.5 134.5,-285.5 221.5,-285.5 221.5,-266.5 134.5,-266.5"/>
<text text-anchor="middle" x="178" y="-273.5" font-family="Helvetica,sans-Serif" font-size="10.00">AiffAudioFormat</text>
</a>
</g>
</g>
<!-- Node1&#45;&gt;Node2 -->
<g id="edge1" class="edge"><title>Node1&#45;&gt;Node2</title>
<path fill="none" stroke="midnightblue" d="M43.8545,-162.303C53.9185,-187.838 75.1384,-232.47 108,-257 115.667,-262.723 124.964,-266.722 134.217,-269.517"/>
<polygon fill="midnightblue" stroke="midnightblue" points="47.018,-160.772 40.2229,-152.643 40.4657,-163.235 47.018,-160.772"/>
</g>
<!-- Node3 -->
<g id="node3" class="node"><title>Node3</title>
<g id="a_node3"><a xlink:href="group__juce__audio__formats-codecs.html#classCoreAudioFormat" target="_top" xlink:title="OSX and iOS only &#45; This uses the AudioToolbox framework to read any audio format that the system has ...">
<polygon fill="none" stroke="black" points="131.5,-228.5 131.5,-247.5 224.5,-247.5 224.5,-228.5 131.5,-228.5"/>
<text text-anchor="middle" x="178" y="-235.5" font-family="Helvetica,sans-Serif" font-size="10.00">CoreAudioFormat</text>
</a>
</g>
</g>
<!-- Node1&#45;&gt;Node3 -->
<g id="edge2" class="edge"><title>Node1&#45;&gt;Node3</title>
<path fill="none" stroke="midnightblue" d="M49.0142,-160.708C61.7011,-178.067 83.2665,-204.037 108,-219 115.123,-223.309 123.244,-226.664 131.352,-229.269"/>
<polygon fill="midnightblue" stroke="midnightblue" points="51.8529,-158.66 43.2193,-152.519 46.1389,-162.704 51.8529,-158.66"/>
</g>
<!-- Node4 -->
<g id="node4" class="node"><title>Node4</title>
<g id="a_node4"><a xlink:href="group__juce__audio__formats-codecs.html#classFlacAudioFormat" target="_top" xlink:title="Reads and writes the lossless&#45;compression FLAC audio format. ">
<polygon fill="none" stroke="black" points="132.5,-190.5 132.5,-209.5 223.5,-209.5 223.5,-190.5 132.5,-190.5"/>
<text text-anchor="middle" x="178" y="-197.5" font-family="Helvetica,sans-Serif" font-size="10.00">FlacAudioFormat</text>
</a>
</g>
</g>
<!-- Node1&#45;&gt;Node4 -->
<g id="edge3" class="edge"><title>Node1&#45;&gt;Node4</title>
<path fill="none" stroke="midnightblue" d="M61.2214,-157.703C74.6533,-165.406 91.8603,-174.552 108,-181 117,-184.595 126.921,-187.764 136.367,-190.431"/>
<polygon fill="midnightblue" stroke="midnightblue" points="62.9839,-154.679 52.585,-152.651 59.4494,-160.721 62.9839,-154.679"/>
</g>
<!-- Node5 -->
<g id="node5" class="node"><title>Node5</title>
<g id="a_node5"><a xlink:href="group__juce__audio__formats-codecs.html#classLAMEEncoderAudioFormat" target="_top" xlink:title="An AudioFormat class which can use an installed version of the LAME mp3 encoder to encode a file...">
<polygon fill="none" stroke="black" points="110.5,-152.5 110.5,-171.5 245.5,-171.5 245.5,-152.5 110.5,-152.5"/>
<text text-anchor="middle" x="178" y="-159.5" font-family="Helvetica,sans-Serif" font-size="10.00">LAMEEncoderAudioFormat</text>
</a>
</g>
</g>
<!-- Node1&#45;&gt;Node5 -->
<g id="edge4" class="edge"><title>Node1&#45;&gt;Node5</title>
<path fill="none" stroke="midnightblue" d="M82.4625,-149.17C91.3681,-150.379 100.88,-151.669 110.312,-152.95"/>
<polygon fill="midnightblue" stroke="midnightblue" points="82.7078,-145.671 72.3279,-147.795 81.7664,-152.608 82.7078,-145.671"/>
</g>
<!-- Node6 -->
<g id="node6" class="node"><title>Node6</title>
<g id="a_node6"><a xlink:href="group__juce__audio__formats-codecs.html#classMP3AudioFormat" target="_top" xlink:title="Software&#45;based MP3 decoding format (doesn&#39;t currently provide an encoder). ">
<polygon fill="none" stroke="black" points="132,-114.5 132,-133.5 224,-133.5 224,-114.5 132,-114.5"/>
<text text-anchor="middle" x="178" y="-121.5" font-family="Helvetica,sans-Serif" font-size="10.00">MP3AudioFormat</text>
</a>
</g>
</g>
<!-- Node1&#45;&gt;Node6 -->
<g id="edge5" class="edge"><title>Node1&#45;&gt;Node6</title>
<path fill="none" stroke="midnightblue" d="M82.4239,-136.835C98.2709,-134.685 116.043,-132.273 131.866,-130.125"/>
<polygon fill="midnightblue" stroke="midnightblue" points="81.7664,-133.392 72.3279,-138.205 82.7078,-140.329 81.7664,-133.392"/>
</g>
<!-- Node7 -->
<g id="node7" class="node"><title>Node7</title>
<g id="a_node7"><a xlink:href="group__juce__audio__formats-codecs.html#classOggVorbisAudioFormat" target="_top" xlink:title="Reads and writes the Ogg&#45;Vorbis audio format. ">
<polygon fill="none" stroke="black" points="119,-76.5 119,-95.5 237,-95.5 237,-76.5 119,-76.5"/>
<text text-anchor="middle" x="178" y="-83.5" font-family="Helvetica,sans-Serif" font-size="10.00">OggVorbisAudioFormat</text>
</a>
</g>
</g>
<!-- Node1&#45;&gt;Node7 -->
<g id="edge6" class="edge"><title>Node1&#45;&gt;Node7</title>
<path fill="none" stroke="midnightblue" d="M61.2214,-128.297C74.6533,-120.594 91.8603,-111.448 108,-105 117,-101.405 126.921,-98.2364 136.367,-95.5687"/>
<polygon fill="midnightblue" stroke="midnightblue" points="59.4494,-125.279 52.585,-133.349 62.9839,-131.321 59.4494,-125.279"/>
</g>
<!-- Node8 -->
<g id="node8" class="node"><title>Node8</title>
<g id="a_node8"><a xlink:href="group__juce__audio__formats-codecs.html#classWavAudioFormat" target="_top" xlink:title="Reads and Writes WAV format audio files. ">
<polygon fill="none" stroke="black" points="132,-38.5 132,-57.5 224,-57.5 224,-38.5 132,-38.5"/>
<text text-anchor="middle" x="178" y="-45.5" font-family="Helvetica,sans-Serif" font-size="10.00">WavAudioFormat</text>
</a>
</g>
</g>
<!-- Node1&#45;&gt;Node8 -->
<g id="edge7" class="edge"><title>Node1&#45;&gt;Node8</title>
<path fill="none" stroke="midnightblue" d="M49.0142,-125.292C61.7011,-107.933 83.2665,-81.9625 108,-67 115.229,-62.6267 123.486,-59.2362 131.715,-56.6149"/>
<polygon fill="midnightblue" stroke="midnightblue" points="46.1389,-123.296 43.2193,-133.481 51.8529,-127.34 46.1389,-123.296"/>
</g>
<!-- Node9 -->
<g id="node9" class="node"><title>Node9</title>
<g id="a_node9"><a xlink:href="group__juce__audio__formats-codecs.html#classWindowsMediaAudioFormat" target="_top" xlink:title="Audio format which uses the Windows Media codecs (Windows only). ">
<polygon fill="none" stroke="black" points="108.5,-0.5 108.5,-19.5 247.5,-19.5 247.5,-0.5 108.5,-0.5"/>
<text text-anchor="middle" x="178" y="-7.5" font-family="Helvetica,sans-Serif" font-size="10.00">WindowsMediaAudioFormat</text>
</a>
</g>
</g>
<!-- Node1&#45;&gt;Node9 -->
<g id="edge8" class="edge"><title>Node1&#45;&gt;Node9</title>
<path fill="none" stroke="midnightblue" d="M43.8545,-123.697C53.9185,-98.1617 75.1384,-53.5303 108,-29 113.178,-25.1351 119.099,-22.0564 125.248,-19.6039"/>
<polygon fill="midnightblue" stroke="midnightblue" points="40.4657,-122.765 40.2229,-133.357 47.018,-125.228 40.4657,-122.765"/>
</g>
</g>
</svg>
