<?xml version="1.0" encoding="UTF-8" standalone="no"?>
<!DOCTYPE svg PUBLIC "-//W3C//DTD SVG 1.1//EN"
 "http://www.w3.org/Graphics/SVG/1.1/DTD/svg11.dtd">
<!-- Generated by graphviz version 2.36.0 (20140111.2315)
 -->
<!-- Title: juce::MenuBarModel Pages: 1 -->
<svg width="263pt" height="96pt"
 viewBox="0.00 0.00 263.00 96.00" xmlns="http://www.w3.org/2000/svg" xmlns:xlink="http://www.w3.org/1999/xlink">
<g id="graph0" class="graph" transform="scale(1 1) rotate(0) translate(4 92)">
<title>juce::MenuBarModel</title>
<!-- Node1 -->
<g id="node1" class="node"><title>Node1</title>
<polygon fill="#bfbfbf" stroke="black" points="66,-0.5 66,-19.5 172,-19.5 172,-0.5 66,-0.5"/>
<text text-anchor="middle" x="119" y="-7.5" font-family="Helvetica,sans-Serif" font-size="10.00">juce::MenuBarModel</text>
</g>
<!-- Node2 -->
<g id="node2" class="node"><title>Node2</title>
<g id="a_node2"><a xlink:href="classjuce_1_1AsyncUpdater.html" target="_top" xlink:title="Has a callback method that is triggered asynchronously. ">
<polygon fill="none" stroke="black" points="-0.5,-62.5 -0.5,-81.5 102.5,-81.5 102.5,-62.5 -0.5,-62.5"/>
<text text-anchor="middle" x="51" y="-69.5" font-family="Helvetica,sans-Serif" font-size="10.00">juce::AsyncUpdater</text>
</a>
</g>
</g>
<!-- Node2&#45;&gt;Node1 -->
<g id="edge1" class="edge"><title>Node2&#45;&gt;Node1</title>
<path fill="none" stroke="#8b1a1a" d="M68.5433,-55.5206C81.5076,-44.0815 98.6788,-28.9305 109.275,-19.5806"/>
<polygon fill="#8b1a1a" stroke="#8b1a1a" points="65.9255,-53.1628 60.7427,-62.4035 70.5568,-58.4117 65.9255,-53.1628"/>
</g>
<!-- Node3 -->
<g id="node3" class="node"><title>Node3</title>
<g id="a_node3"><a xlink:href="classjuce_1_1ApplicationCommandManagerListener.html" target="_top" xlink:title="A listener that receives callbacks from an ApplicationCommandManager when commands are invoked or the...">
<polygon fill="none" stroke="black" points="121,-57 121,-87 255,-87 255,-57 121,-57"/>
<text text-anchor="start" x="129" y="-75" font-family="Helvetica,sans-Serif" font-size="10.00">juce::ApplicationCommand</text>
<text text-anchor="middle" x="188" y="-64" font-family="Helvetica,sans-Serif" font-size="10.00">ManagerListener</text>
</a>
</g>
</g>
<!-- Node3&#45;&gt;Node1 -->
<g id="edge2" class="edge"><title>Node3&#45;&gt;Node1</title>
<path fill="none" stroke="#8b1a1a" d="M163.76,-49.9216C151.836,-39.5533 138.114,-27.6209 129.04,-19.7305"/>
<polygon fill="#8b1a1a" stroke="#8b1a1a" points="161.805,-52.8601 171.648,-56.7808 166.399,-47.5779 161.805,-52.8601"/>
</g>
</g>
</svg>
