<?xml version="1.0" encoding="UTF-8" standalone="no"?>
<!DOCTYPE svg PUBLIC "-//W3C//DTD SVG 1.1//EN"
 "http://www.w3.org/Graphics/SVG/1.1/DTD/svg11.dtd">
<!-- Generated by graphviz version 2.36.0 (20140111.2315)
 -->
<!-- Title: AudioProcessorParameterWithID Pages: 1 -->
<svg width="492pt" height="140pt"
 viewBox="0.00 0.00 492.00 140.00" xmlns="http://www.w3.org/2000/svg" xmlns:xlink="http://www.w3.org/1999/xlink">
<g id="graph0" class="graph" transform="scale(1 1) rotate(0) translate(4 136)">
<title>AudioProcessorParameterWithID</title>
<!-- Node1 -->
<g id="node1" class="node"><title>Node1</title>
<polygon fill="#bfbfbf" stroke="black" points="167.5,-56.5 167.5,-75.5 328.5,-75.5 328.5,-56.5 167.5,-56.5"/>
<text text-anchor="middle" x="248" y="-63.5" font-family="Helvetica,sans-Serif" font-size="10.00">AudioProcessorParameterWithID</text>
</g>
<!-- Node3 -->
<g id="node3" class="node"><title>Node3</title>
<g id="a_node3"><a xlink:href="classAudioParameterBool.html" target="_top" xlink:title="Provides a class of AudioProcessorParameter that can be used as a boolean value. ">
<polygon fill="none" stroke="black" points="0,-0.5 0,-19.5 106,-19.5 106,-0.5 0,-0.5"/>
<text text-anchor="middle" x="53" y="-7.5" font-family="Helvetica,sans-Serif" font-size="10.00">AudioParameterBool</text>
</a>
</g>
</g>
<!-- Node1&#45;&gt;Node3 -->
<g id="edge2" class="edge"><title>Node1&#45;&gt;Node3</title>
<path fill="none" stroke="midnightblue" d="M207.19,-53.6986C170.387,-43.507 117.071,-28.7429 83.7538,-19.5164"/>
<polygon fill="midnightblue" stroke="midnightblue" points="206.53,-57.1477 217.102,-56.4435 208.398,-50.4016 206.53,-57.1477"/>
</g>
<!-- Node4 -->
<g id="node4" class="node"><title>Node4</title>
<g id="a_node4"><a xlink:href="classAudioParameterChoice.html" target="_top" xlink:title="Provides a class of AudioProcessorParameter that can be used to select an indexed, named choice from a list. ">
<polygon fill="none" stroke="black" points="124.5,-0.5 124.5,-19.5 241.5,-19.5 241.5,-0.5 124.5,-0.5"/>
<text text-anchor="middle" x="183" y="-7.5" font-family="Helvetica,sans-Serif" font-size="10.00">AudioParameterChoice</text>
</a>
</g>
</g>
<!-- Node1&#45;&gt;Node4 -->
<g id="edge3" class="edge"><title>Node1&#45;&gt;Node4</title>
<path fill="none" stroke="midnightblue" d="M229.727,-49.8197C218.082,-40.1452 203.401,-27.9481 193.633,-19.8339"/>
<polygon fill="midnightblue" stroke="midnightblue" points="227.628,-52.6259 237.557,-56.324 232.101,-47.2416 227.628,-52.6259"/>
</g>
<!-- Node5 -->
<g id="node5" class="node"><title>Node5</title>
<g id="a_node5"><a xlink:href="classAudioParameterFloat.html" target="_top" xlink:title="A subclass of AudioProcessorParameter that provides an easy way to create a parameter which maps onto...">
<polygon fill="none" stroke="black" points="260,-0.5 260,-19.5 368,-19.5 368,-0.5 260,-0.5"/>
<text text-anchor="middle" x="314" y="-7.5" font-family="Helvetica,sans-Serif" font-size="10.00">AudioParameterFloat</text>
</a>
</g>
</g>
<!-- Node1&#45;&gt;Node5 -->
<g id="edge4" class="edge"><title>Node1&#45;&gt;Node5</title>
<path fill="none" stroke="midnightblue" d="M266.554,-49.8197C278.378,-40.1452 293.286,-27.9481 303.203,-19.8339"/>
<polygon fill="midnightblue" stroke="midnightblue" points="264.127,-47.2827 258.604,-56.324 268.56,-52.7004 264.127,-47.2827"/>
</g>
<!-- Node6 -->
<g id="node6" class="node"><title>Node6</title>
<g id="a_node6"><a xlink:href="classAudioParameterInt.html" target="_top" xlink:title="Provides a class of AudioProcessorParameter that can be used as an integer value with a given range...">
<polygon fill="none" stroke="black" points="386,-0.5 386,-19.5 484,-19.5 484,-0.5 386,-0.5"/>
<text text-anchor="middle" x="435" y="-7.5" font-family="Helvetica,sans-Serif" font-size="10.00">AudioParameterInt</text>
</a>
</g>
</g>
<!-- Node1&#45;&gt;Node6 -->
<g id="edge5" class="edge"><title>Node1&#45;&gt;Node6</title>
<path fill="none" stroke="midnightblue" d="M287.59,-53.5677C322.866,-43.381 373.694,-28.7034 405.508,-19.5164"/>
<polygon fill="midnightblue" stroke="midnightblue" points="286.267,-50.3065 277.631,-56.4435 288.209,-57.0317 286.267,-50.3065"/>
</g>
<!-- Node2 -->
<g id="node2" class="node"><title>Node2</title>
<g id="a_node2"><a xlink:href="classAudioProcessorParameter.html" target="_top" xlink:title="An abstract base class for parameter objects that can be added to an AudioProcessor. ">
<polygon fill="none" stroke="black" points="182.5,-112.5 182.5,-131.5 313.5,-131.5 313.5,-112.5 182.5,-112.5"/>
<text text-anchor="middle" x="248" y="-119.5" font-family="Helvetica,sans-Serif" font-size="10.00">AudioProcessorParameter</text>
</a>
</g>
</g>
<!-- Node2&#45;&gt;Node1 -->
<g id="edge1" class="edge"><title>Node2&#45;&gt;Node1</title>
<path fill="none" stroke="midnightblue" d="M248,-101.805C248,-92.9102 248,-82.7798 248,-75.7511"/>
<polygon fill="midnightblue" stroke="midnightblue" points="244.5,-102.083 248,-112.083 251.5,-102.083 244.5,-102.083"/>
</g>
</g>
</svg>
