<?xml version="1.0" encoding="UTF-8" standalone="no"?>
<!DOCTYPE svg PUBLIC "-//W3C//DTD SVG 1.1//EN"
 "http://www.w3.org/Graphics/SVG/1.1/DTD/svg11.dtd">
<!-- Generated by graphviz version 2.36.0 (20140111.2315)
 -->
<!-- Title: juce::ThreadWithProgressWindow Pages: 1 -->
<svg width="161pt" height="96pt"
 viewBox="0.00 0.00 161.00 96.00" xmlns="http://www.w3.org/2000/svg" xmlns:xlink="http://www.w3.org/1999/xlink">
<g id="graph0" class="graph" transform="scale(1 1) rotate(0) translate(4 92)">
<title>juce::ThreadWithProgressWindow</title>
<!-- Node1 -->
<g id="node1" class="node"><title>Node1</title>
<polygon fill="#bfbfbf" stroke="black" points="13,-1 13,-31 143,-31 143,-1 13,-1"/>
<text text-anchor="start" x="21" y="-19" font-family="Helvetica,sans-Serif" font-size="10.00">juce::ThreadWithProgress</text>
<text text-anchor="middle" x="78" y="-8" font-family="Helvetica,sans-Serif" font-size="10.00">Window</text>
</g>
<!-- Node2 -->
<g id="node2" class="node"><title>Node2</title>
<g id="a_node2"><a xlink:href="classjuce_1_1Thread.html" target="_top" xlink:title="Encapsulates a thread. ">
<polygon fill="none" stroke="black" points="-0.5,-68.5 -0.5,-87.5 70.5,-87.5 70.5,-68.5 -0.5,-68.5"/>
<text text-anchor="middle" x="35" y="-75.5" font-family="Helvetica,sans-Serif" font-size="10.00">juce::Thread</text>
</a>
</g>
</g>
<!-- Node2&#45;&gt;Node1 -->
<g id="edge1" class="edge"><title>Node2&#45;&gt;Node1</title>
<path fill="none" stroke="midnightblue" d="M47.1071,-60.1064C53.6551,-50.9697 61.6499,-39.8142 67.8658,-31.1408"/>
<polygon fill="midnightblue" stroke="midnightblue" points="44.1412,-58.2364 41.1609,-68.4035 49.8309,-62.3141 44.1412,-58.2364"/>
</g>
<!-- Node3 -->
<g id="node3" class="node"><title>Node3</title>
<g id="a_node3"><a xlink:href="classjuce_1_1Timer.html" target="_top" xlink:title="Makes repeated callbacks to a virtual method at a specified time interval. ">
<polygon fill="none" stroke="black" points="88.5,-68.5 88.5,-87.5 153.5,-87.5 153.5,-68.5 88.5,-68.5"/>
<text text-anchor="middle" x="121" y="-75.5" font-family="Helvetica,sans-Serif" font-size="10.00">juce::Timer</text>
</a>
</g>
</g>
<!-- Node3&#45;&gt;Node1 -->
<g id="edge2" class="edge"><title>Node3&#45;&gt;Node1</title>
<path fill="none" stroke="#8b1a1a" d="M108.893,-60.1064C102.345,-50.9697 94.3501,-39.8142 88.1342,-31.1408"/>
<polygon fill="#8b1a1a" stroke="#8b1a1a" points="106.169,-62.3141 114.839,-68.4035 111.859,-58.2364 106.169,-62.3141"/>
</g>
</g>
</svg>
