<?xml version="1.0" encoding="UTF-8" standalone="no"?>
<!DOCTYPE svg PUBLIC "-//W3C//DTD SVG 1.1//EN"
 "http://www.w3.org/Graphics/SVG/1.1/DTD/svg11.dtd">
<!-- Generated by graphviz version 2.36.0 (20140111.2315)
 -->
<!-- Title: juce::CodeTokeniser Pages: 1 -->
<svg width="396pt" height="84pt"
 viewBox="0.00 0.00 396.00 84.00" xmlns="http://www.w3.org/2000/svg" xmlns:xlink="http://www.w3.org/1999/xlink">
<g id="graph0" class="graph" transform="scale(1 1) rotate(0) translate(4 80)">
<title>juce::CodeTokeniser</title>
<!-- Node1 -->
<g id="node1" class="node"><title>Node1</title>
<polygon fill="#bfbfbf" stroke="black" points="166.5,-56.5 166.5,-75.5 273.5,-75.5 273.5,-56.5 166.5,-56.5"/>
<text text-anchor="middle" x="220" y="-63.5" font-family="Helvetica,sans-Serif" font-size="10.00">juce::CodeTokeniser</text>
</g>
<!-- Node2 -->
<g id="node2" class="node"><title>Node2</title>
<g id="a_node2"><a xlink:href="classjuce_1_1CPlusPlusCodeTokeniser.html" target="_top" xlink:title="A simple lexical analyser for syntax colouring of C++ code. ">
<polygon fill="none" stroke="black" points="-0.5,-0.5 -0.5,-19.5 152.5,-19.5 152.5,-0.5 -0.5,-0.5"/>
<text text-anchor="middle" x="76" y="-7.5" font-family="Helvetica,sans-Serif" font-size="10.00">juce::CPlusPlusCodeTokeniser</text>
</a>
</g>
</g>
<!-- Node1&#45;&gt;Node2 -->
<g id="edge1" class="edge"><title>Node1&#45;&gt;Node2</title>
<path fill="none" stroke="midnightblue" d="M187.749,-52.9058C160.676,-42.7536 122.683,-28.5063 98.7105,-19.5164"/>
<polygon fill="midnightblue" stroke="midnightblue" points="186.591,-56.2094 197.183,-56.4435 189.048,-49.6551 186.591,-56.2094"/>
</g>
<!-- Node3 -->
<g id="node3" class="node"><title>Node3</title>
<g id="a_node3"><a xlink:href="classjuce_1_1LuaTokeniser.html" target="_top" xlink:title="juce::LuaTokeniser">
<polygon fill="none" stroke="black" points="170.5,-0.5 170.5,-19.5 269.5,-19.5 269.5,-0.5 170.5,-0.5"/>
<text text-anchor="middle" x="220" y="-7.5" font-family="Helvetica,sans-Serif" font-size="10.00">juce::LuaTokeniser</text>
</a>
</g>
</g>
<!-- Node1&#45;&gt;Node3 -->
<g id="edge2" class="edge"><title>Node1&#45;&gt;Node3</title>
<path fill="none" stroke="midnightblue" d="M220,-45.8045C220,-36.9102 220,-26.7798 220,-19.7511"/>
<polygon fill="midnightblue" stroke="midnightblue" points="216.5,-46.083 220,-56.083 223.5,-46.083 216.5,-46.083"/>
</g>
<!-- Node4 -->
<g id="node4" class="node"><title>Node4</title>
<g id="a_node4"><a xlink:href="classjuce_1_1XmlTokeniser.html" target="_top" xlink:title="juce::XmlTokeniser">
<polygon fill="none" stroke="black" points="287.5,-0.5 287.5,-19.5 388.5,-19.5 388.5,-0.5 287.5,-0.5"/>
<text text-anchor="middle" x="338" y="-7.5" font-family="Helvetica,sans-Serif" font-size="10.00">juce::XmlTokeniser</text>
</a>
</g>
</g>
<!-- Node1&#45;&gt;Node4 -->
<g id="edge3" class="edge"><title>Node1&#45;&gt;Node4</title>
<path fill="none" stroke="midnightblue" d="M247.9,-52.2321C269.973,-42.1312 300.176,-28.3091 319.39,-19.5164"/>
<polygon fill="midnightblue" stroke="midnightblue" points="246.334,-49.0997 238.697,-56.4435 249.247,-55.4648 246.334,-49.0997"/>
</g>
</g>
</svg>
