<?xml version="1.0" encoding="UTF-8" standalone="no"?>
<!DOCTYPE svg PUBLIC "-//W3C//DTD SVG 1.1//EN"
 "http://www.w3.org/Graphics/SVG/1.1/DTD/svg11.dtd">
<!-- Generated by graphviz version 2.36.0 (20140111.2315)
 -->
<!-- Title: AudioDeviceSelectorComponent Pages: 1 -->
<svg width="472pt" height="140pt"
 viewBox="0.00 0.00 472.00 140.00" xmlns="http://www.w3.org/2000/svg" xmlns:xlink="http://www.w3.org/1999/xlink">
<g id="graph0" class="graph" transform="scale(1 1) rotate(0) translate(4 136)">
<title>AudioDeviceSelectorComponent</title>
<!-- Node1 -->
<g id="node1" class="node"><title>Node1</title>
<polygon fill="#bfbfbf" stroke="black" points="169,-0.5 169,-19.5 327,-19.5 327,-0.5 169,-0.5"/>
<text text-anchor="middle" x="248" y="-7.5" font-family="Helvetica,sans-Serif" font-size="10.00">AudioDeviceSelectorComponent</text>
</g>
<!-- Node2 -->
<g id="node2" class="node"><title>Node2</title>
<g id="a_node2"><a xlink:href="classComponent.html" target="_top" xlink:title="The base class for all JUCE user&#45;interface objects. ">
<polygon fill="none" stroke="black" points="6.5,-56.5 6.5,-75.5 73.5,-75.5 73.5,-56.5 6.5,-56.5"/>
<text text-anchor="middle" x="40" y="-63.5" font-family="Helvetica,sans-Serif" font-size="10.00">Component</text>
</a>
</g>
</g>
<!-- Node2&#45;&gt;Node1 -->
<g id="edge1" class="edge"><title>Node2&#45;&gt;Node1</title>
<path fill="none" stroke="midnightblue" d="M82.7784,-53.8941C122.058,-43.6966 179.429,-28.802 215.196,-19.5164"/>
<polygon fill="midnightblue" stroke="midnightblue" points="81.7578,-50.5429 72.9582,-56.4435 83.5169,-57.3183 81.7578,-50.5429"/>
</g>
<!-- Node3 -->
<g id="node3" class="node"><title>Node3</title>
<g id="a_node3"><a xlink:href="classMouseListener.html" target="_top" xlink:title="A MouseListener can be registered with a component to receive callbacks about mouse events that happe...">
<polygon fill="none" stroke="black" points="0,-112.5 0,-131.5 80,-131.5 80,-112.5 0,-112.5"/>
<text text-anchor="middle" x="40" y="-119.5" font-family="Helvetica,sans-Serif" font-size="10.00">MouseListener</text>
</a>
</g>
</g>
<!-- Node3&#45;&gt;Node2 -->
<g id="edge2" class="edge"><title>Node3&#45;&gt;Node2</title>
<path fill="none" stroke="midnightblue" d="M40,-101.805C40,-92.9102 40,-82.7798 40,-75.7511"/>
<polygon fill="midnightblue" stroke="midnightblue" points="36.5001,-102.083 40,-112.083 43.5001,-102.083 36.5001,-102.083"/>
</g>
<!-- Node4 -->
<g id="node4" class="node"><title>Node4</title>
<g id="a_node4"><a xlink:href="classChangeListener.html" target="_top" xlink:title="Receives change event callbacks that are sent out by a ChangeBroadcaster. ">
<polygon fill="none" stroke="black" points="91.5,-56.5 91.5,-75.5 176.5,-75.5 176.5,-56.5 91.5,-56.5"/>
<text text-anchor="middle" x="134" y="-63.5" font-family="Helvetica,sans-Serif" font-size="10.00">ChangeListener</text>
</a>
</g>
</g>
<!-- Node4&#45;&gt;Node1 -->
<g id="edge3" class="edge"><title>Node4&#45;&gt;Node1</title>
<path fill="none" stroke="#8b1a1a" d="M161.242,-52.096C182.54,-42.0073 211.542,-28.2697 230.021,-19.5164"/>
<polygon fill="#8b1a1a" stroke="#8b1a1a" points="159.603,-48.9995 152.064,-56.4435 162.599,-55.3257 159.603,-48.9995"/>
</g>
<!-- Node5 -->
<g id="node5" class="node"><title>Node5</title>
<g id="a_node5"><a xlink:href="classComboBox_1_1Listener.html" target="_top" xlink:title="A class for receiving events from a ComboBox. ">
<polygon fill="none" stroke="black" points="195,-56.5 195,-75.5 301,-75.5 301,-56.5 195,-56.5"/>
<text text-anchor="middle" x="248" y="-63.5" font-family="Helvetica,sans-Serif" font-size="10.00">ComboBox::Listener</text>
</a>
</g>
</g>
<!-- Node5&#45;&gt;Node1 -->
<g id="edge4" class="edge"><title>Node5&#45;&gt;Node1</title>
<path fill="none" stroke="#8b1a1a" d="M248,-45.8045C248,-36.9102 248,-26.7798 248,-19.7511"/>
<polygon fill="#8b1a1a" stroke="#8b1a1a" points="244.5,-46.083 248,-56.083 251.5,-46.083 244.5,-46.083"/>
</g>
<!-- Node6 -->
<g id="node6" class="node"><title>Node6</title>
<g id="a_node6"><a xlink:href="classButton_1_1Listener.html" target="_top" xlink:title="Used to receive callbacks when a button is clicked. ">
<polygon fill="none" stroke="black" points="319,-56.5 319,-75.5 405,-75.5 405,-56.5 319,-56.5"/>
<text text-anchor="middle" x="362" y="-63.5" font-family="Helvetica,sans-Serif" font-size="10.00">Button::Listener</text>
</a>
</g>
</g>
<!-- Node6&#45;&gt;Node1 -->
<g id="edge5" class="edge"><title>Node6&#45;&gt;Node1</title>
<path fill="none" stroke="#8b1a1a" d="M334.758,-52.096C313.46,-42.0073 284.458,-28.2697 265.979,-19.5164"/>
<polygon fill="#8b1a1a" stroke="#8b1a1a" points="333.401,-55.3257 343.936,-56.4435 336.397,-48.9995 333.401,-55.3257"/>
</g>
<!-- Node7 -->
<g id="node7" class="node"><title>Node7</title>
<g id="a_node7"><a xlink:href="classTimer.html" target="_top" xlink:title="Makes repeated callbacks to a virtual method at a specified time interval. ">
<polygon fill="none" stroke="black" points="423.5,-56.5 423.5,-75.5 464.5,-75.5 464.5,-56.5 423.5,-56.5"/>
<text text-anchor="middle" x="444" y="-63.5" font-family="Helvetica,sans-Serif" font-size="10.00">Timer</text>
</a>
</g>
</g>
<!-- Node7&#45;&gt;Node1 -->
<g id="edge6" class="edge"><title>Node7&#45;&gt;Node1</title>
<path fill="none" stroke="#8b1a1a" d="M413.615,-55.9472C361.545,-41.1347 312.07,-27.8871 280.516,-19.5394"/>
<polygon fill="#8b1a1a" stroke="#8b1a1a" points="412.788,-59.3507 423.364,-58.7304 414.709,-52.6196 412.788,-59.3507"/>
</g>
</g>
</svg>
