<?xml version="1.0" encoding="UTF-8" standalone="no"?>
<!DOCTYPE svg PUBLIC "-//W3C//DTD SVG 1.1//EN"
 "http://www.w3.org/Graphics/SVG/1.1/DTD/svg11.dtd">
<!-- Generated by graphviz version 2.36.0 (20140111.2315)
 -->
<!-- Title: juce::ToolbarItemComponent Pages: 1 -->
<svg width="254pt" height="252pt"
 viewBox="0.00 0.00 254.00 252.00" xmlns="http://www.w3.org/2000/svg" xmlns:xlink="http://www.w3.org/1999/xlink">
<g id="graph0" class="graph" transform="scale(1 1) rotate(0) translate(4 248)">
<title>juce::ToolbarItemComponent</title>
<!-- Node1 -->
<g id="node1" class="node"><title>Node1</title>
<polygon fill="#bfbfbf" stroke="black" points="44.5,-56.5 44.5,-75.5 187.5,-75.5 187.5,-56.5 44.5,-56.5"/>
<text text-anchor="middle" x="116" y="-63.5" font-family="Helvetica,sans-Serif" font-size="10.00">juce::ToolbarItemComponent</text>
</g>
<!-- Node7 -->
<g id="node7" class="node"><title>Node7</title>
<g id="a_node7"><a xlink:href="classjuce_1_1ToolbarButton.html" target="_top" xlink:title="A type of button designed to go on a toolbar. ">
<polygon fill="none" stroke="black" points="65.5,-0.5 65.5,-19.5 166.5,-19.5 166.5,-0.5 65.5,-0.5"/>
<text text-anchor="middle" x="116" y="-7.5" font-family="Helvetica,sans-Serif" font-size="10.00">juce::ToolbarButton</text>
</a>
</g>
</g>
<!-- Node1&#45;&gt;Node7 -->
<g id="edge6" class="edge"><title>Node1&#45;&gt;Node7</title>
<path fill="none" stroke="midnightblue" d="M116,-45.8045C116,-36.9102 116,-26.7798 116,-19.7511"/>
<polygon fill="midnightblue" stroke="midnightblue" points="112.5,-46.083 116,-56.083 119.5,-46.083 112.5,-46.083"/>
</g>
<!-- Node2 -->
<g id="node2" class="node"><title>Node2</title>
<g id="a_node2"><a xlink:href="classjuce_1_1Button.html" target="_top" xlink:title="A base class for buttons. ">
<polygon fill="none" stroke="black" points="81.5,-112.5 81.5,-131.5 150.5,-131.5 150.5,-112.5 81.5,-112.5"/>
<text text-anchor="middle" x="116" y="-119.5" font-family="Helvetica,sans-Serif" font-size="10.00">juce::Button</text>
</a>
</g>
</g>
<!-- Node2&#45;&gt;Node1 -->
<g id="edge1" class="edge"><title>Node2&#45;&gt;Node1</title>
<path fill="none" stroke="midnightblue" d="M116,-101.805C116,-92.9102 116,-82.7798 116,-75.7511"/>
<polygon fill="midnightblue" stroke="midnightblue" points="112.5,-102.083 116,-112.083 119.5,-102.083 112.5,-102.083"/>
</g>
<!-- Node3 -->
<g id="node3" class="node"><title>Node3</title>
<g id="a_node3"><a xlink:href="classjuce_1_1Component.html" target="_top" xlink:title="The base class for all JUCE user&#45;interface objects. ">
<polygon fill="none" stroke="black" points="6.5,-168.5 6.5,-187.5 97.5,-187.5 97.5,-168.5 6.5,-168.5"/>
<text text-anchor="middle" x="52" y="-175.5" font-family="Helvetica,sans-Serif" font-size="10.00">juce::Component</text>
</a>
</g>
</g>
<!-- Node3&#45;&gt;Node2 -->
<g id="edge2" class="edge"><title>Node3&#45;&gt;Node2</title>
<path fill="none" stroke="midnightblue" d="M69.9915,-161.82C81.4576,-152.145 95.9133,-139.948 105.53,-131.834"/>
<polygon fill="midnightblue" stroke="midnightblue" points="67.6686,-159.2 62.2827,-168.324 72.1827,-164.55 67.6686,-159.2"/>
</g>
<!-- Node4 -->
<g id="node4" class="node"><title>Node4</title>
<g id="a_node4"><a xlink:href="classjuce_1_1MouseListener.html" target="_top" xlink:title="A MouseListener can be registered with a component to receive callbacks about mouse events that happe...">
<polygon fill="none" stroke="black" points="0,-224.5 0,-243.5 104,-243.5 104,-224.5 0,-224.5"/>
<text text-anchor="middle" x="52" y="-231.5" font-family="Helvetica,sans-Serif" font-size="10.00">juce::MouseListener</text>
</a>
</g>
</g>
<!-- Node4&#45;&gt;Node3 -->
<g id="edge3" class="edge"><title>Node4&#45;&gt;Node3</title>
<path fill="none" stroke="midnightblue" d="M52,-213.805C52,-204.91 52,-194.78 52,-187.751"/>
<polygon fill="midnightblue" stroke="midnightblue" points="48.5001,-214.083 52,-224.083 55.5001,-214.083 48.5001,-214.083"/>
</g>
<!-- Node5 -->
<g id="node5" class="node"><title>Node5</title>
<g id="a_node5"><a xlink:href="classjuce_1_1SettableTooltipClient.html" target="_top" xlink:title="An implementation of TooltipClient that stores the tooltip string and a method for changing it...">
<polygon fill="none" stroke="black" points="115.5,-168.5 115.5,-187.5 246.5,-187.5 246.5,-168.5 115.5,-168.5"/>
<text text-anchor="middle" x="181" y="-175.5" font-family="Helvetica,sans-Serif" font-size="10.00">juce::SettableTooltipClient</text>
</a>
</g>
</g>
<!-- Node5&#45;&gt;Node2 -->
<g id="edge4" class="edge"><title>Node5&#45;&gt;Node2</title>
<path fill="none" stroke="midnightblue" d="M162.727,-161.82C151.082,-152.145 136.401,-139.948 126.633,-131.834"/>
<polygon fill="midnightblue" stroke="midnightblue" points="160.628,-164.626 170.557,-168.324 165.101,-159.242 160.628,-164.626"/>
</g>
<!-- Node6 -->
<g id="node6" class="node"><title>Node6</title>
<g id="a_node6"><a xlink:href="classjuce_1_1TooltipClient.html" target="_top" xlink:title="Components that want to use pop&#45;up tooltips should implement this interface. ">
<polygon fill="none" stroke="black" points="133.5,-224.5 133.5,-243.5 228.5,-243.5 228.5,-224.5 133.5,-224.5"/>
<text text-anchor="middle" x="181" y="-231.5" font-family="Helvetica,sans-Serif" font-size="10.00">juce::TooltipClient</text>
</a>
</g>
</g>
<!-- Node6&#45;&gt;Node5 -->
<g id="edge5" class="edge"><title>Node6&#45;&gt;Node5</title>
<path fill="none" stroke="midnightblue" d="M181,-213.805C181,-204.91 181,-194.78 181,-187.751"/>
<polygon fill="midnightblue" stroke="midnightblue" points="177.5,-214.083 181,-224.083 184.5,-214.083 177.5,-214.083"/>
</g>
</g>
</svg>
