<?xml version="1.0" encoding="UTF-8" standalone="no"?>
<!DOCTYPE svg PUBLIC "-//W3C//DTD SVG 1.1//EN"
 "http://www.w3.org/Graphics/SVG/1.1/DTD/svg11.dtd">
<!-- Generated by graphviz version 2.36.0 (20140111.2315)
 -->
<!-- Title: StandalonePluginHolder Pages: 1 -->
<svg width="187pt" height="84pt"
 viewBox="0.00 0.00 187.00 84.00" xmlns="http://www.w3.org/2000/svg" xmlns:xlink="http://www.w3.org/1999/xlink">
<g id="graph0" class="graph" transform="scale(1 1) rotate(0) translate(4 80)">
<title>StandalonePluginHolder</title>
<!-- Node1 -->
<g id="node1" class="node"><title>Node1</title>
<polygon fill="#bfbfbf" stroke="black" points="48.5,-0.5 48.5,-19.5 169.5,-19.5 169.5,-0.5 48.5,-0.5"/>
<text text-anchor="middle" x="109" y="-7.5" font-family="Helvetica,sans-Serif" font-size="10.00">StandalonePluginHolder</text>
</g>
<!-- Node2 -->
<g id="node2" class="node"><title>Node2</title>
<g id="a_node2"><a xlink:href="group__juce__audio__devices-audio__io.html#classAudioIODeviceCallback" target="_top" xlink:title="One of these is passed to an AudioIODevice object to stream the audio data in and out...">
<polygon fill="none" stroke="black" points="-0.5,-56.5 -0.5,-75.5 120.5,-75.5 120.5,-56.5 -0.5,-56.5"/>
<text text-anchor="middle" x="60" y="-63.5" font-family="Helvetica,sans-Serif" font-size="10.00">AudioIODeviceCallback</text>
</a>
</g>
</g>
<!-- Node2&#45;&gt;Node1 -->
<g id="edge1" class="edge"><title>Node2&#45;&gt;Node1</title>
<path fill="none" stroke="#8b1a1a" d="M75.0345,-48.4314C83.6222,-38.9673 94.0435,-27.4827 101.059,-19.7511"/>
<polygon fill="#8b1a1a" stroke="#8b1a1a" points="72.2193,-46.3254 68.0914,-56.083 77.4033,-51.0293 72.2193,-46.3254"/>
</g>
<!-- Node3 -->
<g id="node3" class="node"><title>Node3</title>
<g id="a_node3"><a xlink:href="group__juce__events-timers.html#classTimer" target="_top" xlink:title="Makes repeated callbacks to a virtual method at a specified time interval. ">
<polygon fill="none" stroke="black" points="138.5,-56.5 138.5,-75.5 179.5,-75.5 179.5,-56.5 138.5,-56.5"/>
<text text-anchor="middle" x="159" y="-63.5" font-family="Helvetica,sans-Serif" font-size="10.00">Timer</text>
</a>
</g>
</g>
<!-- Node3&#45;&gt;Node1 -->
<g id="edge2" class="edge"><title>Node3&#45;&gt;Node1</title>
<path fill="none" stroke="#8b1a1a" d="M143.924,-48.7175C135.111,-39.1997 124.334,-27.5608 117.103,-19.7511"/>
<polygon fill="#8b1a1a" stroke="#8b1a1a" points="141.381,-51.1233 150.744,-56.083 146.518,-46.3674 141.381,-51.1233"/>
</g>
</g>
</svg>
