<?xml version="1.0" encoding="UTF-8" standalone="no"?>
<!DOCTYPE svg PUBLIC "-//W3C//DTD SVG 1.1//EN"
 "http://www.w3.org/Graphics/SVG/1.1/DTD/svg11.dtd">
<!-- Generated by graphviz version 2.36.0 (20140111.2315)
 -->
<!-- Title: juce::Button Pages: 1 -->
<svg width="704pt" height="332pt"
 viewBox="0.00 0.00 704.00 332.00" xmlns="http://www.w3.org/2000/svg" xmlns:xlink="http://www.w3.org/1999/xlink">
<g id="graph0" class="graph" transform="scale(1 1) rotate(0) translate(4 328)">
<title>juce::Button</title>
<!-- Node1 -->
<g id="node1" class="node"><title>Node1</title>
<polygon fill="#bfbfbf" stroke="black" points="308.5,-152.5 308.5,-171.5 377.5,-171.5 377.5,-152.5 308.5,-152.5"/>
<text text-anchor="middle" x="343" y="-159.5" font-family="Helvetica,sans-Serif" font-size="10.00">juce::Button</text>
</g>
<!-- Node6 -->
<g id="node6" class="node"><title>Node6</title>
<g id="a_node6"><a xlink:href="classjuce_1_1ArrowButton.html" target="_top" xlink:title="A button with an arrow in it. ">
<polygon fill="none" stroke="black" points="438.5,-304.5 438.5,-323.5 533.5,-323.5 533.5,-304.5 438.5,-304.5"/>
<text text-anchor="middle" x="486" y="-311.5" font-family="Helvetica,sans-Serif" font-size="10.00">juce::ArrowButton</text>
</a>
</g>
</g>
<!-- Node1&#45;&gt;Node6 -->
<g id="edge5" class="edge"><title>Node1&#45;&gt;Node6</title>
<path fill="none" stroke="midnightblue" d="M348.894,-181.593C357.215,-210.779 376.937,-265.401 414,-295 421.079,-300.654 429.693,-304.633 438.445,-307.431"/>
<polygon fill="midnightblue" stroke="midnightblue" points="352.227,-180.507 346.251,-171.758 345.466,-182.324 352.227,-180.507"/>
</g>
<!-- Node7 -->
<g id="node7" class="node"><title>Node7</title>
<g id="a_node7"><a xlink:href="classjuce_1_1DrawableButton.html" target="_top" xlink:title="A button that displays a Drawable. ">
<polygon fill="none" stroke="black" points="431,-266.5 431,-285.5 541,-285.5 541,-266.5 431,-266.5"/>
<text text-anchor="middle" x="486" y="-273.5" font-family="Helvetica,sans-Serif" font-size="10.00">juce::DrawableButton</text>
</a>
</g>
</g>
<!-- Node1&#45;&gt;Node7 -->
<g id="edge6" class="edge"><title>Node1&#45;&gt;Node7</title>
<path fill="none" stroke="midnightblue" d="M352.98,-180.953C364.22,-202.612 385.509,-237.566 414,-257 419.692,-260.883 426.142,-263.973 432.777,-266.432"/>
<polygon fill="midnightblue" stroke="midnightblue" points="356.001,-179.166 348.408,-171.777 349.735,-182.288 356.001,-179.166"/>
</g>
<!-- Node8 -->
<g id="node8" class="node"><title>Node8</title>
<g id="a_node8"><a xlink:href="classjuce_1_1HyperlinkButton.html" target="_top" xlink:title="A button showing an underlined weblink, that will launch the link when it&#39;s clicked. ">
<polygon fill="none" stroke="black" points="431,-228.5 431,-247.5 541,-247.5 541,-228.5 431,-228.5"/>
<text text-anchor="middle" x="486" y="-235.5" font-family="Helvetica,sans-Serif" font-size="10.00">juce::HyperlinkButton</text>
</a>
</g>
</g>
<!-- Node1&#45;&gt;Node8 -->
<g id="edge7" class="edge"><title>Node1&#45;&gt;Node8</title>
<path fill="none" stroke="midnightblue" d="M360.449,-178.826C373.79,-191.571 393.66,-208.606 414,-219 421.499,-222.832 429.851,-225.952 438.117,-228.471"/>
<polygon fill="midnightblue" stroke="midnightblue" points="362.625,-176.057 353.04,-171.543 357.718,-181.049 362.625,-176.057"/>
</g>
<!-- Node9 -->
<g id="node9" class="node"><title>Node9</title>
<g id="a_node9"><a xlink:href="classjuce_1_1ImageButton.html" target="_top" xlink:title="As the title suggests, this is a button containing an image. ">
<polygon fill="none" stroke="black" points="438,-190.5 438,-209.5 534,-209.5 534,-190.5 438,-190.5"/>
<text text-anchor="middle" x="486" y="-197.5" font-family="Helvetica,sans-Serif" font-size="10.00">juce::ImageButton</text>
</a>
</g>
</g>
<!-- Node1&#45;&gt;Node9 -->
<g id="edge8" class="edge"><title>Node1&#45;&gt;Node9</title>
<path fill="none" stroke="midnightblue" d="M387.504,-173.834C396.275,-176.213 405.431,-178.691 414,-181 425.458,-184.088 437.961,-187.44 449.238,-190.457"/>
<polygon fill="midnightblue" stroke="midnightblue" points="388.385,-170.447 377.818,-171.205 386.552,-177.202 388.385,-170.447"/>
</g>
<!-- Node10 -->
<g id="node10" class="node"><title>Node10</title>
<g id="a_node10"><a xlink:href="classjuce_1_1ShapeButton.html" target="_top" xlink:title="A button that contains a filled shape. ">
<polygon fill="none" stroke="black" points="437.5,-152.5 437.5,-171.5 534.5,-171.5 534.5,-152.5 437.5,-152.5"/>
<text text-anchor="middle" x="486" y="-159.5" font-family="Helvetica,sans-Serif" font-size="10.00">juce::ShapeButton</text>
</a>
</g>
</g>
<!-- Node1&#45;&gt;Node10 -->
<g id="edge9" class="edge"><title>Node1&#45;&gt;Node10</title>
<path fill="none" stroke="midnightblue" d="M388.223,-162C403.846,-162 421.48,-162 437.374,-162"/>
<polygon fill="midnightblue" stroke="midnightblue" points="387.773,-158.5 377.773,-162 387.773,-165.5 387.773,-158.5"/>
</g>
<!-- Node11 -->
<g id="node11" class="node"><title>Node11</title>
<g id="a_node11"><a xlink:href="classjuce_1_1TabBarButton.html" target="_top" xlink:title="In a TabbedButtonBar, this component is used for each of the buttons. ">
<polygon fill="none" stroke="black" points="435.5,-114.5 435.5,-133.5 536.5,-133.5 536.5,-114.5 435.5,-114.5"/>
<text text-anchor="middle" x="486" y="-121.5" font-family="Helvetica,sans-Serif" font-size="10.00">juce::TabBarButton</text>
</a>
</g>
</g>
<!-- Node1&#45;&gt;Node11 -->
<g id="edge10" class="edge"><title>Node1&#45;&gt;Node11</title>
<path fill="none" stroke="midnightblue" d="M387.504,-150.166C396.275,-147.787 405.431,-145.309 414,-143 425.458,-139.912 437.961,-136.56 449.238,-133.543"/>
<polygon fill="midnightblue" stroke="midnightblue" points="386.552,-146.798 377.818,-152.795 388.385,-153.553 386.552,-146.798"/>
</g>
<!-- Node12 -->
<g id="node12" class="node"><title>Node12</title>
<g id="a_node12"><a xlink:href="classjuce_1_1TextButton.html" target="_top" xlink:title="A button that uses the standard lozenge&#45;shaped background with a line of text on it. ">
<polygon fill="none" stroke="black" points="441.5,-76.5 441.5,-95.5 530.5,-95.5 530.5,-76.5 441.5,-76.5"/>
<text text-anchor="middle" x="486" y="-83.5" font-family="Helvetica,sans-Serif" font-size="10.00">juce::TextButton</text>
</a>
</g>
</g>
<!-- Node1&#45;&gt;Node12 -->
<g id="edge11" class="edge"><title>Node1&#45;&gt;Node12</title>
<path fill="none" stroke="midnightblue" d="M360.449,-145.174C373.79,-132.429 393.66,-115.394 414,-105 422.522,-100.645 432.144,-97.2111 441.491,-94.5322"/>
<polygon fill="midnightblue" stroke="midnightblue" points="357.718,-142.951 353.04,-152.457 362.625,-147.943 357.718,-142.951"/>
</g>
<!-- Node13 -->
<g id="node13" class="node"><title>Node13</title>
<g id="a_node13"><a xlink:href="classjuce_1_1ToggleButton.html" target="_top" xlink:title="A button that can be toggled on/off. ">
<polygon fill="none" stroke="black" points="437,-38.5 437,-57.5 535,-57.5 535,-38.5 437,-38.5"/>
<text text-anchor="middle" x="486" y="-45.5" font-family="Helvetica,sans-Serif" font-size="10.00">juce::ToggleButton</text>
</a>
</g>
</g>
<!-- Node1&#45;&gt;Node13 -->
<g id="edge12" class="edge"><title>Node1&#45;&gt;Node13</title>
<path fill="none" stroke="midnightblue" d="M352.98,-143.047C364.22,-121.388 385.509,-86.4339 414,-67 420.852,-62.3262 428.801,-58.801 436.85,-56.1423"/>
<polygon fill="midnightblue" stroke="midnightblue" points="349.735,-141.712 348.408,-152.223 356.001,-144.834 349.735,-141.712"/>
</g>
<!-- Node14 -->
<g id="node14" class="node"><title>Node14</title>
<g id="a_node14"><a xlink:href="classjuce_1_1ToolbarItemComponent.html" target="_top" xlink:title="A component that can be used as one of the items in a Toolbar. ">
<polygon fill="none" stroke="black" points="414.5,-0.5 414.5,-19.5 557.5,-19.5 557.5,-0.5 414.5,-0.5"/>
<text text-anchor="middle" x="486" y="-7.5" font-family="Helvetica,sans-Serif" font-size="10.00">juce::ToolbarItemComponent</text>
</a>
</g>
</g>
<!-- Node1&#45;&gt;Node14 -->
<g id="edge13" class="edge"><title>Node1&#45;&gt;Node14</title>
<path fill="none" stroke="midnightblue" d="M348.894,-142.407C357.215,-113.221 376.937,-58.5989 414,-29 418.886,-25.0982 424.502,-21.994 430.391,-19.525"/>
<polygon fill="midnightblue" stroke="midnightblue" points="345.466,-141.676 346.251,-152.242 352.227,-143.493 345.466,-141.676"/>
</g>
<!-- Node2 -->
<g id="node2" class="node"><title>Node2</title>
<g id="a_node2"><a xlink:href="classjuce_1_1Component.html" target="_top" xlink:title="The base class for all JUCE user&#45;interface objects. ">
<polygon fill="none" stroke="black" points="160.5,-171.5 160.5,-190.5 251.5,-190.5 251.5,-171.5 160.5,-171.5"/>
<text text-anchor="middle" x="206" y="-178.5" font-family="Helvetica,sans-Serif" font-size="10.00">juce::Component</text>
</a>
</g>
</g>
<!-- Node2&#45;&gt;Node1 -->
<g id="edge1" class="edge"><title>Node2&#45;&gt;Node1</title>
<path fill="none" stroke="midnightblue" d="M261.727,-173.298C277.439,-171.086 294.109,-168.74 308.162,-166.762"/>
<polygon fill="midnightblue" stroke="midnightblue" points="260.993,-169.866 251.578,-174.726 261.968,-176.798 260.993,-169.866"/>
</g>
<!-- Node3 -->
<g id="node3" class="node"><title>Node3</title>
<g id="a_node3"><a xlink:href="classjuce_1_1MouseListener.html" target="_top" xlink:title="A MouseListener can be registered with a component to receive callbacks about mouse events that happe...">
<polygon fill="none" stroke="black" points="0,-171.5 0,-190.5 104,-190.5 104,-171.5 0,-171.5"/>
<text text-anchor="middle" x="52" y="-178.5" font-family="Helvetica,sans-Serif" font-size="10.00">juce::MouseListener</text>
</a>
</g>
</g>
<!-- Node3&#45;&gt;Node2 -->
<g id="edge2" class="edge"><title>Node3&#45;&gt;Node2</title>
<path fill="none" stroke="midnightblue" d="M114.074,-181C129.582,-181 145.952,-181 160.464,-181"/>
<polygon fill="midnightblue" stroke="midnightblue" points="114.037,-177.5 104.037,-181 114.037,-184.5 114.037,-177.5"/>
</g>
<!-- Node4 -->
<g id="node4" class="node"><title>Node4</title>
<g id="a_node4"><a xlink:href="classjuce_1_1SettableTooltipClient.html" target="_top" xlink:title="An implementation of TooltipClient that stores the tooltip string and a method for changing it...">
<polygon fill="none" stroke="black" points="140.5,-133.5 140.5,-152.5 271.5,-152.5 271.5,-133.5 140.5,-133.5"/>
<text text-anchor="middle" x="206" y="-140.5" font-family="Helvetica,sans-Serif" font-size="10.00">juce::SettableTooltipClient</text>
</a>
</g>
</g>
<!-- Node4&#45;&gt;Node1 -->
<g id="edge3" class="edge"><title>Node4&#45;&gt;Node1</title>
<path fill="none" stroke="midnightblue" d="M281.864,-153.536C291.164,-154.845 300.275,-156.128 308.48,-157.282"/>
<polygon fill="midnightblue" stroke="midnightblue" points="282.122,-150.038 271.732,-152.11 281.147,-156.97 282.122,-150.038"/>
</g>
<!-- Node5 -->
<g id="node5" class="node"><title>Node5</title>
<g id="a_node5"><a xlink:href="classjuce_1_1TooltipClient.html" target="_top" xlink:title="Components that want to use pop&#45;up tooltips should implement this interface. ">
<polygon fill="none" stroke="black" points="4.5,-133.5 4.5,-152.5 99.5,-152.5 99.5,-133.5 4.5,-133.5"/>
<text text-anchor="middle" x="52" y="-140.5" font-family="Helvetica,sans-Serif" font-size="10.00">juce::TooltipClient</text>
</a>
</g>
</g>
<!-- Node5&#45;&gt;Node4 -->
<g id="edge4" class="edge"><title>Node5&#45;&gt;Node4</title>
<path fill="none" stroke="midnightblue" d="M109.992,-143C119.919,-143 130.309,-143 140.422,-143"/>
<polygon fill="midnightblue" stroke="midnightblue" points="109.845,-139.5 99.8453,-143 109.845,-146.5 109.845,-139.5"/>
</g>
<!-- Node15 -->
<g id="node15" class="node"><title>Node15</title>
<g id="a_node15"><a xlink:href="classjuce_1_1ToolbarButton.html" target="_top" xlink:title="A type of button designed to go on a toolbar. ">
<polygon fill="none" stroke="black" points="594.5,-0.5 594.5,-19.5 695.5,-19.5 695.5,-0.5 594.5,-0.5"/>
<text text-anchor="middle" x="645" y="-7.5" font-family="Helvetica,sans-Serif" font-size="10.00">juce::ToolbarButton</text>
</a>
</g>
</g>
<!-- Node14&#45;&gt;Node15 -->
<g id="edge14" class="edge"><title>Node14&#45;&gt;Node15</title>
<path fill="none" stroke="midnightblue" d="M567.874,-10C576.898,-10 585.881,-10 594.344,-10"/>
<polygon fill="midnightblue" stroke="midnightblue" points="567.692,-6.5001 557.692,-10 567.692,-13.5001 567.692,-6.5001"/>
</g>
</g>
</svg>
