<?xml version="1.0" encoding="UTF-8" standalone="no"?>
<!DOCTYPE svg PUBLIC "-//W3C//DTD SVG 1.1//EN"
 "http://www.w3.org/Graphics/SVG/1.1/DTD/svg11.dtd">
<!-- Generated by graphviz version 2.36.0 (20140111.2315)
 -->
<!-- Title: DeletedAtShutdown Pages: 1 -->
<svg width="280pt" height="256pt"
 viewBox="0.00 0.00 280.00 256.00" xmlns="http://www.w3.org/2000/svg" xmlns:xlink="http://www.w3.org/1999/xlink">
<g id="graph0" class="graph" transform="scale(1 1) rotate(0) translate(4 252)">
<title>DeletedAtShutdown</title>
<!-- Node1 -->
<g id="node1" class="node"><title>Node1</title>
<polygon fill="#bfbfbf" stroke="black" points="0,-114.5 0,-133.5 104,-133.5 104,-114.5 0,-114.5"/>
<text text-anchor="middle" x="52" y="-121.5" font-family="Helvetica,sans-Serif" font-size="10.00">DeletedAtShutdown</text>
</g>
<!-- Node2 -->
<g id="node2" class="node"><title>Node2</title>
<g id="a_node2"><a xlink:href="classAnalytics.html" target="_top" xlink:title="A singleton class to manage analytics data. ">
<polygon fill="none" stroke="black" points="177.5,-228.5 177.5,-247.5 234.5,-247.5 234.5,-228.5 177.5,-228.5"/>
<text text-anchor="middle" x="206" y="-235.5" font-family="Helvetica,sans-Serif" font-size="10.00">Analytics</text>
</a>
</g>
</g>
<!-- Node1&#45;&gt;Node2 -->
<g id="edge1" class="edge"><title>Node1&#45;&gt;Node2</title>
<path fill="none" stroke="midnightblue" d="M64.9673,-142.209C79.9946,-163.663 107.751,-198.922 140,-219 151.278,-226.022 165.264,-230.546 177.371,-233.41"/>
<polygon fill="midnightblue" stroke="midnightblue" points="67.6825,-139.978 59.1589,-133.685 61.8979,-143.92 67.6825,-139.978"/>
</g>
<!-- Node3 -->
<g id="node3" class="node"><title>Node3</title>
<g id="a_node3"><a xlink:href="classDesktop.html" target="_top" xlink:title="Describes and controls aspects of the computer&#39;s desktop. ">
<polygon fill="none" stroke="black" points="179.5,-190.5 179.5,-209.5 232.5,-209.5 232.5,-190.5 179.5,-190.5"/>
<text text-anchor="middle" x="206" y="-197.5" font-family="Helvetica,sans-Serif" font-size="10.00">Desktop</text>
</a>
</g>
</g>
<!-- Node1&#45;&gt;Node3 -->
<g id="edge2" class="edge"><title>Node1&#45;&gt;Node3</title>
<path fill="none" stroke="#8b1a1a" d="M73.0787,-139.637C90.0968,-152.264 115.565,-169.729 140,-181 152.491,-186.762 167.141,-191.226 179.368,-194.374"/>
<polygon fill="#8b1a1a" stroke="#8b1a1a" points="75.0883,-136.769 64.9997,-133.533 70.8685,-142.354 75.0883,-136.769"/>
</g>
<!-- Node4 -->
<g id="node4" class="node"><title>Node4</title>
<g id="a_node4"><a xlink:href="classInAppPurchases.html" target="_top" xlink:title="Provides in&#45;app purchase functionality. ">
<polygon fill="none" stroke="black" points="161.5,-152.5 161.5,-171.5 250.5,-171.5 250.5,-152.5 161.5,-152.5"/>
<text text-anchor="middle" x="206" y="-159.5" font-family="Helvetica,sans-Serif" font-size="10.00">InAppPurchases</text>
</a>
</g>
</g>
<!-- Node1&#45;&gt;Node4 -->
<g id="edge3" class="edge"><title>Node1&#45;&gt;Node4</title>
<path fill="none" stroke="#8b1a1a" d="M101.16,-136.04C122.395,-141.349 146.995,-147.499 166.92,-152.48"/>
<polygon fill="#8b1a1a" stroke="#8b1a1a" points="101.906,-132.619 91.356,-133.589 100.209,-139.41 101.906,-132.619"/>
</g>
<!-- Node5 -->
<g id="node5" class="node"><title>Node5</title>
<g id="a_node5"><a xlink:href="classJUCESplashScreen.html" target="_top" xlink:title="The standard JUCE splash screen component. ">
<polygon fill="none" stroke="black" points="154,-114.5 154,-133.5 258,-133.5 258,-114.5 154,-114.5"/>
<text text-anchor="middle" x="206" y="-121.5" font-family="Helvetica,sans-Serif" font-size="10.00">JUCESplashScreen</text>
</a>
</g>
</g>
<!-- Node1&#45;&gt;Node5 -->
<g id="edge4" class="edge"><title>Node1&#45;&gt;Node5</title>
<path fill="none" stroke="#8b1a1a" d="M114.38,-124C127.476,-124 141.175,-124 153.839,-124"/>
<polygon fill="#8b1a1a" stroke="#8b1a1a" points="114.037,-120.5 104.037,-124 114.037,-127.5 114.037,-120.5"/>
</g>
<!-- Node6 -->
<g id="node6" class="node"><title>Node6</title>
<g id="a_node6"><a xlink:href="classModalComponentManager.html" target="_top" xlink:title="Manages the system&#39;s stack of modal components. ">
<polygon fill="none" stroke="black" points="140.5,-76.5 140.5,-95.5 271.5,-95.5 271.5,-76.5 140.5,-76.5"/>
<text text-anchor="middle" x="206" y="-83.5" font-family="Helvetica,sans-Serif" font-size="10.00">ModalComponentManager</text>
</a>
</g>
</g>
<!-- Node1&#45;&gt;Node6 -->
<g id="edge5" class="edge"><title>Node1&#45;&gt;Node6</title>
<path fill="none" stroke="#8b1a1a" d="M101.16,-111.96C122.395,-106.651 146.995,-100.501 166.92,-95.5201"/>
<polygon fill="#8b1a1a" stroke="#8b1a1a" points="100.209,-108.59 91.356,-114.411 101.906,-115.381 100.209,-108.59"/>
</g>
<!-- Node7 -->
<g id="node7" class="node"><title>Node7</title>
<g id="a_node7"><a xlink:href="classPushNotifications.html" target="_top" xlink:title="Singleton class responsible for push notifications functionality. ">
<polygon fill="none" stroke="black" points="159,-38.5 159,-57.5 253,-57.5 253,-38.5 159,-38.5"/>
<text text-anchor="middle" x="206" y="-45.5" font-family="Helvetica,sans-Serif" font-size="10.00">PushNotifications</text>
</a>
</g>
</g>
<!-- Node1&#45;&gt;Node7 -->
<g id="edge6" class="edge"><title>Node1&#45;&gt;Node7</title>
<path fill="none" stroke="#8b1a1a" d="M73.0787,-108.363C90.0968,-95.7356 115.565,-78.2714 140,-67 148.007,-63.3066 156.901,-60.1465 165.476,-57.5242"/>
<polygon fill="#8b1a1a" stroke="#8b1a1a" points="70.8685,-105.646 64.9997,-114.467 75.0883,-111.231 70.8685,-105.646"/>
</g>
<!-- Node8 -->
<g id="node8" class="node"><title>Node8</title>
<g id="a_node8"><a xlink:href="classSplashScreen.html" target="_top" xlink:title="A component for showing a splash screen while your app starts up. ">
<polygon fill="none" stroke="black" points="167.5,-0.5 167.5,-19.5 244.5,-19.5 244.5,-0.5 167.5,-0.5"/>
<text text-anchor="middle" x="206" y="-7.5" font-family="Helvetica,sans-Serif" font-size="10.00">SplashScreen</text>
</a>
</g>
</g>
<!-- Node1&#45;&gt;Node8 -->
<g id="edge7" class="edge"><title>Node1&#45;&gt;Node8</title>
<path fill="none" stroke="#8b1a1a" d="M64.9673,-105.791C79.9946,-84.3368 107.751,-49.0777 140,-29 148.284,-23.8426 158.029,-20.0322 167.417,-17.2375"/>
<polygon fill="#8b1a1a" stroke="#8b1a1a" points="61.8979,-104.08 59.1589,-114.315 67.6825,-108.022 61.8979,-104.08"/>
</g>
</g>
</svg>
