<?xml version="1.0" encoding="UTF-8" standalone="no"?>
<!DOCTYPE svg PUBLIC "-//W3C//DTD SVG 1.1//EN"
 "http://www.w3.org/Graphics/SVG/1.1/DTD/svg11.dtd">
<!-- Generated by graphviz version 2.36.0 (20140111.2315)
 -->
<!-- Title: juce::ListBox Pages: 1 -->
<svg width="263pt" height="196pt"
 viewBox="0.00 0.00 263.00 196.00" xmlns="http://www.w3.org/2000/svg" xmlns:xlink="http://www.w3.org/1999/xlink">
<g id="graph0" class="graph" transform="scale(1 1) rotate(0) translate(4 192)">
<title>juce::ListBox</title>
<!-- Node1 -->
<g id="node1" class="node"><title>Node1</title>
<polygon fill="#bfbfbf" stroke="black" points="88,-56.5 88,-75.5 162,-75.5 162,-56.5 88,-56.5"/>
<text text-anchor="middle" x="125" y="-63.5" font-family="Helvetica,sans-Serif" font-size="10.00">juce::ListBox</text>
</g>
<!-- Node6 -->
<g id="node6" class="node"><title>Node6</title>
<g id="a_node6"><a xlink:href="classjuce_1_1FileListComponent.html" target="_top" xlink:title="A component that displays the files in a directory as a listbox. ">
<polygon fill="none" stroke="black" points="0,-0.5 0,-19.5 122,-19.5 122,-0.5 0,-0.5"/>
<text text-anchor="middle" x="61" y="-7.5" font-family="Helvetica,sans-Serif" font-size="10.00">juce::FileListComponent</text>
</a>
</g>
</g>
<!-- Node1&#45;&gt;Node6 -->
<g id="edge5" class="edge"><title>Node1&#45;&gt;Node6</title>
<path fill="none" stroke="midnightblue" d="M107.009,-49.8197C95.5424,-40.1452 81.0867,-27.9481 71.4698,-19.8339"/>
<polygon fill="midnightblue" stroke="midnightblue" points="104.817,-52.5502 114.717,-56.324 109.331,-47.2002 104.817,-52.5502"/>
</g>
<!-- Node7 -->
<g id="node7" class="node"><title>Node7</title>
<g id="a_node7"><a xlink:href="classjuce_1_1TableListBox.html" target="_top" xlink:title="A table of cells, using a TableHeaderComponent as its header. ">
<polygon fill="none" stroke="black" points="140,-0.5 140,-19.5 238,-19.5 238,-0.5 140,-0.5"/>
<text text-anchor="middle" x="189" y="-7.5" font-family="Helvetica,sans-Serif" font-size="10.00">juce::TableListBox</text>
</a>
</g>
</g>
<!-- Node1&#45;&gt;Node7 -->
<g id="edge6" class="edge"><title>Node1&#45;&gt;Node7</title>
<path fill="none" stroke="midnightblue" d="M142.991,-49.8197C154.458,-40.1452 168.913,-27.9481 178.53,-19.8339"/>
<polygon fill="midnightblue" stroke="midnightblue" points="140.669,-47.2002 135.283,-56.324 145.183,-52.5502 140.669,-47.2002"/>
</g>
<!-- Node2 -->
<g id="node2" class="node"><title>Node2</title>
<g id="a_node2"><a xlink:href="classjuce_1_1Component.html" target="_top" xlink:title="The base class for all JUCE user&#45;interface objects. ">
<polygon fill="none" stroke="black" points="15.5,-112.5 15.5,-131.5 106.5,-131.5 106.5,-112.5 15.5,-112.5"/>
<text text-anchor="middle" x="61" y="-119.5" font-family="Helvetica,sans-Serif" font-size="10.00">juce::Component</text>
</a>
</g>
</g>
<!-- Node2&#45;&gt;Node1 -->
<g id="edge1" class="edge"><title>Node2&#45;&gt;Node1</title>
<path fill="none" stroke="midnightblue" d="M78.9915,-105.82C90.4576,-96.1452 104.913,-83.9481 114.53,-75.8339"/>
<polygon fill="midnightblue" stroke="midnightblue" points="76.6686,-103.2 71.2827,-112.324 81.1827,-108.55 76.6686,-103.2"/>
</g>
<!-- Node3 -->
<g id="node3" class="node"><title>Node3</title>
<g id="a_node3"><a xlink:href="classjuce_1_1MouseListener.html" target="_top" xlink:title="A MouseListener can be registered with a component to receive callbacks about mouse events that happe...">
<polygon fill="none" stroke="black" points="9,-168.5 9,-187.5 113,-187.5 113,-168.5 9,-168.5"/>
<text text-anchor="middle" x="61" y="-175.5" font-family="Helvetica,sans-Serif" font-size="10.00">juce::MouseListener</text>
</a>
</g>
</g>
<!-- Node3&#45;&gt;Node2 -->
<g id="edge2" class="edge"><title>Node3&#45;&gt;Node2</title>
<path fill="none" stroke="midnightblue" d="M61,-157.805C61,-148.91 61,-138.78 61,-131.751"/>
<polygon fill="midnightblue" stroke="midnightblue" points="57.5001,-158.083 61,-168.083 64.5001,-158.083 57.5001,-158.083"/>
</g>
<!-- Node4 -->
<g id="node4" class="node"><title>Node4</title>
<g id="a_node4"><a xlink:href="classjuce_1_1SettableTooltipClient.html" target="_top" xlink:title="An implementation of TooltipClient that stores the tooltip string and a method for changing it...">
<polygon fill="none" stroke="black" points="124.5,-112.5 124.5,-131.5 255.5,-131.5 255.5,-112.5 124.5,-112.5"/>
<text text-anchor="middle" x="190" y="-119.5" font-family="Helvetica,sans-Serif" font-size="10.00">juce::SettableTooltipClient</text>
</a>
</g>
</g>
<!-- Node4&#45;&gt;Node1 -->
<g id="edge3" class="edge"><title>Node4&#45;&gt;Node1</title>
<path fill="none" stroke="midnightblue" d="M171.727,-105.82C160.082,-96.1452 145.401,-83.9481 135.633,-75.8339"/>
<polygon fill="midnightblue" stroke="midnightblue" points="169.628,-108.626 179.557,-112.324 174.101,-103.242 169.628,-108.626"/>
</g>
<!-- Node5 -->
<g id="node5" class="node"><title>Node5</title>
<g id="a_node5"><a xlink:href="classjuce_1_1TooltipClient.html" target="_top" xlink:title="Components that want to use pop&#45;up tooltips should implement this interface. ">
<polygon fill="none" stroke="black" points="142.5,-168.5 142.5,-187.5 237.5,-187.5 237.5,-168.5 142.5,-168.5"/>
<text text-anchor="middle" x="190" y="-175.5" font-family="Helvetica,sans-Serif" font-size="10.00">juce::TooltipClient</text>
</a>
</g>
</g>
<!-- Node5&#45;&gt;Node4 -->
<g id="edge4" class="edge"><title>Node5&#45;&gt;Node4</title>
<path fill="none" stroke="midnightblue" d="M190,-157.805C190,-148.91 190,-138.78 190,-131.751"/>
<polygon fill="midnightblue" stroke="midnightblue" points="186.5,-158.083 190,-168.083 193.5,-158.083 186.5,-158.083"/>
</g>
</g>
</svg>
