<?xml version="1.0" encoding="UTF-8" standalone="no"?>
<!DOCTYPE svg PUBLIC "-//W3C//DTD SVG 1.1//EN"
 "http://www.w3.org/Graphics/SVG/1.1/DTD/svg11.dtd">
<!-- Generated by graphviz version 2.36.0 (20140111.2315)
 -->
<!-- Title: ValueTree::Listener Pages: 1 -->
<svg width="300pt" height="142pt"
 viewBox="0.00 0.00 300.00 142.00" xmlns="http://www.w3.org/2000/svg" xmlns:xlink="http://www.w3.org/1999/xlink">
<g id="graph0" class="graph" transform="scale(1 1) rotate(0) translate(4 138)">
<title>ValueTree::Listener</title>
<!-- Node1 -->
<g id="node1" class="node"><title>Node1</title>
<polygon fill="#bfbfbf" stroke="black" points="0.5,-57.5 0.5,-76.5 101.5,-76.5 101.5,-57.5 0.5,-57.5"/>
<text text-anchor="middle" x="51" y="-64.5" font-family="Helvetica,sans-Serif" font-size="10.00">ValueTree::Listener</text>
</g>
<!-- Node2 -->
<g id="node2" class="node"><title>Node2</title>
<g id="a_node2"><a xlink:href="classAudioProcessorValueTreeState.html" target="_top" xlink:title="This class contains a ValueTree which is used to manage an AudioProcessor&#39;s entire state...">
<polygon fill="none" stroke="black" points="138.5,-114.5 138.5,-133.5 291.5,-133.5 291.5,-114.5 138.5,-114.5"/>
<text text-anchor="middle" x="215" y="-121.5" font-family="Helvetica,sans-Serif" font-size="10.00">AudioProcessorValueTreeState</text>
</a>
</g>
</g>
<!-- Node1&#45;&gt;Node2 -->
<g id="edge1" class="edge"><title>Node1&#45;&gt;Node2</title>
<path fill="none" stroke="#8b1a1a" d="M80.2174,-80.933C96.7714,-88.7343 118.253,-98.2246 138,-105 148.291,-108.531 159.573,-111.711 170.22,-114.414"/>
<polygon fill="#8b1a1a" stroke="#8b1a1a" points="81.6219,-77.7251 71.0904,-76.5682 78.6018,-84.0401 81.6219,-77.7251"/>
</g>
<!-- Node3 -->
<g id="node3" class="node"><title>Node3</title>
<g id="a_node3"><a xlink:href="classCachedValue.html" target="_top" xlink:title="This class acts as a typed wrapper around a property inside a ValueTree. ">
<polygon fill="none" stroke="black" points="157.5,-76.5 157.5,-95.5 272.5,-95.5 272.5,-76.5 157.5,-76.5"/>
<text text-anchor="middle" x="215" y="-83.5" font-family="Helvetica,sans-Serif" font-size="10.00">CachedValue&lt; Type &gt;</text>
</a>
</g>
</g>
<!-- Node1&#45;&gt;Node3 -->
<g id="edge2" class="edge"><title>Node1&#45;&gt;Node3</title>
<path fill="none" stroke="#8b1a1a" d="M112.026,-74.0401C126.886,-75.783 142.758,-77.6444 157.446,-79.3671"/>
<polygon fill="#8b1a1a" stroke="#8b1a1a" points="112.267,-70.5444 101.927,-72.8557 111.451,-77.4968 112.267,-70.5444"/>
</g>
<!-- Node4 -->
<g id="node4" class="node"><title>Node4</title>
<g id="a_node4"><a xlink:href="classComponentBuilder.html" target="_top" xlink:title="Loads and maintains a tree of Components from a ValueTree that represents them. ">
<polygon fill="none" stroke="black" points="166.5,-38.5 166.5,-57.5 263.5,-57.5 263.5,-38.5 166.5,-38.5"/>
<text text-anchor="middle" x="215" y="-45.5" font-family="Helvetica,sans-Serif" font-size="10.00">ComponentBuilder</text>
</a>
</g>
</g>
<!-- Node1&#45;&gt;Node4 -->
<g id="edge3" class="edge"><title>Node1&#45;&gt;Node4</title>
<path fill="none" stroke="#8b1a1a" d="M112.014,-59.9613C129.974,-57.8549 149.413,-55.5751 166.454,-53.5763"/>
<polygon fill="#8b1a1a" stroke="#8b1a1a" points="111.451,-56.5032 101.927,-61.1443 112.267,-63.4556 111.451,-56.5032"/>
</g>
<!-- Node5 -->
<g id="node5" class="node"><title>Node5</title>
<g id="a_node5"><a xlink:href="classValueTreeSynchroniser.html" target="_top" xlink:title="This class can be used to watch for all changes to the state of a ValueTree, and to convert them to a...">
<polygon fill="none" stroke="black" points="156,-0.5 156,-19.5 274,-19.5 274,-0.5 156,-0.5"/>
<text text-anchor="middle" x="215" y="-7.5" font-family="Helvetica,sans-Serif" font-size="10.00">ValueTreeSynchroniser</text>
</a>
</g>
</g>
<!-- Node1&#45;&gt;Node5 -->
<g id="edge4" class="edge"><title>Node1&#45;&gt;Node5</title>
<path fill="none" stroke="#8b1a1a" d="M80.2174,-53.067C96.7714,-45.2657 118.253,-35.7754 138,-29 148.291,-25.4689 159.573,-22.2893 170.22,-19.5863"/>
<polygon fill="#8b1a1a" stroke="#8b1a1a" points="78.6018,-49.9599 71.0904,-57.4318 81.6219,-56.2749 78.6018,-49.9599"/>
</g>
</g>
</svg>
