<?xml version="1.0" encoding="UTF-8" standalone="no"?>
<!DOCTYPE svg PUBLIC "-//W3C//DTD SVG 1.1//EN"
 "http://www.w3.org/Graphics/SVG/1.1/DTD/svg11.dtd">
<!-- Generated by graphviz version 2.36.0 (20140111.2315)
 -->
<!-- Title: JUCEApplication Pages: 1 -->
<svg width="277pt" height="84pt"
 viewBox="0.00 0.00 277.00 84.00" xmlns="http://www.w3.org/2000/svg" xmlns:xlink="http://www.w3.org/1999/xlink">
<g id="graph0" class="graph" transform="scale(1 1) rotate(0) translate(4 80)">
<title>JUCEApplication</title>
<!-- Node1 -->
<g id="node1" class="node"><title>Node1</title>
<polygon fill="#bfbfbf" stroke="black" points="83,-0.5 83,-19.5 175,-19.5 175,-0.5 83,-0.5"/>
<text text-anchor="middle" x="129" y="-7.5" font-family="Helvetica,sans-Serif" font-size="10.00">JUCEApplication</text>
</g>
<!-- Node2 -->
<g id="node2" class="node"><title>Node2</title>
<g id="a_node2"><a xlink:href="group__juce__events-messages.html#classJUCEApplicationBase" target="_top" xlink:title="Abstract base class for application classes. ">
<polygon fill="none" stroke="black" points="0,-56.5 0,-75.5 114,-75.5 114,-56.5 0,-56.5"/>
<text text-anchor="middle" x="57" y="-63.5" font-family="Helvetica,sans-Serif" font-size="10.00">JUCEApplicationBase</text>
</a>
</g>
</g>
<!-- Node2&#45;&gt;Node1 -->
<g id="edge1" class="edge"><title>Node2&#45;&gt;Node1</title>
<path fill="none" stroke="midnightblue" d="M76.8657,-50.1008C89.8235,-40.3824 106.297,-28.0269 117.221,-19.8339"/>
<polygon fill="midnightblue" stroke="midnightblue" points="74.4681,-47.5239 68.568,-56.324 78.6681,-53.1239 74.4681,-47.5239"/>
</g>
<!-- Node3 -->
<g id="node3" class="node"><title>Node3</title>
<g id="a_node3"><a xlink:href="group__juce__gui__basics-commands.html#classApplicationCommandTarget" target="_top" xlink:title="A command target publishes a list of command IDs that it can perform. ">
<polygon fill="none" stroke="black" points="132.5,-56.5 132.5,-75.5 269.5,-75.5 269.5,-56.5 132.5,-56.5"/>
<text text-anchor="middle" x="201" y="-63.5" font-family="Helvetica,sans-Serif" font-size="10.00">ApplicationCommandTarget</text>
</a>
</g>
</g>
<!-- Node3&#45;&gt;Node1 -->
<g id="edge2" class="edge"><title>Node3&#45;&gt;Node1</title>
<path fill="none" stroke="midnightblue" d="M181.134,-50.1008C168.177,-40.3824 151.703,-28.0269 140.779,-19.8339"/>
<polygon fill="midnightblue" stroke="midnightblue" points="179.332,-53.1239 189.432,-56.324 183.532,-47.5239 179.332,-53.1239"/>
</g>
</g>
</svg>
