<?xml version="1.0" encoding="UTF-8" standalone="no"?>
<!DOCTYPE svg PUBLIC "-//W3C//DTD SVG 1.1//EN"
 "http://www.w3.org/Graphics/SVG/1.1/DTD/svg11.dtd">
<!-- Generated by graphviz version 2.36.0 (20140111.2315)
 -->
<!-- Title: juce::Button::Listener Pages: 1 -->
<svg width="318pt" height="508pt"
 viewBox="0.00 0.00 318.00 508.00" xmlns="http://www.w3.org/2000/svg" xmlns:xlink="http://www.w3.org/1999/xlink">
<g id="graph0" class="graph" transform="scale(1 1) rotate(0) translate(4 504)">
<title>juce::Button::Listener</title>
<!-- Node1 -->
<g id="node1" class="node"><title>Node1</title>
<polygon fill="#bfbfbf" stroke="black" points="0,-240.5 0,-259.5 110,-259.5 110,-240.5 0,-240.5"/>
<text text-anchor="middle" x="55" y="-247.5" font-family="Helvetica,sans-Serif" font-size="10.00">juce::Button::Listener</text>
</g>
<!-- Node2 -->
<g id="node2" class="node"><title>Node2</title>
<g id="a_node2"><a xlink:href="classjuce_1_1AlertWindow.html" target="_top" xlink:title="A window that displays a message and has buttons for the user to react to it. ">
<polygon fill="none" stroke="black" points="180,-480.5 180,-499.5 276,-499.5 276,-480.5 180,-480.5"/>
<text text-anchor="middle" x="228" y="-487.5" font-family="Helvetica,sans-Serif" font-size="10.00">juce::AlertWindow</text>
</a>
</g>
</g>
<!-- Node1&#45;&gt;Node2 -->
<g id="edge1" class="edge"><title>Node1&#45;&gt;Node2</title>
<path fill="none" stroke="#8b1a1a" d="M58.137,-269.751C63.8978,-312.955 83.7822,-416.275 146,-470 155.428,-478.141 167.663,-483.07 179.755,-486.025"/>
<polygon fill="#8b1a1a" stroke="#8b1a1a" points="61.5947,-269.19 56.9108,-259.687 54.646,-270.037 61.5947,-269.19"/>
</g>
<!-- Node3 -->
<g id="node3" class="node"><title>Node3</title>
<g id="a_node3"><a xlink:href="classjuce_1_1AudioDeviceSelectorComponent.html" target="_top" xlink:title="A component containing controls to let the user change the audio settings of an AudioDeviceManager ob...">
<polygon fill="none" stroke="black" points="162,-431 162,-461 294,-461 294,-431 162,-431"/>
<text text-anchor="start" x="170" y="-449" font-family="Helvetica,sans-Serif" font-size="10.00">juce::AudioDeviceSelector</text>
<text text-anchor="middle" x="228" y="-438" font-family="Helvetica,sans-Serif" font-size="10.00">Component</text>
</a>
</g>
</g>
<!-- Node1&#45;&gt;Node3 -->
<g id="edge2" class="edge"><title>Node1&#45;&gt;Node3</title>
<path fill="none" stroke="#8b1a1a" d="M61.0196,-269.897C71.0282,-305.504 96.8531,-380.202 146,-421 150.756,-424.948 156.132,-428.274 161.796,-431.075"/>
<polygon fill="#8b1a1a" stroke="#8b1a1a" points="64.2841,-268.557 58.3163,-259.802 57.5223,-270.368 64.2841,-268.557"/>
</g>
<!-- Node4 -->
<g id="node4" class="node"><title>Node4</title>
<g id="a_node4"><a xlink:href="classjuce_1_1BooleanPropertyComponent.html" target="_top" xlink:title="A PropertyComponent that contains an on/off toggle button. ">
<polygon fill="none" stroke="black" points="146.5,-392.5 146.5,-411.5 309.5,-411.5 309.5,-392.5 146.5,-392.5"/>
<text text-anchor="middle" x="228" y="-399.5" font-family="Helvetica,sans-Serif" font-size="10.00">juce::BooleanPropertyComponent</text>
</a>
</g>
</g>
<!-- Node1&#45;&gt;Node4 -->
<g id="edge3" class="edge"><title>Node1&#45;&gt;Node4</title>
<path fill="none" stroke="#8b1a1a" d="M63.4352,-268.992C75.9032,-298.247 103.874,-353.985 146,-383 151.591,-386.851 157.859,-389.928 164.368,-392.386"/>
<polygon fill="#8b1a1a" stroke="#8b1a1a" points="66.5792,-267.434 59.5456,-259.511 60.1029,-270.091 66.5792,-267.434"/>
</g>
<!-- Node5 -->
<g id="node5" class="node"><title>Node5</title>
<g id="a_node5"><a xlink:href="classjuce_1_1ButtonPropertyComponent.html" target="_top" xlink:title="A PropertyComponent that contains a button. ">
<polygon fill="none" stroke="black" points="150,-354.5 150,-373.5 306,-373.5 306,-354.5 150,-354.5"/>
<text text-anchor="middle" x="228" y="-361.5" font-family="Helvetica,sans-Serif" font-size="10.00">juce::ButtonPropertyComponent</text>
</a>
</g>
</g>
<!-- Node1&#45;&gt;Node5 -->
<g id="edge4" class="edge"><title>Node1&#45;&gt;Node5</title>
<path fill="none" stroke="#8b1a1a" d="M67.9006,-267.875C83.3045,-289.552 112.214,-325.592 146,-345 152.763,-348.885 160.278,-351.977 167.925,-354.436"/>
<polygon fill="#8b1a1a" stroke="#8b1a1a" points="70.7153,-265.791 62.151,-259.554 64.9565,-269.771 70.7153,-265.791"/>
</g>
<!-- Node6 -->
<g id="node6" class="node"><title>Node6</title>
<g id="a_node6"><a xlink:href="classjuce_1_1FileBrowserComponent.html" target="_top" xlink:title="A component for browsing and selecting a file or directory to open or save. ">
<polygon fill="none" stroke="black" points="156.5,-316.5 156.5,-335.5 299.5,-335.5 299.5,-316.5 156.5,-316.5"/>
<text text-anchor="middle" x="228" y="-323.5" font-family="Helvetica,sans-Serif" font-size="10.00">juce::FileBrowserComponent</text>
</a>
</g>
</g>
<!-- Node1&#45;&gt;Node6 -->
<g id="edge5" class="edge"><title>Node1&#45;&gt;Node6</title>
<path fill="none" stroke="#8b1a1a" d="M76.3998,-265.733C93.9619,-278.567 120.442,-296.27 146,-307 155.056,-310.802 165.017,-313.925 174.761,-316.461"/>
<polygon fill="#8b1a1a" stroke="#8b1a1a" points="78.1895,-262.702 68.081,-259.529 74.0044,-268.313 78.1895,-262.702"/>
</g>
<!-- Node7 -->
<g id="node7" class="node"><title>Node7</title>
<g id="a_node7"><a xlink:href="classjuce_1_1FileChooserDialogBox.html" target="_top" xlink:title="A file open/save dialog box. ">
<polygon fill="none" stroke="black" points="159,-278.5 159,-297.5 297,-297.5 297,-278.5 159,-278.5"/>
<text text-anchor="middle" x="228" y="-285.5" font-family="Helvetica,sans-Serif" font-size="10.00">juce::FileChooserDialogBox</text>
</a>
</g>
</g>
<!-- Node1&#45;&gt;Node7 -->
<g id="edge6" class="edge"><title>Node1&#45;&gt;Node7</title>
<path fill="none" stroke="#8b1a1a" d="M109.209,-261.824C133.317,-267.182 161.44,-273.431 184.16,-278.48"/>
<polygon fill="#8b1a1a" stroke="#8b1a1a" points="109.672,-258.342 99.1505,-259.589 108.153,-265.175 109.672,-258.342"/>
</g>
<!-- Node8 -->
<g id="node8" class="node"><title>Node8</title>
<g id="a_node8"><a xlink:href="classjuce_1_1FilenameComponent.html" target="_top" xlink:title="Shows a filename as an editable text box, with a &#39;browse&#39; button and a drop&#45;down list for recently se...">
<polygon fill="none" stroke="black" points="162.5,-240.5 162.5,-259.5 293.5,-259.5 293.5,-240.5 162.5,-240.5"/>
<text text-anchor="middle" x="228" y="-247.5" font-family="Helvetica,sans-Serif" font-size="10.00">juce::FilenameComponent</text>
</a>
</g>
</g>
<!-- Node1&#45;&gt;Node8 -->
<g id="edge7" class="edge"><title>Node1&#45;&gt;Node8</title>
<path fill="none" stroke="#8b1a1a" d="M120.444,-250C134.195,-250 148.72,-250 162.474,-250"/>
<polygon fill="#8b1a1a" stroke="#8b1a1a" points="120.106,-246.5 110.105,-250 120.105,-253.5 120.106,-246.5"/>
</g>
<!-- Node9 -->
<g id="node9" class="node"><title>Node9</title>
<g id="a_node9"><a xlink:href="classjuce_1_1FileSearchPathListComponent.html" target="_top" xlink:title="Shows a set of file paths in a list, allowing them to be added, removed or re&#45;ordered. ">
<polygon fill="none" stroke="black" points="166.5,-191 166.5,-221 289.5,-221 289.5,-191 166.5,-191"/>
<text text-anchor="start" x="174.5" y="-209" font-family="Helvetica,sans-Serif" font-size="10.00">juce::FileSearchPathList</text>
<text text-anchor="middle" x="228" y="-198" font-family="Helvetica,sans-Serif" font-size="10.00">Component</text>
</a>
</g>
</g>
<!-- Node1&#45;&gt;Node9 -->
<g id="edge8" class="edge"><title>Node1&#45;&gt;Node9</title>
<path fill="none" stroke="#8b1a1a" d="M103.015,-237.903C123.239,-232.699 147.094,-226.561 168.451,-221.065"/>
<polygon fill="#8b1a1a" stroke="#8b1a1a" points="101.917,-234.571 93.1045,-240.453 103.661,-241.35 101.917,-234.571"/>
</g>
<!-- Node10 -->
<g id="node10" class="node"><title>Node10</title>
<g id="a_node10"><a xlink:href="classjuce_1_1OnlineUnlockForm.html" target="_top" xlink:title="Acts as a GUI which asks the user for their details, and calls the approriate methods on your OnlineU...">
<polygon fill="none" stroke="black" points="167,-152.5 167,-171.5 289,-171.5 289,-152.5 167,-152.5"/>
<text text-anchor="middle" x="228" y="-159.5" font-family="Helvetica,sans-Serif" font-size="10.00">juce::OnlineUnlockForm</text>
</a>
</g>
</g>
<!-- Node1&#45;&gt;Node10 -->
<g id="edge9" class="edge"><title>Node1&#45;&gt;Node10</title>
<path fill="none" stroke="#8b1a1a" d="M73.4281,-233.368C90.5878,-217.879 118.196,-195.245 146,-182 155.023,-177.702 165.067,-174.268 174.925,-171.544"/>
<polygon fill="#8b1a1a" stroke="#8b1a1a" points="70.8642,-230.971 65.8885,-240.325 75.6113,-236.116 70.8642,-230.971"/>
</g>
<!-- Node11 -->
<g id="node11" class="node"><title>Node11</title>
<g id="a_node11"><a xlink:href="classjuce_1_1PluginListComponent.html" target="_top" xlink:title="A component displaying a list of plugins, with options to scan for them, add, remove and sort them...">
<polygon fill="none" stroke="black" points="161,-114.5 161,-133.5 295,-133.5 295,-114.5 161,-114.5"/>
<text text-anchor="middle" x="228" y="-121.5" font-family="Helvetica,sans-Serif" font-size="10.00">juce::PluginListComponent</text>
</a>
</g>
</g>
<!-- Node1&#45;&gt;Node11 -->
<g id="edge10" class="edge"><title>Node1&#45;&gt;Node11</title>
<path fill="none" stroke="#8b1a1a" d="M66.4828,-231.281C81.0712,-207.027 109.826,-165.225 146,-143 152.277,-139.144 159.267,-136.07 166.438,-133.62"/>
<polygon fill="#8b1a1a" stroke="#8b1a1a" points="63.2903,-229.807 61.2773,-240.209 69.3376,-233.333 63.2903,-229.807"/>
</g>
<!-- Node12 -->
<g id="node12" class="node"><title>Node12</title>
<g id="a_node12"><a xlink:href="classjuce_1_1PreferencesPanel.html" target="_top" xlink:title="A component with a set of buttons at the top for changing between pages of preferences. ">
<polygon fill="none" stroke="black" points="169,-76.5 169,-95.5 287,-95.5 287,-76.5 169,-76.5"/>
<text text-anchor="middle" x="228" y="-83.5" font-family="Helvetica,sans-Serif" font-size="10.00">juce::PreferencesPanel</text>
</a>
</g>
</g>
<!-- Node1&#45;&gt;Node12 -->
<g id="edge11" class="edge"><title>Node1&#45;&gt;Node12</title>
<path fill="none" stroke="#8b1a1a" d="M62.4558,-230.647C73.9929,-199.167 101.224,-137.159 146,-105 152.804,-100.113 160.683,-96.4649 168.801,-93.7456"/>
<polygon fill="#8b1a1a" stroke="#8b1a1a" points="59.0384,-229.815 59.0264,-240.41 65.6428,-232.135 59.0384,-229.815"/>
</g>
<!-- Node13 -->
<g id="node13" class="node"><title>Node13</title>
<g id="a_node13"><a xlink:href="classjuce_1_1StandaloneFilterWindow.html" target="_top" xlink:title="A class that can be used to run a simple standalone application containing your filter. ">
<polygon fill="none" stroke="black" points="155,-38.5 155,-57.5 301,-57.5 301,-38.5 155,-38.5"/>
<text text-anchor="middle" x="228" y="-45.5" font-family="Helvetica,sans-Serif" font-size="10.00">juce::StandaloneFilterWindow</text>
</a>
</g>
</g>
<!-- Node1&#45;&gt;Node13 -->
<g id="edge12" class="edge"><title>Node1&#45;&gt;Node13</title>
<path fill="none" stroke="midnightblue" d="M59.9497,-229.954C68.5201,-191.979 92.519,-109.551 146,-67 150.86,-63.133 156.373,-60.029 162.182,-57.5408"/>
<polygon fill="midnightblue" stroke="midnightblue" points="56.4235,-229.71 57.7697,-240.219 63.2708,-231.165 56.4235,-229.71"/>
</g>
<!-- Node14 -->
<g id="node14" class="node"><title>Node14</title>
<g id="a_node14"><a xlink:href="classjuce_1_1Toolbar.html" target="_top" xlink:title="A toolbar component. ">
<polygon fill="none" stroke="black" points="191.5,-0.5 191.5,-19.5 264.5,-19.5 264.5,-0.5 191.5,-0.5"/>
<text text-anchor="middle" x="228" y="-7.5" font-family="Helvetica,sans-Serif" font-size="10.00">juce::Toolbar</text>
</a>
</g>
</g>
<!-- Node1&#45;&gt;Node14 -->
<g id="edge13" class="edge"><title>Node1&#45;&gt;Node14</title>
<path fill="none" stroke="#8b1a1a" d="M58.0612,-230.107C63.67,-186.603 83.2687,-82.6183 146,-29 158.517,-18.3012 175.949,-13.3633 191.436,-11.1771"/>
<polygon fill="#8b1a1a" stroke="#8b1a1a" points="54.5613,-229.902 56.8719,-240.242 61.5136,-230.718 54.5613,-229.902"/>
</g>
</g>
</svg>
