<?xml version="1.0" encoding="UTF-8" standalone="no"?>
<!DOCTYPE svg PUBLIC "-//W3C//DTD SVG 1.1//EN"
 "http://www.w3.org/Graphics/SVG/1.1/DTD/svg11.dtd">
<!-- Generated by graphviz version 2.36.0 (20140111.2315)
 -->
<!-- Title: ChangeBroadcaster Pages: 1 -->
<svg width="414pt" height="610pt"
 viewBox="0.00 0.00 414.00 610.00" xmlns="http://www.w3.org/2000/svg" xmlns:xlink="http://www.w3.org/1999/xlink">
<g id="graph0" class="graph" transform="scale(1 1) rotate(0) translate(4 606)">
<title>ChangeBroadcaster</title>
<!-- Node1 -->
<g id="node1" class="node"><title>Node1</title>
<polygon fill="#bfbfbf" stroke="black" points="0.5,-297.5 0.5,-316.5 103.5,-316.5 103.5,-297.5 0.5,-297.5"/>
<text text-anchor="middle" x="52" y="-304.5" font-family="Helvetica,sans-Serif" font-size="10.00">ChangeBroadcaster</text>
</g>
<!-- Node2 -->
<g id="node2" class="node"><title>Node2</title>
<g id="a_node2"><a xlink:href="classAudioCDBurner.html" target="_top" xlink:title="{Audio} ">
<polygon fill="none" stroke="black" points="169.5,-582.5 169.5,-601.5 254.5,-601.5 254.5,-582.5 169.5,-582.5"/>
<text text-anchor="middle" x="212" y="-589.5" font-family="Helvetica,sans-Serif" font-size="10.00">AudioCDBurner</text>
</a>
</g>
</g>
<!-- Node1&#45;&gt;Node2 -->
<g id="edge1" class="edge"><title>Node1&#45;&gt;Node2</title>
<path fill="none" stroke="midnightblue" d="M53.3973,-326.934C55.4975,-376.233 67.9768,-504.807 140,-573 147.969,-580.545 158.596,-585.165 169.196,-587.973"/>
<polygon fill="midnightblue" stroke="midnightblue" points="56.8871,-326.56 53.0669,-316.677 49.8907,-326.785 56.8871,-326.56"/>
</g>
<!-- Node3 -->
<g id="node3" class="node"><title>Node3</title>
<g id="a_node3"><a xlink:href="classAudioDeviceManager.html" target="_top" xlink:title="Manages the state of some audio and midi i/o devices. ">
<polygon fill="none" stroke="black" points="157,-544.5 157,-563.5 267,-563.5 267,-544.5 157,-544.5"/>
<text text-anchor="middle" x="212" y="-551.5" font-family="Helvetica,sans-Serif" font-size="10.00">AudioDeviceManager</text>
</a>
</g>
</g>
<!-- Node1&#45;&gt;Node3 -->
<g id="edge2" class="edge"><title>Node1&#45;&gt;Node3</title>
<path fill="none" stroke="midnightblue" d="M54.662,-327.061C59.4378,-371.415 77.1962,-478.356 140,-535 144.927,-539.444 150.782,-542.867 156.985,-545.499"/>
<polygon fill="midnightblue" stroke="midnightblue" points="58.1332,-326.593 53.6888,-316.975 51.1655,-327.265 58.1332,-326.593"/>
</g>
<!-- Node4 -->
<g id="node4" class="node"><title>Node4</title>
<g id="a_node4"><a xlink:href="classAudioProcessorGraph.html" target="_top" xlink:title="A type of AudioProcessor which plays back a graph of other AudioProcessors. ">
<polygon fill="none" stroke="black" points="156,-506.5 156,-525.5 268,-525.5 268,-506.5 156,-506.5"/>
<text text-anchor="middle" x="212" y="-513.5" font-family="Helvetica,sans-Serif" font-size="10.00">AudioProcessorGraph</text>
</a>
</g>
</g>
<!-- Node1&#45;&gt;Node4 -->
<g id="edge3" class="edge"><title>Node1&#45;&gt;Node4</title>
<path fill="none" stroke="midnightblue" d="M56.2858,-326.581C63.8177,-365.203 86.0192,-451.4 140,-497 144.679,-500.952 150.099,-504.091 155.819,-506.581"/>
<polygon fill="midnightblue" stroke="midnightblue" points="59.7062,-325.828 54.4676,-316.619 52.82,-327.085 59.7062,-325.828"/>
</g>
<!-- Node5 -->
<g id="node5" class="node"><title>Node5</title>
<g id="a_node5"><a xlink:href="classAudioThumbnailBase.html" target="_top" xlink:title="Provides a base for classes that can store and draw scaled views of an audio waveform. ">
<polygon fill="none" stroke="black" points="157.5,-468.5 157.5,-487.5 266.5,-487.5 266.5,-468.5 157.5,-468.5"/>
<text text-anchor="middle" x="212" y="-475.5" font-family="Helvetica,sans-Serif" font-size="10.00">AudioThumbnailBase</text>
</a>
</g>
</g>
<!-- Node1&#45;&gt;Node5 -->
<g id="edge4" class="edge"><title>Node1&#45;&gt;Node5</title>
<path fill="none" stroke="midnightblue" d="M58.6054,-326.211C69.0816,-358.656 94.7639,-424.166 140,-459 145.156,-462.97 151.076,-466.113 157.25,-468.6"/>
<polygon fill="midnightblue" stroke="midnightblue" points="61.9227,-325.091 55.6293,-316.568 55.2341,-327.156 61.9227,-325.091"/>
</g>
<!-- Node7 -->
<g id="node7" class="node"><title>Node7</title>
<g id="a_node7"><a xlink:href="classAudioTransportSource.html" target="_top" xlink:title="An AudioSource that takes a PositionableAudioSource and allows it to be played, stopped, started, etc. ">
<polygon fill="none" stroke="black" points="155.5,-430.5 155.5,-449.5 268.5,-449.5 268.5,-430.5 155.5,-430.5"/>
<text text-anchor="middle" x="212" y="-437.5" font-family="Helvetica,sans-Serif" font-size="10.00">AudioTransportSource</text>
</a>
</g>
</g>
<!-- Node1&#45;&gt;Node7 -->
<g id="edge6" class="edge"><title>Node1&#45;&gt;Node7</title>
<path fill="none" stroke="midnightblue" d="M62.18,-325.67C75.675,-351.14 103.296,-396.414 140,-421 145.831,-424.906 152.433,-428.01 159.207,-430.478"/>
<polygon fill="midnightblue" stroke="midnightblue" points="65.2417,-323.97 57.5644,-316.668 59.0129,-327.164 65.2417,-323.97"/>
</g>
<!-- Node8 -->
<g id="node8" class="node"><title>Node8</title>
<g id="a_node8"><a xlink:href="classColourSelector.html" target="_top" xlink:title="A component that lets the user choose a colour. ">
<polygon fill="none" stroke="black" points="171.5,-392.5 171.5,-411.5 252.5,-411.5 252.5,-392.5 171.5,-392.5"/>
<text text-anchor="middle" x="212" y="-399.5" font-family="Helvetica,sans-Serif" font-size="10.00">ColourSelector</text>
</a>
</g>
</g>
<!-- Node1&#45;&gt;Node8 -->
<g id="edge7" class="edge"><title>Node1&#45;&gt;Node8</title>
<path fill="none" stroke="midnightblue" d="M68.3682,-324.451C84.5414,-341.763 111.559,-367.839 140,-383 149.684,-388.162 160.874,-392 171.465,-394.821"/>
<polygon fill="midnightblue" stroke="midnightblue" points="70.6644,-321.775 61.341,-316.742 65.4913,-326.49 70.6644,-321.775"/>
</g>
<!-- Node9 -->
<g id="node9" class="node"><title>Node9</title>
<g id="a_node9"><a xlink:href="classComponentAnimator.html" target="_top" xlink:title="Animates a set of components, moving them to a new position and/or fading their alpha levels...">
<polygon fill="none" stroke="black" points="159,-354.5 159,-373.5 265,-373.5 265,-354.5 159,-354.5"/>
<text text-anchor="middle" x="212" y="-361.5" font-family="Helvetica,sans-Serif" font-size="10.00">ComponentAnimator</text>
</a>
</g>
</g>
<!-- Node1&#45;&gt;Node9 -->
<g id="edge8" class="edge"><title>Node1&#45;&gt;Node9</title>
<path fill="none" stroke="midnightblue" d="M81.9347,-320.944C98.6556,-328.67 120.233,-338.082 140,-345 149.996,-348.498 160.974,-351.726 171.246,-354.49"/>
<polygon fill="midnightblue" stroke="midnightblue" points="83.2419,-317.692 72.7012,-316.622 80.2739,-324.031 83.2419,-317.692"/>
</g>
<!-- Node10 -->
<g id="node10" class="node"><title>Node10</title>
<g id="a_node10"><a xlink:href="classDirectoryContentsList.html" target="_top" xlink:title="A class to asynchronously scan for details about the files in a directory. ">
<polygon fill="none" stroke="black" points="156,-316.5 156,-335.5 268,-335.5 268,-316.5 156,-316.5"/>
<text text-anchor="middle" x="212" y="-323.5" font-family="Helvetica,sans-Serif" font-size="10.00">DirectoryContentsList</text>
</a>
</g>
</g>
<!-- Node1&#45;&gt;Node10 -->
<g id="edge9" class="edge"><title>Node1&#45;&gt;Node10</title>
<path fill="none" stroke="midnightblue" d="M114.183,-314.357C127.912,-316.008 142.399,-317.75 155.864,-319.37"/>
<polygon fill="midnightblue" stroke="midnightblue" points="114.208,-310.835 103.862,-313.116 113.372,-317.785 114.208,-310.835"/>
</g>
<!-- Node11 -->
<g id="node11" class="node"><title>Node11</title>
<g id="a_node11"><a xlink:href="classFileBasedDocument.html" target="_top" xlink:title="A class to take care of the logic involved with the loading/saving of some kind of document...">
<polygon fill="none" stroke="black" points="159.5,-278.5 159.5,-297.5 264.5,-297.5 264.5,-278.5 159.5,-278.5"/>
<text text-anchor="middle" x="212" y="-285.5" font-family="Helvetica,sans-Serif" font-size="10.00">FileBasedDocument</text>
</a>
</g>
</g>
<!-- Node1&#45;&gt;Node11 -->
<g id="edge10" class="edge"><title>Node1&#45;&gt;Node11</title>
<path fill="none" stroke="midnightblue" d="M114.061,-299.657C129.043,-297.856 144.934,-295.945 159.42,-294.203"/>
<polygon fill="midnightblue" stroke="midnightblue" points="113.372,-296.215 103.862,-300.884 114.208,-303.165 113.372,-296.215"/>
</g>
<!-- Node12 -->
<g id="node12" class="node"><title>Node12</title>
<g id="a_node12"><a xlink:href="classKeyPressMappingSet.html" target="_top" xlink:title="Manages and edits a list of keypresses, which it uses to invoke the appropriate command in an Applica...">
<polygon fill="none" stroke="black" points="156.5,-240.5 156.5,-259.5 267.5,-259.5 267.5,-240.5 156.5,-240.5"/>
<text text-anchor="middle" x="212" y="-247.5" font-family="Helvetica,sans-Serif" font-size="10.00">KeyPressMappingSet</text>
</a>
</g>
</g>
<!-- Node1&#45;&gt;Node12 -->
<g id="edge11" class="edge"><title>Node1&#45;&gt;Node12</title>
<path fill="none" stroke="midnightblue" d="M81.9347,-293.056C98.6556,-285.33 120.233,-275.918 140,-269 149.996,-265.502 160.974,-262.274 171.246,-259.51"/>
<polygon fill="midnightblue" stroke="midnightblue" points="80.2739,-289.969 72.7012,-297.378 83.2419,-296.308 80.2739,-289.969"/>
</g>
<!-- Node13 -->
<g id="node13" class="node"><title>Node13</title>
<g id="a_node13"><a xlink:href="classKnownPluginList.html" target="_top" xlink:title="Manages a list of plugin types. ">
<polygon fill="none" stroke="black" points="167.5,-202.5 167.5,-221.5 256.5,-221.5 256.5,-202.5 167.5,-202.5"/>
<text text-anchor="middle" x="212" y="-209.5" font-family="Helvetica,sans-Serif" font-size="10.00">KnownPluginList</text>
</a>
</g>
</g>
<!-- Node1&#45;&gt;Node13 -->
<g id="edge12" class="edge"><title>Node1&#45;&gt;Node13</title>
<path fill="none" stroke="midnightblue" d="M68.3682,-289.549C84.5414,-272.237 111.559,-246.161 140,-231 148.445,-226.498 158.036,-223.003 167.376,-220.312"/>
<polygon fill="midnightblue" stroke="midnightblue" points="65.4913,-287.51 61.341,-297.258 70.6644,-292.225 65.4913,-287.51"/>
</g>
<!-- Node14 -->
<g id="node14" class="node"><title>Node14</title>
<g id="a_node14"><a xlink:href="classMidiKeyboardComponent.html" target="_top" xlink:title="A component that displays a piano keyboard, whose notes can be clicked on. ">
<polygon fill="none" stroke="black" points="149,-164.5 149,-183.5 275,-183.5 275,-164.5 149,-164.5"/>
<text text-anchor="middle" x="212" y="-171.5" font-family="Helvetica,sans-Serif" font-size="10.00">MidiKeyboardComponent</text>
</a>
</g>
</g>
<!-- Node1&#45;&gt;Node14 -->
<g id="edge13" class="edge"><title>Node1&#45;&gt;Node14</title>
<path fill="none" stroke="midnightblue" d="M62.18,-288.33C75.675,-262.86 103.296,-217.586 140,-193 145.831,-189.094 152.433,-185.99 159.207,-183.522"/>
<polygon fill="midnightblue" stroke="midnightblue" points="59.0129,-286.836 57.5644,-297.332 65.2417,-290.03 59.0129,-286.836"/>
</g>
<!-- Node15 -->
<g id="node15" class="node"><title>Node15</title>
<g id="a_node15"><a xlink:href="classPropertiesFile.html" target="_top" xlink:title="Wrapper on a file that stores a list of key/value data pairs. ">
<polygon fill="none" stroke="black" points="173.5,-126.5 173.5,-145.5 250.5,-145.5 250.5,-126.5 173.5,-126.5"/>
<text text-anchor="middle" x="212" y="-133.5" font-family="Helvetica,sans-Serif" font-size="10.00">PropertiesFile</text>
</a>
</g>
</g>
<!-- Node1&#45;&gt;Node15 -->
<g id="edge14" class="edge"><title>Node1&#45;&gt;Node15</title>
<path fill="none" stroke="midnightblue" d="M58.6054,-287.789C69.0816,-255.344 94.7639,-189.834 140,-155 149.604,-147.604 161.858,-143.081 173.472,-140.317"/>
<polygon fill="midnightblue" stroke="midnightblue" points="55.2341,-286.844 55.6293,-297.432 61.9227,-288.909 55.2341,-286.844"/>
</g>
<!-- Node16 -->
<g id="node16" class="node"><title>Node16</title>
<g id="a_node16"><a xlink:href="classSelectedItemSet.html" target="_top" xlink:title="Manages a list of selectable items. ">
<polygon fill="none" stroke="black" points="140,-77 140,-107 284,-107 284,-77 140,-77"/>
<text text-anchor="start" x="148" y="-95" font-family="Helvetica,sans-Serif" font-size="10.00">SelectedItemSet&lt; Selectable</text>
<text text-anchor="middle" x="212" y="-84" font-family="Helvetica,sans-Serif" font-size="10.00">ItemType &gt;</text>
</a>
</g>
</g>
<!-- Node1&#45;&gt;Node16 -->
<g id="edge15" class="edge"><title>Node1&#45;&gt;Node16</title>
<path fill="none" stroke="midnightblue" d="M56.7084,-287.235C64.8942,-248.981 88.0601,-164.424 140,-117 144.246,-113.123 149.13,-109.84 154.307,-107.062"/>
<polygon fill="midnightblue" stroke="midnightblue" points="53.2591,-286.634 54.709,-297.129 60.1204,-288.021 53.2591,-286.634"/>
</g>
<!-- Node17 -->
<g id="node17" class="node"><title>Node17</title>
<g id="a_node17"><a xlink:href="classTabbedButtonBar.html" target="_top" xlink:title="A vertical or horizontal bar containing tabs that you can select. ">
<polygon fill="none" stroke="black" points="166,-38.5 166,-57.5 258,-57.5 258,-38.5 166,-38.5"/>
<text text-anchor="middle" x="212" y="-45.5" font-family="Helvetica,sans-Serif" font-size="10.00">TabbedButtonBar</text>
</a>
</g>
</g>
<!-- Node1&#45;&gt;Node17 -->
<g id="edge16" class="edge"><title>Node1&#45;&gt;Node17</title>
<path fill="none" stroke="midnightblue" d="M54.3154,-286.984C58.4194,-241.245 74.9563,-128.368 140,-68 147.134,-61.3792 156.289,-56.9268 165.638,-53.9388"/>
<polygon fill="midnightblue" stroke="midnightblue" points="50.8152,-286.849 53.5179,-297.094 57.7935,-287.4 50.8152,-286.849"/>
</g>
<!-- Node18 -->
<g id="node18" class="node"><title>Node18</title>
<g id="a_node18"><a xlink:href="classUndoManager.html" target="_top" xlink:title="Manages a list of undo/redo commands. ">
<polygon fill="none" stroke="black" points="173.5,-0.5 173.5,-19.5 250.5,-19.5 250.5,-0.5 173.5,-0.5"/>
<text text-anchor="middle" x="212" y="-7.5" font-family="Helvetica,sans-Serif" font-size="10.00">UndoManager</text>
</a>
</g>
</g>
<!-- Node1&#45;&gt;Node18 -->
<g id="edge17" class="edge"><title>Node1&#45;&gt;Node18</title>
<path fill="none" stroke="midnightblue" d="M53.0645,-287.207C54.3469,-236.51 64.9957,-100.932 140,-29 148.933,-20.4328 161.29,-15.6301 173.194,-12.9691"/>
<polygon fill="midnightblue" stroke="midnightblue" points="49.5615,-287.386 52.9094,-297.438 56.5607,-287.493 49.5615,-287.386"/>
</g>
<!-- Node6 -->
<g id="node6" class="node"><title>Node6</title>
<g id="a_node6"><a xlink:href="classAudioThumbnail.html" target="_top" xlink:title="Makes it easy to quickly draw scaled views of the waveform shape of an audio file. ">
<polygon fill="none" stroke="black" points="320,-468.5 320,-487.5 406,-487.5 406,-468.5 320,-468.5"/>
<text text-anchor="middle" x="363" y="-475.5" font-family="Helvetica,sans-Serif" font-size="10.00">AudioThumbnail</text>
</a>
</g>
</g>
<!-- Node5&#45;&gt;Node6 -->
<g id="edge5" class="edge"><title>Node5&#45;&gt;Node6</title>
<path fill="none" stroke="midnightblue" d="M277.207,-478C291.682,-478 306.685,-478 319.975,-478"/>
<polygon fill="midnightblue" stroke="midnightblue" points="276.792,-474.5 266.792,-478 276.792,-481.5 276.792,-474.5"/>
</g>
</g>
</svg>
