<?xml version="1.0" encoding="UTF-8" standalone="no"?>
<!DOCTYPE svg PUBLIC "-//W3C//DTD SVG 1.1//EN"
 "http://www.w3.org/Graphics/SVG/1.1/DTD/svg11.dtd">
<!-- Generated by graphviz version 2.36.0 (20140111.2315)
 -->
<!-- Title: TreeView Pages: 1 -->
<svg width="466pt" height="196pt"
 viewBox="0.00 0.00 466.00 196.00" xmlns="http://www.w3.org/2000/svg" xmlns:xlink="http://www.w3.org/1999/xlink">
<g id="graph0" class="graph" transform="scale(1 1) rotate(0) translate(4 192)">
<title>TreeView</title>
<!-- Node1 -->
<g id="node1" class="node"><title>Node1</title>
<polygon fill="#bfbfbf" stroke="black" points="181,-56.5 181,-75.5 239,-75.5 239,-56.5 181,-56.5"/>
<text text-anchor="middle" x="210" y="-63.5" font-family="Helvetica,sans-Serif" font-size="10.00">TreeView</text>
</g>
<!-- Node8 -->
<g id="node8" class="node"><title>Node8</title>
<g id="a_node8"><a xlink:href="group__juce__gui__basics-filebrowser.html#classFileTreeComponent" target="_top" xlink:title="A component that displays the files in a directory as a treeview. ">
<polygon fill="none" stroke="black" points="159,-0.5 159,-19.5 261,-19.5 261,-0.5 159,-0.5"/>
<text text-anchor="middle" x="210" y="-7.5" font-family="Helvetica,sans-Serif" font-size="10.00">FileTreeComponent</text>
</a>
</g>
</g>
<!-- Node1&#45;&gt;Node8 -->
<g id="edge7" class="edge"><title>Node1&#45;&gt;Node8</title>
<path fill="none" stroke="midnightblue" d="M210,-45.8045C210,-36.9102 210,-26.7798 210,-19.7511"/>
<polygon fill="midnightblue" stroke="midnightblue" points="206.5,-46.083 210,-56.083 213.5,-46.083 206.5,-46.083"/>
</g>
<!-- Node2 -->
<g id="node2" class="node"><title>Node2</title>
<g id="a_node2"><a xlink:href="group__juce__gui__basics-components.html#classComponent" target="_top" xlink:title="The base class for all JUCE user&#45;interface objects. ">
<polygon fill="none" stroke="black" points="6.5,-112.5 6.5,-131.5 73.5,-131.5 73.5,-112.5 6.5,-112.5"/>
<text text-anchor="middle" x="40" y="-119.5" font-family="Helvetica,sans-Serif" font-size="10.00">Component</text>
</a>
</g>
</g>
<!-- Node2&#45;&gt;Node1 -->
<g id="edge1" class="edge"><title>Node2&#45;&gt;Node1</title>
<path fill="none" stroke="midnightblue" d="M76.8194,-109.304C108.852,-99.1294 154.515,-84.6246 183.189,-75.5164"/>
<polygon fill="midnightblue" stroke="midnightblue" points="75.4081,-106.08 66.937,-112.444 77.5274,-112.752 75.4081,-106.08"/>
</g>
<!-- Node3 -->
<g id="node3" class="node"><title>Node3</title>
<g id="a_node3"><a xlink:href="group__juce__gui__basics-mouse.html#classMouseListener" target="_top" xlink:title="A MouseListener can be registered with a component to receive callbacks about mouse events that happe...">
<polygon fill="none" stroke="black" points="0,-168.5 0,-187.5 80,-187.5 80,-168.5 0,-168.5"/>
<text text-anchor="middle" x="40" y="-175.5" font-family="Helvetica,sans-Serif" font-size="10.00">MouseListener</text>
</a>
</g>
</g>
<!-- Node3&#45;&gt;Node2 -->
<g id="edge2" class="edge"><title>Node3&#45;&gt;Node2</title>
<path fill="none" stroke="midnightblue" d="M40,-157.805C40,-148.91 40,-138.78 40,-131.751"/>
<polygon fill="midnightblue" stroke="midnightblue" points="36.5001,-158.083 40,-168.083 43.5001,-158.083 36.5001,-158.083"/>
</g>
<!-- Node4 -->
<g id="node4" class="node"><title>Node4</title>
<g id="a_node4"><a xlink:href="group__juce__gui__basics-mouse.html#classSettableTooltipClient" target="_top" xlink:title="An implementation of TooltipClient that stores the tooltip string and a method for changing it...">
<polygon fill="none" stroke="black" points="91.5,-112.5 91.5,-131.5 198.5,-131.5 198.5,-112.5 91.5,-112.5"/>
<text text-anchor="middle" x="145" y="-119.5" font-family="Helvetica,sans-Serif" font-size="10.00">SettableTooltipClient</text>
</a>
</g>
</g>
<!-- Node4&#45;&gt;Node1 -->
<g id="edge3" class="edge"><title>Node4&#45;&gt;Node1</title>
<path fill="none" stroke="midnightblue" d="M163.273,-105.82C174.918,-96.1452 189.599,-83.9481 199.367,-75.8339"/>
<polygon fill="midnightblue" stroke="midnightblue" points="160.899,-103.242 155.443,-112.324 165.372,-108.626 160.899,-103.242"/>
</g>
<!-- Node5 -->
<g id="node5" class="node"><title>Node5</title>
<g id="a_node5"><a xlink:href="group__juce__gui__basics-mouse.html#classTooltipClient" target="_top" xlink:title="Components that want to use pop&#45;up tooltips should implement this interface. ">
<polygon fill="none" stroke="black" points="109.5,-168.5 109.5,-187.5 180.5,-187.5 180.5,-168.5 109.5,-168.5"/>
<text text-anchor="middle" x="145" y="-175.5" font-family="Helvetica,sans-Serif" font-size="10.00">TooltipClient</text>
</a>
</g>
</g>
<!-- Node5&#45;&gt;Node4 -->
<g id="edge4" class="edge"><title>Node5&#45;&gt;Node4</title>
<path fill="none" stroke="midnightblue" d="M145,-157.805C145,-148.91 145,-138.78 145,-131.751"/>
<polygon fill="midnightblue" stroke="midnightblue" points="141.5,-158.083 145,-168.083 148.5,-158.083 141.5,-158.083"/>
</g>
<!-- Node6 -->
<g id="node6" class="node"><title>Node6</title>
<g id="a_node6"><a xlink:href="group__juce__gui__basics-mouse.html#classFileDragAndDropTarget" target="_top" xlink:title="Components derived from this class can have files dropped onto them by an external application...">
<polygon fill="none" stroke="black" points="216.5,-112.5 216.5,-131.5 335.5,-131.5 335.5,-112.5 216.5,-112.5"/>
<text text-anchor="middle" x="276" y="-119.5" font-family="Helvetica,sans-Serif" font-size="10.00">FileDragAndDropTarget</text>
</a>
</g>
</g>
<!-- Node6&#45;&gt;Node1 -->
<g id="edge5" class="edge"><title>Node6&#45;&gt;Node1</title>
<path fill="none" stroke="midnightblue" d="M257.446,-105.82C245.622,-96.1452 230.714,-83.9481 220.797,-75.8339"/>
<polygon fill="midnightblue" stroke="midnightblue" points="255.44,-108.7 265.396,-112.324 259.873,-103.283 255.44,-108.7"/>
</g>
<!-- Node7 -->
<g id="node7" class="node"><title>Node7</title>
<g id="a_node7"><a xlink:href="group__juce__gui__basics-mouse.html#classDragAndDropTarget" target="_top" xlink:title="Components derived from this class can have things dropped onto them by a DragAndDropContainer. ">
<polygon fill="none" stroke="black" points="354,-112.5 354,-131.5 458,-131.5 458,-112.5 354,-112.5"/>
<text text-anchor="middle" x="406" y="-119.5" font-family="Helvetica,sans-Serif" font-size="10.00">DragAndDropTarget</text>
</a>
</g>
</g>
<!-- Node7&#45;&gt;Node1 -->
<g id="edge6" class="edge"><title>Node7&#45;&gt;Node1</title>
<path fill="none" stroke="midnightblue" d="M364.827,-109.656C327.245,-99.3021 272.626,-84.2541 239.311,-75.0755"/>
<polygon fill="midnightblue" stroke="midnightblue" points="364.373,-113.162 374.943,-112.444 366.232,-106.413 364.373,-113.162"/>
</g>
</g>
</svg>
