<?xml version="1.0" encoding="UTF-8" standalone="no"?>
<!DOCTYPE svg PUBLIC "-//W3C//DTD SVG 1.1//EN"
 "http://www.w3.org/Graphics/SVG/1.1/DTD/svg11.dtd">
<!-- Generated by graphviz version 2.36.0 (20140111.2315)
 -->
<!-- Title: AudioFormatWriter::ThreadedWriter::IncomingDataReceiver Pages: 1 -->
<svg width="156pt" height="162pt"
 viewBox="0.00 0.00 156.00 162.00" xmlns="http://www.w3.org/2000/svg" xmlns:xlink="http://www.w3.org/1999/xlink">
<g id="graph0" class="graph" transform="scale(1 1) rotate(0) translate(4 158)">
<title>AudioFormatWriter::ThreadedWriter::IncomingDataReceiver</title>
<!-- Node1 -->
<g id="node1" class="node"><title>Node1</title>
<polygon fill="#bfbfbf" stroke="black" points="-1,-112.5 -1,-153.5 149,-153.5 149,-112.5 -1,-112.5"/>
<text text-anchor="start" x="7" y="-141.5" font-family="Helvetica,sans-Serif" font-size="10.00">AudioFormatWriter::</text>
<text text-anchor="start" x="7" y="-130.5" font-family="Helvetica,sans-Serif" font-size="10.00">ThreadedWriter::IncomingData</text>
<text text-anchor="middle" x="74" y="-119.5" font-family="Helvetica,sans-Serif" font-size="10.00">Receiver</text>
</g>
<!-- Node2 -->
<g id="node2" class="node"><title>Node2</title>
<g id="a_node2"><a xlink:href="classAudioThumbnailBase.html" target="_top" xlink:title="Provides a base for classes that can store and draw scaled views of an audio waveform. ">
<polygon fill="none" stroke="black" points="19.5,-56.5 19.5,-75.5 128.5,-75.5 128.5,-56.5 19.5,-56.5"/>
<text text-anchor="middle" x="74" y="-63.5" font-family="Helvetica,sans-Serif" font-size="10.00">AudioThumbnailBase</text>
</a>
</g>
</g>
<!-- Node1&#45;&gt;Node2 -->
<g id="edge1" class="edge"><title>Node1&#45;&gt;Node2</title>
<path fill="none" stroke="midnightblue" d="M74,-102.263C74,-92.5592 74,-82.5242 74,-75.6525"/>
<polygon fill="midnightblue" stroke="midnightblue" points="70.5001,-102.498 74,-112.498 77.5001,-102.498 70.5001,-102.498"/>
</g>
<!-- Node3 -->
<g id="node3" class="node"><title>Node3</title>
<g id="a_node3"><a xlink:href="classAudioThumbnail.html" target="_top" xlink:title="Makes it easy to quickly draw scaled views of the waveform shape of an audio file. ">
<polygon fill="none" stroke="black" points="31,-0.5 31,-19.5 117,-19.5 117,-0.5 31,-0.5"/>
<text text-anchor="middle" x="74" y="-7.5" font-family="Helvetica,sans-Serif" font-size="10.00">AudioThumbnail</text>
</a>
</g>
</g>
<!-- Node2&#45;&gt;Node3 -->
<g id="edge2" class="edge"><title>Node2&#45;&gt;Node3</title>
<path fill="none" stroke="midnightblue" d="M74,-45.8045C74,-36.9102 74,-26.7798 74,-19.7511"/>
<polygon fill="midnightblue" stroke="midnightblue" points="70.5001,-46.083 74,-56.083 77.5001,-46.083 70.5001,-46.083"/>
</g>
</g>
</svg>
