<?xml version="1.0" encoding="UTF-8" standalone="no"?>
<!DOCTYPE svg PUBLIC "-//W3C//DTD SVG 1.1//EN"
 "http://www.w3.org/Graphics/SVG/1.1/DTD/svg11.dtd">
<!-- Generated by graphviz version 2.36.0 (20140111.2315)
 -->
<!-- Title: juce::JUCEApplication Pages: 1 -->
<svg width="298pt" height="96pt"
 viewBox="0.00 0.00 298.00 96.00" xmlns="http://www.w3.org/2000/svg" xmlns:xlink="http://www.w3.org/1999/xlink">
<g id="graph0" class="graph" transform="scale(1 1) rotate(0) translate(4 92)">
<title>juce::JUCEApplication</title>
<!-- Node1 -->
<g id="node1" class="node"><title>Node1</title>
<polygon fill="#bfbfbf" stroke="black" points="88,-0.5 88,-19.5 204,-19.5 204,-0.5 88,-0.5"/>
<text text-anchor="middle" x="146" y="-7.5" font-family="Helvetica,sans-Serif" font-size="10.00">juce::JUCEApplication</text>
</g>
<!-- Node2 -->
<g id="node2" class="node"><title>Node2</title>
<g id="a_node2"><a xlink:href="classjuce_1_1JUCEApplicationBase.html" target="_top" xlink:title="Abstract base class for application classes. ">
<polygon fill="none" stroke="black" points="0,-62.5 0,-81.5 138,-81.5 138,-62.5 0,-62.5"/>
<text text-anchor="middle" x="69" y="-69.5" font-family="Helvetica,sans-Serif" font-size="10.00">juce::JUCEApplicationBase</text>
</a>
</g>
</g>
<!-- Node2&#45;&gt;Node1 -->
<g id="edge1" class="edge"><title>Node2&#45;&gt;Node1</title>
<path fill="none" stroke="midnightblue" d="M88.0316,-56.1702C102.802,-44.6608 122.761,-29.1086 134.988,-19.5806"/>
<polygon fill="midnightblue" stroke="midnightblue" points="85.769,-53.4961 80.0322,-62.4035 90.0715,-59.0177 85.769,-53.4961"/>
</g>
<!-- Node3 -->
<g id="node3" class="node"><title>Node3</title>
<g id="a_node3"><a xlink:href="classjuce_1_1ApplicationCommandTarget.html" target="_top" xlink:title="A command target publishes a list of command IDs that it can perform. ">
<polygon fill="none" stroke="black" points="156,-57 156,-87 290,-87 290,-57 156,-57"/>
<text text-anchor="start" x="164" y="-75" font-family="Helvetica,sans-Serif" font-size="10.00">juce::ApplicationCommand</text>
<text text-anchor="middle" x="223" y="-64" font-family="Helvetica,sans-Serif" font-size="10.00">Target</text>
</a>
</g>
</g>
<!-- Node3&#45;&gt;Node1 -->
<g id="edge2" class="edge"><title>Node3&#45;&gt;Node1</title>
<path fill="none" stroke="midnightblue" d="M196.715,-50.5179C183.234,-40.0137 167.525,-27.7727 157.204,-19.7305"/>
<polygon fill="midnightblue" stroke="midnightblue" points="194.713,-53.3951 204.752,-56.7808 199.015,-47.8735 194.713,-53.3951"/>
</g>
</g>
</svg>
