<?xml version="1.0" encoding="UTF-8" standalone="no"?>
<!DOCTYPE svg PUBLIC "-//W3C//DTD SVG 1.1//EN"
 "http://www.w3.org/Graphics/SVG/1.1/DTD/svg11.dtd">
<!-- Generated by graphviz version 2.36.0 (20140111.2315)
 -->
<!-- Title: MidiMessageCollector Pages: 1 -->
<svg width="225pt" height="96pt"
 viewBox="0.00 0.00 225.00 96.00" xmlns="http://www.w3.org/2000/svg" xmlns:xlink="http://www.w3.org/1999/xlink">
<g id="graph0" class="graph" transform="scale(1 1) rotate(0) translate(4 92)">
<title>MidiMessageCollector</title>
<!-- Node1 -->
<g id="node1" class="node"><title>Node1</title>
<polygon fill="#bfbfbf" stroke="black" points="54.5,-0.5 54.5,-19.5 167.5,-19.5 167.5,-0.5 54.5,-0.5"/>
<text text-anchor="middle" x="111" y="-7.5" font-family="Helvetica,sans-Serif" font-size="10.00">MidiMessageCollector</text>
</g>
<!-- Node2 -->
<g id="node2" class="node"><title>Node2</title>
<g id="a_node2"><a xlink:href="classMidiKeyboardState_1_1Listener.html" target="_top" xlink:title="Receives events from a MidiKeyboardState object. ">
<polygon fill="none" stroke="black" points="-0.5,-57 -0.5,-87 104.5,-87 104.5,-57 -0.5,-57"/>
<text text-anchor="start" x="7.5" y="-75" font-family="Helvetica,sans-Serif" font-size="10.00">MidiKeyboardState::</text>
<text text-anchor="middle" x="52" y="-64" font-family="Helvetica,sans-Serif" font-size="10.00">Listener</text>
</a>
</g>
</g>
<!-- Node2&#45;&gt;Node1 -->
<g id="edge1" class="edge"><title>Node2&#45;&gt;Node1</title>
<path fill="none" stroke="midnightblue" d="M73.0217,-49.622C83.1479,-39.3242 94.7307,-27.5451 102.415,-19.7305"/>
<polygon fill="midnightblue" stroke="midnightblue" points="70.498,-47.1966 65.9822,-56.7808 75.4892,-52.1046 70.498,-47.1966"/>
</g>
<!-- Node3 -->
<g id="node3" class="node"><title>Node3</title>
<g id="a_node3"><a xlink:href="classMidiInputCallback.html" target="_top" xlink:title="Receives incoming messages from a physical MIDI input device. ">
<polygon fill="none" stroke="black" points="122.5,-62.5 122.5,-81.5 217.5,-81.5 217.5,-62.5 122.5,-62.5"/>
<text text-anchor="middle" x="170" y="-69.5" font-family="Helvetica,sans-Serif" font-size="10.00">MidiInputCallback</text>
</a>
</g>
</g>
<!-- Node3&#45;&gt;Node1 -->
<g id="edge2" class="edge"><title>Node3&#45;&gt;Node1</title>
<path fill="none" stroke="midnightblue" d="M154.456,-55.1928C143.247,-43.7935 128.544,-28.8414 119.438,-19.5806"/>
<polygon fill="midnightblue" stroke="midnightblue" points="152.04,-57.7272 161.547,-62.4035 157.031,-52.8192 152.04,-57.7272"/>
</g>
</g>
</svg>
