<?xml version="1.0" encoding="UTF-8" standalone="no"?>
<!DOCTYPE svg PUBLIC "-//W3C//DTD SVG 1.1//EN"
 "http://www.w3.org/Graphics/SVG/1.1/DTD/svg11.dtd">
<!-- Generated by graphviz version 2.36.0 (20140111.2315)
 -->
<!-- Title: juce::TextInputTarget Pages: 1 -->
<svg width="252pt" height="84pt"
 viewBox="0.00 0.00 252.00 84.00" xmlns="http://www.w3.org/2000/svg" xmlns:xlink="http://www.w3.org/1999/xlink">
<g id="graph0" class="graph" transform="scale(1 1) rotate(0) translate(4 80)">
<title>juce::TextInputTarget</title>
<!-- Node1 -->
<g id="node1" class="node"><title>Node1</title>
<polygon fill="#bfbfbf" stroke="black" points="80,-56.5 80,-75.5 190,-75.5 190,-56.5 80,-56.5"/>
<text text-anchor="middle" x="135" y="-63.5" font-family="Helvetica,sans-Serif" font-size="10.00">juce::TextInputTarget</text>
</g>
<!-- Node2 -->
<g id="node2" class="node"><title>Node2</title>
<g id="a_node2"><a xlink:href="classjuce_1_1CodeEditorComponent.html" target="_top" xlink:title="A text editor component designed specifically for source code. ">
<polygon fill="none" stroke="black" points="0,-0.5 0,-19.5 140,-19.5 140,-0.5 0,-0.5"/>
<text text-anchor="middle" x="70" y="-7.5" font-family="Helvetica,sans-Serif" font-size="10.00">juce::CodeEditorComponent</text>
</a>
</g>
</g>
<!-- Node1&#45;&gt;Node2 -->
<g id="edge1" class="edge"><title>Node1&#45;&gt;Node2</title>
<path fill="none" stroke="midnightblue" d="M116.727,-49.8197C105.082,-40.1452 90.4005,-27.9481 80.6334,-19.8339"/>
<polygon fill="midnightblue" stroke="midnightblue" points="114.628,-52.6259 124.557,-56.324 119.101,-47.2416 114.628,-52.6259"/>
</g>
<!-- Node3 -->
<g id="node3" class="node"><title>Node3</title>
<g id="a_node3"><a xlink:href="classjuce_1_1TextEditor.html" target="_top" xlink:title="An editable text box. ">
<polygon fill="none" stroke="black" points="158,-0.5 158,-19.5 244,-19.5 244,-0.5 158,-0.5"/>
<text text-anchor="middle" x="201" y="-7.5" font-family="Helvetica,sans-Serif" font-size="10.00">juce::TextEditor</text>
</a>
</g>
</g>
<!-- Node1&#45;&gt;Node3 -->
<g id="edge2" class="edge"><title>Node1&#45;&gt;Node3</title>
<path fill="none" stroke="midnightblue" d="M153.554,-49.8197C165.378,-40.1452 180.286,-27.9481 190.203,-19.8339"/>
<polygon fill="midnightblue" stroke="midnightblue" points="151.127,-47.2827 145.604,-56.324 155.56,-52.7004 151.127,-47.2827"/>
</g>
</g>
</svg>
