<?xml version="1.0" encoding="UTF-8" standalone="no"?>
<!DOCTYPE svg PUBLIC "-//W3C//DTD SVG 1.1//EN"
 "http://www.w3.org/Graphics/SVG/1.1/DTD/svg11.dtd">
<!-- Generated by graphviz version 2.36.0 (20140111.2315)
 -->
<!-- Title: MidiKeyboardStateListener Pages: 1 -->
<svg width="265pt" height="84pt"
 viewBox="0.00 0.00 265.00 84.00" xmlns="http://www.w3.org/2000/svg" xmlns:xlink="http://www.w3.org/1999/xlink">
<g id="graph0" class="graph" transform="scale(1 1) rotate(0) translate(4 80)">
<title>MidiKeyboardStateListener</title>
<!-- Node1 -->
<g id="node1" class="node"><title>Node1</title>
<polygon fill="#bfbfbf" stroke="black" points="65,-56.5 65,-75.5 199,-75.5 199,-56.5 65,-56.5"/>
<text text-anchor="middle" x="132" y="-63.5" font-family="Helvetica,sans-Serif" font-size="10.00">MidiKeyboardStateListener</text>
</g>
<!-- Node2 -->
<g id="node2" class="node"><title>Node2</title>
<g id="a_node2"><a xlink:href="group__juce__audio__utils-gui.html#classMidiKeyboardComponent" target="_top" xlink:title="A component that displays a piano keyboard, whose notes can be clicked on. ">
<polygon fill="none" stroke="black" points="0,-0.5 0,-19.5 126,-19.5 126,-0.5 0,-0.5"/>
<text text-anchor="middle" x="63" y="-7.5" font-family="Helvetica,sans-Serif" font-size="10.00">MidiKeyboardComponent</text>
</a>
</g>
</g>
<!-- Node1&#45;&gt;Node2 -->
<g id="edge1" class="edge"><title>Node1&#45;&gt;Node2</title>
<path fill="none" stroke="midnightblue" d="M112.962,-50.1008C100.544,-40.3824 84.7566,-28.0269 74.2878,-19.8339"/>
<polygon fill="midnightblue" stroke="midnightblue" points="110.882,-52.9171 120.914,-56.324 115.196,-47.4046 110.882,-52.9171"/>
</g>
<!-- Node3 -->
<g id="node3" class="node"><title>Node3</title>
<g id="a_node3"><a xlink:href="group__juce__audio__devices-midi__io.html#classMidiMessageCollector" target="_top" xlink:title="Collects incoming realtime MIDI messages and turns them into blocks suitable for processing by a bloc...">
<polygon fill="none" stroke="black" points="144.5,-0.5 144.5,-19.5 257.5,-19.5 257.5,-0.5 144.5,-0.5"/>
<text text-anchor="middle" x="201" y="-7.5" font-family="Helvetica,sans-Serif" font-size="10.00">MidiMessageCollector</text>
</a>
</g>
</g>
<!-- Node1&#45;&gt;Node3 -->
<g id="edge2" class="edge"><title>Node1&#45;&gt;Node3</title>
<path fill="none" stroke="midnightblue" d="M151.038,-50.1008C163.456,-40.3824 179.243,-28.0269 189.712,-19.8339"/>
<polygon fill="midnightblue" stroke="midnightblue" points="148.804,-47.4046 143.086,-56.324 153.118,-52.9171 148.804,-47.4046"/>
</g>
</g>
</svg>
