<?xml version="1.0" encoding="UTF-8" standalone="no"?>
<!DOCTYPE svg PUBLIC "-//W3C//DTD SVG 1.1//EN"
 "http://www.w3.org/Graphics/SVG/1.1/DTD/svg11.dtd">
<!-- Generated by graphviz version 2.36.0 (20140111.2315)
 -->
<!-- Title: juce::AudioProcessorGraph Pages: 1 -->
<svg width="239pt" height="84pt"
 viewBox="0.00 0.00 239.00 84.00" xmlns="http://www.w3.org/2000/svg" xmlns:xlink="http://www.w3.org/1999/xlink">
<g id="graph0" class="graph" transform="scale(1 1) rotate(0) translate(4 80)">
<title>juce::AudioProcessorGraph</title>
<!-- Node1 -->
<g id="node1" class="node"><title>Node1</title>
<polygon fill="#bfbfbf" stroke="black" points="49,-0.5 49,-19.5 185,-19.5 185,-0.5 49,-0.5"/>
<text text-anchor="middle" x="117" y="-7.5" font-family="Helvetica,sans-Serif" font-size="10.00">juce::AudioProcessorGraph</text>
</g>
<!-- Node2 -->
<g id="node2" class="node"><title>Node2</title>
<g id="a_node2"><a xlink:href="classjuce_1_1AudioProcessor.html" target="_top" xlink:title="Base class for audio processing filters or plugins. ">
<polygon fill="none" stroke="black" points="0,-56.5 0,-75.5 110,-75.5 110,-56.5 0,-56.5"/>
<text text-anchor="middle" x="55" y="-63.5" font-family="Helvetica,sans-Serif" font-size="10.00">juce::AudioProcessor</text>
</a>
</g>
</g>
<!-- Node2&#45;&gt;Node1 -->
<g id="edge1" class="edge"><title>Node2&#45;&gt;Node1</title>
<path fill="none" stroke="midnightblue" d="M72.7536,-49.5372C83.8085,-39.9087 97.6315,-27.8694 106.857,-19.8339"/>
<polygon fill="midnightblue" stroke="midnightblue" points="70.2035,-47.1168 64.9614,-56.324 74.801,-52.3954 70.2035,-47.1168"/>
</g>
<!-- Node3 -->
<g id="node3" class="node"><title>Node3</title>
<g id="a_node3"><a xlink:href="classjuce_1_1AsyncUpdater.html" target="_top" xlink:title="Has a callback method that is triggered asynchronously. ">
<polygon fill="none" stroke="black" points="128.5,-56.5 128.5,-75.5 231.5,-75.5 231.5,-56.5 128.5,-56.5"/>
<text text-anchor="middle" x="180" y="-63.5" font-family="Helvetica,sans-Serif" font-size="10.00">juce::AsyncUpdater</text>
</a>
</g>
</g>
<!-- Node3&#45;&gt;Node1 -->
<g id="edge2" class="edge"><title>Node3&#45;&gt;Node1</title>
<path fill="none" stroke="#8b1a1a" d="M161.96,-49.5372C150.727,-39.9087 136.681,-27.8694 127.306,-19.8339"/>
<polygon fill="#8b1a1a" stroke="#8b1a1a" points="160.008,-52.4734 169.878,-56.324 164.563,-47.1586 160.008,-52.4734"/>
</g>
</g>
</svg>
