<?xml version="1.0" encoding="UTF-8" standalone="no"?>
<!DOCTYPE svg PUBLIC "-//W3C//DTD SVG 1.1//EN"
 "http://www.w3.org/Graphics/SVG/1.1/DTD/svg11.dtd">
<!-- Generated by graphviz version 2.36.0 (20140111.2315)
 -->
<!-- Title: juce::TimeSliceClient Pages: 1 -->
<svg width="452pt" height="84pt"
 viewBox="0.00 0.00 452.00 84.00" xmlns="http://www.w3.org/2000/svg" xmlns:xlink="http://www.w3.org/1999/xlink">
<g id="graph0" class="graph" transform="scale(1 1) rotate(0) translate(4 80)">
<title>juce::TimeSliceClient</title>
<!-- Node1 -->
<g id="node1" class="node"><title>Node1</title>
<polygon fill="#bfbfbf" stroke="black" points="167,-56.5 167,-75.5 277,-75.5 277,-56.5 167,-56.5"/>
<text text-anchor="middle" x="222" y="-63.5" font-family="Helvetica,sans-Serif" font-size="10.00">juce::TimeSliceClient</text>
</g>
<!-- Node2 -->
<g id="node2" class="node"><title>Node2</title>
<g id="a_node2"><a xlink:href="classjuce_1_1BufferingAudioReader.html" target="_top" xlink:title="An AudioFormatReader that uses a background thread to pre&#45;read data from another reader. ">
<polygon fill="none" stroke="black" points="0,-0.5 0,-19.5 136,-19.5 136,-0.5 0,-0.5"/>
<text text-anchor="middle" x="68" y="-7.5" font-family="Helvetica,sans-Serif" font-size="10.00">juce::BufferingAudioReader</text>
</a>
</g>
</g>
<!-- Node1&#45;&gt;Node2 -->
<g id="edge1" class="edge"><title>Node1&#45;&gt;Node2</title>
<path fill="none" stroke="#8b1a1a" d="M187.889,-53.0392C158.913,-42.8786 118.038,-28.5457 92.2876,-19.5164"/>
<polygon fill="#8b1a1a" stroke="#8b1a1a" points="187.003,-56.4373 197.598,-56.4435 189.32,-49.8317 187.003,-56.4373"/>
</g>
<!-- Node3 -->
<g id="node3" class="node"><title>Node3</title>
<g id="a_node3"><a xlink:href="classjuce_1_1BufferingAudioSource.html" target="_top" xlink:title="An AudioSource which takes another source as input, and buffers it using a thread. ">
<polygon fill="none" stroke="black" points="154.5,-0.5 154.5,-19.5 289.5,-19.5 289.5,-0.5 154.5,-0.5"/>
<text text-anchor="middle" x="222" y="-7.5" font-family="Helvetica,sans-Serif" font-size="10.00">juce::BufferingAudioSource</text>
</a>
</g>
</g>
<!-- Node1&#45;&gt;Node3 -->
<g id="edge2" class="edge"><title>Node1&#45;&gt;Node3</title>
<path fill="none" stroke="#8b1a1a" d="M222,-45.8045C222,-36.9102 222,-26.7798 222,-19.7511"/>
<polygon fill="#8b1a1a" stroke="#8b1a1a" points="218.5,-46.083 222,-56.083 225.5,-46.083 218.5,-46.083"/>
</g>
<!-- Node4 -->
<g id="node4" class="node"><title>Node4</title>
<g id="a_node4"><a xlink:href="classjuce_1_1DirectoryContentsList.html" target="_top" xlink:title="A class to asynchronously scan for details about the files in a directory. ">
<polygon fill="none" stroke="black" points="308,-0.5 308,-19.5 444,-19.5 444,-0.5 308,-0.5"/>
<text text-anchor="middle" x="376" y="-7.5" font-family="Helvetica,sans-Serif" font-size="10.00">juce::DirectoryContentsList</text>
</a>
</g>
</g>
<!-- Node1&#45;&gt;Node4 -->
<g id="edge3" class="edge"><title>Node1&#45;&gt;Node4</title>
<path fill="none" stroke="#8b1a1a" d="M256.111,-53.0392C285.087,-42.8786 325.962,-28.5457 351.712,-19.5164"/>
<polygon fill="#8b1a1a" stroke="#8b1a1a" points="254.68,-49.8317 246.402,-56.4435 256.997,-56.4373 254.68,-49.8317"/>
</g>
</g>
</svg>
