<?xml version="1.0" encoding="UTF-8" standalone="no"?>
<!DOCTYPE svg PUBLIC "-//W3C//DTD SVG 1.1//EN"
 "http://www.w3.org/Graphics/SVG/1.1/DTD/svg11.dtd">
<!-- Generated by graphviz version 2.36.0 (20140111.2315)
 -->
<!-- Title: juce::FilenameComponent Pages: 1 -->
<svg width="460pt" height="218pt"
 viewBox="0.00 0.00 460.00 218.00" xmlns="http://www.w3.org/2000/svg" xmlns:xlink="http://www.w3.org/1999/xlink">
<g id="graph0" class="graph" transform="scale(1 1) rotate(0) translate(4 214)">
<title>juce::FilenameComponent</title>
<!-- Node1 -->
<g id="node1" class="node"><title>Node1</title>
<polygon fill="#bfbfbf" stroke="black" points="320.5,-95.5 320.5,-114.5 451.5,-114.5 451.5,-95.5 320.5,-95.5"/>
<text text-anchor="middle" x="386" y="-102.5" font-family="Helvetica,sans-Serif" font-size="10.00">juce::FilenameComponent</text>
</g>
<!-- Node2 -->
<g id="node2" class="node"><title>Node2</title>
<g id="a_node2"><a xlink:href="classjuce_1_1Component.html" target="_top" xlink:title="The base class for all JUCE user&#45;interface objects. ">
<polygon fill="none" stroke="black" points="166.5,-190.5 166.5,-209.5 257.5,-209.5 257.5,-190.5 166.5,-190.5"/>
<text text-anchor="middle" x="212" y="-197.5" font-family="Helvetica,sans-Serif" font-size="10.00">juce::Component</text>
</a>
</g>
</g>
<!-- Node2&#45;&gt;Node1 -->
<g id="edge1" class="edge"><title>Node2&#45;&gt;Node1</title>
<path fill="none" stroke="midnightblue" d="M267.247,-187.825C273.019,-185.843 278.709,-183.577 284,-181 320.892,-163.03 357.779,-130.76 374.984,-114.671"/>
<polygon fill="midnightblue" stroke="midnightblue" points="265.992,-184.551 257.51,-190.899 268.1,-191.226 265.992,-184.551"/>
</g>
<!-- Node3 -->
<g id="node3" class="node"><title>Node3</title>
<g id="a_node3"><a xlink:href="classjuce_1_1MouseListener.html" target="_top" xlink:title="A MouseListener can be registered with a component to receive callbacks about mouse events that happe...">
<polygon fill="none" stroke="black" points="0,-190.5 0,-209.5 104,-209.5 104,-190.5 0,-190.5"/>
<text text-anchor="middle" x="52" y="-197.5" font-family="Helvetica,sans-Serif" font-size="10.00">juce::MouseListener</text>
</a>
</g>
</g>
<!-- Node3&#45;&gt;Node2 -->
<g id="edge2" class="edge"><title>Node3&#45;&gt;Node2</title>
<path fill="none" stroke="midnightblue" d="M114.336,-200C131.664,-200 150.188,-200 166.336,-200"/>
<polygon fill="midnightblue" stroke="midnightblue" points="114.298,-196.5 104.298,-200 114.298,-203.5 114.298,-196.5"/>
</g>
<!-- Node4 -->
<g id="node4" class="node"><title>Node4</title>
<g id="a_node4"><a xlink:href="classjuce_1_1SettableTooltipClient.html" target="_top" xlink:title="An implementation of TooltipClient that stores the tooltip string and a method for changing it...">
<polygon fill="none" stroke="black" points="146.5,-152.5 146.5,-171.5 277.5,-171.5 277.5,-152.5 146.5,-152.5"/>
<text text-anchor="middle" x="212" y="-159.5" font-family="Helvetica,sans-Serif" font-size="10.00">juce::SettableTooltipClient</text>
</a>
</g>
</g>
<!-- Node4&#45;&gt;Node1 -->
<g id="edge3" class="edge"><title>Node4&#45;&gt;Node1</title>
<path fill="none" stroke="midnightblue" d="M261.386,-149.736C268.99,-147.612 276.735,-145.332 284,-143 310.935,-134.352 341.235,-122.685 361.559,-114.57"/>
<polygon fill="midnightblue" stroke="midnightblue" points="260.247,-146.419 251.523,-152.43 262.092,-153.171 260.247,-146.419"/>
</g>
<!-- Node5 -->
<g id="node5" class="node"><title>Node5</title>
<g id="a_node5"><a xlink:href="classjuce_1_1TooltipClient.html" target="_top" xlink:title="Components that want to use pop&#45;up tooltips should implement this interface. ">
<polygon fill="none" stroke="black" points="4.5,-152.5 4.5,-171.5 99.5,-171.5 99.5,-152.5 4.5,-152.5"/>
<text text-anchor="middle" x="52" y="-159.5" font-family="Helvetica,sans-Serif" font-size="10.00">juce::TooltipClient</text>
</a>
</g>
</g>
<!-- Node5&#45;&gt;Node4 -->
<g id="edge4" class="edge"><title>Node5&#45;&gt;Node4</title>
<path fill="none" stroke="midnightblue" d="M109.759,-162C121.624,-162 134.217,-162 146.344,-162"/>
<polygon fill="midnightblue" stroke="midnightblue" points="109.551,-158.5 99.5506,-162 109.551,-165.5 109.551,-158.5"/>
</g>
<!-- Node6 -->
<g id="node6" class="node"><title>Node6</title>
<g id="a_node6"><a xlink:href="classjuce_1_1FileDragAndDropTarget.html" target="_top" xlink:title="Components derived from this class can have files dropped onto them by an external application...">
<polygon fill="none" stroke="black" points="140.5,-114.5 140.5,-133.5 283.5,-133.5 283.5,-114.5 140.5,-114.5"/>
<text text-anchor="middle" x="212" y="-121.5" font-family="Helvetica,sans-Serif" font-size="10.00">juce::FileDragAndDropTarget</text>
</a>
</g>
</g>
<!-- Node6&#45;&gt;Node1 -->
<g id="edge5" class="edge"><title>Node6&#45;&gt;Node1</title>
<path fill="none" stroke="midnightblue" d="M294.177,-115.033C302.931,-114.066 311.753,-113.091 320.277,-112.15"/>
<polygon fill="midnightblue" stroke="midnightblue" points="293.507,-111.585 283.952,-116.162 294.276,-118.543 293.507,-111.585"/>
</g>
<!-- Node7 -->
<g id="node7" class="node"><title>Node7</title>
<g id="a_node7"><a xlink:href="classjuce_1_1AsyncUpdater.html" target="_top" xlink:title="Has a callback method that is triggered asynchronously. ">
<polygon fill="none" stroke="black" points="160.5,-76.5 160.5,-95.5 263.5,-95.5 263.5,-76.5 160.5,-76.5"/>
<text text-anchor="middle" x="212" y="-83.5" font-family="Helvetica,sans-Serif" font-size="10.00">juce::AsyncUpdater</text>
</a>
</g>
</g>
<!-- Node7&#45;&gt;Node1 -->
<g id="edge6" class="edge"><title>Node7&#45;&gt;Node1</title>
<path fill="none" stroke="#8b1a1a" d="M273.883,-92.7255C288.924,-94.387 305.089,-96.1726 320.303,-97.8533"/>
<polygon fill="#8b1a1a" stroke="#8b1a1a" points="273.999,-89.2171 263.675,-91.5979 273.231,-96.1748 273.999,-89.2171"/>
</g>
<!-- Node8 -->
<g id="node8" class="node"><title>Node8</title>
<g id="a_node8"><a xlink:href="classjuce_1_1Button_1_1Listener.html" target="_top" xlink:title="Used to receive callbacks when a button is clicked. ">
<polygon fill="none" stroke="black" points="157,-38.5 157,-57.5 267,-57.5 267,-38.5 157,-38.5"/>
<text text-anchor="middle" x="212" y="-45.5" font-family="Helvetica,sans-Serif" font-size="10.00">juce::Button::Listener</text>
</a>
</g>
</g>
<!-- Node8&#45;&gt;Node1 -->
<g id="edge7" class="edge"><title>Node8&#45;&gt;Node1</title>
<path fill="none" stroke="#8b1a1a" d="M261.386,-60.264C268.99,-62.388 276.735,-64.6675 284,-67 310.935,-75.6479 341.235,-87.3148 361.559,-95.4304"/>
<polygon fill="#8b1a1a" stroke="#8b1a1a" points="262.092,-56.8287 251.523,-57.5701 260.247,-63.5813 262.092,-56.8287"/>
</g>
<!-- Node9 -->
<g id="node9" class="node"><title>Node9</title>
<g id="a_node9"><a xlink:href="classjuce_1_1ComboBox_1_1Listener.html" target="_top" xlink:title="A class for receiving events from a ComboBox. ">
<polygon fill="none" stroke="black" points="147,-0.5 147,-19.5 277,-19.5 277,-0.5 147,-0.5"/>
<text text-anchor="middle" x="212" y="-7.5" font-family="Helvetica,sans-Serif" font-size="10.00">juce::ComboBox::Listener</text>
</a>
</g>
</g>
<!-- Node9&#45;&gt;Node1 -->
<g id="edge8" class="edge"><title>Node9&#45;&gt;Node1</title>
<path fill="none" stroke="#8b1a1a" d="M268.606,-22.6475C273.911,-24.5152 279.125,-26.6252 284,-29 320.892,-46.9705 357.779,-79.2396 374.984,-95.3292"/>
<polygon fill="#8b1a1a" stroke="#8b1a1a" points="269.604,-19.2917 259.012,-19.5427 267.449,-25.9517 269.604,-19.2917"/>
</g>
</g>
</svg>
