<?xml version="1.0" encoding="UTF-8" standalone="no"?>
<!DOCTYPE svg PUBLIC "-//W3C//DTD SVG 1.1//EN"
 "http://www.w3.org/Graphics/SVG/1.1/DTD/svg11.dtd">
<!-- Generated by graphviz version 2.36.0 (20140111.2315)
 -->
<!-- Title: juce::DeletedAtShutdown Pages: 1 -->
<svg width="523pt" height="84pt"
 viewBox="0.00 0.00 523.00 84.00" xmlns="http://www.w3.org/2000/svg" xmlns:xlink="http://www.w3.org/1999/xlink">
<g id="graph0" class="graph" transform="scale(1 1) rotate(0) translate(4 80)">
<title>juce::DeletedAtShutdown</title>
<!-- Node1 -->
<g id="node1" class="node"><title>Node1</title>
<polygon fill="#bfbfbf" stroke="black" points="175,-56.5 175,-75.5 303,-75.5 303,-56.5 175,-56.5"/>
<text text-anchor="middle" x="239" y="-63.5" font-family="Helvetica,sans-Serif" font-size="10.00">juce::DeletedAtShutdown</text>
</g>
<!-- Node2 -->
<g id="node2" class="node"><title>Node2</title>
<g id="a_node2"><a xlink:href="classjuce_1_1Desktop.html" target="_top" xlink:title="Describes and controls aspects of the computer&#39;s desktop. ">
<polygon fill="none" stroke="black" points="-0.5,-0.5 -0.5,-19.5 76.5,-19.5 76.5,-0.5 -0.5,-0.5"/>
<text text-anchor="middle" x="38" y="-7.5" font-family="Helvetica,sans-Serif" font-size="10.00">juce::Desktop</text>
</a>
</g>
</g>
<!-- Node1&#45;&gt;Node2 -->
<g id="edge1" class="edge"><title>Node1&#45;&gt;Node2</title>
<path fill="none" stroke="#8b1a1a" d="M197.419,-53.8291C159.469,-43.6333 104.19,-28.7823 69.7,-19.5164"/>
<polygon fill="#8b1a1a" stroke="#8b1a1a" points="196.585,-57.229 207.151,-56.4435 198.402,-50.4688 196.585,-57.229"/>
</g>
<!-- Node3 -->
<g id="node3" class="node"><title>Node3</title>
<g id="a_node3"><a xlink:href="classjuce_1_1JUCESplashScreen.html" target="_top" xlink:title="The standard JUCE splash screen component. ">
<polygon fill="none" stroke="black" points="95,-0.5 95,-19.5 223,-19.5 223,-0.5 95,-0.5"/>
<text text-anchor="middle" x="159" y="-7.5" font-family="Helvetica,sans-Serif" font-size="10.00">juce::JUCESplashScreen</text>
</a>
</g>
</g>
<!-- Node1&#45;&gt;Node3 -->
<g id="edge2" class="edge"><title>Node1&#45;&gt;Node3</title>
<path fill="none" stroke="#8b1a1a" d="M217.699,-50.6221C203.085,-40.7574 184.173,-27.9919 171.821,-19.6545"/>
<polygon fill="#8b1a1a" stroke="#8b1a1a" points="215.9,-53.6302 226.147,-56.324 219.816,-47.8282 215.9,-53.6302"/>
</g>
<!-- Node4 -->
<g id="node4" class="node"><title>Node4</title>
<g id="a_node4"><a xlink:href="classjuce_1_1ModalComponentManager.html" target="_top" xlink:title="Manages the system&#39;s stack of modal components. ">
<polygon fill="none" stroke="black" points="241.5,-0.5 241.5,-19.5 396.5,-19.5 396.5,-0.5 241.5,-0.5"/>
<text text-anchor="middle" x="319" y="-7.5" font-family="Helvetica,sans-Serif" font-size="10.00">juce::ModalComponentManager</text>
</a>
</g>
</g>
<!-- Node1&#45;&gt;Node4 -->
<g id="edge3" class="edge"><title>Node1&#45;&gt;Node4</title>
<path fill="none" stroke="#8b1a1a" d="M260.301,-50.6221C274.915,-40.7574 293.827,-27.9919 306.179,-19.6545"/>
<polygon fill="#8b1a1a" stroke="#8b1a1a" points="258.184,-47.8282 251.853,-56.324 262.1,-53.6302 258.184,-47.8282"/>
</g>
<!-- Node5 -->
<g id="node5" class="node"><title>Node5</title>
<g id="a_node5"><a xlink:href="classjuce_1_1SplashScreen.html" target="_top" xlink:title="A component for showing a splash screen while your app starts up. ">
<polygon fill="none" stroke="black" points="414.5,-0.5 414.5,-19.5 515.5,-19.5 515.5,-0.5 414.5,-0.5"/>
<text text-anchor="middle" x="465" y="-7.5" font-family="Helvetica,sans-Serif" font-size="10.00">juce::SplashScreen</text>
</a>
</g>
</g>
<!-- Node1&#45;&gt;Node5 -->
<g id="edge4" class="edge"><title>Node1&#45;&gt;Node5</title>
<path fill="none" stroke="#8b1a1a" d="M284.667,-54.0884C327.364,-43.8865 390.248,-28.8612 429.357,-19.5164"/>
<polygon fill="#8b1a1a" stroke="#8b1a1a" points="283.723,-50.7153 274.81,-56.4435 285.35,-57.5237 283.723,-50.7153"/>
</g>
</g>
</svg>
