<?xml version="1.0" encoding="UTF-8" standalone="no"?>
<!DOCTYPE svg PUBLIC "-//W3C//DTD SVG 1.1//EN"
 "http://www.w3.org/Graphics/SVG/1.1/DTD/svg11.dtd">
<!-- Generated by graphviz version 2.36.0 (20140111.2315)
 -->
<!-- Title: PropertyComponent Pages: 1 -->
<svg width="548pt" height="180pt"
 viewBox="0.00 0.00 548.00 180.00" xmlns="http://www.w3.org/2000/svg" xmlns:xlink="http://www.w3.org/1999/xlink">
<g id="graph0" class="graph" transform="scale(1 1) rotate(0) translate(4 176)">
<title>PropertyComponent</title>
<!-- Node1 -->
<g id="node1" class="node"><title>Node1</title>
<polygon fill="#bfbfbf" stroke="black" points="260,-76.5 260,-95.5 364,-95.5 364,-76.5 260,-76.5"/>
<text text-anchor="middle" x="312" y="-83.5" font-family="Helvetica,sans-Serif" font-size="10.00">PropertyComponent</text>
</g>
<!-- Node6 -->
<g id="node6" class="node"><title>Node6</title>
<g id="a_node6"><a xlink:href="classBooleanPropertyComponent.html" target="_top" xlink:title="A PropertyComponent that contains an on/off toggle button. ">
<polygon fill="none" stroke="black" points="400.5,-152.5 400.5,-171.5 539.5,-171.5 539.5,-152.5 400.5,-152.5"/>
<text text-anchor="middle" x="470" y="-159.5" font-family="Helvetica,sans-Serif" font-size="10.00">BooleanPropertyComponent</text>
</a>
</g>
</g>
<!-- Node1&#45;&gt;Node6 -->
<g id="edge5" class="edge"><title>Node1&#45;&gt;Node6</title>
<path fill="none" stroke="midnightblue" d="M333.033,-101.737C350.024,-114.425 375.477,-131.921 400,-143 408.266,-146.735 417.428,-149.884 426.304,-152.479"/>
<polygon fill="midnightblue" stroke="midnightblue" points="335.046,-98.8715 324.969,-95.6006 330.807,-104.442 335.046,-98.8715"/>
</g>
<!-- Node7 -->
<g id="node7" class="node"><title>Node7</title>
<g id="a_node7"><a xlink:href="classButtonPropertyComponent.html" target="_top" xlink:title="A PropertyComponent that contains a button. ">
<polygon fill="none" stroke="black" points="404,-114.5 404,-133.5 536,-133.5 536,-114.5 404,-114.5"/>
<text text-anchor="middle" x="470" y="-121.5" font-family="Helvetica,sans-Serif" font-size="10.00">ButtonPropertyComponent</text>
</a>
</g>
</g>
<!-- Node1&#45;&gt;Node7 -->
<g id="edge6" class="edge"><title>Node1&#45;&gt;Node7</title>
<path fill="none" stroke="midnightblue" d="M362.132,-97.968C383.993,-103.293 409.376,-109.476 429.918,-114.48"/>
<polygon fill="midnightblue" stroke="midnightblue" points="362.91,-94.5552 352.365,-95.589 361.253,-101.356 362.91,-94.5552"/>
</g>
<!-- Node8 -->
<g id="node8" class="node"><title>Node8</title>
<g id="a_node8"><a xlink:href="classChoicePropertyComponent.html" target="_top" xlink:title="A PropertyComponent that shows its value as a combo box. ">
<polygon fill="none" stroke="black" points="403,-76.5 403,-95.5 537,-95.5 537,-76.5 403,-76.5"/>
<text text-anchor="middle" x="470" y="-83.5" font-family="Helvetica,sans-Serif" font-size="10.00">ChoicePropertyComponent</text>
</a>
</g>
</g>
<!-- Node1&#45;&gt;Node8 -->
<g id="edge7" class="edge"><title>Node1&#45;&gt;Node8</title>
<path fill="none" stroke="midnightblue" d="M374.113,-86C383.508,-86 393.246,-86 402.747,-86"/>
<polygon fill="midnightblue" stroke="midnightblue" points="374.08,-82.5001 364.08,-86 374.08,-89.5001 374.08,-82.5001"/>
</g>
<!-- Node9 -->
<g id="node9" class="node"><title>Node9</title>
<g id="a_node9"><a xlink:href="classSliderPropertyComponent.html" target="_top" xlink:title="A PropertyComponent that shows its value as a slider. ">
<polygon fill="none" stroke="black" points="406,-38.5 406,-57.5 534,-57.5 534,-38.5 406,-38.5"/>
<text text-anchor="middle" x="470" y="-45.5" font-family="Helvetica,sans-Serif" font-size="10.00">SliderPropertyComponent</text>
</a>
</g>
</g>
<!-- Node1&#45;&gt;Node9 -->
<g id="edge8" class="edge"><title>Node1&#45;&gt;Node9</title>
<path fill="none" stroke="midnightblue" d="M362.132,-74.032C383.993,-68.7069 409.376,-62.5238 429.918,-57.5201"/>
<polygon fill="midnightblue" stroke="midnightblue" points="361.253,-70.6437 352.365,-76.411 362.91,-77.4448 361.253,-70.6437"/>
</g>
<!-- Node10 -->
<g id="node10" class="node"><title>Node10</title>
<g id="a_node10"><a xlink:href="classTextPropertyComponent.html" target="_top" xlink:title="A PropertyComponent that shows its value as editable text. ">
<polygon fill="none" stroke="black" points="408.5,-0.5 408.5,-19.5 531.5,-19.5 531.5,-0.5 408.5,-0.5"/>
<text text-anchor="middle" x="470" y="-7.5" font-family="Helvetica,sans-Serif" font-size="10.00">TextPropertyComponent</text>
</a>
</g>
</g>
<!-- Node1&#45;&gt;Node10 -->
<g id="edge9" class="edge"><title>Node1&#45;&gt;Node10</title>
<path fill="none" stroke="midnightblue" d="M333.033,-70.2625C350.024,-57.5751 375.477,-40.0795 400,-29 408.266,-25.2655 417.428,-22.1158 426.304,-19.5212"/>
<polygon fill="midnightblue" stroke="midnightblue" points="330.807,-67.5582 324.969,-76.3994 335.046,-73.1285 330.807,-67.5582"/>
</g>
<!-- Node2 -->
<g id="node2" class="node"><title>Node2</title>
<g id="a_node2"><a xlink:href="classComponent.html" target="_top" xlink:title="The base class for all JUCE user&#45;interface objects. ">
<polygon fill="none" stroke="black" points="136.5,-95.5 136.5,-114.5 203.5,-114.5 203.5,-95.5 136.5,-95.5"/>
<text text-anchor="middle" x="170" y="-102.5" font-family="Helvetica,sans-Serif" font-size="10.00">Component</text>
</a>
</g>
</g>
<!-- Node2&#45;&gt;Node1 -->
<g id="edge1" class="edge"><title>Node2&#45;&gt;Node1</title>
<path fill="none" stroke="midnightblue" d="M213.988,-99.166C228.447,-97.2037 244.722,-94.9948 259.752,-92.955"/>
<polygon fill="midnightblue" stroke="midnightblue" points="213.262,-95.7322 203.824,-100.545 214.204,-102.669 213.262,-95.7322"/>
</g>
<!-- Node3 -->
<g id="node3" class="node"><title>Node3</title>
<g id="a_node3"><a xlink:href="classMouseListener.html" target="_top" xlink:title="A MouseListener can be registered with a component to receive callbacks about mouse events that happe...">
<polygon fill="none" stroke="black" points="0,-95.5 0,-114.5 80,-114.5 80,-95.5 0,-95.5"/>
<text text-anchor="middle" x="40" y="-102.5" font-family="Helvetica,sans-Serif" font-size="10.00">MouseListener</text>
</a>
</g>
</g>
<!-- Node3&#45;&gt;Node2 -->
<g id="edge2" class="edge"><title>Node3&#45;&gt;Node2</title>
<path fill="none" stroke="midnightblue" d="M90.4703,-105C105.787,-105 122.277,-105 136.172,-105"/>
<polygon fill="midnightblue" stroke="midnightblue" points="90.0998,-101.5 80.0997,-105 90.0997,-108.5 90.0998,-101.5"/>
</g>
<!-- Node4 -->
<g id="node4" class="node"><title>Node4</title>
<g id="a_node4"><a xlink:href="classSettableTooltipClient.html" target="_top" xlink:title="An implementation of TooltipClient that stores the tooltip string and a method for changing it...">
<polygon fill="none" stroke="black" points="116.5,-57.5 116.5,-76.5 223.5,-76.5 223.5,-57.5 116.5,-57.5"/>
<text text-anchor="middle" x="170" y="-64.5" font-family="Helvetica,sans-Serif" font-size="10.00">SettableTooltipClient</text>
</a>
</g>
</g>
<!-- Node4&#45;&gt;Node1 -->
<g id="edge3" class="edge"><title>Node4&#45;&gt;Node1</title>
<path fill="none" stroke="midnightblue" d="M233.615,-75.4978C242.295,-76.6757 251.127,-77.8744 259.571,-79.0204"/>
<polygon fill="midnightblue" stroke="midnightblue" points="233.909,-72.0056 223.529,-74.129 232.968,-78.9421 233.909,-72.0056"/>
</g>
<!-- Node5 -->
<g id="node5" class="node"><title>Node5</title>
<g id="a_node5"><a xlink:href="classTooltipClient.html" target="_top" xlink:title="Components that want to use pop&#45;up tooltips should implement this interface. ">
<polygon fill="none" stroke="black" points="4.5,-57.5 4.5,-76.5 75.5,-76.5 75.5,-57.5 4.5,-57.5"/>
<text text-anchor="middle" x="40" y="-64.5" font-family="Helvetica,sans-Serif" font-size="10.00">TooltipClient</text>
</a>
</g>
</g>
<!-- Node5&#45;&gt;Node4 -->
<g id="edge4" class="edge"><title>Node5&#45;&gt;Node4</title>
<path fill="none" stroke="midnightblue" d="M85.9021,-67C95.64,-67 106.027,-67 116.042,-67"/>
<polygon fill="midnightblue" stroke="midnightblue" points="85.6387,-63.5001 75.6386,-67 85.6386,-70.5001 85.6387,-63.5001"/>
</g>
</g>
</svg>
