<?xml version="1.0" encoding="UTF-8" standalone="no"?>
<!DOCTYPE svg PUBLIC "-//W3C//DTD SVG 1.1//EN"
 "http://www.w3.org/Graphics/SVG/1.1/DTD/svg11.dtd">
<!-- Generated by graphviz version 2.36.0 (20140111.2315)
 -->
<!-- Title: Timer Pages: 1 -->
<svg width="244pt" height="940pt"
 viewBox="0.00 0.00 244.00 940.00" xmlns="http://www.w3.org/2000/svg" xmlns:xlink="http://www.w3.org/1999/xlink">
<g id="graph0" class="graph" transform="scale(1 1) rotate(0) translate(4 936)">
<title>Timer</title>
<!-- Node1 -->
<g id="node1" class="node"><title>Node1</title>
<polygon fill="#bfbfbf" stroke="black" points="0.5,-456.5 0.5,-475.5 41.5,-475.5 41.5,-456.5 0.5,-456.5"/>
<text text-anchor="middle" x="21" y="-463.5" font-family="Helvetica,sans-Serif" font-size="10.00">Timer</text>
</g>
<!-- Node2 -->
<g id="node2" class="node"><title>Node2</title>
<g id="a_node2"><a xlink:href="classAnimatedAppComponent.html" target="_top" xlink:title="A base class for writing simple one&#45;page graphical apps. ">
<polygon fill="none" stroke="black" points="94.5,-912.5 94.5,-931.5 219.5,-931.5 219.5,-912.5 94.5,-912.5"/>
<text text-anchor="middle" x="157" y="-919.5" font-family="Helvetica,sans-Serif" font-size="10.00">AnimatedAppComponent</text>
</a>
</g>
</g>
<!-- Node1&#45;&gt;Node2 -->
<g id="edge1" class="edge"><title>Node1&#45;&gt;Node2</title>
<path fill="none" stroke="#8b1a1a" d="M21.6803,-486.068C20.8708,-563.33 21.9842,-840.363 78,-903 82.5526,-908.091 88.22,-911.929 94.4088,-914.807"/>
<polygon fill="#8b1a1a" stroke="#8b1a1a" points="25.1833,-485.849 21.813,-475.805 18.1839,-485.759 25.1833,-485.849"/>
</g>
<!-- Node3 -->
<g id="node3" class="node"><title>Node3</title>
<g id="a_node3"><a xlink:href="classAnimatedPosition.html" target="_top" xlink:title="Models a 1&#45;dimensional position that can be dragged around by the user, and which will then continue ...">
<polygon fill="none" stroke="black" points="79.5,-874.5 79.5,-893.5 234.5,-893.5 234.5,-874.5 79.5,-874.5"/>
<text text-anchor="middle" x="157" y="-881.5" font-family="Helvetica,sans-Serif" font-size="10.00">AnimatedPosition&lt; Behaviour &gt;</text>
</a>
</g>
</g>
<!-- Node1&#45;&gt;Node3 -->
<g id="edge2" class="edge"><title>Node1&#45;&gt;Node3</title>
<path fill="none" stroke="#8b1a1a" d="M21.9522,-485.708C22.1877,-558.146 26.759,-808.389 78,-865 81.4607,-868.823 85.5503,-871.938 90.0149,-874.47"/>
<polygon fill="#8b1a1a" stroke="#8b1a1a" points="25.4522,-485.663 21.9451,-475.665 18.4522,-485.668 25.4522,-485.663"/>
</g>
<!-- Node4 -->
<g id="node4" class="node"><title>Node4</title>
<g id="a_node4"><a xlink:href="classAudioDeviceSelectorComponent.html" target="_top" xlink:title="A component containing controls to let the user change the audio settings of an AudioDeviceManager ob...">
<polygon fill="none" stroke="black" points="78,-836.5 78,-855.5 236,-855.5 236,-836.5 78,-836.5"/>
<text text-anchor="middle" x="157" y="-843.5" font-family="Helvetica,sans-Serif" font-size="10.00">AudioDeviceSelectorComponent</text>
</a>
</g>
</g>
<!-- Node1&#45;&gt;Node4 -->
<g id="edge3" class="edge"><title>Node1&#45;&gt;Node4</title>
<path fill="none" stroke="#8b1a1a" d="M22.2808,-485.987C23.6537,-554.225 31.667,-776.549 78,-827 81.4882,-830.798 85.5975,-833.895 90.0754,-836.415"/>
<polygon fill="#8b1a1a" stroke="#8b1a1a" points="25.7763,-485.692 22.103,-475.755 18.7773,-485.814 25.7763,-485.692"/>
</g>
<!-- Node5 -->
<g id="node5" class="node"><title>Node5</title>
<g id="a_node5"><a xlink:href="classAudioProcessorValueTreeState.html" target="_top" xlink:title="This class contains a ValueTree which is used to manage an AudioProcessor&#39;s entire state...">
<polygon fill="none" stroke="black" points="80.5,-798.5 80.5,-817.5 233.5,-817.5 233.5,-798.5 80.5,-798.5"/>
<text text-anchor="middle" x="157" y="-805.5" font-family="Helvetica,sans-Serif" font-size="10.00">AudioProcessorValueTreeState</text>
</a>
</g>
</g>
<!-- Node1&#45;&gt;Node5 -->
<g id="edge4" class="edge"><title>Node1&#45;&gt;Node5</title>
<path fill="none" stroke="#8b1a1a" d="M22.68,-485.904C25.2531,-549.244 36.4703,-744.578 78,-789 81.5218,-792.767 85.655,-795.842 90.1492,-798.346"/>
<polygon fill="#8b1a1a" stroke="#8b1a1a" points="26.1688,-485.54 22.2948,-475.679 19.1738,-485.804 26.1688,-485.54"/>
</g>
<!-- Node6 -->
<g id="node6" class="node"><title>Node6</title>
<g id="a_node6"><a xlink:href="classAudioVisualiserComponent.html" target="_top" xlink:title="A simple component that can be used to show a scrolling waveform of audio data. ">
<polygon fill="none" stroke="black" points="90,-760.5 90,-779.5 224,-779.5 224,-760.5 90,-760.5"/>
<text text-anchor="middle" x="157" y="-767.5" font-family="Helvetica,sans-Serif" font-size="10.00">AudioVisualiserComponent</text>
</a>
</g>
</g>
<!-- Node1&#45;&gt;Node6 -->
<g id="edge5" class="edge"><title>Node1&#45;&gt;Node6</title>
<path fill="none" stroke="#8b1a1a" d="M23.1783,-485.81C27.0411,-543.971 41.248,-712.559 78,-751 81.66,-754.828 85.9521,-757.939 90.6079,-760.46"/>
<polygon fill="#8b1a1a" stroke="#8b1a1a" points="26.6646,-485.481 22.5401,-475.722 19.6785,-485.923 26.6646,-485.481"/>
</g>
<!-- Node7 -->
<g id="node7" class="node"><title>Node7</title>
<g id="a_node7"><a xlink:href="classBubbleMessageComponent.html" target="_top" xlink:title="A speech&#45;bubble component that displays a short message. ">
<polygon fill="none" stroke="black" points="88.5,-722.5 88.5,-741.5 225.5,-741.5 225.5,-722.5 88.5,-722.5"/>
<text text-anchor="middle" x="157" y="-729.5" font-family="Helvetica,sans-Serif" font-size="10.00">BubbleMessageComponent</text>
</a>
</g>
</g>
<!-- Node1&#45;&gt;Node7 -->
<g id="edge6" class="edge"><title>Node1&#45;&gt;Node7</title>
<path fill="none" stroke="#8b1a1a" d="M23.8034,-485.542C29.0425,-538.054 45.9618,-680.446 78,-713 81.715,-716.775 86.0457,-719.848 90.7276,-722.344"/>
<polygon fill="#8b1a1a" stroke="#8b1a1a" points="27.2802,-485.131 22.8374,-475.513 20.3124,-485.803 27.2802,-485.131"/>
</g>
<!-- Node8 -->
<g id="node8" class="node"><title>Node8</title>
<g id="a_node8"><a xlink:href="classCallOutBox.html" target="_top" xlink:title="A box with a small arrow that can be used as a temporary pop&#45;up window to show extra controls when a ...">
<polygon fill="none" stroke="black" points="123.5,-684.5 123.5,-703.5 190.5,-703.5 190.5,-684.5 123.5,-684.5"/>
<text text-anchor="middle" x="157" y="-691.5" font-family="Helvetica,sans-Serif" font-size="10.00">CallOutBox</text>
</a>
</g>
</g>
<!-- Node1&#45;&gt;Node8 -->
<g id="edge7" class="edge"><title>Node1&#45;&gt;Node8</title>
<path fill="none" stroke="#8b1a1a" d="M21.124,-485.669C20.4239,-526.966 24.9603,-623.159 78,-675 89.9609,-686.691 107.847,-691.596 123.476,-693.509"/>
<polygon fill="#8b1a1a" stroke="#8b1a1a" points="24.6257,-485.659 21.4243,-475.559 17.6288,-485.451 24.6257,-485.659"/>
</g>
<!-- Node9 -->
<g id="node9" class="node"><title>Node9</title>
<g id="a_node9"><a xlink:href="classCaretComponent.html" target="_top" xlink:title="CaretComponent">
<polygon fill="none" stroke="black" points="111.5,-646.5 111.5,-665.5 202.5,-665.5 202.5,-646.5 111.5,-646.5"/>
<text text-anchor="middle" x="157" y="-653.5" font-family="Helvetica,sans-Serif" font-size="10.00">CaretComponent</text>
</a>
</g>
</g>
<!-- Node1&#45;&gt;Node9 -->
<g id="edge8" class="edge"><title>Node1&#45;&gt;Node9</title>
<path fill="none" stroke="#8b1a1a" d="M22.5472,-485.976C24.6494,-521.71 34.3447,-596.605 78,-637 87.1047,-645.425 99.3062,-650.288 111.351,-653.048"/>
<polygon fill="#8b1a1a" stroke="#8b1a1a" points="26.0375,-485.679 22.098,-475.844 19.0444,-485.989 26.0375,-485.679"/>
</g>
<!-- Node10 -->
<g id="node10" class="node"><title>Node10</title>
<g id="a_node10"><a xlink:href="classComponentAnimator.html" target="_top" xlink:title="Animates a set of components, moving them to a new position and/or fading their alpha levels...">
<polygon fill="none" stroke="black" points="104,-608.5 104,-627.5 210,-627.5 210,-608.5 104,-608.5"/>
<text text-anchor="middle" x="157" y="-615.5" font-family="Helvetica,sans-Serif" font-size="10.00">ComponentAnimator</text>
</a>
</g>
</g>
<!-- Node1&#45;&gt;Node10 -->
<g id="edge9" class="edge"><title>Node1&#45;&gt;Node10</title>
<path fill="none" stroke="#8b1a1a" d="M24.7168,-485.997C29.7835,-515.297 43.4855,-569.597 78,-599 85.3206,-605.237 94.3614,-609.492 103.663,-612.38"/>
<polygon fill="#8b1a1a" stroke="#8b1a1a" points="28.1212,-485.111 23.1271,-475.767 21.2042,-486.186 28.1212,-485.111"/>
</g>
<!-- Node11 -->
<g id="node11" class="node"><title>Node11</title>
<g id="a_node11"><a xlink:href="classDesktop.html" target="_top" xlink:title="Describes and controls aspects of the computer&#39;s desktop. ">
<polygon fill="none" stroke="black" points="130.5,-570.5 130.5,-589.5 183.5,-589.5 183.5,-570.5 130.5,-570.5"/>
<text text-anchor="middle" x="157" y="-577.5" font-family="Helvetica,sans-Serif" font-size="10.00">Desktop</text>
</a>
</g>
</g>
<!-- Node1&#45;&gt;Node11 -->
<g id="edge10" class="edge"><title>Node1&#45;&gt;Node11</title>
<path fill="none" stroke="#8b1a1a" d="M28.0847,-484.994C36.0435,-506.725 52.1061,-541.779 78,-561 93.1084,-572.215 113.973,-576.885 130.322,-578.795"/>
<polygon fill="#8b1a1a" stroke="#8b1a1a" points="31.3884,-483.838 24.8211,-475.524 24.7703,-486.118 31.3884,-483.838"/>
</g>
<!-- Node12 -->
<g id="node12" class="node"><title>Node12</title>
<g id="a_node12"><a xlink:href="classFakeMouseMoveGenerator.html" target="_top" xlink:title="FakeMouseMoveGenerator">
<polygon fill="none" stroke="black" points="90,-532.5 90,-551.5 224,-551.5 224,-532.5 90,-532.5"/>
<text text-anchor="middle" x="157" y="-539.5" font-family="Helvetica,sans-Serif" font-size="10.00">FakeMouseMoveGenerator</text>
</a>
</g>
</g>
<!-- Node1&#45;&gt;Node12 -->
<g id="edge11" class="edge"><title>Node1&#45;&gt;Node12</title>
<path fill="none" stroke="#8b1a1a" d="M35.0182,-483.786C45.2987,-496.564 60.7509,-513.202 78,-523 84.7866,-526.855 92.3364,-529.933 99.9909,-532.389"/>
<polygon fill="#8b1a1a" stroke="#8b1a1a" points="37.6489,-481.466 28.7686,-475.687 32.107,-485.742 37.6489,-481.466"/>
</g>
<!-- Node13 -->
<g id="node13" class="node"><title>Node13</title>
<g id="a_node13"><a xlink:href="classFileBrowserComponent.html" target="_top" xlink:title="A component for browsing and selecting a file or directory to open or save. ">
<polygon fill="none" stroke="black" points="97.5,-494.5 97.5,-513.5 216.5,-513.5 216.5,-494.5 97.5,-494.5"/>
<text text-anchor="middle" x="157" y="-501.5" font-family="Helvetica,sans-Serif" font-size="10.00">FileBrowserComponent</text>
</a>
</g>
</g>
<!-- Node1&#45;&gt;Node13 -->
<g id="edge12" class="edge"><title>Node1&#45;&gt;Node13</title>
<path fill="none" stroke="#8b1a1a" d="M51.1637,-476.438C59.7581,-479.366 69.2139,-482.445 78,-485 89.5095,-488.347 102.089,-491.59 113.72,-494.42"/>
<polygon fill="#8b1a1a" stroke="#8b1a1a" points="52.1568,-473.078 41.562,-473.11 49.8644,-479.692 52.1568,-473.078"/>
</g>
<!-- Node14 -->
<g id="node14" class="node"><title>Node14</title>
<g id="a_node14"><a xlink:href="classImagePreviewComponent.html" target="_top" xlink:title="A simple preview component that shows thumbnails of image files. ">
<polygon fill="none" stroke="black" points="92.5,-456.5 92.5,-475.5 221.5,-475.5 221.5,-456.5 92.5,-456.5"/>
<text text-anchor="middle" x="157" y="-463.5" font-family="Helvetica,sans-Serif" font-size="10.00">ImagePreviewComponent</text>
</a>
</g>
</g>
<!-- Node1&#45;&gt;Node14 -->
<g id="edge13" class="edge"><title>Node1&#45;&gt;Node14</title>
<path fill="none" stroke="#8b1a1a" d="M52.0249,-466C63.9643,-466 78.1845,-466 92.2162,-466"/>
<polygon fill="#8b1a1a" stroke="#8b1a1a" points="51.7722,-462.5 41.7722,-466 51.7721,-469.5 51.7722,-462.5"/>
</g>
<!-- Node15 -->
<g id="node15" class="node"><title>Node15</title>
<g id="a_node15"><a xlink:href="classJUCESplashScreen.html" target="_top" xlink:title="The standard JUCE splash screen component. ">
<polygon fill="none" stroke="black" points="105,-418.5 105,-437.5 209,-437.5 209,-418.5 105,-418.5"/>
<text text-anchor="middle" x="157" y="-425.5" font-family="Helvetica,sans-Serif" font-size="10.00">JUCESplashScreen</text>
</a>
</g>
</g>
<!-- Node1&#45;&gt;Node15 -->
<g id="edge14" class="edge"><title>Node1&#45;&gt;Node15</title>
<path fill="none" stroke="#8b1a1a" d="M51.1637,-455.562C59.7581,-452.634 69.2139,-449.555 78,-447 89.5095,-443.653 102.089,-440.41 113.72,-437.58"/>
<polygon fill="#8b1a1a" stroke="#8b1a1a" points="49.8644,-452.308 41.562,-458.89 52.1568,-458.922 49.8644,-452.308"/>
</g>
<!-- Node16 -->
<g id="node16" class="node"><title>Node16</title>
<g id="a_node16"><a xlink:href="classMenuBarComponent.html" target="_top" xlink:title="A menu bar component. ">
<polygon fill="none" stroke="black" points="104,-380.5 104,-399.5 210,-399.5 210,-380.5 104,-380.5"/>
<text text-anchor="middle" x="157" y="-387.5" font-family="Helvetica,sans-Serif" font-size="10.00">MenuBarComponent</text>
</a>
</g>
</g>
<!-- Node1&#45;&gt;Node16 -->
<g id="edge15" class="edge"><title>Node1&#45;&gt;Node16</title>
<path fill="none" stroke="#8b1a1a" d="M35.0182,-448.214C45.2987,-435.436 60.7509,-418.798 78,-409 85.8773,-404.525 94.7829,-401.098 103.687,-398.475"/>
<polygon fill="#8b1a1a" stroke="#8b1a1a" points="32.107,-446.258 28.7686,-456.313 37.6489,-450.534 32.107,-446.258"/>
</g>
<!-- Node17 -->
<g id="node17" class="node"><title>Node17</title>
<g id="a_node17"><a xlink:href="classMidiKeyboardComponent.html" target="_top" xlink:title="A component that displays a piano keyboard, whose notes can be clicked on. ">
<polygon fill="none" stroke="black" points="94,-342.5 94,-361.5 220,-361.5 220,-342.5 94,-342.5"/>
<text text-anchor="middle" x="157" y="-349.5" font-family="Helvetica,sans-Serif" font-size="10.00">MidiKeyboardComponent</text>
</a>
</g>
</g>
<!-- Node1&#45;&gt;Node17 -->
<g id="edge16" class="edge"><title>Node1&#45;&gt;Node17</title>
<path fill="none" stroke="#8b1a1a" d="M28.0847,-447.006C36.0435,-425.275 52.1061,-390.221 78,-371 83.26,-367.096 89.2177,-363.984 95.4396,-361.507"/>
<polygon fill="#8b1a1a" stroke="#8b1a1a" points="24.7703,-445.882 24.8211,-456.476 31.3884,-448.162 24.7703,-445.882"/>
</g>
<!-- Node18 -->
<g id="node18" class="node"><title>Node18</title>
<g id="a_node18"><a xlink:href="classMouseInactivityDetector.html" target="_top" xlink:title="This object watches for mouse&#45;events happening within a component, and if the mouse remains still for...">
<polygon fill="none" stroke="black" points="95.5,-304.5 95.5,-323.5 218.5,-323.5 218.5,-304.5 95.5,-304.5"/>
<text text-anchor="middle" x="157" y="-311.5" font-family="Helvetica,sans-Serif" font-size="10.00">MouseInactivityDetector</text>
</a>
</g>
</g>
<!-- Node1&#45;&gt;Node18 -->
<g id="edge17" class="edge"><title>Node1&#45;&gt;Node18</title>
<path fill="none" stroke="#8b1a1a" d="M24.7168,-446.003C29.7835,-416.703 43.4855,-362.403 78,-333 83.0926,-328.662 89.0177,-325.282 95.284,-322.654"/>
<polygon fill="#8b1a1a" stroke="#8b1a1a" points="21.2042,-445.814 23.1271,-456.233 28.1212,-446.889 21.2042,-445.814"/>
</g>
<!-- Node19 -->
<g id="node19" class="node"><title>Node19</title>
<g id="a_node19"><a xlink:href="classProgressBar.html" target="_top" xlink:title="A progress bar component. ">
<polygon fill="none" stroke="black" points="121.5,-266.5 121.5,-285.5 192.5,-285.5 192.5,-266.5 121.5,-266.5"/>
<text text-anchor="middle" x="157" y="-273.5" font-family="Helvetica,sans-Serif" font-size="10.00">ProgressBar</text>
</a>
</g>
</g>
<!-- Node1&#45;&gt;Node19 -->
<g id="edge18" class="edge"><title>Node1&#45;&gt;Node19</title>
<path fill="none" stroke="#8b1a1a" d="M22.5472,-446.024C24.6494,-410.29 34.3447,-335.395 78,-295 89.6622,-284.209 106.405,-279.261 121.392,-277.092"/>
<polygon fill="#8b1a1a" stroke="#8b1a1a" points="19.0444,-446.011 22.098,-456.156 26.0375,-446.321 19.0444,-446.011"/>
</g>
<!-- Node20 -->
<g id="node20" class="node"><title>Node20</title>
<g id="a_node20"><a xlink:href="classPropertiesFile.html" target="_top" xlink:title="Wrapper on a file that stores a list of key/value data pairs. ">
<polygon fill="none" stroke="black" points="118.5,-228.5 118.5,-247.5 195.5,-247.5 195.5,-228.5 118.5,-228.5"/>
<text text-anchor="middle" x="157" y="-235.5" font-family="Helvetica,sans-Serif" font-size="10.00">PropertiesFile</text>
</a>
</g>
</g>
<!-- Node1&#45;&gt;Node20 -->
<g id="edge19" class="edge"><title>Node1&#45;&gt;Node20</title>
<path fill="none" stroke="#8b1a1a" d="M21.124,-446.331C20.4239,-405.034 24.9603,-308.841 78,-257 88.6651,-246.576 104.041,-241.546 118.327,-239.223"/>
<polygon fill="#8b1a1a" stroke="#8b1a1a" points="17.6288,-446.549 21.4243,-456.441 24.6257,-446.341 17.6288,-446.549"/>
</g>
<!-- Node21 -->
<g id="node21" class="node"><title>Node21</title>
<g id="a_node21"><a xlink:href="classScrollBar.html" target="_top" xlink:title="A scrollbar component. ">
<polygon fill="none" stroke="black" points="129,-190.5 129,-209.5 185,-209.5 185,-190.5 129,-190.5"/>
<text text-anchor="middle" x="157" y="-197.5" font-family="Helvetica,sans-Serif" font-size="10.00">ScrollBar</text>
</a>
</g>
</g>
<!-- Node1&#45;&gt;Node21 -->
<g id="edge20" class="edge"><title>Node1&#45;&gt;Node21</title>
<path fill="none" stroke="#8b1a1a" d="M23.8034,-446.458C29.0425,-393.946 45.9618,-251.554 78,-219 91.1003,-205.689 111.857,-201.107 128.666,-199.763"/>
<polygon fill="#8b1a1a" stroke="#8b1a1a" points="20.3124,-446.197 22.8374,-456.487 27.2802,-446.869 20.3124,-446.197"/>
</g>
<!-- Node22 -->
<g id="node22" class="node"><title>Node22</title>
<g id="a_node22"><a xlink:href="classSplashScreen.html" target="_top" xlink:title="A component for showing a splash screen while your app starts up. ">
<polygon fill="none" stroke="black" points="118.5,-152.5 118.5,-171.5 195.5,-171.5 195.5,-152.5 118.5,-152.5"/>
<text text-anchor="middle" x="157" y="-159.5" font-family="Helvetica,sans-Serif" font-size="10.00">SplashScreen</text>
</a>
</g>
</g>
<!-- Node1&#45;&gt;Node22 -->
<g id="edge21" class="edge"><title>Node1&#45;&gt;Node22</title>
<path fill="none" stroke="#8b1a1a" d="M23.1783,-446.19C27.0411,-388.029 41.248,-219.441 78,-181 88.4021,-170.12 103.91,-165.038 118.364,-162.799"/>
<polygon fill="#8b1a1a" stroke="#8b1a1a" points="19.6785,-446.077 22.5401,-456.278 26.6646,-446.519 19.6785,-446.077"/>
</g>
<!-- Node23 -->
<g id="node23" class="node"><title>Node23</title>
<g id="a_node23"><a xlink:href="classStandalonePluginHolder.html" target="_top" xlink:title="An object that creates and plays a standalone instance of an AudioProcessor. ">
<polygon fill="none" stroke="black" points="96.5,-114.5 96.5,-133.5 217.5,-133.5 217.5,-114.5 96.5,-114.5"/>
<text text-anchor="middle" x="157" y="-121.5" font-family="Helvetica,sans-Serif" font-size="10.00">StandalonePluginHolder</text>
</a>
</g>
</g>
<!-- Node1&#45;&gt;Node23 -->
<g id="edge22" class="edge"><title>Node1&#45;&gt;Node23</title>
<path fill="none" stroke="#8b1a1a" d="M22.68,-446.096C25.2531,-382.756 36.4703,-187.422 78,-143 83.0448,-137.604 89.3439,-133.628 96.1618,-130.715"/>
<polygon fill="#8b1a1a" stroke="#8b1a1a" points="19.1738,-446.196 22.2948,-456.321 26.1688,-446.46 19.1738,-446.196"/>
</g>
<!-- Node24 -->
<g id="node24" class="node"><title>Node24</title>
<g id="a_node24"><a xlink:href="classThreadWithProgressWindow.html" target="_top" xlink:title="A thread that automatically pops up a modal dialog box with a progress bar and cancel button while it...">
<polygon fill="none" stroke="black" points="86.5,-76.5 86.5,-95.5 227.5,-95.5 227.5,-76.5 86.5,-76.5"/>
<text text-anchor="middle" x="157" y="-83.5" font-family="Helvetica,sans-Serif" font-size="10.00">ThreadWithProgressWindow</text>
</a>
</g>
</g>
<!-- Node1&#45;&gt;Node24 -->
<g id="edge23" class="edge"><title>Node1&#45;&gt;Node24</title>
<path fill="none" stroke="#8b1a1a" d="M22.2808,-446.013C23.6537,-377.775 31.667,-155.451 78,-105 81.4882,-101.202 85.5975,-98.1046 90.0754,-95.5852"/>
<polygon fill="#8b1a1a" stroke="#8b1a1a" points="18.7773,-446.186 22.103,-456.245 25.7763,-446.308 18.7773,-446.186"/>
</g>
<!-- Node25 -->
<g id="node25" class="node"><title>Node25</title>
<g id="a_node25"><a xlink:href="classTooltipWindow.html" target="_top" xlink:title="A window that displays a pop&#45;up tooltip when the mouse hovers over another component. ">
<polygon fill="none" stroke="black" points="116.5,-38.5 116.5,-57.5 197.5,-57.5 197.5,-38.5 116.5,-38.5"/>
<text text-anchor="middle" x="157" y="-45.5" font-family="Helvetica,sans-Serif" font-size="10.00">TooltipWindow</text>
</a>
</g>
</g>
<!-- Node1&#45;&gt;Node25 -->
<g id="edge24" class="edge"><title>Node1&#45;&gt;Node25</title>
<path fill="none" stroke="#8b1a1a" d="M21.9522,-446.292C22.1877,-373.854 26.759,-123.611 78,-67 87.7272,-56.2534 102.424,-51.1026 116.447,-48.7748"/>
<polygon fill="#8b1a1a" stroke="#8b1a1a" points="18.4522,-446.332 21.9451,-456.335 25.4522,-446.337 18.4522,-446.332"/>
</g>
<!-- Node26 -->
<g id="node26" class="node"><title>Node26</title>
<g id="a_node26"><a xlink:href="classVideoComponent.html" target="_top" xlink:title="A component that can play a movie. ">
<polygon fill="none" stroke="black" points="111,-0.5 111,-19.5 203,-19.5 203,-0.5 111,-0.5"/>
<text text-anchor="middle" x="157" y="-7.5" font-family="Helvetica,sans-Serif" font-size="10.00">VideoComponent</text>
</a>
</g>
</g>
<!-- Node1&#45;&gt;Node26 -->
<g id="edge25" class="edge"><title>Node1&#45;&gt;Node26</title>
<path fill="none" stroke="#8b1a1a" d="M21.6803,-445.932C20.8708,-368.67 21.9842,-91.6366 78,-29 86.3619,-19.6498 98.4849,-14.5256 110.691,-11.8117"/>
<polygon fill="#8b1a1a" stroke="#8b1a1a" points="18.1839,-446.241 21.813,-456.195 25.1833,-446.151 18.1839,-446.241"/>
</g>
</g>
</svg>
