<?xml version="1.0" encoding="UTF-8" standalone="no"?>
<!DOCTYPE svg PUBLIC "-//W3C//DTD SVG 1.1//EN"
 "http://www.w3.org/Graphics/SVG/1.1/DTD/svg11.dtd">
<!-- Generated by graphviz version 2.36.0 (20140111.2315)
 -->
<!-- Title: ButtonPropertyComponent Pages: 1 -->
<svg width="256pt" height="196pt"
 viewBox="0.00 0.00 256.00 196.00" xmlns="http://www.w3.org/2000/svg" xmlns:xlink="http://www.w3.org/1999/xlink">
<g id="graph0" class="graph" transform="scale(1 1) rotate(0) translate(4 192)">
<title>ButtonPropertyComponent</title>
<!-- Node1 -->
<g id="node1" class="node"><title>Node1</title>
<polygon fill="#bfbfbf" stroke="black" points="82,-0.5 82,-19.5 214,-19.5 214,-0.5 82,-0.5"/>
<text text-anchor="middle" x="148" y="-7.5" font-family="Helvetica,sans-Serif" font-size="10.00">ButtonPropertyComponent</text>
</g>
<!-- Node2 -->
<g id="node2" class="node"><title>Node2</title>
<g id="a_node2"><a xlink:href="classPropertyComponent.html" target="_top" xlink:title="A base class for a component that goes in a PropertyPanel and displays one of an item&#39;s properties...">
<polygon fill="none" stroke="black" points="40,-56.5 40,-75.5 144,-75.5 144,-56.5 40,-56.5"/>
<text text-anchor="middle" x="92" y="-63.5" font-family="Helvetica,sans-Serif" font-size="10.00">PropertyComponent</text>
</a>
</g>
</g>
<!-- Node2&#45;&gt;Node1 -->
<g id="edge1" class="edge"><title>Node2&#45;&gt;Node1</title>
<path fill="none" stroke="midnightblue" d="M108.33,-49.2533C118.265,-39.6731 130.588,-27.7906 138.839,-19.8339"/>
<polygon fill="midnightblue" stroke="midnightblue" points="105.766,-46.8631 100.997,-56.324 110.625,-51.902 105.766,-46.8631"/>
</g>
<!-- Node3 -->
<g id="node3" class="node"><title>Node3</title>
<g id="a_node3"><a xlink:href="classComponent.html" target="_top" xlink:title="The base class for all JUCE user&#45;interface objects. ">
<polygon fill="none" stroke="black" points="6.5,-112.5 6.5,-131.5 73.5,-131.5 73.5,-112.5 6.5,-112.5"/>
<text text-anchor="middle" x="40" y="-119.5" font-family="Helvetica,sans-Serif" font-size="10.00">Component</text>
</a>
</g>
</g>
<!-- Node3&#45;&gt;Node2 -->
<g id="edge2" class="edge"><title>Node3&#45;&gt;Node2</title>
<path fill="none" stroke="midnightblue" d="M55.6794,-104.718C64.8447,-95.1997 76.0526,-83.5608 83.573,-75.7511"/>
<polygon fill="midnightblue" stroke="midnightblue" points="53.0021,-102.452 48.5867,-112.083 58.0443,-107.308 53.0021,-102.452"/>
</g>
<!-- Node4 -->
<g id="node4" class="node"><title>Node4</title>
<g id="a_node4"><a xlink:href="classMouseListener.html" target="_top" xlink:title="A MouseListener can be registered with a component to receive callbacks about mouse events that happe...">
<polygon fill="none" stroke="black" points="0,-168.5 0,-187.5 80,-187.5 80,-168.5 0,-168.5"/>
<text text-anchor="middle" x="40" y="-175.5" font-family="Helvetica,sans-Serif" font-size="10.00">MouseListener</text>
</a>
</g>
</g>
<!-- Node4&#45;&gt;Node3 -->
<g id="edge3" class="edge"><title>Node4&#45;&gt;Node3</title>
<path fill="none" stroke="midnightblue" d="M40,-157.805C40,-148.91 40,-138.78 40,-131.751"/>
<polygon fill="midnightblue" stroke="midnightblue" points="36.5001,-158.083 40,-168.083 43.5001,-158.083 36.5001,-158.083"/>
</g>
<!-- Node5 -->
<g id="node5" class="node"><title>Node5</title>
<g id="a_node5"><a xlink:href="classSettableTooltipClient.html" target="_top" xlink:title="An implementation of TooltipClient that stores the tooltip string and a method for changing it...">
<polygon fill="none" stroke="black" points="91.5,-112.5 91.5,-131.5 198.5,-131.5 198.5,-112.5 91.5,-112.5"/>
<text text-anchor="middle" x="145" y="-119.5" font-family="Helvetica,sans-Serif" font-size="10.00">SettableTooltipClient</text>
</a>
</g>
</g>
<!-- Node5&#45;&gt;Node2 -->
<g id="edge4" class="edge"><title>Node5&#45;&gt;Node2</title>
<path fill="none" stroke="midnightblue" d="M129.019,-104.718C119.678,-95.1997 108.254,-83.5608 100.589,-75.7511"/>
<polygon fill="midnightblue" stroke="midnightblue" points="126.746,-107.398 136.248,-112.083 131.741,-102.494 126.746,-107.398"/>
</g>
<!-- Node6 -->
<g id="node6" class="node"><title>Node6</title>
<g id="a_node6"><a xlink:href="classTooltipClient.html" target="_top" xlink:title="Components that want to use pop&#45;up tooltips should implement this interface. ">
<polygon fill="none" stroke="black" points="109.5,-168.5 109.5,-187.5 180.5,-187.5 180.5,-168.5 109.5,-168.5"/>
<text text-anchor="middle" x="145" y="-175.5" font-family="Helvetica,sans-Serif" font-size="10.00">TooltipClient</text>
</a>
</g>
</g>
<!-- Node6&#45;&gt;Node5 -->
<g id="edge5" class="edge"><title>Node6&#45;&gt;Node5</title>
<path fill="none" stroke="midnightblue" d="M145,-157.805C145,-148.91 145,-138.78 145,-131.751"/>
<polygon fill="midnightblue" stroke="midnightblue" points="141.5,-158.083 145,-168.083 148.5,-158.083 141.5,-158.083"/>
</g>
<!-- Node7 -->
<g id="node7" class="node"><title>Node7</title>
<g id="a_node7"><a xlink:href="classButton_1_1Listener.html" target="_top" xlink:title="Used to receive callbacks when a button is clicked. ">
<polygon fill="none" stroke="black" points="162,-56.5 162,-75.5 248,-75.5 248,-56.5 162,-56.5"/>
<text text-anchor="middle" x="205" y="-63.5" font-family="Helvetica,sans-Serif" font-size="10.00">Button::Listener</text>
</a>
</g>
</g>
<!-- Node7&#45;&gt;Node1 -->
<g id="edge6" class="edge"><title>Node7&#45;&gt;Node1</title>
<path fill="none" stroke="#8b1a1a" d="M188.379,-49.2533C178.266,-39.6731 165.723,-27.7906 157.325,-19.8339"/>
<polygon fill="#8b1a1a" stroke="#8b1a1a" points="186.175,-51.9873 195.842,-56.324 190.99,-46.9056 186.175,-51.9873"/>
</g>
</g>
</svg>
