<?xml version="1.0" encoding="UTF-8" standalone="no"?>
<!DOCTYPE svg PUBLIC "-//W3C//DTD SVG 1.1//EN"
 "http://www.w3.org/Graphics/SVG/1.1/DTD/svg11.dtd">
<!-- Generated by graphviz version 2.36.0 (20140111.2315)
 -->
<!-- Title: juce::DragAndDropContainer Pages: 1 -->
<svg width="221pt" height="84pt"
 viewBox="0.00 0.00 221.00 84.00" xmlns="http://www.w3.org/2000/svg" xmlns:xlink="http://www.w3.org/1999/xlink">
<g id="graph0" class="graph" transform="scale(1 1) rotate(0) translate(4 80)">
<title>juce::DragAndDropContainer</title>
<!-- Node1 -->
<g id="node1" class="node"><title>Node1</title>
<polygon fill="#bfbfbf" stroke="black" points="23,-56.5 23,-75.5 165,-75.5 165,-56.5 23,-56.5"/>
<text text-anchor="middle" x="94" y="-63.5" font-family="Helvetica,sans-Serif" font-size="10.00">juce::DragAndDropContainer</text>
</g>
<!-- Node2 -->
<g id="node2" class="node"><title>Node2</title>
<g id="a_node2"><a xlink:href="classjuce_1_1Toolbar.html" target="_top" xlink:title="A toolbar component. ">
<polygon fill="none" stroke="black" points="-0.5,-0.5 -0.5,-19.5 72.5,-19.5 72.5,-0.5 -0.5,-0.5"/>
<text text-anchor="middle" x="36" y="-7.5" font-family="Helvetica,sans-Serif" font-size="10.00">juce::Toolbar</text>
</a>
</g>
</g>
<!-- Node1&#45;&gt;Node2 -->
<g id="edge1" class="edge"><title>Node1&#45;&gt;Node2</title>
<path fill="none" stroke="midnightblue" d="M77.0869,-49.2533C66.797,-39.6731 54.0343,-27.7906 45.4883,-19.8339"/>
<polygon fill="midnightblue" stroke="midnightblue" points="74.9774,-52.0714 84.6813,-56.324 79.7473,-46.9481 74.9774,-52.0714"/>
</g>
<!-- Node3 -->
<g id="node3" class="node"><title>Node3</title>
<g id="a_node3"><a xlink:href="classjuce_1_1ToolbarItemPalette.html" target="_top" xlink:title="A component containing a list of toolbar items, which the user can drag onto a toolbar to add them...">
<polygon fill="none" stroke="black" points="90.5,-0.5 90.5,-19.5 213.5,-19.5 213.5,-0.5 90.5,-0.5"/>
<text text-anchor="middle" x="152" y="-7.5" font-family="Helvetica,sans-Serif" font-size="10.00">juce::ToolbarItemPalette</text>
</a>
</g>
</g>
<!-- Node1&#45;&gt;Node3 -->
<g id="edge2" class="edge"><title>Node1&#45;&gt;Node3</title>
<path fill="none" stroke="midnightblue" d="M110.913,-49.2533C121.203,-39.6731 133.966,-27.7906 142.512,-19.8339"/>
<polygon fill="midnightblue" stroke="midnightblue" points="108.253,-46.9481 103.319,-56.324 113.023,-52.0714 108.253,-46.9481"/>
</g>
</g>
</svg>
