<?xml version="1.0" encoding="UTF-8" standalone="no"?>
<!DOCTYPE svg PUBLIC "-//W3C//DTD SVG 1.1//EN"
 "http://www.w3.org/Graphics/SVG/1.1/DTD/svg11.dtd">
<!-- Generated by graphviz version 2.36.0 (20140111.2315)
 -->
<!-- Title: juce::Desktop Pages: 1 -->
<svg width="340pt" height="84pt"
 viewBox="0.00 0.00 340.00 84.00" xmlns="http://www.w3.org/2000/svg" xmlns:xlink="http://www.w3.org/1999/xlink">
<g id="graph0" class="graph" transform="scale(1 1) rotate(0) translate(4 80)">
<title>juce::Desktop</title>
<!-- Node1 -->
<g id="node1" class="node"><title>Node1</title>
<polygon fill="#bfbfbf" stroke="black" points="140.5,-0.5 140.5,-19.5 217.5,-19.5 217.5,-0.5 140.5,-0.5"/>
<text text-anchor="middle" x="179" y="-7.5" font-family="Helvetica,sans-Serif" font-size="10.00">juce::Desktop</text>
</g>
<!-- Node2 -->
<g id="node2" class="node"><title>Node2</title>
<g id="a_node2"><a xlink:href="classjuce_1_1DeletedAtShutdown.html" target="_top" xlink:title="Classes derived from this will be automatically deleted when the application exits. ">
<polygon fill="none" stroke="black" points="0,-56.5 0,-75.5 128,-75.5 128,-56.5 0,-56.5"/>
<text text-anchor="middle" x="64" y="-63.5" font-family="Helvetica,sans-Serif" font-size="10.00">juce::DeletedAtShutdown</text>
</a>
</g>
</g>
<!-- Node2&#45;&gt;Node1 -->
<g id="edge1" class="edge"><title>Node2&#45;&gt;Node1</title>
<path fill="none" stroke="#8b1a1a" d="M91.4808,-52.096C112.966,-42.0073 142.222,-28.2697 160.863,-19.5164"/>
<polygon fill="#8b1a1a" stroke="#8b1a1a" points="89.7862,-49.025 82.2221,-56.4435 92.7615,-55.3612 89.7862,-49.025"/>
</g>
<!-- Node3 -->
<g id="node3" class="node"><title>Node3</title>
<g id="a_node3"><a xlink:href="classjuce_1_1Timer.html" target="_top" xlink:title="Makes repeated callbacks to a virtual method at a specified time interval. ">
<polygon fill="none" stroke="black" points="146.5,-56.5 146.5,-75.5 211.5,-75.5 211.5,-56.5 146.5,-56.5"/>
<text text-anchor="middle" x="179" y="-63.5" font-family="Helvetica,sans-Serif" font-size="10.00">juce::Timer</text>
</a>
</g>
</g>
<!-- Node3&#45;&gt;Node1 -->
<g id="edge2" class="edge"><title>Node3&#45;&gt;Node1</title>
<path fill="none" stroke="#8b1a1a" d="M179,-45.8045C179,-36.9102 179,-26.7798 179,-19.7511"/>
<polygon fill="#8b1a1a" stroke="#8b1a1a" points="175.5,-46.083 179,-56.083 182.5,-46.083 175.5,-46.083"/>
</g>
<!-- Node4 -->
<g id="node4" class="node"><title>Node4</title>
<g id="a_node4"><a xlink:href="classjuce_1_1AsyncUpdater.html" target="_top" xlink:title="Has a callback method that is triggered asynchronously. ">
<polygon fill="none" stroke="black" points="229.5,-56.5 229.5,-75.5 332.5,-75.5 332.5,-56.5 229.5,-56.5"/>
<text text-anchor="middle" x="281" y="-63.5" font-family="Helvetica,sans-Serif" font-size="10.00">juce::AsyncUpdater</text>
</a>
</g>
</g>
<!-- Node4&#45;&gt;Node1 -->
<g id="edge3" class="edge"><title>Node4&#45;&gt;Node1</title>
<path fill="none" stroke="#8b1a1a" d="M255.669,-51.5895C236.81,-41.6052 211.616,-28.2672 195.347,-19.6545"/>
<polygon fill="#8b1a1a" stroke="#8b1a1a" points="254.136,-54.7383 264.612,-56.324 257.412,-48.5518 254.136,-54.7383"/>
</g>
</g>
</svg>
