<?xml version="1.0" encoding="UTF-8" standalone="no"?>
<!DOCTYPE svg PUBLIC "-//W3C//DTD SVG 1.1//EN"
 "http://www.w3.org/Graphics/SVG/1.1/DTD/svg11.dtd">
<!-- Generated by graphviz version 2.36.0 (20140111.2315)
 -->
<!-- Title: juce::SystemTrayIconComponent Pages: 1 -->
<svg width="170pt" height="140pt"
 viewBox="0.00 0.00 170.00 140.00" xmlns="http://www.w3.org/2000/svg" xmlns:xlink="http://www.w3.org/1999/xlink">
<g id="graph0" class="graph" transform="scale(1 1) rotate(0) translate(4 136)">
<title>juce::SystemTrayIconComponent</title>
<!-- Node1 -->
<g id="node1" class="node"><title>Node1</title>
<polygon fill="#bfbfbf" stroke="black" points="-0.5,-0.5 -0.5,-19.5 162.5,-19.5 162.5,-0.5 -0.5,-0.5"/>
<text text-anchor="middle" x="81" y="-7.5" font-family="Helvetica,sans-Serif" font-size="10.00">juce::SystemTrayIconComponent</text>
</g>
<!-- Node2 -->
<g id="node2" class="node"><title>Node2</title>
<g id="a_node2"><a xlink:href="classjuce_1_1Component.html" target="_top" xlink:title="The base class for all JUCE user&#45;interface objects. ">
<polygon fill="none" stroke="black" points="35.5,-56.5 35.5,-75.5 126.5,-75.5 126.5,-56.5 35.5,-56.5"/>
<text text-anchor="middle" x="81" y="-63.5" font-family="Helvetica,sans-Serif" font-size="10.00">juce::Component</text>
</a>
</g>
</g>
<!-- Node2&#45;&gt;Node1 -->
<g id="edge1" class="edge"><title>Node2&#45;&gt;Node1</title>
<path fill="none" stroke="midnightblue" d="M81,-45.8045C81,-36.9102 81,-26.7798 81,-19.7511"/>
<polygon fill="midnightblue" stroke="midnightblue" points="77.5001,-46.083 81,-56.083 84.5001,-46.083 77.5001,-46.083"/>
</g>
<!-- Node3 -->
<g id="node3" class="node"><title>Node3</title>
<g id="a_node3"><a xlink:href="classjuce_1_1MouseListener.html" target="_top" xlink:title="A MouseListener can be registered with a component to receive callbacks about mouse events that happe...">
<polygon fill="none" stroke="black" points="29,-112.5 29,-131.5 133,-131.5 133,-112.5 29,-112.5"/>
<text text-anchor="middle" x="81" y="-119.5" font-family="Helvetica,sans-Serif" font-size="10.00">juce::MouseListener</text>
</a>
</g>
</g>
<!-- Node3&#45;&gt;Node2 -->
<g id="edge2" class="edge"><title>Node3&#45;&gt;Node2</title>
<path fill="none" stroke="midnightblue" d="M81,-101.805C81,-92.9102 81,-82.7798 81,-75.7511"/>
<polygon fill="midnightblue" stroke="midnightblue" points="77.5001,-102.083 81,-112.083 84.5001,-102.083 77.5001,-102.083"/>
</g>
</g>
</svg>
