<?xml version="1.0" encoding="UTF-8" standalone="no"?>
<!DOCTYPE svg PUBLIC "-//W3C//DTD SVG 1.1//EN"
 "http://www.w3.org/Graphics/SVG/1.1/DTD/svg11.dtd">
<!-- Generated by graphviz version 2.36.0 (20140111.2315)
 -->
<!-- Title: SettableTooltipClient Pages: 1 -->
<svg width="716pt" height="674pt"
 viewBox="0.00 0.00 716.00 674.00" xmlns="http://www.w3.org/2000/svg" xmlns:xlink="http://www.w3.org/1999/xlink">
<g id="graph0" class="graph" transform="scale(1 1) rotate(0) translate(4 670)">
<title>SettableTooltipClient</title>
<!-- Node1 -->
<g id="node1" class="node"><title>Node1</title>
<polygon fill="#bfbfbf" stroke="black" points="108.5,-256.5 108.5,-275.5 215.5,-275.5 215.5,-256.5 108.5,-256.5"/>
<text text-anchor="middle" x="162" y="-263.5" font-family="Helvetica,sans-Serif" font-size="10.00">SettableTooltipClient</text>
</g>
<!-- Node3 -->
<g id="node3" class="node"><title>Node3</title>
<g id="a_node3"><a xlink:href="classButton.html" target="_top" xlink:title="A base class for buttons. ">
<polygon fill="none" stroke="black" points="304.5,-475.5 304.5,-494.5 349.5,-494.5 349.5,-475.5 304.5,-475.5"/>
<text text-anchor="middle" x="327" y="-482.5" font-family="Helvetica,sans-Serif" font-size="10.00">Button</text>
</a>
</g>
</g>
<!-- Node1&#45;&gt;Node3 -->
<g id="edge2" class="edge"><title>Node1&#45;&gt;Node3</title>
<path fill="none" stroke="midnightblue" d="M167.079,-285.611C175.952,-323.596 200.481,-407.705 252,-456 266.496,-469.589 288.098,-477.066 304.225,-481.008"/>
<polygon fill="midnightblue" stroke="midnightblue" points="170.483,-284.793 164.898,-275.79 163.649,-286.311 170.483,-284.793"/>
</g>
<!-- Node14 -->
<g id="node14" class="node"><title>Node14</title>
<g id="a_node14"><a xlink:href="classComboBox.html" target="_top" xlink:title="A component that lets the user choose from a drop&#45;down list of choices. ">
<polygon fill="none" stroke="black" points="294.5,-427.5 294.5,-446.5 359.5,-446.5 359.5,-427.5 294.5,-427.5"/>
<text text-anchor="middle" x="327" y="-434.5" font-family="Helvetica,sans-Serif" font-size="10.00">ComboBox</text>
</a>
</g>
</g>
<!-- Node1&#45;&gt;Node14 -->
<g id="edge13" class="edge"><title>Node1&#45;&gt;Node14</title>
<path fill="none" stroke="midnightblue" d="M168.827,-285.266C179.682,-317.793 206.157,-383.423 252,-418 264.178,-427.185 280.348,-431.952 294.466,-434.417"/>
<polygon fill="midnightblue" stroke="midnightblue" points="172.115,-284.058 165.738,-275.597 165.447,-286.188 172.115,-284.058"/>
</g>
<!-- Node15 -->
<g id="node15" class="node"><title>Node15</title>
<g id="a_node15"><a xlink:href="classFilenameComponent.html" target="_top" xlink:title="Shows a filename as an editable text box, with a &#39;browse&#39; button and a drop&#45;down list for recently se...">
<polygon fill="none" stroke="black" points="273.5,-389.5 273.5,-408.5 380.5,-408.5 380.5,-389.5 273.5,-389.5"/>
<text text-anchor="middle" x="327" y="-396.5" font-family="Helvetica,sans-Serif" font-size="10.00">FilenameComponent</text>
</a>
</g>
</g>
<!-- Node1&#45;&gt;Node15 -->
<g id="edge14" class="edge"><title>Node1&#45;&gt;Node15</title>
<path fill="none" stroke="midnightblue" d="M172.468,-284.722C186.363,-310.252 214.723,-355.597 252,-380 258.437,-384.214 265.755,-387.493 273.225,-390.046"/>
<polygon fill="midnightblue" stroke="midnightblue" points="175.47,-282.912 167.712,-275.697 169.278,-286.176 175.47,-282.912"/>
</g>
<!-- Node16 -->
<g id="node16" class="node"><title>Node16</title>
<g id="a_node16"><a xlink:href="classFileSearchPathListComponent.html" target="_top" xlink:title="Shows a set of file paths in a list, allowing them to be added, removed or re&#45;ordered. ">
<polygon fill="none" stroke="black" points="252.5,-351.5 252.5,-370.5 401.5,-370.5 401.5,-351.5 252.5,-351.5"/>
<text text-anchor="middle" x="327" y="-358.5" font-family="Helvetica,sans-Serif" font-size="10.00">FileSearchPathListComponent</text>
</a>
</g>
</g>
<!-- Node1&#45;&gt;Node16 -->
<g id="edge15" class="edge"><title>Node1&#45;&gt;Node16</title>
<path fill="none" stroke="midnightblue" d="M178.506,-283.219C195.059,-300.566 222.868,-326.869 252,-342 259.416,-345.852 267.663,-348.958 275.884,-351.453"/>
<polygon fill="midnightblue" stroke="midnightblue" points="180.704,-280.444 171.327,-275.511 175.581,-285.215 180.704,-280.444"/>
</g>
<!-- Node17 -->
<g id="node17" class="node"><title>Node17</title>
<g id="a_node17"><a xlink:href="classImageComponent.html" target="_top" xlink:title="A component that simply displays an image. ">
<polygon fill="none" stroke="black" points="280,-313.5 280,-332.5 374,-332.5 374,-313.5 280,-313.5"/>
<text text-anchor="middle" x="327" y="-320.5" font-family="Helvetica,sans-Serif" font-size="10.00">ImageComponent</text>
</a>
</g>
</g>
<!-- Node1&#45;&gt;Node17 -->
<g id="edge16" class="edge"><title>Node1&#45;&gt;Node17</title>
<path fill="none" stroke="midnightblue" d="M192.606,-279.984C209.713,-287.723 231.787,-297.134 252,-304 262.299,-307.498 273.592,-310.704 284.186,-313.447"/>
<polygon fill="midnightblue" stroke="midnightblue" points="193.708,-276.639 183.159,-275.652 190.79,-283.002 193.708,-276.639"/>
</g>
<!-- Node18 -->
<g id="node18" class="node"><title>Node18</title>
<g id="a_node18"><a xlink:href="classLabel.html" target="_top" xlink:title="A component that displays a text string, and can optionally become a text editor when clicked...">
<polygon fill="none" stroke="black" points="307,-275.5 307,-294.5 347,-294.5 347,-275.5 307,-275.5"/>
<text text-anchor="middle" x="327" y="-282.5" font-family="Helvetica,sans-Serif" font-size="10.00">Label</text>
</a>
</g>
</g>
<!-- Node1&#45;&gt;Node18 -->
<g id="edge17" class="edge"><title>Node1&#45;&gt;Node18</title>
<path fill="none" stroke="midnightblue" d="M225.992,-273.343C254.925,-276.715 287.142,-280.471 306.993,-282.784"/>
<polygon fill="midnightblue" stroke="midnightblue" points="226.259,-269.85 215.921,-272.169 225.449,-276.803 226.259,-269.85"/>
</g>
<!-- Node19 -->
<g id="node19" class="node"><title>Node19</title>
<g id="a_node19"><a xlink:href="classListBox.html" target="_top" xlink:title="A list of items that can be scrolled vertically. ">
<polygon fill="none" stroke="black" points="302,-237.5 302,-256.5 352,-256.5 352,-237.5 302,-237.5"/>
<text text-anchor="middle" x="327" y="-244.5" font-family="Helvetica,sans-Serif" font-size="10.00">ListBox</text>
</a>
</g>
</g>
<!-- Node1&#45;&gt;Node19 -->
<g id="edge18" class="edge"><title>Node1&#45;&gt;Node19</title>
<path fill="none" stroke="midnightblue" d="M225.9,-258.668C252.354,-255.585 281.57,-252.179 301.574,-249.847"/>
<polygon fill="midnightblue" stroke="midnightblue" points="225.449,-255.197 215.921,-259.831 226.259,-262.15 225.449,-255.197"/>
</g>
<!-- Node22 -->
<g id="node22" class="node"><title>Node22</title>
<g id="a_node22"><a xlink:href="classProgressBar.html" target="_top" xlink:title="A progress bar component. ">
<polygon fill="none" stroke="black" points="291.5,-199.5 291.5,-218.5 362.5,-218.5 362.5,-199.5 291.5,-199.5"/>
<text text-anchor="middle" x="327" y="-206.5" font-family="Helvetica,sans-Serif" font-size="10.00">ProgressBar</text>
</a>
</g>
</g>
<!-- Node1&#45;&gt;Node22 -->
<g id="edge21" class="edge"><title>Node1&#45;&gt;Node22</title>
<path fill="none" stroke="midnightblue" d="M192.606,-252.016C209.713,-244.277 231.787,-234.866 252,-228 264.685,-223.692 278.879,-219.825 291.417,-216.723"/>
<polygon fill="midnightblue" stroke="midnightblue" points="190.79,-248.998 183.159,-256.348 193.708,-255.361 190.79,-248.998"/>
</g>
<!-- Node23 -->
<g id="node23" class="node"><title>Node23</title>
<g id="a_node23"><a xlink:href="classPropertyComponent.html" target="_top" xlink:title="A base class for a component that goes in a PropertyPanel and displays one of an item&#39;s properties...">
<polygon fill="none" stroke="black" points="275,-161.5 275,-180.5 379,-180.5 379,-161.5 275,-161.5"/>
<text text-anchor="middle" x="327" y="-168.5" font-family="Helvetica,sans-Serif" font-size="10.00">PropertyComponent</text>
</a>
</g>
</g>
<!-- Node1&#45;&gt;Node23 -->
<g id="edge22" class="edge"><title>Node1&#45;&gt;Node23</title>
<path fill="none" stroke="midnightblue" d="M178.506,-248.781C195.059,-231.434 222.868,-205.131 252,-190 259.416,-186.148 267.663,-183.042 275.884,-180.547"/>
<polygon fill="midnightblue" stroke="midnightblue" points="175.581,-246.785 171.327,-256.489 180.704,-251.556 175.581,-246.785"/>
</g>
<!-- Node30 -->
<g id="node30" class="node"><title>Node30</title>
<g id="a_node30"><a xlink:href="classSlider.html" target="_top" xlink:title="A slider control for changing a value. ">
<polygon fill="none" stroke="black" points="306.5,-123.5 306.5,-142.5 347.5,-142.5 347.5,-123.5 306.5,-123.5"/>
<text text-anchor="middle" x="327" y="-130.5" font-family="Helvetica,sans-Serif" font-size="10.00">Slider</text>
</a>
</g>
</g>
<!-- Node1&#45;&gt;Node30 -->
<g id="edge29" class="edge"><title>Node1&#45;&gt;Node30</title>
<path fill="none" stroke="midnightblue" d="M172.468,-247.278C186.363,-221.748 214.723,-176.403 252,-152 268.424,-141.248 290.591,-136.578 306.371,-134.551"/>
<polygon fill="midnightblue" stroke="midnightblue" points="169.278,-245.824 167.712,-256.303 175.47,-249.088 169.278,-245.824"/>
</g>
<!-- Node31 -->
<g id="node31" class="node"><title>Node31</title>
<g id="a_node31"><a xlink:href="classTextEditor.html" target="_top" xlink:title="An editable text box. ">
<polygon fill="none" stroke="black" points="296,-85.5 296,-104.5 358,-104.5 358,-85.5 296,-85.5"/>
<text text-anchor="middle" x="327" y="-92.5" font-family="Helvetica,sans-Serif" font-size="10.00">TextEditor</text>
</a>
</g>
</g>
<!-- Node1&#45;&gt;Node31 -->
<g id="edge30" class="edge"><title>Node1&#45;&gt;Node31</title>
<path fill="none" stroke="midnightblue" d="M168.827,-246.734C179.682,-214.207 206.157,-148.577 252,-114 264.602,-104.495 281.478,-99.7216 295.931,-97.3342"/>
<polygon fill="midnightblue" stroke="midnightblue" points="165.447,-245.812 165.738,-256.403 172.115,-247.942 165.447,-245.812"/>
</g>
<!-- Node32 -->
<g id="node32" class="node"><title>Node32</title>
<g id="a_node32"><a xlink:href="classTreeView.html" target="_top" xlink:title="A tree&#45;view component. ">
<polygon fill="none" stroke="black" points="298,-28.5 298,-47.5 356,-47.5 356,-28.5 298,-28.5"/>
<text text-anchor="middle" x="327" y="-35.5" font-family="Helvetica,sans-Serif" font-size="10.00">TreeView</text>
</a>
</g>
</g>
<!-- Node1&#45;&gt;Node32 -->
<g id="edge31" class="edge"><title>Node1&#45;&gt;Node32</title>
<path fill="none" stroke="midnightblue" d="M167.646,-246.356C177.388,-208.925 203.193,-126.614 252,-76 264.631,-62.9011 282.755,-53.491 297.905,-47.3117"/>
<polygon fill="midnightblue" stroke="midnightblue" points="164.154,-245.897 165.131,-256.446 170.946,-247.59 164.154,-245.897"/>
</g>
<!-- Node2 -->
<g id="node2" class="node"><title>Node2</title>
<g id="a_node2"><a xlink:href="classTooltipClient.html" target="_top" xlink:title="Components that want to use pop&#45;up tooltips should implement this interface. ">
<polygon fill="none" stroke="black" points="0.5,-256.5 0.5,-275.5 71.5,-275.5 71.5,-256.5 0.5,-256.5"/>
<text text-anchor="middle" x="36" y="-263.5" font-family="Helvetica,sans-Serif" font-size="10.00">TooltipClient</text>
</a>
</g>
</g>
<!-- Node2&#45;&gt;Node1 -->
<g id="edge1" class="edge"><title>Node2&#45;&gt;Node1</title>
<path fill="none" stroke="midnightblue" d="M81.6946,-266C90.2533,-266 99.2902,-266 108.078,-266"/>
<polygon fill="midnightblue" stroke="midnightblue" points="81.5409,-262.5 71.5409,-266 81.5409,-269.5 81.5409,-262.5"/>
</g>
<!-- Node4 -->
<g id="node4" class="node"><title>Node4</title>
<g id="a_node4"><a xlink:href="classArrowButton.html" target="_top" xlink:title="A button with an arrow in it. ">
<polygon fill="none" stroke="black" points="480.5,-646.5 480.5,-665.5 551.5,-665.5 551.5,-646.5 480.5,-646.5"/>
<text text-anchor="middle" x="516" y="-653.5" font-family="Helvetica,sans-Serif" font-size="10.00">ArrowButton</text>
</a>
</g>
</g>
<!-- Node3&#45;&gt;Node4 -->
<g id="edge3" class="edge"><title>Node3&#45;&gt;Node4</title>
<path fill="none" stroke="midnightblue" d="M336.269,-503.925C351.477,-536.426 387.061,-602.662 438,-637 450.445,-645.389 466.251,-650.079 480.301,-652.699"/>
<polygon fill="midnightblue" stroke="midnightblue" points="339.375,-502.299 332.053,-494.641 333.001,-505.193 339.375,-502.299"/>
</g>
<!-- Node5 -->
<g id="node5" class="node"><title>Node5</title>
<g id="a_node5"><a xlink:href="classDrawableButton.html" target="_top" xlink:title="A button that displays a Drawable. ">
<polygon fill="none" stroke="black" points="473,-608.5 473,-627.5 559,-627.5 559,-608.5 473,-608.5"/>
<text text-anchor="middle" x="516" y="-615.5" font-family="Helvetica,sans-Serif" font-size="10.00">DrawableButton</text>
</a>
</g>
</g>
<!-- Node3&#45;&gt;Node5 -->
<g id="edge4" class="edge"><title>Node3&#45;&gt;Node5</title>
<path fill="none" stroke="midnightblue" d="M340.285,-503.061C358.551,-528.475 395.337,-574.426 438,-599 448.5,-605.048 460.879,-609.183 472.606,-612.005"/>
<polygon fill="midnightblue" stroke="midnightblue" points="343.028,-500.876 334.417,-494.704 337.3,-504.899 343.028,-500.876"/>
</g>
<!-- Node6 -->
<g id="node6" class="node"><title>Node6</title>
<g id="a_node6"><a xlink:href="classHyperlinkButton.html" target="_top" xlink:title="A button showing an underlined weblink, that will launch the link when it&#39;s clicked. ">
<polygon fill="none" stroke="black" points="473,-570.5 473,-589.5 559,-589.5 559,-570.5 473,-570.5"/>
<text text-anchor="middle" x="516" y="-577.5" font-family="Helvetica,sans-Serif" font-size="10.00">HyperlinkButton</text>
</a>
</g>
</g>
<!-- Node3&#45;&gt;Node6 -->
<g id="edge5" class="edge"><title>Node3&#45;&gt;Node6</title>
<path fill="none" stroke="midnightblue" d="M346.825,-501.221C367.756,-518.455 403.216,-545.33 438,-561 448.922,-565.92 461.313,-569.691 472.914,-572.524"/>
<polygon fill="midnightblue" stroke="midnightblue" points="348.954,-498.439 339.041,-494.702 344.46,-503.806 348.954,-498.439"/>
</g>
<!-- Node7 -->
<g id="node7" class="node"><title>Node7</title>
<g id="a_node7"><a xlink:href="classImageButton.html" target="_top" xlink:title="As the title suggests, this is a button containing an image. ">
<polygon fill="none" stroke="black" points="480,-532.5 480,-551.5 552,-551.5 552,-532.5 480,-532.5"/>
<text text-anchor="middle" x="516" y="-539.5" font-family="Helvetica,sans-Serif" font-size="10.00">ImageButton</text>
</a>
</g>
</g>
<!-- Node3&#45;&gt;Node7 -->
<g id="edge6" class="edge"><title>Node3&#45;&gt;Node7</title>
<path fill="none" stroke="midnightblue" d="M359.168,-496.613C381.06,-504.561 411.115,-515.057 438,-523 451.601,-527.018 466.722,-530.879 479.939,-534.058"/>
<polygon fill="midnightblue" stroke="midnightblue" points="360.319,-493.308 349.725,-493.159 357.914,-499.882 360.319,-493.308"/>
</g>
<!-- Node8 -->
<g id="node8" class="node"><title>Node8</title>
<g id="a_node8"><a xlink:href="classShapeButton.html" target="_top" xlink:title="A button that contains a filled shape. ">
<polygon fill="none" stroke="black" points="479.5,-494.5 479.5,-513.5 552.5,-513.5 552.5,-494.5 479.5,-494.5"/>
<text text-anchor="middle" x="516" y="-501.5" font-family="Helvetica,sans-Serif" font-size="10.00">ShapeButton</text>
</a>
</g>
</g>
<!-- Node3&#45;&gt;Node8 -->
<g id="edge7" class="edge"><title>Node3&#45;&gt;Node8</title>
<path fill="none" stroke="midnightblue" d="M359.877,-488.239C393.016,-491.606 444.775,-496.865 479.275,-500.37"/>
<polygon fill="midnightblue" stroke="midnightblue" points="360.12,-484.746 349.817,-487.217 359.412,-491.71 360.12,-484.746"/>
</g>
<!-- Node9 -->
<g id="node9" class="node"><title>Node9</title>
<g id="a_node9"><a xlink:href="classTabBarButton.html" target="_top" xlink:title="In a TabbedButtonBar, this component is used for each of the buttons. ">
<polygon fill="none" stroke="black" points="477.5,-456.5 477.5,-475.5 554.5,-475.5 554.5,-456.5 477.5,-456.5"/>
<text text-anchor="middle" x="516" y="-463.5" font-family="Helvetica,sans-Serif" font-size="10.00">TabBarButton</text>
</a>
</g>
</g>
<!-- Node3&#45;&gt;Node9 -->
<g id="edge8" class="edge"><title>Node3&#45;&gt;Node9</title>
<path fill="none" stroke="midnightblue" d="M360.104,-481.738C392.583,-478.438 442.777,-473.338 477.168,-469.844"/>
<polygon fill="midnightblue" stroke="midnightblue" points="359.412,-478.29 349.817,-482.783 360.12,-485.254 359.412,-478.29"/>
</g>
<!-- Node10 -->
<g id="node10" class="node"><title>Node10</title>
<g id="a_node10"><a xlink:href="classTextButton.html" target="_top" xlink:title="A button that uses the standard lozenge&#45;shaped background with a line of text on it. ">
<polygon fill="none" stroke="black" points="483.5,-418.5 483.5,-437.5 548.5,-437.5 548.5,-418.5 483.5,-418.5"/>
<text text-anchor="middle" x="516" y="-425.5" font-family="Helvetica,sans-Serif" font-size="10.00">TextButton</text>
</a>
</g>
</g>
<!-- Node3&#45;&gt;Node10 -->
<g id="edge9" class="edge"><title>Node3&#45;&gt;Node10</title>
<path fill="none" stroke="midnightblue" d="M359.168,-473.387C381.06,-465.439 411.115,-454.943 438,-447 452.789,-442.631 469.376,-438.448 483.357,-435.124"/>
<polygon fill="midnightblue" stroke="midnightblue" points="357.914,-470.118 349.725,-476.841 360.319,-476.692 357.914,-470.118"/>
</g>
<!-- Node11 -->
<g id="node11" class="node"><title>Node11</title>
<g id="a_node11"><a xlink:href="classToggleButton.html" target="_top" xlink:title="A button that can be toggled on/off. ">
<polygon fill="none" stroke="black" points="479,-380.5 479,-399.5 553,-399.5 553,-380.5 479,-380.5"/>
<text text-anchor="middle" x="516" y="-387.5" font-family="Helvetica,sans-Serif" font-size="10.00">ToggleButton</text>
</a>
</g>
</g>
<!-- Node3&#45;&gt;Node11 -->
<g id="edge10" class="edge"><title>Node3&#45;&gt;Node11</title>
<path fill="none" stroke="midnightblue" d="M359.349,-476.896C373.309,-472.278 389.404,-465.483 402,-456 423.021,-440.174 415.984,-423.41 438,-409 450.097,-401.083 465.224,-396.464 478.861,-393.769"/>
<polygon fill="midnightblue" stroke="midnightblue" points="358.171,-473.596 349.641,-479.88 360.228,-480.287 358.171,-473.596"/>
</g>
<!-- Node12 -->
<g id="node12" class="node"><title>Node12</title>
<g id="a_node12"><a xlink:href="classToolbarItemComponent.html" target="_top" xlink:title="A component that can be used as one of the items in a Toolbar. ">
<polygon fill="none" stroke="black" points="456.5,-342.5 456.5,-361.5 575.5,-361.5 575.5,-342.5 456.5,-342.5"/>
<text text-anchor="middle" x="516" y="-349.5" font-family="Helvetica,sans-Serif" font-size="10.00">ToolbarItemComponent</text>
</a>
</g>
</g>
<!-- Node3&#45;&gt;Node12 -->
<g id="edge11" class="edge"><title>Node3&#45;&gt;Node12</title>
<path fill="none" stroke="midnightblue" d="M359.644,-478.559C374.069,-474.246 390.462,-467.229 402,-456 431.401,-427.386 406.782,-397.619 438,-371 443.343,-366.444 449.614,-362.949 456.23,-360.273"/>
<polygon fill="midnightblue" stroke="midnightblue" points="358.345,-475.283 349.585,-481.242 360.15,-482.046 358.345,-475.283"/>
</g>
<!-- Node13 -->
<g id="node13" class="node"><title>Node13</title>
<g id="a_node13"><a xlink:href="classToolbarButton.html" target="_top" xlink:title="A type of button designed to go on a toolbar. ">
<polygon fill="none" stroke="black" points="630.5,-342.5 630.5,-361.5 707.5,-361.5 707.5,-342.5 630.5,-342.5"/>
<text text-anchor="middle" x="669" y="-349.5" font-family="Helvetica,sans-Serif" font-size="10.00">ToolbarButton</text>
</a>
</g>
</g>
<!-- Node12&#45;&gt;Node13 -->
<g id="edge12" class="edge"><title>Node12&#45;&gt;Node13</title>
<path fill="none" stroke="midnightblue" d="M585.83,-352C601.197,-352 616.935,-352 630.471,-352"/>
<polygon fill="midnightblue" stroke="midnightblue" points="585.813,-348.5 575.813,-352 585.813,-355.5 585.813,-348.5"/>
</g>
<!-- Node20 -->
<g id="node20" class="node"><title>Node20</title>
<g id="a_node20"><a xlink:href="classFileListComponent.html" target="_top" xlink:title="A component that displays the files in a directory as a listbox. ">
<polygon fill="none" stroke="black" points="467,-304.5 467,-323.5 565,-323.5 565,-304.5 467,-304.5"/>
<text text-anchor="middle" x="516" y="-311.5" font-family="Helvetica,sans-Serif" font-size="10.00">FileListComponent</text>
</a>
</g>
</g>
<!-- Node19&#45;&gt;Node20 -->
<g id="edge19" class="edge"><title>Node19&#45;&gt;Node20</title>
<path fill="none" stroke="midnightblue" d="M362.184,-252.589C375.1,-255.51 389.65,-259.808 402,-266 420.367,-275.208 419.59,-285.878 438,-295 446.883,-299.401 456.86,-302.83 466.613,-305.485"/>
<polygon fill="midnightblue" stroke="midnightblue" points="362.752,-249.132 352.25,-250.532 361.332,-255.987 362.752,-249.132"/>
</g>
<!-- Node21 -->
<g id="node21" class="node"><title>Node21</title>
<g id="a_node21"><a xlink:href="classTableListBox.html" target="_top" xlink:title="A table of cells, using a TableHeaderComponent as its header. ">
<polygon fill="none" stroke="black" points="479,-266.5 479,-285.5 553,-285.5 553,-266.5 479,-266.5"/>
<text text-anchor="middle" x="516" y="-273.5" font-family="Helvetica,sans-Serif" font-size="10.00">TableListBox</text>
</a>
</g>
</g>
<!-- Node19&#45;&gt;Node21 -->
<g id="edge20" class="edge"><title>Node19&#45;&gt;Node21</title>
<path fill="none" stroke="midnightblue" d="M362.162,-252.298C395.216,-257.424 445.133,-265.165 478.846,-270.393"/>
<polygon fill="midnightblue" stroke="midnightblue" points="362.482,-248.806 352.064,-250.732 361.41,-255.723 362.482,-248.806"/>
</g>
<!-- Node24 -->
<g id="node24" class="node"><title>Node24</title>
<g id="a_node24"><a xlink:href="classBooleanPropertyComponent.html" target="_top" xlink:title="A PropertyComponent that contains an on/off toggle button. ">
<polygon fill="none" stroke="black" points="446.5,-228.5 446.5,-247.5 585.5,-247.5 585.5,-228.5 446.5,-228.5"/>
<text text-anchor="middle" x="516" y="-235.5" font-family="Helvetica,sans-Serif" font-size="10.00">BooleanPropertyComponent</text>
</a>
</g>
</g>
<!-- Node23&#45;&gt;Node24 -->
<g id="edge23" class="edge"><title>Node23&#45;&gt;Node24</title>
<path fill="none" stroke="midnightblue" d="M387.403,-183.814C392.443,-185.629 397.376,-187.682 402,-190 420.367,-199.208 419.59,-209.878 438,-219 445.773,-222.851 454.383,-225.958 462.948,-228.452"/>
<polygon fill="midnightblue" stroke="midnightblue" points="388.224,-180.4 377.632,-180.611 386.044,-187.052 388.224,-180.4"/>
</g>
<!-- Node25 -->
<g id="node25" class="node"><title>Node25</title>
<g id="a_node25"><a xlink:href="classButtonPropertyComponent.html" target="_top" xlink:title="A PropertyComponent that contains a button. ">
<polygon fill="none" stroke="black" points="450,-190.5 450,-209.5 582,-209.5 582,-190.5 450,-190.5"/>
<text text-anchor="middle" x="516" y="-197.5" font-family="Helvetica,sans-Serif" font-size="10.00">ButtonPropertyComponent</text>
</a>
</g>
</g>
<!-- Node23&#45;&gt;Node25 -->
<g id="edge24" class="edge"><title>Node23&#45;&gt;Node25</title>
<path fill="none" stroke="midnightblue" d="M389.053,-180.468C409.771,-183.681 432.915,-187.27 453.656,-190.487"/>
<polygon fill="midnightblue" stroke="midnightblue" points="389.517,-176.998 379.099,-178.924 388.444,-183.916 389.517,-176.998"/>
</g>
<!-- Node26 -->
<g id="node26" class="node"><title>Node26</title>
<g id="a_node26"><a xlink:href="classChoicePropertyComponent.html" target="_top" xlink:title="A PropertyComponent that shows its value as a combo box. ">
<polygon fill="none" stroke="black" points="449,-152.5 449,-171.5 583,-171.5 583,-152.5 449,-152.5"/>
<text text-anchor="middle" x="516" y="-159.5" font-family="Helvetica,sans-Serif" font-size="10.00">ChoicePropertyComponent</text>
</a>
</g>
</g>
<!-- Node23&#45;&gt;Node26 -->
<g id="edge25" class="edge"><title>Node23&#45;&gt;Node26</title>
<path fill="none" stroke="midnightblue" d="M389.177,-168.056C408.278,-167.136 429.431,-166.118 448.857,-165.183"/>
<polygon fill="midnightblue" stroke="midnightblue" points="388.919,-164.564 379.099,-168.541 389.255,-171.556 388.919,-164.564"/>
</g>
<!-- Node27 -->
<g id="node27" class="node"><title>Node27</title>
<g id="a_node27"><a xlink:href="classMultiChoicePropertyComponent.html" target="_top" xlink:title="A PropertyComponent that shows its value as an expandable list of ToggleButtons. ">
<polygon fill="none" stroke="black" points="438.5,-114.5 438.5,-133.5 593.5,-133.5 593.5,-114.5 438.5,-114.5"/>
<text text-anchor="middle" x="516" y="-121.5" font-family="Helvetica,sans-Serif" font-size="10.00">MultiChoicePropertyComponent</text>
</a>
</g>
</g>
<!-- Node23&#45;&gt;Node27 -->
<g id="edge26" class="edge"><title>Node23&#45;&gt;Node27</title>
<path fill="none" stroke="midnightblue" d="M375.006,-158.954C394.49,-153.982 417.328,-148.181 438,-143 450.421,-139.887 463.979,-136.528 476.209,-133.513"/>
<polygon fill="midnightblue" stroke="midnightblue" points="373.975,-155.605 365.152,-161.471 375.707,-162.387 373.975,-155.605"/>
</g>
<!-- Node28 -->
<g id="node28" class="node"><title>Node28</title>
<g id="a_node28"><a xlink:href="classSliderPropertyComponent.html" target="_top" xlink:title="A PropertyComponent that shows its value as a slider. ">
<polygon fill="none" stroke="black" points="452,-76.5 452,-95.5 580,-95.5 580,-76.5 452,-76.5"/>
<text text-anchor="middle" x="516" y="-83.5" font-family="Helvetica,sans-Serif" font-size="10.00">SliderPropertyComponent</text>
</a>
</g>
</g>
<!-- Node23&#45;&gt;Node28 -->
<g id="edge27" class="edge"><title>Node23&#45;&gt;Node28</title>
<path fill="none" stroke="midnightblue" d="M388.892,-158.989C393.495,-157.005 397.927,-154.693 402,-152 423.948,-137.487 415.984,-119.41 438,-105 443.876,-101.154 450.466,-98.0869 457.253,-95.6402"/>
<polygon fill="midnightblue" stroke="midnightblue" points="387.386,-155.816 379.263,-162.618 389.855,-162.366 387.386,-155.816"/>
</g>
<!-- Node29 -->
<g id="node29" class="node"><title>Node29</title>
<g id="a_node29"><a xlink:href="classTextPropertyComponent.html" target="_top" xlink:title="A PropertyComponent that shows its value as editable text. ">
<polygon fill="none" stroke="black" points="454.5,-38.5 454.5,-57.5 577.5,-57.5 577.5,-38.5 454.5,-38.5"/>
<text text-anchor="middle" x="516" y="-45.5" font-family="Helvetica,sans-Serif" font-size="10.00">TextPropertyComponent</text>
</a>
</g>
</g>
<!-- Node23&#45;&gt;Node29 -->
<g id="edge28" class="edge"><title>Node23&#45;&gt;Node29</title>
<path fill="none" stroke="midnightblue" d="M388.699,-160.571C393.497,-158.249 398.018,-155.428 402,-152 433.093,-125.234 406.782,-93.6191 438,-67 442.82,-62.8905 448.393,-59.6443 454.294,-57.084"/>
<polygon fill="midnightblue" stroke="midnightblue" points="387.136,-157.428 379.199,-164.446 389.78,-163.91 387.136,-157.428"/>
</g>
<!-- Node33 -->
<g id="node33" class="node"><title>Node33</title>
<g id="a_node33"><a xlink:href="classFileTreeComponent.html" target="_top" xlink:title="A component that displays the files in a directory as a treeview. ">
<polygon fill="none" stroke="black" points="465,-0.5 465,-19.5 567,-19.5 567,-0.5 465,-0.5"/>
<text text-anchor="middle" x="516" y="-7.5" font-family="Helvetica,sans-Serif" font-size="10.00">FileTreeComponent</text>
</a>
</g>
</g>
<!-- Node32&#45;&gt;Node33 -->
<g id="edge32" class="edge"><title>Node32&#45;&gt;Node33</title>
<path fill="none" stroke="midnightblue" d="M366.371,-32.2546C394.826,-27.9939 433.879,-22.1465 464.813,-17.5147"/>
<polygon fill="midnightblue" stroke="midnightblue" points="365.773,-28.8051 356.401,-33.7474 366.809,-35.7279 365.773,-28.8051"/>
</g>
</g>
</svg>
