<?xml version="1.0" encoding="UTF-8" standalone="no"?>
<!DOCTYPE svg PUBLIC "-//W3C//DTD SVG 1.1//EN"
 "http://www.w3.org/Graphics/SVG/1.1/DTD/svg11.dtd">
<!-- Generated by graphviz version 2.36.0 (20140111.2315)
 -->
<!-- Title: Button::Listener Pages: 1 -->
<svg width="288pt" height="560pt"
 viewBox="0.00 0.00 288.00 560.00" xmlns="http://www.w3.org/2000/svg" xmlns:xlink="http://www.w3.org/1999/xlink">
<g id="graph0" class="graph" transform="scale(1 1) rotate(0) translate(4 556)">
<title>Button::Listener</title>
<!-- Node1 -->
<g id="node1" class="node"><title>Node1</title>
<polygon fill="#bfbfbf" stroke="black" points="0,-266.5 0,-285.5 86,-285.5 86,-266.5 0,-266.5"/>
<text text-anchor="middle" x="43" y="-273.5" font-family="Helvetica,sans-Serif" font-size="10.00">Button::Listener</text>
</g>
<!-- Node2 -->
<g id="node2" class="node"><title>Node2</title>
<g id="a_node2"><a xlink:href="classAlertWindow.html" target="_top" xlink:title="A window that displays a message and has buttons for the user to react to it. ">
<polygon fill="none" stroke="black" points="165,-532.5 165,-551.5 237,-551.5 237,-532.5 165,-532.5"/>
<text text-anchor="middle" x="201" y="-539.5" font-family="Helvetica,sans-Serif" font-size="10.00">AlertWindow</text>
</a>
</g>
</g>
<!-- Node1&#45;&gt;Node2 -->
<g id="edge1" class="edge"><title>Node1&#45;&gt;Node2</title>
<path fill="none" stroke="#8b1a1a" d="M44.0845,-295.807C45.4107,-342.626 55.5388,-460.845 122,-523 133.503,-533.758 150.049,-538.72 164.944,-540.908"/>
<polygon fill="#8b1a1a" stroke="#8b1a1a" points="47.5791,-295.458 43.9081,-285.52 40.5802,-295.578 47.5791,-295.458"/>
</g>
<!-- Node3 -->
<g id="node3" class="node"><title>Node3</title>
<g id="a_node3"><a xlink:href="classAudioDeviceSelectorComponent.html" target="_top" xlink:title="A component containing controls to let the user change the audio settings of an AudioDeviceManager ob...">
<polygon fill="none" stroke="black" points="122,-494.5 122,-513.5 280,-513.5 280,-494.5 122,-494.5"/>
<text text-anchor="middle" x="201" y="-501.5" font-family="Helvetica,sans-Serif" font-size="10.00">AudioDeviceSelectorComponent</text>
</a>
</g>
</g>
<!-- Node1&#45;&gt;Node3 -->
<g id="edge2" class="edge"><title>Node1&#45;&gt;Node3</title>
<path fill="none" stroke="#8b1a1a" d="M45.4026,-295.835C49.4481,-337.452 64.8295,-434.22 122,-485 126.272,-488.795 131.177,-491.862 136.402,-494.336"/>
<polygon fill="#8b1a1a" stroke="#8b1a1a" points="48.8708,-295.312 44.5368,-285.644 41.8959,-295.905 48.8708,-295.312"/>
</g>
<!-- Node4 -->
<g id="node4" class="node"><title>Node4</title>
<g id="a_node4"><a xlink:href="classBooleanPropertyComponent.html" target="_top" xlink:title="A PropertyComponent that contains an on/off toggle button. ">
<polygon fill="none" stroke="black" points="131.5,-456.5 131.5,-475.5 270.5,-475.5 270.5,-456.5 131.5,-456.5"/>
<text text-anchor="middle" x="201" y="-463.5" font-family="Helvetica,sans-Serif" font-size="10.00">BooleanPropertyComponent</text>
</a>
</g>
</g>
<!-- Node1&#45;&gt;Node4 -->
<g id="edge3" class="edge"><title>Node1&#45;&gt;Node4</title>
<path fill="none" stroke="#8b1a1a" d="M47.2102,-295.626C54.1285,-331.409 73.894,-407.224 122,-447 126.619,-450.819 131.887,-453.891 137.455,-456.36"/>
<polygon fill="#8b1a1a" stroke="#8b1a1a" points="50.6066,-294.736 45.3958,-285.512 43.7165,-295.972 50.6066,-294.736"/>
</g>
<!-- Node5 -->
<g id="node5" class="node"><title>Node5</title>
<g id="a_node5"><a xlink:href="classButtonPropertyComponent.html" target="_top" xlink:title="A PropertyComponent that contains a button. ">
<polygon fill="none" stroke="black" points="135,-418.5 135,-437.5 267,-437.5 267,-418.5 135,-418.5"/>
<text text-anchor="middle" x="201" y="-425.5" font-family="Helvetica,sans-Serif" font-size="10.00">ButtonPropertyComponent</text>
</a>
</g>
</g>
<!-- Node1&#45;&gt;Node5 -->
<g id="edge4" class="edge"><title>Node1&#45;&gt;Node5</title>
<path fill="none" stroke="#8b1a1a" d="M50.0233,-295.733C60.0356,-325.099 82.9614,-379.955 122,-409 127.144,-412.827 132.957,-415.892 139.034,-418.346"/>
<polygon fill="#8b1a1a" stroke="#8b1a1a" points="53.2267,-294.264 46.8117,-285.832 46.5683,-296.424 53.2267,-294.264"/>
</g>
<!-- Node6 -->
<g id="node6" class="node"><title>Node6</title>
<g id="a_node6"><a xlink:href="classButtonTracker.html" target="_top" xlink:title="A class that automatically sends analytics events to the Analytics singleton when a button is clicked...">
<polygon fill="none" stroke="black" points="162,-380.5 162,-399.5 240,-399.5 240,-380.5 162,-380.5"/>
<text text-anchor="middle" x="201" y="-387.5" font-family="Helvetica,sans-Serif" font-size="10.00">ButtonTracker</text>
</a>
</g>
</g>
<!-- Node1&#45;&gt;Node6 -->
<g id="edge5" class="edge"><title>Node1&#45;&gt;Node6</title>
<path fill="none" stroke="#8b1a1a" d="M54.1018,-294.436C66.9761,-316.149 91.2909,-351.698 122,-371 133.918,-378.491 148.573,-383.029 161.951,-385.777"/>
<polygon fill="#8b1a1a" stroke="#8b1a1a" points="57.0156,-292.481 49.0098,-285.541 50.9406,-295.959 57.0156,-292.481"/>
</g>
<!-- Node7 -->
<g id="node7" class="node"><title>Node7</title>
<g id="a_node7"><a xlink:href="classFileBrowserComponent.html" target="_top" xlink:title="A component for browsing and selecting a file or directory to open or save. ">
<polygon fill="none" stroke="black" points="141.5,-342.5 141.5,-361.5 260.5,-361.5 260.5,-342.5 141.5,-342.5"/>
<text text-anchor="middle" x="201" y="-349.5" font-family="Helvetica,sans-Serif" font-size="10.00">FileBrowserComponent</text>
</a>
</g>
</g>
<!-- Node1&#45;&gt;Node7 -->
<g id="edge6" class="edge"><title>Node1&#45;&gt;Node7</title>
<path fill="none" stroke="#8b1a1a" d="M62.1816,-292.517C77.2033,-305.328 99.6222,-322.601 122,-333 130.216,-336.818 139.288,-339.922 148.252,-342.428"/>
<polygon fill="#8b1a1a" stroke="#8b1a1a" points="64.0787,-289.527 54.2481,-285.576 59.4692,-294.795 64.0787,-289.527"/>
</g>
<!-- Node8 -->
<g id="node8" class="node"><title>Node8</title>
<g id="a_node8"><a xlink:href="classFileChooserDialogBox.html" target="_top" xlink:title="A file open/save dialog box. ">
<polygon fill="none" stroke="black" points="144,-304.5 144,-323.5 258,-323.5 258,-304.5 144,-304.5"/>
<text text-anchor="middle" x="201" y="-311.5" font-family="Helvetica,sans-Serif" font-size="10.00">FileChooserDialogBox</text>
</a>
</g>
</g>
<!-- Node1&#45;&gt;Node8 -->
<g id="edge7" class="edge"><title>Node1&#45;&gt;Node8</title>
<path fill="none" stroke="#8b1a1a" d="M93.1317,-287.968C114.993,-293.293 140.376,-299.476 160.918,-304.48"/>
<polygon fill="#8b1a1a" stroke="#8b1a1a" points="93.9097,-284.555 83.3654,-285.589 92.2529,-291.356 93.9097,-284.555"/>
</g>
<!-- Node9 -->
<g id="node9" class="node"><title>Node9</title>
<g id="a_node9"><a xlink:href="classFilenameComponent.html" target="_top" xlink:title="Shows a filename as an editable text box, with a &#39;browse&#39; button and a drop&#45;down list for recently se...">
<polygon fill="none" stroke="black" points="147.5,-266.5 147.5,-285.5 254.5,-285.5 254.5,-266.5 147.5,-266.5"/>
<text text-anchor="middle" x="201" y="-273.5" font-family="Helvetica,sans-Serif" font-size="10.00">FilenameComponent</text>
</a>
</g>
</g>
<!-- Node1&#45;&gt;Node9 -->
<g id="edge8" class="edge"><title>Node1&#45;&gt;Node9</title>
<path fill="none" stroke="#8b1a1a" d="M96.2251,-276C112.709,-276 130.923,-276 147.431,-276"/>
<polygon fill="#8b1a1a" stroke="#8b1a1a" points="96.2159,-272.5 86.2158,-276 96.2158,-279.5 96.2159,-272.5"/>
</g>
<!-- Node10 -->
<g id="node10" class="node"><title>Node10</title>
<g id="a_node10"><a xlink:href="classFileSearchPathListComponent.html" target="_top" xlink:title="Shows a set of file paths in a list, allowing them to be added, removed or re&#45;ordered. ">
<polygon fill="none" stroke="black" points="126.5,-228.5 126.5,-247.5 275.5,-247.5 275.5,-228.5 126.5,-228.5"/>
<text text-anchor="middle" x="201" y="-235.5" font-family="Helvetica,sans-Serif" font-size="10.00">FileSearchPathListComponent</text>
</a>
</g>
</g>
<!-- Node1&#45;&gt;Node10 -->
<g id="edge9" class="edge"><title>Node1&#45;&gt;Node10</title>
<path fill="none" stroke="#8b1a1a" d="M93.1317,-264.032C114.993,-258.707 140.376,-252.524 160.918,-247.52"/>
<polygon fill="#8b1a1a" stroke="#8b1a1a" points="92.2529,-260.644 83.3654,-266.411 93.9097,-267.445 92.2529,-260.644"/>
</g>
<!-- Node11 -->
<g id="node11" class="node"><title>Node11</title>
<g id="a_node11"><a xlink:href="classOnlineUnlockForm.html" target="_top" xlink:title="Acts as a GUI which asks the user for their details, and calls the approriate methods on your OnlineU...">
<polygon fill="none" stroke="black" points="152,-190.5 152,-209.5 250,-209.5 250,-190.5 152,-190.5"/>
<text text-anchor="middle" x="201" y="-197.5" font-family="Helvetica,sans-Serif" font-size="10.00">OnlineUnlockForm</text>
</a>
</g>
</g>
<!-- Node1&#45;&gt;Node11 -->
<g id="edge10" class="edge"><title>Node1&#45;&gt;Node11</title>
<path fill="none" stroke="#8b1a1a" d="M62.1816,-259.483C77.2033,-246.672 99.6222,-229.399 122,-219 131.353,-214.654 141.817,-211.232 151.967,-208.565"/>
<polygon fill="#8b1a1a" stroke="#8b1a1a" points="59.4692,-257.205 54.2481,-266.424 64.0787,-262.473 59.4692,-257.205"/>
</g>
<!-- Node12 -->
<g id="node12" class="node"><title>Node12</title>
<g id="a_node12"><a xlink:href="classPluginListComponent.html" target="_top" xlink:title="A component displaying a list of plugins, with options to scan for them, add, remove and sort them...">
<polygon fill="none" stroke="black" points="146,-152.5 146,-171.5 256,-171.5 256,-152.5 146,-152.5"/>
<text text-anchor="middle" x="201" y="-159.5" font-family="Helvetica,sans-Serif" font-size="10.00">PluginListComponent</text>
</a>
</g>
</g>
<!-- Node1&#45;&gt;Node12 -->
<g id="edge11" class="edge"><title>Node1&#45;&gt;Node12</title>
<path fill="none" stroke="#8b1a1a" d="M54.1018,-257.564C66.9761,-235.851 91.2909,-200.302 122,-181 129.198,-176.476 137.395,-173.029 145.705,-170.402"/>
<polygon fill="#8b1a1a" stroke="#8b1a1a" points="50.9406,-256.041 49.0098,-266.459 57.0156,-259.519 50.9406,-256.041"/>
</g>
<!-- Node13 -->
<g id="node13" class="node"><title>Node13</title>
<g id="a_node13"><a xlink:href="classPreferencesPanel.html" target="_top" xlink:title="A component with a set of buttons at the top for changing between pages of preferences. ">
<polygon fill="none" stroke="black" points="154,-114.5 154,-133.5 248,-133.5 248,-114.5 154,-114.5"/>
<text text-anchor="middle" x="201" y="-121.5" font-family="Helvetica,sans-Serif" font-size="10.00">PreferencesPanel</text>
</a>
</g>
</g>
<!-- Node1&#45;&gt;Node13 -->
<g id="edge12" class="edge"><title>Node1&#45;&gt;Node13</title>
<path fill="none" stroke="#8b1a1a" d="M50.0233,-256.267C60.0356,-226.901 82.9614,-172.045 122,-143 131.281,-136.095 142.743,-131.67 153.996,-128.843"/>
<polygon fill="#8b1a1a" stroke="#8b1a1a" points="46.5683,-255.576 46.8117,-266.168 53.2267,-257.736 46.5683,-255.576"/>
</g>
<!-- Node14 -->
<g id="node14" class="node"><title>Node14</title>
<g id="a_node14"><a xlink:href="classSidePanel.html" target="_top" xlink:title="A component that is positioned on either the left&#45; or right&#45;hand side of its parent, containing a header and some content. ">
<polygon fill="none" stroke="black" points="170.5,-76.5 170.5,-95.5 231.5,-95.5 231.5,-76.5 170.5,-76.5"/>
<text text-anchor="middle" x="201" y="-83.5" font-family="Helvetica,sans-Serif" font-size="10.00">SidePanel</text>
</a>
</g>
</g>
<!-- Node1&#45;&gt;Node14 -->
<g id="edge13" class="edge"><title>Node1&#45;&gt;Node14</title>
<path fill="none" stroke="#8b1a1a" d="M47.2102,-256.374C54.1285,-220.591 73.894,-144.776 122,-105 135.427,-93.8982 154.338,-89.1081 170.177,-87.1127"/>
<polygon fill="#8b1a1a" stroke="#8b1a1a" points="43.7165,-256.028 45.3958,-266.488 50.6066,-257.264 43.7165,-256.028"/>
</g>
<!-- Node15 -->
<g id="node15" class="node"><title>Node15</title>
<g id="a_node15"><a xlink:href="classStandaloneFilterWindow.html" target="_top" xlink:title="A class that can be used to run a simple standalone application containing your filter. ">
<polygon fill="none" stroke="black" points="140,-38.5 140,-57.5 262,-57.5 262,-38.5 140,-38.5"/>
<text text-anchor="middle" x="201" y="-45.5" font-family="Helvetica,sans-Serif" font-size="10.00">StandaloneFilterWindow</text>
</a>
</g>
</g>
<!-- Node1&#45;&gt;Node15 -->
<g id="edge14" class="edge"><title>Node1&#45;&gt;Node15</title>
<path fill="none" stroke="midnightblue" d="M45.4026,-256.165C49.4481,-214.548 64.8295,-117.78 122,-67 127.21,-62.3721 133.361,-58.8272 139.885,-56.1188"/>
<polygon fill="midnightblue" stroke="midnightblue" points="41.8959,-256.095 44.5368,-266.356 48.8708,-256.688 41.8959,-256.095"/>
</g>
<!-- Node16 -->
<g id="node16" class="node"><title>Node16</title>
<g id="a_node16"><a xlink:href="classToolbar.html" target="_top" xlink:title="A toolbar component. ">
<polygon fill="none" stroke="black" points="176.5,-0.5 176.5,-19.5 225.5,-19.5 225.5,-0.5 176.5,-0.5"/>
<text text-anchor="middle" x="201" y="-7.5" font-family="Helvetica,sans-Serif" font-size="10.00">Toolbar</text>
</a>
</g>
</g>
<!-- Node1&#45;&gt;Node16 -->
<g id="edge15" class="edge"><title>Node1&#45;&gt;Node16</title>
<path fill="none" stroke="#8b1a1a" d="M44.0845,-256.193C45.4107,-209.374 55.5388,-91.1546 122,-29 136.557,-15.3863 159.189,-11.0532 176.333,-9.88027"/>
<polygon fill="#8b1a1a" stroke="#8b1a1a" points="40.5802,-256.422 43.9081,-266.48 47.5791,-256.542 40.5802,-256.422"/>
</g>
</g>
</svg>
