<?xml version="1.0" encoding="UTF-8" standalone="no"?>
<!DOCTYPE svg PUBLIC "-//W3C//DTD SVG 1.1//EN"
 "http://www.w3.org/Graphics/SVG/1.1/DTD/svg11.dtd">
<!-- Generated by graphviz version 2.36.0 (20140111.2315)
 -->
<!-- Title: juce::FileDragAndDropTarget Pages: 1 -->
<svg width="484pt" height="154pt"
 viewBox="0.00 0.00 484.00 154.00" xmlns="http://www.w3.org/2000/svg" xmlns:xlink="http://www.w3.org/1999/xlink">
<g id="graph0" class="graph" transform="scale(1 1) rotate(0) translate(4 150)">
<title>juce::FileDragAndDropTarget</title>
<!-- Node1 -->
<g id="node1" class="node"><title>Node1</title>
<polygon fill="#bfbfbf" stroke="black" points="0.5,-60.5 0.5,-79.5 143.5,-79.5 143.5,-60.5 0.5,-60.5"/>
<text text-anchor="middle" x="72" y="-67.5" font-family="Helvetica,sans-Serif" font-size="10.00">juce::FileDragAndDropTarget</text>
</g>
<!-- Node2 -->
<g id="node2" class="node"><title>Node2</title>
<g id="a_node2"><a xlink:href="classjuce_1_1FilenameComponent.html" target="_top" xlink:title="Shows a filename as an editable text box, with a &#39;browse&#39; button and a drop&#45;down list for recently se...">
<polygon fill="none" stroke="black" points="181.5,-126.5 181.5,-145.5 312.5,-145.5 312.5,-126.5 181.5,-126.5"/>
<text text-anchor="middle" x="247" y="-133.5" font-family="Helvetica,sans-Serif" font-size="10.00">juce::FilenameComponent</text>
</a>
</g>
</g>
<!-- Node1&#45;&gt;Node2 -->
<g id="edge1" class="edge"><title>Node1&#45;&gt;Node2</title>
<path fill="none" stroke="midnightblue" d="M102.399,-83.6939C123.697,-93.3538 153.317,-106.256 180,-116 190.234,-119.737 201.532,-123.345 211.845,-126.442"/>
<polygon fill="midnightblue" stroke="midnightblue" points="103.789,-80.4811 93.2393,-79.5067 100.879,-86.8475 103.789,-80.4811"/>
</g>
<!-- Node3 -->
<g id="node3" class="node"><title>Node3</title>
<g id="a_node3"><a xlink:href="classjuce_1_1FileSearchPathListComponent.html" target="_top" xlink:title="Shows a set of file paths in a list, allowing them to be added, removed or re&#45;ordered. ">
<polygon fill="none" stroke="black" points="185.5,-77 185.5,-107 308.5,-107 308.5,-77 185.5,-77"/>
<text text-anchor="start" x="193.5" y="-95" font-family="Helvetica,sans-Serif" font-size="10.00">juce::FileSearchPathList</text>
<text text-anchor="middle" x="247" y="-84" font-family="Helvetica,sans-Serif" font-size="10.00">Component</text>
</a>
</g>
</g>
<!-- Node1&#45;&gt;Node3 -->
<g id="edge2" class="edge"><title>Node1&#45;&gt;Node3</title>
<path fill="none" stroke="midnightblue" d="M153.975,-80.2974C164.577,-81.6456 175.29,-83.008 185.474,-84.3031"/>
<polygon fill="midnightblue" stroke="midnightblue" points="154.227,-76.8013 143.865,-79.0117 153.343,-83.7454 154.227,-76.8013"/>
</g>
<!-- Node4 -->
<g id="node4" class="node"><title>Node4</title>
<g id="a_node4"><a xlink:href="classjuce_1_1PluginListComponent.html" target="_top" xlink:title="A component displaying a list of plugins, with options to scan for them, add, remove and sort them...">
<polygon fill="none" stroke="black" points="180,-38.5 180,-57.5 314,-57.5 314,-38.5 180,-38.5"/>
<text text-anchor="middle" x="247" y="-45.5" font-family="Helvetica,sans-Serif" font-size="10.00">juce::PluginListComponent</text>
</a>
</g>
</g>
<!-- Node1&#45;&gt;Node4 -->
<g id="edge3" class="edge"><title>Node1&#45;&gt;Node4</title>
<path fill="none" stroke="midnightblue" d="M154.019,-59.697C162.716,-58.591 171.487,-57.4756 179.979,-56.3957"/>
<polygon fill="midnightblue" stroke="midnightblue" points="153.343,-56.2546 143.865,-60.9883 154.227,-63.1987 153.343,-56.2546"/>
</g>
<!-- Node5 -->
<g id="node5" class="node"><title>Node5</title>
<g id="a_node5"><a xlink:href="classjuce_1_1TreeView.html" target="_top" xlink:title="A tree&#45;view component. ">
<polygon fill="none" stroke="black" points="206,-0.5 206,-19.5 288,-19.5 288,-0.5 206,-0.5"/>
<text text-anchor="middle" x="247" y="-7.5" font-family="Helvetica,sans-Serif" font-size="10.00">juce::TreeView</text>
</a>
</g>
</g>
<!-- Node1&#45;&gt;Node5 -->
<g id="edge4" class="edge"><title>Node1&#45;&gt;Node5</title>
<path fill="none" stroke="midnightblue" d="M105.609,-56.6712C126.671,-48.2699 154.758,-37.452 180,-29 189.95,-25.6683 200.858,-22.3821 210.89,-19.5037"/>
<polygon fill="midnightblue" stroke="midnightblue" points="104.145,-53.4873 96.1697,-60.462 106.754,-59.9831 104.145,-53.4873"/>
</g>
<!-- Node6 -->
<g id="node6" class="node"><title>Node6</title>
<g id="a_node6"><a xlink:href="classjuce_1_1FileTreeComponent.html" target="_top" xlink:title="A component that displays the files in a directory as a treeview. ">
<polygon fill="none" stroke="black" points="350,-0.5 350,-19.5 476,-19.5 476,-0.5 350,-0.5"/>
<text text-anchor="middle" x="413" y="-7.5" font-family="Helvetica,sans-Serif" font-size="10.00">juce::FileTreeComponent</text>
</a>
</g>
</g>
<!-- Node5&#45;&gt;Node6 -->
<g id="edge5" class="edge"><title>Node5&#45;&gt;Node6</title>
<path fill="none" stroke="midnightblue" d="M298.485,-10C314.737,-10 332.936,-10 349.922,-10"/>
<polygon fill="midnightblue" stroke="midnightblue" points="298.119,-6.5001 288.119,-10 298.119,-13.5001 298.119,-6.5001"/>
</g>
</g>
</svg>
