<?xml version="1.0" encoding="UTF-8" standalone="no"?>
<!DOCTYPE svg PUBLIC "-//W3C//DTD SVG 1.1//EN"
 "http://www.w3.org/Graphics/SVG/1.1/DTD/svg11.dtd">
<!-- Generated by graphviz version 2.36.0 (20140111.2315)
 -->
<!-- Title: SynthesiserSound Pages: 1 -->
<svg width="134pt" height="140pt"
 viewBox="0.00 0.00 134.00 140.00" xmlns="http://www.w3.org/2000/svg" xmlns:xlink="http://www.w3.org/1999/xlink">
<g id="graph0" class="graph" transform="scale(1 1) rotate(0) translate(4 136)">
<title>SynthesiserSound</title>
<!-- Node1 -->
<g id="node1" class="node"><title>Node1</title>
<polygon fill="#bfbfbf" stroke="black" points="15,-56.5 15,-75.5 111,-75.5 111,-56.5 15,-56.5"/>
<text text-anchor="middle" x="63" y="-63.5" font-family="Helvetica,sans-Serif" font-size="10.00">SynthesiserSound</text>
</g>
<!-- Node3 -->
<g id="node3" class="node"><title>Node3</title>
<g id="a_node3"><a xlink:href="classSamplerSound.html" target="_top" xlink:title="A subclass of SynthesiserSound that represents a sampled audio clip. ">
<polygon fill="none" stroke="black" points="23,-0.5 23,-19.5 103,-19.5 103,-0.5 23,-0.5"/>
<text text-anchor="middle" x="63" y="-7.5" font-family="Helvetica,sans-Serif" font-size="10.00">SamplerSound</text>
</a>
</g>
</g>
<!-- Node1&#45;&gt;Node3 -->
<g id="edge2" class="edge"><title>Node1&#45;&gt;Node3</title>
<path fill="none" stroke="midnightblue" d="M63,-45.8045C63,-36.9102 63,-26.7798 63,-19.7511"/>
<polygon fill="midnightblue" stroke="midnightblue" points="59.5001,-46.083 63,-56.083 66.5001,-46.083 59.5001,-46.083"/>
</g>
<!-- Node2 -->
<g id="node2" class="node"><title>Node2</title>
<g id="a_node2"><a xlink:href="classReferenceCountedObject.html" target="_top" xlink:title="A base class which provides methods for reference&#45;counting. ">
<polygon fill="none" stroke="black" points="-0.5,-112.5 -0.5,-131.5 126.5,-131.5 126.5,-112.5 -0.5,-112.5"/>
<text text-anchor="middle" x="63" y="-119.5" font-family="Helvetica,sans-Serif" font-size="10.00">ReferenceCountedObject</text>
</a>
</g>
</g>
<!-- Node2&#45;&gt;Node1 -->
<g id="edge1" class="edge"><title>Node2&#45;&gt;Node1</title>
<path fill="none" stroke="midnightblue" d="M63,-101.805C63,-92.9102 63,-82.7798 63,-75.7511"/>
<polygon fill="midnightblue" stroke="midnightblue" points="59.5001,-102.083 63,-112.083 66.5001,-102.083 59.5001,-102.083"/>
</g>
</g>
</svg>
