<?xml version="1.0" encoding="UTF-8" standalone="no"?>
<!DOCTYPE svg PUBLIC "-//W3C//DTD SVG 1.1//EN"
 "http://www.w3.org/Graphics/SVG/1.1/DTD/svg11.dtd">
<!-- Generated by graphviz version 2.36.0 (20140111.2315)
 -->
<!-- Title: Button::Listener Pages: 1 -->
<svg width="288pt" height="484pt"
 viewBox="0.00 0.00 288.00 484.00" xmlns="http://www.w3.org/2000/svg" xmlns:xlink="http://www.w3.org/1999/xlink">
<g id="graph0" class="graph" transform="scale(1 1) rotate(0) translate(4 480)">
<title>Button::Listener</title>
<!-- Node1 -->
<g id="node1" class="node"><title>Node1</title>
<polygon fill="#bfbfbf" stroke="black" points="0,-228.5 0,-247.5 86,-247.5 86,-228.5 0,-228.5"/>
<text text-anchor="middle" x="43" y="-235.5" font-family="Helvetica,sans-Serif" font-size="10.00">Button::Listener</text>
</g>
<!-- Node2 -->
<g id="node2" class="node"><title>Node2</title>
<g id="a_node2"><a xlink:href="classAlertWindow.html" target="_top" xlink:title="A window that displays a message and has buttons for the user to react to it. ">
<polygon fill="none" stroke="black" points="165,-456.5 165,-475.5 237,-475.5 237,-456.5 165,-456.5"/>
<text text-anchor="middle" x="201" y="-463.5" font-family="Helvetica,sans-Serif" font-size="10.00">AlertWindow</text>
</a>
</g>
</g>
<!-- Node1&#45;&gt;Node2 -->
<g id="edge1" class="edge"><title>Node1&#45;&gt;Node2</title>
<path fill="none" stroke="#8b1a1a" d="M45.4026,-257.835C49.4481,-299.452 64.8295,-396.22 122,-447 133.671,-457.366 150.06,-462.299 164.804,-464.568"/>
<polygon fill="#8b1a1a" stroke="#8b1a1a" points="48.8708,-257.312 44.5368,-247.644 41.8959,-257.905 48.8708,-257.312"/>
</g>
<!-- Node3 -->
<g id="node3" class="node"><title>Node3</title>
<g id="a_node3"><a xlink:href="classAudioDeviceSelectorComponent.html" target="_top" xlink:title="A component containing controls to let the user change the audio settings of an AudioDeviceManager ob...">
<polygon fill="none" stroke="black" points="122,-418.5 122,-437.5 280,-437.5 280,-418.5 122,-418.5"/>
<text text-anchor="middle" x="201" y="-425.5" font-family="Helvetica,sans-Serif" font-size="10.00">AudioDeviceSelectorComponent</text>
</a>
</g>
</g>
<!-- Node1&#45;&gt;Node3 -->
<g id="edge2" class="edge"><title>Node1&#45;&gt;Node3</title>
<path fill="none" stroke="#8b1a1a" d="M47.2102,-257.626C54.1285,-293.409 73.894,-369.224 122,-409 126.619,-412.819 131.887,-415.891 137.455,-418.36"/>
<polygon fill="#8b1a1a" stroke="#8b1a1a" points="50.6066,-256.736 45.3958,-247.512 43.7165,-257.972 50.6066,-256.736"/>
</g>
<!-- Node4 -->
<g id="node4" class="node"><title>Node4</title>
<g id="a_node4"><a xlink:href="classBooleanPropertyComponent.html" target="_top" xlink:title="A PropertyComponent that contains an on/off toggle button. ">
<polygon fill="none" stroke="black" points="131.5,-380.5 131.5,-399.5 270.5,-399.5 270.5,-380.5 131.5,-380.5"/>
<text text-anchor="middle" x="201" y="-387.5" font-family="Helvetica,sans-Serif" font-size="10.00">BooleanPropertyComponent</text>
</a>
</g>
</g>
<!-- Node1&#45;&gt;Node4 -->
<g id="edge3" class="edge"><title>Node1&#45;&gt;Node4</title>
<path fill="none" stroke="#8b1a1a" d="M50.0233,-257.733C60.0356,-287.099 82.9614,-341.955 122,-371 127.144,-374.827 132.957,-377.892 139.034,-380.346"/>
<polygon fill="#8b1a1a" stroke="#8b1a1a" points="53.2267,-256.264 46.8117,-247.832 46.5683,-258.424 53.2267,-256.264"/>
</g>
<!-- Node5 -->
<g id="node5" class="node"><title>Node5</title>
<g id="a_node5"><a xlink:href="classButtonPropertyComponent.html" target="_top" xlink:title="A PropertyComponent that contains a button. ">
<polygon fill="none" stroke="black" points="135,-342.5 135,-361.5 267,-361.5 267,-342.5 135,-342.5"/>
<text text-anchor="middle" x="201" y="-349.5" font-family="Helvetica,sans-Serif" font-size="10.00">ButtonPropertyComponent</text>
</a>
</g>
</g>
<!-- Node1&#45;&gt;Node5 -->
<g id="edge4" class="edge"><title>Node1&#45;&gt;Node5</title>
<path fill="none" stroke="#8b1a1a" d="M54.1018,-256.436C66.9761,-278.149 91.2909,-313.698 122,-333 128.136,-336.857 134.998,-339.931 142.037,-342.381"/>
<polygon fill="#8b1a1a" stroke="#8b1a1a" points="57.0156,-254.481 49.0098,-247.541 50.9406,-257.959 57.0156,-254.481"/>
</g>
<!-- Node6 -->
<g id="node6" class="node"><title>Node6</title>
<g id="a_node6"><a xlink:href="classFileBrowserComponent.html" target="_top" xlink:title="A component for browsing and selecting a file or directory to open or save. ">
<polygon fill="none" stroke="black" points="141.5,-304.5 141.5,-323.5 260.5,-323.5 260.5,-304.5 141.5,-304.5"/>
<text text-anchor="middle" x="201" y="-311.5" font-family="Helvetica,sans-Serif" font-size="10.00">FileBrowserComponent</text>
</a>
</g>
</g>
<!-- Node1&#45;&gt;Node6 -->
<g id="edge5" class="edge"><title>Node1&#45;&gt;Node6</title>
<path fill="none" stroke="#8b1a1a" d="M62.1816,-254.517C77.2033,-267.328 99.6222,-284.601 122,-295 130.216,-298.818 139.288,-301.922 148.252,-304.428"/>
<polygon fill="#8b1a1a" stroke="#8b1a1a" points="64.0787,-251.527 54.2481,-247.576 59.4692,-256.795 64.0787,-251.527"/>
</g>
<!-- Node7 -->
<g id="node7" class="node"><title>Node7</title>
<g id="a_node7"><a xlink:href="classFileChooserDialogBox.html" target="_top" xlink:title="A file open/save dialog box. ">
<polygon fill="none" stroke="black" points="144,-266.5 144,-285.5 258,-285.5 258,-266.5 144,-266.5"/>
<text text-anchor="middle" x="201" y="-273.5" font-family="Helvetica,sans-Serif" font-size="10.00">FileChooserDialogBox</text>
</a>
</g>
</g>
<!-- Node1&#45;&gt;Node7 -->
<g id="edge6" class="edge"><title>Node1&#45;&gt;Node7</title>
<path fill="none" stroke="#8b1a1a" d="M93.1317,-249.968C114.993,-255.293 140.376,-261.476 160.918,-266.48"/>
<polygon fill="#8b1a1a" stroke="#8b1a1a" points="93.9097,-246.555 83.3654,-247.589 92.2529,-253.356 93.9097,-246.555"/>
</g>
<!-- Node8 -->
<g id="node8" class="node"><title>Node8</title>
<g id="a_node8"><a xlink:href="classFilenameComponent.html" target="_top" xlink:title="Shows a filename as an editable text box, with a &#39;browse&#39; button and a drop&#45;down list for recently se...">
<polygon fill="none" stroke="black" points="147.5,-228.5 147.5,-247.5 254.5,-247.5 254.5,-228.5 147.5,-228.5"/>
<text text-anchor="middle" x="201" y="-235.5" font-family="Helvetica,sans-Serif" font-size="10.00">FilenameComponent</text>
</a>
</g>
</g>
<!-- Node1&#45;&gt;Node8 -->
<g id="edge7" class="edge"><title>Node1&#45;&gt;Node8</title>
<path fill="none" stroke="#8b1a1a" d="M96.2251,-238C112.709,-238 130.923,-238 147.431,-238"/>
<polygon fill="#8b1a1a" stroke="#8b1a1a" points="96.2159,-234.5 86.2158,-238 96.2158,-241.5 96.2159,-234.5"/>
</g>
<!-- Node9 -->
<g id="node9" class="node"><title>Node9</title>
<g id="a_node9"><a xlink:href="classFileSearchPathListComponent.html" target="_top" xlink:title="Shows a set of file paths in a list, allowing them to be added, removed or re&#45;ordered. ">
<polygon fill="none" stroke="black" points="126.5,-190.5 126.5,-209.5 275.5,-209.5 275.5,-190.5 126.5,-190.5"/>
<text text-anchor="middle" x="201" y="-197.5" font-family="Helvetica,sans-Serif" font-size="10.00">FileSearchPathListComponent</text>
</a>
</g>
</g>
<!-- Node1&#45;&gt;Node9 -->
<g id="edge8" class="edge"><title>Node1&#45;&gt;Node9</title>
<path fill="none" stroke="#8b1a1a" d="M93.1317,-226.032C114.993,-220.707 140.376,-214.524 160.918,-209.52"/>
<polygon fill="#8b1a1a" stroke="#8b1a1a" points="92.2529,-222.644 83.3654,-228.411 93.9097,-229.445 92.2529,-222.644"/>
</g>
<!-- Node10 -->
<g id="node10" class="node"><title>Node10</title>
<g id="a_node10"><a xlink:href="classOnlineUnlockForm.html" target="_top" xlink:title="Acts as a GUI which asks the user for their details, and calls the approriate methods on your OnlineU...">
<polygon fill="none" stroke="black" points="152,-152.5 152,-171.5 250,-171.5 250,-152.5 152,-152.5"/>
<text text-anchor="middle" x="201" y="-159.5" font-family="Helvetica,sans-Serif" font-size="10.00">OnlineUnlockForm</text>
</a>
</g>
</g>
<!-- Node1&#45;&gt;Node10 -->
<g id="edge9" class="edge"><title>Node1&#45;&gt;Node10</title>
<path fill="none" stroke="#8b1a1a" d="M62.1816,-221.483C77.2033,-208.672 99.6222,-191.399 122,-181 131.353,-176.654 141.817,-173.232 151.967,-170.565"/>
<polygon fill="#8b1a1a" stroke="#8b1a1a" points="59.4692,-219.205 54.2481,-228.424 64.0787,-224.473 59.4692,-219.205"/>
</g>
<!-- Node11 -->
<g id="node11" class="node"><title>Node11</title>
<g id="a_node11"><a xlink:href="classPluginListComponent.html" target="_top" xlink:title="A component displaying a list of plugins, with options to scan for them, add, remove and sort them...">
<polygon fill="none" stroke="black" points="146,-114.5 146,-133.5 256,-133.5 256,-114.5 146,-114.5"/>
<text text-anchor="middle" x="201" y="-121.5" font-family="Helvetica,sans-Serif" font-size="10.00">PluginListComponent</text>
</a>
</g>
</g>
<!-- Node1&#45;&gt;Node11 -->
<g id="edge10" class="edge"><title>Node1&#45;&gt;Node11</title>
<path fill="none" stroke="#8b1a1a" d="M54.1018,-219.564C66.9761,-197.851 91.2909,-162.302 122,-143 129.198,-138.476 137.395,-135.029 145.705,-132.402"/>
<polygon fill="#8b1a1a" stroke="#8b1a1a" points="50.9406,-218.041 49.0098,-228.459 57.0156,-221.519 50.9406,-218.041"/>
</g>
<!-- Node12 -->
<g id="node12" class="node"><title>Node12</title>
<g id="a_node12"><a xlink:href="classPreferencesPanel.html" target="_top" xlink:title="A component with a set of buttons at the top for changing between pages of preferences. ">
<polygon fill="none" stroke="black" points="154,-76.5 154,-95.5 248,-95.5 248,-76.5 154,-76.5"/>
<text text-anchor="middle" x="201" y="-83.5" font-family="Helvetica,sans-Serif" font-size="10.00">PreferencesPanel</text>
</a>
</g>
</g>
<!-- Node1&#45;&gt;Node12 -->
<g id="edge11" class="edge"><title>Node1&#45;&gt;Node12</title>
<path fill="none" stroke="#8b1a1a" d="M50.0233,-218.267C60.0356,-188.901 82.9614,-134.045 122,-105 131.281,-98.0946 142.743,-93.6697 153.996,-90.8427"/>
<polygon fill="#8b1a1a" stroke="#8b1a1a" points="46.5683,-217.576 46.8117,-228.168 53.2267,-219.736 46.5683,-217.576"/>
</g>
<!-- Node13 -->
<g id="node13" class="node"><title>Node13</title>
<g id="a_node13"><a xlink:href="classStandaloneFilterWindow.html" target="_top" xlink:title="A class that can be used to run a simple standalone application containing your filter. ">
<polygon fill="none" stroke="black" points="140,-38.5 140,-57.5 262,-57.5 262,-38.5 140,-38.5"/>
<text text-anchor="middle" x="201" y="-45.5" font-family="Helvetica,sans-Serif" font-size="10.00">StandaloneFilterWindow</text>
</a>
</g>
</g>
<!-- Node1&#45;&gt;Node13 -->
<g id="edge12" class="edge"><title>Node1&#45;&gt;Node13</title>
<path fill="none" stroke="midnightblue" d="M47.2102,-218.374C54.1285,-182.591 73.894,-106.776 122,-67 127.263,-62.6481 133.369,-59.2661 139.803,-56.6421"/>
<polygon fill="midnightblue" stroke="midnightblue" points="43.7165,-218.028 45.3958,-228.488 50.6066,-219.264 43.7165,-218.028"/>
</g>
<!-- Node14 -->
<g id="node14" class="node"><title>Node14</title>
<g id="a_node14"><a xlink:href="classToolbar.html" target="_top" xlink:title="A toolbar component. ">
<polygon fill="none" stroke="black" points="176.5,-0.5 176.5,-19.5 225.5,-19.5 225.5,-0.5 176.5,-0.5"/>
<text text-anchor="middle" x="201" y="-7.5" font-family="Helvetica,sans-Serif" font-size="10.00">Toolbar</text>
</a>
</g>
</g>
<!-- Node1&#45;&gt;Node14 -->
<g id="edge13" class="edge"><title>Node1&#45;&gt;Node14</title>
<path fill="none" stroke="#8b1a1a" d="M45.4026,-218.165C49.4481,-176.548 64.8295,-79.7799 122,-29 136.797,-15.8568 159.178,-11.4485 176.176,-10.1286"/>
<polygon fill="#8b1a1a" stroke="#8b1a1a" points="41.8959,-218.095 44.5368,-228.356 48.8708,-218.688 41.8959,-218.095"/>
</g>
</g>
</svg>
