<?xml version="1.0" encoding="UTF-8" standalone="no"?>
<!DOCTYPE svg PUBLIC "-//W3C//DTD SVG 1.1//EN"
 "http://www.w3.org/Graphics/SVG/1.1/DTD/svg11.dtd">
<!-- Generated by graphviz version 2.36.0 (20140111.2315)
 -->
<!-- Title: ThreadWithProgressWindow Pages: 1 -->
<svg width="148pt" height="84pt"
 viewBox="0.00 0.00 148.00 84.00" xmlns="http://www.w3.org/2000/svg" xmlns:xlink="http://www.w3.org/1999/xlink">
<g id="graph0" class="graph" transform="scale(1 1) rotate(0) translate(4 80)">
<title>ThreadWithProgressWindow</title>
<!-- Node1 -->
<g id="node1" class="node"><title>Node1</title>
<polygon fill="#bfbfbf" stroke="black" points="-0.5,-0.5 -0.5,-19.5 140.5,-19.5 140.5,-0.5 -0.5,-0.5"/>
<text text-anchor="middle" x="70" y="-7.5" font-family="Helvetica,sans-Serif" font-size="10.00">ThreadWithProgressWindow</text>
</g>
<!-- Node2 -->
<g id="node2" class="node"><title>Node2</title>
<g id="a_node2"><a xlink:href="classThread.html" target="_top" xlink:title="Encapsulates a thread. ">
<polygon fill="none" stroke="black" points="15.5,-56.5 15.5,-75.5 62.5,-75.5 62.5,-56.5 15.5,-56.5"/>
<text text-anchor="middle" x="39" y="-63.5" font-family="Helvetica,sans-Serif" font-size="10.00">Thread</text>
</a>
</g>
</g>
<!-- Node2&#45;&gt;Node1 -->
<g id="edge1" class="edge"><title>Node2&#45;&gt;Node1</title>
<path fill="none" stroke="midnightblue" d="M49.1756,-47.2747C54.4739,-38.0454 60.717,-27.1703 64.9762,-19.7511"/>
<polygon fill="midnightblue" stroke="midnightblue" points="46.0624,-45.6679 44.119,-56.083 52.1331,-49.153 46.0624,-45.6679"/>
</g>
<!-- Node3 -->
<g id="node3" class="node"><title>Node3</title>
<g id="a_node3"><a xlink:href="classTimer.html" target="_top" xlink:title="Makes repeated callbacks to a virtual method at a specified time interval. ">
<polygon fill="none" stroke="black" points="80.5,-56.5 80.5,-75.5 121.5,-75.5 121.5,-56.5 80.5,-56.5"/>
<text text-anchor="middle" x="101" y="-63.5" font-family="Helvetica,sans-Serif" font-size="10.00">Timer</text>
</a>
</g>
</g>
<!-- Node3&#45;&gt;Node1 -->
<g id="edge2" class="edge"><title>Node3&#45;&gt;Node1</title>
<path fill="none" stroke="#8b1a1a" d="M90.8244,-47.2747C85.5261,-38.0454 79.283,-27.1703 75.0238,-19.7511"/>
<polygon fill="#8b1a1a" stroke="#8b1a1a" points="87.8669,-49.153 95.881,-56.083 93.9376,-45.6679 87.8669,-49.153"/>
</g>
</g>
</svg>
