<?xml version="1.0" encoding="UTF-8" standalone="no"?>
<!DOCTYPE svg PUBLIC "-//W3C//DTD SVG 1.1//EN"
 "http://www.w3.org/Graphics/SVG/1.1/DTD/svg11.dtd">
<!-- Generated by graphviz version 2.36.0 (20140111.2315)
 -->
<!-- Title: DragAndDropContainer Pages: 1 -->
<svg width="173pt" height="84pt"
 viewBox="0.00 0.00 173.00 84.00" xmlns="http://www.w3.org/2000/svg" xmlns:xlink="http://www.w3.org/1999/xlink">
<g id="graph0" class="graph" transform="scale(1 1) rotate(0) translate(4 80)">
<title>DragAndDropContainer</title>
<!-- Node1 -->
<g id="node1" class="node"><title>Node1</title>
<polygon fill="#bfbfbf" stroke="black" points="11,-56.5 11,-75.5 129,-75.5 129,-56.5 11,-56.5"/>
<text text-anchor="middle" x="70" y="-63.5" font-family="Helvetica,sans-Serif" font-size="10.00">DragAndDropContainer</text>
</g>
<!-- Node2 -->
<g id="node2" class="node"><title>Node2</title>
<g id="a_node2"><a xlink:href="classToolbar.html" target="_top" xlink:title="A toolbar component. ">
<polygon fill="none" stroke="black" points="-0.5,-0.5 -0.5,-19.5 48.5,-19.5 48.5,-0.5 -0.5,-0.5"/>
<text text-anchor="middle" x="24" y="-7.5" font-family="Helvetica,sans-Serif" font-size="10.00">Toolbar</text>
</a>
</g>
</g>
<!-- Node1&#45;&gt;Node2 -->
<g id="edge1" class="edge"><title>Node1&#45;&gt;Node2</title>
<path fill="none" stroke="midnightblue" d="M55.886,-48.4314C47.824,-38.9673 38.0408,-27.4827 31.4546,-19.7511"/>
<polygon fill="midnightblue" stroke="midnightblue" points="53.255,-50.7402 62.404,-56.083 58.5837,-46.2009 53.255,-50.7402"/>
</g>
<!-- Node3 -->
<g id="node3" class="node"><title>Node3</title>
<g id="a_node3"><a xlink:href="classToolbarItemPalette.html" target="_top" xlink:title="A component containing a list of toolbar items, which the user can drag onto a toolbar to add them...">
<polygon fill="none" stroke="black" points="66.5,-0.5 66.5,-19.5 165.5,-19.5 165.5,-0.5 66.5,-0.5"/>
<text text-anchor="middle" x="116" y="-7.5" font-family="Helvetica,sans-Serif" font-size="10.00">ToolbarItemPalette</text>
</a>
</g>
</g>
<!-- Node1&#45;&gt;Node3 -->
<g id="edge2" class="edge"><title>Node1&#45;&gt;Node3</title>
<path fill="none" stroke="midnightblue" d="M84.114,-48.4314C92.176,-38.9673 101.959,-27.4827 108.545,-19.7511"/>
<polygon fill="midnightblue" stroke="midnightblue" points="81.4163,-46.2009 77.596,-56.083 86.745,-50.7402 81.4163,-46.2009"/>
</g>
</g>
</svg>
