<?xml version="1.0" encoding="UTF-8" standalone="no"?>
<!DOCTYPE svg PUBLIC "-//W3C//DTD SVG 1.1//EN"
 "http://www.w3.org/Graphics/SVG/1.1/DTD/svg11.dtd">
<!-- Generated by graphviz version 2.36.0 (20140111.2315)
 -->
<!-- Title: FileListComponent Pages: 1 -->
<svg width="470pt" height="208pt"
 viewBox="0.00 0.00 470.00 208.00" xmlns="http://www.w3.org/2000/svg" xmlns:xlink="http://www.w3.org/1999/xlink">
<g id="graph0" class="graph" transform="scale(1 1) rotate(0) translate(4 204)">
<title>FileListComponent</title>
<!-- Node1 -->
<g id="node1" class="node"><title>Node1</title>
<polygon fill="#bfbfbf" stroke="black" points="211,-0.5 211,-19.5 309,-19.5 309,-0.5 211,-0.5"/>
<text text-anchor="middle" x="260" y="-7.5" font-family="Helvetica,sans-Serif" font-size="10.00">FileListComponent</text>
</g>
<!-- Node2 -->
<g id="node2" class="node"><title>Node2</title>
<g id="a_node2"><a xlink:href="group__juce__gui__basics-widgets.html#classListBox" target="_top" xlink:title="A list of items that can be scrolled vertically. ">
<polygon fill="none" stroke="black" points="67,-62.5 67,-81.5 117,-81.5 117,-62.5 67,-62.5"/>
<text text-anchor="middle" x="92" y="-69.5" font-family="Helvetica,sans-Serif" font-size="10.00">ListBox</text>
</a>
</g>
</g>
<!-- Node2&#45;&gt;Node1 -->
<g id="edge1" class="edge"><title>Node2&#45;&gt;Node1</title>
<path fill="none" stroke="midnightblue" d="M120.21,-58.3198C122.162,-57.5152 124.105,-56.7344 126,-56 162.154,-41.988 204.724,-28.1307 232.018,-19.5745"/>
<polygon fill="midnightblue" stroke="midnightblue" points="118.397,-55.2887 110.577,-62.4373 121.148,-61.7254 118.397,-55.2887"/>
</g>
<!-- Node3 -->
<g id="node3" class="node"><title>Node3</title>
<g id="a_node3"><a xlink:href="group__juce__gui__basics-components.html#classComponent" target="_top" xlink:title="The base class for all JUCE user&#45;interface objects. ">
<polygon fill="none" stroke="black" points="6.5,-124.5 6.5,-143.5 73.5,-143.5 73.5,-124.5 6.5,-124.5"/>
<text text-anchor="middle" x="40" y="-131.5" font-family="Helvetica,sans-Serif" font-size="10.00">Component</text>
</a>
</g>
</g>
<!-- Node3&#45;&gt;Node2 -->
<g id="edge2" class="edge"><title>Node3&#45;&gt;Node2</title>
<path fill="none" stroke="midnightblue" d="M54.2729,-116.531C64.0756,-105.22 76.6918,-90.6633 84.5635,-81.5806"/>
<polygon fill="midnightblue" stroke="midnightblue" points="51.3548,-114.554 47.4503,-124.403 56.6446,-119.139 51.3548,-114.554"/>
</g>
<!-- Node4 -->
<g id="node4" class="node"><title>Node4</title>
<g id="a_node4"><a xlink:href="group__juce__gui__basics-mouse.html#classMouseListener" target="_top" xlink:title="A MouseListener can be registered with a component to receive callbacks about mouse events that happe...">
<polygon fill="none" stroke="black" points="0,-180.5 0,-199.5 80,-199.5 80,-180.5 0,-180.5"/>
<text text-anchor="middle" x="40" y="-187.5" font-family="Helvetica,sans-Serif" font-size="10.00">MouseListener</text>
</a>
</g>
</g>
<!-- Node4&#45;&gt;Node3 -->
<g id="edge3" class="edge"><title>Node4&#45;&gt;Node3</title>
<path fill="none" stroke="midnightblue" d="M40,-169.805C40,-160.91 40,-150.78 40,-143.751"/>
<polygon fill="midnightblue" stroke="midnightblue" points="36.5001,-170.083 40,-180.083 43.5001,-170.083 36.5001,-170.083"/>
</g>
<!-- Node5 -->
<g id="node5" class="node"><title>Node5</title>
<g id="a_node5"><a xlink:href="group__juce__gui__basics-mouse.html#classSettableTooltipClient" target="_top" xlink:title="An implementation of TooltipClient that stores the tooltip string and a method for changing it...">
<polygon fill="none" stroke="black" points="91.5,-124.5 91.5,-143.5 198.5,-143.5 198.5,-124.5 91.5,-124.5"/>
<text text-anchor="middle" x="145" y="-131.5" font-family="Helvetica,sans-Serif" font-size="10.00">SettableTooltipClient</text>
</a>
</g>
</g>
<!-- Node5&#45;&gt;Node2 -->
<g id="edge4" class="edge"><title>Node5&#45;&gt;Node2</title>
<path fill="none" stroke="midnightblue" d="M130.746,-116.863C120.714,-105.506 107.681,-90.7524 99.5795,-81.5806"/>
<polygon fill="midnightblue" stroke="midnightblue" points="128.163,-119.226 137.406,-124.403 133.409,-114.592 128.163,-119.226"/>
</g>
<!-- Node6 -->
<g id="node6" class="node"><title>Node6</title>
<g id="a_node6"><a xlink:href="group__juce__gui__basics-mouse.html#classTooltipClient" target="_top" xlink:title="Components that want to use pop&#45;up tooltips should implement this interface. ">
<polygon fill="none" stroke="black" points="109.5,-180.5 109.5,-199.5 180.5,-199.5 180.5,-180.5 109.5,-180.5"/>
<text text-anchor="middle" x="145" y="-187.5" font-family="Helvetica,sans-Serif" font-size="10.00">TooltipClient</text>
</a>
</g>
</g>
<!-- Node6&#45;&gt;Node5 -->
<g id="edge5" class="edge"><title>Node6&#45;&gt;Node5</title>
<path fill="none" stroke="midnightblue" d="M145,-169.805C145,-160.91 145,-150.78 145,-143.751"/>
<polygon fill="midnightblue" stroke="midnightblue" points="141.5,-170.083 145,-180.083 148.5,-170.083 141.5,-170.083"/>
</g>
<!-- Node7 -->
<g id="node7" class="node"><title>Node7</title>
<g id="a_node7"><a xlink:href="group__juce__gui__basics-filebrowser.html#classDirectoryContentsDisplayComponent" target="_top" xlink:title="A base class for components that display a list of the files in a directory. ">
<polygon fill="none" stroke="black" points="135.5,-57 135.5,-87 264.5,-87 264.5,-57 135.5,-57"/>
<text text-anchor="start" x="143.5" y="-75" font-family="Helvetica,sans-Serif" font-size="10.00">DirectoryContentsDisplay</text>
<text text-anchor="middle" x="200" y="-64" font-family="Helvetica,sans-Serif" font-size="10.00">Component</text>
</a>
</g>
</g>
<!-- Node7&#45;&gt;Node1 -->
<g id="edge6" class="edge"><title>Node7&#45;&gt;Node1</title>
<path fill="none" stroke="midnightblue" d="M221.378,-49.622C231.676,-39.3242 243.455,-27.5451 251.269,-19.7305"/>
<polygon fill="midnightblue" stroke="midnightblue" points="218.815,-47.2349 214.219,-56.7808 223.765,-52.1846 218.815,-47.2349"/>
</g>
<!-- Node8 -->
<g id="node8" class="node"><title>Node8</title>
<g id="a_node8"><a xlink:href="group__juce__gui__basics-widgets.html#classListBoxModel" target="_top" xlink:title="A subclass of this is used to drive a ListBox. ">
<polygon fill="none" stroke="black" points="283,-62.5 283,-81.5 359,-81.5 359,-62.5 283,-62.5"/>
<text text-anchor="middle" x="321" y="-69.5" font-family="Helvetica,sans-Serif" font-size="10.00">ListBoxModel</text>
</a>
</g>
</g>
<!-- Node8&#45;&gt;Node1 -->
<g id="edge7" class="edge"><title>Node8&#45;&gt;Node1</title>
<path fill="none" stroke="#8b1a1a" d="M304.929,-55.1928C293.34,-43.7935 278.139,-28.8414 268.724,-19.5806"/>
<polygon fill="#8b1a1a" stroke="#8b1a1a" points="302.677,-57.8863 312.26,-62.4035 307.585,-52.8958 302.677,-57.8863"/>
</g>
<!-- Node9 -->
<g id="node9" class="node"><title>Node9</title>
<g id="a_node9"><a xlink:href="group__juce__events-broadcasters.html#classChangeListener" target="_top" xlink:title="Receives change event callbacks that are sent out by a ChangeBroadcaster. ">
<polygon fill="none" stroke="black" points="377.5,-62.5 377.5,-81.5 462.5,-81.5 462.5,-62.5 377.5,-62.5"/>
<text text-anchor="middle" x="420" y="-69.5" font-family="Helvetica,sans-Serif" font-size="10.00">ChangeListener</text>
</a>
</g>
</g>
<!-- Node9&#45;&gt;Node1 -->
<g id="edge8" class="edge"><title>Node9&#45;&gt;Node1</title>
<path fill="none" stroke="#8b1a1a" d="M387.551,-58.8315C356.453,-47.1697 310.308,-29.8655 282.882,-19.5806"/>
<polygon fill="#8b1a1a" stroke="#8b1a1a" points="386.484,-62.1693 397.076,-62.4035 388.942,-55.615 386.484,-62.1693"/>
</g>
</g>
</svg>
