<?xml version="1.0" encoding="UTF-8" standalone="no"?>
<!DOCTYPE svg PUBLIC "-//W3C//DTD SVG 1.1//EN"
 "http://www.w3.org/Graphics/SVG/1.1/DTD/svg11.dtd">
<!-- Generated by graphviz version 2.36.0 (20140111.2315)
 -->
<!-- Title: ComponentListener Pages: 1 -->
<svg width="312pt" height="218pt"
 viewBox="0.00 0.00 312.00 218.00" xmlns="http://www.w3.org/2000/svg" xmlns:xlink="http://www.w3.org/1999/xlink">
<g id="graph0" class="graph" transform="scale(1 1) rotate(0) translate(4 214)">
<title>ComponentListener</title>
<!-- Node1 -->
<g id="node1" class="node"><title>Node1</title>
<polygon fill="#bfbfbf" stroke="black" points="0.5,-95.5 0.5,-114.5 101.5,-114.5 101.5,-95.5 0.5,-95.5"/>
<text text-anchor="middle" x="51" y="-102.5" font-family="Helvetica,sans-Serif" font-size="10.00">ComponentListener</text>
</g>
<!-- Node2 -->
<g id="node2" class="node"><title>Node2</title>
<g id="a_node2"><a xlink:href="group__juce__gui__basics-layout.html#classComponentMovementWatcher" target="_top" xlink:title="An object that watches for any movement of a component or any of its parent components. ">
<polygon fill="none" stroke="black" points="146.5,-190.5 146.5,-209.5 295.5,-209.5 295.5,-190.5 146.5,-190.5"/>
<text text-anchor="middle" x="221" y="-197.5" font-family="Helvetica,sans-Serif" font-size="10.00">ComponentMovementWatcher</text>
</a>
</g>
</g>
<!-- Node1&#45;&gt;Node2 -->
<g id="edge1" class="edge"><title>Node1&#45;&gt;Node2</title>
<path fill="none" stroke="midnightblue" d="M66.7921,-122.378C82.6333,-139.852 109.383,-166.257 138,-181 145.535,-184.882 153.864,-187.98 162.242,-190.45"/>
<polygon fill="midnightblue" stroke="midnightblue" points="69.1736,-119.787 59.9314,-114.607 63.9261,-124.42 69.1736,-119.787"/>
</g>
<!-- Node3 -->
<g id="node3" class="node"><title>Node3</title>
<g id="a_node3"><a xlink:href="group__juce__gui__basics-misc.html#classDropShadower" target="_top" xlink:title="Adds a drop&#45;shadow to a component. ">
<polygon fill="none" stroke="black" points="180.5,-152.5 180.5,-171.5 261.5,-171.5 261.5,-152.5 180.5,-152.5"/>
<text text-anchor="middle" x="221" y="-159.5" font-family="Helvetica,sans-Serif" font-size="10.00">DropShadower</text>
</a>
</g>
</g>
<!-- Node1&#45;&gt;Node3 -->
<g id="edge2" class="edge"><title>Node1&#45;&gt;Node3</title>
<path fill="none" stroke="#8b1a1a" d="M79.8503,-118.908C96.4327,-126.781 118.066,-136.352 138,-143 151.586,-147.53 166.786,-151.377 180.375,-154.398"/>
<polygon fill="#8b1a1a" stroke="#8b1a1a" points="81.2489,-115.697 70.7215,-114.503 78.207,-122.001 81.2489,-115.697"/>
</g>
<!-- Node4 -->
<g id="node4" class="node"><title>Node4</title>
<g id="a_node4"><a xlink:href="group__juce__gui__basics-widgets.html#classLabel" target="_top" xlink:title="A component that displays a text string, and can optionally become a text editor when clicked...">
<polygon fill="none" stroke="black" points="201,-114.5 201,-133.5 241,-133.5 241,-114.5 201,-114.5"/>
<text text-anchor="middle" x="221" y="-121.5" font-family="Helvetica,sans-Serif" font-size="10.00">Label</text>
</a>
</g>
</g>
<!-- Node1&#45;&gt;Node4 -->
<g id="edge3" class="edge"><title>Node1&#45;&gt;Node4</title>
<path fill="none" stroke="#8b1a1a" d="M111.919,-111.777C143.226,-115.317 179.407,-119.409 200.958,-121.846"/>
<polygon fill="#8b1a1a" stroke="#8b1a1a" points="112.281,-108.295 101.951,-110.649 111.494,-115.251 112.281,-108.295"/>
</g>
<!-- Node5 -->
<g id="node5" class="node"><title>Node5</title>
<g id="a_node5"><a xlink:href="group__juce__gui__basics-layout.html#classMultiDocumentPanel" target="_top" xlink:title="A component that contains a set of other components either in floating windows or tabs...">
<polygon fill="none" stroke="black" points="167.5,-76.5 167.5,-95.5 274.5,-95.5 274.5,-76.5 167.5,-76.5"/>
<text text-anchor="middle" x="221" y="-83.5" font-family="Helvetica,sans-Serif" font-size="10.00">MultiDocumentPanel</text>
</a>
</g>
</g>
<!-- Node1&#45;&gt;Node5 -->
<g id="edge4" class="edge"><title>Node1&#45;&gt;Node5</title>
<path fill="none" stroke="#8b1a1a" d="M112.076,-98.2056C130.128,-96.1641 149.787,-93.9407 167.322,-91.9577"/>
<polygon fill="#8b1a1a" stroke="#8b1a1a" points="111.494,-94.7491 101.951,-99.3508 112.281,-101.705 111.494,-94.7491"/>
</g>
<!-- Node6 -->
<g id="node6" class="node"><title>Node6</title>
<g id="a_node6"><a xlink:href="group__juce__gui__basics-positioning.html#classRelativeCoordinatePositionerBase" target="_top" xlink:title="Base class for Component::Positioners that are based upon relative coordinates. ">
<polygon fill="none" stroke="black" points="138,-38.5 138,-57.5 304,-57.5 304,-38.5 138,-38.5"/>
<text text-anchor="middle" x="221" y="-45.5" font-family="Helvetica,sans-Serif" font-size="10.00">RelativeCoordinatePositionerBase</text>
</a>
</g>
</g>
<!-- Node1&#45;&gt;Node6 -->
<g id="edge5" class="edge"><title>Node1&#45;&gt;Node6</title>
<path fill="none" stroke="midnightblue" d="M79.8503,-91.0921C96.4327,-83.2188 118.066,-73.6476 138,-67 148.813,-63.3942 160.649,-60.2218 171.881,-57.5534"/>
<polygon fill="midnightblue" stroke="midnightblue" points="78.207,-87.9989 70.7215,-95.4968 81.2489,-94.3034 78.207,-87.9989"/>
</g>
<!-- Node7 -->
<g id="node7" class="node"><title>Node7</title>
<g id="a_node7"><a xlink:href="group__juce__gui__basics-layout.html#classViewport" target="_top" xlink:title="A Viewport is used to contain a larger child component, and allows the child to be automatically scro...">
<polygon fill="none" stroke="black" points="193.5,-0.5 193.5,-19.5 248.5,-19.5 248.5,-0.5 193.5,-0.5"/>
<text text-anchor="middle" x="221" y="-7.5" font-family="Helvetica,sans-Serif" font-size="10.00">Viewport</text>
</a>
</g>
</g>
<!-- Node1&#45;&gt;Node7 -->
<g id="edge6" class="edge"><title>Node1&#45;&gt;Node7</title>
<path fill="none" stroke="#8b1a1a" d="M66.7921,-87.6222C82.6333,-70.1475 109.383,-43.7431 138,-29 155.278,-20.0989 176.736,-15.3183 193.367,-12.7792"/>
<polygon fill="#8b1a1a" stroke="#8b1a1a" points="63.9261,-85.5802 59.9314,-95.3931 69.1736,-90.2131 63.9261,-85.5802"/>
</g>
</g>
</svg>
