<?xml version="1.0" encoding="UTF-8" standalone="no"?>
<!DOCTYPE svg PUBLIC "-//W3C//DTD SVG 1.1//EN"
 "http://www.w3.org/Graphics/SVG/1.1/DTD/svg11.dtd">
<!-- Generated by graphviz version 2.36.0 (20140111.2315)
 -->
<!-- Title: juce::FocusChangeListener Pages: 1 -->
<svg width="295pt" height="96pt"
 viewBox="0.00 0.00 295.00 96.00" xmlns="http://www.w3.org/2000/svg" xmlns:xlink="http://www.w3.org/1999/xlink">
<g id="graph0" class="graph" transform="scale(1 1) rotate(0) translate(4 92)">
<title>juce::FocusChangeListener</title>
<!-- Node1 -->
<g id="node1" class="node"><title>Node1</title>
<polygon fill="#bfbfbf" stroke="black" points="75,-68.5 75,-87.5 211,-87.5 211,-68.5 75,-68.5"/>
<text text-anchor="middle" x="143" y="-75.5" font-family="Helvetica,sans-Serif" font-size="10.00">juce::FocusChangeListener</text>
</g>
<!-- Node2 -->
<g id="node2" class="node"><title>Node2</title>
<g id="a_node2"><a xlink:href="classjuce_1_1ApplicationCommandManager.html" target="_top" xlink:title="One of these objects holds a list of all the commands your app can perform, and despatches these comm...">
<polygon fill="none" stroke="black" points="0,-1 0,-31 134,-31 134,-1 0,-1"/>
<text text-anchor="start" x="8" y="-19" font-family="Helvetica,sans-Serif" font-size="10.00">juce::ApplicationCommand</text>
<text text-anchor="middle" x="67" y="-8" font-family="Helvetica,sans-Serif" font-size="10.00">Manager</text>
</a>
</g>
</g>
<!-- Node1&#45;&gt;Node2 -->
<g id="edge1" class="edge"><title>Node1&#45;&gt;Node2</title>
<path fill="none" stroke="#8b1a1a" d="M124.09,-62.0711C112.106,-52.6097 96.699,-40.4466 84.9117,-31.1408"/>
<polygon fill="#8b1a1a" stroke="#8b1a1a" points="122.093,-64.9541 132.111,-68.4035 126.431,-59.4599 122.093,-64.9541"/>
</g>
<!-- Node3 -->
<g id="node3" class="node"><title>Node3</title>
<g id="a_node3"><a xlink:href="classjuce_1_1KeyPressMappingSet.html" target="_top" xlink:title="Manages and edits a list of keypresses, which it uses to invoke the appropriate command in an Applica...">
<polygon fill="none" stroke="black" points="152.5,-6.5 152.5,-25.5 287.5,-25.5 287.5,-6.5 152.5,-6.5"/>
<text text-anchor="middle" x="220" y="-13.5" font-family="Helvetica,sans-Serif" font-size="10.00">juce::KeyPressMappingSet</text>
</a>
</g>
</g>
<!-- Node1&#45;&gt;Node3 -->
<g id="edge2" class="edge"><title>Node1&#45;&gt;Node3</title>
<path fill="none" stroke="#8b1a1a" d="M162.032,-62.1702C176.802,-50.6608 196.761,-35.1086 208.988,-25.5806"/>
<polygon fill="#8b1a1a" stroke="#8b1a1a" points="159.769,-59.4961 154.032,-68.4035 164.072,-65.0177 159.769,-59.4961"/>
</g>
</g>
</svg>
