<?xml version="1.0" encoding="UTF-8" standalone="no"?>
<!DOCTYPE svg PUBLIC "-//W3C//DTD SVG 1.1//EN"
 "http://www.w3.org/Graphics/SVG/1.1/DTD/svg11.dtd">
<!-- Generated by graphviz version 2.36.0 (20140111.2315)
 -->
<!-- Title: DrawableComposite Pages: 1 -->
<svg width="242pt" height="196pt"
 viewBox="0.00 0.00 242.00 196.00" xmlns="http://www.w3.org/2000/svg" xmlns:xlink="http://www.w3.org/1999/xlink">
<g id="graph0" class="graph" transform="scale(1 1) rotate(0) translate(4 192)">
<title>DrawableComposite</title>
<!-- Node1 -->
<g id="node1" class="node"><title>Node1</title>
<polygon fill="#bfbfbf" stroke="black" points="48.5,-0.5 48.5,-19.5 153.5,-19.5 153.5,-0.5 48.5,-0.5"/>
<text text-anchor="middle" x="101" y="-7.5" font-family="Helvetica,sans-Serif" font-size="10.00">DrawableComposite</text>
</g>
<!-- Node2 -->
<g id="node2" class="node"><title>Node2</title>
<g id="a_node2"><a xlink:href="classDrawable.html" target="_top" xlink:title="The base class for objects which can draw themselves, e.g. ">
<polygon fill="none" stroke="black" points="72,-56.5 72,-75.5 130,-75.5 130,-56.5 72,-56.5"/>
<text text-anchor="middle" x="101" y="-63.5" font-family="Helvetica,sans-Serif" font-size="10.00">Drawable</text>
</a>
</g>
</g>
<!-- Node2&#45;&gt;Node1 -->
<g id="edge1" class="edge"><title>Node2&#45;&gt;Node1</title>
<path fill="none" stroke="midnightblue" d="M101,-45.8045C101,-36.9102 101,-26.7798 101,-19.7511"/>
<polygon fill="midnightblue" stroke="midnightblue" points="97.5001,-46.083 101,-56.083 104.5,-46.083 97.5001,-46.083"/>
</g>
<!-- Node3 -->
<g id="node3" class="node"><title>Node3</title>
<g id="a_node3"><a xlink:href="classComponent.html" target="_top" xlink:title="The base class for all JUCE user&#45;interface objects. ">
<polygon fill="none" stroke="black" points="6.5,-112.5 6.5,-131.5 73.5,-131.5 73.5,-112.5 6.5,-112.5"/>
<text text-anchor="middle" x="40" y="-119.5" font-family="Helvetica,sans-Serif" font-size="10.00">Component</text>
</a>
</g>
</g>
<!-- Node3&#45;&gt;Node2 -->
<g id="edge2" class="edge"><title>Node3&#45;&gt;Node2</title>
<path fill="none" stroke="midnightblue" d="M57.4672,-105.537C68.3438,-95.9087 81.9439,-83.8694 91.021,-75.8339"/>
<polygon fill="midnightblue" stroke="midnightblue" points="54.9684,-103.075 49.8007,-112.324 59.6083,-108.316 54.9684,-103.075"/>
</g>
<!-- Node4 -->
<g id="node4" class="node"><title>Node4</title>
<g id="a_node4"><a xlink:href="classMouseListener.html" target="_top" xlink:title="A MouseListener can be registered with a component to receive callbacks about mouse events that happe...">
<polygon fill="none" stroke="black" points="0,-168.5 0,-187.5 80,-187.5 80,-168.5 0,-168.5"/>
<text text-anchor="middle" x="40" y="-175.5" font-family="Helvetica,sans-Serif" font-size="10.00">MouseListener</text>
</a>
</g>
</g>
<!-- Node4&#45;&gt;Node3 -->
<g id="edge3" class="edge"><title>Node4&#45;&gt;Node3</title>
<path fill="none" stroke="midnightblue" d="M40,-157.805C40,-148.91 40,-138.78 40,-131.751"/>
<polygon fill="midnightblue" stroke="midnightblue" points="36.5001,-158.083 40,-168.083 43.5001,-158.083 36.5001,-158.083"/>
</g>
<!-- Node5 -->
<g id="node5" class="node"><title>Node5</title>
<g id="a_node5"><a xlink:href="structMarkerList_1_1MarkerListHolder.html" target="_top" xlink:title="A base class for objects that want to provide a MarkerList. ">
<polygon fill="none" stroke="black" points="91.5,-112.5 91.5,-131.5 234.5,-131.5 234.5,-112.5 91.5,-112.5"/>
<text text-anchor="middle" x="163" y="-119.5" font-family="Helvetica,sans-Serif" font-size="10.00">MarkerList::MarkerListHolder</text>
</a>
</g>
</g>
<!-- Node5&#45;&gt;Node2 -->
<g id="edge4" class="edge"><title>Node5&#45;&gt;Node2</title>
<path fill="none" stroke="midnightblue" d="M145.246,-105.537C134.192,-95.9087 120.369,-83.8694 111.143,-75.8339"/>
<polygon fill="midnightblue" stroke="midnightblue" points="143.199,-108.395 153.039,-112.324 147.797,-103.117 143.199,-108.395"/>
</g>
</g>
</svg>
