<?xml version="1.0" encoding="UTF-8" standalone="no"?>
<!DOCTYPE svg PUBLIC "-//W3C//DTD SVG 1.1//EN"
 "http://www.w3.org/Graphics/SVG/1.1/DTD/svg11.dtd">
<!-- Generated by graphviz version 2.36.0 (20140111.2315)
 -->
<!-- Title: juce::ApplicationCommandManager Pages: 1 -->
<svg width="265pt" height="96pt"
 viewBox="0.00 0.00 265.00 96.00" xmlns="http://www.w3.org/2000/svg" xmlns:xlink="http://www.w3.org/1999/xlink">
<g id="graph0" class="graph" transform="scale(1 1) rotate(0) translate(4 92)">
<title>juce::ApplicationCommandManager</title>
<!-- Node1 -->
<g id="node1" class="node"><title>Node1</title>
<polygon fill="#bfbfbf" stroke="black" points="53,-1 53,-31 187,-31 187,-1 53,-1"/>
<text text-anchor="start" x="61" y="-19" font-family="Helvetica,sans-Serif" font-size="10.00">juce::ApplicationCommand</text>
<text text-anchor="middle" x="120" y="-8" font-family="Helvetica,sans-Serif" font-size="10.00">Manager</text>
</g>
<!-- Node2 -->
<g id="node2" class="node"><title>Node2</title>
<g id="a_node2"><a xlink:href="classjuce_1_1AsyncUpdater.html" target="_top" xlink:title="Has a callback method that is triggered asynchronously. ">
<polygon fill="none" stroke="black" points="-0.5,-68.5 -0.5,-87.5 102.5,-87.5 102.5,-68.5 -0.5,-68.5"/>
<text text-anchor="middle" x="51" y="-75.5" font-family="Helvetica,sans-Serif" font-size="10.00">juce::AsyncUpdater</text>
</a>
</g>
</g>
<!-- Node2&#45;&gt;Node1 -->
<g id="edge1" class="edge"><title>Node2&#45;&gt;Node1</title>
<path fill="none" stroke="#8b1a1a" d="M68.486,-61.7947C79.3201,-52.3738 93.1403,-40.3562 103.738,-31.1408"/>
<polygon fill="#8b1a1a" stroke="#8b1a1a" points="66.1355,-59.2005 60.886,-68.4035 70.7287,-64.4828 66.1355,-59.2005"/>
</g>
<!-- Node3 -->
<g id="node3" class="node"><title>Node3</title>
<g id="a_node3"><a xlink:href="classjuce_1_1FocusChangeListener.html" target="_top" xlink:title="Classes can implement this interface and register themselves with the Desktop class to receive callba...">
<polygon fill="none" stroke="black" points="121,-68.5 121,-87.5 257,-87.5 257,-68.5 121,-68.5"/>
<text text-anchor="middle" x="189" y="-75.5" font-family="Helvetica,sans-Serif" font-size="10.00">juce::FocusChangeListener</text>
</a>
</g>
</g>
<!-- Node3&#45;&gt;Node1 -->
<g id="edge2" class="edge"><title>Node3&#45;&gt;Node1</title>
<path fill="none" stroke="#8b1a1a" d="M171.514,-61.7947C160.68,-52.3738 146.86,-40.3562 136.262,-31.1408"/>
<polygon fill="#8b1a1a" stroke="#8b1a1a" points="169.271,-64.4828 179.114,-68.4035 173.865,-59.2005 169.271,-64.4828"/>
</g>
</g>
</svg>
