<?xml version="1.0" encoding="UTF-8" standalone="no"?>
<!DOCTYPE svg PUBLIC "-//W3C//DTD SVG 1.1//EN"
 "http://www.w3.org/Graphics/SVG/1.1/DTD/svg11.dtd">
<!-- Generated by graphviz version 2.36.0 (20140111.2315)
 -->
<!-- Title: AudioProcessorValueTreeState Pages: 1 -->
<svg width="179pt" height="84pt"
 viewBox="0.00 0.00 179.00 84.00" xmlns="http://www.w3.org/2000/svg" xmlns:xlink="http://www.w3.org/1999/xlink">
<g id="graph0" class="graph" transform="scale(1 1) rotate(0) translate(4 80)">
<title>AudioProcessorValueTreeState</title>
<!-- Node1 -->
<g id="node1" class="node"><title>Node1</title>
<polygon fill="#bfbfbf" stroke="black" points="-0.5,-0.5 -0.5,-19.5 152.5,-19.5 152.5,-0.5 -0.5,-0.5"/>
<text text-anchor="middle" x="76" y="-7.5" font-family="Helvetica,sans-Serif" font-size="10.00">AudioProcessorValueTreeState</text>
</g>
<!-- Node2 -->
<g id="node2" class="node"><title>Node2</title>
<g id="a_node2"><a xlink:href="group__juce__events-timers.html#classTimer" target="_top" xlink:title="Makes repeated callbacks to a virtual method at a specified time interval. ">
<polygon fill="none" stroke="black" points="11.5,-56.5 11.5,-75.5 52.5,-75.5 52.5,-56.5 11.5,-56.5"/>
<text text-anchor="middle" x="32" y="-63.5" font-family="Helvetica,sans-Serif" font-size="10.00">Timer</text>
</a>
</g>
</g>
<!-- Node2&#45;&gt;Node1 -->
<g id="edge1" class="edge"><title>Node2&#45;&gt;Node1</title>
<path fill="none" stroke="#8b1a1a" d="M45.7345,-48.144C53.4005,-38.7357 62.6333,-27.4046 68.8695,-19.7511"/>
<polygon fill="#8b1a1a" stroke="#8b1a1a" points="42.8691,-46.1198 39.2657,-56.083 48.2958,-50.5415 42.8691,-46.1198"/>
</g>
<!-- Node3 -->
<g id="node3" class="node"><title>Node3</title>
<g id="a_node3"><a xlink:href="classValueTree_1_1Listener.html" target="_top" xlink:title="Listener class for events that happen to a ValueTree. ">
<polygon fill="none" stroke="black" points="70.5,-56.5 70.5,-75.5 171.5,-75.5 171.5,-56.5 70.5,-56.5"/>
<text text-anchor="middle" x="121" y="-63.5" font-family="Helvetica,sans-Serif" font-size="10.00">ValueTree::Listener</text>
</a>
</g>
</g>
<!-- Node3&#45;&gt;Node1 -->
<g id="edge2" class="edge"><title>Node3&#45;&gt;Node1</title>
<path fill="none" stroke="#8b1a1a" d="M106.953,-48.144C99.1131,-38.7357 89.6705,-27.4046 83.2926,-19.7511"/>
<polygon fill="#8b1a1a" stroke="#8b1a1a" points="104.479,-50.6414 113.569,-56.083 109.856,-46.1601 104.479,-50.6414"/>
</g>
</g>
</svg>
