<?xml version="1.0" encoding="UTF-8" standalone="no"?>
<!DOCTYPE svg PUBLIC "-//W3C//DTD SVG 1.1//EN"
 "http://www.w3.org/Graphics/SVG/1.1/DTD/svg11.dtd">
<!-- Generated by graphviz version 2.36.0 (20140111.2315)
 -->
<!-- Title: juce::AudioProcessorPlayer Pages: 1 -->
<svg width="289pt" height="84pt"
 viewBox="0.00 0.00 289.00 84.00" xmlns="http://www.w3.org/2000/svg" xmlns:xlink="http://www.w3.org/1999/xlink">
<g id="graph0" class="graph" transform="scale(1 1) rotate(0) translate(4 80)">
<title>juce::AudioProcessorPlayer</title>
<!-- Node1 -->
<g id="node1" class="node"><title>Node1</title>
<polygon fill="#bfbfbf" stroke="black" points="78.5,-0.5 78.5,-19.5 215.5,-19.5 215.5,-0.5 78.5,-0.5"/>
<text text-anchor="middle" x="147" y="-7.5" font-family="Helvetica,sans-Serif" font-size="10.00">juce::AudioProcessorPlayer</text>
</g>
<!-- Node2 -->
<g id="node2" class="node"><title>Node2</title>
<g id="a_node2"><a xlink:href="classjuce_1_1AudioIODeviceCallback.html" target="_top" xlink:title="One of these is passed to an AudioIODevice object to stream the audio data in and out...">
<polygon fill="none" stroke="black" points="-0.5,-56.5 -0.5,-75.5 144.5,-75.5 144.5,-56.5 -0.5,-56.5"/>
<text text-anchor="middle" x="72" y="-63.5" font-family="Helvetica,sans-Serif" font-size="10.00">juce::AudioIODeviceCallback</text>
</a>
</g>
</g>
<!-- Node2&#45;&gt;Node1 -->
<g id="edge1" class="edge"><title>Node2&#45;&gt;Node1</title>
<path fill="none" stroke="midnightblue" d="M92.3051,-50.3804C105.861,-40.6204 123.242,-28.1057 134.731,-19.8339"/>
<polygon fill="midnightblue" stroke="midnightblue" points="90.1203,-47.6405 84.05,-56.324 94.2105,-53.3213 90.1203,-47.6405"/>
</g>
<!-- Node3 -->
<g id="node3" class="node"><title>Node3</title>
<g id="a_node3"><a xlink:href="classjuce_1_1MidiInputCallback.html" target="_top" xlink:title="Receives incoming messages from a physical MIDI input device. ">
<polygon fill="none" stroke="black" points="162.5,-56.5 162.5,-75.5 281.5,-75.5 281.5,-56.5 162.5,-56.5"/>
<text text-anchor="middle" x="222" y="-63.5" font-family="Helvetica,sans-Serif" font-size="10.00">juce::MidiInputCallback</text>
</a>
</g>
</g>
<!-- Node3&#45;&gt;Node1 -->
<g id="edge2" class="edge"><title>Node3&#45;&gt;Node1</title>
<path fill="none" stroke="midnightblue" d="M201.695,-50.3804C188.139,-40.6204 170.758,-28.1057 159.269,-19.8339"/>
<polygon fill="midnightblue" stroke="midnightblue" points="199.79,-53.3213 209.95,-56.324 203.88,-47.6405 199.79,-53.3213"/>
</g>
</g>
</svg>
