<?xml version="1.0" encoding="UTF-8" standalone="no"?>
<!DOCTYPE svg PUBLIC "-//W3C//DTD SVG 1.1//EN"
 "http://www.w3.org/Graphics/SVG/1.1/DTD/svg11.dtd">
<!-- Generated by graphviz version 2.36.0 (20140111.2315)
 -->
<!-- Title: AsyncUpdater Pages: 1 -->
<svg width="272pt" height="370pt"
 viewBox="0.00 0.00 272.00 370.00" xmlns="http://www.w3.org/2000/svg" xmlns:xlink="http://www.w3.org/1999/xlink">
<g id="graph0" class="graph" transform="scale(1 1) rotate(0) translate(4 366)">
<title>AsyncUpdater</title>
<!-- Node1 -->
<g id="node1" class="node"><title>Node1</title>
<polygon fill="#bfbfbf" stroke="black" points="0.5,-171.5 0.5,-190.5 79.5,-190.5 79.5,-171.5 0.5,-171.5"/>
<text text-anchor="middle" x="40" y="-178.5" font-family="Helvetica,sans-Serif" font-size="10.00">AsyncUpdater</text>
</g>
<!-- Node2 -->
<g id="node2" class="node"><title>Node2</title>
<g id="a_node2"><a xlink:href="classApplicationCommandManager.html" target="_top" xlink:title="One of these objects holds a list of all the commands your app can perform, and despatches these comm...">
<polygon fill="none" stroke="black" points="116.5,-342.5 116.5,-361.5 263.5,-361.5 263.5,-342.5 116.5,-342.5"/>
<text text-anchor="middle" x="190" y="-349.5" font-family="Helvetica,sans-Serif" font-size="10.00">ApplicationCommandManager</text>
</a>
</g>
</g>
<!-- Node1&#45;&gt;Node2 -->
<g id="edge1" class="edge"><title>Node1&#45;&gt;Node2</title>
<path fill="none" stroke="#8b1a1a" d="M45.1153,-200.623C52.9911,-233.192 73.3442,-298.256 116,-333 120.772,-336.887 126.253,-339.987 132.021,-342.459"/>
<polygon fill="#8b1a1a" stroke="#8b1a1a" points="48.4586,-199.54 42.8338,-190.561 41.6319,-201.088 48.4586,-199.54"/>
</g>
<!-- Node3 -->
<g id="node3" class="node"><title>Node3</title>
<g id="a_node3"><a xlink:href="classAudioProcessorGraph.html" target="_top" xlink:title="A type of AudioProcessor which plays back a graph of other AudioProcessors. ">
<polygon fill="none" stroke="black" points="134,-304.5 134,-323.5 246,-323.5 246,-304.5 134,-304.5"/>
<text text-anchor="middle" x="190" y="-311.5" font-family="Helvetica,sans-Serif" font-size="10.00">AudioProcessorGraph</text>
</a>
</g>
</g>
<!-- Node1&#45;&gt;Node3 -->
<g id="edge2" class="edge"><title>Node1&#45;&gt;Node3</title>
<path fill="none" stroke="#8b1a1a" d="M48.3434,-200.038C59.1975,-225.602 81.9802,-270.623 116,-295 121.429,-298.89 127.592,-301.984 133.981,-304.446"/>
<polygon fill="#8b1a1a" stroke="#8b1a1a" points="51.5485,-198.628 44.5381,-190.684 45.0645,-201.266 51.5485,-198.628"/>
</g>
<!-- Node4 -->
<g id="node4" class="node"><title>Node4</title>
<g id="a_node4"><a xlink:href="classComboBox.html" target="_top" xlink:title="A component that lets the user choose from a drop&#45;down list of choices. ">
<polygon fill="none" stroke="black" points="157.5,-266.5 157.5,-285.5 222.5,-285.5 222.5,-266.5 157.5,-266.5"/>
<text text-anchor="middle" x="190" y="-273.5" font-family="Helvetica,sans-Serif" font-size="10.00">ComboBox</text>
</a>
</g>
</g>
<!-- Node1&#45;&gt;Node4 -->
<g id="edge3" class="edge"><title>Node1&#45;&gt;Node4</title>
<path fill="none" stroke="#8b1a1a" d="M53.8686,-198.763C67.4086,-216.165 90.2947,-242.168 116,-257 128.591,-264.265 143.987,-268.802 157.389,-271.61"/>
<polygon fill="#8b1a1a" stroke="#8b1a1a" points="56.4908,-196.427 47.6745,-190.552 50.9025,-200.643 56.4908,-196.427"/>
</g>
<!-- Node5 -->
<g id="node5" class="node"><title>Node5</title>
<g id="a_node5"><a xlink:href="classDesktop.html" target="_top" xlink:title="Describes and controls aspects of the computer&#39;s desktop. ">
<polygon fill="none" stroke="black" points="163.5,-228.5 163.5,-247.5 216.5,-247.5 216.5,-228.5 163.5,-228.5"/>
<text text-anchor="middle" x="190" y="-235.5" font-family="Helvetica,sans-Serif" font-size="10.00">Desktop</text>
</a>
</g>
</g>
<!-- Node1&#45;&gt;Node5 -->
<g id="edge4" class="edge"><title>Node1&#45;&gt;Node5</title>
<path fill="none" stroke="#8b1a1a" d="M66.3699,-195.571C80.6173,-203.312 98.9182,-212.535 116,-219 131.31,-224.794 149.073,-229.46 163.244,-232.718"/>
<polygon fill="#8b1a1a" stroke="#8b1a1a" points="67.6621,-192.286 57.2186,-190.501 64.2697,-198.409 67.6621,-192.286"/>
</g>
<!-- Node6 -->
<g id="node6" class="node"><title>Node6</title>
<g id="a_node6"><a xlink:href="classFilenameComponent.html" target="_top" xlink:title="Shows a filename as an editable text box, with a &#39;browse&#39; button and a drop&#45;down list for recently se...">
<polygon fill="none" stroke="black" points="136.5,-190.5 136.5,-209.5 243.5,-209.5 243.5,-190.5 136.5,-190.5"/>
<text text-anchor="middle" x="190" y="-197.5" font-family="Helvetica,sans-Serif" font-size="10.00">FilenameComponent</text>
</a>
</g>
</g>
<!-- Node1&#45;&gt;Node6 -->
<g id="edge5" class="edge"><title>Node1&#45;&gt;Node6</title>
<path fill="none" stroke="#8b1a1a" d="M89.9331,-187.282C104.853,-189.197 121.315,-191.311 136.463,-193.255"/>
<polygon fill="#8b1a1a" stroke="#8b1a1a" points="90.2496,-183.794 79.8853,-185.992 89.3582,-190.737 90.2496,-183.794"/>
</g>
<!-- Node7 -->
<g id="node7" class="node"><title>Node7</title>
<g id="a_node7"><a xlink:href="classMenuBarModel.html" target="_top" xlink:title="A class for controlling MenuBar components. ">
<polygon fill="none" stroke="black" points="149,-152.5 149,-171.5 231,-171.5 231,-152.5 149,-152.5"/>
<text text-anchor="middle" x="190" y="-159.5" font-family="Helvetica,sans-Serif" font-size="10.00">MenuBarModel</text>
</a>
</g>
</g>
<!-- Node1&#45;&gt;Node7 -->
<g id="edge6" class="edge"><title>Node1&#45;&gt;Node7</title>
<path fill="none" stroke="#8b1a1a" d="M89.9075,-174.721C109.015,-172.268 130.655,-169.49 148.827,-167.157"/>
<polygon fill="#8b1a1a" stroke="#8b1a1a" points="89.3582,-171.263 79.8853,-176.008 90.2496,-178.206 89.3582,-171.263"/>
</g>
<!-- Node8 -->
<g id="node8" class="node"><title>Node8</title>
<g id="a_node8"><a xlink:href="classModalComponentManager.html" target="_top" xlink:title="Manages the system&#39;s stack of modal components. ">
<polygon fill="none" stroke="black" points="124.5,-114.5 124.5,-133.5 255.5,-133.5 255.5,-114.5 124.5,-114.5"/>
<text text-anchor="middle" x="190" y="-121.5" font-family="Helvetica,sans-Serif" font-size="10.00">ModalComponentManager</text>
</a>
</g>
</g>
<!-- Node1&#45;&gt;Node8 -->
<g id="edge7" class="edge"><title>Node1&#45;&gt;Node8</title>
<path fill="none" stroke="#8b1a1a" d="M66.3699,-166.429C80.6173,-158.688 98.9182,-149.465 116,-143 125.553,-139.384 136.062,-136.208 146.057,-133.539"/>
<polygon fill="#8b1a1a" stroke="#8b1a1a" points="64.2697,-163.591 57.2186,-171.499 67.6621,-169.714 64.2697,-163.591"/>
</g>
<!-- Node9 -->
<g id="node9" class="node"><title>Node9</title>
<g id="a_node9"><a xlink:href="classScrollBar.html" target="_top" xlink:title="A scrollbar component. ">
<polygon fill="none" stroke="black" points="162,-76.5 162,-95.5 218,-95.5 218,-76.5 162,-76.5"/>
<text text-anchor="middle" x="190" y="-83.5" font-family="Helvetica,sans-Serif" font-size="10.00">ScrollBar</text>
</a>
</g>
</g>
<!-- Node1&#45;&gt;Node9 -->
<g id="edge8" class="edge"><title>Node1&#45;&gt;Node9</title>
<path fill="none" stroke="midnightblue" d="M53.8686,-163.237C67.4086,-145.835 90.2947,-119.832 116,-105 129.952,-96.9499 147.349,-92.2493 161.66,-89.5379"/>
<polygon fill="midnightblue" stroke="midnightblue" points="50.9025,-161.357 47.6745,-171.448 56.4908,-165.573 50.9025,-161.357"/>
</g>
<!-- Node10 -->
<g id="node10" class="node"><title>Node10</title>
<g id="a_node10"><a xlink:href="classTableHeaderComponent.html" target="_top" xlink:title="A component that displays a strip of column headings for a table, and allows these to be resized...">
<polygon fill="none" stroke="black" points="129,-38.5 129,-57.5 251,-57.5 251,-38.5 129,-38.5"/>
<text text-anchor="middle" x="190" y="-45.5" font-family="Helvetica,sans-Serif" font-size="10.00">TableHeaderComponent</text>
</a>
</g>
</g>
<!-- Node1&#45;&gt;Node10 -->
<g id="edge9" class="edge"><title>Node1&#45;&gt;Node10</title>
<path fill="none" stroke="#8b1a1a" d="M48.3434,-161.962C59.1975,-136.398 81.9802,-91.3774 116,-67 121.429,-63.1098 127.592,-60.0155 133.981,-57.5544"/>
<polygon fill="#8b1a1a" stroke="#8b1a1a" points="45.0645,-160.734 44.5381,-171.316 51.5485,-163.372 45.0645,-160.734"/>
</g>
<!-- Node11 -->
<g id="node11" class="node"><title>Node11</title>
<g id="a_node11"><a xlink:href="classValue_1_1ValueSource.html" target="_top" xlink:title="Used internally by the Value class as the base class for its shared value objects. ">
<polygon fill="none" stroke="black" points="138.5,-0.5 138.5,-19.5 241.5,-19.5 241.5,-0.5 138.5,-0.5"/>
<text text-anchor="middle" x="190" y="-7.5" font-family="Helvetica,sans-Serif" font-size="10.00">Value::ValueSource</text>
</a>
</g>
</g>
<!-- Node1&#45;&gt;Node11 -->
<g id="edge10" class="edge"><title>Node1&#45;&gt;Node11</title>
<path fill="none" stroke="#8b1a1a" d="M45.1153,-161.377C52.9911,-128.808 73.3442,-63.7435 116,-29 122.498,-23.7069 130.31,-19.8729 138.372,-17.0992"/>
<polygon fill="#8b1a1a" stroke="#8b1a1a" points="41.6319,-160.912 42.8338,-171.439 48.4586,-162.46 41.6319,-160.912"/>
</g>
</g>
</svg>
