<?xml version="1.0" encoding="UTF-8" standalone="no"?>
<!DOCTYPE svg PUBLIC "-//W3C//DTD SVG 1.1//EN"
 "http://www.w3.org/Graphics/SVG/1.1/DTD/svg11.dtd">
<!-- Generated by graphviz version 2.36.0 (20140111.2315)
 -->
<!-- Title: TopologySource Pages: 1 -->
<svg width="285pt" height="84pt"
 viewBox="0.00 0.00 285.00 84.00" xmlns="http://www.w3.org/2000/svg" xmlns:xlink="http://www.w3.org/1999/xlink">
<g id="graph0" class="graph" transform="scale(1 1) rotate(0) translate(4 80)">
<title>TopologySource</title>
<!-- Node1 -->
<g id="node1" class="node"><title>Node1</title>
<polygon fill="#bfbfbf" stroke="black" points="92.5,-56.5 92.5,-75.5 179.5,-75.5 179.5,-56.5 92.5,-56.5"/>
<text text-anchor="middle" x="136" y="-63.5" font-family="Helvetica,sans-Serif" font-size="10.00">TopologySource</text>
</g>
<!-- Node2 -->
<g id="node2" class="node"><title>Node2</title>
<g id="a_node2"><a xlink:href="group__juce__blocks__basics-topology.html#classPhysicalTopologySource" target="_top" xlink:title="This topology source manages the topology of the physical Blocks devices that are currently connected...">
<polygon fill="none" stroke="black" points="-0.5,-0.5 -0.5,-19.5 124.5,-19.5 124.5,-0.5 -0.5,-0.5"/>
<text text-anchor="middle" x="62" y="-7.5" font-family="Helvetica,sans-Serif" font-size="10.00">PhysicalTopologySource</text>
</a>
</g>
</g>
<!-- Node1&#45;&gt;Node2 -->
<g id="edge1" class="edge"><title>Node1&#45;&gt;Node2</title>
<path fill="none" stroke="midnightblue" d="M115.966,-50.3804C102.591,-40.6204 85.4412,-28.1057 74.1057,-19.8339"/>
<polygon fill="midnightblue" stroke="midnightblue" points="113.97,-53.2565 124.111,-56.324 118.096,-47.602 113.97,-53.2565"/>
</g>
<!-- Node3 -->
<g id="node3" class="node"><title>Node3</title>
<g id="a_node3"><a xlink:href="group__juce__blocks__basics-topology.html#classRuleBasedTopologySource" target="_top" xlink:title="This topology source holds and applies a set of rules for transforming one device topology into anoth...">
<polygon fill="none" stroke="black" points="142.5,-0.5 142.5,-19.5 277.5,-19.5 277.5,-0.5 142.5,-0.5"/>
<text text-anchor="middle" x="210" y="-7.5" font-family="Helvetica,sans-Serif" font-size="10.00">RuleBasedTopologySource</text>
</a>
</g>
</g>
<!-- Node1&#45;&gt;Node3 -->
<g id="edge2" class="edge"><title>Node1&#45;&gt;Node3</title>
<path fill="none" stroke="midnightblue" d="M156.034,-50.3804C169.409,-40.6204 186.559,-28.1057 197.894,-19.8339"/>
<polygon fill="midnightblue" stroke="midnightblue" points="153.904,-47.602 147.889,-56.324 158.03,-53.2565 153.904,-47.602"/>
</g>
</g>
</svg>
