<?xml version="1.0" encoding="UTF-8" standalone="no"?>
<!DOCTYPE svg PUBLIC "-//W3C//DTD SVG 1.1//EN"
 "http://www.w3.org/Graphics/SVG/1.1/DTD/svg11.dtd">
<!-- Generated by graphviz version 2.36.0 (20140111.2315)
 -->
<!-- Title: CriticalSection Pages: 1 -->
<svg width="280pt" height="87pt"
 viewBox="0.00 0.00 280.00 87.00" xmlns="http://www.w3.org/2000/svg" xmlns:xlink="http://www.w3.org/1999/xlink">
<g id="graph0" class="graph" transform="scale(1 1) rotate(0) translate(4 83)">
<title>CriticalSection</title>
<!-- Node1 -->
<g id="node1" class="node"><title>Node1</title>
<polygon fill="#bfbfbf" stroke="black" points="0,-29.5 0,-48.5 80,-48.5 80,-29.5 0,-29.5"/>
<text text-anchor="middle" x="40" y="-36.5" font-family="Helvetica,sans-Serif" font-size="10.00">CriticalSection</text>
</g>
<!-- Node2 -->
<g id="node2" class="node"><title>Node2</title>
<g id="a_node2"><a xlink:href="classArrayBase.html" target="_top" xlink:title="ArrayBase\&lt; Thread::\lListener *, CriticalSection \&gt;">
<polygon fill="none" stroke="black" points="125.5,-49 125.5,-79 262.5,-79 262.5,-49 125.5,-49"/>
<text text-anchor="start" x="133.5" y="-67" font-family="Helvetica,sans-Serif" font-size="10.00">ArrayBase&lt; Thread::</text>
<text text-anchor="middle" x="194" y="-56" font-family="Helvetica,sans-Serif" font-size="10.00">Listener *, CriticalSection &gt;</text>
</a>
</g>
</g>
<!-- Node1&#45;&gt;Node2 -->
<g id="edge1" class="edge"><title>Node1&#45;&gt;Node2</title>
<path fill="none" stroke="midnightblue" d="M90.1734,-47.0877C101.406,-48.9351 113.535,-50.9301 125.388,-52.8797"/>
<polygon fill="midnightblue" stroke="midnightblue" points="90.5793,-43.6075 80.1438,-45.4381 89.4431,-50.5147 90.5793,-43.6075"/>
</g>
<!-- Node3 -->
<g id="node3" class="node"><title>Node3</title>
<g id="a_node3"><a xlink:href="classArrayBase.html" target="_top" xlink:title="ArrayBase\&lt; UnitTestRunner\l::TestResult *, CriticalSection \&gt;">
<polygon fill="none" stroke="black" points="116,-0 116,-30 272,-30 272,-0 116,-0"/>
<text text-anchor="start" x="124" y="-18" font-family="Helvetica,sans-Serif" font-size="10.00">ArrayBase&lt; UnitTestRunner</text>
<text text-anchor="middle" x="194" y="-7" font-family="Helvetica,sans-Serif" font-size="10.00">::TestResult *, CriticalSection &gt;</text>
</a>
</g>
</g>
<!-- Node1&#45;&gt;Node3 -->
<g id="edge2" class="edge"><title>Node1&#45;&gt;Node3</title>
<path fill="none" stroke="midnightblue" d="M90.261,-31.222C98.4772,-29.9246 107.171,-28.5519 115.885,-27.1761"/>
<polygon fill="midnightblue" stroke="midnightblue" points="89.4755,-27.8025 80.1438,-32.8194 90.5673,-34.7169 89.4755,-27.8025"/>
</g>
</g>
</svg>
