<?xml version="1.0" encoding="UTF-8" standalone="no"?>
<!DOCTYPE svg PUBLIC "-//W3C//DTD SVG 1.1//EN"
 "http://www.w3.org/Graphics/SVG/1.1/DTD/svg11.dtd">
<!-- Generated by graphviz version 2.36.0 (20140111.2315)
 -->
<!-- Title: juce::MessageManager::MessageBase Pages: 1 -->
<svg width="225pt" height="152pt"
 viewBox="0.00 0.00 225.00 152.00" xmlns="http://www.w3.org/2000/svg" xmlns:xlink="http://www.w3.org/1999/xlink">
<g id="graph0" class="graph" transform="scale(1 1) rotate(0) translate(4 148)">
<title>juce::MessageManager::MessageBase</title>
<!-- Node1 -->
<g id="node1" class="node"><title>Node1</title>
<polygon fill="#bfbfbf" stroke="black" points="59,-57 59,-87 177,-87 177,-57 59,-57"/>
<text text-anchor="start" x="67" y="-75" font-family="Helvetica,sans-Serif" font-size="10.00">juce::MessageManager</text>
<text text-anchor="middle" x="118" y="-64" font-family="Helvetica,sans-Serif" font-size="10.00">::MessageBase</text>
</g>
<!-- Node3 -->
<g id="node3" class="node"><title>Node3</title>
<g id="a_node3"><a xlink:href="classjuce_1_1CallbackMessage.html" target="_top" xlink:title="A message that invokes a callback method when it gets delivered. ">
<polygon fill="none" stroke="black" points="-0.5,-0.5 -0.5,-19.5 118.5,-19.5 118.5,-0.5 -0.5,-0.5"/>
<text text-anchor="middle" x="59" y="-7.5" font-family="Helvetica,sans-Serif" font-size="10.00">juce::CallbackMessage</text>
</a>
</g>
</g>
<!-- Node1&#45;&gt;Node3 -->
<g id="edge2" class="edge"><title>Node1&#45;&gt;Node3</title>
<path fill="none" stroke="midnightblue" d="M96.9783,-49.622C86.8521,-39.3242 75.2693,-27.5451 67.585,-19.7305"/>
<polygon fill="midnightblue" stroke="midnightblue" points="94.5108,-52.1046 104.018,-56.7808 99.502,-47.1966 94.5108,-52.1046"/>
</g>
<!-- Node4 -->
<g id="node4" class="node"><title>Node4</title>
<g id="a_node4"><a xlink:href="classjuce_1_1Message.html" target="_top" xlink:title="The base class for objects that can be sent to a MessageListener. ">
<polygon fill="none" stroke="black" points="137,-0.5 137,-19.5 217,-19.5 217,-0.5 137,-0.5"/>
<text text-anchor="middle" x="177" y="-7.5" font-family="Helvetica,sans-Serif" font-size="10.00">juce::Message</text>
</a>
</g>
</g>
<!-- Node1&#45;&gt;Node4 -->
<g id="edge3" class="edge"><title>Node1&#45;&gt;Node4</title>
<path fill="none" stroke="midnightblue" d="M139.022,-49.622C149.148,-39.3242 160.731,-27.5451 168.415,-19.7305"/>
<polygon fill="midnightblue" stroke="midnightblue" points="136.498,-47.1966 131.982,-56.7808 141.489,-52.1046 136.498,-47.1966"/>
</g>
<!-- Node2 -->
<g id="node2" class="node"><title>Node2</title>
<g id="a_node2"><a xlink:href="classjuce_1_1ReferenceCountedObject.html" target="_top" xlink:title="A base class which provides methods for reference&#45;counting. ">
<polygon fill="none" stroke="black" points="42.5,-124.5 42.5,-143.5 193.5,-143.5 193.5,-124.5 42.5,-124.5"/>
<text text-anchor="middle" x="118" y="-131.5" font-family="Helvetica,sans-Serif" font-size="10.00">juce::ReferenceCountedObject</text>
</a>
</g>
</g>
<!-- Node2&#45;&gt;Node1 -->
<g id="edge1" class="edge"><title>Node2&#45;&gt;Node1</title>
<path fill="none" stroke="midnightblue" d="M118,-114.371C118,-105.585 118,-95.2721 118,-87.1408"/>
<polygon fill="midnightblue" stroke="midnightblue" points="114.5,-114.403 118,-124.403 121.5,-114.403 114.5,-114.403"/>
</g>
</g>
</svg>
