<?xml version="1.0" encoding="UTF-8" standalone="no"?>
<!DOCTYPE svg PUBLIC "-//W3C//DTD SVG 1.1//EN"
 "http://www.w3.org/Graphics/SVG/1.1/DTD/svg11.dtd">
<!-- Generated by graphviz version 2.36.0 (20140111.2315)
 -->
<!-- Title: juce::ApplicationCommandTarget Pages: 1 -->
<svg width="282pt" height="96pt"
 viewBox="0.00 0.00 282.00 96.00" xmlns="http://www.w3.org/2000/svg" xmlns:xlink="http://www.w3.org/1999/xlink">
<g id="graph0" class="graph" transform="scale(1 1) rotate(0) translate(4 92)">
<title>juce::ApplicationCommandTarget</title>
<!-- Node1 -->
<g id="node1" class="node"><title>Node1</title>
<polygon fill="#bfbfbf" stroke="black" points="76,-57 76,-87 210,-87 210,-57 76,-57"/>
<text text-anchor="start" x="84" y="-75" font-family="Helvetica,sans-Serif" font-size="10.00">juce::ApplicationCommand</text>
<text text-anchor="middle" x="143" y="-64" font-family="Helvetica,sans-Serif" font-size="10.00">Target</text>
</g>
<!-- Node2 -->
<g id="node2" class="node"><title>Node2</title>
<g id="a_node2"><a xlink:href="classjuce_1_1CodeEditorComponent.html" target="_top" xlink:title="A text editor component designed specifically for source code. ">
<polygon fill="none" stroke="black" points="0,-0.5 0,-19.5 140,-19.5 140,-0.5 0,-0.5"/>
<text text-anchor="middle" x="70" y="-7.5" font-family="Helvetica,sans-Serif" font-size="10.00">juce::CodeEditorComponent</text>
</a>
</g>
</g>
<!-- Node1&#45;&gt;Node2 -->
<g id="edge1" class="edge"><title>Node1&#45;&gt;Node2</title>
<path fill="none" stroke="midnightblue" d="M117.718,-50.2202C105.019,-39.7831 90.3144,-27.6968 80.6221,-19.7305"/>
<polygon fill="midnightblue" stroke="midnightblue" points="115.752,-53.1351 125.7,-56.7808 120.197,-47.7273 115.752,-53.1351"/>
</g>
<!-- Node3 -->
<g id="node3" class="node"><title>Node3</title>
<g id="a_node3"><a xlink:href="classjuce_1_1JUCEApplication.html" target="_top" xlink:title="An instance of this class is used to specify initialisation and shutdown code for the application...">
<polygon fill="none" stroke="black" points="158,-0.5 158,-19.5 274,-19.5 274,-0.5 158,-0.5"/>
<text text-anchor="middle" x="216" y="-7.5" font-family="Helvetica,sans-Serif" font-size="10.00">juce::JUCEApplication</text>
</a>
</g>
</g>
<!-- Node1&#45;&gt;Node3 -->
<g id="edge2" class="edge"><title>Node1&#45;&gt;Node3</title>
<path fill="none" stroke="midnightblue" d="M168.282,-50.2202C180.981,-39.7831 195.686,-27.6968 205.378,-19.7305"/>
<polygon fill="midnightblue" stroke="midnightblue" points="165.803,-47.7273 160.3,-56.7808 170.248,-53.1351 165.803,-47.7273"/>
</g>
</g>
</svg>
