<?xml version="1.0" encoding="UTF-8" standalone="no"?>
<!DOCTYPE svg PUBLIC "-//W3C//DTD SVG 1.1//EN"
 "http://www.w3.org/Graphics/SVG/1.1/DTD/svg11.dtd">
<!-- Generated by graphviz version 2.36.0 (20140111.2315)
 -->
<!-- Title: juce::FileSearchPathListComponent Pages: 1 -->
<svg width="452pt" height="180pt"
 viewBox="0.00 0.00 452.00 180.00" xmlns="http://www.w3.org/2000/svg" xmlns:xlink="http://www.w3.org/1999/xlink">
<g id="graph0" class="graph" transform="scale(1 1) rotate(0) translate(4 176)">
<title>juce::FileSearchPathListComponent</title>
<!-- Node1 -->
<g id="node1" class="node"><title>Node1</title>
<polygon fill="#bfbfbf" stroke="black" points="320.5,-71 320.5,-101 443.5,-101 443.5,-71 320.5,-71"/>
<text text-anchor="start" x="328.5" y="-89" font-family="Helvetica,sans-Serif" font-size="10.00">juce::FileSearchPathList</text>
<text text-anchor="middle" x="382" y="-78" font-family="Helvetica,sans-Serif" font-size="10.00">Component</text>
</g>
<!-- Node2 -->
<g id="node2" class="node"><title>Node2</title>
<g id="a_node2"><a xlink:href="classjuce_1_1Component.html" target="_top" xlink:title="The base class for all JUCE user&#45;interface objects. ">
<polygon fill="none" stroke="black" points="166.5,-152.5 166.5,-171.5 257.5,-171.5 257.5,-152.5 166.5,-152.5"/>
<text text-anchor="middle" x="212" y="-159.5" font-family="Helvetica,sans-Serif" font-size="10.00">juce::Component</text>
</a>
</g>
</g>
<!-- Node2&#45;&gt;Node1 -->
<g id="edge1" class="edge"><title>Node2&#45;&gt;Node1</title>
<path fill="none" stroke="midnightblue" d="M265.796,-149.583C272.016,-147.619 278.207,-145.425 284,-143 311.207,-131.613 340.066,-113.828 359.163,-101.154"/>
<polygon fill="midnightblue" stroke="midnightblue" points="264.639,-146.275 256.049,-152.478 266.632,-152.986 264.639,-146.275"/>
</g>
<!-- Node3 -->
<g id="node3" class="node"><title>Node3</title>
<g id="a_node3"><a xlink:href="classjuce_1_1MouseListener.html" target="_top" xlink:title="A MouseListener can be registered with a component to receive callbacks about mouse events that happe...">
<polygon fill="none" stroke="black" points="0,-152.5 0,-171.5 104,-171.5 104,-152.5 0,-152.5"/>
<text text-anchor="middle" x="52" y="-159.5" font-family="Helvetica,sans-Serif" font-size="10.00">juce::MouseListener</text>
</a>
</g>
</g>
<!-- Node3&#45;&gt;Node2 -->
<g id="edge2" class="edge"><title>Node3&#45;&gt;Node2</title>
<path fill="none" stroke="midnightblue" d="M114.336,-162C131.664,-162 150.188,-162 166.336,-162"/>
<polygon fill="midnightblue" stroke="midnightblue" points="114.298,-158.5 104.298,-162 114.298,-165.5 114.298,-158.5"/>
</g>
<!-- Node4 -->
<g id="node4" class="node"><title>Node4</title>
<g id="a_node4"><a xlink:href="classjuce_1_1SettableTooltipClient.html" target="_top" xlink:title="An implementation of TooltipClient that stores the tooltip string and a method for changing it...">
<polygon fill="none" stroke="black" points="146.5,-114.5 146.5,-133.5 277.5,-133.5 277.5,-114.5 146.5,-114.5"/>
<text text-anchor="middle" x="212" y="-121.5" font-family="Helvetica,sans-Serif" font-size="10.00">juce::SettableTooltipClient</text>
</a>
</g>
</g>
<!-- Node4&#45;&gt;Node1 -->
<g id="edge3" class="edge"><title>Node4&#45;&gt;Node1</title>
<path fill="none" stroke="midnightblue" d="M265.358,-112.157C282.744,-108.225 302.248,-103.813 320.215,-99.7491"/>
<polygon fill="midnightblue" stroke="midnightblue" points="264.375,-108.791 255.393,-114.411 265.919,-115.619 264.375,-108.791"/>
</g>
<!-- Node5 -->
<g id="node5" class="node"><title>Node5</title>
<g id="a_node5"><a xlink:href="classjuce_1_1TooltipClient.html" target="_top" xlink:title="Components that want to use pop&#45;up tooltips should implement this interface. ">
<polygon fill="none" stroke="black" points="4.5,-114.5 4.5,-133.5 99.5,-133.5 99.5,-114.5 4.5,-114.5"/>
<text text-anchor="middle" x="52" y="-121.5" font-family="Helvetica,sans-Serif" font-size="10.00">juce::TooltipClient</text>
</a>
</g>
</g>
<!-- Node5&#45;&gt;Node4 -->
<g id="edge4" class="edge"><title>Node5&#45;&gt;Node4</title>
<path fill="none" stroke="midnightblue" d="M109.759,-124C121.624,-124 134.217,-124 146.344,-124"/>
<polygon fill="midnightblue" stroke="midnightblue" points="109.551,-120.5 99.5506,-124 109.551,-127.5 109.551,-120.5"/>
</g>
<!-- Node6 -->
<g id="node6" class="node"><title>Node6</title>
<g id="a_node6"><a xlink:href="classjuce_1_1FileDragAndDropTarget.html" target="_top" xlink:title="Components derived from this class can have files dropped onto them by an external application...">
<polygon fill="none" stroke="black" points="140.5,-76.5 140.5,-95.5 283.5,-95.5 283.5,-76.5 140.5,-76.5"/>
<text text-anchor="middle" x="212" y="-83.5" font-family="Helvetica,sans-Serif" font-size="10.00">juce::FileDragAndDropTarget</text>
</a>
</g>
</g>
<!-- Node6&#45;&gt;Node1 -->
<g id="edge5" class="edge"><title>Node6&#45;&gt;Node1</title>
<path fill="none" stroke="midnightblue" d="M293.828,-86C302.783,-86 311.786,-86 320.43,-86"/>
<polygon fill="midnightblue" stroke="midnightblue" points="293.76,-82.5001 283.76,-86 293.76,-89.5001 293.76,-82.5001"/>
</g>
<!-- Node7 -->
<g id="node7" class="node"><title>Node7</title>
<g id="a_node7"><a xlink:href="classjuce_1_1Button_1_1Listener.html" target="_top" xlink:title="Used to receive callbacks when a button is clicked. ">
<polygon fill="none" stroke="black" points="157,-38.5 157,-57.5 267,-57.5 267,-38.5 157,-38.5"/>
<text text-anchor="middle" x="212" y="-45.5" font-family="Helvetica,sans-Serif" font-size="10.00">juce::Button::Listener</text>
</a>
</g>
</g>
<!-- Node7&#45;&gt;Node1 -->
<g id="edge6" class="edge"><title>Node7&#45;&gt;Node1</title>
<path fill="none" stroke="#8b1a1a" d="M265.358,-59.8428C282.744,-63.7754 302.248,-68.187 320.215,-72.2509"/>
<polygon fill="#8b1a1a" stroke="#8b1a1a" points="265.919,-56.3815 255.393,-57.589 264.375,-63.209 265.919,-56.3815"/>
</g>
<!-- Node8 -->
<g id="node8" class="node"><title>Node8</title>
<g id="a_node8"><a xlink:href="classjuce_1_1ListBoxModel.html" target="_top" xlink:title="A subclass of this is used to drive a ListBox. ">
<polygon fill="none" stroke="black" points="162,-0.5 162,-19.5 262,-19.5 262,-0.5 162,-0.5"/>
<text text-anchor="middle" x="212" y="-7.5" font-family="Helvetica,sans-Serif" font-size="10.00">juce::ListBoxModel</text>
</a>
</g>
</g>
<!-- Node8&#45;&gt;Node1 -->
<g id="edge7" class="edge"><title>Node8&#45;&gt;Node1</title>
<path fill="none" stroke="#8b1a1a" d="M265.796,-22.4171C272.016,-24.3806 278.207,-26.5753 284,-29 311.207,-40.3871 340.066,-58.1721 359.163,-70.8458"/>
<polygon fill="#8b1a1a" stroke="#8b1a1a" points="266.632,-19.0144 256.049,-19.5222 264.639,-25.7246 266.632,-19.0144"/>
</g>
</g>
</svg>
