<?xml version="1.0" encoding="UTF-8" standalone="no"?>
<!DOCTYPE svg PUBLIC "-//W3C//DTD SVG 1.1//EN"
 "http://www.w3.org/Graphics/SVG/1.1/DTD/svg11.dtd">
<!-- Generated by graphviz version 2.36.0 (20140111.2315)
 -->
<!-- Title: juce::Timer Pages: 1 -->
<svg width="272pt" height="986pt"
 viewBox="0.00 0.00 272.00 986.00" xmlns="http://www.w3.org/2000/svg" xmlns:xlink="http://www.w3.org/1999/xlink">
<g id="graph0" class="graph" transform="scale(1 1) rotate(0) translate(4 982)">
<title>juce::Timer</title>
<!-- Node1 -->
<g id="node1" class="node"><title>Node1</title>
<polygon fill="#bfbfbf" stroke="black" points="0.5,-468.5 0.5,-487.5 65.5,-487.5 65.5,-468.5 0.5,-468.5"/>
<text text-anchor="middle" x="33" y="-475.5" font-family="Helvetica,sans-Serif" font-size="10.00">juce::Timer</text>
</g>
<!-- Node2 -->
<g id="node2" class="node"><title>Node2</title>
<g id="a_node2"><a xlink:href="classjuce_1_1AnimatedAppComponent.html" target="_top" xlink:title="A base class for writing simple one&#45;page graphical apps. ">
<polygon fill="none" stroke="black" points="108.5,-958.5 108.5,-977.5 257.5,-977.5 257.5,-958.5 108.5,-958.5"/>
<text text-anchor="middle" x="183" y="-965.5" font-family="Helvetica,sans-Serif" font-size="10.00">juce::AnimatedAppComponent</text>
</a>
</g>
</g>
<!-- Node1&#45;&gt;Node2 -->
<g id="edge1" class="edge"><title>Node1&#45;&gt;Node2</title>
<path fill="none" stroke="#8b1a1a" d="M34.0397,-498.025C34.6151,-578.906 40.8893,-880.363 102,-948 105.839,-952.249 110.432,-955.659 115.448,-958.387"/>
<polygon fill="#8b1a1a" stroke="#8b1a1a" points="37.5384,-497.73 33.9903,-487.747 30.5385,-497.764 37.5384,-497.73"/>
</g>
<!-- Node3 -->
<g id="node3" class="node"><title>Node3</title>
<g id="a_node3"><a xlink:href="classjuce_1_1AnimatedPosition.html" target="_top" xlink:title="Models a 1&#45;dimensional position that can be dragged around by the user, and which will then continue ...">
<polygon fill="none" stroke="black" points="124.5,-909 124.5,-939 241.5,-939 241.5,-909 124.5,-909"/>
<text text-anchor="start" x="132.5" y="-927" font-family="Helvetica,sans-Serif" font-size="10.00">juce::AnimatedPosition</text>
<text text-anchor="middle" x="183" y="-916" font-family="Helvetica,sans-Serif" font-size="10.00">&lt; Behaviour &gt;</text>
</a>
</g>
</g>
<!-- Node1&#45;&gt;Node3 -->
<g id="edge2" class="edge"><title>Node1&#45;&gt;Node3</title>
<path fill="none" stroke="#8b1a1a" d="M34.5303,-498.213C36.9115,-573.686 48.9578,-837.789 102,-899 108.003,-905.928 115.897,-910.96 124.387,-914.61"/>
<polygon fill="#8b1a1a" stroke="#8b1a1a" points="38.0162,-497.674 34.2264,-487.78 31.0192,-497.878 38.0162,-497.674"/>
</g>
<!-- Node4 -->
<g id="node4" class="node"><title>Node4</title>
<g id="a_node4"><a xlink:href="classjuce_1_1AudioDeviceSelectorComponent.html" target="_top" xlink:title="A component containing controls to let the user change the audio settings of an AudioDeviceManager ob...">
<polygon fill="none" stroke="black" points="117,-860 117,-890 249,-890 249,-860 117,-860"/>
<text text-anchor="start" x="125" y="-878" font-family="Helvetica,sans-Serif" font-size="10.00">juce::AudioDeviceSelector</text>
<text text-anchor="middle" x="183" y="-867" font-family="Helvetica,sans-Serif" font-size="10.00">Component</text>
</a>
</g>
</g>
<!-- Node1&#45;&gt;Node4 -->
<g id="edge3" class="edge"><title>Node1&#45;&gt;Node4</title>
<path fill="none" stroke="#8b1a1a" d="M34.9948,-498.057C38.8358,-567.565 54.9104,-796.78 102,-850 106.146,-854.686 111.157,-858.503 116.624,-861.611"/>
<polygon fill="#8b1a1a" stroke="#8b1a1a" points="38.4685,-497.464 34.4473,-487.662 31.4782,-497.833 38.4685,-497.464"/>
</g>
<!-- Node5 -->
<g id="node5" class="node"><title>Node5</title>
<g id="a_node5"><a xlink:href="classjuce_1_1AudioProcessorValueTreeState.html" target="_top" xlink:title="This class contains a ValueTree which is used to manage an AudioProcessor&#39;s entire state...">
<polygon fill="none" stroke="black" points="116,-811 116,-841 250,-841 250,-811 116,-811"/>
<text text-anchor="start" x="124" y="-829" font-family="Helvetica,sans-Serif" font-size="10.00">juce::AudioProcessorValue</text>
<text text-anchor="middle" x="183" y="-818" font-family="Helvetica,sans-Serif" font-size="10.00">TreeState</text>
</a>
</g>
</g>
<!-- Node1&#45;&gt;Node5 -->
<g id="edge4" class="edge"><title>Node1&#45;&gt;Node5</title>
<path fill="none" stroke="#8b1a1a" d="M35.583,-497.831C41.0056,-560.95 60.8167,-755.688 102,-801 106.013,-805.415 110.792,-809.057 115.99,-812.06"/>
<polygon fill="#8b1a1a" stroke="#8b1a1a" points="39.0525,-497.318 34.736,-487.643 32.0766,-497.898 39.0525,-497.318"/>
</g>
<!-- Node6 -->
<g id="node6" class="node"><title>Node6</title>
<g id="a_node6"><a xlink:href="classjuce_1_1AudioVisualiserComponent.html" target="_top" xlink:title="A simple component that can be used to show a scrolling waveform of audio data. ">
<polygon fill="none" stroke="black" points="104,-772.5 104,-791.5 262,-791.5 262,-772.5 104,-772.5"/>
<text text-anchor="middle" x="183" y="-779.5" font-family="Helvetica,sans-Serif" font-size="10.00">juce::AudioVisualiserComponent</text>
</a>
</g>
</g>
<!-- Node1&#45;&gt;Node6 -->
<g id="edge5" class="edge"><title>Node1&#45;&gt;Node6</title>
<path fill="none" stroke="#8b1a1a" d="M36.051,-497.859C42.4701,-556.155 64.0441,-725.083 102,-763 105.838,-766.834 110.299,-769.948 115.114,-772.472"/>
<polygon fill="#8b1a1a" stroke="#8b1a1a" points="39.5131,-497.317 34.9689,-487.746 32.5528,-498.062 39.5131,-497.317"/>
</g>
<!-- Node7 -->
<g id="node7" class="node"><title>Node7</title>
<g id="a_node7"><a xlink:href="classjuce_1_1BubbleMessageComponent.html" target="_top" xlink:title="A speech&#45;bubble component that displays a short message. ">
<polygon fill="none" stroke="black" points="102.5,-734.5 102.5,-753.5 263.5,-753.5 263.5,-734.5 102.5,-734.5"/>
<text text-anchor="middle" x="183" y="-741.5" font-family="Helvetica,sans-Serif" font-size="10.00">juce::BubbleMessageComponent</text>
</a>
</g>
</g>
<!-- Node1&#45;&gt;Node7 -->
<g id="edge6" class="edge"><title>Node1&#45;&gt;Node7</title>
<path fill="none" stroke="#8b1a1a" d="M33.175,-497.784C32.3738,-544.52 37.2521,-662.509 102,-725 105.903,-728.767 110.41,-731.835 115.256,-734.327"/>
<polygon fill="#8b1a1a" stroke="#8b1a1a" points="36.6746,-497.843 33.4586,-487.748 29.6774,-497.646 36.6746,-497.843"/>
</g>
<!-- Node8 -->
<g id="node8" class="node"><title>Node8</title>
<g id="a_node8"><a xlink:href="classjuce_1_1CallOutBox.html" target="_top" xlink:title="A box with a small arrow that can be used as a temporary pop&#45;up window to show extra controls when a ...">
<polygon fill="none" stroke="black" points="137.5,-696.5 137.5,-715.5 228.5,-715.5 228.5,-696.5 137.5,-696.5"/>
<text text-anchor="middle" x="183" y="-703.5" font-family="Helvetica,sans-Serif" font-size="10.00">juce::CallOutBox</text>
</a>
</g>
</g>
<!-- Node1&#45;&gt;Node8 -->
<g id="edge7" class="edge"><title>Node1&#45;&gt;Node8</title>
<path fill="none" stroke="#8b1a1a" d="M34.351,-497.792C36.2092,-539.324 46.6065,-635.94 102,-687 111.657,-695.901 124.705,-700.858 137.459,-703.557"/>
<polygon fill="#8b1a1a" stroke="#8b1a1a" points="37.8437,-497.504 34.0231,-487.622 30.8473,-497.729 37.8437,-497.504"/>
</g>
<!-- Node9 -->
<g id="node9" class="node"><title>Node9</title>
<g id="a_node9"><a xlink:href="classjuce_1_1CaretComponent.html" target="_top" xlink:title="juce::CaretComponent">
<polygon fill="none" stroke="black" points="125.5,-658.5 125.5,-677.5 240.5,-677.5 240.5,-658.5 125.5,-658.5"/>
<text text-anchor="middle" x="183" y="-665.5" font-family="Helvetica,sans-Serif" font-size="10.00">juce::CaretComponent</text>
</a>
</g>
</g>
<!-- Node1&#45;&gt;Node9 -->
<g id="edge8" class="edge"><title>Node1&#45;&gt;Node9</title>
<path fill="none" stroke="#8b1a1a" d="M36.0414,-498.098C40.7992,-534.027 55.9789,-609.223 102,-649 108.696,-654.788 116.841,-658.886 125.341,-661.775"/>
<polygon fill="#8b1a1a" stroke="#8b1a1a" points="39.4866,-497.427 34.837,-487.907 32.535,-498.249 39.4866,-497.427"/>
</g>
<!-- Node10 -->
<g id="node10" class="node"><title>Node10</title>
<g id="a_node10"><a xlink:href="classjuce_1_1ComponentAnimator.html" target="_top" xlink:title="Animates a set of components, moving them to a new position and/or fading their alpha levels...">
<polygon fill="none" stroke="black" points="118,-620.5 118,-639.5 248,-639.5 248,-620.5 118,-620.5"/>
<text text-anchor="middle" x="183" y="-627.5" font-family="Helvetica,sans-Serif" font-size="10.00">juce::ComponentAnimator</text>
</a>
</g>
</g>
<!-- Node1&#45;&gt;Node10 -->
<g id="edge9" class="edge"><title>Node1&#45;&gt;Node10</title>
<path fill="none" stroke="#8b1a1a" d="M38.4838,-497.715C46.2155,-527.06 64.9238,-581.886 102,-611 106.94,-614.879 112.545,-617.986 118.441,-620.472"/>
<polygon fill="#8b1a1a" stroke="#8b1a1a" points="41.8367,-496.693 36.0427,-487.823 35.0406,-498.371 41.8367,-496.693"/>
</g>
<!-- Node11 -->
<g id="node11" class="node"><title>Node11</title>
<g id="a_node11"><a xlink:href="classjuce_1_1Desktop.html" target="_top" xlink:title="Describes and controls aspects of the computer&#39;s desktop. ">
<polygon fill="none" stroke="black" points="144.5,-582.5 144.5,-601.5 221.5,-601.5 221.5,-582.5 144.5,-582.5"/>
<text text-anchor="middle" x="183" y="-589.5" font-family="Helvetica,sans-Serif" font-size="10.00">juce::Desktop</text>
</a>
</g>
</g>
<!-- Node1&#45;&gt;Node11 -->
<g id="edge10" class="edge"><title>Node1&#45;&gt;Node11</title>
<path fill="none" stroke="#8b1a1a" d="M42.3246,-496.759C52.9741,-518.525 73.5089,-553.867 102,-573 114.444,-581.356 130.138,-586.054 144.323,-588.689"/>
<polygon fill="#8b1a1a" stroke="#8b1a1a" points="45.4265,-495.129 38.0163,-487.557 39.0869,-498.098 45.4265,-495.129"/>
</g>
<!-- Node12 -->
<g id="node12" class="node"><title>Node12</title>
<g id="a_node12"><a xlink:href="classjuce_1_1FakeMouseMoveGenerator.html" target="_top" xlink:title="juce::FakeMouseMoveGenerator">
<polygon fill="none" stroke="black" points="104,-544.5 104,-563.5 262,-563.5 262,-544.5 104,-544.5"/>
<text text-anchor="middle" x="183" y="-551.5" font-family="Helvetica,sans-Serif" font-size="10.00">juce::FakeMouseMoveGenerator</text>
</a>
</g>
</g>
<!-- Node1&#45;&gt;Node12 -->
<g id="edge11" class="edge"><title>Node1&#45;&gt;Node12</title>
<path fill="none" stroke="#8b1a1a" d="M49.8091,-495.003C62.6765,-507.845 81.9359,-524.924 102,-535 109.654,-538.844 118.115,-541.93 126.584,-544.402"/>
<polygon fill="#8b1a1a" stroke="#8b1a1a" points="52.151,-492.391 42.6733,-487.656 47.1294,-497.268 52.151,-492.391"/>
</g>
<!-- Node13 -->
<g id="node13" class="node"><title>Node13</title>
<g id="a_node13"><a xlink:href="classjuce_1_1FileBrowserComponent.html" target="_top" xlink:title="A component for browsing and selecting a file or directory to open or save. ">
<polygon fill="none" stroke="black" points="111.5,-506.5 111.5,-525.5 254.5,-525.5 254.5,-506.5 111.5,-506.5"/>
<text text-anchor="middle" x="183" y="-513.5" font-family="Helvetica,sans-Serif" font-size="10.00">juce::FileBrowserComponent</text>
</a>
</g>
</g>
<!-- Node1&#45;&gt;Node13 -->
<g id="edge12" class="edge"><title>Node1&#45;&gt;Node13</title>
<path fill="none" stroke="#8b1a1a" d="M75.4083,-489.849C84.1714,-492.279 93.3771,-494.772 102,-497 114.439,-500.214 128.02,-503.516 140.402,-506.448"/>
<polygon fill="#8b1a1a" stroke="#8b1a1a" points="76.3302,-486.473 65.7571,-487.152 74.4458,-493.215 76.3302,-486.473"/>
</g>
<!-- Node14 -->
<g id="node14" class="node"><title>Node14</title>
<g id="a_node14"><a xlink:href="classjuce_1_1ImagePreviewComponent.html" target="_top" xlink:title="A simple preview component that shows thumbnails of image files. ">
<polygon fill="none" stroke="black" points="106.5,-468.5 106.5,-487.5 259.5,-487.5 259.5,-468.5 106.5,-468.5"/>
<text text-anchor="middle" x="183" y="-475.5" font-family="Helvetica,sans-Serif" font-size="10.00">juce::ImagePreviewComponent</text>
</a>
</g>
</g>
<!-- Node1&#45;&gt;Node14 -->
<g id="edge13" class="edge"><title>Node1&#45;&gt;Node14</title>
<path fill="none" stroke="#8b1a1a" d="M76.0282,-478C85.4959,-478 95.8281,-478 106.207,-478"/>
<polygon fill="#8b1a1a" stroke="#8b1a1a" points="75.7497,-474.5 65.7497,-478 75.7497,-481.5 75.7497,-474.5"/>
</g>
<!-- Node15 -->
<g id="node15" class="node"><title>Node15</title>
<g id="a_node15"><a xlink:href="classjuce_1_1JUCESplashScreen.html" target="_top" xlink:title="The standard JUCE splash screen component. ">
<polygon fill="none" stroke="black" points="119,-430.5 119,-449.5 247,-449.5 247,-430.5 119,-430.5"/>
<text text-anchor="middle" x="183" y="-437.5" font-family="Helvetica,sans-Serif" font-size="10.00">juce::JUCESplashScreen</text>
</a>
</g>
</g>
<!-- Node1&#45;&gt;Node15 -->
<g id="edge14" class="edge"><title>Node1&#45;&gt;Node15</title>
<path fill="none" stroke="#8b1a1a" d="M75.4083,-466.151C84.1714,-463.721 93.3771,-461.228 102,-459 114.439,-455.786 128.02,-452.484 140.402,-449.552"/>
<polygon fill="#8b1a1a" stroke="#8b1a1a" points="74.4458,-462.785 65.7571,-468.848 76.3302,-469.527 74.4458,-462.785"/>
</g>
<!-- Node16 -->
<g id="node16" class="node"><title>Node16</title>
<g id="a_node16"><a xlink:href="classjuce_1_1MenuBarComponent.html" target="_top" xlink:title="A menu bar component. ">
<polygon fill="none" stroke="black" points="118,-392.5 118,-411.5 248,-411.5 248,-392.5 118,-392.5"/>
<text text-anchor="middle" x="183" y="-399.5" font-family="Helvetica,sans-Serif" font-size="10.00">juce::MenuBarComponent</text>
</a>
</g>
</g>
<!-- Node1&#45;&gt;Node16 -->
<g id="edge15" class="edge"><title>Node1&#45;&gt;Node16</title>
<path fill="none" stroke="#8b1a1a" d="M49.8091,-460.997C62.6765,-448.155 81.9359,-431.076 102,-421 109.654,-417.156 118.115,-414.07 126.584,-411.598"/>
<polygon fill="#8b1a1a" stroke="#8b1a1a" points="47.1294,-458.732 42.6733,-468.344 52.151,-463.609 47.1294,-458.732"/>
</g>
<!-- Node17 -->
<g id="node17" class="node"><title>Node17</title>
<g id="a_node17"><a xlink:href="classjuce_1_1MidiKeyboardComponent.html" target="_top" xlink:title="A component that displays a piano keyboard, whose notes can be clicked on. ">
<polygon fill="none" stroke="black" points="108,-354.5 108,-373.5 258,-373.5 258,-354.5 108,-354.5"/>
<text text-anchor="middle" x="183" y="-361.5" font-family="Helvetica,sans-Serif" font-size="10.00">juce::MidiKeyboardComponent</text>
</a>
</g>
</g>
<!-- Node1&#45;&gt;Node17 -->
<g id="edge16" class="edge"><title>Node1&#45;&gt;Node17</title>
<path fill="none" stroke="#8b1a1a" d="M42.3246,-459.241C52.9741,-437.475 73.5089,-402.133 102,-383 107.807,-379.1 114.322,-375.998 121.061,-373.529"/>
<polygon fill="#8b1a1a" stroke="#8b1a1a" points="39.0869,-457.902 38.0163,-468.443 45.4265,-460.871 39.0869,-457.902"/>
</g>
<!-- Node18 -->
<g id="node18" class="node"><title>Node18</title>
<g id="a_node18"><a xlink:href="classjuce_1_1MouseInactivityDetector.html" target="_top" xlink:title="This object watches for mouse&#45;events happening within a component, and if the mouse remains still for...">
<polygon fill="none" stroke="black" points="109.5,-316.5 109.5,-335.5 256.5,-335.5 256.5,-316.5 109.5,-316.5"/>
<text text-anchor="middle" x="183" y="-323.5" font-family="Helvetica,sans-Serif" font-size="10.00">juce::MouseInactivityDetector</text>
</a>
</g>
</g>
<!-- Node1&#45;&gt;Node18 -->
<g id="edge17" class="edge"><title>Node1&#45;&gt;Node18</title>
<path fill="none" stroke="#8b1a1a" d="M38.4838,-458.285C46.2155,-428.94 64.9238,-374.114 102,-345 106.94,-341.121 112.545,-338.014 118.441,-335.528"/>
<polygon fill="#8b1a1a" stroke="#8b1a1a" points="35.0406,-457.629 36.0427,-468.177 41.8367,-459.307 35.0406,-457.629"/>
</g>
<!-- Node19 -->
<g id="node19" class="node"><title>Node19</title>
<g id="a_node19"><a xlink:href="classjuce_1_1ProgressBar.html" target="_top" xlink:title="A progress bar component. ">
<polygon fill="none" stroke="black" points="135.5,-278.5 135.5,-297.5 230.5,-297.5 230.5,-278.5 135.5,-278.5"/>
<text text-anchor="middle" x="183" y="-285.5" font-family="Helvetica,sans-Serif" font-size="10.00">juce::ProgressBar</text>
</a>
</g>
</g>
<!-- Node1&#45;&gt;Node19 -->
<g id="edge18" class="edge"><title>Node1&#45;&gt;Node19</title>
<path fill="none" stroke="#8b1a1a" d="M36.0414,-457.902C40.7992,-421.973 55.9789,-346.777 102,-307 111.288,-298.972 123.364,-294.194 135.307,-291.388"/>
<polygon fill="#8b1a1a" stroke="#8b1a1a" points="32.535,-457.751 34.837,-468.093 39.4866,-458.573 32.535,-457.751"/>
</g>
<!-- Node20 -->
<g id="node20" class="node"><title>Node20</title>
<g id="a_node20"><a xlink:href="classjuce_1_1PropertiesFile.html" target="_top" xlink:title="Wrapper on a file that stores a list of key/value data pairs. ">
<polygon fill="none" stroke="black" points="132.5,-240.5 132.5,-259.5 233.5,-259.5 233.5,-240.5 132.5,-240.5"/>
<text text-anchor="middle" x="183" y="-247.5" font-family="Helvetica,sans-Serif" font-size="10.00">juce::PropertiesFile</text>
</a>
</g>
</g>
<!-- Node1&#45;&gt;Node20 -->
<g id="edge19" class="edge"><title>Node1&#45;&gt;Node20</title>
<path fill="none" stroke="#8b1a1a" d="M34.351,-458.208C36.2092,-416.676 46.6065,-320.06 102,-269 110.397,-261.26 121.358,-256.502 132.461,-253.618"/>
<polygon fill="#8b1a1a" stroke="#8b1a1a" points="30.8473,-458.271 34.0231,-468.378 37.8437,-458.496 30.8473,-458.271"/>
</g>
<!-- Node21 -->
<g id="node21" class="node"><title>Node21</title>
<g id="a_node21"><a xlink:href="classjuce_1_1ScrollBar.html" target="_top" xlink:title="A scrollbar component. ">
<polygon fill="none" stroke="black" points="143,-202.5 143,-221.5 223,-221.5 223,-202.5 143,-202.5"/>
<text text-anchor="middle" x="183" y="-209.5" font-family="Helvetica,sans-Serif" font-size="10.00">juce::ScrollBar</text>
</a>
</g>
</g>
<!-- Node1&#45;&gt;Node21 -->
<g id="edge20" class="edge"><title>Node1&#45;&gt;Node21</title>
<path fill="none" stroke="#8b1a1a" d="M33.175,-458.216C32.3738,-411.48 37.2521,-293.491 102,-231 112.785,-220.591 128.181,-215.524 142.592,-213.168"/>
<polygon fill="#8b1a1a" stroke="#8b1a1a" points="29.6774,-458.354 33.4586,-468.252 36.6746,-458.157 29.6774,-458.354"/>
</g>
<!-- Node22 -->
<g id="node22" class="node"><title>Node22</title>
<g id="a_node22"><a xlink:href="classjuce_1_1SplashScreen.html" target="_top" xlink:title="A component for showing a splash screen while your app starts up. ">
<polygon fill="none" stroke="black" points="132.5,-164.5 132.5,-183.5 233.5,-183.5 233.5,-164.5 132.5,-164.5"/>
<text text-anchor="middle" x="183" y="-171.5" font-family="Helvetica,sans-Serif" font-size="10.00">juce::SplashScreen</text>
</a>
</g>
</g>
<!-- Node1&#45;&gt;Node22 -->
<g id="edge21" class="edge"><title>Node1&#45;&gt;Node22</title>
<path fill="none" stroke="#8b1a1a" d="M36.051,-458.141C42.4701,-399.845 64.0441,-230.917 102,-193 110.18,-184.828 121.193,-179.925 132.427,-177.041"/>
<polygon fill="#8b1a1a" stroke="#8b1a1a" points="32.5528,-457.938 34.9689,-468.254 39.5131,-458.683 32.5528,-457.938"/>
</g>
<!-- Node23 -->
<g id="node23" class="node"><title>Node23</title>
<g id="a_node23"><a xlink:href="classjuce_1_1StandalonePluginHolder.html" target="_top" xlink:title="An object that creates and plays a standalone instance of an AudioProcessor. ">
<polygon fill="none" stroke="black" points="110.5,-126.5 110.5,-145.5 255.5,-145.5 255.5,-126.5 110.5,-126.5"/>
<text text-anchor="middle" x="183" y="-133.5" font-family="Helvetica,sans-Serif" font-size="10.00">juce::StandalonePluginHolder</text>
</a>
</g>
</g>
<!-- Node1&#45;&gt;Node23 -->
<g id="edge22" class="edge"><title>Node1&#45;&gt;Node23</title>
<path fill="none" stroke="#8b1a1a" d="M35.4557,-458.049C40.4921,-394.567 59.2628,-198.849 102,-155 105.687,-151.218 109.979,-148.132 114.624,-145.62"/>
<polygon fill="#8b1a1a" stroke="#8b1a1a" points="31.9448,-458.06 34.6725,-468.297 38.9244,-458.593 31.9448,-458.06"/>
</g>
<!-- Node24 -->
<g id="node24" class="node"><title>Node24</title>
<g id="a_node24"><a xlink:href="classjuce_1_1ThreadWithProgressWindow.html" target="_top" xlink:title="A thread that automatically pops up a modal dialog box with a progress bar and cancel button while it...">
<polygon fill="none" stroke="black" points="118,-77 118,-107 248,-107 248,-77 118,-77"/>
<text text-anchor="start" x="126" y="-95" font-family="Helvetica,sans-Serif" font-size="10.00">juce::ThreadWithProgress</text>
<text text-anchor="middle" x="183" y="-84" font-family="Helvetica,sans-Serif" font-size="10.00">Window</text>
</a>
</g>
</g>
<!-- Node1&#45;&gt;Node24 -->
<g id="edge23" class="edge"><title>Node1&#45;&gt;Node24</title>
<path fill="none" stroke="#8b1a1a" d="M35.1084,-458.087C39.2827,-390.091 56.2183,-168.462 102,-117 106.449,-111.999 111.882,-107.988 117.802,-104.773"/>
<polygon fill="#8b1a1a" stroke="#8b1a1a" points="31.602,-458.094 34.5089,-468.282 38.5899,-458.505 31.602,-458.094"/>
</g>
<!-- Node25 -->
<g id="node25" class="node"><title>Node25</title>
<g id="a_node25"><a xlink:href="classjuce_1_1TooltipWindow.html" target="_top" xlink:title="A window that displays a pop&#45;up tooltip when the mouse hovers over another component. ">
<polygon fill="none" stroke="black" points="130.5,-38.5 130.5,-57.5 235.5,-57.5 235.5,-38.5 130.5,-38.5"/>
<text text-anchor="middle" x="183" y="-45.5" font-family="Helvetica,sans-Serif" font-size="10.00">juce::TooltipWindow</text>
</a>
</g>
</g>
<!-- Node1&#45;&gt;Node25 -->
<g id="edge24" class="edge"><title>Node1&#45;&gt;Node25</title>
<path fill="none" stroke="#8b1a1a" d="M34.5001,-458.214C36.7726,-384.351 48.4803,-126.018 102,-68 109.474,-59.8974 119.69,-54.8596 130.322,-51.776"/>
<polygon fill="#8b1a1a" stroke="#8b1a1a" points="30.9955,-458.331 34.2114,-468.426 37.9927,-458.529 30.9955,-458.331"/>
</g>
<!-- Node26 -->
<g id="node26" class="node"><title>Node26</title>
<g id="a_node26"><a xlink:href="classjuce_1_1VideoComponent.html" target="_top" xlink:title="A component that can play a movie. ">
<polygon fill="none" stroke="black" points="125,-0.5 125,-19.5 241,-19.5 241,-0.5 125,-0.5"/>
<text text-anchor="middle" x="183" y="-7.5" font-family="Helvetica,sans-Serif" font-size="10.00">juce::VideoComponent</text>
</a>
</g>
</g>
<!-- Node1&#45;&gt;Node26 -->
<g id="edge25" class="edge"><title>Node1&#45;&gt;Node26</title>
<path fill="none" stroke="#8b1a1a" d="M34.1688,-457.857C35.2481,-379.055 43.2172,-92.868 102,-29 108.187,-22.2777 116.281,-17.729 124.941,-14.6874"/>
<polygon fill="#8b1a1a" stroke="#8b1a1a" points="30.6642,-458.256 34.0511,-468.295 37.6637,-458.335 30.6642,-458.256"/>
</g>
</g>
</svg>
