<?xml version="1.0" encoding="UTF-8" standalone="no"?>
<!DOCTYPE svg PUBLIC "-//W3C//DTD SVG 1.1//EN"
 "http://www.w3.org/Graphics/SVG/1.1/DTD/svg11.dtd">
<!-- Generated by graphviz version 2.36.0 (20140111.2315)
 -->
<!-- Title: juce::ImageType Pages: 1 -->
<svg width="416pt" height="84pt"
 viewBox="0.00 0.00 416.00 84.00" xmlns="http://www.w3.org/2000/svg" xmlns:xlink="http://www.w3.org/1999/xlink">
<g id="graph0" class="graph" transform="scale(1 1) rotate(0) translate(4 80)">
<title>juce::ImageType</title>
<!-- Node1 -->
<g id="node1" class="node"><title>Node1</title>
<polygon fill="#bfbfbf" stroke="black" points="154.5,-56.5 154.5,-75.5 243.5,-75.5 243.5,-56.5 154.5,-56.5"/>
<text text-anchor="middle" x="199" y="-63.5" font-family="Helvetica,sans-Serif" font-size="10.00">juce::ImageType</text>
</g>
<!-- Node2 -->
<g id="node2" class="node"><title>Node2</title>
<g id="a_node2"><a xlink:href="classjuce_1_1NativeImageType.html" target="_top" xlink:title="An image storage type which holds the pixels using whatever is the default storage format on the curr...">
<polygon fill="none" stroke="black" points="0,-0.5 0,-19.5 118,-19.5 118,-0.5 0,-0.5"/>
<text text-anchor="middle" x="59" y="-7.5" font-family="Helvetica,sans-Serif" font-size="10.00">juce::NativeImageType</text>
</a>
</g>
</g>
<!-- Node1&#45;&gt;Node2 -->
<g id="edge1" class="edge"><title>Node1&#45;&gt;Node2</title>
<path fill="none" stroke="midnightblue" d="M167.298,-52.772C141,-42.6287 104.284,-28.4669 81.0796,-19.5164"/>
<polygon fill="midnightblue" stroke="midnightblue" points="166.227,-56.1103 176.817,-56.4435 168.746,-49.5792 166.227,-56.1103"/>
</g>
<!-- Node3 -->
<g id="node3" class="node"><title>Node3</title>
<g id="a_node3"><a xlink:href="classjuce_1_1OpenGLImageType.html" target="_top" xlink:title="A type of ImagePixelData that stores its image data in an OpenGL framebuffer, allowing a JUCE Image o...">
<polygon fill="none" stroke="black" points="136.5,-0.5 136.5,-19.5 261.5,-19.5 261.5,-0.5 136.5,-0.5"/>
<text text-anchor="middle" x="199" y="-7.5" font-family="Helvetica,sans-Serif" font-size="10.00">juce::OpenGLImageType</text>
</a>
</g>
</g>
<!-- Node1&#45;&gt;Node3 -->
<g id="edge2" class="edge"><title>Node1&#45;&gt;Node3</title>
<path fill="none" stroke="midnightblue" d="M199,-45.8045C199,-36.9102 199,-26.7798 199,-19.7511"/>
<polygon fill="midnightblue" stroke="midnightblue" points="195.5,-46.083 199,-56.083 202.5,-46.083 195.5,-46.083"/>
</g>
<!-- Node4 -->
<g id="node4" class="node"><title>Node4</title>
<g id="a_node4"><a xlink:href="classjuce_1_1SoftwareImageType.html" target="_top" xlink:title="An image storage type which holds the pixels in&#45;memory as a simple block of values. ">
<polygon fill="none" stroke="black" points="280,-0.5 280,-19.5 408,-19.5 408,-0.5 280,-0.5"/>
<text text-anchor="middle" x="344" y="-7.5" font-family="Helvetica,sans-Serif" font-size="10.00">juce::SoftwareImageType</text>
</a>
</g>
</g>
<!-- Node1&#45;&gt;Node4 -->
<g id="edge3" class="edge"><title>Node1&#45;&gt;Node4</title>
<path fill="none" stroke="midnightblue" d="M231.475,-52.9058C258.736,-42.7536 296.992,-28.5063 321.132,-19.5164"/>
<polygon fill="midnightblue" stroke="midnightblue" points="230.125,-49.6736 221.976,-56.4435 232.568,-56.2334 230.125,-49.6736"/>
</g>
</g>
</svg>
