<?xml version="1.0" encoding="UTF-8" standalone="no"?>
<!DOCTYPE svg PUBLIC "-//W3C//DTD SVG 1.1//EN"
 "http://www.w3.org/Graphics/SVG/1.1/DTD/svg11.dtd">
<!-- Generated by graphviz version 2.36.0 (20140111.2315)
 -->
<!-- Title: Label Pages: 1 -->
<svg width="308pt" height="180pt"
 viewBox="0.00 0.00 308.00 180.00" xmlns="http://www.w3.org/2000/svg" xmlns:xlink="http://www.w3.org/1999/xlink">
<g id="graph0" class="graph" transform="scale(1 1) rotate(0) translate(4 176)">
<title>Label</title>
<!-- Node1 -->
<g id="node1" class="node"><title>Node1</title>
<polygon fill="#bfbfbf" stroke="black" points="260,-76.5 260,-95.5 300,-95.5 300,-76.5 260,-76.5"/>
<text text-anchor="middle" x="280" y="-83.5" font-family="Helvetica,sans-Serif" font-size="10.00">Label</text>
</g>
<!-- Node2 -->
<g id="node2" class="node"><title>Node2</title>
<g id="a_node2"><a xlink:href="classComponent.html" target="_top" xlink:title="The base class for all JUCE user&#45;interface objects. ">
<polygon fill="none" stroke="black" points="136.5,-152.5 136.5,-171.5 203.5,-171.5 203.5,-152.5 136.5,-152.5"/>
<text text-anchor="middle" x="170" y="-159.5" font-family="Helvetica,sans-Serif" font-size="10.00">Component</text>
</a>
</g>
</g>
<!-- Node2&#45;&gt;Node1 -->
<g id="edge1" class="edge"><title>Node2&#45;&gt;Node1</title>
<path fill="none" stroke="midnightblue" d="M212.754,-149.134C216.675,-147.309 220.49,-145.268 224,-143 244.096,-130.013 262.283,-108.347 271.872,-95.8006"/>
<polygon fill="midnightblue" stroke="midnightblue" points="211.376,-145.916 203.506,-153.01 214.082,-152.372 211.376,-145.916"/>
</g>
<!-- Node3 -->
<g id="node3" class="node"><title>Node3</title>
<g id="a_node3"><a xlink:href="classMouseListener.html" target="_top" xlink:title="A MouseListener can be registered with a component to receive callbacks about mouse events that happe...">
<polygon fill="none" stroke="black" points="0,-152.5 0,-171.5 80,-171.5 80,-152.5 0,-152.5"/>
<text text-anchor="middle" x="40" y="-159.5" font-family="Helvetica,sans-Serif" font-size="10.00">MouseListener</text>
</a>
</g>
</g>
<!-- Node3&#45;&gt;Node2 -->
<g id="edge2" class="edge"><title>Node3&#45;&gt;Node2</title>
<path fill="none" stroke="midnightblue" d="M90.4703,-162C105.787,-162 122.277,-162 136.172,-162"/>
<polygon fill="midnightblue" stroke="midnightblue" points="90.0998,-158.5 80.0997,-162 90.0997,-165.5 90.0998,-158.5"/>
</g>
<!-- Node4 -->
<g id="node4" class="node"><title>Node4</title>
<g id="a_node4"><a xlink:href="classSettableTooltipClient.html" target="_top" xlink:title="An implementation of TooltipClient that stores the tooltip string and a method for changing it...">
<polygon fill="none" stroke="black" points="116.5,-114.5 116.5,-133.5 223.5,-133.5 223.5,-114.5 116.5,-114.5"/>
<text text-anchor="middle" x="170" y="-121.5" font-family="Helvetica,sans-Serif" font-size="10.00">SettableTooltipClient</text>
</a>
</g>
</g>
<!-- Node4&#45;&gt;Node1 -->
<g id="edge3" class="edge"><title>Node4&#45;&gt;Node1</title>
<path fill="none" stroke="midnightblue" d="M208.153,-110.928C225.584,-104.795 245.618,-97.7454 259.925,-92.7116"/>
<polygon fill="midnightblue" stroke="midnightblue" points="206.524,-107.79 198.253,-114.411 208.848,-114.393 206.524,-107.79"/>
</g>
<!-- Node5 -->
<g id="node5" class="node"><title>Node5</title>
<g id="a_node5"><a xlink:href="classTooltipClient.html" target="_top" xlink:title="Components that want to use pop&#45;up tooltips should implement this interface. ">
<polygon fill="none" stroke="black" points="4.5,-114.5 4.5,-133.5 75.5,-133.5 75.5,-114.5 4.5,-114.5"/>
<text text-anchor="middle" x="40" y="-121.5" font-family="Helvetica,sans-Serif" font-size="10.00">TooltipClient</text>
</a>
</g>
</g>
<!-- Node5&#45;&gt;Node4 -->
<g id="edge4" class="edge"><title>Node5&#45;&gt;Node4</title>
<path fill="none" stroke="midnightblue" d="M85.9021,-124C95.64,-124 106.027,-124 116.042,-124"/>
<polygon fill="midnightblue" stroke="midnightblue" points="85.6387,-120.5 75.6386,-124 85.6386,-127.5 85.6387,-120.5"/>
</g>
<!-- Node6 -->
<g id="node6" class="node"><title>Node6</title>
<g id="a_node6"><a xlink:href="classTextEditor_1_1Listener.html" target="_top" xlink:title="Receives callbacks from a TextEditor component when it changes. ">
<polygon fill="none" stroke="black" points="119,-76.5 119,-95.5 221,-95.5 221,-76.5 119,-76.5"/>
<text text-anchor="middle" x="170" y="-83.5" font-family="Helvetica,sans-Serif" font-size="10.00">TextEditor::Listener</text>
</a>
</g>
</g>
<!-- Node6&#45;&gt;Node1 -->
<g id="edge5" class="edge"><title>Node6&#45;&gt;Node1</title>
<path fill="none" stroke="darkgreen" d="M231.219,-86C241.616,-86 251.701,-86 259.905,-86"/>
<polygon fill="darkgreen" stroke="darkgreen" points="231.206,-82.5001 221.206,-86 231.206,-89.5001 231.206,-82.5001"/>
</g>
<!-- Node7 -->
<g id="node7" class="node"><title>Node7</title>
<g id="a_node7"><a xlink:href="classComponentListener.html" target="_top" xlink:title="Gets informed about changes to a component&#39;s hierarchy or position. ">
<polygon fill="none" stroke="black" points="119.5,-38.5 119.5,-57.5 220.5,-57.5 220.5,-38.5 119.5,-38.5"/>
<text text-anchor="middle" x="170" y="-45.5" font-family="Helvetica,sans-Serif" font-size="10.00">ComponentListener</text>
</a>
</g>
</g>
<!-- Node7&#45;&gt;Node1 -->
<g id="edge6" class="edge"><title>Node7&#45;&gt;Node1</title>
<path fill="none" stroke="#8b1a1a" d="M208.153,-61.0722C225.584,-67.2055 245.618,-74.2546 259.925,-79.2884"/>
<polygon fill="#8b1a1a" stroke="#8b1a1a" points="208.848,-57.6065 198.253,-57.589 206.524,-64.2097 208.848,-57.6065"/>
</g>
<!-- Node8 -->
<g id="node8" class="node"><title>Node8</title>
<g id="a_node8"><a xlink:href="classValue_1_1Listener.html" target="_top" xlink:title="Receives callbacks when a Value object changes. ">
<polygon fill="none" stroke="black" points="129,-0.5 129,-19.5 211,-19.5 211,-0.5 129,-0.5"/>
<text text-anchor="middle" x="170" y="-7.5" font-family="Helvetica,sans-Serif" font-size="10.00">Value::Listener</text>
</a>
</g>
</g>
<!-- Node8&#45;&gt;Node1 -->
<g id="edge7" class="edge"><title>Node8&#45;&gt;Node1</title>
<path fill="none" stroke="#8b1a1a" d="M214.133,-23.5194C217.569,-25.1749 220.903,-26.9988 224,-29 244.096,-41.9873 262.283,-63.6525 271.872,-76.1994"/>
<polygon fill="#8b1a1a" stroke="#8b1a1a" points="215.467,-20.2828 204.899,-19.5247 212.687,-26.7074 215.467,-20.2828"/>
</g>
</g>
</svg>
