<?xml version="1.0" encoding="UTF-8" standalone="no"?>
<!DOCTYPE svg PUBLIC "-//W3C//DTD SVG 1.1//EN"
 "http://www.w3.org/Graphics/SVG/1.1/DTD/svg11.dtd">
<!-- Generated by graphviz version 2.36.0 (20140111.2315)
 -->
<!-- Title: ComponentListener Pages: 1 -->
<svg width="312pt" height="256pt"
 viewBox="0.00 0.00 312.00 256.00" xmlns="http://www.w3.org/2000/svg" xmlns:xlink="http://www.w3.org/1999/xlink">
<g id="graph0" class="graph" transform="scale(1 1) rotate(0) translate(4 252)">
<title>ComponentListener</title>
<!-- Node1 -->
<g id="node1" class="node"><title>Node1</title>
<polygon fill="#bfbfbf" stroke="black" points="0.5,-114.5 0.5,-133.5 101.5,-133.5 101.5,-114.5 0.5,-114.5"/>
<text text-anchor="middle" x="51" y="-121.5" font-family="Helvetica,sans-Serif" font-size="10.00">ComponentListener</text>
</g>
<!-- Node2 -->
<g id="node2" class="node"><title>Node2</title>
<g id="a_node2"><a xlink:href="classComponentMovementWatcher.html" target="_top" xlink:title="An object that watches for any movement of a component or any of its parent components. ">
<polygon fill="none" stroke="black" points="146.5,-228.5 146.5,-247.5 295.5,-247.5 295.5,-228.5 146.5,-228.5"/>
<text text-anchor="middle" x="221" y="-235.5" font-family="Helvetica,sans-Serif" font-size="10.00">ComponentMovementWatcher</text>
</a>
</g>
</g>
<!-- Node1&#45;&gt;Node2 -->
<g id="edge1" class="edge"><title>Node1&#45;&gt;Node2</title>
<path fill="none" stroke="midnightblue" d="M63.3679,-142.19C77.9341,-163.923 105.254,-199.753 138,-219 144.551,-222.851 151.824,-225.921 159.255,-228.369"/>
<polygon fill="midnightblue" stroke="midnightblue" points="66.1477,-140.045 57.763,-133.568 60.2787,-143.86 66.1477,-140.045"/>
</g>
<!-- Node3 -->
<g id="node3" class="node"><title>Node3</title>
<g id="a_node3"><a xlink:href="classDropShadower.html" target="_top" xlink:title="Adds a drop&#45;shadow to a component. ">
<polygon fill="none" stroke="black" points="180.5,-190.5 180.5,-209.5 261.5,-209.5 261.5,-190.5 180.5,-190.5"/>
<text text-anchor="middle" x="221" y="-197.5" font-family="Helvetica,sans-Serif" font-size="10.00">DropShadower</text>
</a>
</g>
</g>
<!-- Node1&#45;&gt;Node3 -->
<g id="edge2" class="edge"><title>Node1&#45;&gt;Node3</title>
<path fill="none" stroke="#8b1a1a" d="M71.3716,-139.793C88.0792,-152.662 113.342,-170.385 138,-181 151.288,-186.72 166.562,-190.858 180.298,-193.781"/>
<polygon fill="#8b1a1a" stroke="#8b1a1a" points="73.4857,-137.003 63.4629,-133.568 69.1565,-142.503 73.4857,-137.003"/>
</g>
<!-- Node4 -->
<g id="node4" class="node"><title>Node4</title>
<g id="a_node4"><a xlink:href="classLabel.html" target="_top" xlink:title="A component that displays a text string, and can optionally become a text editor when clicked...">
<polygon fill="none" stroke="black" points="201,-152.5 201,-171.5 241,-171.5 241,-152.5 201,-152.5"/>
<text text-anchor="middle" x="221" y="-159.5" font-family="Helvetica,sans-Serif" font-size="10.00">Label</text>
</a>
</g>
</g>
<!-- Node1&#45;&gt;Node4 -->
<g id="edge3" class="edge"><title>Node1&#45;&gt;Node4</title>
<path fill="none" stroke="#8b1a1a" d="M104.314,-135.833C137.152,-143.261 177.561,-152.401 200.892,-157.678"/>
<polygon fill="#8b1a1a" stroke="#8b1a1a" points="104.919,-132.381 94.3935,-133.589 103.375,-139.209 104.919,-132.381"/>
</g>
<!-- Node5 -->
<g id="node5" class="node"><title>Node5</title>
<g id="a_node5"><a xlink:href="classMultiDocumentPanel.html" target="_top" xlink:title="A component that contains a set of other components either in floating windows or tabs...">
<polygon fill="none" stroke="black" points="167.5,-114.5 167.5,-133.5 274.5,-133.5 274.5,-114.5 167.5,-114.5"/>
<text text-anchor="middle" x="221" y="-121.5" font-family="Helvetica,sans-Serif" font-size="10.00">MultiDocumentPanel</text>
</a>
</g>
</g>
<!-- Node1&#45;&gt;Node5 -->
<g id="edge4" class="edge"><title>Node1&#45;&gt;Node5</title>
<path fill="none" stroke="#8b1a1a" d="M112.076,-124C130.128,-124 149.787,-124 167.322,-124"/>
<polygon fill="#8b1a1a" stroke="#8b1a1a" points="111.951,-120.5 101.951,-124 111.951,-127.5 111.951,-120.5"/>
</g>
<!-- Node6 -->
<g id="node6" class="node"><title>Node6</title>
<g id="a_node6"><a xlink:href="classRelativeCoordinatePositionerBase.html" target="_top" xlink:title="Base class for Component::Positioners that are based upon relative coordinates. ">
<polygon fill="none" stroke="black" points="138,-76.5 138,-95.5 304,-95.5 304,-76.5 138,-76.5"/>
<text text-anchor="middle" x="221" y="-83.5" font-family="Helvetica,sans-Serif" font-size="10.00">RelativeCoordinatePositionerBase</text>
</a>
</g>
</g>
<!-- Node1&#45;&gt;Node6 -->
<g id="edge5" class="edge"><title>Node1&#45;&gt;Node6</title>
<path fill="none" stroke="midnightblue" d="M104.276,-112.176C127.961,-106.818 155.59,-100.569 177.911,-95.5201"/>
<polygon fill="midnightblue" stroke="midnightblue" points="103.375,-108.791 94.3935,-114.411 104.919,-115.619 103.375,-108.791"/>
</g>
<!-- Node7 -->
<g id="node7" class="node"><title>Node7</title>
<g id="a_node7"><a xlink:href="classSidePanel.html" target="_top" xlink:title="A component that is positioned on either the left&#45; or right&#45;hand side of its parent, containing a header and some content. ">
<polygon fill="none" stroke="black" points="190.5,-38.5 190.5,-57.5 251.5,-57.5 251.5,-38.5 190.5,-38.5"/>
<text text-anchor="middle" x="221" y="-45.5" font-family="Helvetica,sans-Serif" font-size="10.00">SidePanel</text>
</a>
</g>
</g>
<!-- Node1&#45;&gt;Node7 -->
<g id="edge6" class="edge"><title>Node1&#45;&gt;Node7</title>
<path fill="none" stroke="#8b1a1a" d="M71.3716,-108.207C88.0792,-95.3376 113.342,-77.6149 138,-67 154.644,-59.8352 174.403,-55.1535 190.354,-52.2305"/>
<polygon fill="#8b1a1a" stroke="#8b1a1a" points="69.1565,-105.497 63.4629,-114.432 73.4857,-110.997 69.1565,-105.497"/>
</g>
<!-- Node8 -->
<g id="node8" class="node"><title>Node8</title>
<g id="a_node8"><a xlink:href="classViewport.html" target="_top" xlink:title="A Viewport is used to contain a larger child component, and allows the child to be automatically scro...">
<polygon fill="none" stroke="black" points="193.5,-0.5 193.5,-19.5 248.5,-19.5 248.5,-0.5 193.5,-0.5"/>
<text text-anchor="middle" x="221" y="-7.5" font-family="Helvetica,sans-Serif" font-size="10.00">Viewport</text>
</a>
</g>
</g>
<!-- Node1&#45;&gt;Node8 -->
<g id="edge7" class="edge"><title>Node1&#45;&gt;Node8</title>
<path fill="none" stroke="#8b1a1a" d="M63.3679,-105.81C77.9341,-84.0772 105.254,-48.2474 138,-29 154.882,-19.0774 176.557,-14.3367 193.383,-12.0719"/>
<polygon fill="#8b1a1a" stroke="#8b1a1a" points="60.2787,-104.14 57.763,-114.432 66.1477,-107.955 60.2787,-104.14"/>
</g>
</g>
</svg>
