<?xml version="1.0" encoding="UTF-8" standalone="no"?>
<!DOCTYPE svg PUBLIC "-//W3C//DTD SVG 1.1//EN"
 "http://www.w3.org/Graphics/SVG/1.1/DTD/svg11.dtd">
<!-- Generated by graphviz version 2.36.0 (20140111.2315)
 -->
<!-- Title: juce::ImageFileFormat Pages: 1 -->
<svg width="404pt" height="84pt"
 viewBox="0.00 0.00 404.00 84.00" xmlns="http://www.w3.org/2000/svg" xmlns:xlink="http://www.w3.org/1999/xlink">
<g id="graph0" class="graph" transform="scale(1 1) rotate(0) translate(4 80)">
<title>juce::ImageFileFormat</title>
<!-- Node1 -->
<g id="node1" class="node"><title>Node1</title>
<polygon fill="#bfbfbf" stroke="black" points="138,-56.5 138,-75.5 252,-75.5 252,-56.5 138,-56.5"/>
<text text-anchor="middle" x="195" y="-63.5" font-family="Helvetica,sans-Serif" font-size="10.00">juce::ImageFileFormat</text>
</g>
<!-- Node2 -->
<g id="node2" class="node"><title>Node2</title>
<g id="a_node2"><a xlink:href="classjuce_1_1GIFImageFormat.html" target="_top" xlink:title="A subclass of ImageFileFormat for reading GIF files. ">
<polygon fill="none" stroke="black" points="-0.5,-0.5 -0.5,-19.5 114.5,-19.5 114.5,-0.5 -0.5,-0.5"/>
<text text-anchor="middle" x="57" y="-7.5" font-family="Helvetica,sans-Serif" font-size="10.00">juce::GIFImageFormat</text>
</a>
</g>
</g>
<!-- Node1&#45;&gt;Node2 -->
<g id="edge1" class="edge"><title>Node1&#45;&gt;Node2</title>
<path fill="none" stroke="midnightblue" d="M163.751,-52.772C137.829,-42.6287 101.638,-28.4669 78.7642,-19.5164"/>
<polygon fill="midnightblue" stroke="midnightblue" points="162.546,-56.0588 173.133,-56.4435 165.096,-49.5401 162.546,-56.0588"/>
</g>
<!-- Node3 -->
<g id="node3" class="node"><title>Node3</title>
<g id="a_node3"><a xlink:href="classjuce_1_1JPEGImageFormat.html" target="_top" xlink:title="A subclass of ImageFileFormat for reading and writing JPEG files. ">
<polygon fill="none" stroke="black" points="132.5,-0.5 132.5,-19.5 257.5,-19.5 257.5,-0.5 132.5,-0.5"/>
<text text-anchor="middle" x="195" y="-7.5" font-family="Helvetica,sans-Serif" font-size="10.00">juce::JPEGImageFormat</text>
</a>
</g>
</g>
<!-- Node1&#45;&gt;Node3 -->
<g id="edge2" class="edge"><title>Node1&#45;&gt;Node3</title>
<path fill="none" stroke="midnightblue" d="M195,-45.8045C195,-36.9102 195,-26.7798 195,-19.7511"/>
<polygon fill="midnightblue" stroke="midnightblue" points="191.5,-46.083 195,-56.083 198.5,-46.083 191.5,-46.083"/>
</g>
<!-- Node4 -->
<g id="node4" class="node"><title>Node4</title>
<g id="a_node4"><a xlink:href="classjuce_1_1PNGImageFormat.html" target="_top" xlink:title="A subclass of ImageFileFormat for reading and writing PNG files. ">
<polygon fill="none" stroke="black" points="276,-0.5 276,-19.5 396,-19.5 396,-0.5 276,-0.5"/>
<text text-anchor="middle" x="336" y="-7.5" font-family="Helvetica,sans-Serif" font-size="10.00">juce::PNGImageFormat</text>
</a>
</g>
</g>
<!-- Node1&#45;&gt;Node4 -->
<g id="edge3" class="edge"><title>Node1&#45;&gt;Node4</title>
<path fill="none" stroke="midnightblue" d="M226.929,-52.772C253.414,-42.6287 290.392,-28.4669 313.763,-19.5164"/>
<polygon fill="midnightblue" stroke="midnightblue" points="225.429,-49.5985 217.342,-56.4435 227.932,-56.1355 225.429,-49.5985"/>
</g>
</g>
</svg>
