<?xml version="1.0" encoding="UTF-8" standalone="no"?>
<!DOCTYPE svg PUBLIC "-//W3C//DTD SVG 1.1//EN"
 "http://www.w3.org/Graphics/SVG/1.1/DTD/svg11.dtd">
<!-- Generated by graphviz version 2.36.0 (20140111.2315)
 -->
<!-- Title: juce::AudioPluginFormat Pages: 1 -->
<svg width="310pt" height="142pt"
 viewBox="0.00 0.00 310.00 142.00" xmlns="http://www.w3.org/2000/svg" xmlns:xlink="http://www.w3.org/1999/xlink">
<g id="graph0" class="graph" transform="scale(1 1) rotate(0) translate(4 138)">
<title>juce::AudioPluginFormat</title>
<!-- Node1 -->
<g id="node1" class="node"><title>Node1</title>
<polygon fill="#bfbfbf" stroke="black" points="0.5,-57.5 0.5,-76.5 123.5,-76.5 123.5,-57.5 0.5,-57.5"/>
<text text-anchor="middle" x="62" y="-64.5" font-family="Helvetica,sans-Serif" font-size="10.00">juce::AudioPluginFormat</text>
</g>
<!-- Node2 -->
<g id="node2" class="node"><title>Node2</title>
<g id="a_node2"><a xlink:href="classjuce_1_1AudioUnitPluginFormat.html" target="_top" xlink:title="Implements a plugin format manager for AudioUnits. ">
<polygon fill="none" stroke="black" points="160.5,-114.5 160.5,-133.5 301.5,-133.5 301.5,-114.5 160.5,-114.5"/>
<text text-anchor="middle" x="231" y="-121.5" font-family="Helvetica,sans-Serif" font-size="10.00">juce::AudioUnitPluginFormat</text>
</a>
</g>
</g>
<!-- Node1&#45;&gt;Node2 -->
<g id="edge1" class="edge"><title>Node1&#45;&gt;Node2</title>
<path fill="none" stroke="midnightblue" d="M94.7569,-80.4458C113.547,-88.1479 137.918,-97.7017 160,-105 170.282,-108.398 181.556,-111.658 191.995,-114.488"/>
<polygon fill="midnightblue" stroke="midnightblue" points="96.06,-77.1973 85.4815,-76.6086 93.384,-83.6656 96.06,-77.1973"/>
</g>
<!-- Node3 -->
<g id="node3" class="node"><title>Node3</title>
<g id="a_node3"><a xlink:href="classjuce_1_1LADSPAPluginFormat.html" target="_top" xlink:title="Implements a plugin format manager for LADSPA plugins. ">
<polygon fill="none" stroke="black" points="162,-76.5 162,-95.5 300,-95.5 300,-76.5 162,-76.5"/>
<text text-anchor="middle" x="231" y="-83.5" font-family="Helvetica,sans-Serif" font-size="10.00">juce::LADSPAPluginFormat</text>
</a>
</g>
</g>
<!-- Node1&#45;&gt;Node3 -->
<g id="edge2" class="edge"><title>Node1&#45;&gt;Node3</title>
<path fill="none" stroke="midnightblue" d="M133.778,-75.0526C143.107,-76.1139 152.652,-77.2 161.935,-78.256"/>
<polygon fill="midnightblue" stroke="midnightblue" points="134.095,-71.5661 123.763,-73.9132 133.303,-78.5213 134.095,-71.5661"/>
</g>
<!-- Node4 -->
<g id="node4" class="node"><title>Node4</title>
<g id="a_node4"><a xlink:href="classjuce_1_1VST3PluginFormat.html" target="_top" xlink:title="Implements a plugin format for VST3s. ">
<polygon fill="none" stroke="black" points="169.5,-38.5 169.5,-57.5 292.5,-57.5 292.5,-38.5 169.5,-38.5"/>
<text text-anchor="middle" x="231" y="-45.5" font-family="Helvetica,sans-Serif" font-size="10.00">juce::VST3PluginFormat</text>
</a>
</g>
</g>
<!-- Node1&#45;&gt;Node4 -->
<g id="edge3" class="edge"><title>Node1&#45;&gt;Node4</title>
<path fill="none" stroke="midnightblue" d="M133.977,-58.9247C145.727,-57.588 157.815,-56.2127 169.282,-54.908"/>
<polygon fill="midnightblue" stroke="midnightblue" points="133.303,-55.4787 123.763,-60.0868 134.095,-62.4339 133.303,-55.4787"/>
</g>
<!-- Node5 -->
<g id="node5" class="node"><title>Node5</title>
<g id="a_node5"><a xlink:href="classjuce_1_1VSTPluginFormat.html" target="_top" xlink:title="Implements a plugin format manager for VSTs. ">
<polygon fill="none" stroke="black" points="172,-0.5 172,-19.5 290,-19.5 290,-0.5 172,-0.5"/>
<text text-anchor="middle" x="231" y="-7.5" font-family="Helvetica,sans-Serif" font-size="10.00">juce::VSTPluginFormat</text>
</a>
</g>
</g>
<!-- Node1&#45;&gt;Node5 -->
<g id="edge4" class="edge"><title>Node1&#45;&gt;Node5</title>
<path fill="none" stroke="midnightblue" d="M94.7569,-53.5542C113.547,-45.8521 137.918,-36.2983 160,-29 170.282,-25.6015 181.556,-22.3422 191.995,-19.512"/>
<polygon fill="midnightblue" stroke="midnightblue" points="93.384,-50.3344 85.4815,-57.3914 96.06,-56.8027 93.384,-50.3344"/>
</g>
</g>
</svg>
