<?xml version="1.0" encoding="UTF-8" standalone="no"?>
<!DOCTYPE svg PUBLIC "-//W3C//DTD SVG 1.1//EN"
 "http://www.w3.org/Graphics/SVG/1.1/DTD/svg11.dtd">
<!-- Generated by graphviz version 2.36.0 (20140111.2315)
 -->
<!-- Title: juce::AudioAppComponent Pages: 1 -->
<svg width="220pt" height="140pt"
 viewBox="0.00 0.00 220.00 140.00" xmlns="http://www.w3.org/2000/svg" xmlns:xlink="http://www.w3.org/1999/xlink">
<g id="graph0" class="graph" transform="scale(1 1) rotate(0) translate(4 136)">
<title>juce::AudioAppComponent</title>
<!-- Node1 -->
<g id="node1" class="node"><title>Node1</title>
<polygon fill="#bfbfbf" stroke="black" points="41.5,-0.5 41.5,-19.5 174.5,-19.5 174.5,-0.5 41.5,-0.5"/>
<text text-anchor="middle" x="108" y="-7.5" font-family="Helvetica,sans-Serif" font-size="10.00">juce::AudioAppComponent</text>
</g>
<!-- Node2 -->
<g id="node2" class="node"><title>Node2</title>
<g id="a_node2"><a xlink:href="classjuce_1_1Component.html" target="_top" xlink:title="The base class for all JUCE user&#45;interface objects. ">
<polygon fill="none" stroke="black" points="6.5,-56.5 6.5,-75.5 97.5,-75.5 97.5,-56.5 6.5,-56.5"/>
<text text-anchor="middle" x="52" y="-63.5" font-family="Helvetica,sans-Serif" font-size="10.00">juce::Component</text>
</a>
</g>
</g>
<!-- Node2&#45;&gt;Node1 -->
<g id="edge1" class="edge"><title>Node2&#45;&gt;Node1</title>
<path fill="none" stroke="midnightblue" d="M68.3299,-49.2533C78.265,-39.6731 90.5875,-27.7906 98.8389,-19.8339"/>
<polygon fill="midnightblue" stroke="midnightblue" points="65.7664,-46.8631 60.9974,-56.324 70.6253,-51.902 65.7664,-46.8631"/>
</g>
<!-- Node3 -->
<g id="node3" class="node"><title>Node3</title>
<g id="a_node3"><a xlink:href="classjuce_1_1MouseListener.html" target="_top" xlink:title="A MouseListener can be registered with a component to receive callbacks about mouse events that happe...">
<polygon fill="none" stroke="black" points="0,-112.5 0,-131.5 104,-131.5 104,-112.5 0,-112.5"/>
<text text-anchor="middle" x="52" y="-119.5" font-family="Helvetica,sans-Serif" font-size="10.00">juce::MouseListener</text>
</a>
</g>
</g>
<!-- Node3&#45;&gt;Node2 -->
<g id="edge2" class="edge"><title>Node3&#45;&gt;Node2</title>
<path fill="none" stroke="midnightblue" d="M52,-101.805C52,-92.9102 52,-82.7798 52,-75.7511"/>
<polygon fill="midnightblue" stroke="midnightblue" points="48.5001,-102.083 52,-112.083 55.5001,-102.083 48.5001,-102.083"/>
</g>
<!-- Node4 -->
<g id="node4" class="node"><title>Node4</title>
<g id="a_node4"><a xlink:href="classjuce_1_1AudioSource.html" target="_top" xlink:title="Base class for objects that can produce a continuous stream of audio. ">
<polygon fill="none" stroke="black" points="116,-56.5 116,-75.5 212,-75.5 212,-56.5 116,-56.5"/>
<text text-anchor="middle" x="164" y="-63.5" font-family="Helvetica,sans-Serif" font-size="10.00">juce::AudioSource</text>
</a>
</g>
</g>
<!-- Node4&#45;&gt;Node1 -->
<g id="edge3" class="edge"><title>Node4&#45;&gt;Node1</title>
<path fill="none" stroke="midnightblue" d="M147.67,-49.2533C137.735,-39.6731 125.412,-27.7906 117.161,-19.8339"/>
<polygon fill="midnightblue" stroke="midnightblue" points="145.375,-51.902 155.003,-56.324 150.234,-46.8631 145.375,-51.902"/>
</g>
</g>
</svg>
