<?xml version="1.0" encoding="UTF-8" standalone="no"?>
<!DOCTYPE svg PUBLIC "-//W3C//DTD SVG 1.1//EN"
 "http://www.w3.org/Graphics/SVG/1.1/DTD/svg11.dtd">
<!-- Generated by graphviz version 2.36.0 (20140111.2315)
 -->
<!-- Title: BufferingAudioReader Pages: 1 -->
<svg width="216pt" height="84pt"
 viewBox="0.00 0.00 216.00 84.00" xmlns="http://www.w3.org/2000/svg" xmlns:xlink="http://www.w3.org/1999/xlink">
<g id="graph0" class="graph" transform="scale(1 1) rotate(0) translate(4 80)">
<title>BufferingAudioReader</title>
<!-- Node1 -->
<g id="node1" class="node"><title>Node1</title>
<polygon fill="#bfbfbf" stroke="black" points="52,-0.5 52,-19.5 164,-19.5 164,-0.5 52,-0.5"/>
<text text-anchor="middle" x="108" y="-7.5" font-family="Helvetica,sans-Serif" font-size="10.00">BufferingAudioReader</text>
</g>
<!-- Node2 -->
<g id="node2" class="node"><title>Node2</title>
<g id="a_node2"><a xlink:href="group__juce__audio__formats-format.html#classAudioFormatReader" target="_top" xlink:title="Reads samples from an audio file stream. ">
<polygon fill="none" stroke="black" points="0,-56.5 0,-75.5 104,-75.5 104,-56.5 0,-56.5"/>
<text text-anchor="middle" x="52" y="-63.5" font-family="Helvetica,sans-Serif" font-size="10.00">AudioFormatReader</text>
</a>
</g>
</g>
<!-- Node2&#45;&gt;Node1 -->
<g id="edge1" class="edge"><title>Node2&#45;&gt;Node1</title>
<path fill="none" stroke="midnightblue" d="M68.3299,-49.2533C78.265,-39.6731 90.5875,-27.7906 98.8389,-19.8339"/>
<polygon fill="midnightblue" stroke="midnightblue" points="65.7664,-46.8631 60.9974,-56.324 70.6253,-51.902 65.7664,-46.8631"/>
</g>
<!-- Node3 -->
<g id="node3" class="node"><title>Node3</title>
<g id="a_node3"><a xlink:href="group__juce__core-threads.html#classTimeSliceClient" target="_top" xlink:title="Used by the TimeSliceThread class. ">
<polygon fill="none" stroke="black" points="122,-56.5 122,-75.5 208,-75.5 208,-56.5 122,-56.5"/>
<text text-anchor="middle" x="165" y="-63.5" font-family="Helvetica,sans-Serif" font-size="10.00">TimeSliceClient</text>
</a>
</g>
</g>
<!-- Node3&#45;&gt;Node1 -->
<g id="edge2" class="edge"><title>Node3&#45;&gt;Node1</title>
<path fill="none" stroke="#8b1a1a" d="M148.379,-49.2533C138.266,-39.6731 125.723,-27.7906 117.325,-19.8339"/>
<polygon fill="#8b1a1a" stroke="#8b1a1a" points="146.175,-51.9873 155.842,-56.324 150.99,-46.9056 146.175,-51.9873"/>
</g>
</g>
</svg>
