<?xml version="1.0" encoding="UTF-8" standalone="no"?>
<!DOCTYPE svg PUBLIC "-//W3C//DTD SVG 1.1//EN"
 "http://www.w3.org/Graphics/SVG/1.1/DTD/svg11.dtd">
<!-- Generated by graphviz version 2.36.0 (20140111.2315)
 -->
<!-- Title: juce::AudioPluginInstance Pages: 1 -->
<svg width="144pt" height="152pt"
 viewBox="0.00 0.00 144.00 152.00" xmlns="http://www.w3.org/2000/svg" xmlns:xlink="http://www.w3.org/1999/xlink">
<g id="graph0" class="graph" transform="scale(1 1) rotate(0) translate(4 148)">
<title>juce::AudioPluginInstance</title>
<!-- Node1 -->
<g id="node1" class="node"><title>Node1</title>
<polygon fill="#bfbfbf" stroke="black" points="3,-68.5 3,-87.5 133,-87.5 133,-68.5 3,-68.5"/>
<text text-anchor="middle" x="68" y="-75.5" font-family="Helvetica,sans-Serif" font-size="10.00">juce::AudioPluginInstance</text>
</g>
<!-- Node3 -->
<g id="node3" class="node"><title>Node3</title>
<g id="a_node3"><a xlink:href="classjuce_1_1AudioProcessorGraph_1_1AudioGraphIOProcessor.html" target="_top" xlink:title="A special type of AudioProcessor that can live inside an AudioProcessorGraph in order to use the audi...">
<polygon fill="none" stroke="black" points="0,-1 0,-31 136,-31 136,-1 0,-1"/>
<text text-anchor="start" x="8" y="-19" font-family="Helvetica,sans-Serif" font-size="10.00">juce::AudioProcessorGraph</text>
<text text-anchor="middle" x="68" y="-8" font-family="Helvetica,sans-Serif" font-size="10.00">::AudioGraphIOProcessor</text>
</a>
</g>
</g>
<!-- Node1&#45;&gt;Node3 -->
<g id="edge2" class="edge"><title>Node1&#45;&gt;Node3</title>
<path fill="none" stroke="midnightblue" d="M68,-58.3707C68,-49.5849 68,-39.2721 68,-31.1408"/>
<polygon fill="midnightblue" stroke="midnightblue" points="64.5001,-58.4034 68,-68.4035 71.5001,-58.4035 64.5001,-58.4034"/>
</g>
<!-- Node2 -->
<g id="node2" class="node"><title>Node2</title>
<g id="a_node2"><a xlink:href="classjuce_1_1AudioProcessor.html" target="_top" xlink:title="Base class for audio processing filters or plugins. ">
<polygon fill="none" stroke="black" points="13,-124.5 13,-143.5 123,-143.5 123,-124.5 13,-124.5"/>
<text text-anchor="middle" x="68" y="-131.5" font-family="Helvetica,sans-Serif" font-size="10.00">juce::AudioProcessor</text>
</a>
</g>
</g>
<!-- Node2&#45;&gt;Node1 -->
<g id="edge1" class="edge"><title>Node2&#45;&gt;Node1</title>
<path fill="none" stroke="midnightblue" d="M68,-113.805C68,-104.91 68,-94.7798 68,-87.7511"/>
<polygon fill="midnightblue" stroke="midnightblue" points="64.5001,-114.083 68,-124.083 71.5001,-114.083 64.5001,-114.083"/>
</g>
</g>
</svg>
