<?xml version="1.0" encoding="UTF-8" standalone="no"?>
<!DOCTYPE svg PUBLIC "-//W3C//DTD SVG 1.1//EN"
 "http://www.w3.org/Graphics/SVG/1.1/DTD/svg11.dtd">
<!-- Generated by graphviz version 2.36.0 (20140111.2315)
 -->
<!-- Title: ComponentAnimator Pages: 1 -->
<svg width="169pt" height="84pt"
 viewBox="0.00 0.00 169.00 84.00" xmlns="http://www.w3.org/2000/svg" xmlns:xlink="http://www.w3.org/1999/xlink">
<g id="graph0" class="graph" transform="scale(1 1) rotate(0) translate(4 80)">
<title>ComponentAnimator</title>
<!-- Node1 -->
<g id="node1" class="node"><title>Node1</title>
<polygon fill="#bfbfbf" stroke="black" points="43,-0.5 43,-19.5 149,-19.5 149,-0.5 43,-0.5"/>
<text text-anchor="middle" x="96" y="-7.5" font-family="Helvetica,sans-Serif" font-size="10.00">ComponentAnimator</text>
</g>
<!-- Node2 -->
<g id="node2" class="node"><title>Node2</title>
<g id="a_node2"><a xlink:href="group__juce__events-broadcasters.html#classChangeBroadcaster" target="_top" xlink:title="Holds a list of ChangeListeners, and sends messages to them when instructed. ">
<polygon fill="none" stroke="black" points="-0.5,-56.5 -0.5,-75.5 102.5,-75.5 102.5,-56.5 -0.5,-56.5"/>
<text text-anchor="middle" x="51" y="-63.5" font-family="Helvetica,sans-Serif" font-size="10.00">ChangeBroadcaster</text>
</a>
</g>
</g>
<!-- Node2&#45;&gt;Node1 -->
<g id="edge1" class="edge"><title>Node2&#45;&gt;Node1</title>
<path fill="none" stroke="midnightblue" d="M65.0467,-48.144C72.8869,-38.7357 82.3295,-27.4046 88.7074,-19.7511"/>
<polygon fill="midnightblue" stroke="midnightblue" points="62.1439,-46.1601 58.4308,-56.083 67.5215,-50.6414 62.1439,-46.1601"/>
</g>
<!-- Node3 -->
<g id="node3" class="node"><title>Node3</title>
<g id="a_node3"><a xlink:href="group__juce__events-timers.html#classTimer" target="_top" xlink:title="Makes repeated callbacks to a virtual method at a specified time interval. ">
<polygon fill="none" stroke="black" points="120.5,-56.5 120.5,-75.5 161.5,-75.5 161.5,-56.5 120.5,-56.5"/>
<text text-anchor="middle" x="141" y="-63.5" font-family="Helvetica,sans-Serif" font-size="10.00">Timer</text>
</a>
</g>
</g>
<!-- Node3&#45;&gt;Node1 -->
<g id="edge2" class="edge"><title>Node3&#45;&gt;Node1</title>
<path fill="none" stroke="#8b1a1a" d="M126.953,-48.144C119.113,-38.7357 109.671,-27.4046 103.293,-19.7511"/>
<polygon fill="#8b1a1a" stroke="#8b1a1a" points="124.479,-50.6414 133.569,-56.083 129.856,-46.1601 124.479,-50.6414"/>
</g>
</g>
</svg>
