<?xml version="1.0" encoding="UTF-8" standalone="no"?>
<!DOCTYPE svg PUBLIC "-//W3C//DTD SVG 1.1//EN"
 "http://www.w3.org/Graphics/SVG/1.1/DTD/svg11.dtd">
<!-- Generated by graphviz version 2.36.0 (20140111.2315)
 -->
<!-- Title: juce::PopupMenu::CustomComponent Pages: 1 -->
<svg width="276pt" height="152pt"
 viewBox="0.00 0.00 276.00 152.00" xmlns="http://www.w3.org/2000/svg" xmlns:xlink="http://www.w3.org/1999/xlink">
<g id="graph0" class="graph" transform="scale(1 1) rotate(0) translate(4 148)">
<title>juce::PopupMenu::CustomComponent</title>
<!-- Node1 -->
<g id="node1" class="node"><title>Node1</title>
<polygon fill="#bfbfbf" stroke="black" points="30.5,-0.5 30.5,-19.5 213.5,-19.5 213.5,-0.5 30.5,-0.5"/>
<text text-anchor="middle" x="122" y="-7.5" font-family="Helvetica,sans-Serif" font-size="10.00">juce::PopupMenu::CustomComponent</text>
</g>
<!-- Node2 -->
<g id="node2" class="node"><title>Node2</title>
<g id="a_node2"><a xlink:href="classjuce_1_1Component.html" target="_top" xlink:title="The base class for all JUCE user&#45;interface objects. ">
<polygon fill="none" stroke="black" points="6.5,-62.5 6.5,-81.5 97.5,-81.5 97.5,-62.5 6.5,-62.5"/>
<text text-anchor="middle" x="52" y="-69.5" font-family="Helvetica,sans-Serif" font-size="10.00">juce::Component</text>
</a>
</g>
</g>
<!-- Node2&#45;&gt;Node1 -->
<g id="edge1" class="edge"><title>Node2&#45;&gt;Node1</title>
<path fill="none" stroke="midnightblue" d="M69.6791,-55.8464C83.0676,-44.3706 100.977,-29.0195 111.989,-19.5806"/>
<polygon fill="midnightblue" stroke="midnightblue" points="67.3441,-53.2381 62.0293,-62.4035 71.8997,-58.5529 67.3441,-53.2381"/>
</g>
<!-- Node3 -->
<g id="node3" class="node"><title>Node3</title>
<g id="a_node3"><a xlink:href="classjuce_1_1MouseListener.html" target="_top" xlink:title="A MouseListener can be registered with a component to receive callbacks about mouse events that happe...">
<polygon fill="none" stroke="black" points="0,-124.5 0,-143.5 104,-143.5 104,-124.5 0,-124.5"/>
<text text-anchor="middle" x="52" y="-131.5" font-family="Helvetica,sans-Serif" font-size="10.00">juce::MouseListener</text>
</a>
</g>
</g>
<!-- Node3&#45;&gt;Node2 -->
<g id="edge2" class="edge"><title>Node3&#45;&gt;Node2</title>
<path fill="none" stroke="midnightblue" d="M52,-114.16C52,-103.248 52,-90.04 52,-81.5806"/>
<polygon fill="midnightblue" stroke="midnightblue" points="48.5001,-114.403 52,-124.403 55.5001,-114.403 48.5001,-114.403"/>
</g>
<!-- Node4 -->
<g id="node4" class="node"><title>Node4</title>
<g id="a_node4"><a xlink:href="classjuce_1_1SingleThreadedReferenceCountedObject.html" target="_top" xlink:title="Adds reference&#45;counting to an object. ">
<polygon fill="none" stroke="black" points="115.5,-57 115.5,-87 268.5,-87 268.5,-57 115.5,-57"/>
<text text-anchor="start" x="123.5" y="-75" font-family="Helvetica,sans-Serif" font-size="10.00">juce::SingleThreadedReference</text>
<text text-anchor="middle" x="192" y="-64" font-family="Helvetica,sans-Serif" font-size="10.00">CountedObject</text>
</a>
</g>
</g>
<!-- Node4&#45;&gt;Node1 -->
<g id="edge3" class="edge"><title>Node4&#45;&gt;Node1</title>
<path fill="none" stroke="midnightblue" d="M167.757,-50.2202C155.58,-39.7831 141.48,-27.6968 132.186,-19.7305"/>
<polygon fill="midnightblue" stroke="midnightblue" points="165.541,-52.9303 175.411,-56.7808 170.096,-47.6155 165.541,-52.9303"/>
</g>
</g>
</svg>
