<?xml version="1.0" encoding="UTF-8" standalone="no"?>
<!DOCTYPE svg PUBLIC "-//W3C//DTD SVG 1.1//EN"
 "http://www.w3.org/Graphics/SVG/1.1/DTD/svg11.dtd">
<!-- Generated by graphviz version 2.36.0 (20140111.2315)
 -->
<!-- Title: PropertyComponent Pages: 1 -->
<svg width="564pt" height="218pt"
 viewBox="0.00 0.00 564.00 218.00" xmlns="http://www.w3.org/2000/svg" xmlns:xlink="http://www.w3.org/1999/xlink">
<g id="graph0" class="graph" transform="scale(1 1) rotate(0) translate(4 214)">
<title>PropertyComponent</title>
<!-- Node1 -->
<g id="node1" class="node"><title>Node1</title>
<polygon fill="#bfbfbf" stroke="black" points="260,-95.5 260,-114.5 364,-114.5 364,-95.5 260,-95.5"/>
<text text-anchor="middle" x="312" y="-102.5" font-family="Helvetica,sans-Serif" font-size="10.00">PropertyComponent</text>
</g>
<!-- Node6 -->
<g id="node6" class="node"><title>Node6</title>
<g id="a_node6"><a xlink:href="classBooleanPropertyComponent.html" target="_top" xlink:title="A PropertyComponent that contains an on/off toggle button. ">
<polygon fill="none" stroke="black" points="408.5,-190.5 408.5,-209.5 547.5,-209.5 547.5,-190.5 408.5,-190.5"/>
<text text-anchor="middle" x="478" y="-197.5" font-family="Helvetica,sans-Serif" font-size="10.00">BooleanPropertyComponent</text>
</a>
</g>
</g>
<!-- Node1&#45;&gt;Node6 -->
<g id="edge5" class="edge"><title>Node1&#45;&gt;Node6</title>
<path fill="none" stroke="midnightblue" d="M328.049,-122.288C344.144,-139.691 371.259,-166.038 400,-181 407.45,-184.878 415.722,-187.987 424,-190.473"/>
<polygon fill="midnightblue" stroke="midnightblue" points="330.371,-119.636 321.075,-114.553 325.172,-124.324 330.371,-119.636"/>
</g>
<!-- Node7 -->
<g id="node7" class="node"><title>Node7</title>
<g id="a_node7"><a xlink:href="classButtonPropertyComponent.html" target="_top" xlink:title="A PropertyComponent that contains a button. ">
<polygon fill="none" stroke="black" points="412,-152.5 412,-171.5 544,-171.5 544,-152.5 412,-152.5"/>
<text text-anchor="middle" x="478" y="-159.5" font-family="Helvetica,sans-Serif" font-size="10.00">ButtonPropertyComponent</text>
</a>
</g>
</g>
<!-- Node1&#45;&gt;Node7 -->
<g id="edge6" class="edge"><title>Node1&#45;&gt;Node7</title>
<path fill="none" stroke="midnightblue" d="M341.555,-118.938C358.304,-126.741 380.036,-136.232 400,-143 410.432,-146.537 421.864,-149.718 432.651,-152.422"/>
<polygon fill="midnightblue" stroke="midnightblue" points="342.856,-115.682 332.32,-114.572 339.864,-122.011 342.856,-115.682"/>
</g>
<!-- Node8 -->
<g id="node8" class="node"><title>Node8</title>
<g id="a_node8"><a xlink:href="classChoicePropertyComponent.html" target="_top" xlink:title="A PropertyComponent that shows its value as a combo box. ">
<polygon fill="none" stroke="black" points="411,-114.5 411,-133.5 545,-133.5 545,-114.5 411,-114.5"/>
<text text-anchor="middle" x="478" y="-121.5" font-family="Helvetica,sans-Serif" font-size="10.00">ChoicePropertyComponent</text>
</a>
</g>
</g>
<!-- Node1&#45;&gt;Node8 -->
<g id="edge7" class="edge"><title>Node1&#45;&gt;Node8</title>
<path fill="none" stroke="midnightblue" d="M374.675,-112.145C386.528,-113.519 398.987,-114.962 410.972,-116.35"/>
<polygon fill="midnightblue" stroke="midnightblue" points="374.777,-108.634 364.441,-110.96 373.971,-115.587 374.777,-108.634"/>
</g>
<!-- Node9 -->
<g id="node9" class="node"><title>Node9</title>
<g id="a_node9"><a xlink:href="classMultiChoicePropertyComponent.html" target="_top" xlink:title="A PropertyComponent that shows its value as an expandable list of ToggleButtons. ">
<polygon fill="none" stroke="black" points="400.5,-76.5 400.5,-95.5 555.5,-95.5 555.5,-76.5 400.5,-76.5"/>
<text text-anchor="middle" x="478" y="-83.5" font-family="Helvetica,sans-Serif" font-size="10.00">MultiChoicePropertyComponent</text>
</a>
</g>
</g>
<!-- Node1&#45;&gt;Node9 -->
<g id="edge8" class="edge"><title>Node1&#45;&gt;Node9</title>
<path fill="none" stroke="midnightblue" d="M374.501,-97.8749C382.894,-96.9025 391.593,-95.8947 400.215,-94.8958"/>
<polygon fill="midnightblue" stroke="midnightblue" points="373.971,-94.4127 364.441,-99.0404 374.777,-101.366 373.971,-94.4127"/>
</g>
<!-- Node10 -->
<g id="node10" class="node"><title>Node10</title>
<g id="a_node10"><a xlink:href="classSliderPropertyComponent.html" target="_top" xlink:title="A PropertyComponent that shows its value as a slider. ">
<polygon fill="none" stroke="black" points="414,-38.5 414,-57.5 542,-57.5 542,-38.5 414,-38.5"/>
<text text-anchor="middle" x="478" y="-45.5" font-family="Helvetica,sans-Serif" font-size="10.00">SliderPropertyComponent</text>
</a>
</g>
</g>
<!-- Node1&#45;&gt;Node10 -->
<g id="edge9" class="edge"><title>Node1&#45;&gt;Node10</title>
<path fill="none" stroke="midnightblue" d="M341.555,-91.0617C358.304,-83.2587 380.036,-73.7684 400,-67 410.432,-63.4633 421.864,-60.2816 432.651,-57.5783"/>
<polygon fill="midnightblue" stroke="midnightblue" points="339.864,-87.9894 332.32,-95.4277 342.856,-94.3179 339.864,-87.9894"/>
</g>
<!-- Node11 -->
<g id="node11" class="node"><title>Node11</title>
<g id="a_node11"><a xlink:href="classTextPropertyComponent.html" target="_top" xlink:title="A PropertyComponent that shows its value as editable text. ">
<polygon fill="none" stroke="black" points="416.5,-0.5 416.5,-19.5 539.5,-19.5 539.5,-0.5 416.5,-0.5"/>
<text text-anchor="middle" x="478" y="-7.5" font-family="Helvetica,sans-Serif" font-size="10.00">TextPropertyComponent</text>
</a>
</g>
</g>
<!-- Node1&#45;&gt;Node11 -->
<g id="edge10" class="edge"><title>Node1&#45;&gt;Node11</title>
<path fill="none" stroke="midnightblue" d="M328.049,-87.7115C344.144,-70.3089 371.259,-43.9618 400,-29 407.45,-25.1217 415.722,-22.0129 424,-19.527"/>
<polygon fill="midnightblue" stroke="midnightblue" points="325.172,-85.6763 321.075,-95.447 330.371,-90.3636 325.172,-85.6763"/>
</g>
<!-- Node2 -->
<g id="node2" class="node"><title>Node2</title>
<g id="a_node2"><a xlink:href="classComponent.html" target="_top" xlink:title="The base class for all JUCE user&#45;interface objects. ">
<polygon fill="none" stroke="black" points="136.5,-114.5 136.5,-133.5 203.5,-133.5 203.5,-114.5 136.5,-114.5"/>
<text text-anchor="middle" x="170" y="-121.5" font-family="Helvetica,sans-Serif" font-size="10.00">Component</text>
</a>
</g>
</g>
<!-- Node2&#45;&gt;Node1 -->
<g id="edge1" class="edge"><title>Node2&#45;&gt;Node1</title>
<path fill="none" stroke="midnightblue" d="M213.988,-118.166C228.447,-116.204 244.722,-113.995 259.752,-111.955"/>
<polygon fill="midnightblue" stroke="midnightblue" points="213.262,-114.732 203.824,-119.545 214.204,-121.669 213.262,-114.732"/>
</g>
<!-- Node3 -->
<g id="node3" class="node"><title>Node3</title>
<g id="a_node3"><a xlink:href="classMouseListener.html" target="_top" xlink:title="A MouseListener can be registered with a component to receive callbacks about mouse events that happe...">
<polygon fill="none" stroke="black" points="0,-114.5 0,-133.5 80,-133.5 80,-114.5 0,-114.5"/>
<text text-anchor="middle" x="40" y="-121.5" font-family="Helvetica,sans-Serif" font-size="10.00">MouseListener</text>
</a>
</g>
</g>
<!-- Node3&#45;&gt;Node2 -->
<g id="edge2" class="edge"><title>Node3&#45;&gt;Node2</title>
<path fill="none" stroke="midnightblue" d="M90.4703,-124C105.787,-124 122.277,-124 136.172,-124"/>
<polygon fill="midnightblue" stroke="midnightblue" points="90.0998,-120.5 80.0997,-124 90.0997,-127.5 90.0998,-120.5"/>
</g>
<!-- Node4 -->
<g id="node4" class="node"><title>Node4</title>
<g id="a_node4"><a xlink:href="classSettableTooltipClient.html" target="_top" xlink:title="An implementation of TooltipClient that stores the tooltip string and a method for changing it...">
<polygon fill="none" stroke="black" points="116.5,-76.5 116.5,-95.5 223.5,-95.5 223.5,-76.5 116.5,-76.5"/>
<text text-anchor="middle" x="170" y="-83.5" font-family="Helvetica,sans-Serif" font-size="10.00">SettableTooltipClient</text>
</a>
</g>
</g>
<!-- Node4&#45;&gt;Node1 -->
<g id="edge3" class="edge"><title>Node4&#45;&gt;Node1</title>
<path fill="none" stroke="midnightblue" d="M233.615,-94.4978C242.295,-95.6757 251.127,-96.8744 259.571,-98.0204"/>
<polygon fill="midnightblue" stroke="midnightblue" points="233.909,-91.0056 223.529,-93.129 232.968,-97.9421 233.909,-91.0056"/>
</g>
<!-- Node5 -->
<g id="node5" class="node"><title>Node5</title>
<g id="a_node5"><a xlink:href="classTooltipClient.html" target="_top" xlink:title="Components that want to use pop&#45;up tooltips should implement this interface. ">
<polygon fill="none" stroke="black" points="4.5,-76.5 4.5,-95.5 75.5,-95.5 75.5,-76.5 4.5,-76.5"/>
<text text-anchor="middle" x="40" y="-83.5" font-family="Helvetica,sans-Serif" font-size="10.00">TooltipClient</text>
</a>
</g>
</g>
<!-- Node5&#45;&gt;Node4 -->
<g id="edge4" class="edge"><title>Node5&#45;&gt;Node4</title>
<path fill="none" stroke="midnightblue" d="M85.9021,-86C95.64,-86 106.027,-86 116.042,-86"/>
<polygon fill="midnightblue" stroke="midnightblue" points="85.6387,-82.5001 75.6386,-86 85.6386,-89.5001 85.6387,-82.5001"/>
</g>
</g>
</svg>
