<?xml version="1.0" encoding="UTF-8" standalone="no"?>
<!DOCTYPE svg PUBLIC "-//W3C//DTD SVG 1.1//EN"
 "http://www.w3.org/Graphics/SVG/1.1/DTD/svg11.dtd">
<!-- Generated by graphviz version 2.36.0 (20140111.2315)
 -->
<!-- Title: juce::DirectoryContentsDisplayComponent Pages: 1 -->
<svg width="274pt" height="96pt"
 viewBox="0.00 0.00 274.00 96.00" xmlns="http://www.w3.org/2000/svg" xmlns:xlink="http://www.w3.org/1999/xlink">
<g id="graph0" class="graph" transform="scale(1 1) rotate(0) translate(4 92)">
<title>juce::DirectoryContentsDisplayComponent</title>
<!-- Node1 -->
<g id="node1" class="node"><title>Node1</title>
<polygon fill="#bfbfbf" stroke="black" points="55.5,-57 55.5,-87 208.5,-87 208.5,-57 55.5,-57"/>
<text text-anchor="start" x="63.5" y="-75" font-family="Helvetica,sans-Serif" font-size="10.00">juce::DirectoryContentsDisplay</text>
<text text-anchor="middle" x="132" y="-64" font-family="Helvetica,sans-Serif" font-size="10.00">Component</text>
</g>
<!-- Node2 -->
<g id="node2" class="node"><title>Node2</title>
<g id="a_node2"><a xlink:href="classjuce_1_1FileListComponent.html" target="_top" xlink:title="A component that displays the files in a directory as a listbox. ">
<polygon fill="none" stroke="black" points="0,-0.5 0,-19.5 122,-19.5 122,-0.5 0,-0.5"/>
<text text-anchor="middle" x="61" y="-7.5" font-family="Helvetica,sans-Serif" font-size="10.00">juce::FileListComponent</text>
</a>
</g>
</g>
<!-- Node1&#45;&gt;Node2 -->
<g id="edge1" class="edge"><title>Node1&#45;&gt;Node2</title>
<path fill="none" stroke="midnightblue" d="M107.411,-50.2202C95.06,-39.7831 80.7579,-27.6968 71.3311,-19.7305"/>
<polygon fill="midnightblue" stroke="midnightblue" points="105.277,-52.9995 115.174,-56.7808 109.795,-47.6529 105.277,-52.9995"/>
</g>
<!-- Node3 -->
<g id="node3" class="node"><title>Node3</title>
<g id="a_node3"><a xlink:href="classjuce_1_1FileTreeComponent.html" target="_top" xlink:title="A component that displays the files in a directory as a treeview. ">
<polygon fill="none" stroke="black" points="140,-0.5 140,-19.5 266,-19.5 266,-0.5 140,-0.5"/>
<text text-anchor="middle" x="203" y="-7.5" font-family="Helvetica,sans-Serif" font-size="10.00">juce::FileTreeComponent</text>
</a>
</g>
</g>
<!-- Node1&#45;&gt;Node3 -->
<g id="edge2" class="edge"><title>Node1&#45;&gt;Node3</title>
<path fill="none" stroke="midnightblue" d="M156.589,-50.2202C168.94,-39.7831 183.242,-27.6968 192.669,-19.7305"/>
<polygon fill="midnightblue" stroke="midnightblue" points="154.205,-47.6529 148.826,-56.7808 158.723,-52.9995 154.205,-47.6529"/>
</g>
</g>
</svg>
