<?xml version="1.0" encoding="UTF-8" standalone="no"?>
<!DOCTYPE svg PUBLIC "-//W3C//DTD SVG 1.1//EN"
 "http://www.w3.org/Graphics/SVG/1.1/DTD/svg11.dtd">
<!-- Generated by graphviz version 2.36.0 (20140111.2315)
 -->
<!-- Title: AudioProcessorValueTreeState::Parameter Pages: 1 -->
<svg width="168pt" height="264pt"
 viewBox="0.00 0.00 168.00 264.00" xmlns="http://www.w3.org/2000/svg" xmlns:xlink="http://www.w3.org/1999/xlink">
<g id="graph0" class="graph" transform="scale(1 1) rotate(0) translate(4 260)">
<title>AudioProcessorValueTreeState::Parameter</title>
<!-- Node1 -->
<g id="node1" class="node"><title>Node1</title>
<polygon fill="#bfbfbf" stroke="black" points="3.5,-1 3.5,-31 156.5,-31 156.5,-1 3.5,-1"/>
<text text-anchor="start" x="11.5" y="-19" font-family="Helvetica,sans-Serif" font-size="10.00">AudioProcessorValueTreeState</text>
<text text-anchor="middle" x="80" y="-8" font-family="Helvetica,sans-Serif" font-size="10.00">::Parameter</text>
</g>
<!-- Node2 -->
<g id="node2" class="node"><title>Node2</title>
<g id="a_node2"><a xlink:href="classAudioParameterFloat.html" target="_top" xlink:title="A subclass of AudioProcessorParameter that provides an easy way to create a parameter which maps onto...">
<polygon fill="none" stroke="black" points="26,-68.5 26,-87.5 134,-87.5 134,-68.5 26,-68.5"/>
<text text-anchor="middle" x="80" y="-75.5" font-family="Helvetica,sans-Serif" font-size="10.00">AudioParameterFloat</text>
</a>
</g>
</g>
<!-- Node2&#45;&gt;Node1 -->
<g id="edge1" class="edge"><title>Node2&#45;&gt;Node1</title>
<path fill="none" stroke="midnightblue" d="M80,-58.3707C80,-49.5849 80,-39.2721 80,-31.1408"/>
<polygon fill="midnightblue" stroke="midnightblue" points="76.5001,-58.4034 80,-68.4035 83.5001,-58.4035 76.5001,-58.4034"/>
</g>
<!-- Node3 -->
<g id="node3" class="node"><title>Node3</title>
<g id="a_node3"><a xlink:href="classRangedAudioParameter.html" target="_top" xlink:title="This abstract base class is used by some AudioProcessorParameter helper classes. ">
<polygon fill="none" stroke="black" points="20,-124.5 20,-143.5 140,-143.5 140,-124.5 20,-124.5"/>
<text text-anchor="middle" x="80" y="-131.5" font-family="Helvetica,sans-Serif" font-size="10.00">RangedAudioParameter</text>
</a>
</g>
</g>
<!-- Node3&#45;&gt;Node2 -->
<g id="edge2" class="edge"><title>Node3&#45;&gt;Node2</title>
<path fill="none" stroke="midnightblue" d="M80,-113.805C80,-104.91 80,-94.7798 80,-87.7511"/>
<polygon fill="midnightblue" stroke="midnightblue" points="76.5001,-114.083 80,-124.083 83.5001,-114.083 76.5001,-114.083"/>
</g>
<!-- Node4 -->
<g id="node4" class="node"><title>Node4</title>
<g id="a_node4"><a xlink:href="classAudioProcessorParameterWithID.html" target="_top" xlink:title="This abstract base class is used by some AudioProcessorParameter helper classes. ">
<polygon fill="none" stroke="black" points="-0.5,-180.5 -0.5,-199.5 160.5,-199.5 160.5,-180.5 -0.5,-180.5"/>
<text text-anchor="middle" x="80" y="-187.5" font-family="Helvetica,sans-Serif" font-size="10.00">AudioProcessorParameterWithID</text>
</a>
</g>
</g>
<!-- Node4&#45;&gt;Node3 -->
<g id="edge3" class="edge"><title>Node4&#45;&gt;Node3</title>
<path fill="none" stroke="midnightblue" d="M80,-169.805C80,-160.91 80,-150.78 80,-143.751"/>
<polygon fill="midnightblue" stroke="midnightblue" points="76.5001,-170.083 80,-180.083 83.5001,-170.083 76.5001,-170.083"/>
</g>
<!-- Node5 -->
<g id="node5" class="node"><title>Node5</title>
<g id="a_node5"><a xlink:href="classAudioProcessorParameter.html" target="_top" xlink:title="An abstract base class for parameter objects that can be added to an AudioProcessor. ">
<polygon fill="none" stroke="black" points="14.5,-236.5 14.5,-255.5 145.5,-255.5 145.5,-236.5 14.5,-236.5"/>
<text text-anchor="middle" x="80" y="-243.5" font-family="Helvetica,sans-Serif" font-size="10.00">AudioProcessorParameter</text>
</a>
</g>
</g>
<!-- Node5&#45;&gt;Node4 -->
<g id="edge4" class="edge"><title>Node5&#45;&gt;Node4</title>
<path fill="none" stroke="midnightblue" d="M80,-225.805C80,-216.91 80,-206.78 80,-199.751"/>
<polygon fill="midnightblue" stroke="midnightblue" points="76.5001,-226.083 80,-236.083 83.5001,-226.083 76.5001,-226.083"/>
</g>
</g>
</svg>
