<?xml version="1.0" encoding="UTF-8" standalone="no"?>
<!DOCTYPE svg PUBLIC "-//W3C//DTD SVG 1.1//EN"
 "http://www.w3.org/Graphics/SVG/1.1/DTD/svg11.dtd">
<!-- Generated by graphviz version 2.36.0 (20140111.2315)
 -->
<!-- Title: ApplicationCommandManager Pages: 1 -->
<svg width="216pt" height="84pt"
 viewBox="0.00 0.00 216.00 84.00" xmlns="http://www.w3.org/2000/svg" xmlns:xlink="http://www.w3.org/1999/xlink">
<g id="graph0" class="graph" transform="scale(1 1) rotate(0) translate(4 80)">
<title>ApplicationCommandManager</title>
<!-- Node1 -->
<g id="node1" class="node"><title>Node1</title>
<polygon fill="#bfbfbf" stroke="black" points="21.5,-0.5 21.5,-19.5 168.5,-19.5 168.5,-0.5 21.5,-0.5"/>
<text text-anchor="middle" x="95" y="-7.5" font-family="Helvetica,sans-Serif" font-size="10.00">ApplicationCommandManager</text>
</g>
<!-- Node2 -->
<g id="node2" class="node"><title>Node2</title>
<g id="a_node2"><a xlink:href="group__juce__events-broadcasters.html#classAsyncUpdater" target="_top" xlink:title="Has a callback method that is triggered asynchronously. ">
<polygon fill="none" stroke="black" points="-0.5,-56.5 -0.5,-75.5 78.5,-75.5 78.5,-56.5 -0.5,-56.5"/>
<text text-anchor="middle" x="39" y="-63.5" font-family="Helvetica,sans-Serif" font-size="10.00">AsyncUpdater</text>
</a>
</g>
</g>
<!-- Node2&#45;&gt;Node1 -->
<g id="edge1" class="edge"><title>Node2&#45;&gt;Node1</title>
<path fill="none" stroke="#8b1a1a" d="M55.3299,-49.2533C65.265,-39.6731 77.5875,-27.7906 85.8389,-19.8339"/>
<polygon fill="#8b1a1a" stroke="#8b1a1a" points="52.7664,-46.8631 47.9974,-56.324 57.6253,-51.902 52.7664,-46.8631"/>
</g>
<!-- Node3 -->
<g id="node3" class="node"><title>Node3</title>
<g id="a_node3"><a xlink:href="group__juce__gui__basics-components.html#classFocusChangeListener" target="_top" xlink:title="Classes can implement this interface and register themselves with the Desktop class to receive callba...">
<polygon fill="none" stroke="black" points="96,-56.5 96,-75.5 208,-75.5 208,-56.5 96,-56.5"/>
<text text-anchor="middle" x="152" y="-63.5" font-family="Helvetica,sans-Serif" font-size="10.00">FocusChangeListener</text>
</a>
</g>
</g>
<!-- Node3&#45;&gt;Node1 -->
<g id="edge2" class="edge"><title>Node3&#45;&gt;Node1</title>
<path fill="none" stroke="#8b1a1a" d="M135.379,-49.2533C125.266,-39.6731 112.723,-27.7906 104.325,-19.8339"/>
<polygon fill="#8b1a1a" stroke="#8b1a1a" points="133.175,-51.9873 142.842,-56.324 137.99,-46.9056 133.175,-51.9873"/>
</g>
</g>
</svg>
