<?xml version="1.0" encoding="UTF-8" standalone="no"?>
<!DOCTYPE svg PUBLIC "-//W3C//DTD SVG 1.1//EN"
 "http://www.w3.org/Graphics/SVG/1.1/DTD/svg11.dtd">
<!-- Generated by graphviz version 2.36.0 (20140111.2315)
 -->
<!-- Title: TableListBox Pages: 1 -->
<svg width="359pt" height="208pt"
 viewBox="0.00 0.00 359.00 208.00" xmlns="http://www.w3.org/2000/svg" xmlns:xlink="http://www.w3.org/1999/xlink">
<g id="graph0" class="graph" transform="scale(1 1) rotate(0) translate(4 204)">
<title>TableListBox</title>
<!-- Node1 -->
<g id="node1" class="node"><title>Node1</title>
<polygon fill="#bfbfbf" stroke="black" points="136,-0.5 136,-19.5 210,-19.5 210,-0.5 136,-0.5"/>
<text text-anchor="middle" x="173" y="-7.5" font-family="Helvetica,sans-Serif" font-size="10.00">TableListBox</text>
</g>
<!-- Node2 -->
<g id="node2" class="node"><title>Node2</title>
<g id="a_node2"><a xlink:href="classListBox.html" target="_top" xlink:title="A list of items that can be scrolled vertically. ">
<polygon fill="none" stroke="black" points="67,-62.5 67,-81.5 117,-81.5 117,-62.5 67,-62.5"/>
<text text-anchor="middle" x="92" y="-69.5" font-family="Helvetica,sans-Serif" font-size="10.00">ListBox</text>
</a>
</g>
</g>
<!-- Node2&#45;&gt;Node1 -->
<g id="edge1" class="edge"><title>Node2&#45;&gt;Node1</title>
<path fill="none" stroke="midnightblue" d="M112.02,-56.1702C127.558,-44.6608 148.553,-29.1086 161.416,-19.5806"/>
<polygon fill="midnightblue" stroke="midnightblue" points="109.558,-53.6387 103.605,-62.4035 113.724,-59.2636 109.558,-53.6387"/>
</g>
<!-- Node3 -->
<g id="node3" class="node"><title>Node3</title>
<g id="a_node3"><a xlink:href="classComponent.html" target="_top" xlink:title="The base class for all JUCE user&#45;interface objects. ">
<polygon fill="none" stroke="black" points="6.5,-124.5 6.5,-143.5 73.5,-143.5 73.5,-124.5 6.5,-124.5"/>
<text text-anchor="middle" x="40" y="-131.5" font-family="Helvetica,sans-Serif" font-size="10.00">Component</text>
</a>
</g>
</g>
<!-- Node3&#45;&gt;Node2 -->
<g id="edge2" class="edge"><title>Node3&#45;&gt;Node2</title>
<path fill="none" stroke="midnightblue" d="M54.2729,-116.531C64.0756,-105.22 76.6918,-90.6633 84.5635,-81.5806"/>
<polygon fill="midnightblue" stroke="midnightblue" points="51.3548,-114.554 47.4503,-124.403 56.6446,-119.139 51.3548,-114.554"/>
</g>
<!-- Node4 -->
<g id="node4" class="node"><title>Node4</title>
<g id="a_node4"><a xlink:href="classMouseListener.html" target="_top" xlink:title="A MouseListener can be registered with a component to receive callbacks about mouse events that happe...">
<polygon fill="none" stroke="black" points="0,-180.5 0,-199.5 80,-199.5 80,-180.5 0,-180.5"/>
<text text-anchor="middle" x="40" y="-187.5" font-family="Helvetica,sans-Serif" font-size="10.00">MouseListener</text>
</a>
</g>
</g>
<!-- Node4&#45;&gt;Node3 -->
<g id="edge3" class="edge"><title>Node4&#45;&gt;Node3</title>
<path fill="none" stroke="midnightblue" d="M40,-169.805C40,-160.91 40,-150.78 40,-143.751"/>
<polygon fill="midnightblue" stroke="midnightblue" points="36.5001,-170.083 40,-180.083 43.5001,-170.083 36.5001,-170.083"/>
</g>
<!-- Node5 -->
<g id="node5" class="node"><title>Node5</title>
<g id="a_node5"><a xlink:href="classSettableTooltipClient.html" target="_top" xlink:title="An implementation of TooltipClient that stores the tooltip string and a method for changing it...">
<polygon fill="none" stroke="black" points="91.5,-124.5 91.5,-143.5 198.5,-143.5 198.5,-124.5 91.5,-124.5"/>
<text text-anchor="middle" x="145" y="-131.5" font-family="Helvetica,sans-Serif" font-size="10.00">SettableTooltipClient</text>
</a>
</g>
</g>
<!-- Node5&#45;&gt;Node2 -->
<g id="edge4" class="edge"><title>Node5&#45;&gt;Node2</title>
<path fill="none" stroke="midnightblue" d="M130.746,-116.863C120.714,-105.506 107.681,-90.7524 99.5795,-81.5806"/>
<polygon fill="midnightblue" stroke="midnightblue" points="128.163,-119.226 137.406,-124.403 133.409,-114.592 128.163,-119.226"/>
</g>
<!-- Node6 -->
<g id="node6" class="node"><title>Node6</title>
<g id="a_node6"><a xlink:href="classTooltipClient.html" target="_top" xlink:title="Components that want to use pop&#45;up tooltips should implement this interface. ">
<polygon fill="none" stroke="black" points="109.5,-180.5 109.5,-199.5 180.5,-199.5 180.5,-180.5 109.5,-180.5"/>
<text text-anchor="middle" x="145" y="-187.5" font-family="Helvetica,sans-Serif" font-size="10.00">TooltipClient</text>
</a>
</g>
</g>
<!-- Node6&#45;&gt;Node5 -->
<g id="edge5" class="edge"><title>Node6&#45;&gt;Node5</title>
<path fill="none" stroke="midnightblue" d="M145,-169.805C145,-160.91 145,-150.78 145,-143.751"/>
<polygon fill="midnightblue" stroke="midnightblue" points="141.5,-170.083 145,-180.083 148.5,-170.083 141.5,-170.083"/>
</g>
<!-- Node7 -->
<g id="node7" class="node"><title>Node7</title>
<g id="a_node7"><a xlink:href="classListBoxModel.html" target="_top" xlink:title="A subclass of this is used to drive a ListBox. ">
<polygon fill="none" stroke="black" points="135,-62.5 135,-81.5 211,-81.5 211,-62.5 135,-62.5"/>
<text text-anchor="middle" x="173" y="-69.5" font-family="Helvetica,sans-Serif" font-size="10.00">ListBoxModel</text>
</a>
</g>
</g>
<!-- Node7&#45;&gt;Node1 -->
<g id="edge6" class="edge"><title>Node7&#45;&gt;Node1</title>
<path fill="none" stroke="#8b1a1a" d="M173,-52.1595C173,-41.2482 173,-28.04 173,-19.5806"/>
<polygon fill="#8b1a1a" stroke="#8b1a1a" points="169.5,-52.4034 173,-62.4035 176.5,-52.4035 169.5,-52.4034"/>
</g>
<!-- Node8 -->
<g id="node8" class="node"><title>Node8</title>
<g id="a_node8"><a xlink:href="classTableHeaderComponent_1_1Listener.html" target="_top" xlink:title="Receives events from a TableHeaderComponent when columns are resized, moved, etc. ...">
<polygon fill="none" stroke="black" points="229,-57 229,-87 351,-87 351,-57 229,-57"/>
<text text-anchor="start" x="237" y="-75" font-family="Helvetica,sans-Serif" font-size="10.00">TableHeaderComponent</text>
<text text-anchor="middle" x="290" y="-64" font-family="Helvetica,sans-Serif" font-size="10.00">::Listener</text>
</a>
</g>
</g>
<!-- Node8&#45;&gt;Node1 -->
<g id="edge7" class="edge"><title>Node8&#45;&gt;Node1</title>
<path fill="none" stroke="#8b1a1a" d="M253.457,-52.2598C232.158,-41.3376 206.318,-28.0862 189.77,-19.6"/>
<polygon fill="#8b1a1a" stroke="#8b1a1a" points="252.073,-55.4838 262.569,-56.9327 255.268,-49.2551 252.073,-55.4838"/>
</g>
</g>
</svg>
