<?xml version="1.0" encoding="UTF-8" standalone="no"?>
<!DOCTYPE svg PUBLIC "-//W3C//DTD SVG 1.1//EN"
 "http://www.w3.org/Graphics/SVG/1.1/DTD/svg11.dtd">
<!-- Generated by graphviz version 2.36.0 (20140111.2315)
 -->
<!-- Title: AudioSource Pages: 1 -->
<svg width="444pt" height="332pt"
 viewBox="0.00 0.00 444.00 332.00" xmlns="http://www.w3.org/2000/svg" xmlns:xlink="http://www.w3.org/1999/xlink">
<g id="graph0" class="graph" transform="scale(1 1) rotate(0) translate(4 328)">
<title>AudioSource</title>
<!-- Node1 -->
<g id="node1" class="node"><title>Node1</title>
<polygon fill="#bfbfbf" stroke="black" points="0,-152.5 0,-171.5 72,-171.5 72,-152.5 0,-152.5"/>
<text text-anchor="middle" x="36" y="-159.5" font-family="Helvetica,sans-Serif" font-size="10.00">AudioSource</text>
</g>
<!-- Node2 -->
<g id="node2" class="node"><title>Node2</title>
<g id="a_node2"><a xlink:href="group__juce__audio__utils-gui.html#classAudioAppComponent" target="_top" xlink:title="A base class for writing audio apps that stream from the audio i/o devices. ">
<polygon fill="none" stroke="black" points="132.5,-304.5 132.5,-323.5 241.5,-323.5 241.5,-304.5 132.5,-304.5"/>
<text text-anchor="middle" x="187" y="-311.5" font-family="Helvetica,sans-Serif" font-size="10.00">AudioAppComponent</text>
</a>
</g>
</g>
<!-- Node1&#45;&gt;Node2 -->
<g id="edge1" class="edge"><title>Node1&#45;&gt;Node2</title>
<path fill="none" stroke="midnightblue" d="M41.963,-181.704C50.4014,-211.033 70.4038,-265.84 108,-295 115.159,-300.552 123.711,-304.51 132.487,-307.325"/>
<polygon fill="midnightblue" stroke="midnightblue" points="45.2774,-180.553 39.2826,-171.817 38.5213,-182.384 45.2774,-180.553"/>
</g>
<!-- Node3 -->
<g id="node3" class="node"><title>Node3</title>
<g id="a_node3"><a xlink:href="group__juce__audio__basics-sources.html#classChannelRemappingAudioSource" target="_top" xlink:title="An AudioSource that takes the audio from another source, and re&#45;maps its input and output channels to...">
<polygon fill="none" stroke="black" points="108,-266.5 108,-285.5 266,-285.5 266,-266.5 108,-266.5"/>
<text text-anchor="middle" x="187" y="-273.5" font-family="Helvetica,sans-Serif" font-size="10.00">ChannelRemappingAudioSource</text>
</a>
</g>
</g>
<!-- Node1&#45;&gt;Node3 -->
<g id="edge2" class="edge"><title>Node1&#45;&gt;Node3</title>
<path fill="none" stroke="midnightblue" d="M45.927,-180.733C57.2736,-202.474 78.9339,-237.792 108,-257 113.814,-260.842 120.332,-263.908 127.058,-266.355"/>
<polygon fill="midnightblue" stroke="midnightblue" points="48.9317,-178.916 41.3237,-171.543 42.673,-182.051 48.9317,-178.916"/>
</g>
<!-- Node4 -->
<g id="node4" class="node"><title>Node4</title>
<g id="a_node4"><a xlink:href="group__juce__audio__basics-sources.html#classIIRFilterAudioSource" target="_top" xlink:title="An AudioSource that performs an IIR filter on another source. ">
<polygon fill="none" stroke="black" points="133.5,-228.5 133.5,-247.5 240.5,-247.5 240.5,-228.5 133.5,-228.5"/>
<text text-anchor="middle" x="187" y="-235.5" font-family="Helvetica,sans-Serif" font-size="10.00">IIRFilterAudioSource</text>
</a>
</g>
</g>
<!-- Node1&#45;&gt;Node4 -->
<g id="edge3" class="edge"><title>Node1&#45;&gt;Node4</title>
<path fill="none" stroke="midnightblue" d="M53.6633,-178.945C67.1842,-191.755 87.3324,-208.819 108,-219 115.877,-222.88 124.601,-226.001 133.278,-228.502"/>
<polygon fill="midnightblue" stroke="midnightblue" points="55.757,-176.098 46.1556,-171.619 50.868,-181.108 55.757,-176.098"/>
</g>
<!-- Node5 -->
<g id="node5" class="node"><title>Node5</title>
<g id="a_node5"><a xlink:href="group__juce__audio__basics-sources.html#classMemoryAudioSource" target="_top" xlink:title="An AudioSource which takes some float audio data as an input. ">
<polygon fill="none" stroke="black" points="133.5,-190.5 133.5,-209.5 240.5,-209.5 240.5,-190.5 133.5,-190.5"/>
<text text-anchor="middle" x="187" y="-197.5" font-family="Helvetica,sans-Serif" font-size="10.00">MemoryAudioSource</text>
</a>
</g>
</g>
<!-- Node1&#45;&gt;Node5 -->
<g id="edge4" class="edge"><title>Node1&#45;&gt;Node5</title>
<path fill="none" stroke="midnightblue" d="M81.9245,-174.186C90.5691,-176.484 99.5585,-178.843 108,-181 120.288,-184.14 133.696,-187.449 145.875,-190.409"/>
<polygon fill="midnightblue" stroke="midnightblue" points="82.5531,-170.731 71.9885,-171.531 80.746,-177.494 82.5531,-170.731"/>
</g>
<!-- Node6 -->
<g id="node6" class="node"><title>Node6</title>
<g id="a_node6"><a xlink:href="group__juce__audio__basics-sources.html#classMixerAudioSource" target="_top" xlink:title="An AudioSource that mixes together the output of a set of other AudioSources. ">
<polygon fill="none" stroke="black" points="139,-152.5 139,-171.5 235,-171.5 235,-152.5 139,-152.5"/>
<text text-anchor="middle" x="187" y="-159.5" font-family="Helvetica,sans-Serif" font-size="10.00">MixerAudioSource</text>
</a>
</g>
</g>
<!-- Node1&#45;&gt;Node6 -->
<g id="edge5" class="edge"><title>Node1&#45;&gt;Node6</title>
<path fill="none" stroke="midnightblue" d="M82.4769,-162C100.325,-162 120.808,-162 138.819,-162"/>
<polygon fill="midnightblue" stroke="midnightblue" points="82.311,-158.5 72.3109,-162 82.3109,-165.5 82.311,-158.5"/>
</g>
<!-- Node7 -->
<g id="node7" class="node"><title>Node7</title>
<g id="a_node7"><a xlink:href="group__juce__audio__basics-sources.html#classPositionableAudioSource" target="_top" xlink:title="A type of AudioSource which can be repositioned. ">
<polygon fill="none" stroke="black" points="124.5,-114.5 124.5,-133.5 249.5,-133.5 249.5,-114.5 124.5,-114.5"/>
<text text-anchor="middle" x="187" y="-121.5" font-family="Helvetica,sans-Serif" font-size="10.00">PositionableAudioSource</text>
</a>
</g>
</g>
<!-- Node1&#45;&gt;Node7 -->
<g id="edge6" class="edge"><title>Node1&#45;&gt;Node7</title>
<path fill="none" stroke="midnightblue" d="M81.9245,-149.814C90.5691,-147.516 99.5585,-145.157 108,-143 120.288,-139.86 133.696,-136.551 145.875,-133.591"/>
<polygon fill="midnightblue" stroke="midnightblue" points="80.746,-146.506 71.9885,-152.469 82.5531,-153.269 80.746,-146.506"/>
</g>
<!-- Node11 -->
<g id="node11" class="node"><title>Node11</title>
<g id="a_node11"><a xlink:href="group__juce__audio__basics-sources.html#classResamplingAudioSource" target="_top" xlink:title="A type of AudioSource that takes an input source and changes its sample rate. ">
<polygon fill="none" stroke="black" points="125,-76.5 125,-95.5 249,-95.5 249,-76.5 125,-76.5"/>
<text text-anchor="middle" x="187" y="-83.5" font-family="Helvetica,sans-Serif" font-size="10.00">ResamplingAudioSource</text>
</a>
</g>
</g>
<!-- Node1&#45;&gt;Node11 -->
<g id="edge10" class="edge"><title>Node1&#45;&gt;Node11</title>
<path fill="none" stroke="midnightblue" d="M53.6633,-145.055C67.1842,-132.245 87.3324,-115.181 108,-105 115.752,-101.182 124.324,-98.0982 132.864,-95.6179"/>
<polygon fill="midnightblue" stroke="midnightblue" points="50.868,-142.892 46.1556,-152.381 55.757,-147.902 50.868,-142.892"/>
</g>
<!-- Node12 -->
<g id="node12" class="node"><title>Node12</title>
<g id="a_node12"><a xlink:href="group__juce__audio__basics-sources.html#classReverbAudioSource" target="_top" xlink:title="An AudioSource that uses the Reverb class to apply a reverb to another AudioSource. ">
<polygon fill="none" stroke="black" points="135,-38.5 135,-57.5 239,-57.5 239,-38.5 135,-38.5"/>
<text text-anchor="middle" x="187" y="-45.5" font-family="Helvetica,sans-Serif" font-size="10.00">ReverbAudioSource</text>
</a>
</g>
</g>
<!-- Node1&#45;&gt;Node12 -->
<g id="edge11" class="edge"><title>Node1&#45;&gt;Node12</title>
<path fill="none" stroke="midnightblue" d="M45.927,-143.267C57.2736,-121.526 78.9339,-86.2081 108,-67 116.023,-61.6979 125.388,-57.8736 134.788,-55.1158"/>
<polygon fill="midnightblue" stroke="midnightblue" points="42.673,-141.949 41.3237,-152.457 48.9317,-145.084 42.673,-141.949"/>
</g>
<!-- Node13 -->
<g id="node13" class="node"><title>Node13</title>
<g id="a_node13"><a xlink:href="group__juce__audio__basics-sources.html#classToneGeneratorAudioSource" target="_top" xlink:title="A simple AudioSource that generates a sine wave. ">
<polygon fill="none" stroke="black" points="118.5,-0.5 118.5,-19.5 255.5,-19.5 255.5,-0.5 118.5,-0.5"/>
<text text-anchor="middle" x="187" y="-7.5" font-family="Helvetica,sans-Serif" font-size="10.00">ToneGeneratorAudioSource</text>
</a>
</g>
</g>
<!-- Node1&#45;&gt;Node13 -->
<g id="edge12" class="edge"><title>Node1&#45;&gt;Node13</title>
<path fill="none" stroke="midnightblue" d="M41.963,-142.296C50.4014,-112.967 70.4038,-58.16 108,-29 112.956,-25.1561 118.58,-22.0765 124.483,-19.6112"/>
<polygon fill="midnightblue" stroke="midnightblue" points="38.5213,-141.616 39.2826,-152.183 45.2774,-143.447 38.5213,-141.616"/>
</g>
<!-- Node8 -->
<g id="node8" class="node"><title>Node8</title>
<g id="a_node8"><a xlink:href="group__juce__audio__formats-format.html#classAudioFormatReaderSource" target="_top" xlink:title="A type of AudioSource that will read from an AudioFormatReader. ">
<polygon fill="none" stroke="black" points="302,-152.5 302,-171.5 436,-171.5 436,-152.5 302,-152.5"/>
<text text-anchor="middle" x="369" y="-159.5" font-family="Helvetica,sans-Serif" font-size="10.00">AudioFormatReaderSource</text>
</a>
</g>
</g>
<!-- Node7&#45;&gt;Node8 -->
<g id="edge7" class="edge"><title>Node7&#45;&gt;Node8</title>
<path fill="none" stroke="midnightblue" d="M243.331,-135.681C268.857,-141.07 298.776,-147.386 322.905,-152.48"/>
<polygon fill="midnightblue" stroke="midnightblue" points="243.929,-132.23 233.422,-133.589 242.483,-139.079 243.929,-132.23"/>
</g>
<!-- Node9 -->
<g id="node9" class="node"><title>Node9</title>
<g id="a_node9"><a xlink:href="group__juce__audio__devices-sources.html#classAudioTransportSource" target="_top" xlink:title="An AudioSource that takes a PositionableAudioSource and allows it to be played, stopped, started, etc. ">
<polygon fill="none" stroke="black" points="312.5,-114.5 312.5,-133.5 425.5,-133.5 425.5,-114.5 312.5,-114.5"/>
<text text-anchor="middle" x="369" y="-121.5" font-family="Helvetica,sans-Serif" font-size="10.00">AudioTransportSource</text>
</a>
</g>
</g>
<!-- Node7&#45;&gt;Node9 -->
<g id="edge8" class="edge"><title>Node7&#45;&gt;Node9</title>
<path fill="none" stroke="midnightblue" d="M259.864,-124C277.361,-124 295.812,-124 312.422,-124"/>
<polygon fill="midnightblue" stroke="midnightblue" points="259.694,-120.5 249.694,-124 259.694,-127.5 259.694,-120.5"/>
</g>
<!-- Node10 -->
<g id="node10" class="node"><title>Node10</title>
<g id="a_node10"><a xlink:href="group__juce__audio__basics-sources.html#classBufferingAudioSource" target="_top" xlink:title="An AudioSource which takes another source as input, and buffers it using a thread. ">
<polygon fill="none" stroke="black" points="313.5,-76.5 313.5,-95.5 424.5,-95.5 424.5,-76.5 313.5,-76.5"/>
<text text-anchor="middle" x="369" y="-83.5" font-family="Helvetica,sans-Serif" font-size="10.00">BufferingAudioSource</text>
</a>
</g>
</g>
<!-- Node7&#45;&gt;Node10 -->
<g id="edge9" class="edge"><title>Node7&#45;&gt;Node10</title>
<path fill="none" stroke="midnightblue" d="M243.331,-112.319C268.857,-106.93 298.776,-100.614 322.905,-95.5201"/>
<polygon fill="midnightblue" stroke="midnightblue" points="242.483,-108.921 233.422,-114.411 243.929,-115.77 242.483,-108.921"/>
</g>
</g>
</svg>
