<?xml version="1.0" encoding="UTF-8" standalone="no"?>
<!DOCTYPE svg PUBLIC "-//W3C//DTD SVG 1.1//EN"
 "http://www.w3.org/Graphics/SVG/1.1/DTD/svg11.dtd">
<!-- Generated by graphviz version 2.36.0 (20140111.2315)
 -->
<!-- Title: LookAndFeel_V4 Pages: 1 -->
<svg width="704pt" height="1295pt"
 viewBox="0.00 0.00 704.00 1295.00" xmlns="http://www.w3.org/2000/svg" xmlns:xlink="http://www.w3.org/1999/xlink">
<g id="graph0" class="graph" transform="scale(1 1) rotate(0) translate(4 1291)">
<title>LookAndFeel_V4</title>
<!-- Node1 -->
<g id="node1" class="node"><title>Node1</title>
<polygon fill="#bfbfbf" stroke="black" points="604.5,-660.5 604.5,-679.5 695.5,-679.5 695.5,-660.5 604.5,-660.5"/>
<text text-anchor="middle" x="650" y="-667.5" font-family="Helvetica,sans-Serif" font-size="10.00">LookAndFeel_V4</text>
</g>
<!-- Node2 -->
<g id="node2" class="node"><title>Node2</title>
<g id="a_node2"><a xlink:href="classLookAndFeel__V3.html" target="_top" xlink:title="The latest JUCE look&#45;and&#45;feel style, as introduced in 2013. ">
<polygon fill="none" stroke="black" points="476.5,-660.5 476.5,-679.5 567.5,-679.5 567.5,-660.5 476.5,-660.5"/>
<text text-anchor="middle" x="522" y="-667.5" font-family="Helvetica,sans-Serif" font-size="10.00">LookAndFeel_V3</text>
</a>
</g>
</g>
<!-- Node2&#45;&gt;Node1 -->
<g id="edge1" class="edge"><title>Node2&#45;&gt;Node1</title>
<path fill="none" stroke="midnightblue" d="M577.987,-670C586.802,-670 595.831,-670 604.367,-670"/>
<polygon fill="midnightblue" stroke="midnightblue" points="577.778,-666.5 567.778,-670 577.778,-673.5 577.778,-666.5"/>
</g>
<!-- Node3 -->
<g id="node3" class="node"><title>Node3</title>
<g id="a_node3"><a xlink:href="classLookAndFeel__V2.html" target="_top" xlink:title="This LookAndFeel subclass implements the juce style from around 2008&#45;12. ">
<polygon fill="none" stroke="black" points="348.5,-660.5 348.5,-679.5 439.5,-679.5 439.5,-660.5 348.5,-660.5"/>
<text text-anchor="middle" x="394" y="-667.5" font-family="Helvetica,sans-Serif" font-size="10.00">LookAndFeel_V2</text>
</a>
</g>
</g>
<!-- Node3&#45;&gt;Node2 -->
<g id="edge2" class="edge"><title>Node3&#45;&gt;Node2</title>
<path fill="none" stroke="midnightblue" d="M449.987,-670C458.802,-670 467.831,-670 476.367,-670"/>
<polygon fill="midnightblue" stroke="midnightblue" points="449.778,-666.5 439.778,-670 449.778,-673.5 449.778,-666.5"/>
</g>
<!-- Node4 -->
<g id="node4" class="node"><title>Node4</title>
<g id="a_node4"><a xlink:href="classLookAndFeel.html" target="_top" xlink:title="LookAndFeel objects define the appearance of all the JUCE widgets, and subclasses can be used to appl...">
<polygon fill="none" stroke="black" points="238,-660.5 238,-679.5 312,-679.5 312,-660.5 238,-660.5"/>
<text text-anchor="middle" x="275" y="-667.5" font-family="Helvetica,sans-Serif" font-size="10.00">LookAndFeel</text>
</a>
</g>
</g>
<!-- Node4&#45;&gt;Node3 -->
<g id="edge3" class="edge"><title>Node4&#45;&gt;Node3</title>
<path fill="none" stroke="midnightblue" d="M322.242,-670C330.781,-670 339.685,-670 348.182,-670"/>
<polygon fill="midnightblue" stroke="midnightblue" points="322.059,-666.5 312.059,-670 322.059,-673.5 322.059,-666.5"/>
</g>
<!-- Node5 -->
<g id="node5" class="node"><title>Node5</title>
<g id="a_node5"><a xlink:href="structScrollBar_1_1LookAndFeelMethods.html" target="_top" xlink:title="This abstract base class is implemented by LookAndFeel classes to provide scrollbar&#45;drawing functiona...">
<polygon fill="none" stroke="black" points="22.5,-1267.5 22.5,-1286.5 179.5,-1286.5 179.5,-1267.5 22.5,-1267.5"/>
<text text-anchor="middle" x="101" y="-1274.5" font-family="Helvetica,sans-Serif" font-size="10.00">ScrollBar::LookAndFeelMethods</text>
</a>
</g>
</g>
<!-- Node5&#45;&gt;Node4 -->
<g id="edge4" class="edge"><title>Node5&#45;&gt;Node4</title>
<path fill="none" stroke="midnightblue" d="M188.883,-1268.27C193.709,-1265.49 198.15,-1262.11 202,-1258 243.381,-1213.8 269.558,-753.322 273.485,-679.857"/>
<polygon fill="midnightblue" stroke="midnightblue" points="187.323,-1265.13 179.826,-1272.62 190.355,-1271.44 187.323,-1265.13"/>
</g>
<!-- Node6 -->
<g id="node6" class="node"><title>Node6</title>
<g id="a_node6"><a xlink:href="structButton_1_1LookAndFeelMethods.html" target="_top" xlink:title="This abstract base class is implemented by LookAndFeel classes to provide button&#45;drawing functionalit...">
<polygon fill="none" stroke="black" points="28,-1229.5 28,-1248.5 174,-1248.5 174,-1229.5 28,-1229.5"/>
<text text-anchor="middle" x="101" y="-1236.5" font-family="Helvetica,sans-Serif" font-size="10.00">Button::LookAndFeelMethods</text>
</a>
</g>
</g>
<!-- Node6&#45;&gt;Node4 -->
<g id="edge5" class="edge"><title>Node6&#45;&gt;Node4</title>
<path fill="none" stroke="midnightblue" d="M183.699,-1232.04C190.535,-1228.81 196.804,-1224.56 202,-1219 278.821,-1136.85 275.36,-746.186 274.198,-679.647"/>
<polygon fill="midnightblue" stroke="midnightblue" points="182.089,-1228.92 174.075,-1235.85 184.661,-1235.43 182.089,-1228.92"/>
</g>
<!-- Node7 -->
<g id="node7" class="node"><title>Node7</title>
<g id="a_node7"><a xlink:href="structImageButton_1_1LookAndFeelMethods.html" target="_top" xlink:title="This abstract base class is implemented by LookAndFeel classes. ">
<polygon fill="none" stroke="black" points="33.5,-1180 33.5,-1210 168.5,-1210 168.5,-1180 33.5,-1180"/>
<text text-anchor="start" x="41.5" y="-1198" font-family="Helvetica,sans-Serif" font-size="10.00">ImageButton::LookAndFeel</text>
<text text-anchor="middle" x="101" y="-1187" font-family="Helvetica,sans-Serif" font-size="10.00">Methods</text>
</a>
</g>
</g>
<!-- Node7&#45;&gt;Node4 -->
<g id="edge6" class="edge"><title>Node7&#45;&gt;Node4</title>
<path fill="none" stroke="midnightblue" d="M178.16,-1186.38C187.163,-1182.54 195.458,-1177.25 202,-1170 270.471,-1094.17 273.947,-742.181 274.019,-679.546"/>
<polygon fill="midnightblue" stroke="midnightblue" points="176.759,-1183.17 168.565,-1189.88 179.159,-1189.74 176.759,-1183.17"/>
</g>
<!-- Node8 -->
<g id="node8" class="node"><title>Node8</title>
<g id="a_node8"><a xlink:href="structTextEditor_1_1LookAndFeelMethods.html" target="_top" xlink:title="This abstract base class is implemented by LookAndFeel classes to provide TextEditor drawing function...">
<polygon fill="none" stroke="black" points="20,-1141.5 20,-1160.5 182,-1160.5 182,-1141.5 20,-1141.5"/>
<text text-anchor="middle" x="101" y="-1148.5" font-family="Helvetica,sans-Serif" font-size="10.00">TextEditor::LookAndFeelMethods</text>
</a>
</g>
</g>
<!-- Node8&#45;&gt;Node4 -->
<g id="edge7" class="edge"><title>Node8&#45;&gt;Node4</title>
<path fill="none" stroke="midnightblue" d="M191.138,-1139.79C195.082,-1137.31 198.742,-1134.4 202,-1131 267.018,-1063.16 273.324,-739.666 273.935,-679.607"/>
<polygon fill="midnightblue" stroke="midnightblue" points="189.3,-1136.8 182.098,-1144.58 192.574,-1142.99 189.3,-1136.8"/>
</g>
<!-- Node9 -->
<g id="node9" class="node"><title>Node9</title>
<g id="a_node9"><a xlink:href="structFileBrowserComponent_1_1LookAndFeelMethods.html" target="_top" xlink:title="This abstract base class is implemented by LookAndFeel classes to provide various file&#45;browser layout...">
<polygon fill="none" stroke="black" points="41.5,-1092 41.5,-1122 160.5,-1122 160.5,-1092 41.5,-1092"/>
<text text-anchor="start" x="49.5" y="-1110" font-family="Helvetica,sans-Serif" font-size="10.00">FileBrowserComponent</text>
<text text-anchor="middle" x="101" y="-1099" font-family="Helvetica,sans-Serif" font-size="10.00">::LookAndFeelMethods</text>
</a>
</g>
</g>
<!-- Node9&#45;&gt;Node4 -->
<g id="edge8" class="edge"><title>Node9&#45;&gt;Node4</title>
<path fill="none" stroke="midnightblue" d="M170.231,-1101.08C182.178,-1097.17 193.487,-1091.15 202,-1082 259.007,-1020.74 271.728,-735.785 273.696,-679.626"/>
<polygon fill="midnightblue" stroke="midnightblue" points="169.241,-1097.72 160.554,-1103.79 171.127,-1104.46 169.241,-1097.72"/>
</g>
<!-- Node10 -->
<g id="node10" class="node"><title>Node10</title>
<g id="a_node10"><a xlink:href="structTreeView_1_1LookAndFeelMethods.html" target="_top" xlink:title="This abstract base class is implemented by LookAndFeel classes to provide treeview drawing functional...">
<polygon fill="none" stroke="black" points="22,-1053.5 22,-1072.5 180,-1072.5 180,-1053.5 22,-1053.5"/>
<text text-anchor="middle" x="101" y="-1060.5" font-family="Helvetica,sans-Serif" font-size="10.00">TreeView::LookAndFeelMethods</text>
</a>
</g>
</g>
<!-- Node10&#45;&gt;Node4 -->
<g id="edge9" class="edge"><title>Node10&#45;&gt;Node4</title>
<path fill="none" stroke="midnightblue" d="M189.514,-1052.53C194.057,-1049.9 198.274,-1046.75 202,-1043 255.218,-989.424 270.839,-733.229 273.542,-679.784"/>
<polygon fill="midnightblue" stroke="midnightblue" points="187.859,-1049.45 180.419,-1056.99 190.939,-1055.73 187.859,-1049.45"/>
</g>
<!-- Node11 -->
<g id="node11" class="node"><title>Node11</title>
<g id="a_node11"><a xlink:href="structBubbleComponent_1_1LookAndFeelMethods.html" target="_top" xlink:title="This abstract base class is implemented by LookAndFeel classes. ">
<polygon fill="none" stroke="black" points="30.5,-1004 30.5,-1034 171.5,-1034 171.5,-1004 30.5,-1004"/>
<text text-anchor="start" x="38.5" y="-1022" font-family="Helvetica,sans-Serif" font-size="10.00">BubbleComponent::LookAnd</text>
<text text-anchor="middle" x="101" y="-1011" font-family="Helvetica,sans-Serif" font-size="10.00">FeelMethods</text>
</a>
</g>
</g>
<!-- Node11&#45;&gt;Node4 -->
<g id="edge10" class="edge"><title>Node11&#45;&gt;Node4</title>
<path fill="none" stroke="midnightblue" d="M181.001,-1008.45C188.806,-1004.84 196.032,-1000.13 202,-994 247.633,-947.15 268.95,-728.634 273.194,-679.728"/>
<polygon fill="midnightblue" stroke="midnightblue" points="179.601,-1005.24 171.613,-1012.2 182.198,-1011.74 179.601,-1005.24"/>
</g>
<!-- Node12 -->
<g id="node12" class="node"><title>Node12</title>
<g id="a_node12"><a xlink:href="structAlertWindow_1_1LookAndFeelMethods.html" target="_top" xlink:title="This abstract base class is implemented by LookAndFeel classes to provide alert&#45;window drawing functi...">
<polygon fill="none" stroke="black" points="33.5,-955 33.5,-985 168.5,-985 168.5,-955 33.5,-955"/>
<text text-anchor="start" x="41.5" y="-973" font-family="Helvetica,sans-Serif" font-size="10.00">AlertWindow::LookAndFeel</text>
<text text-anchor="middle" x="101" y="-962" font-family="Helvetica,sans-Serif" font-size="10.00">Methods</text>
</a>
</g>
</g>
<!-- Node12&#45;&gt;Node4 -->
<g id="edge11" class="edge"><title>Node12&#45;&gt;Node4</title>
<path fill="none" stroke="midnightblue" d="M177.976,-960.443C186.883,-956.731 195.201,-951.724 202,-945 241.389,-906.046 267.065,-723.926 272.787,-679.697"/>
<polygon fill="midnightblue" stroke="midnightblue" points="176.735,-957.17 168.521,-963.862 179.115,-963.753 176.735,-957.17"/>
</g>
<!-- Node13 -->
<g id="node13" class="node"><title>Node13</title>
<g id="a_node13"><a xlink:href="structPopupMenu_1_1LookAndFeelMethods.html" target="_top" xlink:title="This abstract base class is implemented by LookAndFeel classes to provide menu drawing functionality...">
<polygon fill="none" stroke="black" points="16.5,-916.5 16.5,-935.5 185.5,-935.5 185.5,-916.5 16.5,-916.5"/>
<text text-anchor="middle" x="101" y="-923.5" font-family="Helvetica,sans-Serif" font-size="10.00">PopupMenu::LookAndFeelMethods</text>
</a>
</g>
</g>
<!-- Node13&#45;&gt;Node4 -->
<g id="edge12" class="edge"><title>Node13&#45;&gt;Node4</title>
<path fill="none" stroke="midnightblue" d="M194.485,-912.757C197.127,-911.029 199.644,-909.116 202,-907 271.744,-844.357 274.917,-716.54 274.322,-679.975"/>
<polygon fill="midnightblue" stroke="midnightblue" points="192.694,-909.748 185.657,-917.668 196.098,-915.865 192.694,-909.748"/>
</g>
<!-- Node14 -->
<g id="node14" class="node"><title>Node14</title>
<g id="a_node14"><a xlink:href="structComboBox_1_1LookAndFeelMethods.html" target="_top" xlink:title="This abstract base class is implemented by LookAndFeel classes to provide ComboBox functionality...">
<polygon fill="none" stroke="black" points="18,-878.5 18,-897.5 184,-897.5 184,-878.5 18,-878.5"/>
<text text-anchor="middle" x="101" y="-885.5" font-family="Helvetica,sans-Serif" font-size="10.00">ComboBox::LookAndFeelMethods</text>
</a>
</g>
</g>
<!-- Node14&#45;&gt;Node4 -->
<g id="edge13" class="edge"><title>Node14&#45;&gt;Node4</title>
<path fill="none" stroke="midnightblue" d="M193.356,-875.204C196.398,-873.365 199.295,-871.305 202,-869 262.125,-817.768 272.043,-712.228 273.678,-679.736"/>
<polygon fill="midnightblue" stroke="midnightblue" points="191.707,-872.117 184.437,-879.824 194.926,-878.332 191.707,-872.117"/>
</g>
<!-- Node15 -->
<g id="node15" class="node"><title>Node15</title>
<g id="a_node15"><a xlink:href="structLabel_1_1LookAndFeelMethods.html" target="_top" xlink:title="This abstract base class is implemented by LookAndFeel classes to provide label drawing functionality...">
<polygon fill="none" stroke="black" points="31,-840.5 31,-859.5 171,-859.5 171,-840.5 31,-840.5"/>
<text text-anchor="middle" x="101" y="-847.5" font-family="Helvetica,sans-Serif" font-size="10.00">Label::LookAndFeelMethods</text>
</a>
</g>
</g>
<!-- Node15&#45;&gt;Node4 -->
<g id="edge14" class="edge"><title>Node15&#45;&gt;Node4</title>
<path fill="none" stroke="midnightblue" d="M180.674,-842.77C188.356,-839.861 195.643,-836.026 202,-831 252.439,-791.12 268.576,-708.329 272.747,-679.864"/>
<polygon fill="midnightblue" stroke="midnightblue" points="179.567,-839.45 171.145,-845.878 181.737,-846.105 179.567,-839.45"/>
</g>
<!-- Node16 -->
<g id="node16" class="node"><title>Node16</title>
<g id="a_node16"><a xlink:href="structSlider_1_1LookAndFeelMethods.html" target="_top" xlink:title="This abstract base class is implemented by LookAndFeel classes to provide slider drawing functionalit...">
<polygon fill="none" stroke="black" points="30,-802.5 30,-821.5 172,-821.5 172,-802.5 30,-802.5"/>
<text text-anchor="middle" x="101" y="-809.5" font-family="Helvetica,sans-Serif" font-size="10.00">Slider::LookAndFeelMethods</text>
</a>
</g>
</g>
<!-- Node16&#45;&gt;Node4 -->
<g id="edge15" class="edge"><title>Node16&#45;&gt;Node4</title>
<path fill="none" stroke="midnightblue" d="M181.956,-802.519C189.082,-799.783 195.897,-796.334 202,-792 242.705,-763.092 264.128,-703.317 271.254,-679.805"/>
<polygon fill="midnightblue" stroke="midnightblue" points="180.456,-799.331 172.085,-805.826 182.679,-805.968 180.456,-799.331"/>
</g>
<!-- Node17 -->
<g id="node17" class="node"><title>Node17</title>
<g id="a_node17"><a xlink:href="structResizableWindow_1_1LookAndFeelMethods.html" target="_top" xlink:title="This abstract base class is implemented by LookAndFeel classes to provide window drawing functionalit...">
<polygon fill="none" stroke="black" points="31,-753 31,-783 171,-783 171,-753 31,-753"/>
<text text-anchor="start" x="39" y="-771" font-family="Helvetica,sans-Serif" font-size="10.00">ResizableWindow::LookAnd</text>
<text text-anchor="middle" x="101" y="-760" font-family="Helvetica,sans-Serif" font-size="10.00">FeelMethods</text>
</a>
</g>
</g>
<!-- Node17&#45;&gt;Node4 -->
<g id="edge16" class="edge"><title>Node17&#45;&gt;Node4</title>
<path fill="none" stroke="midnightblue" d="M180.661,-752.78C188.094,-750.036 195.334,-746.805 202,-743 230.756,-726.588 255.734,-695.488 267.244,-679.708"/>
<polygon fill="midnightblue" stroke="midnightblue" points="179.515,-749.473 171.17,-756.001 181.764,-756.102 179.515,-749.473"/>
</g>
<!-- Node18 -->
<g id="node18" class="node"><title>Node18</title>
<g id="a_node18"><a xlink:href="structDocumentWindow_1_1LookAndFeelMethods.html" target="_top" xlink:title="This abstract base class is implemented by LookAndFeel classes to provide window drawing functionalit...">
<polygon fill="none" stroke="black" points="21,-704 21,-734 181,-734 181,-704 21,-704"/>
<text text-anchor="start" x="29" y="-722" font-family="Helvetica,sans-Serif" font-size="10.00">DocumentWindow::LookAndFeel</text>
<text text-anchor="middle" x="101" y="-711" font-family="Helvetica,sans-Serif" font-size="10.00">Methods</text>
</a>
</g>
</g>
<!-- Node18&#45;&gt;Node4 -->
<g id="edge17" class="edge"><title>Node18&#45;&gt;Node4</title>
<path fill="none" stroke="midnightblue" d="M174.995,-701.444C184.116,-699.046 193.294,-696.535 202,-694 216.928,-689.653 233.391,-684.214 246.803,-679.614"/>
<polygon fill="midnightblue" stroke="midnightblue" points="173.947,-698.099 165.144,-703.996 175.703,-704.876 173.947,-698.099"/>
</g>
<!-- Node19 -->
<g id="node19" class="node"><title>Node19</title>
<g id="a_node19"><a xlink:href="structTooltipWindow_1_1LookAndFeelMethods.html" target="_top" xlink:title="This abstract base class is implemented by LookAndFeel classes to provide window drawing functionalit...">
<polygon fill="none" stroke="black" points="29,-655 29,-685 173,-685 173,-655 29,-655"/>
<text text-anchor="start" x="37" y="-673" font-family="Helvetica,sans-Serif" font-size="10.00">TooltipWindow::LookAndFeel</text>
<text text-anchor="middle" x="101" y="-662" font-family="Helvetica,sans-Serif" font-size="10.00">Methods</text>
</a>
</g>
</g>
<!-- Node19&#45;&gt;Node4 -->
<g id="edge18" class="edge"><title>Node19&#45;&gt;Node4</title>
<path fill="none" stroke="midnightblue" d="M183.644,-670C202.643,-670 221.927,-670 237.773,-670"/>
<polygon fill="midnightblue" stroke="midnightblue" points="183.449,-666.5 173.449,-670 183.449,-673.5 183.449,-666.5"/>
</g>
<!-- Node20 -->
<g id="node20" class="node"><title>Node20</title>
<g id="a_node20"><a xlink:href="structTabbedButtonBar_1_1LookAndFeelMethods.html" target="_top" xlink:title="This abstract base class is implemented by LookAndFeel classes to provide window drawing functionalit...">
<polygon fill="none" stroke="black" points="32.5,-606 32.5,-636 169.5,-636 169.5,-606 32.5,-606"/>
<text text-anchor="start" x="40.5" y="-624" font-family="Helvetica,sans-Serif" font-size="10.00">TabbedButtonBar::LookAnd</text>
<text text-anchor="middle" x="101" y="-613" font-family="Helvetica,sans-Serif" font-size="10.00">FeelMethods</text>
</a>
</g>
</g>
<!-- Node20&#45;&gt;Node4 -->
<g id="edge19" class="edge"><title>Node20&#45;&gt;Node4</title>
<path fill="none" stroke="midnightblue" d="M174.995,-638.556C184.116,-640.954 193.294,-643.465 202,-646 216.928,-650.347 233.391,-655.786 246.803,-660.386"/>
<polygon fill="midnightblue" stroke="midnightblue" points="175.703,-635.124 165.144,-636.004 173.947,-641.901 175.703,-635.124"/>
</g>
<!-- Node21 -->
<g id="node21" class="node"><title>Node21</title>
<g id="a_node21"><a xlink:href="structPropertyComponent_1_1LookAndFeelMethods.html" target="_top" xlink:title="This abstract base class is implemented by LookAndFeel classes. ">
<polygon fill="none" stroke="black" points="45.5,-557 45.5,-587 156.5,-587 156.5,-557 45.5,-557"/>
<text text-anchor="start" x="53.5" y="-575" font-family="Helvetica,sans-Serif" font-size="10.00">PropertyComponent::</text>
<text text-anchor="middle" x="101" y="-564" font-family="Helvetica,sans-Serif" font-size="10.00">LookAndFeelMethods</text>
</a>
</g>
</g>
<!-- Node21&#45;&gt;Node4 -->
<g id="edge20" class="edge"><title>Node21&#45;&gt;Node4</title>
<path fill="none" stroke="midnightblue" d="M166.517,-582.606C178.773,-586.13 191.147,-590.805 202,-597 230.756,-613.412 255.734,-644.512 267.244,-660.292"/>
<polygon fill="midnightblue" stroke="midnightblue" points="167.307,-579.195 156.744,-580.02 165.516,-585.962 167.307,-579.195"/>
</g>
<!-- Node22 -->
<g id="node22" class="node"><title>Node22</title>
<g id="a_node22"><a xlink:href="structFilenameComponent_1_1LookAndFeelMethods.html" target="_top" xlink:title="This abstract base class is implemented by LookAndFeel classes. ">
<polygon fill="none" stroke="black" points="44.5,-508 44.5,-538 157.5,-538 157.5,-508 44.5,-508"/>
<text text-anchor="start" x="52.5" y="-526" font-family="Helvetica,sans-Serif" font-size="10.00">FilenameComponent::</text>
<text text-anchor="middle" x="101" y="-515" font-family="Helvetica,sans-Serif" font-size="10.00">LookAndFeelMethods</text>
</a>
</g>
</g>
<!-- Node22&#45;&gt;Node4 -->
<g id="edge21" class="edge"><title>Node22&#45;&gt;Node4</title>
<path fill="none" stroke="midnightblue" d="M167.438,-531.448C179.723,-535.148 191.873,-540.439 202,-548 242.006,-577.868 263.839,-637.081 271.164,-660.318"/>
<polygon fill="midnightblue" stroke="midnightblue" points="168.157,-528.018 157.591,-528.81 166.345,-534.779 168.157,-528.018"/>
</g>
<!-- Node23 -->
<g id="node23" class="node"><title>Node23</title>
<g id="a_node23"><a xlink:href="structGroupComponent_1_1LookAndFeelMethods.html" target="_top" xlink:title="This abstract base class is implemented by LookAndFeel classes. ">
<polygon fill="none" stroke="black" points="23,-459 23,-489 179,-489 179,-459 23,-459"/>
<text text-anchor="start" x="31" y="-477" font-family="Helvetica,sans-Serif" font-size="10.00">GroupComponent::LookAndFeel</text>
<text text-anchor="middle" x="101" y="-466" font-family="Helvetica,sans-Serif" font-size="10.00">Methods</text>
</a>
</g>
</g>
<!-- Node23&#45;&gt;Node4 -->
<g id="edge22" class="edge"><title>Node23&#45;&gt;Node4</title>
<path fill="none" stroke="midnightblue" d="M188.225,-489.638C193.148,-492.3 197.796,-495.397 202,-499 253.604,-543.232 269.054,-630.717 272.892,-660.107"/>
<polygon fill="midnightblue" stroke="midnightblue" points="189.635,-486.434 179.101,-485.304 186.632,-492.757 189.635,-486.434"/>
</g>
<!-- Node24 -->
<g id="node24" class="node"><title>Node24</title>
<g id="a_node24"><a xlink:href="structTableHeaderComponent_1_1LookAndFeelMethods.html" target="_top" xlink:title="This abstract base class is implemented by LookAndFeel classes. ">
<polygon fill="none" stroke="black" points="40,-410 40,-440 162,-440 162,-410 40,-410"/>
<text text-anchor="start" x="48" y="-428" font-family="Helvetica,sans-Serif" font-size="10.00">TableHeaderComponent</text>
<text text-anchor="middle" x="101" y="-417" font-family="Helvetica,sans-Serif" font-size="10.00">::LookAndFeelMethods</text>
</a>
</g>
</g>
<!-- Node24&#45;&gt;Node4 -->
<g id="edge23" class="edge"><title>Node24&#45;&gt;Node4</title>
<path fill="none" stroke="midnightblue" d="M171.931,-432.82C182.987,-436.631 193.542,-442.124 202,-450 265.824,-509.428 273.18,-626.182 273.94,-660.376"/>
<polygon fill="midnightblue" stroke="midnightblue" points="172.711,-429.4 162.127,-429.886 170.704,-436.106 172.711,-429.4"/>
</g>
<!-- Node25 -->
<g id="node25" class="node"><title>Node25</title>
<g id="a_node25"><a xlink:href="structCallOutBox_1_1LookAndFeelMethods.html" target="_top" xlink:title="This abstract base class is implemented by LookAndFeel classes. ">
<polygon fill="none" stroke="black" points="17.5,-371.5 17.5,-390.5 184.5,-390.5 184.5,-371.5 17.5,-371.5"/>
<text text-anchor="middle" x="101" y="-378.5" font-family="Helvetica,sans-Serif" font-size="10.00">CallOutBox::LookAndFeelMethods</text>
</a>
</g>
</g>
<!-- Node25&#45;&gt;Node4 -->
<g id="edge24" class="edge"><title>Node25&#45;&gt;Node4</title>
<path fill="none" stroke="midnightblue" d="M193.631,-394.445C196.597,-396.388 199.403,-398.564 202,-401 241.584,-438.123 267.113,-617.009 272.796,-660.47"/>
<polygon fill="midnightblue" stroke="midnightblue" points="195.326,-391.383 184.888,-389.567 191.915,-397.496 195.326,-391.383"/>
</g>
<!-- Node26 -->
<g id="node26" class="node"><title>Node26</title>
<g id="a_node26"><a xlink:href="structToolbar_1_1LookAndFeelMethods.html" target="_top" xlink:title="This abstract base class is implemented by LookAndFeel classes. ">
<polygon fill="none" stroke="black" points="26.5,-333.5 26.5,-352.5 175.5,-352.5 175.5,-333.5 26.5,-333.5"/>
<text text-anchor="middle" x="101" y="-340.5" font-family="Helvetica,sans-Serif" font-size="10.00">Toolbar::LookAndFeelMethods</text>
</a>
</g>
</g>
<!-- Node26&#45;&gt;Node4 -->
<g id="edge25" class="edge"><title>Node26&#45;&gt;Node4</title>
<path fill="none" stroke="midnightblue" d="M185.037,-350.536C191.255,-353.478 197.03,-357.234 202,-362 246.886,-405.044 268.707,-613.026 273.14,-660.388"/>
<polygon fill="midnightblue" stroke="midnightblue" points="186.235,-347.246 175.651,-346.785 183.638,-353.746 186.235,-347.246"/>
</g>
<!-- Node27 -->
<g id="node27" class="node"><title>Node27</title>
<g id="a_node27"><a xlink:href="structConcertinaPanel_1_1LookAndFeelMethods.html" target="_top" xlink:title="This abstract base class is implemented by LookAndFeel classes. ">
<polygon fill="none" stroke="black" points="34.5,-284 34.5,-314 167.5,-314 167.5,-284 34.5,-284"/>
<text text-anchor="start" x="42.5" y="-302" font-family="Helvetica,sans-Serif" font-size="10.00">ConcertinaPanel::LookAnd</text>
<text text-anchor="middle" x="101" y="-291" font-family="Helvetica,sans-Serif" font-size="10.00">FeelMethods</text>
</a>
</g>
</g>
<!-- Node27&#45;&gt;Node4 -->
<g id="edge26" class="edge"><title>Node27&#45;&gt;Node4</title>
<path fill="none" stroke="midnightblue" d="M177.086,-307.729C186.404,-311.537 195.072,-316.79 202,-324 250.465,-374.434 269.713,-609.484 273.344,-660.298"/>
<polygon fill="midnightblue" stroke="midnightblue" points="178.187,-304.406 167.592,-304.384 175.861,-311.008 178.187,-304.406"/>
</g>
<!-- Node28 -->
<g id="node28" class="node"><title>Node28</title>
<g id="a_node28"><a xlink:href="structProgressBar_1_1LookAndFeelMethods.html" target="_top" xlink:title="This abstract base class is implemented by LookAndFeel classes. ">
<polygon fill="none" stroke="black" points="34,-235 34,-265 168,-265 168,-235 34,-235"/>
<text text-anchor="start" x="42" y="-253" font-family="Helvetica,sans-Serif" font-size="10.00">ProgressBar::LookAndFeel</text>
<text text-anchor="middle" x="101" y="-242" font-family="Helvetica,sans-Serif" font-size="10.00">Methods</text>
</a>
</g>
</g>
<!-- Node28&#45;&gt;Node4 -->
<g id="edge27" class="edge"><title>Node28&#45;&gt;Node4</title>
<path fill="none" stroke="midnightblue" d="M177.726,-258.769C186.838,-262.584 195.279,-267.829 202,-275 256.821,-333.486 271.253,-605.72 273.619,-660.414"/>
<polygon fill="midnightblue" stroke="midnightblue" points="178.626,-255.374 168.032,-255.291 176.262,-261.963 178.626,-255.374"/>
</g>
<!-- Node29 -->
<g id="node29" class="node"><title>Node29</title>
<g id="a_node29"><a xlink:href="structStretchableLayoutResizerBar_1_1LookAndFeelMethods.html" target="_top" xlink:title="This abstract base class is implemented by LookAndFeel classes. ">
<polygon fill="none" stroke="black" points="35,-186 35,-216 167,-216 167,-186 35,-186"/>
<text text-anchor="start" x="43" y="-204" font-family="Helvetica,sans-Serif" font-size="10.00">StretchableLayoutResizer</text>
<text text-anchor="middle" x="101" y="-193" font-family="Helvetica,sans-Serif" font-size="10.00">Bar::LookAndFeelMethods</text>
</a>
</g>
</g>
<!-- Node29&#45;&gt;Node4 -->
<g id="edge28" class="edge"><title>Node29&#45;&gt;Node4</title>
<path fill="none" stroke="midnightblue" d="M176.822,-209.22C186.311,-213.085 195.097,-218.49 202,-226 263.168,-292.549 272.586,-601.82 273.829,-660.407"/>
<polygon fill="midnightblue" stroke="midnightblue" points="177.737,-205.832 167.142,-205.847 175.434,-212.442 177.737,-205.832"/>
</g>
<!-- Node30 -->
<g id="node30" class="node"><title>Node30</title>
<g id="a_node30"><a xlink:href="structExtraLookAndFeelBaseClasses_1_1KeyMappingEditorComponentMethods.html" target="_top" xlink:title="This abstract base class is implemented by LookAndFeel classes. ">
<polygon fill="none" stroke="black" points="6,-137 6,-167 196,-167 196,-137 6,-137"/>
<text text-anchor="start" x="14" y="-155" font-family="Helvetica,sans-Serif" font-size="10.00">ExtraLookAndFeelBaseClasses</text>
<text text-anchor="middle" x="101" y="-144" font-family="Helvetica,sans-Serif" font-size="10.00">::KeyMappingEditorComponentMethods</text>
</a>
</g>
</g>
<!-- Node30&#45;&gt;Node4 -->
<g id="edge29" class="edge"><title>Node30&#45;&gt;Node4</title>
<path fill="none" stroke="midnightblue" d="M198.241,-173.224C199.548,-174.419 200.803,-175.677 202,-177 269.462,-251.566 273.773,-597.332 273.997,-660.185"/>
<polygon fill="midnightblue" stroke="midnightblue" points="200.281,-170.377 190.228,-167.033 196.001,-175.916 200.281,-170.377"/>
</g>
<!-- Node31 -->
<g id="node31" class="node"><title>Node31</title>
<g id="a_node31"><a xlink:href="structExtraLookAndFeelBaseClasses_1_1AudioDeviceSelectorComponentMethods.html" target="_top" xlink:title="This abstract base class is implemented by LookAndFeel classes. ">
<polygon fill="none" stroke="black" points="0,-88 0,-118 202,-118 202,-88 0,-88"/>
<text text-anchor="start" x="8" y="-106" font-family="Helvetica,sans-Serif" font-size="10.00">ExtraLookAndFeelBaseClasses</text>
<text text-anchor="middle" x="101" y="-95" font-family="Helvetica,sans-Serif" font-size="10.00">::AudioDeviceSelectorComponentMethods</text>
</a>
</g>
</g>
<!-- Node31&#45;&gt;Node4 -->
<g id="edge30" class="edge"><title>Node31&#45;&gt;Node4</title>
<path fill="none" stroke="midnightblue" d="M198.739,-124.646C199.869,-125.715 200.957,-126.832 202,-128 275.818,-210.661 274.876,-593.444 274.14,-660.091"/>
<polygon fill="midnightblue" stroke="midnightblue" points="200.735,-121.762 190.731,-118.275 196.377,-127.24 200.735,-121.762"/>
</g>
<!-- Node32 -->
<g id="node32" class="node"><title>Node32</title>
<g id="a_node32"><a xlink:href="structExtraLookAndFeelBaseClasses_1_1LassoComponentMethods.html" target="_top" xlink:title="This abstract base class is implemented by LookAndFeel classes. ">
<polygon fill="none" stroke="black" points="23.5,-39 23.5,-69 178.5,-69 178.5,-39 23.5,-39"/>
<text text-anchor="start" x="31.5" y="-57" font-family="Helvetica,sans-Serif" font-size="10.00">ExtraLookAndFeelBaseClasses</text>
<text text-anchor="middle" x="101" y="-46" font-family="Helvetica,sans-Serif" font-size="10.00">::LassoComponentMethods</text>
</a>
</g>
</g>
<!-- Node32&#45;&gt;Node4 -->
<g id="edge31" class="edge"><title>Node32&#45;&gt;Node4</title>
<path fill="none" stroke="midnightblue" d="M187.819,-67.3422C193.085,-70.5179 197.902,-74.3602 202,-79 242.288,-124.609 269.383,-586.442 273.464,-660.115"/>
<polygon fill="midnightblue" stroke="midnightblue" points="189.074,-64.0529 178.579,-62.604 185.88,-70.2816 189.074,-64.0529"/>
</g>
<!-- Node33 -->
<g id="node33" class="node"><title>Node33</title>
<g id="a_node33"><a xlink:href="structSidePanel_1_1LookAndFeelMethods.html" target="_top" xlink:title="This abstract base class is implemented by LookAndFeel classes to provide SidePanel drawing functiona...">
<polygon fill="none" stroke="black" points="20.5,-0.5 20.5,-19.5 181.5,-19.5 181.5,-0.5 20.5,-0.5"/>
<text text-anchor="middle" x="101" y="-7.5" font-family="Helvetica,sans-Serif" font-size="10.00">SidePanel::LookAndFeelMethods</text>
</a>
</g>
</g>
<!-- Node33&#45;&gt;Node4 -->
<g id="edge32" class="edge"><title>Node33&#45;&gt;Node4</title>
<path fill="none" stroke="midnightblue" d="M190.736,-20.6709C194.857,-23.2767 198.659,-26.3604 202,-30 246.709,-78.6981 270.26,-583.632 273.589,-660.273"/>
<polygon fill="midnightblue" stroke="midnightblue" points="192.347,-17.5634 181.873,-15.9683 189.066,-23.747 192.347,-17.5634"/>
</g>
</g>
</svg>
