<?xml version="1.0" encoding="UTF-8" standalone="no"?>
<!DOCTYPE svg PUBLIC "-//W3C//DTD SVG 1.1//EN"
 "http://www.w3.org/Graphics/SVG/1.1/DTD/svg11.dtd">
<!-- Generated by graphviz version 2.36.0 (20140111.2315)
 -->
<!-- Title: juce::Drawable Pages: 1 -->
<svg width="512pt" height="252pt"
 viewBox="0.00 0.00 512.00 252.00" xmlns="http://www.w3.org/2000/svg" xmlns:xlink="http://www.w3.org/1999/xlink">
<g id="graph0" class="graph" transform="scale(1 1) rotate(0) translate(4 248)">
<title>juce::Drawable</title>
<!-- Node1 -->
<g id="node1" class="node"><title>Node1</title>
<polygon fill="#bfbfbf" stroke="black" points="224,-112.5 224,-131.5 306,-131.5 306,-112.5 224,-112.5"/>
<text text-anchor="middle" x="265" y="-119.5" font-family="Helvetica,sans-Serif" font-size="10.00">juce::Drawable</text>
</g>
<!-- Node4 -->
<g id="node4" class="node"><title>Node4</title>
<g id="a_node4"><a xlink:href="classjuce_1_1DrawableComposite.html" target="_top" xlink:title="A drawable object which acts as a container for a set of other Drawables. ">
<polygon fill="none" stroke="black" points="-0.5,-56.5 -0.5,-75.5 128.5,-75.5 128.5,-56.5 -0.5,-56.5"/>
<text text-anchor="middle" x="64" y="-63.5" font-family="Helvetica,sans-Serif" font-size="10.00">juce::DrawableComposite</text>
</a>
</g>
</g>
<!-- Node1&#45;&gt;Node4 -->
<g id="edge3" class="edge"><title>Node1&#45;&gt;Node4</title>
<path fill="none" stroke="midnightblue" d="M223.419,-109.829C185.469,-99.6333 130.19,-84.7823 95.7,-75.5164"/>
<polygon fill="midnightblue" stroke="midnightblue" points="222.585,-113.229 233.151,-112.444 224.402,-106.469 222.585,-113.229"/>
</g>
<!-- Node5 -->
<g id="node5" class="node"><title>Node5</title>
<g id="a_node5"><a xlink:href="classjuce_1_1DrawableImage.html" target="_top" xlink:title="A drawable object which is a bitmap image. ">
<polygon fill="none" stroke="black" points="146.5,-56.5 146.5,-75.5 255.5,-75.5 255.5,-56.5 146.5,-56.5"/>
<text text-anchor="middle" x="201" y="-63.5" font-family="Helvetica,sans-Serif" font-size="10.00">juce::DrawableImage</text>
</a>
</g>
</g>
<!-- Node1&#45;&gt;Node5 -->
<g id="edge4" class="edge"><title>Node1&#45;&gt;Node5</title>
<path fill="none" stroke="midnightblue" d="M247.009,-105.82C235.542,-96.1452 221.087,-83.9481 211.47,-75.8339"/>
<polygon fill="midnightblue" stroke="midnightblue" points="244.817,-108.55 254.717,-112.324 249.331,-103.2 244.817,-108.55"/>
</g>
<!-- Node6 -->
<g id="node6" class="node"><title>Node6</title>
<g id="a_node6"><a xlink:href="classjuce_1_1DrawableShape.html" target="_top" xlink:title="A base class implementing common functionality for Drawable classes which consist of some kind of fil...">
<polygon fill="none" stroke="black" points="274,-56.5 274,-75.5 384,-75.5 384,-56.5 274,-56.5"/>
<text text-anchor="middle" x="329" y="-63.5" font-family="Helvetica,sans-Serif" font-size="10.00">juce::DrawableShape</text>
</a>
</g>
</g>
<!-- Node1&#45;&gt;Node6 -->
<g id="edge5" class="edge"><title>Node1&#45;&gt;Node6</title>
<path fill="none" stroke="midnightblue" d="M282.991,-105.82C294.458,-96.1452 308.913,-83.9481 318.53,-75.8339"/>
<polygon fill="midnightblue" stroke="midnightblue" points="280.669,-103.2 275.283,-112.324 285.183,-108.55 280.669,-103.2"/>
</g>
<!-- Node9 -->
<g id="node9" class="node"><title>Node9</title>
<g id="a_node9"><a xlink:href="classjuce_1_1DrawableText.html" target="_top" xlink:title="A drawable object which renders a line of text. ">
<polygon fill="none" stroke="black" points="402.5,-56.5 402.5,-75.5 503.5,-75.5 503.5,-56.5 402.5,-56.5"/>
<text text-anchor="middle" x="453" y="-63.5" font-family="Helvetica,sans-Serif" font-size="10.00">juce::DrawableText</text>
</a>
</g>
</g>
<!-- Node1&#45;&gt;Node9 -->
<g id="edge8" class="edge"><title>Node1&#45;&gt;Node9</title>
<path fill="none" stroke="midnightblue" d="M304.801,-109.568C340.266,-99.381 391.366,-84.7034 423.35,-75.5164"/>
<polygon fill="midnightblue" stroke="midnightblue" points="303.434,-106.319 294.789,-112.444 305.367,-113.047 303.434,-106.319"/>
</g>
<!-- Node2 -->
<g id="node2" class="node"><title>Node2</title>
<g id="a_node2"><a xlink:href="classjuce_1_1Component.html" target="_top" xlink:title="The base class for all JUCE user&#45;interface objects. ">
<polygon fill="none" stroke="black" points="219.5,-168.5 219.5,-187.5 310.5,-187.5 310.5,-168.5 219.5,-168.5"/>
<text text-anchor="middle" x="265" y="-175.5" font-family="Helvetica,sans-Serif" font-size="10.00">juce::Component</text>
</a>
</g>
</g>
<!-- Node2&#45;&gt;Node1 -->
<g id="edge1" class="edge"><title>Node2&#45;&gt;Node1</title>
<path fill="none" stroke="midnightblue" d="M265,-157.805C265,-148.91 265,-138.78 265,-131.751"/>
<polygon fill="midnightblue" stroke="midnightblue" points="261.5,-158.083 265,-168.083 268.5,-158.083 261.5,-158.083"/>
</g>
<!-- Node3 -->
<g id="node3" class="node"><title>Node3</title>
<g id="a_node3"><a xlink:href="classjuce_1_1MouseListener.html" target="_top" xlink:title="A MouseListener can be registered with a component to receive callbacks about mouse events that happe...">
<polygon fill="none" stroke="black" points="213,-224.5 213,-243.5 317,-243.5 317,-224.5 213,-224.5"/>
<text text-anchor="middle" x="265" y="-231.5" font-family="Helvetica,sans-Serif" font-size="10.00">juce::MouseListener</text>
</a>
</g>
</g>
<!-- Node3&#45;&gt;Node2 -->
<g id="edge2" class="edge"><title>Node3&#45;&gt;Node2</title>
<path fill="none" stroke="midnightblue" d="M265,-213.805C265,-204.91 265,-194.78 265,-187.751"/>
<polygon fill="midnightblue" stroke="midnightblue" points="261.5,-214.083 265,-224.083 268.5,-214.083 261.5,-214.083"/>
</g>
<!-- Node7 -->
<g id="node7" class="node"><title>Node7</title>
<g id="a_node7"><a xlink:href="classjuce_1_1DrawablePath.html" target="_top" xlink:title="A drawable object which renders a filled or outlined shape. ">
<polygon fill="none" stroke="black" points="212,-0.5 212,-19.5 314,-19.5 314,-0.5 212,-0.5"/>
<text text-anchor="middle" x="263" y="-7.5" font-family="Helvetica,sans-Serif" font-size="10.00">juce::DrawablePath</text>
</a>
</g>
</g>
<!-- Node6&#45;&gt;Node7 -->
<g id="edge6" class="edge"><title>Node6&#45;&gt;Node7</title>
<path fill="none" stroke="midnightblue" d="M310.446,-49.8197C298.622,-40.1452 283.714,-27.9481 273.797,-19.8339"/>
<polygon fill="midnightblue" stroke="midnightblue" points="308.44,-52.7004 318.396,-56.324 312.873,-47.2827 308.44,-52.7004"/>
</g>
<!-- Node8 -->
<g id="node8" class="node"><title>Node8</title>
<g id="a_node8"><a xlink:href="classjuce_1_1DrawableRectangle.html" target="_top" xlink:title="A Drawable object which draws a rectangle. ">
<polygon fill="none" stroke="black" points="332,-0.5 332,-19.5 458,-19.5 458,-0.5 332,-0.5"/>
<text text-anchor="middle" x="395" y="-7.5" font-family="Helvetica,sans-Serif" font-size="10.00">juce::DrawableRectangle</text>
</a>
</g>
</g>
<!-- Node6&#45;&gt;Node8 -->
<g id="edge7" class="edge"><title>Node6&#45;&gt;Node8</title>
<path fill="none" stroke="midnightblue" d="M347.554,-49.8197C359.378,-40.1452 374.286,-27.9481 384.203,-19.8339"/>
<polygon fill="midnightblue" stroke="midnightblue" points="345.127,-47.2827 339.604,-56.324 349.56,-52.7004 345.127,-47.2827"/>
</g>
</g>
</svg>
