<?xml version="1.0" encoding="UTF-8" standalone="no"?>
<!DOCTYPE svg PUBLIC "-//W3C//DTD SVG 1.1//EN"
 "http://www.w3.org/Graphics/SVG/1.1/DTD/svg11.dtd">
<!-- Generated by graphviz version 2.36.0 (20140111.2315)
 -->
<!-- Title: TextEditor Pages: 1 -->
<svg width="311pt" height="140pt"
 viewBox="0.00 0.00 311.00 140.00" xmlns="http://www.w3.org/2000/svg" xmlns:xlink="http://www.w3.org/1999/xlink">
<g id="graph0" class="graph" transform="scale(1 1) rotate(0) translate(4 136)">
<title>TextEditor</title>
<!-- Node1 -->
<g id="node1" class="node"><title>Node1</title>
<polygon fill="#bfbfbf" stroke="black" points="104,-0.5 104,-19.5 166,-19.5 166,-0.5 104,-0.5"/>
<text text-anchor="middle" x="135" y="-7.5" font-family="Helvetica,sans-Serif" font-size="10.00">TextEditor</text>
</g>
<!-- Node2 -->
<g id="node2" class="node"><title>Node2</title>
<g id="a_node2"><a xlink:href="group__juce__gui__basics-components.html#classComponent" target="_top" xlink:title="The base class for all JUCE user&#45;interface objects. ">
<polygon fill="none" stroke="black" points="6.5,-56.5 6.5,-75.5 73.5,-75.5 73.5,-56.5 6.5,-56.5"/>
<text text-anchor="middle" x="40" y="-63.5" font-family="Helvetica,sans-Serif" font-size="10.00">Component</text>
</a>
</g>
</g>
<!-- Node2&#45;&gt;Node1 -->
<g id="edge1" class="edge"><title>Node2&#45;&gt;Node1</title>
<path fill="none" stroke="midnightblue" d="M64.3176,-51.1774C81.7988,-41.2407 104.83,-28.1492 119.774,-19.6545"/>
<polygon fill="midnightblue" stroke="midnightblue" points="62.2275,-48.3395 55.2634,-56.324 65.6867,-54.425 62.2275,-48.3395"/>
</g>
<!-- Node3 -->
<g id="node3" class="node"><title>Node3</title>
<g id="a_node3"><a xlink:href="group__juce__gui__basics-mouse.html#classMouseListener" target="_top" xlink:title="A MouseListener can be registered with a component to receive callbacks about mouse events that happe...">
<polygon fill="none" stroke="black" points="0,-112.5 0,-131.5 80,-131.5 80,-112.5 0,-112.5"/>
<text text-anchor="middle" x="40" y="-119.5" font-family="Helvetica,sans-Serif" font-size="10.00">MouseListener</text>
</a>
</g>
</g>
<!-- Node3&#45;&gt;Node2 -->
<g id="edge2" class="edge"><title>Node3&#45;&gt;Node2</title>
<path fill="none" stroke="midnightblue" d="M40,-101.805C40,-92.9102 40,-82.7798 40,-75.7511"/>
<polygon fill="midnightblue" stroke="midnightblue" points="36.5001,-102.083 40,-112.083 43.5001,-102.083 36.5001,-102.083"/>
</g>
<!-- Node4 -->
<g id="node4" class="node"><title>Node4</title>
<g id="a_node4"><a xlink:href="group__juce__gui__basics-keyboard.html#classTextInputTarget" target="_top" xlink:title="An abstract base class which can be implemented by components that function as text editors...">
<polygon fill="none" stroke="black" points="92,-56.5 92,-75.5 178,-75.5 178,-56.5 92,-56.5"/>
<text text-anchor="middle" x="135" y="-63.5" font-family="Helvetica,sans-Serif" font-size="10.00">TextInputTarget</text>
</a>
</g>
</g>
<!-- Node4&#45;&gt;Node1 -->
<g id="edge3" class="edge"><title>Node4&#45;&gt;Node1</title>
<path fill="none" stroke="midnightblue" d="M135,-45.8045C135,-36.9102 135,-26.7798 135,-19.7511"/>
<polygon fill="midnightblue" stroke="midnightblue" points="131.5,-46.083 135,-56.083 138.5,-46.083 131.5,-46.083"/>
</g>
<!-- Node5 -->
<g id="node5" class="node"><title>Node5</title>
<g id="a_node5"><a xlink:href="group__juce__gui__basics-mouse.html#classSettableTooltipClient" target="_top" xlink:title="An implementation of TooltipClient that stores the tooltip string and a method for changing it...">
<polygon fill="none" stroke="black" points="196.5,-56.5 196.5,-75.5 303.5,-75.5 303.5,-56.5 196.5,-56.5"/>
<text text-anchor="middle" x="250" y="-63.5" font-family="Helvetica,sans-Serif" font-size="10.00">SettableTooltipClient</text>
</a>
</g>
</g>
<!-- Node5&#45;&gt;Node1 -->
<g id="edge4" class="edge"><title>Node5&#45;&gt;Node1</title>
<path fill="none" stroke="midnightblue" d="M222.519,-52.096C201.034,-42.0073 171.778,-28.2697 153.137,-19.5164"/>
<polygon fill="midnightblue" stroke="midnightblue" points="221.238,-55.3612 231.778,-56.4435 224.214,-49.025 221.238,-55.3612"/>
</g>
<!-- Node6 -->
<g id="node6" class="node"><title>Node6</title>
<g id="a_node6"><a xlink:href="group__juce__gui__basics-mouse.html#classTooltipClient" target="_top" xlink:title="Components that want to use pop&#45;up tooltips should implement this interface. ">
<polygon fill="none" stroke="black" points="214.5,-112.5 214.5,-131.5 285.5,-131.5 285.5,-112.5 214.5,-112.5"/>
<text text-anchor="middle" x="250" y="-119.5" font-family="Helvetica,sans-Serif" font-size="10.00">TooltipClient</text>
</a>
</g>
</g>
<!-- Node6&#45;&gt;Node5 -->
<g id="edge5" class="edge"><title>Node6&#45;&gt;Node5</title>
<path fill="none" stroke="midnightblue" d="M250,-101.805C250,-92.9102 250,-82.7798 250,-75.7511"/>
<polygon fill="midnightblue" stroke="midnightblue" points="246.5,-102.083 250,-112.083 253.5,-102.083 246.5,-102.083"/>
</g>
</g>
</svg>
