<?xml version="1.0" encoding="UTF-8" standalone="no"?>
<!DOCTYPE svg PUBLIC "-//W3C//DTD SVG 1.1//EN"
 "http://www.w3.org/Graphics/SVG/1.1/DTD/svg11.dtd">
<!-- Generated by graphviz version 2.36.0 (20140111.2315)
 -->
<!-- Title: juce::AudioSource Pages: 1 -->
<svg width="486pt" height="355pt"
 viewBox="0.00 0.00 486.00 355.00" xmlns="http://www.w3.org/2000/svg" xmlns:xlink="http://www.w3.org/1999/xlink">
<g id="graph0" class="graph" transform="scale(1 1) rotate(0) translate(4 351)">
<title>juce::AudioSource</title>
<!-- Node1 -->
<g id="node1" class="node"><title>Node1</title>
<polygon fill="#bfbfbf" stroke="black" points="0,-163.5 0,-182.5 96,-182.5 96,-163.5 0,-163.5"/>
<text text-anchor="middle" x="48" y="-170.5" font-family="Helvetica,sans-Serif" font-size="10.00">juce::AudioSource</text>
</g>
<!-- Node2 -->
<g id="node2" class="node"><title>Node2</title>
<g id="a_node2"><a xlink:href="classjuce_1_1AudioAppComponent.html" target="_top" xlink:title="A base class for writing audio apps that stream from the audio i/o devices. ">
<polygon fill="none" stroke="black" points="141.5,-327.5 141.5,-346.5 274.5,-346.5 274.5,-327.5 141.5,-327.5"/>
<text text-anchor="middle" x="208" y="-334.5" font-family="Helvetica,sans-Serif" font-size="10.00">juce::AudioAppComponent</text>
</a>
</g>
</g>
<!-- Node1&#45;&gt;Node2 -->
<g id="edge1" class="edge"><title>Node1&#45;&gt;Node2</title>
<path fill="none" stroke="midnightblue" d="M54.8089,-192.504C65.1143,-223.668 89.6025,-284.483 132,-317 137.667,-321.347 144.203,-324.751 151.004,-327.416"/>
<polygon fill="midnightblue" stroke="midnightblue" points="58.0974,-191.294 51.7491,-182.812 51.4222,-193.402 58.0974,-191.294"/>
</g>
<!-- Node3 -->
<g id="node3" class="node"><title>Node3</title>
<g id="a_node3"><a xlink:href="classjuce_1_1ChannelRemappingAudioSource.html" target="_top" xlink:title="An AudioSource that takes the audio from another source, and re&#45;maps its input and output channels to...">
<polygon fill="none" stroke="black" points="132.5,-278 132.5,-308 283.5,-308 283.5,-278 132.5,-278"/>
<text text-anchor="start" x="140.5" y="-296" font-family="Helvetica,sans-Serif" font-size="10.00">juce::ChannelRemappingAudio</text>
<text text-anchor="middle" x="208" y="-285" font-family="Helvetica,sans-Serif" font-size="10.00">Source</text>
</a>
</g>
</g>
<!-- Node1&#45;&gt;Node3 -->
<g id="edge2" class="edge"><title>Node1&#45;&gt;Node3</title>
<path fill="none" stroke="midnightblue" d="M60.348,-191.027C74.6166,-212.304 101.03,-247.388 132,-268 137.713,-271.802 144.055,-275.073 150.563,-277.875"/>
<polygon fill="midnightblue" stroke="midnightblue" points="63.2322,-189.043 54.836,-182.581 57.3699,-192.868 63.2322,-189.043"/>
</g>
<!-- Node4 -->
<g id="node4" class="node"><title>Node4</title>
<g id="a_node4"><a xlink:href="classjuce_1_1IIRFilterAudioSource.html" target="_top" xlink:title="An AudioSource that performs an IIR filter on another source. ">
<polygon fill="none" stroke="black" points="142.5,-239.5 142.5,-258.5 273.5,-258.5 273.5,-239.5 142.5,-239.5"/>
<text text-anchor="middle" x="208" y="-246.5" font-family="Helvetica,sans-Serif" font-size="10.00">juce::IIRFilterAudioSource</text>
</a>
</g>
</g>
<!-- Node1&#45;&gt;Node4 -->
<g id="edge3" class="edge"><title>Node1&#45;&gt;Node4</title>
<path fill="none" stroke="midnightblue" d="M68.1047,-189.051C84.2091,-201.832 108.35,-219.298 132,-230 140.322,-233.766 149.514,-236.871 158.528,-239.402"/>
<polygon fill="midnightblue" stroke="midnightblue" points="70.009,-186.088 60.0387,-182.504 65.5978,-191.524 70.009,-186.088"/>
</g>
<!-- Node5 -->
<g id="node5" class="node"><title>Node5</title>
<g id="a_node5"><a xlink:href="classjuce_1_1MemoryAudioSource.html" target="_top" xlink:title="An AudioSource which takes some float audio data as an input. ">
<polygon fill="none" stroke="black" points="142.5,-201.5 142.5,-220.5 273.5,-220.5 273.5,-201.5 142.5,-201.5"/>
<text text-anchor="middle" x="208" y="-208.5" font-family="Helvetica,sans-Serif" font-size="10.00">juce::MemoryAudioSource</text>
</a>
</g>
</g>
<!-- Node1&#45;&gt;Node5 -->
<g id="edge4" class="edge"><title>Node1&#45;&gt;Node5</title>
<path fill="none" stroke="midnightblue" d="M98.7616,-184.968C120.903,-190.293 146.612,-196.476 167.417,-201.48"/>
<polygon fill="midnightblue" stroke="midnightblue" points="99.4113,-181.524 88.8701,-182.589 97.7744,-188.33 99.4113,-181.524"/>
</g>
<!-- Node6 -->
<g id="node6" class="node"><title>Node6</title>
<g id="a_node6"><a xlink:href="classjuce_1_1MixerAudioSource.html" target="_top" xlink:title="An AudioSource that mixes together the output of a set of other AudioSources. ">
<polygon fill="none" stroke="black" points="148,-163.5 148,-182.5 268,-182.5 268,-163.5 148,-163.5"/>
<text text-anchor="middle" x="208" y="-170.5" font-family="Helvetica,sans-Serif" font-size="10.00">juce::MixerAudioSource</text>
</a>
</g>
</g>
<!-- Node1&#45;&gt;Node6 -->
<g id="edge5" class="edge"><title>Node1&#45;&gt;Node6</title>
<path fill="none" stroke="midnightblue" d="M106.498,-173C119.964,-173 134.332,-173 147.868,-173"/>
<polygon fill="midnightblue" stroke="midnightblue" points="106.405,-169.5 96.4052,-173 106.405,-176.5 106.405,-169.5"/>
</g>
<!-- Node7 -->
<g id="node7" class="node"><title>Node7</title>
<g id="a_node7"><a xlink:href="classjuce_1_1PositionableAudioSource.html" target="_top" xlink:title="A type of AudioSource which can be repositioned. ">
<polygon fill="none" stroke="black" points="133.5,-125.5 133.5,-144.5 282.5,-144.5 282.5,-125.5 133.5,-125.5"/>
<text text-anchor="middle" x="208" y="-132.5" font-family="Helvetica,sans-Serif" font-size="10.00">juce::PositionableAudioSource</text>
</a>
</g>
</g>
<!-- Node1&#45;&gt;Node7 -->
<g id="edge6" class="edge"><title>Node1&#45;&gt;Node7</title>
<path fill="none" stroke="midnightblue" d="M98.7616,-161.032C120.903,-155.707 146.612,-149.524 167.417,-144.52"/>
<polygon fill="midnightblue" stroke="midnightblue" points="97.7744,-157.67 88.8701,-163.411 99.4113,-164.476 97.7744,-157.67"/>
</g>
<!-- Node11 -->
<g id="node11" class="node"><title>Node11</title>
<g id="a_node11"><a xlink:href="classjuce_1_1ResamplingAudioSource.html" target="_top" xlink:title="A type of AudioSource that takes an input source and changes its sample rate. ">
<polygon fill="none" stroke="black" points="134,-87.5 134,-106.5 282,-106.5 282,-87.5 134,-87.5"/>
<text text-anchor="middle" x="208" y="-94.5" font-family="Helvetica,sans-Serif" font-size="10.00">juce::ResamplingAudioSource</text>
</a>
</g>
</g>
<!-- Node1&#45;&gt;Node11 -->
<g id="edge10" class="edge"><title>Node1&#45;&gt;Node11</title>
<path fill="none" stroke="midnightblue" d="M68.1047,-156.949C84.2091,-144.168 108.35,-126.702 132,-116 140.322,-112.234 149.514,-109.129 158.528,-106.598"/>
<polygon fill="midnightblue" stroke="midnightblue" points="65.5978,-154.476 60.0387,-163.496 70.009,-159.912 65.5978,-154.476"/>
</g>
<!-- Node12 -->
<g id="node12" class="node"><title>Node12</title>
<g id="a_node12"><a xlink:href="classjuce_1_1ReverbAudioSource.html" target="_top" xlink:title="An AudioSource that uses the Reverb class to apply a reverb to another AudioSource. ">
<polygon fill="none" stroke="black" points="144,-49.5 144,-68.5 272,-68.5 272,-49.5 144,-49.5"/>
<text text-anchor="middle" x="208" y="-56.5" font-family="Helvetica,sans-Serif" font-size="10.00">juce::ReverbAudioSource</text>
</a>
</g>
</g>
<!-- Node1&#45;&gt;Node12 -->
<g id="edge11" class="edge"><title>Node1&#45;&gt;Node12</title>
<path fill="none" stroke="midnightblue" d="M59.8827,-154.913C73.8519,-133.284 100.13,-97.5579 132,-78 138.297,-74.136 145.349,-71.0552 152.543,-68.5996"/>
<polygon fill="midnightblue" stroke="midnightblue" points="56.8522,-153.158 54.5115,-163.491 62.7851,-156.873 56.8522,-153.158"/>
</g>
<!-- Node13 -->
<g id="node13" class="node"><title>Node13</title>
<g id="a_node13"><a xlink:href="classjuce_1_1ToneGeneratorAudioSource.html" target="_top" xlink:title="A simple AudioSource that generates a sine wave. ">
<polygon fill="none" stroke="black" points="143,-0 143,-30 273,-30 273,-0 143,-0"/>
<text text-anchor="start" x="151" y="-18" font-family="Helvetica,sans-Serif" font-size="10.00">juce::ToneGeneratorAudio</text>
<text text-anchor="middle" x="208" y="-7" font-family="Helvetica,sans-Serif" font-size="10.00">Source</text>
</a>
</g>
</g>
<!-- Node1&#45;&gt;Node13 -->
<g id="edge12" class="edge"><title>Node1&#45;&gt;Node13</title>
<path fill="none" stroke="midnightblue" d="M56.085,-153.664C67.6168,-124.813 93.1376,-70.6193 132,-40 136.851,-36.1776 142.315,-32.9266 148.025,-30.1641"/>
<polygon fill="midnightblue" stroke="midnightblue" points="52.6718,-152.789 52.3516,-163.379 59.2059,-155.3 52.6718,-152.789"/>
</g>
<!-- Node8 -->
<g id="node8" class="node"><title>Node8</title>
<g id="a_node8"><a xlink:href="classjuce_1_1AudioFormatReaderSource.html" target="_top" xlink:title="A type of AudioSource that will read from an AudioFormatReader. ">
<polygon fill="none" stroke="black" points="320,-163.5 320,-182.5 478,-182.5 478,-163.5 320,-163.5"/>
<text text-anchor="middle" x="399" y="-170.5" font-family="Helvetica,sans-Serif" font-size="10.00">juce::AudioFormatReaderSource</text>
</a>
</g>
</g>
<!-- Node7&#45;&gt;Node8 -->
<g id="edge7" class="edge"><title>Node7&#45;&gt;Node8</title>
<path fill="none" stroke="midnightblue" d="M266.742,-146.61C293.622,-152.014 325.203,-158.364 350.65,-163.48"/>
<polygon fill="midnightblue" stroke="midnightblue" points="267.186,-143.129 256.693,-144.589 265.807,-149.992 267.186,-143.129"/>
</g>
<!-- Node9 -->
<g id="node9" class="node"><title>Node9</title>
<g id="a_node9"><a xlink:href="classjuce_1_1AudioTransportSource.html" target="_top" xlink:title="An AudioSource that takes a PositionableAudioSource and allows it to be played, stopped, started, etc. ">
<polygon fill="none" stroke="black" points="330.5,-125.5 330.5,-144.5 467.5,-144.5 467.5,-125.5 330.5,-125.5"/>
<text text-anchor="middle" x="399" y="-132.5" font-family="Helvetica,sans-Serif" font-size="10.00">juce::AudioTransportSource</text>
</a>
</g>
</g>
<!-- Node7&#45;&gt;Node9 -->
<g id="edge8" class="edge"><title>Node7&#45;&gt;Node9</title>
<path fill="none" stroke="midnightblue" d="M292.674,-135C305.311,-135 318.21,-135 330.45,-135"/>
<polygon fill="midnightblue" stroke="midnightblue" points="292.614,-131.5 282.614,-135 292.613,-138.5 292.614,-131.5"/>
</g>
<!-- Node10 -->
<g id="node10" class="node"><title>Node10</title>
<g id="a_node10"><a xlink:href="classjuce_1_1BufferingAudioSource.html" target="_top" xlink:title="An AudioSource which takes another source as input, and buffers it using a thread. ">
<polygon fill="none" stroke="black" points="331.5,-87.5 331.5,-106.5 466.5,-106.5 466.5,-87.5 331.5,-87.5"/>
<text text-anchor="middle" x="399" y="-94.5" font-family="Helvetica,sans-Serif" font-size="10.00">juce::BufferingAudioSource</text>
</a>
</g>
</g>
<!-- Node7&#45;&gt;Node10 -->
<g id="edge9" class="edge"><title>Node7&#45;&gt;Node10</title>
<path fill="none" stroke="midnightblue" d="M266.742,-123.39C293.622,-117.986 325.203,-111.636 350.65,-106.52"/>
<polygon fill="midnightblue" stroke="midnightblue" points="265.807,-120.008 256.693,-125.411 267.186,-126.871 265.807,-120.008"/>
</g>
</g>
</svg>
