<?xml version="1.0" encoding="UTF-8" standalone="no"?>
<!DOCTYPE svg PUBLIC "-//W3C//DTD SVG 1.1//EN"
 "http://www.w3.org/Graphics/SVG/1.1/DTD/svg11.dtd">
<!-- Generated by graphviz version 2.36.0 (20140111.2315)
 -->
<!-- Title: juce::StandalonePluginHolder Pages: 1 -->
<svg width="235pt" height="84pt"
 viewBox="0.00 0.00 235.00 84.00" xmlns="http://www.w3.org/2000/svg" xmlns:xlink="http://www.w3.org/1999/xlink">
<g id="graph0" class="graph" transform="scale(1 1) rotate(0) translate(4 80)">
<title>juce::StandalonePluginHolder</title>
<!-- Node1 -->
<g id="node1" class="node"><title>Node1</title>
<polygon fill="#bfbfbf" stroke="black" points="60.5,-0.5 60.5,-19.5 205.5,-19.5 205.5,-0.5 60.5,-0.5"/>
<text text-anchor="middle" x="133" y="-7.5" font-family="Helvetica,sans-Serif" font-size="10.00">juce::StandalonePluginHolder</text>
</g>
<!-- Node2 -->
<g id="node2" class="node"><title>Node2</title>
<g id="a_node2"><a xlink:href="classjuce_1_1AudioIODeviceCallback.html" target="_top" xlink:title="One of these is passed to an AudioIODevice object to stream the audio data in and out...">
<polygon fill="none" stroke="black" points="-0.5,-56.5 -0.5,-75.5 144.5,-75.5 144.5,-56.5 -0.5,-56.5"/>
<text text-anchor="middle" x="72" y="-63.5" font-family="Helvetica,sans-Serif" font-size="10.00">juce::AudioIODeviceCallback</text>
</a>
</g>
</g>
<!-- Node2&#45;&gt;Node1 -->
<g id="edge1" class="edge"><title>Node2&#45;&gt;Node1</title>
<path fill="none" stroke="#8b1a1a" d="M89.4672,-49.5372C100.344,-39.9087 113.944,-27.8694 123.021,-19.8339"/>
<polygon fill="#8b1a1a" stroke="#8b1a1a" points="86.9684,-47.0749 81.8007,-56.324 91.6083,-52.3162 86.9684,-47.0749"/>
</g>
<!-- Node3 -->
<g id="node3" class="node"><title>Node3</title>
<g id="a_node3"><a xlink:href="classjuce_1_1Timer.html" target="_top" xlink:title="Makes repeated callbacks to a virtual method at a specified time interval. ">
<polygon fill="none" stroke="black" points="162.5,-56.5 162.5,-75.5 227.5,-75.5 227.5,-56.5 162.5,-56.5"/>
<text text-anchor="middle" x="195" y="-63.5" font-family="Helvetica,sans-Serif" font-size="10.00">juce::Timer</text>
</a>
</g>
</g>
<!-- Node3&#45;&gt;Node1 -->
<g id="edge2" class="edge"><title>Node3&#45;&gt;Node1</title>
<path fill="none" stroke="#8b1a1a" d="M177.246,-49.5372C166.192,-39.9087 152.369,-27.8694 143.143,-19.8339"/>
<polygon fill="#8b1a1a" stroke="#8b1a1a" points="175.199,-52.3954 185.039,-56.324 179.797,-47.1168 175.199,-52.3954"/>
</g>
</g>
</svg>
