<?xml version="1.0" encoding="UTF-8" standalone="no"?>
<!DOCTYPE svg PUBLIC "-//W3C//DTD SVG 1.1//EN"
 "http://www.w3.org/Graphics/SVG/1.1/DTD/svg11.dtd">
<!-- Generated by graphviz version 2.36.0 (20140111.2315)
 -->
<!-- Title: ApplicationCommandTarget Pages: 1 -->
<svg width="234pt" height="84pt"
 viewBox="0.00 0.00 234.00 84.00" xmlns="http://www.w3.org/2000/svg" xmlns:xlink="http://www.w3.org/1999/xlink">
<g id="graph0" class="graph" transform="scale(1 1) rotate(0) translate(4 80)">
<title>ApplicationCommandTarget</title>
<!-- Node1 -->
<g id="node1" class="node"><title>Node1</title>
<polygon fill="#bfbfbf" stroke="black" points="50.5,-56.5 50.5,-75.5 187.5,-75.5 187.5,-56.5 50.5,-56.5"/>
<text text-anchor="middle" x="119" y="-63.5" font-family="Helvetica,sans-Serif" font-size="10.00">ApplicationCommandTarget</text>
</g>
<!-- Node2 -->
<g id="node2" class="node"><title>Node2</title>
<g id="a_node2"><a xlink:href="classCodeEditorComponent.html" target="_top" xlink:title="A text editor component designed specifically for source code. ">
<polygon fill="none" stroke="black" points="0,-0.5 0,-19.5 116,-19.5 116,-0.5 0,-0.5"/>
<text text-anchor="middle" x="58" y="-7.5" font-family="Helvetica,sans-Serif" font-size="10.00">CodeEditorComponent</text>
</a>
</g>
</g>
<!-- Node1&#45;&gt;Node2 -->
<g id="edge1" class="edge"><title>Node1&#45;&gt;Node2</title>
<path fill="none" stroke="midnightblue" d="M101.533,-49.5372C90.6562,-39.9087 77.0561,-27.8694 67.979,-19.8339"/>
<polygon fill="midnightblue" stroke="midnightblue" points="99.3917,-52.3162 109.199,-56.324 104.032,-47.0749 99.3917,-52.3162"/>
</g>
<!-- Node3 -->
<g id="node3" class="node"><title>Node3</title>
<g id="a_node3"><a xlink:href="classJUCEApplication.html" target="_top" xlink:title="An instance of this class is used to specify initialisation and shutdown code for the application...">
<polygon fill="none" stroke="black" points="134,-0.5 134,-19.5 226,-19.5 226,-0.5 134,-0.5"/>
<text text-anchor="middle" x="180" y="-7.5" font-family="Helvetica,sans-Serif" font-size="10.00">JUCEApplication</text>
</a>
</g>
</g>
<!-- Node1&#45;&gt;Node3 -->
<g id="edge2" class="edge"><title>Node1&#45;&gt;Node3</title>
<path fill="none" stroke="midnightblue" d="M136.467,-49.5372C147.344,-39.9087 160.944,-27.8694 170.021,-19.8339"/>
<polygon fill="midnightblue" stroke="midnightblue" points="133.968,-47.0749 128.801,-56.324 138.608,-52.3162 133.968,-47.0749"/>
</g>
</g>
</svg>
