<?xml version="1.0" encoding="UTF-8" standalone="no"?>
<!DOCTYPE svg PUBLIC "-//W3C//DTD SVG 1.1//EN"
 "http://www.w3.org/Graphics/SVG/1.1/DTD/svg11.dtd">
<!-- Generated by graphviz version 2.36.0 (20140111.2315)
 -->
<!-- Title: AudioProcessorPlayer Pages: 1 -->
<svg width="241pt" height="84pt"
 viewBox="0.00 0.00 241.00 84.00" xmlns="http://www.w3.org/2000/svg" xmlns:xlink="http://www.w3.org/1999/xlink">
<g id="graph0" class="graph" transform="scale(1 1) rotate(0) translate(4 80)">
<title>AudioProcessorPlayer</title>
<!-- Node1 -->
<g id="node1" class="node"><title>Node1</title>
<polygon fill="#bfbfbf" stroke="black" points="66.5,-0.5 66.5,-19.5 179.5,-19.5 179.5,-0.5 66.5,-0.5"/>
<text text-anchor="middle" x="123" y="-7.5" font-family="Helvetica,sans-Serif" font-size="10.00">AudioProcessorPlayer</text>
</g>
<!-- Node2 -->
<g id="node2" class="node"><title>Node2</title>
<g id="a_node2"><a xlink:href="group__juce__audio__devices-audio__io.html#classAudioIODeviceCallback" target="_top" xlink:title="One of these is passed to an AudioIODevice object to stream the audio data in and out...">
<polygon fill="none" stroke="black" points="-0.5,-56.5 -0.5,-75.5 120.5,-75.5 120.5,-56.5 -0.5,-56.5"/>
<text text-anchor="middle" x="60" y="-63.5" font-family="Helvetica,sans-Serif" font-size="10.00">AudioIODeviceCallback</text>
</a>
</g>
</g>
<!-- Node2&#45;&gt;Node1 -->
<g id="edge1" class="edge"><title>Node2&#45;&gt;Node1</title>
<path fill="none" stroke="midnightblue" d="M78.0399,-49.5372C89.2731,-39.9087 103.319,-27.8694 112.694,-19.8339"/>
<polygon fill="midnightblue" stroke="midnightblue" points="75.4368,-47.1586 70.122,-56.324 79.9924,-52.4734 75.4368,-47.1586"/>
</g>
<!-- Node3 -->
<g id="node3" class="node"><title>Node3</title>
<g id="a_node3"><a xlink:href="group__juce__audio__devices-midi__io.html#classMidiInputCallback" target="_top" xlink:title="Receives incoming messages from a physical MIDI input device. ">
<polygon fill="none" stroke="black" points="138.5,-56.5 138.5,-75.5 233.5,-75.5 233.5,-56.5 138.5,-56.5"/>
<text text-anchor="middle" x="186" y="-63.5" font-family="Helvetica,sans-Serif" font-size="10.00">MidiInputCallback</text>
</a>
</g>
</g>
<!-- Node3&#45;&gt;Node1 -->
<g id="edge2" class="edge"><title>Node3&#45;&gt;Node1</title>
<path fill="none" stroke="midnightblue" d="M167.96,-49.5372C156.727,-39.9087 142.681,-27.8694 133.306,-19.8339"/>
<polygon fill="midnightblue" stroke="midnightblue" points="166.008,-52.4734 175.878,-56.324 170.563,-47.1586 166.008,-52.4734"/>
</g>
</g>
</svg>
