<?xml version="1.0" encoding="UTF-8" standalone="no"?>
<!DOCTYPE svg PUBLIC "-//W3C//DTD SVG 1.1//EN"
 "http://www.w3.org/Graphics/SVG/1.1/DTD/svg11.dtd">
<!-- Generated by graphviz version 2.36.0 (20140111.2315)
 -->
<!-- Title: ModalComponentManager Pages: 1 -->
<svg width="209pt" height="84pt"
 viewBox="0.00 0.00 209.00 84.00" xmlns="http://www.w3.org/2000/svg" xmlns:xlink="http://www.w3.org/1999/xlink">
<g id="graph0" class="graph" transform="scale(1 1) rotate(0) translate(4 80)">
<title>ModalComponentManager</title>
<!-- Node1 -->
<g id="node1" class="node"><title>Node1</title>
<polygon fill="#bfbfbf" stroke="black" points="28.5,-0.5 28.5,-19.5 159.5,-19.5 159.5,-0.5 28.5,-0.5"/>
<text text-anchor="middle" x="94" y="-7.5" font-family="Helvetica,sans-Serif" font-size="10.00">ModalComponentManager</text>
</g>
<!-- Node2 -->
<g id="node2" class="node"><title>Node2</title>
<g id="a_node2"><a xlink:href="classAsyncUpdater.html" target="_top" xlink:title="Has a callback method that is triggered asynchronously. ">
<polygon fill="none" stroke="black" points="-0.5,-56.5 -0.5,-75.5 78.5,-75.5 78.5,-56.5 -0.5,-56.5"/>
<text text-anchor="middle" x="39" y="-63.5" font-family="Helvetica,sans-Serif" font-size="10.00">AsyncUpdater</text>
</a>
</g>
</g>
<!-- Node2&#45;&gt;Node1 -->
<g id="edge1" class="edge"><title>Node2&#45;&gt;Node1</title>
<path fill="none" stroke="#8b1a1a" d="M55.2938,-49.0024C65.0406,-39.4329 77.053,-27.6389 85.0869,-19.7511"/>
<polygon fill="#8b1a1a" stroke="#8b1a1a" points="52.7657,-46.5796 48.0821,-56.083 57.6699,-51.5746 52.7657,-46.5796"/>
</g>
<!-- Node3 -->
<g id="node3" class="node"><title>Node3</title>
<g id="a_node3"><a xlink:href="classDeletedAtShutdown.html" target="_top" xlink:title="Classes derived from this will be automatically deleted when the application exits. ">
<polygon fill="none" stroke="black" points="97,-56.5 97,-75.5 201,-75.5 201,-56.5 97,-56.5"/>
<text text-anchor="middle" x="149" y="-63.5" font-family="Helvetica,sans-Serif" font-size="10.00">DeletedAtShutdown</text>
</a>
</g>
</g>
<!-- Node3&#45;&gt;Node1 -->
<g id="edge2" class="edge"><title>Node3&#45;&gt;Node1</title>
<path fill="none" stroke="#8b1a1a" d="M132.706,-49.0024C122.959,-39.4329 110.947,-27.6389 102.913,-19.7511"/>
<polygon fill="#8b1a1a" stroke="#8b1a1a" points="130.33,-51.5746 139.918,-56.083 135.234,-46.5796 130.33,-51.5746"/>
</g>
</g>
</svg>
