<?xml version="1.0" encoding="UTF-8" standalone="no"?>
<!DOCTYPE svg PUBLIC "-//W3C//DTD SVG 1.1//EN"
 "http://www.w3.org/Graphics/SVG/1.1/DTD/svg11.dtd">
<!-- Generated by graphviz version 2.36.0 (20140111.2315)
 -->
<!-- Title: ReferenceCountedObject Pages: 1 -->
<svg width="520pt" height="327pt"
 viewBox="0.00 0.00 520.00 327.00" xmlns="http://www.w3.org/2000/svg" xmlns:xlink="http://www.w3.org/1999/xlink">
<g id="graph0" class="graph" transform="scale(1 1) rotate(0) translate(4 323)">
<title>ReferenceCountedObject</title>
<!-- Node1 -->
<g id="node1" class="node"><title>Node1</title>
<polygon fill="#bfbfbf" stroke="black" points="0.5,-133.5 0.5,-152.5 127.5,-152.5 127.5,-133.5 0.5,-133.5"/>
<text text-anchor="middle" x="64" y="-140.5" font-family="Helvetica,sans-Serif" font-size="10.00">ReferenceCountedObject</text>
</g>
<!-- Node2 -->
<g id="node2" class="node"><title>Node2</title>
<g id="a_node2"><a xlink:href="classAudioProcessorGraph_1_1Node.html" target="_top" xlink:title="Represents one of the nodes, or processors, in an AudioProcessorGraph. ">
<polygon fill="none" stroke="black" points="189,-267 189,-297 301,-297 301,-267 189,-267"/>
<text text-anchor="start" x="197" y="-285" font-family="Helvetica,sans-Serif" font-size="10.00">AudioProcessorGraph</text>
<text text-anchor="middle" x="245" y="-274" font-family="Helvetica,sans-Serif" font-size="10.00">::Node</text>
</a>
</g>
</g>
<!-- Node1&#45;&gt;Node2 -->
<g id="edge1" class="edge"><title>Node1&#45;&gt;Node2</title>
<path fill="none" stroke="midnightblue" d="M76.0337,-161.089C92.259,-186.204 124.903,-231.424 164,-257 171.55,-261.939 180.135,-265.952 188.811,-269.198"/>
<polygon fill="midnightblue" stroke="midnightblue" points="78.9328,-159.125 70.6398,-152.531 73.0109,-162.857 78.9328,-159.125"/>
</g>
<!-- Node3 -->
<g id="node3" class="node"><title>Node3</title>
<g id="a_node3"><a xlink:href="structdsp_1_1ProcessorState.html" target="_top" xlink:title="This is a handy base class for the state of a processor (such as parameter values) which is typically...">
<polygon fill="none" stroke="black" points="192,-228.5 192,-247.5 298,-247.5 298,-228.5 192,-228.5"/>
<text text-anchor="middle" x="245" y="-235.5" font-family="Helvetica,sans-Serif" font-size="10.00">dsp::ProcessorState</text>
</a>
</g>
</g>
<!-- Node1&#45;&gt;Node3 -->
<g id="edge2" class="edge"><title>Node1&#45;&gt;Node3</title>
<path fill="none" stroke="midnightblue" d="M81.8139,-159.552C100.395,-176.916 131.955,-203.759 164,-219 172.637,-223.108 182.233,-226.367 191.694,-228.94"/>
<polygon fill="midnightblue" stroke="midnightblue" points="84.1093,-156.905 74.4578,-152.535 79.2774,-161.97 84.1093,-156.905"/>
</g>
<!-- Node7 -->
<g id="node7" class="node"><title>Node7</title>
<g id="a_node7"><a xlink:href="classDynamicObject.html" target="_top" xlink:title="Represents a dynamically implemented object. ">
<polygon fill="none" stroke="black" points="203,-190.5 203,-209.5 287,-209.5 287,-190.5 203,-190.5"/>
<text text-anchor="middle" x="245" y="-197.5" font-family="Helvetica,sans-Serif" font-size="10.00">DynamicObject</text>
</a>
</g>
</g>
<!-- Node1&#45;&gt;Node7 -->
<g id="edge6" class="edge"><title>Node1&#45;&gt;Node7</title>
<path fill="none" stroke="midnightblue" d="M96.9727,-156.519C116.18,-164.326 141.234,-173.962 164,-181 176.411,-184.837 190.107,-188.347 202.607,-191.277"/>
<polygon fill="midnightblue" stroke="midnightblue" points="98.0841,-153.192 87.5044,-152.627 95.4225,-159.666 98.0841,-153.192"/>
</g>
<!-- Node8 -->
<g id="node8" class="node"><title>Node8</title>
<g id="a_node8"><a xlink:href="classImagePixelData.html" target="_top" xlink:title="This is a base class for holding image data in implementation&#45;specific ways. ">
<polygon fill="none" stroke="black" points="202,-152.5 202,-171.5 288,-171.5 288,-152.5 202,-152.5"/>
<text text-anchor="middle" x="245" y="-159.5" font-family="Helvetica,sans-Serif" font-size="10.00">ImagePixelData</text>
</a>
</g>
</g>
<!-- Node1&#45;&gt;Node8 -->
<g id="edge7" class="edge"><title>Node1&#45;&gt;Node8</title>
<path fill="none" stroke="midnightblue" d="M137.841,-150.732C159.647,-153.046 182.82,-155.506 201.933,-157.535"/>
<polygon fill="midnightblue" stroke="midnightblue" points="137.919,-147.22 127.606,-149.645 137.18,-154.181 137.919,-147.22"/>
</g>
<!-- Node9 -->
<g id="node9" class="node"><title>Node9</title>
<g id="a_node9"><a xlink:href="classMessageManager_1_1MessageBase.html" target="_top" xlink:title="Internal class used as the base class for all message objects. ">
<polygon fill="none" stroke="black" points="164,-114.5 164,-133.5 326,-133.5 326,-114.5 164,-114.5"/>
<text text-anchor="middle" x="245" y="-121.5" font-family="Helvetica,sans-Serif" font-size="10.00">MessageManager::MessageBase</text>
</a>
</g>
</g>
<!-- Node1&#45;&gt;Node9 -->
<g id="edge8" class="edge"><title>Node1&#45;&gt;Node9</title>
<path fill="none" stroke="midnightblue" d="M137.613,-135.292C146.24,-134.377 155.085,-133.438 163.81,-132.512"/>
<polygon fill="midnightblue" stroke="midnightblue" points="137.18,-131.819 127.606,-136.355 137.919,-138.78 137.18,-131.819"/>
</g>
<!-- Node12 -->
<g id="node12" class="node"><title>Node12</title>
<g id="a_node12"><a xlink:href="classSynthesiserSound.html" target="_top" xlink:title="Describes one of the sounds that a Synthesiser can play. ">
<polygon fill="none" stroke="black" points="197,-76.5 197,-95.5 293,-95.5 293,-76.5 197,-76.5"/>
<text text-anchor="middle" x="245" y="-83.5" font-family="Helvetica,sans-Serif" font-size="10.00">SynthesiserSound</text>
</a>
</g>
</g>
<!-- Node1&#45;&gt;Node12 -->
<g id="edge11" class="edge"><title>Node1&#45;&gt;Node12</title>
<path fill="none" stroke="midnightblue" d="M96.9727,-129.481C116.18,-121.674 141.234,-112.038 164,-105 175.32,-101.5 187.709,-98.2728 199.284,-95.5087"/>
<polygon fill="midnightblue" stroke="midnightblue" points="95.4225,-126.334 87.5044,-133.373 98.0841,-132.808 95.4225,-126.334"/>
</g>
<!-- Node14 -->
<g id="node14" class="node"><title>Node14</title>
<g id="a_node14"><a xlink:href="classTypeface.html" target="_top" xlink:title="A typeface represents a size&#45;independent font. ">
<polygon fill="none" stroke="black" points="216.5,-38.5 216.5,-57.5 273.5,-57.5 273.5,-38.5 216.5,-38.5"/>
<text text-anchor="middle" x="245" y="-45.5" font-family="Helvetica,sans-Serif" font-size="10.00">Typeface</text>
</a>
</g>
</g>
<!-- Node1&#45;&gt;Node14 -->
<g id="edge13" class="edge"><title>Node1&#45;&gt;Node14</title>
<path fill="none" stroke="midnightblue" d="M81.8139,-126.448C100.395,-109.084 131.955,-82.241 164,-67 180.501,-59.1519 200.501,-54.4019 216.376,-51.6139"/>
<polygon fill="midnightblue" stroke="midnightblue" points="79.2774,-124.03 74.4578,-133.465 84.1093,-129.095 79.2774,-124.03"/>
</g>
<!-- Node16 -->
<g id="node16" class="node"><title>Node16</title>
<g id="a_node16"><a xlink:href="classValue_1_1ValueSource.html" target="_top" xlink:title="Used internally by the Value class as the base class for its shared value objects. ">
<polygon fill="none" stroke="black" points="193.5,-0.5 193.5,-19.5 296.5,-19.5 296.5,-0.5 193.5,-0.5"/>
<text text-anchor="middle" x="245" y="-7.5" font-family="Helvetica,sans-Serif" font-size="10.00">Value::ValueSource</text>
</a>
</g>
</g>
<!-- Node1&#45;&gt;Node16 -->
<g id="edge15" class="edge"><title>Node1&#45;&gt;Node16</title>
<path fill="none" stroke="midnightblue" d="M75.7935,-124.529C91.732,-98.9593 124.035,-53.198 164,-29 172.914,-23.6026 183.25,-19.7384 193.471,-16.9719"/>
<polygon fill="midnightblue" stroke="midnightblue" points="72.6956,-122.888 70.5043,-133.254 78.6815,-126.517 72.6956,-122.888"/>
</g>
<!-- Node4 -->
<g id="node4" class="node"><title>Node4</title>
<g id="a_node4"><a xlink:href="structdsp_1_1FIR_1_1Coefficients.html" target="_top" xlink:title="A set of coefficients for use in an FIRFilter object. ">
<polygon fill="none" stroke="black" points="380.5,-289 380.5,-319 493.5,-319 493.5,-289 380.5,-289"/>
<text text-anchor="start" x="388.5" y="-307" font-family="Helvetica,sans-Serif" font-size="10.00">dsp::FIR::Coefficients</text>
<text text-anchor="middle" x="437" y="-296" font-family="Helvetica,sans-Serif" font-size="10.00">&lt; NumericType &gt;</text>
</a>
</g>
</g>
<!-- Node3&#45;&gt;Node4 -->
<g id="edge3" class="edge"><title>Node3&#45;&gt;Node4</title>
<path fill="none" stroke="midnightblue" d="M303.388,-250.245C311.1,-252.498 318.821,-255.078 326,-258 343.157,-264.983 345.139,-271.33 362,-279 369.9,-282.594 378.475,-285.953 386.893,-288.971"/>
<polygon fill="midnightblue" stroke="midnightblue" points="304.236,-246.848 293.666,-247.565 302.376,-253.596 304.236,-246.848"/>
</g>
<!-- Node5 -->
<g id="node5" class="node"><title>Node5</title>
<g id="a_node5"><a xlink:href="structdsp_1_1IIR_1_1Coefficients.html" target="_top" xlink:title="A set of coefficients for use in an Filter object. ">
<polygon fill="none" stroke="black" points="382,-240 382,-270 492,-270 492,-240 382,-240"/>
<text text-anchor="start" x="390" y="-258" font-family="Helvetica,sans-Serif" font-size="10.00">dsp::IIR::Coefficients</text>
<text text-anchor="middle" x="437" y="-247" font-family="Helvetica,sans-Serif" font-size="10.00">&lt; NumericType &gt;</text>
</a>
</g>
</g>
<!-- Node3&#45;&gt;Node5 -->
<g id="edge4" class="edge"><title>Node3&#45;&gt;Node5</title>
<path fill="none" stroke="midnightblue" d="M308.167,-243.562C331.991,-245.694 358.957,-248.107 381.96,-250.165"/>
<polygon fill="midnightblue" stroke="midnightblue" points="308.442,-240.073 298.17,-242.668 307.818,-247.045 308.442,-240.073"/>
</g>
<!-- Node6 -->
<g id="node6" class="node"><title>Node6</title>
<g id="a_node6"><a xlink:href="structdsp_1_1StateVariableFilter_1_1Parameters.html" target="_top" xlink:title="dsp::StateVariableFilter\l::Parameters\&lt; NumericType \&gt;">
<polygon fill="none" stroke="black" points="362.5,-191 362.5,-221 511.5,-221 511.5,-191 362.5,-191"/>
<text text-anchor="start" x="370.5" y="-209" font-family="Helvetica,sans-Serif" font-size="10.00">dsp::StateVariableFilter</text>
<text text-anchor="middle" x="437" y="-198" font-family="Helvetica,sans-Serif" font-size="10.00">::Parameters&lt; NumericType &gt;</text>
</a>
</g>
</g>
<!-- Node3&#45;&gt;Node6 -->
<g id="edge5" class="edge"><title>Node3&#45;&gt;Node6</title>
<path fill="none" stroke="midnightblue" d="M308.135,-227.535C325.419,-224.624 344.36,-221.434 362.241,-218.422"/>
<polygon fill="midnightblue" stroke="midnightblue" points="307.449,-224.101 298.17,-229.214 308.612,-231.004 307.449,-224.101"/>
</g>
<!-- Node10 -->
<g id="node10" class="node"><title>Node10</title>
<g id="a_node10"><a xlink:href="classCallbackMessage.html" target="_top" xlink:title="A message that invokes a callback method when it gets delivered. ">
<polygon fill="none" stroke="black" points="389.5,-152.5 389.5,-171.5 484.5,-171.5 484.5,-152.5 389.5,-152.5"/>
<text text-anchor="middle" x="437" y="-159.5" font-family="Helvetica,sans-Serif" font-size="10.00">CallbackMessage</text>
</a>
</g>
</g>
<!-- Node9&#45;&gt;Node10 -->
<g id="edge9" class="edge"><title>Node9&#45;&gt;Node10</title>
<path fill="none" stroke="midnightblue" d="M303.805,-135.561C331.227,-141.045 363.559,-147.512 389.384,-152.677"/>
<polygon fill="midnightblue" stroke="midnightblue" points="304.437,-132.118 293.945,-133.589 303.064,-138.982 304.437,-132.118"/>
</g>
<!-- Node11 -->
<g id="node11" class="node"><title>Node11</title>
<g id="a_node11"><a xlink:href="classMessage.html" target="_top" xlink:title="The base class for objects that can be sent to a MessageListener. ">
<polygon fill="none" stroke="black" points="409,-114.5 409,-133.5 465,-133.5 465,-114.5 409,-114.5"/>
<text text-anchor="middle" x="437" y="-121.5" font-family="Helvetica,sans-Serif" font-size="10.00">Message</text>
</a>
</g>
</g>
<!-- Node9&#45;&gt;Node11 -->
<g id="edge10" class="edge"><title>Node9&#45;&gt;Node11</title>
<path fill="none" stroke="midnightblue" d="M336.15,-124C362.674,-124 389.703,-124 408.938,-124"/>
<polygon fill="midnightblue" stroke="midnightblue" points="336.026,-120.5 326.026,-124 336.026,-127.5 336.026,-120.5"/>
</g>
<!-- Node13 -->
<g id="node13" class="node"><title>Node13</title>
<g id="a_node13"><a xlink:href="classSamplerSound.html" target="_top" xlink:title="A subclass of SynthesiserSound that represents a sampled audio clip. ">
<polygon fill="none" stroke="black" points="397,-76.5 397,-95.5 477,-95.5 477,-76.5 397,-76.5"/>
<text text-anchor="middle" x="437" y="-83.5" font-family="Helvetica,sans-Serif" font-size="10.00">SamplerSound</text>
</a>
</g>
</g>
<!-- Node12&#45;&gt;Node13 -->
<g id="edge12" class="edge"><title>Node12&#45;&gt;Node13</title>
<path fill="none" stroke="midnightblue" d="M303.837,-86C333.956,-86 369.991,-86 396.821,-86"/>
<polygon fill="midnightblue" stroke="midnightblue" points="303.455,-82.5001 293.455,-86 303.455,-89.5001 303.455,-82.5001"/>
</g>
<!-- Node15 -->
<g id="node15" class="node"><title>Node15</title>
<g id="a_node15"><a xlink:href="classCustomTypeface.html" target="_top" xlink:title="A typeface that can be populated with custom glyphs. ">
<polygon fill="none" stroke="black" points="391,-38.5 391,-57.5 483,-57.5 483,-38.5 391,-38.5"/>
<text text-anchor="middle" x="437" y="-45.5" font-family="Helvetica,sans-Serif" font-size="10.00">CustomTypeface</text>
</a>
</g>
</g>
<!-- Node14&#45;&gt;Node15 -->
<g id="edge14" class="edge"><title>Node14&#45;&gt;Node15</title>
<path fill="none" stroke="midnightblue" d="M283.938,-48C314.689,-48 358.113,-48 390.688,-48"/>
<polygon fill="midnightblue" stroke="midnightblue" points="283.628,-44.5001 273.628,-48 283.628,-51.5001 283.628,-44.5001"/>
</g>
</g>
</svg>
