<?xml version="1.0" encoding="UTF-8" standalone="no"?>
<!DOCTYPE svg PUBLIC "-//W3C//DTD SVG 1.1//EN"
 "http://www.w3.org/Graphics/SVG/1.1/DTD/svg11.dtd">
<!-- Generated by graphviz version 2.36.0 (20140111.2315)
 -->
<!-- Title: BubbleMessageComponent Pages: 1 -->
<svg width="167pt" height="196pt"
 viewBox="0.00 0.00 167.00 196.00" xmlns="http://www.w3.org/2000/svg" xmlns:xlink="http://www.w3.org/1999/xlink">
<g id="graph0" class="graph" transform="scale(1 1) rotate(0) translate(4 192)">
<title>BubbleMessageComponent</title>
<!-- Node1 -->
<g id="node1" class="node"><title>Node1</title>
<polygon fill="#bfbfbf" stroke="black" points="22.5,-0.5 22.5,-19.5 159.5,-19.5 159.5,-0.5 22.5,-0.5"/>
<text text-anchor="middle" x="91" y="-7.5" font-family="Helvetica,sans-Serif" font-size="10.00">BubbleMessageComponent</text>
</g>
<!-- Node2 -->
<g id="node2" class="node"><title>Node2</title>
<g id="a_node2"><a xlink:href="group__juce__gui__basics-misc.html#classBubbleComponent" target="_top" xlink:title="A component for showing a message or other graphics inside a speech&#45;bubble&#45;shaped outline...">
<polygon fill="none" stroke="black" points="-0.5,-56.5 -0.5,-75.5 96.5,-75.5 96.5,-56.5 -0.5,-56.5"/>
<text text-anchor="middle" x="48" y="-63.5" font-family="Helvetica,sans-Serif" font-size="10.00">BubbleComponent</text>
</a>
</g>
</g>
<!-- Node2&#45;&gt;Node1 -->
<g id="edge1" class="edge"><title>Node2&#45;&gt;Node1</title>
<path fill="none" stroke="midnightblue" d="M61.4224,-48.144C68.9142,-38.7357 77.9371,-27.4046 84.0315,-19.7511"/>
<polygon fill="midnightblue" stroke="midnightblue" points="58.5919,-46.0799 55.1006,-56.083 64.0679,-50.4404 58.5919,-46.0799"/>
</g>
<!-- Node3 -->
<g id="node3" class="node"><title>Node3</title>
<g id="a_node3"><a xlink:href="group__juce__gui__basics-components.html#classComponent" target="_top" xlink:title="The base class for all JUCE user&#45;interface objects. ">
<polygon fill="none" stroke="black" points="14.5,-112.5 14.5,-131.5 81.5,-131.5 81.5,-112.5 14.5,-112.5"/>
<text text-anchor="middle" x="48" y="-119.5" font-family="Helvetica,sans-Serif" font-size="10.00">Component</text>
</a>
</g>
</g>
<!-- Node3&#45;&gt;Node2 -->
<g id="edge2" class="edge"><title>Node3&#45;&gt;Node2</title>
<path fill="none" stroke="midnightblue" d="M48,-101.805C48,-92.9102 48,-82.7798 48,-75.7511"/>
<polygon fill="midnightblue" stroke="midnightblue" points="44.5001,-102.083 48,-112.083 51.5001,-102.083 44.5001,-102.083"/>
</g>
<!-- Node4 -->
<g id="node4" class="node"><title>Node4</title>
<g id="a_node4"><a xlink:href="group__juce__gui__basics-mouse.html#classMouseListener" target="_top" xlink:title="A MouseListener can be registered with a component to receive callbacks about mouse events that happe...">
<polygon fill="none" stroke="black" points="8,-168.5 8,-187.5 88,-187.5 88,-168.5 8,-168.5"/>
<text text-anchor="middle" x="48" y="-175.5" font-family="Helvetica,sans-Serif" font-size="10.00">MouseListener</text>
</a>
</g>
</g>
<!-- Node4&#45;&gt;Node3 -->
<g id="edge3" class="edge"><title>Node4&#45;&gt;Node3</title>
<path fill="none" stroke="midnightblue" d="M48,-157.805C48,-148.91 48,-138.78 48,-131.751"/>
<polygon fill="midnightblue" stroke="midnightblue" points="44.5001,-158.083 48,-168.083 51.5001,-158.083 44.5001,-158.083"/>
</g>
<!-- Node5 -->
<g id="node5" class="node"><title>Node5</title>
<g id="a_node5"><a xlink:href="group__juce__events-timers.html#classTimer" target="_top" xlink:title="Makes repeated callbacks to a virtual method at a specified time interval. ">
<polygon fill="none" stroke="black" points="114.5,-56.5 114.5,-75.5 155.5,-75.5 155.5,-56.5 114.5,-56.5"/>
<text text-anchor="middle" x="135" y="-63.5" font-family="Helvetica,sans-Serif" font-size="10.00">Timer</text>
</a>
</g>
</g>
<!-- Node5&#45;&gt;Node1 -->
<g id="edge4" class="edge"><title>Node5&#45;&gt;Node1</title>
<path fill="none" stroke="#8b1a1a" d="M121.265,-48.144C113.599,-38.7357 104.367,-27.4046 98.1305,-19.7511"/>
<polygon fill="#8b1a1a" stroke="#8b1a1a" points="118.704,-50.5415 127.734,-56.083 124.131,-46.1198 118.704,-50.5415"/>
</g>
</g>
</svg>
