<?xml version="1.0" encoding="UTF-8" standalone="no"?>
<!DOCTYPE svg PUBLIC "-//W3C//DTD SVG 1.1//EN"
 "http://www.w3.org/Graphics/SVG/1.1/DTD/svg11.dtd">
<!-- Generated by graphviz version 2.36.0 (20140111.2315)
 -->
<!-- Title: ImageType Pages: 1 -->
<svg width="344pt" height="84pt"
 viewBox="0.00 0.00 344.00 84.00" xmlns="http://www.w3.org/2000/svg" xmlns:xlink="http://www.w3.org/1999/xlink">
<g id="graph0" class="graph" transform="scale(1 1) rotate(0) translate(4 80)">
<title>ImageType</title>
<!-- Node1 -->
<g id="node1" class="node"><title>Node1</title>
<polygon fill="#bfbfbf" stroke="black" points="130.5,-56.5 130.5,-75.5 195.5,-75.5 195.5,-56.5 130.5,-56.5"/>
<text text-anchor="middle" x="163" y="-63.5" font-family="Helvetica,sans-Serif" font-size="10.00">ImageType</text>
</g>
<!-- Node2 -->
<g id="node2" class="node"><title>Node2</title>
<g id="a_node2"><a xlink:href="group__juce__graphics-images.html#classNativeImageType" target="_top" xlink:title="An image storage type which holds the pixels using whatever is the default storage format on the curr...">
<polygon fill="none" stroke="black" points="0,-0.5 0,-19.5 94,-19.5 94,-0.5 0,-0.5"/>
<text text-anchor="middle" x="47" y="-7.5" font-family="Helvetica,sans-Serif" font-size="10.00">NativeImageType</text>
</a>
</g>
</g>
<!-- Node1&#45;&gt;Node2 -->
<g id="edge1" class="edge"><title>Node1&#45;&gt;Node2</title>
<path fill="none" stroke="midnightblue" d="M135.28,-52.096C113.608,-42.0073 84.0979,-28.2697 65.2946,-19.5164"/>
<polygon fill="midnightblue" stroke="midnightblue" points="134.077,-55.3962 144.619,-56.4435 137.031,-49.0501 134.077,-55.3962"/>
</g>
<!-- Node3 -->
<g id="node3" class="node"><title>Node3</title>
<g id="a_node3"><a xlink:href="group__juce__opengl-opengl.html#classOpenGLImageType" target="_top" xlink:title="A type of ImagePixelData that stores its image data in an OpenGL framebuffer, allowing a JUCE Image o...">
<polygon fill="none" stroke="black" points="112.5,-0.5 112.5,-19.5 213.5,-19.5 213.5,-0.5 112.5,-0.5"/>
<text text-anchor="middle" x="163" y="-7.5" font-family="Helvetica,sans-Serif" font-size="10.00">OpenGLImageType</text>
</a>
</g>
</g>
<!-- Node1&#45;&gt;Node3 -->
<g id="edge2" class="edge"><title>Node1&#45;&gt;Node3</title>
<path fill="none" stroke="midnightblue" d="M163,-45.8045C163,-36.9102 163,-26.7798 163,-19.7511"/>
<polygon fill="midnightblue" stroke="midnightblue" points="159.5,-46.083 163,-56.083 166.5,-46.083 159.5,-46.083"/>
</g>
<!-- Node4 -->
<g id="node4" class="node"><title>Node4</title>
<g id="a_node4"><a xlink:href="group__juce__graphics-images.html#classSoftwareImageType" target="_top" xlink:title="An image storage type which holds the pixels in&#45;memory as a simple block of values. ">
<polygon fill="none" stroke="black" points="232,-0.5 232,-19.5 336,-19.5 336,-0.5 232,-0.5"/>
<text text-anchor="middle" x="284" y="-7.5" font-family="Helvetica,sans-Serif" font-size="10.00">SoftwareImageType</text>
</a>
</g>
</g>
<!-- Node1&#45;&gt;Node4 -->
<g id="edge3" class="edge"><title>Node1&#45;&gt;Node4</title>
<path fill="none" stroke="midnightblue" d="M191.306,-52.3678C213.965,-42.2553 245.126,-28.3486 264.917,-19.5164"/>
<polygon fill="midnightblue" stroke="midnightblue" points="189.878,-49.1719 182.173,-56.4435 192.731,-55.5643 189.878,-49.1719"/>
</g>
</g>
</svg>
