<?xml version="1.0" encoding="UTF-8" standalone="no"?>
<!DOCTYPE svg PUBLIC "-//W3C//DTD SVG 1.1//EN"
 "http://www.w3.org/Graphics/SVG/1.1/DTD/svg11.dtd">
<!-- Generated by graphviz version 2.36.0 (20140111.2315)
 -->
<!-- Title: juce::AudioFormat Pages: 1 -->
<svg width="304pt" height="294pt"
 viewBox="0.00 0.00 304.00 294.00" xmlns="http://www.w3.org/2000/svg" xmlns:xlink="http://www.w3.org/1999/xlink">
<g id="graph0" class="graph" transform="scale(1 1) rotate(0) translate(4 290)">
<title>juce::AudioFormat</title>
<!-- Node1 -->
<g id="node1" class="node"><title>Node1</title>
<polygon fill="#bfbfbf" stroke="black" points="0,-133.5 0,-152.5 96,-152.5 96,-133.5 0,-133.5"/>
<text text-anchor="middle" x="48" y="-140.5" font-family="Helvetica,sans-Serif" font-size="10.00">juce::AudioFormat</text>
</g>
<!-- Node2 -->
<g id="node2" class="node"><title>Node2</title>
<g id="a_node2"><a xlink:href="classjuce_1_1AiffAudioFormat.html" target="_top" xlink:title="Reads and Writes AIFF format audio files. ">
<polygon fill="none" stroke="black" points="158.5,-266.5 158.5,-285.5 269.5,-285.5 269.5,-266.5 158.5,-266.5"/>
<text text-anchor="middle" x="214" y="-273.5" font-family="Helvetica,sans-Serif" font-size="10.00">juce::AiffAudioFormat</text>
</a>
</g>
</g>
<!-- Node1&#45;&gt;Node2 -->
<g id="edge1" class="edge"><title>Node1&#45;&gt;Node2</title>
<path fill="none" stroke="midnightblue" d="M57.4251,-161.829C69.9093,-187.486 95.8049,-232.978 132,-257 139.823,-262.192 148.895,-265.972 158.078,-268.723"/>
<polygon fill="midnightblue" stroke="midnightblue" points="60.5852,-160.324 53.1697,-152.757 54.2477,-163.297 60.5852,-160.324"/>
</g>
<!-- Node3 -->
<g id="node3" class="node"><title>Node3</title>
<g id="a_node3"><a xlink:href="classjuce_1_1CoreAudioFormat.html" target="_top" xlink:title="OSX and iOS only &#45; This uses the AudioToolbox framework to read any audio format that the system has ...">
<polygon fill="none" stroke="black" points="155.5,-228.5 155.5,-247.5 272.5,-247.5 272.5,-228.5 155.5,-228.5"/>
<text text-anchor="middle" x="214" y="-235.5" font-family="Helvetica,sans-Serif" font-size="10.00">juce::CoreAudioFormat</text>
</a>
</g>
</g>
<!-- Node1&#45;&gt;Node3 -->
<g id="edge2" class="edge"><title>Node1&#45;&gt;Node3</title>
<path fill="none" stroke="midnightblue" d="M63.1563,-160.378C78.3482,-177.854 104.088,-204.258 132,-219 139.28,-222.845 147.334,-225.92 155.456,-228.376"/>
<polygon fill="midnightblue" stroke="midnightblue" points="65.7131,-157.982 56.5825,-152.607 60.3688,-162.502 65.7131,-157.982"/>
</g>
<!-- Node4 -->
<g id="node4" class="node"><title>Node4</title>
<g id="a_node4"><a xlink:href="classjuce_1_1FlacAudioFormat.html" target="_top" xlink:title="Reads and writes the lossless&#45;compression FLAC audio format. ">
<polygon fill="none" stroke="black" points="156.5,-190.5 156.5,-209.5 271.5,-209.5 271.5,-190.5 156.5,-190.5"/>
<text text-anchor="middle" x="214" y="-197.5" font-family="Helvetica,sans-Serif" font-size="10.00">juce::FlacAudioFormat</text>
</a>
</g>
</g>
<!-- Node1&#45;&gt;Node4 -->
<g id="edge3" class="edge"><title>Node1&#45;&gt;Node4</title>
<path fill="none" stroke="midnightblue" d="M76.2815,-157.158C92.2101,-164.999 112.878,-174.453 132,-181 142.522,-184.603 154.043,-187.757 165.009,-190.407"/>
<polygon fill="midnightblue" stroke="midnightblue" points="77.5411,-153.875 67.0325,-152.525 74.4061,-160.133 77.5411,-153.875"/>
</g>
<!-- Node5 -->
<g id="node5" class="node"><title>Node5</title>
<g id="a_node5"><a xlink:href="classjuce_1_1LAMEEncoderAudioFormat.html" target="_top" xlink:title="An AudioFormat class which can use an installed version of the LAME mp3 encoder to encode a file...">
<polygon fill="none" stroke="black" points="134.5,-152.5 134.5,-171.5 293.5,-171.5 293.5,-152.5 134.5,-152.5"/>
<text text-anchor="middle" x="214" y="-159.5" font-family="Helvetica,sans-Serif" font-size="10.00">juce::LAMEEncoderAudioFormat</text>
</a>
</g>
</g>
<!-- Node1&#45;&gt;Node5 -->
<g id="edge4" class="edge"><title>Node1&#45;&gt;Node5</title>
<path fill="none" stroke="midnightblue" d="M106.454,-149.656C115.517,-150.706 125.021,-151.807 134.464,-152.901"/>
<polygon fill="midnightblue" stroke="midnightblue" points="106.772,-146.17 96.4356,-148.496 105.966,-153.123 106.772,-146.17"/>
</g>
<!-- Node6 -->
<g id="node6" class="node"><title>Node6</title>
<g id="a_node6"><a xlink:href="classjuce_1_1MP3AudioFormat.html" target="_top" xlink:title="Software&#45;based MP3 decoding format (doesn&#39;t currently provide an encoder). ">
<polygon fill="none" stroke="black" points="156,-114.5 156,-133.5 272,-133.5 272,-114.5 156,-114.5"/>
<text text-anchor="middle" x="214" y="-121.5" font-family="Helvetica,sans-Serif" font-size="10.00">juce::MP3AudioFormat</text>
</a>
</g>
</g>
<!-- Node1&#45;&gt;Node6 -->
<g id="edge5" class="edge"><title>Node1&#45;&gt;Node6</title>
<path fill="none" stroke="midnightblue" d="M106.682,-136.317C122.612,-134.472 139.889,-132.47 155.792,-130.628"/>
<polygon fill="midnightblue" stroke="midnightblue" points="105.966,-132.877 96.4356,-137.504 106.772,-139.83 105.966,-132.877"/>
</g>
<!-- Node7 -->
<g id="node7" class="node"><title>Node7</title>
<g id="a_node7"><a xlink:href="classjuce_1_1OggVorbisAudioFormat.html" target="_top" xlink:title="Reads and writes the Ogg&#45;Vorbis audio format. ">
<polygon fill="none" stroke="black" points="143,-76.5 143,-95.5 285,-95.5 285,-76.5 143,-76.5"/>
<text text-anchor="middle" x="214" y="-83.5" font-family="Helvetica,sans-Serif" font-size="10.00">juce::OggVorbisAudioFormat</text>
</a>
</g>
</g>
<!-- Node1&#45;&gt;Node7 -->
<g id="edge6" class="edge"><title>Node1&#45;&gt;Node7</title>
<path fill="none" stroke="midnightblue" d="M76.2815,-128.842C92.2101,-121.001 112.878,-111.547 132,-105 142.522,-101.397 154.043,-98.2429 165.009,-95.5931"/>
<polygon fill="midnightblue" stroke="midnightblue" points="74.4061,-125.867 67.0325,-133.475 77.5411,-132.125 74.4061,-125.867"/>
</g>
<!-- Node8 -->
<g id="node8" class="node"><title>Node8</title>
<g id="a_node8"><a xlink:href="classjuce_1_1WavAudioFormat.html" target="_top" xlink:title="Reads and Writes WAV format audio files. ">
<polygon fill="none" stroke="black" points="156,-38.5 156,-57.5 272,-57.5 272,-38.5 156,-38.5"/>
<text text-anchor="middle" x="214" y="-45.5" font-family="Helvetica,sans-Serif" font-size="10.00">juce::WavAudioFormat</text>
</a>
</g>
</g>
<!-- Node1&#45;&gt;Node8 -->
<g id="edge7" class="edge"><title>Node1&#45;&gt;Node8</title>
<path fill="none" stroke="midnightblue" d="M63.1563,-125.622C78.3482,-108.146 104.088,-81.7416 132,-67 139.408,-63.0876 147.617,-59.9727 155.884,-57.4948"/>
<polygon fill="midnightblue" stroke="midnightblue" points="60.3688,-123.498 56.5825,-133.393 65.7131,-128.018 60.3688,-123.498"/>
</g>
<!-- Node9 -->
<g id="node9" class="node"><title>Node9</title>
<g id="a_node9"><a xlink:href="classjuce_1_1WindowsMediaAudioFormat.html" target="_top" xlink:title="Audio format which uses the Windows Media codecs (Windows only). ">
<polygon fill="none" stroke="black" points="132.5,-0.5 132.5,-19.5 295.5,-19.5 295.5,-0.5 132.5,-0.5"/>
<text text-anchor="middle" x="214" y="-7.5" font-family="Helvetica,sans-Serif" font-size="10.00">juce::WindowsMediaAudioFormat</text>
</a>
</g>
</g>
<!-- Node1&#45;&gt;Node9 -->
<g id="edge8" class="edge"><title>Node1&#45;&gt;Node9</title>
<path fill="none" stroke="midnightblue" d="M57.4251,-124.171C69.9093,-98.5142 95.8049,-53.0224 132,-29 137.897,-25.0862 144.504,-21.9745 151.334,-19.5013"/>
<polygon fill="midnightblue" stroke="midnightblue" points="54.2477,-122.703 53.1697,-133.243 60.5852,-125.676 54.2477,-122.703"/>
</g>
</g>
</svg>
