<?xml version="1.0" encoding="UTF-8" standalone="no"?>
<!DOCTYPE svg PUBLIC "-//W3C//DTD SVG 1.1//EN"
 "http://www.w3.org/Graphics/SVG/1.1/DTD/svg11.dtd">
<!-- Generated by graphviz version 2.36.0 (20140111.2315)
 -->
<!-- Title: juce::TopologySource Pages: 1 -->
<svg width="333pt" height="84pt"
 viewBox="0.00 0.00 333.00 84.00" xmlns="http://www.w3.org/2000/svg" xmlns:xlink="http://www.w3.org/1999/xlink">
<g id="graph0" class="graph" transform="scale(1 1) rotate(0) translate(4 80)">
<title>juce::TopologySource</title>
<!-- Node1 -->
<g id="node1" class="node"><title>Node1</title>
<polygon fill="#bfbfbf" stroke="black" points="104.5,-56.5 104.5,-75.5 215.5,-75.5 215.5,-56.5 104.5,-56.5"/>
<text text-anchor="middle" x="160" y="-63.5" font-family="Helvetica,sans-Serif" font-size="10.00">juce::TopologySource</text>
</g>
<!-- Node2 -->
<g id="node2" class="node"><title>Node2</title>
<g id="a_node2"><a xlink:href="classjuce_1_1PhysicalTopologySource.html" target="_top" xlink:title="This topology source manages the topology of the physical Blocks devices that are currently connected...">
<polygon fill="none" stroke="black" points="-0.5,-0.5 -0.5,-19.5 148.5,-19.5 148.5,-0.5 -0.5,-0.5"/>
<text text-anchor="middle" x="74" y="-7.5" font-family="Helvetica,sans-Serif" font-size="10.00">juce::PhysicalTopologySource</text>
</a>
</g>
</g>
<!-- Node1&#45;&gt;Node2 -->
<g id="edge1" class="edge"><title>Node1&#45;&gt;Node2</title>
<path fill="none" stroke="midnightblue" d="M137.545,-50.9005C121.776,-40.9986 101.186,-28.0705 87.7831,-19.6545"/>
<polygon fill="midnightblue" stroke="midnightblue" points="135.852,-53.9704 146.183,-56.324 139.575,-48.0421 135.852,-53.9704"/>
</g>
<!-- Node3 -->
<g id="node3" class="node"><title>Node3</title>
<g id="a_node3"><a xlink:href="classjuce_1_1RuleBasedTopologySource.html" target="_top" xlink:title="This topology source holds and applies a set of rules for transforming one device topology into anoth...">
<polygon fill="none" stroke="black" points="166.5,-0.5 166.5,-19.5 325.5,-19.5 325.5,-0.5 166.5,-0.5"/>
<text text-anchor="middle" x="246" y="-7.5" font-family="Helvetica,sans-Serif" font-size="10.00">juce::RuleBasedTopologySource</text>
</a>
</g>
</g>
<!-- Node1&#45;&gt;Node3 -->
<g id="edge2" class="edge"><title>Node1&#45;&gt;Node3</title>
<path fill="none" stroke="midnightblue" d="M182.455,-50.9005C198.224,-40.9986 218.814,-28.0705 232.217,-19.6545"/>
<polygon fill="midnightblue" stroke="midnightblue" points="180.425,-48.0421 173.817,-56.324 184.148,-53.9704 180.425,-48.0421"/>
</g>
</g>
</svg>
