<?xml version="1.0" encoding="UTF-8" standalone="no"?>
<!DOCTYPE svg PUBLIC "-//W3C//DTD SVG 1.1//EN"
 "http://www.w3.org/Graphics/SVG/1.1/DTD/svg11.dtd">
<!-- Generated by graphviz version 2.36.0 (20140111.2315)
 -->
<!-- Title: juce::ModalComponentManager Pages: 1 -->
<svg width="257pt" height="84pt"
 viewBox="0.00 0.00 257.00 84.00" xmlns="http://www.w3.org/2000/svg" xmlns:xlink="http://www.w3.org/1999/xlink">
<g id="graph0" class="graph" transform="scale(1 1) rotate(0) translate(4 80)">
<title>juce::ModalComponentManager</title>
<!-- Node1 -->
<g id="node1" class="node"><title>Node1</title>
<polygon fill="#bfbfbf" stroke="black" points="40.5,-0.5 40.5,-19.5 195.5,-19.5 195.5,-0.5 40.5,-0.5"/>
<text text-anchor="middle" x="118" y="-7.5" font-family="Helvetica,sans-Serif" font-size="10.00">juce::ModalComponentManager</text>
</g>
<!-- Node2 -->
<g id="node2" class="node"><title>Node2</title>
<g id="a_node2"><a xlink:href="classjuce_1_1AsyncUpdater.html" target="_top" xlink:title="Has a callback method that is triggered asynchronously. ">
<polygon fill="none" stroke="black" points="-0.5,-56.5 -0.5,-75.5 102.5,-75.5 102.5,-56.5 -0.5,-56.5"/>
<text text-anchor="middle" x="51" y="-63.5" font-family="Helvetica,sans-Serif" font-size="10.00">juce::AsyncUpdater</text>
</a>
</g>
</g>
<!-- Node2&#45;&gt;Node1 -->
<g id="edge1" class="edge"><title>Node2&#45;&gt;Node1</title>
<path fill="none" stroke="#8b1a1a" d="M69.8348,-49.8197C81.8384,-40.1452 96.9717,-27.9481 107.039,-19.8339"/>
<polygon fill="#8b1a1a" stroke="#8b1a1a" points="67.3543,-47.3236 61.7647,-56.324 71.747,-52.7738 67.3543,-47.3236"/>
</g>
<!-- Node3 -->
<g id="node3" class="node"><title>Node3</title>
<g id="a_node3"><a xlink:href="classjuce_1_1DeletedAtShutdown.html" target="_top" xlink:title="Classes derived from this will be automatically deleted when the application exits. ">
<polygon fill="none" stroke="black" points="121,-56.5 121,-75.5 249,-75.5 249,-56.5 121,-56.5"/>
<text text-anchor="middle" x="185" y="-63.5" font-family="Helvetica,sans-Serif" font-size="10.00">juce::DeletedAtShutdown</text>
</a>
</g>
</g>
<!-- Node3&#45;&gt;Node1 -->
<g id="edge2" class="edge"><title>Node3&#45;&gt;Node1</title>
<path fill="none" stroke="#8b1a1a" d="M166.165,-49.8197C154.162,-40.1452 139.028,-27.9481 128.961,-19.8339"/>
<polygon fill="#8b1a1a" stroke="#8b1a1a" points="164.253,-52.7738 174.235,-56.324 168.646,-47.3236 164.253,-52.7738"/>
</g>
</g>
</svg>
