<?xml version="1.0" encoding="UTF-8" standalone="no"?>
<!DOCTYPE svg PUBLIC "-//W3C//DTD SVG 1.1//EN"
 "http://www.w3.org/Graphics/SVG/1.1/DTD/svg11.dtd">
<!-- Generated by graphviz version 2.36.0 (20140111.2315)
 -->
<!-- Title: AudioProcessorParameter Pages: 1 -->
<svg width="492pt" height="276pt"
 viewBox="0.00 0.00 492.00 276.00" xmlns="http://www.w3.org/2000/svg" xmlns:xlink="http://www.w3.org/1999/xlink">
<g id="graph0" class="graph" transform="scale(1 1) rotate(0) translate(4 272)">
<title>AudioProcessorParameter</title>
<!-- Node1 -->
<g id="node1" class="node"><title>Node1</title>
<polygon fill="#bfbfbf" stroke="black" points="106.5,-248.5 106.5,-267.5 237.5,-267.5 237.5,-248.5 106.5,-248.5"/>
<text text-anchor="middle" x="172" y="-255.5" font-family="Helvetica,sans-Serif" font-size="10.00">AudioProcessorParameter</text>
</g>
<!-- Node2 -->
<g id="node2" class="node"><title>Node2</title>
<g id="a_node2"><a xlink:href="structAudioPluginInstance_1_1Parameter.html" target="_top" xlink:title="Structure used to describe plugin parameters. ">
<polygon fill="none" stroke="black" points="43,-181 43,-211 149,-211 149,-181 43,-181"/>
<text text-anchor="start" x="51" y="-199" font-family="Helvetica,sans-Serif" font-size="10.00">AudioPluginInstance</text>
<text text-anchor="middle" x="96" y="-188" font-family="Helvetica,sans-Serif" font-size="10.00">::Parameter</text>
</a>
</g>
</g>
<!-- Node1&#45;&gt;Node2 -->
<g id="edge1" class="edge"><title>Node1&#45;&gt;Node2</title>
<path fill="none" stroke="midnightblue" d="M153.09,-242.071C141.106,-232.61 125.699,-220.447 113.912,-211.141"/>
<polygon fill="midnightblue" stroke="midnightblue" points="151.093,-244.954 161.111,-248.403 155.431,-239.46 151.093,-244.954"/>
</g>
<!-- Node3 -->
<g id="node3" class="node"><title>Node3</title>
<g id="a_node3"><a xlink:href="classAudioProcessorParameterWithID.html" target="_top" xlink:title="This abstract base class is used by some AudioProcessorParameter helper classes. ">
<polygon fill="none" stroke="black" points="167.5,-186.5 167.5,-205.5 328.5,-205.5 328.5,-186.5 167.5,-186.5"/>
<text text-anchor="middle" x="248" y="-193.5" font-family="Helvetica,sans-Serif" font-size="10.00">AudioProcessorParameterWithID</text>
</a>
</g>
</g>
<!-- Node1&#45;&gt;Node3 -->
<g id="edge2" class="edge"><title>Node1&#45;&gt;Node3</title>
<path fill="none" stroke="midnightblue" d="M190.784,-242.17C205.363,-230.661 225.062,-215.109 237.131,-205.581"/>
<polygon fill="midnightblue" stroke="midnightblue" points="188.569,-239.46 182.889,-248.403 192.907,-244.954 188.569,-239.46"/>
</g>
<!-- Node4 -->
<g id="node4" class="node"><title>Node4</title>
<g id="a_node4"><a xlink:href="classRangedAudioParameter.html" target="_top" xlink:title="This abstract base class is used by some AudioProcessorParameter helper classes. ">
<polygon fill="none" stroke="black" points="188,-124.5 188,-143.5 308,-143.5 308,-124.5 188,-124.5"/>
<text text-anchor="middle" x="248" y="-131.5" font-family="Helvetica,sans-Serif" font-size="10.00">RangedAudioParameter</text>
</a>
</g>
</g>
<!-- Node3&#45;&gt;Node4 -->
<g id="edge3" class="edge"><title>Node3&#45;&gt;Node4</title>
<path fill="none" stroke="midnightblue" d="M248,-176.16C248,-165.248 248,-152.04 248,-143.581"/>
<polygon fill="midnightblue" stroke="midnightblue" points="244.5,-176.403 248,-186.403 251.5,-176.403 244.5,-176.403"/>
</g>
<!-- Node5 -->
<g id="node5" class="node"><title>Node5</title>
<g id="a_node5"><a xlink:href="classAudioParameterBool.html" target="_top" xlink:title="Provides a class of AudioProcessorParameter that can be used as a boolean value. ">
<polygon fill="none" stroke="black" points="0,-68.5 0,-87.5 106,-87.5 106,-68.5 0,-68.5"/>
<text text-anchor="middle" x="53" y="-75.5" font-family="Helvetica,sans-Serif" font-size="10.00">AudioParameterBool</text>
</a>
</g>
</g>
<!-- Node4&#45;&gt;Node5 -->
<g id="edge4" class="edge"><title>Node4&#45;&gt;Node5</title>
<path fill="none" stroke="midnightblue" d="M207.19,-121.699C170.387,-111.507 117.071,-96.7429 83.7538,-87.5164"/>
<polygon fill="midnightblue" stroke="midnightblue" points="206.53,-125.148 217.102,-124.444 208.398,-118.402 206.53,-125.148"/>
</g>
<!-- Node6 -->
<g id="node6" class="node"><title>Node6</title>
<g id="a_node6"><a xlink:href="classAudioParameterChoice.html" target="_top" xlink:title="Provides a class of AudioProcessorParameter that can be used to select an indexed, named choice from a list. ">
<polygon fill="none" stroke="black" points="124.5,-68.5 124.5,-87.5 241.5,-87.5 241.5,-68.5 124.5,-68.5"/>
<text text-anchor="middle" x="183" y="-75.5" font-family="Helvetica,sans-Serif" font-size="10.00">AudioParameterChoice</text>
</a>
</g>
</g>
<!-- Node4&#45;&gt;Node6 -->
<g id="edge5" class="edge"><title>Node4&#45;&gt;Node6</title>
<path fill="none" stroke="midnightblue" d="M229.727,-117.82C218.082,-108.145 203.401,-95.9481 193.633,-87.8339"/>
<polygon fill="midnightblue" stroke="midnightblue" points="227.628,-120.626 237.557,-124.324 232.101,-115.242 227.628,-120.626"/>
</g>
<!-- Node7 -->
<g id="node7" class="node"><title>Node7</title>
<g id="a_node7"><a xlink:href="classAudioParameterFloat.html" target="_top" xlink:title="A subclass of AudioProcessorParameter that provides an easy way to create a parameter which maps onto...">
<polygon fill="none" stroke="black" points="260,-68.5 260,-87.5 368,-87.5 368,-68.5 260,-68.5"/>
<text text-anchor="middle" x="314" y="-75.5" font-family="Helvetica,sans-Serif" font-size="10.00">AudioParameterFloat</text>
</a>
</g>
</g>
<!-- Node4&#45;&gt;Node7 -->
<g id="edge6" class="edge"><title>Node4&#45;&gt;Node7</title>
<path fill="none" stroke="midnightblue" d="M266.554,-117.82C278.378,-108.145 293.286,-95.9481 303.203,-87.8339"/>
<polygon fill="midnightblue" stroke="midnightblue" points="264.127,-115.283 258.604,-124.324 268.56,-120.7 264.127,-115.283"/>
</g>
<!-- Node9 -->
<g id="node9" class="node"><title>Node9</title>
<g id="a_node9"><a xlink:href="classAudioParameterInt.html" target="_top" xlink:title="Provides a class of AudioProcessorParameter that can be used as an integer value with a given range...">
<polygon fill="none" stroke="black" points="386,-68.5 386,-87.5 484,-87.5 484,-68.5 386,-68.5"/>
<text text-anchor="middle" x="435" y="-75.5" font-family="Helvetica,sans-Serif" font-size="10.00">AudioParameterInt</text>
</a>
</g>
</g>
<!-- Node4&#45;&gt;Node9 -->
<g id="edge8" class="edge"><title>Node4&#45;&gt;Node9</title>
<path fill="none" stroke="midnightblue" d="M287.59,-121.568C322.866,-111.381 373.694,-96.7034 405.508,-87.5164"/>
<polygon fill="midnightblue" stroke="midnightblue" points="286.267,-118.307 277.631,-124.444 288.209,-125.032 286.267,-118.307"/>
</g>
<!-- Node8 -->
<g id="node8" class="node"><title>Node8</title>
<g id="a_node8"><a xlink:href="classAudioProcessorValueTreeState_1_1Parameter.html" target="_top" xlink:title="A parameter class that maintains backwards compatibility with deprecated AudioProcessorValueTreeState...">
<polygon fill="none" stroke="black" points="237.5,-1 237.5,-31 390.5,-31 390.5,-1 237.5,-1"/>
<text text-anchor="start" x="245.5" y="-19" font-family="Helvetica,sans-Serif" font-size="10.00">AudioProcessorValueTreeState</text>
<text text-anchor="middle" x="314" y="-8" font-family="Helvetica,sans-Serif" font-size="10.00">::Parameter</text>
</a>
</g>
</g>
<!-- Node7&#45;&gt;Node8 -->
<g id="edge7" class="edge"><title>Node7&#45;&gt;Node8</title>
<path fill="none" stroke="midnightblue" d="M314,-58.3707C314,-49.5849 314,-39.2721 314,-31.1408"/>
<polygon fill="midnightblue" stroke="midnightblue" points="310.5,-58.4034 314,-68.4035 317.5,-58.4035 310.5,-58.4034"/>
</g>
</g>
</svg>
