<?xml version="1.0" encoding="UTF-8" standalone="no"?>
<!DOCTYPE svg PUBLIC "-//W3C//DTD SVG 1.1//EN"
 "http://www.w3.org/Graphics/SVG/1.1/DTD/svg11.dtd">
<!-- Generated by graphviz version 2.36.0 (20140111.2315)
 -->
<!-- Title: juce::PluginListComponent Pages: 1 -->
<svg width="462pt" height="142pt"
 viewBox="0.00 0.00 462.00 142.00" xmlns="http://www.w3.org/2000/svg" xmlns:xlink="http://www.w3.org/1999/xlink">
<g id="graph0" class="graph" transform="scale(1 1) rotate(0) translate(4 138)">
<title>juce::PluginListComponent</title>
<!-- Node1 -->
<g id="node1" class="node"><title>Node1</title>
<polygon fill="#bfbfbf" stroke="black" points="320,-57.5 320,-76.5 454,-76.5 454,-57.5 320,-57.5"/>
<text text-anchor="middle" x="387" y="-64.5" font-family="Helvetica,sans-Serif" font-size="10.00">juce::PluginListComponent</text>
</g>
<!-- Node2 -->
<g id="node2" class="node"><title>Node2</title>
<g id="a_node2"><a xlink:href="classjuce_1_1Component.html" target="_top" xlink:title="The base class for all JUCE user&#45;interface objects. ">
<polygon fill="none" stroke="black" points="166.5,-114.5 166.5,-133.5 257.5,-133.5 257.5,-114.5 166.5,-114.5"/>
<text text-anchor="middle" x="212" y="-121.5" font-family="Helvetica,sans-Serif" font-size="10.00">juce::Component</text>
</a>
</g>
</g>
<!-- Node2&#45;&gt;Node1 -->
<g id="edge1" class="edge"><title>Node2&#45;&gt;Node1</title>
<path fill="none" stroke="midnightblue" d="M261.38,-111.715C268.985,-109.594 276.731,-107.321 284,-105 311.183,-96.321 341.786,-84.6597 362.317,-76.5539"/>
<polygon fill="midnightblue" stroke="midnightblue" points="260.241,-108.398 251.516,-114.408 262.085,-115.151 260.241,-108.398"/>
</g>
<!-- Node3 -->
<g id="node3" class="node"><title>Node3</title>
<g id="a_node3"><a xlink:href="classjuce_1_1MouseListener.html" target="_top" xlink:title="A MouseListener can be registered with a component to receive callbacks about mouse events that happe...">
<polygon fill="none" stroke="black" points="0,-114.5 0,-133.5 104,-133.5 104,-114.5 0,-114.5"/>
<text text-anchor="middle" x="52" y="-121.5" font-family="Helvetica,sans-Serif" font-size="10.00">juce::MouseListener</text>
</a>
</g>
</g>
<!-- Node3&#45;&gt;Node2 -->
<g id="edge2" class="edge"><title>Node3&#45;&gt;Node2</title>
<path fill="none" stroke="midnightblue" d="M114.336,-124C131.664,-124 150.188,-124 166.336,-124"/>
<polygon fill="midnightblue" stroke="midnightblue" points="114.298,-120.5 104.298,-124 114.298,-127.5 114.298,-120.5"/>
</g>
<!-- Node4 -->
<g id="node4" class="node"><title>Node4</title>
<g id="a_node4"><a xlink:href="classjuce_1_1FileDragAndDropTarget.html" target="_top" xlink:title="Components derived from this class can have files dropped onto them by an external application...">
<polygon fill="none" stroke="black" points="140.5,-76.5 140.5,-95.5 283.5,-95.5 283.5,-76.5 140.5,-76.5"/>
<text text-anchor="middle" x="212" y="-83.5" font-family="Helvetica,sans-Serif" font-size="10.00">juce::FileDragAndDropTarget</text>
</a>
</g>
</g>
<!-- Node4&#45;&gt;Node1 -->
<g id="edge3" class="edge"><title>Node4&#45;&gt;Node1</title>
<path fill="none" stroke="midnightblue" d="M294.019,-77.1019C302.716,-76.1468 311.487,-75.1835 319.979,-74.2508"/>
<polygon fill="midnightblue" stroke="midnightblue" points="293.423,-73.6463 283.865,-78.2172 294.187,-80.6044 293.423,-73.6463"/>
</g>
<!-- Node5 -->
<g id="node5" class="node"><title>Node5</title>
<g id="a_node5"><a xlink:href="classjuce_1_1ChangeListener.html" target="_top" xlink:title="Receives change event callbacks that are sent out by a ChangeBroadcaster. ">
<polygon fill="none" stroke="black" points="157.5,-38.5 157.5,-57.5 266.5,-57.5 266.5,-38.5 157.5,-38.5"/>
<text text-anchor="middle" x="212" y="-45.5" font-family="Helvetica,sans-Serif" font-size="10.00">juce::ChangeListener</text>
</a>
</g>
</g>
<!-- Node5&#45;&gt;Node1 -->
<g id="edge4" class="edge"><title>Node5&#45;&gt;Node1</title>
<path fill="none" stroke="#8b1a1a" d="M276.809,-55.0079C290.807,-56.5453 305.658,-58.1763 319.749,-59.7239"/>
<polygon fill="#8b1a1a" stroke="#8b1a1a" points="277.112,-51.5203 266.79,-53.9076 276.348,-58.4784 277.112,-51.5203"/>
</g>
<!-- Node6 -->
<g id="node6" class="node"><title>Node6</title>
<g id="a_node6"><a xlink:href="classjuce_1_1Button_1_1Listener.html" target="_top" xlink:title="Used to receive callbacks when a button is clicked. ">
<polygon fill="none" stroke="black" points="157,-0.5 157,-19.5 267,-19.5 267,-0.5 157,-0.5"/>
<text text-anchor="middle" x="212" y="-7.5" font-family="Helvetica,sans-Serif" font-size="10.00">juce::Button::Listener</text>
</a>
</g>
</g>
<!-- Node6&#45;&gt;Node1 -->
<g id="edge5" class="edge"><title>Node6&#45;&gt;Node1</title>
<path fill="none" stroke="#8b1a1a" d="M261.38,-22.2848C268.985,-24.406 276.731,-26.6793 284,-29 311.183,-37.679 341.786,-49.3403 362.317,-57.4461"/>
<polygon fill="#8b1a1a" stroke="#8b1a1a" points="262.085,-18.8492 251.516,-19.5924 260.241,-25.6022 262.085,-18.8492"/>
</g>
</g>
</svg>
