<?xml version="1.0" encoding="UTF-8" standalone="no"?>
<!DOCTYPE svg PUBLIC "-//W3C//DTD SVG 1.1//EN"
 "http://www.w3.org/Graphics/SVG/1.1/DTD/svg11.dtd">
<!-- Generated by graphviz version 2.36.0 (20140111.2315)
 -->
<!-- Title: juce::MidiMessageCollector Pages: 1 -->
<svg width="303pt" height="84pt"
 viewBox="0.00 0.00 303.00 84.00" xmlns="http://www.w3.org/2000/svg" xmlns:xlink="http://www.w3.org/1999/xlink">
<g id="graph0" class="graph" transform="scale(1 1) rotate(0) translate(4 80)">
<title>juce::MidiMessageCollector</title>
<!-- Node1 -->
<g id="node1" class="node"><title>Node1</title>
<polygon fill="#bfbfbf" stroke="black" points="88.5,-0.5 88.5,-19.5 225.5,-19.5 225.5,-0.5 88.5,-0.5"/>
<text text-anchor="middle" x="157" y="-7.5" font-family="Helvetica,sans-Serif" font-size="10.00">juce::MidiMessageCollector</text>
</g>
<!-- Node2 -->
<g id="node2" class="node"><title>Node2</title>
<g id="a_node2"><a xlink:href="classjuce_1_1MidiKeyboardStateListener.html" target="_top" xlink:title="Receives events from a MidiKeyboardState object. ">
<polygon fill="none" stroke="black" points="0,-56.5 0,-75.5 158,-75.5 158,-56.5 0,-56.5"/>
<text text-anchor="middle" x="79" y="-63.5" font-family="Helvetica,sans-Serif" font-size="10.00">juce::MidiKeyboardStateListener</text>
</a>
</g>
</g>
<!-- Node2&#45;&gt;Node1 -->
<g id="edge1" class="edge"><title>Node2&#45;&gt;Node1</title>
<path fill="none" stroke="midnightblue" d="M99.768,-50.6221C114.017,-40.7574 132.456,-27.9919 144.499,-19.6545"/>
<polygon fill="midnightblue" stroke="midnightblue" points="97.7617,-47.7541 91.532,-56.324 101.746,-53.5095 97.7617,-47.7541"/>
</g>
<!-- Node3 -->
<g id="node3" class="node"><title>Node3</title>
<g id="a_node3"><a xlink:href="classjuce_1_1MidiInputCallback.html" target="_top" xlink:title="Receives incoming messages from a physical MIDI input device. ">
<polygon fill="none" stroke="black" points="176.5,-56.5 176.5,-75.5 295.5,-75.5 295.5,-56.5 176.5,-56.5"/>
<text text-anchor="middle" x="236" y="-63.5" font-family="Helvetica,sans-Serif" font-size="10.00">juce::MidiInputCallback</text>
</a>
</g>
</g>
<!-- Node3&#45;&gt;Node1 -->
<g id="edge2" class="edge"><title>Node3&#45;&gt;Node1</title>
<path fill="none" stroke="midnightblue" d="M214.966,-50.6221C200.534,-40.7574 181.859,-27.9919 169.661,-19.6545"/>
<polygon fill="midnightblue" stroke="midnightblue" points="213.077,-53.5703 223.307,-56.324 217.027,-47.7914 213.077,-53.5703"/>
</g>
</g>
</svg>
