<?xml version="1.0" encoding="UTF-8" standalone="no"?>
<!DOCTYPE svg PUBLIC "-//W3C//DTD SVG 1.1//EN"
 "http://www.w3.org/Graphics/SVG/1.1/DTD/svg11.dtd">
<!-- Generated by graphviz version 2.36.0 (20140111.2315)
 -->
<!-- Title: ComboBox Pages: 1 -->
<svg width="404pt" height="140pt"
 viewBox="0.00 0.00 404.00 140.00" xmlns="http://www.w3.org/2000/svg" xmlns:xlink="http://www.w3.org/1999/xlink">
<g id="graph0" class="graph" transform="scale(1 1) rotate(0) translate(4 136)">
<title>ComboBox</title>
<!-- Node1 -->
<g id="node1" class="node"><title>Node1</title>
<polygon fill="#bfbfbf" stroke="black" points="168.5,-0.5 168.5,-19.5 233.5,-19.5 233.5,-0.5 168.5,-0.5"/>
<text text-anchor="middle" x="201" y="-7.5" font-family="Helvetica,sans-Serif" font-size="10.00">ComboBox</text>
</g>
<!-- Node2 -->
<g id="node2" class="node"><title>Node2</title>
<g id="a_node2"><a xlink:href="classComponent.html" target="_top" xlink:title="The base class for all JUCE user&#45;interface objects. ">
<polygon fill="none" stroke="black" points="6.5,-56.5 6.5,-75.5 73.5,-75.5 73.5,-56.5 6.5,-56.5"/>
<text text-anchor="middle" x="40" y="-63.5" font-family="Helvetica,sans-Serif" font-size="10.00">Component</text>
</a>
</g>
</g>
<!-- Node2&#45;&gt;Node1 -->
<g id="edge1" class="edge"><title>Node2&#45;&gt;Node1</title>
<path fill="none" stroke="midnightblue" d="M75.2648,-53.172C105.581,-43.0039 148.57,-28.5852 175.608,-19.5164"/>
<polygon fill="midnightblue" stroke="midnightblue" points="73.8789,-49.9452 65.5109,-56.4435 76.1049,-56.5819 73.8789,-49.9452"/>
</g>
<!-- Node3 -->
<g id="node3" class="node"><title>Node3</title>
<g id="a_node3"><a xlink:href="classMouseListener.html" target="_top" xlink:title="A MouseListener can be registered with a component to receive callbacks about mouse events that happe...">
<polygon fill="none" stroke="black" points="0,-112.5 0,-131.5 80,-131.5 80,-112.5 0,-112.5"/>
<text text-anchor="middle" x="40" y="-119.5" font-family="Helvetica,sans-Serif" font-size="10.00">MouseListener</text>
</a>
</g>
</g>
<!-- Node3&#45;&gt;Node2 -->
<g id="edge2" class="edge"><title>Node3&#45;&gt;Node2</title>
<path fill="none" stroke="midnightblue" d="M40,-101.805C40,-92.9102 40,-82.7798 40,-75.7511"/>
<polygon fill="midnightblue" stroke="midnightblue" points="36.5001,-102.083 40,-112.083 43.5001,-102.083 36.5001,-102.083"/>
</g>
<!-- Node4 -->
<g id="node4" class="node"><title>Node4</title>
<g id="a_node4"><a xlink:href="classSettableTooltipClient.html" target="_top" xlink:title="An implementation of TooltipClient that stores the tooltip string and a method for changing it...">
<polygon fill="none" stroke="black" points="91.5,-56.5 91.5,-75.5 198.5,-75.5 198.5,-56.5 91.5,-56.5"/>
<text text-anchor="middle" x="145" y="-63.5" font-family="Helvetica,sans-Serif" font-size="10.00">SettableTooltipClient</text>
</a>
</g>
</g>
<!-- Node4&#45;&gt;Node1 -->
<g id="edge3" class="edge"><title>Node4&#45;&gt;Node1</title>
<path fill="none" stroke="midnightblue" d="M161.33,-49.2533C171.265,-39.6731 183.588,-27.7906 191.839,-19.8339"/>
<polygon fill="midnightblue" stroke="midnightblue" points="158.766,-46.8631 153.997,-56.324 163.625,-51.902 158.766,-46.8631"/>
</g>
<!-- Node5 -->
<g id="node5" class="node"><title>Node5</title>
<g id="a_node5"><a xlink:href="classTooltipClient.html" target="_top" xlink:title="Components that want to use pop&#45;up tooltips should implement this interface. ">
<polygon fill="none" stroke="black" points="109.5,-112.5 109.5,-131.5 180.5,-131.5 180.5,-112.5 109.5,-112.5"/>
<text text-anchor="middle" x="145" y="-119.5" font-family="Helvetica,sans-Serif" font-size="10.00">TooltipClient</text>
</a>
</g>
</g>
<!-- Node5&#45;&gt;Node4 -->
<g id="edge4" class="edge"><title>Node5&#45;&gt;Node4</title>
<path fill="none" stroke="midnightblue" d="M145,-101.805C145,-92.9102 145,-82.7798 145,-75.7511"/>
<polygon fill="midnightblue" stroke="midnightblue" points="141.5,-102.083 145,-112.083 148.5,-102.083 141.5,-102.083"/>
</g>
<!-- Node6 -->
<g id="node6" class="node"><title>Node6</title>
<g id="a_node6"><a xlink:href="classValue_1_1Listener.html" target="_top" xlink:title="Receives callbacks when a Value object changes. ">
<polygon fill="none" stroke="black" points="217,-56.5 217,-75.5 299,-75.5 299,-56.5 217,-56.5"/>
<text text-anchor="middle" x="258" y="-63.5" font-family="Helvetica,sans-Serif" font-size="10.00">Value::Listener</text>
</a>
</g>
</g>
<!-- Node6&#45;&gt;Node1 -->
<g id="edge5" class="edge"><title>Node6&#45;&gt;Node1</title>
<path fill="none" stroke="midnightblue" d="M241.379,-49.2533C231.266,-39.6731 218.723,-27.7906 210.325,-19.8339"/>
<polygon fill="midnightblue" stroke="midnightblue" points="239.175,-51.9873 248.842,-56.324 243.99,-46.9056 239.175,-51.9873"/>
</g>
<!-- Node7 -->
<g id="node7" class="node"><title>Node7</title>
<g id="a_node7"><a xlink:href="classAsyncUpdater.html" target="_top" xlink:title="Has a callback method that is triggered asynchronously. ">
<polygon fill="none" stroke="black" points="317.5,-56.5 317.5,-75.5 396.5,-75.5 396.5,-56.5 317.5,-56.5"/>
<text text-anchor="middle" x="357" y="-63.5" font-family="Helvetica,sans-Serif" font-size="10.00">AsyncUpdater</text>
</a>
</g>
</g>
<!-- Node7&#45;&gt;Node1 -->
<g id="edge6" class="edge"><title>Node7&#45;&gt;Node1</title>
<path fill="none" stroke="#8b1a1a" d="M322.83,-53.172C293.456,-43.0039 251.802,-28.5852 225.603,-19.5164"/>
<polygon fill="#8b1a1a" stroke="#8b1a1a" points="321.687,-56.4798 332.281,-56.4435 323.976,-49.8649 321.687,-56.4798"/>
</g>
</g>
</svg>
