<?xml version="1.0" encoding="UTF-8" standalone="no"?>
<!DOCTYPE svg PUBLIC "-//W3C//DTD SVG 1.1//EN"
 "http://www.w3.org/Graphics/SVG/1.1/DTD/svg11.dtd">
<!-- Generated by graphviz version 2.36.0 (20140111.2315)
 -->
<!-- Title: juce::DrawableShape Pages: 1 -->
<svg width="254pt" height="252pt"
 viewBox="0.00 0.00 254.00 252.00" xmlns="http://www.w3.org/2000/svg" xmlns:xlink="http://www.w3.org/1999/xlink">
<g id="graph0" class="graph" transform="scale(1 1) rotate(0) translate(4 248)">
<title>juce::DrawableShape</title>
<!-- Node1 -->
<g id="node1" class="node"><title>Node1</title>
<polygon fill="#bfbfbf" stroke="black" points="62,-56.5 62,-75.5 172,-75.5 172,-56.5 62,-56.5"/>
<text text-anchor="middle" x="117" y="-63.5" font-family="Helvetica,sans-Serif" font-size="10.00">juce::DrawableShape</text>
</g>
<!-- Node5 -->
<g id="node5" class="node"><title>Node5</title>
<g id="a_node5"><a xlink:href="classjuce_1_1DrawablePath.html" target="_top" xlink:title="A drawable object which renders a filled or outlined shape. ">
<polygon fill="none" stroke="black" points="0,-0.5 0,-19.5 102,-19.5 102,-0.5 0,-0.5"/>
<text text-anchor="middle" x="51" y="-7.5" font-family="Helvetica,sans-Serif" font-size="10.00">juce::DrawablePath</text>
</a>
</g>
</g>
<!-- Node1&#45;&gt;Node5 -->
<g id="edge4" class="edge"><title>Node1&#45;&gt;Node5</title>
<path fill="none" stroke="midnightblue" d="M98.4463,-49.8197C86.6219,-40.1452 71.7144,-27.9481 61.797,-19.8339"/>
<polygon fill="midnightblue" stroke="midnightblue" points="96.44,-52.7004 106.396,-56.324 100.873,-47.2827 96.44,-52.7004"/>
</g>
<!-- Node6 -->
<g id="node6" class="node"><title>Node6</title>
<g id="a_node6"><a xlink:href="classjuce_1_1DrawableRectangle.html" target="_top" xlink:title="A Drawable object which draws a rectangle. ">
<polygon fill="none" stroke="black" points="120,-0.5 120,-19.5 246,-19.5 246,-0.5 120,-0.5"/>
<text text-anchor="middle" x="183" y="-7.5" font-family="Helvetica,sans-Serif" font-size="10.00">juce::DrawableRectangle</text>
</a>
</g>
</g>
<!-- Node1&#45;&gt;Node6 -->
<g id="edge5" class="edge"><title>Node1&#45;&gt;Node6</title>
<path fill="none" stroke="midnightblue" d="M135.554,-49.8197C147.378,-40.1452 162.286,-27.9481 172.203,-19.8339"/>
<polygon fill="midnightblue" stroke="midnightblue" points="133.127,-47.2827 127.604,-56.324 137.56,-52.7004 133.127,-47.2827"/>
</g>
<!-- Node2 -->
<g id="node2" class="node"><title>Node2</title>
<g id="a_node2"><a xlink:href="classjuce_1_1Drawable.html" target="_top" xlink:title="The base class for objects which can draw themselves, e.g. ">
<polygon fill="none" stroke="black" points="76,-112.5 76,-131.5 158,-131.5 158,-112.5 76,-112.5"/>
<text text-anchor="middle" x="117" y="-119.5" font-family="Helvetica,sans-Serif" font-size="10.00">juce::Drawable</text>
</a>
</g>
</g>
<!-- Node2&#45;&gt;Node1 -->
<g id="edge1" class="edge"><title>Node2&#45;&gt;Node1</title>
<path fill="none" stroke="midnightblue" d="M117,-101.805C117,-92.9102 117,-82.7798 117,-75.7511"/>
<polygon fill="midnightblue" stroke="midnightblue" points="113.5,-102.083 117,-112.083 120.5,-102.083 113.5,-102.083"/>
</g>
<!-- Node3 -->
<g id="node3" class="node"><title>Node3</title>
<g id="a_node3"><a xlink:href="classjuce_1_1Component.html" target="_top" xlink:title="The base class for all JUCE user&#45;interface objects. ">
<polygon fill="none" stroke="black" points="71.5,-168.5 71.5,-187.5 162.5,-187.5 162.5,-168.5 71.5,-168.5"/>
<text text-anchor="middle" x="117" y="-175.5" font-family="Helvetica,sans-Serif" font-size="10.00">juce::Component</text>
</a>
</g>
</g>
<!-- Node3&#45;&gt;Node2 -->
<g id="edge2" class="edge"><title>Node3&#45;&gt;Node2</title>
<path fill="none" stroke="midnightblue" d="M117,-157.805C117,-148.91 117,-138.78 117,-131.751"/>
<polygon fill="midnightblue" stroke="midnightblue" points="113.5,-158.083 117,-168.083 120.5,-158.083 113.5,-158.083"/>
</g>
<!-- Node4 -->
<g id="node4" class="node"><title>Node4</title>
<g id="a_node4"><a xlink:href="classjuce_1_1MouseListener.html" target="_top" xlink:title="A MouseListener can be registered with a component to receive callbacks about mouse events that happe...">
<polygon fill="none" stroke="black" points="65,-224.5 65,-243.5 169,-243.5 169,-224.5 65,-224.5"/>
<text text-anchor="middle" x="117" y="-231.5" font-family="Helvetica,sans-Serif" font-size="10.00">juce::MouseListener</text>
</a>
</g>
</g>
<!-- Node4&#45;&gt;Node3 -->
<g id="edge3" class="edge"><title>Node4&#45;&gt;Node3</title>
<path fill="none" stroke="midnightblue" d="M117,-213.805C117,-204.91 117,-194.78 117,-187.751"/>
<polygon fill="midnightblue" stroke="midnightblue" points="113.5,-214.083 117,-224.083 120.5,-214.083 113.5,-214.083"/>
</g>
</g>
</svg>
