<?xml version="1.0" encoding="UTF-8" standalone="no"?>
<!DOCTYPE svg PUBLIC "-//W3C//DTD SVG 1.1//EN"
 "http://www.w3.org/Graphics/SVG/1.1/DTD/svg11.dtd">
<!-- Generated by graphviz version 2.36.0 (20140111.2315)
 -->
<!-- Title: FileFilter Pages: 1 -->
<svg width="237pt" height="84pt"
 viewBox="0.00 0.00 237.00 84.00" xmlns="http://www.w3.org/2000/svg" xmlns:xlink="http://www.w3.org/1999/xlink">
<g id="graph0" class="graph" transform="scale(1 1) rotate(0) translate(4 80)">
<title>FileFilter</title>
<!-- Node1 -->
<g id="node1" class="node"><title>Node1</title>
<polygon fill="#bfbfbf" stroke="black" points="94,-56.5 94,-75.5 148,-75.5 148,-56.5 94,-56.5"/>
<text text-anchor="middle" x="121" y="-63.5" font-family="Helvetica,sans-Serif" font-size="10.00">FileFilter</text>
</g>
<!-- Node2 -->
<g id="node2" class="node"><title>Node2</title>
<g id="a_node2"><a xlink:href="group__juce__gui__basics-filebrowser.html#classFileBrowserComponent" target="_top" xlink:title="A component for browsing and selecting a file or directory to open or save. ">
<polygon fill="none" stroke="black" points="-0.5,-0.5 -0.5,-19.5 118.5,-19.5 118.5,-0.5 -0.5,-0.5"/>
<text text-anchor="middle" x="59" y="-7.5" font-family="Helvetica,sans-Serif" font-size="10.00">FileBrowserComponent</text>
</a>
</g>
</g>
<!-- Node1&#45;&gt;Node2 -->
<g id="edge1" class="edge"><title>Node1&#45;&gt;Node2</title>
<path fill="none" stroke="#8b1a1a" d="M103.246,-49.5372C92.1915,-39.9087 78.3685,-27.8694 69.1426,-19.8339"/>
<polygon fill="#8b1a1a" stroke="#8b1a1a" points="101.199,-52.3954 111.039,-56.324 105.797,-47.1168 101.199,-52.3954"/>
</g>
<!-- Node3 -->
<g id="node3" class="node"><title>Node3</title>
<g id="a_node3"><a xlink:href="group__juce__core-files.html#classWildcardFileFilter" target="_top" xlink:title="A type of FileFilter that works by wildcard pattern matching. ">
<polygon fill="none" stroke="black" points="137,-0.5 137,-19.5 229,-19.5 229,-0.5 137,-0.5"/>
<text text-anchor="middle" x="183" y="-7.5" font-family="Helvetica,sans-Serif" font-size="10.00">WildcardFileFilter</text>
</a>
</g>
</g>
<!-- Node1&#45;&gt;Node3 -->
<g id="edge2" class="edge"><title>Node1&#45;&gt;Node3</title>
<path fill="none" stroke="midnightblue" d="M138.754,-49.5372C149.808,-39.9087 163.631,-27.8694 172.857,-19.8339"/>
<polygon fill="midnightblue" stroke="midnightblue" points="136.203,-47.1168 130.961,-56.324 140.801,-52.3954 136.203,-47.1168"/>
</g>
</g>
</svg>
