<?xml version="1.0" encoding="UTF-8" standalone="no"?>
<!DOCTYPE svg PUBLIC "-//W3C//DTD SVG 1.1//EN"
 "http://www.w3.org/Graphics/SVG/1.1/DTD/svg11.dtd">
<!-- Generated by graphviz version 2.36.0 (20140111.2315)
 -->
<!-- Title: MenuBarModel Pages: 1 -->
<svg width="251pt" height="96pt"
 viewBox="0.00 0.00 251.00 96.00" xmlns="http://www.w3.org/2000/svg" xmlns:xlink="http://www.w3.org/1999/xlink">
<g id="graph0" class="graph" transform="scale(1 1) rotate(0) translate(4 92)">
<title>MenuBarModel</title>
<!-- Node1 -->
<g id="node1" class="node"><title>Node1</title>
<polygon fill="#bfbfbf" stroke="black" points="63,-0.5 63,-19.5 145,-19.5 145,-0.5 63,-0.5"/>
<text text-anchor="middle" x="104" y="-7.5" font-family="Helvetica,sans-Serif" font-size="10.00">MenuBarModel</text>
</g>
<!-- Node2 -->
<g id="node2" class="node"><title>Node2</title>
<g id="a_node2"><a xlink:href="group__juce__events-broadcasters.html#classAsyncUpdater" target="_top" xlink:title="Has a callback method that is triggered asynchronously. ">
<polygon fill="none" stroke="black" points="-0.5,-62.5 -0.5,-81.5 78.5,-81.5 78.5,-62.5 -0.5,-62.5"/>
<text text-anchor="middle" x="39" y="-69.5" font-family="Helvetica,sans-Serif" font-size="10.00">AsyncUpdater</text>
</a>
</g>
</g>
<!-- Node2&#45;&gt;Node1 -->
<g id="edge1" class="edge"><title>Node2&#45;&gt;Node1</title>
<path fill="none" stroke="#8b1a1a" d="M55.7693,-55.5206C68.1617,-44.0815 84.5753,-28.9305 94.7044,-19.5806"/>
<polygon fill="#8b1a1a" stroke="#8b1a1a" points="53.287,-53.0488 48.3129,-62.4035 58.035,-58.1925 53.287,-53.0488"/>
</g>
<!-- Node3 -->
<g id="node3" class="node"><title>Node3</title>
<g id="a_node3"><a xlink:href="group__juce__gui__basics-commands.html#classApplicationCommandManagerListener" target="_top" xlink:title="A listener that receives callbacks from an ApplicationCommandManager when commands are invoked or the...">
<polygon fill="none" stroke="black" points="96.5,-57 96.5,-87 243.5,-87 243.5,-57 96.5,-57"/>
<text text-anchor="start" x="104.5" y="-75" font-family="Helvetica,sans-Serif" font-size="10.00">ApplicationCommandManager</text>
<text text-anchor="middle" x="170" y="-64" font-family="Helvetica,sans-Serif" font-size="10.00">Listener</text>
</a>
</g>
</g>
<!-- Node3&#45;&gt;Node1 -->
<g id="edge2" class="edge"><title>Node3&#45;&gt;Node1</title>
<path fill="none" stroke="#8b1a1a" d="M146.814,-49.9216C135.409,-39.5533 122.283,-27.6209 113.604,-19.7305"/>
<polygon fill="#8b1a1a" stroke="#8b1a1a" points="144.605,-52.6439 154.359,-56.7808 149.314,-47.4643 144.605,-52.6439"/>
</g>
</g>
</svg>
