<?xml version="1.0" encoding="UTF-8" standalone="no"?>
<!DOCTYPE svg PUBLIC "-//W3C//DTD SVG 1.1//EN"
 "http://www.w3.org/Graphics/SVG/1.1/DTD/svg11.dtd">
<!-- Generated by graphviz version 2.36.0 (20140111.2315)
 -->
<!-- Title: juce::TextEditor::Listener Pages: 1 -->
<svg width="233pt" height="84pt"
 viewBox="0.00 0.00 233.00 84.00" xmlns="http://www.w3.org/2000/svg" xmlns:xlink="http://www.w3.org/1999/xlink">
<g id="graph0" class="graph" transform="scale(1 1) rotate(0) translate(4 80)">
<title>juce::TextEditor::Listener</title>
<!-- Node1 -->
<g id="node1" class="node"><title>Node1</title>
<polygon fill="#bfbfbf" stroke="black" points="69,-56.5 69,-75.5 195,-75.5 195,-56.5 69,-56.5"/>
<text text-anchor="middle" x="132" y="-63.5" font-family="Helvetica,sans-Serif" font-size="10.00">juce::TextEditor::Listener</text>
</g>
<!-- Node2 -->
<g id="node2" class="node"><title>Node2</title>
<g id="a_node2"><a xlink:href="classjuce_1_1FileBrowserComponent.html" target="_top" xlink:title="A component for browsing and selecting a file or directory to open or save. ">
<polygon fill="none" stroke="black" points="-0.5,-0.5 -0.5,-19.5 142.5,-19.5 142.5,-0.5 -0.5,-0.5"/>
<text text-anchor="middle" x="71" y="-7.5" font-family="Helvetica,sans-Serif" font-size="10.00">juce::FileBrowserComponent</text>
</a>
</g>
</g>
<!-- Node1&#45;&gt;Node2 -->
<g id="edge1" class="edge"><title>Node1&#45;&gt;Node2</title>
<path fill="none" stroke="#8b1a1a" d="M114.533,-49.5372C103.656,-39.9087 90.0561,-27.8694 80.979,-19.8339"/>
<polygon fill="#8b1a1a" stroke="#8b1a1a" points="112.392,-52.3162 122.199,-56.324 117.032,-47.0749 112.392,-52.3162"/>
</g>
<!-- Node3 -->
<g id="node3" class="node"><title>Node3</title>
<g id="a_node3"><a xlink:href="classjuce_1_1Label.html" target="_top" xlink:title="A component that displays a text string, and can optionally become a text editor when clicked...">
<polygon fill="none" stroke="black" points="161,-0.5 161,-19.5 225,-19.5 225,-0.5 161,-0.5"/>
<text text-anchor="middle" x="193" y="-7.5" font-family="Helvetica,sans-Serif" font-size="10.00">juce::Label</text>
</a>
</g>
</g>
<!-- Node1&#45;&gt;Node3 -->
<g id="edge2" class="edge"><title>Node1&#45;&gt;Node3</title>
<path fill="none" stroke="darkgreen" d="M149.467,-49.5372C160.344,-39.9087 173.944,-27.8694 183.021,-19.8339"/>
<polygon fill="darkgreen" stroke="darkgreen" points="146.968,-47.0749 141.801,-56.324 151.608,-52.3162 146.968,-47.0749"/>
</g>
</g>
</svg>
