<?xml version="1.0" encoding="UTF-8" standalone="no"?>
<!DOCTYPE svg PUBLIC "-//W3C//DTD SVG 1.1//EN"
 "http://www.w3.org/Graphics/SVG/1.1/DTD/svg11.dtd">
<!-- Generated by graphviz version 2.36.0 (20140111.2315)
 -->
<!-- Title: juce::PropertyComponent Pages: 1 -->
<svg width="644pt" height="180pt"
 viewBox="0.00 0.00 644.00 180.00" xmlns="http://www.w3.org/2000/svg" xmlns:xlink="http://www.w3.org/1999/xlink">
<g id="graph0" class="graph" transform="scale(1 1) rotate(0) translate(4 176)">
<title>juce::PropertyComponent</title>
<!-- Node1 -->
<g id="node1" class="node"><title>Node1</title>
<polygon fill="#bfbfbf" stroke="black" points="308,-76.5 308,-95.5 436,-95.5 436,-76.5 308,-76.5"/>
<text text-anchor="middle" x="372" y="-83.5" font-family="Helvetica,sans-Serif" font-size="10.00">juce::PropertyComponent</text>
</g>
<!-- Node6 -->
<g id="node6" class="node"><title>Node6</title>
<g id="a_node6"><a xlink:href="classjuce_1_1BooleanPropertyComponent.html" target="_top" xlink:title="A PropertyComponent that contains an on/off toggle button. ">
<polygon fill="none" stroke="black" points="472.5,-152.5 472.5,-171.5 635.5,-171.5 635.5,-152.5 472.5,-152.5"/>
<text text-anchor="middle" x="554" y="-159.5" font-family="Helvetica,sans-Serif" font-size="10.00">juce::BooleanPropertyComponent</text>
</a>
</g>
</g>
<!-- Node1&#45;&gt;Node6 -->
<g id="edge5" class="edge"><title>Node1&#45;&gt;Node6</title>
<path fill="none" stroke="midnightblue" d="M395.217,-101.327C414.681,-114.121 444.135,-131.987 472,-143 481.537,-146.77 492.015,-149.91 502.178,-152.48"/>
<polygon fill="midnightblue" stroke="midnightblue" points="397.026,-98.3256 386.767,-95.6766 393.135,-104.145 397.026,-98.3256"/>
</g>
<!-- Node7 -->
<g id="node7" class="node"><title>Node7</title>
<g id="a_node7"><a xlink:href="classjuce_1_1ButtonPropertyComponent.html" target="_top" xlink:title="A PropertyComponent that contains a button. ">
<polygon fill="none" stroke="black" points="476,-114.5 476,-133.5 632,-133.5 632,-114.5 476,-114.5"/>
<text text-anchor="middle" x="554" y="-121.5" font-family="Helvetica,sans-Serif" font-size="10.00">juce::ButtonPropertyComponent</text>
</a>
</g>
</g>
<!-- Node1&#45;&gt;Node7 -->
<g id="edge6" class="edge"><title>Node1&#45;&gt;Node7</title>
<path fill="none" stroke="midnightblue" d="M428.331,-97.681C453.857,-103.07 483.776,-109.386 507.905,-114.48"/>
<polygon fill="midnightblue" stroke="midnightblue" points="428.929,-94.2301 418.422,-95.589 427.483,-101.079 428.929,-94.2301"/>
</g>
<!-- Node8 -->
<g id="node8" class="node"><title>Node8</title>
<g id="a_node8"><a xlink:href="classjuce_1_1ChoicePropertyComponent.html" target="_top" xlink:title="A PropertyComponent that shows its value as a combo box. ">
<polygon fill="none" stroke="black" points="475,-76.5 475,-95.5 633,-95.5 633,-76.5 475,-76.5"/>
<text text-anchor="middle" x="554" y="-83.5" font-family="Helvetica,sans-Serif" font-size="10.00">juce::ChoicePropertyComponent</text>
</a>
</g>
</g>
<!-- Node1&#45;&gt;Node8 -->
<g id="edge7" class="edge"><title>Node1&#45;&gt;Node8</title>
<path fill="none" stroke="midnightblue" d="M446.276,-86C455.665,-86 465.304,-86 474.768,-86"/>
<polygon fill="midnightblue" stroke="midnightblue" points="446.208,-82.5001 436.208,-86 446.208,-89.5001 446.208,-82.5001"/>
</g>
<!-- Node9 -->
<g id="node9" class="node"><title>Node9</title>
<g id="a_node9"><a xlink:href="classjuce_1_1SliderPropertyComponent.html" target="_top" xlink:title="A PropertyComponent that shows its value as a slider. ">
<polygon fill="none" stroke="black" points="478,-38.5 478,-57.5 630,-57.5 630,-38.5 478,-38.5"/>
<text text-anchor="middle" x="554" y="-45.5" font-family="Helvetica,sans-Serif" font-size="10.00">juce::SliderPropertyComponent</text>
</a>
</g>
</g>
<!-- Node1&#45;&gt;Node9 -->
<g id="edge8" class="edge"><title>Node1&#45;&gt;Node9</title>
<path fill="none" stroke="midnightblue" d="M428.331,-74.319C453.857,-68.9301 483.776,-62.6139 507.905,-57.5201"/>
<polygon fill="midnightblue" stroke="midnightblue" points="427.483,-70.9208 418.422,-76.411 428.929,-77.7699 427.483,-70.9208"/>
</g>
<!-- Node10 -->
<g id="node10" class="node"><title>Node10</title>
<g id="a_node10"><a xlink:href="classjuce_1_1TextPropertyComponent.html" target="_top" xlink:title="A PropertyComponent that shows its value as editable text. ">
<polygon fill="none" stroke="black" points="480.5,-0.5 480.5,-19.5 627.5,-19.5 627.5,-0.5 480.5,-0.5"/>
<text text-anchor="middle" x="554" y="-7.5" font-family="Helvetica,sans-Serif" font-size="10.00">juce::TextPropertyComponent</text>
</a>
</g>
</g>
<!-- Node1&#45;&gt;Node10 -->
<g id="edge9" class="edge"><title>Node1&#45;&gt;Node10</title>
<path fill="none" stroke="midnightblue" d="M395.217,-70.6734C414.681,-57.8788 444.135,-40.0134 472,-29 481.537,-25.2304 492.015,-22.0902 502.178,-19.5204"/>
<polygon fill="midnightblue" stroke="midnightblue" points="393.135,-67.8554 386.767,-76.3234 397.026,-73.6744 393.135,-67.8554"/>
</g>
<!-- Node2 -->
<g id="node2" class="node"><title>Node2</title>
<g id="a_node2"><a xlink:href="classjuce_1_1Component.html" target="_top" xlink:title="The base class for all JUCE user&#45;interface objects. ">
<polygon fill="none" stroke="black" points="160.5,-95.5 160.5,-114.5 251.5,-114.5 251.5,-95.5 160.5,-95.5"/>
<text text-anchor="middle" x="206" y="-102.5" font-family="Helvetica,sans-Serif" font-size="10.00">juce::Component</text>
</a>
</g>
</g>
<!-- Node2&#45;&gt;Node1 -->
<g id="edge1" class="edge"><title>Node2&#45;&gt;Node1</title>
<path fill="none" stroke="midnightblue" d="M261.79,-98.6524C276.545,-96.943 292.625,-95.08 307.799,-93.3221"/>
<polygon fill="midnightblue" stroke="midnightblue" points="261.344,-95.1805 251.814,-99.8082 262.15,-102.134 261.344,-95.1805"/>
</g>
<!-- Node3 -->
<g id="node3" class="node"><title>Node3</title>
<g id="a_node3"><a xlink:href="classjuce_1_1MouseListener.html" target="_top" xlink:title="A MouseListener can be registered with a component to receive callbacks about mouse events that happe...">
<polygon fill="none" stroke="black" points="0,-95.5 0,-114.5 104,-114.5 104,-95.5 0,-95.5"/>
<text text-anchor="middle" x="52" y="-102.5" font-family="Helvetica,sans-Serif" font-size="10.00">juce::MouseListener</text>
</a>
</g>
</g>
<!-- Node3&#45;&gt;Node2 -->
<g id="edge2" class="edge"><title>Node3&#45;&gt;Node2</title>
<path fill="none" stroke="midnightblue" d="M114.074,-105C129.582,-105 145.952,-105 160.464,-105"/>
<polygon fill="midnightblue" stroke="midnightblue" points="114.037,-101.5 104.037,-105 114.037,-108.5 114.037,-101.5"/>
</g>
<!-- Node4 -->
<g id="node4" class="node"><title>Node4</title>
<g id="a_node4"><a xlink:href="classjuce_1_1SettableTooltipClient.html" target="_top" xlink:title="An implementation of TooltipClient that stores the tooltip string and a method for changing it...">
<polygon fill="none" stroke="black" points="140.5,-57.5 140.5,-76.5 271.5,-76.5 271.5,-57.5 140.5,-57.5"/>
<text text-anchor="middle" x="206" y="-64.5" font-family="Helvetica,sans-Serif" font-size="10.00">juce::SettableTooltipClient</text>
</a>
</g>
</g>
<!-- Node4&#45;&gt;Node1 -->
<g id="edge3" class="edge"><title>Node4&#45;&gt;Node1</title>
<path fill="none" stroke="midnightblue" d="M281.961,-75.6845C290.664,-76.6927 299.473,-77.7133 307.993,-78.7004"/>
<polygon fill="midnightblue" stroke="midnightblue" points="282.154,-72.1835 271.817,-74.5093 281.348,-79.137 282.154,-72.1835"/>
</g>
<!-- Node5 -->
<g id="node5" class="node"><title>Node5</title>
<g id="a_node5"><a xlink:href="classjuce_1_1TooltipClient.html" target="_top" xlink:title="Components that want to use pop&#45;up tooltips should implement this interface. ">
<polygon fill="none" stroke="black" points="4.5,-57.5 4.5,-76.5 99.5,-76.5 99.5,-57.5 4.5,-57.5"/>
<text text-anchor="middle" x="52" y="-64.5" font-family="Helvetica,sans-Serif" font-size="10.00">juce::TooltipClient</text>
</a>
</g>
</g>
<!-- Node5&#45;&gt;Node4 -->
<g id="edge4" class="edge"><title>Node5&#45;&gt;Node4</title>
<path fill="none" stroke="midnightblue" d="M109.992,-67C119.919,-67 130.309,-67 140.422,-67"/>
<polygon fill="midnightblue" stroke="midnightblue" points="109.845,-63.5001 99.8453,-67 109.845,-70.5001 109.845,-63.5001"/>
</g>
</g>
</svg>
