<?xml version="1.0" encoding="UTF-8" standalone="no"?>
<!DOCTYPE svg PUBLIC "-//W3C//DTD SVG 1.1//EN"
 "http://www.w3.org/Graphics/SVG/1.1/DTD/svg11.dtd">
<!-- Generated by graphviz version 2.36.0 (20140111.2315)
 -->
<!-- Title: juce::Thread Pages: 1 -->
<svg width="260pt" height="165pt"
 viewBox="0.00 0.00 260.00 165.00" xmlns="http://www.w3.org/2000/svg" xmlns:xlink="http://www.w3.org/1999/xlink">
<g id="graph0" class="graph" transform="scale(1 1) rotate(0) translate(4 161)">
<title>juce::Thread</title>
<!-- Node1 -->
<g id="node1" class="node"><title>Node1</title>
<polygon fill="#bfbfbf" stroke="black" points="0.5,-66.5 0.5,-85.5 71.5,-85.5 71.5,-66.5 0.5,-66.5"/>
<text text-anchor="middle" x="36" y="-73.5" font-family="Helvetica,sans-Serif" font-size="10.00">juce::Thread</text>
</g>
<!-- Node2 -->
<g id="node2" class="node"><title>Node2</title>
<g id="a_node2"><a xlink:href="classjuce_1_1InterprocessConnectionServer.html" target="_top" xlink:title="An object that waits for client sockets to connect to a port on this host, and creates InterprocessCo...">
<polygon fill="none" stroke="black" points="108,-127 108,-157 252,-157 252,-127 108,-127"/>
<text text-anchor="start" x="116" y="-145" font-family="Helvetica,sans-Serif" font-size="10.00">juce::InterprocessConnection</text>
<text text-anchor="middle" x="180" y="-134" font-family="Helvetica,sans-Serif" font-size="10.00">Server</text>
</a>
</g>
</g>
<!-- Node1&#45;&gt;Node2 -->
<g id="edge1" class="edge"><title>Node1&#45;&gt;Node2</title>
<path fill="none" stroke="#8b1a1a" d="M60.4857,-91.0348C74.0442,-99.3362 91.6093,-109.461 108,-117 115.717,-120.55 124.093,-123.909 132.295,-126.945"/>
<polygon fill="#8b1a1a" stroke="#8b1a1a" points="62.1426,-87.9436 51.8028,-85.633 58.4449,-93.8873 62.1426,-87.9436"/>
</g>
<!-- Node3 -->
<g id="node3" class="node"><title>Node3</title>
<g id="a_node3"><a xlink:href="classjuce_1_1MidiOutput.html" target="_top" xlink:title="Controls a physical MIDI output device. ">
<polygon fill="none" stroke="black" points="136,-88.5 136,-107.5 224,-107.5 224,-88.5 136,-88.5"/>
<text text-anchor="middle" x="180" y="-95.5" font-family="Helvetica,sans-Serif" font-size="10.00">juce::MidiOutput</text>
</a>
</g>
</g>
<!-- Node1&#45;&gt;Node3 -->
<g id="edge2" class="edge"><title>Node1&#45;&gt;Node3</title>
<path fill="none" stroke="#8b1a1a" d="M81.6339,-82.9151C98.9885,-85.6038 118.793,-88.6721 135.989,-91.3363"/>
<polygon fill="#8b1a1a" stroke="#8b1a1a" points="82.1551,-79.4542 71.7371,-81.3818 81.0833,-86.3717 82.1551,-79.4542"/>
</g>
<!-- Node4 -->
<g id="node4" class="node"><title>Node4</title>
<g id="a_node4"><a xlink:href="classjuce_1_1ThreadWithProgressWindow.html" target="_top" xlink:title="A thread that automatically pops up a modal dialog box with a progress bar and cancel button while it...">
<polygon fill="none" stroke="black" points="115,-39 115,-69 245,-69 245,-39 115,-39"/>
<text text-anchor="start" x="123" y="-57" font-family="Helvetica,sans-Serif" font-size="10.00">juce::ThreadWithProgress</text>
<text text-anchor="middle" x="180" y="-46" font-family="Helvetica,sans-Serif" font-size="10.00">Window</text>
</a>
</g>
</g>
<!-- Node1&#45;&gt;Node4 -->
<g id="edge3" class="edge"><title>Node1&#45;&gt;Node4</title>
<path fill="none" stroke="midnightblue" d="M81.9063,-69.0427C92.4119,-67.4151 103.803,-65.6502 114.962,-63.9213"/>
<polygon fill="midnightblue" stroke="midnightblue" points="81.0833,-65.6283 71.7371,-70.6182 82.1551,-72.5458 81.0833,-65.6283"/>
</g>
<!-- Node5 -->
<g id="node5" class="node"><title>Node5</title>
<g id="a_node5"><a xlink:href="classjuce_1_1TimeSliceThread.html" target="_top" xlink:title="A thread that keeps a list of clients, and calls each one in turn, giving them all a chance to run so...">
<polygon fill="none" stroke="black" points="123,-0.5 123,-19.5 237,-19.5 237,-0.5 123,-0.5"/>
<text text-anchor="middle" x="180" y="-7.5" font-family="Helvetica,sans-Serif" font-size="10.00">juce::TimeSliceThread</text>
</a>
</g>
</g>
<!-- Node1&#45;&gt;Node5 -->
<g id="edge4" class="edge"><title>Node1&#45;&gt;Node5</title>
<path fill="none" stroke="midnightblue" d="M57.6255,-60.2582C71.3076,-50.4303 89.9966,-38.1422 108,-30 117.101,-25.8839 127.248,-22.4193 136.957,-19.5914"/>
<polygon fill="midnightblue" stroke="midnightblue" points="55.3997,-57.5504 49.4149,-66.293 59.5454,-63.1908 55.3997,-57.5504"/>
</g>
</g>
</svg>
