<?xml version="1.0" encoding="UTF-8" standalone="no"?>
<!DOCTYPE svg PUBLIC "-//W3C//DTD SVG 1.1//EN"
 "http://www.w3.org/Graphics/SVG/1.1/DTD/svg11.dtd">
<!-- Generated by graphviz version 2.36.0 (20140111.2315)
 -->
<!-- Title: juce::MultiDocumentPanelWindow Pages: 1 -->
<svg width="138pt" height="320pt"
 viewBox="0.00 0.00 138.00 320.00" xmlns="http://www.w3.org/2000/svg" xmlns:xlink="http://www.w3.org/1999/xlink">
<g id="graph0" class="graph" transform="scale(1 1) rotate(0) translate(4 316)">
<title>juce::MultiDocumentPanelWindow</title>
<!-- Node1 -->
<g id="node1" class="node"><title>Node1</title>
<polygon fill="#bfbfbf" stroke="black" points="-0.5,-1 -0.5,-31 130.5,-31 130.5,-1 -0.5,-1"/>
<text text-anchor="start" x="7.5" y="-19" font-family="Helvetica,sans-Serif" font-size="10.00">juce::MultiDocumentPanel</text>
<text text-anchor="middle" x="65" y="-8" font-family="Helvetica,sans-Serif" font-size="10.00">Window</text>
</g>
<!-- Node2 -->
<g id="node2" class="node"><title>Node2</title>
<g id="a_node2"><a xlink:href="classjuce_1_1DocumentWindow.html" target="_top" xlink:title="A resizable window with a title bar and maximise, minimise and close buttons. ">
<polygon fill="none" stroke="black" points="4.5,-68.5 4.5,-87.5 125.5,-87.5 125.5,-68.5 4.5,-68.5"/>
<text text-anchor="middle" x="65" y="-75.5" font-family="Helvetica,sans-Serif" font-size="10.00">juce::DocumentWindow</text>
</a>
</g>
</g>
<!-- Node2&#45;&gt;Node1 -->
<g id="edge1" class="edge"><title>Node2&#45;&gt;Node1</title>
<path fill="none" stroke="midnightblue" d="M65,-58.3707C65,-49.5849 65,-39.2721 65,-31.1408"/>
<polygon fill="midnightblue" stroke="midnightblue" points="61.5001,-58.4034 65,-68.4035 68.5001,-58.4035 61.5001,-58.4034"/>
</g>
<!-- Node3 -->
<g id="node3" class="node"><title>Node3</title>
<g id="a_node3"><a xlink:href="classjuce_1_1ResizableWindow.html" target="_top" xlink:title="A base class for top&#45;level windows that can be dragged around and resized. ">
<polygon fill="none" stroke="black" points="5.5,-124.5 5.5,-143.5 124.5,-143.5 124.5,-124.5 5.5,-124.5"/>
<text text-anchor="middle" x="65" y="-131.5" font-family="Helvetica,sans-Serif" font-size="10.00">juce::ResizableWindow</text>
</a>
</g>
</g>
<!-- Node3&#45;&gt;Node2 -->
<g id="edge2" class="edge"><title>Node3&#45;&gt;Node2</title>
<path fill="none" stroke="midnightblue" d="M65,-113.805C65,-104.91 65,-94.7798 65,-87.7511"/>
<polygon fill="midnightblue" stroke="midnightblue" points="61.5001,-114.083 65,-124.083 68.5001,-114.083 61.5001,-114.083"/>
</g>
<!-- Node4 -->
<g id="node4" class="node"><title>Node4</title>
<g id="a_node4"><a xlink:href="classjuce_1_1TopLevelWindow.html" target="_top" xlink:title="A base class for top&#45;level windows. ">
<polygon fill="none" stroke="black" points="7,-180.5 7,-199.5 123,-199.5 123,-180.5 7,-180.5"/>
<text text-anchor="middle" x="65" y="-187.5" font-family="Helvetica,sans-Serif" font-size="10.00">juce::TopLevelWindow</text>
</a>
</g>
</g>
<!-- Node4&#45;&gt;Node3 -->
<g id="edge3" class="edge"><title>Node4&#45;&gt;Node3</title>
<path fill="none" stroke="midnightblue" d="M65,-169.805C65,-160.91 65,-150.78 65,-143.751"/>
<polygon fill="midnightblue" stroke="midnightblue" points="61.5001,-170.083 65,-180.083 68.5001,-170.083 61.5001,-170.083"/>
</g>
<!-- Node5 -->
<g id="node5" class="node"><title>Node5</title>
<g id="a_node5"><a xlink:href="classjuce_1_1Component.html" target="_top" xlink:title="The base class for all JUCE user&#45;interface objects. ">
<polygon fill="none" stroke="black" points="19.5,-236.5 19.5,-255.5 110.5,-255.5 110.5,-236.5 19.5,-236.5"/>
<text text-anchor="middle" x="65" y="-243.5" font-family="Helvetica,sans-Serif" font-size="10.00">juce::Component</text>
</a>
</g>
</g>
<!-- Node5&#45;&gt;Node4 -->
<g id="edge4" class="edge"><title>Node5&#45;&gt;Node4</title>
<path fill="none" stroke="midnightblue" d="M65,-225.805C65,-216.91 65,-206.78 65,-199.751"/>
<polygon fill="midnightblue" stroke="midnightblue" points="61.5001,-226.083 65,-236.083 68.5001,-226.083 61.5001,-226.083"/>
</g>
<!-- Node6 -->
<g id="node6" class="node"><title>Node6</title>
<g id="a_node6"><a xlink:href="classjuce_1_1MouseListener.html" target="_top" xlink:title="A MouseListener can be registered with a component to receive callbacks about mouse events that happe...">
<polygon fill="none" stroke="black" points="13,-292.5 13,-311.5 117,-311.5 117,-292.5 13,-292.5"/>
<text text-anchor="middle" x="65" y="-299.5" font-family="Helvetica,sans-Serif" font-size="10.00">juce::MouseListener</text>
</a>
</g>
</g>
<!-- Node6&#45;&gt;Node5 -->
<g id="edge5" class="edge"><title>Node6&#45;&gt;Node5</title>
<path fill="none" stroke="midnightblue" d="M65,-281.805C65,-272.91 65,-262.78 65,-255.751"/>
<polygon fill="midnightblue" stroke="midnightblue" points="61.5001,-282.083 65,-292.083 68.5001,-282.083 61.5001,-282.083"/>
</g>
</g>
</svg>
