<?xml version="1.0" encoding="UTF-8" standalone="no"?>
<!DOCTYPE svg PUBLIC "-//W3C//DTD SVG 1.1//EN"
 "http://www.w3.org/Graphics/SVG/1.1/DTD/svg11.dtd">
<!-- Generated by graphviz version 2.36.0 (20140111.2315)
 -->
<!-- Title: SettableTooltipClient Pages: 1 -->
<svg width="700pt" height="636pt"
 viewBox="0.00 0.00 700.00 636.00" xmlns="http://www.w3.org/2000/svg" xmlns:xlink="http://www.w3.org/1999/xlink">
<g id="graph0" class="graph" transform="scale(1 1) rotate(0) translate(4 632)">
<title>SettableTooltipClient</title>
<!-- Node1 -->
<g id="node1" class="node"><title>Node1</title>
<polygon fill="#bfbfbf" stroke="black" points="108.5,-247.5 108.5,-266.5 215.5,-266.5 215.5,-247.5 108.5,-247.5"/>
<text text-anchor="middle" x="162" y="-254.5" font-family="Helvetica,sans-Serif" font-size="10.00">SettableTooltipClient</text>
</g>
<!-- Node3 -->
<g id="node3" class="node"><title>Node3</title>
<g id="a_node3"><a xlink:href="group__juce__gui__basics-buttons.html#classButton" target="_top" xlink:title="A base class for buttons. ">
<polygon fill="none" stroke="black" points="304.5,-456.5 304.5,-475.5 349.5,-475.5 349.5,-456.5 304.5,-456.5"/>
<text text-anchor="middle" x="327" y="-463.5" font-family="Helvetica,sans-Serif" font-size="10.00">Button</text>
</a>
</g>
</g>
<!-- Node1&#45;&gt;Node3 -->
<g id="edge2" class="edge"><title>Node1&#45;&gt;Node3</title>
<path fill="none" stroke="midnightblue" d="M166.463,-276.637C174.351,-315.36 197.374,-401.728 252,-447 266.706,-459.188 288.282,-463.676 304.346,-465.27"/>
<polygon fill="midnightblue" stroke="midnightblue" points="169.869,-275.813 164.554,-266.648 162.994,-277.127 169.869,-275.813"/>
</g>
<!-- Node14 -->
<g id="node14" class="node"><title>Node14</title>
<g id="a_node14"><a xlink:href="group__juce__gui__basics-widgets.html#classComboBox" target="_top" xlink:title="A component that lets the user choose from a drop&#45;down list of choices. ">
<polygon fill="none" stroke="black" points="294.5,-418.5 294.5,-437.5 359.5,-437.5 359.5,-418.5 294.5,-418.5"/>
<text text-anchor="middle" x="327" y="-425.5" font-family="Helvetica,sans-Serif" font-size="10.00">ComboBox</text>
</a>
</g>
</g>
<!-- Node1&#45;&gt;Node14 -->
<g id="edge13" class="edge"><title>Node1&#45;&gt;Node14</title>
<path fill="none" stroke="midnightblue" d="M168.827,-276.266C179.682,-308.793 206.157,-374.423 252,-409 264.178,-418.185 280.348,-422.952 294.466,-425.417"/>
<polygon fill="midnightblue" stroke="midnightblue" points="172.115,-275.058 165.738,-266.597 165.447,-277.188 172.115,-275.058"/>
</g>
<!-- Node15 -->
<g id="node15" class="node"><title>Node15</title>
<g id="a_node15"><a xlink:href="group__juce__gui__basics-filebrowser.html#classFilenameComponent" target="_top" xlink:title="Shows a filename as an editable text box, with a &#39;browse&#39; button and a drop&#45;down list for recently se...">
<polygon fill="none" stroke="black" points="273.5,-380.5 273.5,-399.5 380.5,-399.5 380.5,-380.5 273.5,-380.5"/>
<text text-anchor="middle" x="327" y="-387.5" font-family="Helvetica,sans-Serif" font-size="10.00">FilenameComponent</text>
</a>
</g>
</g>
<!-- Node1&#45;&gt;Node15 -->
<g id="edge14" class="edge"><title>Node1&#45;&gt;Node15</title>
<path fill="none" stroke="midnightblue" d="M172.468,-275.722C186.363,-301.252 214.723,-346.597 252,-371 258.437,-375.214 265.755,-378.493 273.225,-381.046"/>
<polygon fill="midnightblue" stroke="midnightblue" points="175.47,-273.912 167.712,-266.697 169.278,-277.176 175.47,-273.912"/>
</g>
<!-- Node16 -->
<g id="node16" class="node"><title>Node16</title>
<g id="a_node16"><a xlink:href="group__juce__gui__basics-filebrowser.html#classFileSearchPathListComponent" target="_top" xlink:title="Shows a set of file paths in a list, allowing them to be added, removed or re&#45;ordered. ">
<polygon fill="none" stroke="black" points="252.5,-342.5 252.5,-361.5 401.5,-361.5 401.5,-342.5 252.5,-342.5"/>
<text text-anchor="middle" x="327" y="-349.5" font-family="Helvetica,sans-Serif" font-size="10.00">FileSearchPathListComponent</text>
</a>
</g>
</g>
<!-- Node1&#45;&gt;Node16 -->
<g id="edge15" class="edge"><title>Node1&#45;&gt;Node16</title>
<path fill="none" stroke="midnightblue" d="M178.506,-274.219C195.059,-291.566 222.868,-317.869 252,-333 259.416,-336.852 267.663,-339.958 275.884,-342.453"/>
<polygon fill="midnightblue" stroke="midnightblue" points="180.704,-271.444 171.327,-266.511 175.581,-276.215 180.704,-271.444"/>
</g>
<!-- Node17 -->
<g id="node17" class="node"><title>Node17</title>
<g id="a_node17"><a xlink:href="group__juce__gui__basics-widgets.html#classImageComponent" target="_top" xlink:title="A component that simply displays an image. ">
<polygon fill="none" stroke="black" points="280,-304.5 280,-323.5 374,-323.5 374,-304.5 280,-304.5"/>
<text text-anchor="middle" x="327" y="-311.5" font-family="Helvetica,sans-Serif" font-size="10.00">ImageComponent</text>
</a>
</g>
</g>
<!-- Node1&#45;&gt;Node17 -->
<g id="edge16" class="edge"><title>Node1&#45;&gt;Node17</title>
<path fill="none" stroke="midnightblue" d="M192.606,-270.984C209.713,-278.723 231.787,-288.134 252,-295 262.299,-298.498 273.592,-301.704 284.186,-304.447"/>
<polygon fill="midnightblue" stroke="midnightblue" points="193.708,-267.639 183.159,-266.652 190.79,-274.002 193.708,-267.639"/>
</g>
<!-- Node18 -->
<g id="node18" class="node"><title>Node18</title>
<g id="a_node18"><a xlink:href="group__juce__gui__basics-widgets.html#classLabel" target="_top" xlink:title="A component that displays a text string, and can optionally become a text editor when clicked...">
<polygon fill="none" stroke="black" points="307,-266.5 307,-285.5 347,-285.5 347,-266.5 307,-266.5"/>
<text text-anchor="middle" x="327" y="-273.5" font-family="Helvetica,sans-Serif" font-size="10.00">Label</text>
</a>
</g>
</g>
<!-- Node1&#45;&gt;Node18 -->
<g id="edge17" class="edge"><title>Node1&#45;&gt;Node18</title>
<path fill="none" stroke="midnightblue" d="M225.992,-264.343C254.925,-267.715 287.142,-271.471 306.993,-273.784"/>
<polygon fill="midnightblue" stroke="midnightblue" points="226.259,-260.85 215.921,-263.169 225.449,-267.803 226.259,-260.85"/>
</g>
<!-- Node19 -->
<g id="node19" class="node"><title>Node19</title>
<g id="a_node19"><a xlink:href="group__juce__gui__basics-widgets.html#classListBox" target="_top" xlink:title="A list of items that can be scrolled vertically. ">
<polygon fill="none" stroke="black" points="302,-228.5 302,-247.5 352,-247.5 352,-228.5 302,-228.5"/>
<text text-anchor="middle" x="327" y="-235.5" font-family="Helvetica,sans-Serif" font-size="10.00">ListBox</text>
</a>
</g>
</g>
<!-- Node1&#45;&gt;Node19 -->
<g id="edge18" class="edge"><title>Node1&#45;&gt;Node19</title>
<path fill="none" stroke="midnightblue" d="M225.9,-249.668C252.354,-246.585 281.57,-243.179 301.574,-240.847"/>
<polygon fill="midnightblue" stroke="midnightblue" points="225.449,-246.197 215.921,-250.831 226.259,-253.15 225.449,-246.197"/>
</g>
<!-- Node22 -->
<g id="node22" class="node"><title>Node22</title>
<g id="a_node22"><a xlink:href="group__juce__gui__basics-widgets.html#classProgressBar" target="_top" xlink:title="A progress bar component. ">
<polygon fill="none" stroke="black" points="291.5,-190.5 291.5,-209.5 362.5,-209.5 362.5,-190.5 291.5,-190.5"/>
<text text-anchor="middle" x="327" y="-197.5" font-family="Helvetica,sans-Serif" font-size="10.00">ProgressBar</text>
</a>
</g>
</g>
<!-- Node1&#45;&gt;Node22 -->
<g id="edge21" class="edge"><title>Node1&#45;&gt;Node22</title>
<path fill="none" stroke="midnightblue" d="M192.606,-243.016C209.713,-235.277 231.787,-225.866 252,-219 264.685,-214.692 278.879,-210.825 291.417,-207.723"/>
<polygon fill="midnightblue" stroke="midnightblue" points="190.79,-239.998 183.159,-247.348 193.708,-246.361 190.79,-239.998"/>
</g>
<!-- Node23 -->
<g id="node23" class="node"><title>Node23</title>
<g id="a_node23"><a xlink:href="group__juce__gui__basics-properties.html#classPropertyComponent" target="_top" xlink:title="A base class for a component that goes in a PropertyPanel and displays one of an item&#39;s properties...">
<polygon fill="none" stroke="black" points="275,-152.5 275,-171.5 379,-171.5 379,-152.5 275,-152.5"/>
<text text-anchor="middle" x="327" y="-159.5" font-family="Helvetica,sans-Serif" font-size="10.00">PropertyComponent</text>
</a>
</g>
</g>
<!-- Node1&#45;&gt;Node23 -->
<g id="edge22" class="edge"><title>Node1&#45;&gt;Node23</title>
<path fill="none" stroke="midnightblue" d="M178.506,-239.781C195.059,-222.434 222.868,-196.131 252,-181 259.416,-177.148 267.663,-174.042 275.884,-171.547"/>
<polygon fill="midnightblue" stroke="midnightblue" points="175.581,-237.785 171.327,-247.489 180.704,-242.556 175.581,-237.785"/>
</g>
<!-- Node29 -->
<g id="node29" class="node"><title>Node29</title>
<g id="a_node29"><a xlink:href="group__juce__gui__basics-widgets.html#classSlider" target="_top" xlink:title="A slider control for changing a value. ">
<polygon fill="none" stroke="black" points="306.5,-114.5 306.5,-133.5 347.5,-133.5 347.5,-114.5 306.5,-114.5"/>
<text text-anchor="middle" x="327" y="-121.5" font-family="Helvetica,sans-Serif" font-size="10.00">Slider</text>
</a>
</g>
</g>
<!-- Node1&#45;&gt;Node29 -->
<g id="edge28" class="edge"><title>Node1&#45;&gt;Node29</title>
<path fill="none" stroke="midnightblue" d="M172.468,-238.278C186.363,-212.748 214.723,-167.403 252,-143 268.424,-132.248 290.591,-127.578 306.371,-125.551"/>
<polygon fill="midnightblue" stroke="midnightblue" points="169.278,-236.824 167.712,-247.303 175.47,-240.088 169.278,-236.824"/>
</g>
<!-- Node30 -->
<g id="node30" class="node"><title>Node30</title>
<g id="a_node30"><a xlink:href="group__juce__gui__basics-widgets.html#classTextEditor" target="_top" xlink:title="An editable text box. ">
<polygon fill="none" stroke="black" points="296,-76.5 296,-95.5 358,-95.5 358,-76.5 296,-76.5"/>
<text text-anchor="middle" x="327" y="-83.5" font-family="Helvetica,sans-Serif" font-size="10.00">TextEditor</text>
</a>
</g>
</g>
<!-- Node1&#45;&gt;Node30 -->
<g id="edge29" class="edge"><title>Node1&#45;&gt;Node30</title>
<path fill="none" stroke="midnightblue" d="M168.827,-237.734C179.682,-205.207 206.157,-139.577 252,-105 264.602,-95.4954 281.478,-90.7216 295.931,-88.3342"/>
<polygon fill="midnightblue" stroke="midnightblue" points="165.447,-236.812 165.738,-247.403 172.115,-238.942 165.447,-236.812"/>
</g>
<!-- Node31 -->
<g id="node31" class="node"><title>Node31</title>
<g id="a_node31"><a xlink:href="group__juce__gui__basics-widgets.html#classTreeView" target="_top" xlink:title="A tree&#45;view component. ">
<polygon fill="none" stroke="black" points="298,-19.5 298,-38.5 356,-38.5 356,-19.5 298,-19.5"/>
<text text-anchor="middle" x="327" y="-26.5" font-family="Helvetica,sans-Serif" font-size="10.00">TreeView</text>
</a>
</g>
</g>
<!-- Node1&#45;&gt;Node31 -->
<g id="edge30" class="edge"><title>Node1&#45;&gt;Node31</title>
<path fill="none" stroke="midnightblue" d="M167.646,-237.356C177.388,-199.925 203.193,-117.614 252,-67 264.631,-53.9011 282.755,-44.491 297.905,-38.3117"/>
<polygon fill="midnightblue" stroke="midnightblue" points="164.154,-236.897 165.131,-247.446 170.946,-238.59 164.154,-236.897"/>
</g>
<!-- Node2 -->
<g id="node2" class="node"><title>Node2</title>
<g id="a_node2"><a xlink:href="group__juce__gui__basics-mouse.html#classTooltipClient" target="_top" xlink:title="Components that want to use pop&#45;up tooltips should implement this interface. ">
<polygon fill="none" stroke="black" points="0.5,-247.5 0.5,-266.5 71.5,-266.5 71.5,-247.5 0.5,-247.5"/>
<text text-anchor="middle" x="36" y="-254.5" font-family="Helvetica,sans-Serif" font-size="10.00">TooltipClient</text>
</a>
</g>
</g>
<!-- Node2&#45;&gt;Node1 -->
<g id="edge1" class="edge"><title>Node2&#45;&gt;Node1</title>
<path fill="none" stroke="midnightblue" d="M81.6946,-257C90.2533,-257 99.2902,-257 108.078,-257"/>
<polygon fill="midnightblue" stroke="midnightblue" points="81.5409,-253.5 71.5409,-257 81.5409,-260.5 81.5409,-253.5"/>
</g>
<!-- Node4 -->
<g id="node4" class="node"><title>Node4</title>
<g id="a_node4"><a xlink:href="group__juce__gui__basics-buttons.html#classArrowButton" target="_top" xlink:title="A button with an arrow in it. ">
<polygon fill="none" stroke="black" points="472.5,-608.5 472.5,-627.5 543.5,-627.5 543.5,-608.5 472.5,-608.5"/>
<text text-anchor="middle" x="508" y="-615.5" font-family="Helvetica,sans-Serif" font-size="10.00">ArrowButton</text>
</a>
</g>
</g>
<!-- Node3&#45;&gt;Node4 -->
<g id="edge3" class="edge"><title>Node3&#45;&gt;Node4</title>
<path fill="none" stroke="midnightblue" d="M338.174,-484.452C355.064,-513.337 391.663,-569.022 438,-599 448.224,-605.614 460.731,-609.949 472.276,-612.78"/>
<polygon fill="midnightblue" stroke="midnightblue" points="341.211,-482.712 333.217,-475.76 335.131,-486.18 341.211,-482.712"/>
</g>
<!-- Node5 -->
<g id="node5" class="node"><title>Node5</title>
<g id="a_node5"><a xlink:href="group__juce__gui__basics-buttons.html#classDrawableButton" target="_top" xlink:title="A button that displays a Drawable. ">
<polygon fill="none" stroke="black" points="465,-570.5 465,-589.5 551,-589.5 551,-570.5 465,-570.5"/>
<text text-anchor="middle" x="508" y="-577.5" font-family="Helvetica,sans-Serif" font-size="10.00">DrawableButton</text>
</a>
</g>
</g>
<!-- Node3&#45;&gt;Node5 -->
<g id="edge4" class="edge"><title>Node3&#45;&gt;Node5</title>
<path fill="none" stroke="midnightblue" d="M343.341,-483.313C363.158,-504.636 399.683,-540.536 438,-561 446.33,-565.449 455.795,-568.93 464.987,-571.627"/>
<polygon fill="midnightblue" stroke="midnightblue" points="345.691,-480.696 336.367,-475.663 340.517,-485.411 345.691,-480.696"/>
</g>
<!-- Node6 -->
<g id="node6" class="node"><title>Node6</title>
<g id="a_node6"><a xlink:href="group__juce__gui__basics-buttons.html#classHyperlinkButton" target="_top" xlink:title="A button showing an underlined weblink, that will launch the link when it&#39;s clicked. ">
<polygon fill="none" stroke="black" points="465,-532.5 465,-551.5 551,-551.5 551,-532.5 465,-532.5"/>
<text text-anchor="middle" x="508" y="-539.5" font-family="Helvetica,sans-Serif" font-size="10.00">HyperlinkButton</text>
</a>
</g>
</g>
<!-- Node3&#45;&gt;Node6 -->
<g id="edge5" class="edge"><title>Node3&#45;&gt;Node6</title>
<path fill="none" stroke="midnightblue" d="M352.826,-480.78C374.675,-493.316 407.645,-511.108 438,-523 447.139,-526.581 457.209,-529.761 466.764,-532.446"/>
<polygon fill="midnightblue" stroke="midnightblue" points="354.307,-477.593 343.902,-475.596 350.791,-483.645 354.307,-477.593"/>
</g>
<!-- Node7 -->
<g id="node7" class="node"><title>Node7</title>
<g id="a_node7"><a xlink:href="group__juce__gui__basics-buttons.html#classImageButton" target="_top" xlink:title="As the title suggests, this is a button containing an image. ">
<polygon fill="none" stroke="black" points="472,-494.5 472,-513.5 544,-513.5 544,-494.5 472,-494.5"/>
<text text-anchor="middle" x="508" y="-501.5" font-family="Helvetica,sans-Serif" font-size="10.00">ImageButton</text>
</a>
</g>
</g>
<!-- Node3&#45;&gt;Node7 -->
<g id="edge6" class="edge"><title>Node3&#45;&gt;Node7</title>
<path fill="none" stroke="midnightblue" d="M359.561,-472.7C390.986,-479.371 439.122,-489.59 471.774,-496.522"/>
<polygon fill="midnightblue" stroke="midnightblue" points="360.1,-469.237 349.592,-470.584 358.647,-476.084 360.1,-469.237"/>
</g>
<!-- Node8 -->
<g id="node8" class="node"><title>Node8</title>
<g id="a_node8"><a xlink:href="group__juce__gui__basics-buttons.html#classShapeButton" target="_top" xlink:title="A button that contains a filled shape. ">
<polygon fill="none" stroke="black" points="471.5,-456.5 471.5,-475.5 544.5,-475.5 544.5,-456.5 471.5,-456.5"/>
<text text-anchor="middle" x="508" y="-463.5" font-family="Helvetica,sans-Serif" font-size="10.00">ShapeButton</text>
</a>
</g>
</g>
<!-- Node3&#45;&gt;Node8 -->
<g id="edge7" class="edge"><title>Node3&#45;&gt;Node8</title>
<path fill="none" stroke="midnightblue" d="M359.938,-466C391.262,-466 438.924,-466 471.439,-466"/>
<polygon fill="midnightblue" stroke="midnightblue" points="359.592,-462.5 349.592,-466 359.592,-469.5 359.592,-462.5"/>
</g>
<!-- Node9 -->
<g id="node9" class="node"><title>Node9</title>
<g id="a_node9"><a xlink:href="group__juce__gui__basics-layout.html#classTabBarButton" target="_top" xlink:title="In a TabbedButtonBar, this component is used for each of the buttons. ">
<polygon fill="none" stroke="black" points="469.5,-418.5 469.5,-437.5 546.5,-437.5 546.5,-418.5 469.5,-418.5"/>
<text text-anchor="middle" x="508" y="-425.5" font-family="Helvetica,sans-Serif" font-size="10.00">TabBarButton</text>
</a>
</g>
</g>
<!-- Node3&#45;&gt;Node9 -->
<g id="edge8" class="edge"><title>Node3&#45;&gt;Node9</title>
<path fill="none" stroke="midnightblue" d="M359.734,-459.263C390.409,-452.751 436.892,-442.883 469.407,-435.981"/>
<polygon fill="midnightblue" stroke="midnightblue" points="358.647,-455.916 349.592,-461.416 360.1,-462.763 358.647,-455.916"/>
</g>
<!-- Node10 -->
<g id="node10" class="node"><title>Node10</title>
<g id="a_node10"><a xlink:href="group__juce__gui__basics-buttons.html#classTextButton" target="_top" xlink:title="A button that uses the standard lozenge&#45;shaped background with a line of text on it. ">
<polygon fill="none" stroke="black" points="475.5,-380.5 475.5,-399.5 540.5,-399.5 540.5,-380.5 475.5,-380.5"/>
<text text-anchor="middle" x="508" y="-387.5" font-family="Helvetica,sans-Serif" font-size="10.00">TextButton</text>
</a>
</g>
</g>
<!-- Node3&#45;&gt;Node10 -->
<g id="edge9" class="edge"><title>Node3&#45;&gt;Node10</title>
<path fill="none" stroke="midnightblue" d="M359.616,-461.906C373.331,-459.142 389.155,-454.558 402,-447 422.051,-435.201 418.053,-420.972 438,-409 449.293,-402.222 463.064,-397.8 475.324,-394.944"/>
<polygon fill="midnightblue" stroke="midnightblue" points="358.857,-458.486 349.625,-463.684 360.083,-465.378 358.857,-458.486"/>
</g>
<!-- Node11 -->
<g id="node11" class="node"><title>Node11</title>
<g id="a_node11"><a xlink:href="group__juce__gui__basics-buttons.html#classToggleButton" target="_top" xlink:title="A button that can be toggled on/off. ">
<polygon fill="none" stroke="black" points="471,-342.5 471,-361.5 545,-361.5 545,-342.5 471,-342.5"/>
<text text-anchor="middle" x="508" y="-349.5" font-family="Helvetica,sans-Serif" font-size="10.00">ToggleButton</text>
</a>
</g>
</g>
<!-- Node3&#45;&gt;Node11 -->
<g id="edge10" class="edge"><title>Node3&#45;&gt;Node11</title>
<path fill="none" stroke="midnightblue" d="M359.586,-463.946C373.861,-461.601 390.145,-456.782 402,-447 430.829,-423.213 409.379,-395.037 438,-371 447.229,-363.249 459.371,-358.644 470.893,-355.914"/>
<polygon fill="midnightblue" stroke="midnightblue" points="359.098,-460.48 349.639,-465.252 360.01,-467.421 359.098,-460.48"/>
</g>
<!-- Node12 -->
<g id="node12" class="node"><title>Node12</title>
<g id="a_node12"><a xlink:href="group__juce__gui__basics-widgets.html#classToolbarItemComponent" target="_top" xlink:title="A component that can be used as one of the items in a Toolbar. ">
<polygon fill="none" stroke="black" points="448.5,-304.5 448.5,-323.5 567.5,-323.5 567.5,-304.5 448.5,-304.5"/>
<text text-anchor="middle" x="508" y="-311.5" font-family="Helvetica,sans-Serif" font-size="10.00">ToolbarItemComponent</text>
</a>
</g>
</g>
<!-- Node3&#45;&gt;Node12 -->
<g id="edge11" class="edge"><title>Node3&#45;&gt;Node12</title>
<path fill="none" stroke="midnightblue" d="M359.911,-464.698C374.396,-462.529 390.762,-457.641 402,-447 440.581,-410.468 399.737,-369.866 438,-333 442.026,-329.121 446.769,-326.018 451.852,-323.539"/>
<polygon fill="midnightblue" stroke="midnightblue" points="359.34,-461.24 349.796,-465.84 360.125,-468.196 359.34,-461.24"/>
</g>
<!-- Node13 -->
<g id="node13" class="node"><title>Node13</title>
<g id="a_node13"><a xlink:href="group__juce__gui__basics-buttons.html#classToolbarButton" target="_top" xlink:title="A type of button designed to go on a toolbar. ">
<polygon fill="none" stroke="black" points="614.5,-304.5 614.5,-323.5 691.5,-323.5 691.5,-304.5 614.5,-304.5"/>
<text text-anchor="middle" x="653" y="-311.5" font-family="Helvetica,sans-Serif" font-size="10.00">ToolbarButton</text>
</a>
</g>
</g>
<!-- Node12&#45;&gt;Node13 -->
<g id="edge12" class="edge"><title>Node12&#45;&gt;Node13</title>
<path fill="none" stroke="midnightblue" d="M577.619,-314C590.21,-314 602.921,-314 614.186,-314"/>
<polygon fill="midnightblue" stroke="midnightblue" points="577.576,-310.5 567.576,-314 577.576,-317.5 577.576,-310.5"/>
</g>
<!-- Node20 -->
<g id="node20" class="node"><title>Node20</title>
<g id="a_node20"><a xlink:href="group__juce__gui__basics-filebrowser.html#classFileListComponent" target="_top" xlink:title="A component that displays the files in a directory as a listbox. ">
<polygon fill="none" stroke="black" points="459,-266.5 459,-285.5 557,-285.5 557,-266.5 459,-266.5"/>
<text text-anchor="middle" x="508" y="-273.5" font-family="Helvetica,sans-Serif" font-size="10.00">FileListComponent</text>
</a>
</g>
</g>
<!-- Node19&#45;&gt;Node20 -->
<g id="edge19" class="edge"><title>Node19&#45;&gt;Node20</title>
<path fill="none" stroke="midnightblue" d="M361.982,-245.214C390.311,-251.228 430.905,-259.846 461.943,-266.435"/>
<polygon fill="midnightblue" stroke="midnightblue" points="362.65,-241.778 352.141,-243.125 361.196,-248.625 362.65,-241.778"/>
</g>
<!-- Node21 -->
<g id="node21" class="node"><title>Node21</title>
<g id="a_node21"><a xlink:href="group__juce__gui__basics-widgets.html#classTableListBox" target="_top" xlink:title="A table of cells, using a TableHeaderComponent as its header. ">
<polygon fill="none" stroke="black" points="471,-228.5 471,-247.5 545,-247.5 545,-228.5 471,-228.5"/>
<text text-anchor="middle" x="508" y="-235.5" font-family="Helvetica,sans-Serif" font-size="10.00">TableListBox</text>
</a>
</g>
</g>
<!-- Node19&#45;&gt;Node21 -->
<g id="edge20" class="edge"><title>Node19&#45;&gt;Node21</title>
<path fill="none" stroke="midnightblue" d="M362.501,-238C393.633,-238 439.264,-238 470.884,-238"/>
<polygon fill="midnightblue" stroke="midnightblue" points="362.141,-234.5 352.141,-238 362.141,-241.5 362.141,-234.5"/>
</g>
<!-- Node24 -->
<g id="node24" class="node"><title>Node24</title>
<g id="a_node24"><a xlink:href="group__juce__gui__basics-properties.html#classBooleanPropertyComponent" target="_top" xlink:title="A PropertyComponent that contains an on/off toggle button. ">
<polygon fill="none" stroke="black" points="438.5,-190.5 438.5,-209.5 577.5,-209.5 577.5,-190.5 438.5,-190.5"/>
<text text-anchor="middle" x="508" y="-197.5" font-family="Helvetica,sans-Serif" font-size="10.00">BooleanPropertyComponent</text>
</a>
</g>
</g>
<!-- Node23&#45;&gt;Node24 -->
<g id="edge23" class="edge"><title>Node23&#45;&gt;Node24</title>
<path fill="none" stroke="midnightblue" d="M383.024,-173.681C408.408,-179.07 438.161,-185.386 462.156,-190.48"/>
<polygon fill="midnightblue" stroke="midnightblue" points="383.678,-170.242 373.169,-171.589 382.224,-177.089 383.678,-170.242"/>
</g>
<!-- Node25 -->
<g id="node25" class="node"><title>Node25</title>
<g id="a_node25"><a xlink:href="group__juce__gui__basics-properties.html#classButtonPropertyComponent" target="_top" xlink:title="A PropertyComponent that contains a button. ">
<polygon fill="none" stroke="black" points="442,-152.5 442,-171.5 574,-171.5 574,-152.5 442,-152.5"/>
<text text-anchor="middle" x="508" y="-159.5" font-family="Helvetica,sans-Serif" font-size="10.00">ButtonPropertyComponent</text>
</a>
</g>
</g>
<!-- Node23&#45;&gt;Node25 -->
<g id="edge24" class="edge"><title>Node23&#45;&gt;Node25</title>
<path fill="none" stroke="midnightblue" d="M389.602,-162C406.503,-162 424.878,-162 441.965,-162"/>
<polygon fill="midnightblue" stroke="midnightblue" points="389.294,-158.5 379.294,-162 389.294,-165.5 389.294,-158.5"/>
</g>
<!-- Node26 -->
<g id="node26" class="node"><title>Node26</title>
<g id="a_node26"><a xlink:href="group__juce__gui__basics-properties.html#classChoicePropertyComponent" target="_top" xlink:title="A PropertyComponent that shows its value as a combo box. ">
<polygon fill="none" stroke="black" points="441,-114.5 441,-133.5 575,-133.5 575,-114.5 441,-114.5"/>
<text text-anchor="middle" x="508" y="-121.5" font-family="Helvetica,sans-Serif" font-size="10.00">ChoicePropertyComponent</text>
</a>
</g>
</g>
<!-- Node23&#45;&gt;Node26 -->
<g id="edge25" class="edge"><title>Node23&#45;&gt;Node26</title>
<path fill="none" stroke="midnightblue" d="M383.024,-150.319C408.408,-144.93 438.161,-138.614 462.156,-133.52"/>
<polygon fill="midnightblue" stroke="midnightblue" points="382.224,-146.911 373.169,-152.411 383.678,-153.758 382.224,-146.911"/>
</g>
<!-- Node27 -->
<g id="node27" class="node"><title>Node27</title>
<g id="a_node27"><a xlink:href="group__juce__gui__basics-properties.html#classSliderPropertyComponent" target="_top" xlink:title="A PropertyComponent that shows its value as a slider. ">
<polygon fill="none" stroke="black" points="444,-76.5 444,-95.5 572,-95.5 572,-76.5 444,-76.5"/>
<text text-anchor="middle" x="508" y="-83.5" font-family="Helvetica,sans-Serif" font-size="10.00">SliderPropertyComponent</text>
</a>
</g>
</g>
<!-- Node23&#45;&gt;Node27 -->
<g id="edge26" class="edge"><title>Node23&#45;&gt;Node27</title>
<path fill="none" stroke="midnightblue" d="M388.82,-149.421C393.41,-147.564 397.86,-145.436 402,-143 422.051,-131.201 418.053,-116.972 438,-105 444.392,-101.164 451.578,-98.0817 458.835,-95.6115"/>
<polygon fill="midnightblue" stroke="midnightblue" points="387.481,-146.183 379.26,-152.865 389.854,-152.768 387.481,-146.183"/>
</g>
<!-- Node28 -->
<g id="node28" class="node"><title>Node28</title>
<g id="a_node28"><a xlink:href="group__juce__gui__basics-properties.html#classTextPropertyComponent" target="_top" xlink:title="A PropertyComponent that shows its value as editable text. ">
<polygon fill="none" stroke="black" points="446.5,-38.5 446.5,-57.5 569.5,-57.5 569.5,-38.5 446.5,-38.5"/>
<text text-anchor="middle" x="508" y="-45.5" font-family="Helvetica,sans-Serif" font-size="10.00">TextPropertyComponent</text>
</a>
</g>
</g>
<!-- Node23&#45;&gt;Node28 -->
<g id="edge27" class="edge"><title>Node23&#45;&gt;Node28</title>
<path fill="none" stroke="midnightblue" d="M388.547,-151.391C393.378,-149.108 397.948,-146.344 402,-143 430.829,-119.213 409.379,-91.0369 438,-67 442.567,-63.1644 447.847,-60.0992 453.413,-57.6504"/>
<polygon fill="midnightblue" stroke="midnightblue" points="386.985,-148.246 379.005,-155.216 389.59,-154.744 386.985,-148.246"/>
</g>
<!-- Node32 -->
<g id="node32" class="node"><title>Node32</title>
<g id="a_node32"><a xlink:href="group__juce__gui__basics-filebrowser.html#classFileTreeComponent" target="_top" xlink:title="A component that displays the files in a directory as a treeview. ">
<polygon fill="none" stroke="black" points="457,-0.5 457,-19.5 559,-19.5 559,-0.5 457,-0.5"/>
<text text-anchor="middle" x="508" y="-7.5" font-family="Helvetica,sans-Serif" font-size="10.00">FileTreeComponent</text>
</a>
</g>
</g>
<!-- Node31&#45;&gt;Node32 -->
<g id="edge31" class="edge"><title>Node31&#45;&gt;Node32</title>
<path fill="none" stroke="midnightblue" d="M366.37,-24.9272C392.776,-22.1243 428.118,-18.3729 456.766,-15.3321"/>
<polygon fill="midnightblue" stroke="midnightblue" points="365.938,-21.4533 356.363,-25.9894 366.677,-28.4142 365.938,-21.4533"/>
</g>
</g>
</svg>
