<?xml version="1.0" encoding="UTF-8" standalone="no"?>
<!DOCTYPE svg PUBLIC "-//W3C//DTD SVG 1.1//EN"
 "http://www.w3.org/Graphics/SVG/1.1/DTD/svg11.dtd">
<!-- Generated by graphviz version 2.36.0 (20140111.2315)
 -->
<!-- Title: juce::DrawableShape::FillAndStrokeState Pages: 1 -->
<svg width="256pt" height="176pt"
 viewBox="0.00 0.00 256.00 176.00" xmlns="http://www.w3.org/2000/svg" xmlns:xlink="http://www.w3.org/1999/xlink">
<g id="graph0" class="graph" transform="scale(1 1) rotate(0) translate(4 172)">
<title>juce::DrawableShape::FillAndStrokeState</title>
<!-- Node1 -->
<g id="node1" class="node"><title>Node1</title>
<polygon fill="#bfbfbf" stroke="black" points="63,-69 63,-99 173,-99 173,-69 63,-69"/>
<text text-anchor="start" x="71" y="-87" font-family="Helvetica,sans-Serif" font-size="10.00">juce::DrawableShape</text>
<text text-anchor="middle" x="118" y="-76" font-family="Helvetica,sans-Serif" font-size="10.00">::FillAndStrokeState</text>
</g>
<!-- Node3 -->
<g id="node3" class="node"><title>Node3</title>
<g id="a_node3"><a xlink:href="classjuce_1_1DrawablePath_1_1ValueTreeWrapper.html" target="_top" xlink:title="Internally&#45;used class for wrapping a DrawablePath&#39;s state into a ValueTree. ">
<polygon fill="none" stroke="black" points="0,-1 0,-31 104,-31 104,-1 0,-1"/>
<text text-anchor="start" x="8" y="-19" font-family="Helvetica,sans-Serif" font-size="10.00">juce::DrawablePath</text>
<text text-anchor="middle" x="52" y="-8" font-family="Helvetica,sans-Serif" font-size="10.00">::ValueTreeWrapper</text>
</a>
</g>
</g>
<!-- Node1&#45;&gt;Node3 -->
<g id="edge2" class="edge"><title>Node1&#45;&gt;Node3</title>
<path fill="none" stroke="midnightblue" d="M96.4855,-61.4855C86.5852,-51.5852 75.1092,-40.1092 66.2931,-31.2931"/>
<polygon fill="midnightblue" stroke="midnightblue" points="94.133,-64.0828 103.679,-68.679 99.0828,-59.133 94.133,-64.0828"/>
</g>
<!-- Node4 -->
<g id="node4" class="node"><title>Node4</title>
<g id="a_node4"><a xlink:href="classjuce_1_1DrawableRectangle_1_1ValueTreeWrapper.html" target="_top" xlink:title="Internally&#45;used class for wrapping a DrawableRectangle&#39;s state into a ValueTree. ">
<polygon fill="none" stroke="black" points="122,-1 122,-31 248,-31 248,-1 122,-1"/>
<text text-anchor="start" x="130" y="-19" font-family="Helvetica,sans-Serif" font-size="10.00">juce::DrawableRectangle</text>
<text text-anchor="middle" x="185" y="-8" font-family="Helvetica,sans-Serif" font-size="10.00">::ValueTreeWrapper</text>
</a>
</g>
</g>
<!-- Node1&#45;&gt;Node4 -->
<g id="edge3" class="edge"><title>Node1&#45;&gt;Node4</title>
<path fill="none" stroke="midnightblue" d="M139.84,-61.4855C149.891,-51.5852 161.541,-40.1092 170.49,-31.2931"/>
<polygon fill="midnightblue" stroke="midnightblue" points="137.206,-59.1678 132.538,-68.679 142.118,-64.1547 137.206,-59.1678"/>
</g>
<!-- Node2 -->
<g id="node2" class="node"><title>Node2</title>
<g id="a_node2"><a xlink:href="classjuce_1_1Drawable_1_1ValueTreeWrapperBase.html" target="_top" xlink:title="Internal class used to manage ValueTrees that represent Drawables. ">
<polygon fill="none" stroke="black" points="52,-137 52,-167 184,-167 184,-137 52,-137"/>
<text text-anchor="start" x="60" y="-155" font-family="Helvetica,sans-Serif" font-size="10.00">juce::Drawable::ValueTree</text>
<text text-anchor="middle" x="118" y="-144" font-family="Helvetica,sans-Serif" font-size="10.00">WrapperBase</text>
</a>
</g>
</g>
<!-- Node2&#45;&gt;Node1 -->
<g id="edge1" class="edge"><title>Node2&#45;&gt;Node1</title>
<path fill="none" stroke="midnightblue" d="M118,-126.532C118,-117.361 118,-107.245 118,-99.2931"/>
<polygon fill="midnightblue" stroke="midnightblue" points="114.5,-126.679 118,-136.679 121.5,-126.679 114.5,-126.679"/>
</g>
</g>
</svg>
