<?xml version="1.0" encoding="UTF-8" standalone="no"?>
<!DOCTYPE svg PUBLIC "-//W3C//DTD SVG 1.1//EN"
 "http://www.w3.org/Graphics/SVG/1.1/DTD/svg11.dtd">
<!-- Generated by graphviz version 2.36.0 (20140111.2315)
 -->
<!-- Title: AsyncUpdater Pages: 1 -->
<svg width="272pt" height="420pt"
 viewBox="0.00 0.00 272.00 420.00" xmlns="http://www.w3.org/2000/svg" xmlns:xlink="http://www.w3.org/1999/xlink">
<g id="graph0" class="graph" transform="scale(1 1) rotate(0) translate(4 416)">
<title>AsyncUpdater</title>
<!-- Node1 -->
<g id="node1" class="node"><title>Node1</title>
<polygon fill="#bfbfbf" stroke="black" points="0.5,-202.5 0.5,-221.5 79.5,-221.5 79.5,-202.5 0.5,-202.5"/>
<text text-anchor="middle" x="40" y="-209.5" font-family="Helvetica,sans-Serif" font-size="10.00">AsyncUpdater</text>
</g>
<!-- Node2 -->
<g id="node2" class="node"><title>Node2</title>
<g id="a_node2"><a xlink:href="classApplicationCommandManager.html" target="_top" xlink:title="One of these objects holds a list of all the commands your app can perform, and despatches these comm...">
<polygon fill="none" stroke="black" points="116.5,-392.5 116.5,-411.5 263.5,-411.5 263.5,-392.5 116.5,-392.5"/>
<text text-anchor="middle" x="190" y="-399.5" font-family="Helvetica,sans-Serif" font-size="10.00">ApplicationCommandManager</text>
</a>
</g>
</g>
<!-- Node1&#45;&gt;Node2 -->
<g id="edge1" class="edge"><title>Node1&#45;&gt;Node2</title>
<path fill="none" stroke="#8b1a1a" d="M43.9989,-232.045C50.4432,-267.889 69.0344,-342.954 116,-383 120.484,-386.824 125.648,-389.89 131.113,-392.347"/>
<polygon fill="#8b1a1a" stroke="#8b1a1a" points="47.402,-231.172 42.3128,-221.88 40.4964,-232.318 47.402,-231.172"/>
</g>
<!-- Node3 -->
<g id="node3" class="node"><title>Node3</title>
<g id="a_node3"><a xlink:href="classAudioProcessorGraph.html" target="_top" xlink:title="A type of AudioProcessor which plays back a graph of other AudioProcessors. ">
<polygon fill="none" stroke="black" points="134,-354.5 134,-373.5 246,-373.5 246,-354.5 134,-354.5"/>
<text text-anchor="middle" x="190" y="-361.5" font-family="Helvetica,sans-Serif" font-size="10.00">AudioProcessorGraph</text>
</a>
</g>
</g>
<!-- Node1&#45;&gt;Node3 -->
<g id="edge2" class="edge"><title>Node1&#45;&gt;Node3</title>
<path fill="none" stroke="#8b1a1a" d="M46.6282,-231.645C56.0429,-260.899 77.8146,-315.609 116,-345 121.293,-349.074 127.374,-352.278 133.719,-354.799"/>
<polygon fill="#8b1a1a" stroke="#8b1a1a" points="49.8852,-230.327 43.6165,-221.786 43.1906,-232.372 49.8852,-230.327"/>
</g>
<!-- Node4 -->
<g id="node4" class="node"><title>Node4</title>
<g id="a_node4"><a xlink:href="classComboBox.html" target="_top" xlink:title="A component that lets the user choose from a drop&#45;down list of choices. ">
<polygon fill="none" stroke="black" points="157.5,-316.5 157.5,-335.5 222.5,-335.5 222.5,-316.5 157.5,-316.5"/>
<text text-anchor="middle" x="190" y="-323.5" font-family="Helvetica,sans-Serif" font-size="10.00">ComboBox</text>
</a>
</g>
</g>
<!-- Node1&#45;&gt;Node4 -->
<g id="edge3" class="edge"><title>Node1&#45;&gt;Node4</title>
<path fill="none" stroke="#8b1a1a" d="M50.7746,-230.691C63.0776,-252.357 86.2492,-287.569 116,-307 128.28,-315.02 143.788,-319.66 157.348,-322.341"/>
<polygon fill="#8b1a1a" stroke="#8b1a1a" points="53.7755,-228.884 45.902,-221.795 47.6361,-232.247 53.7755,-228.884"/>
</g>
<!-- Node5 -->
<g id="node5" class="node"><title>Node5</title>
<g id="a_node5"><a xlink:href="classDesktop.html" target="_top" xlink:title="Describes and controls aspects of the computer&#39;s desktop. ">
<polygon fill="none" stroke="black" points="163.5,-278.5 163.5,-297.5 216.5,-297.5 216.5,-278.5 163.5,-278.5"/>
<text text-anchor="middle" x="190" y="-285.5" font-family="Helvetica,sans-Serif" font-size="10.00">Desktop</text>
</a>
</g>
</g>
<!-- Node1&#45;&gt;Node5 -->
<g id="edge4" class="edge"><title>Node1&#45;&gt;Node5</title>
<path fill="none" stroke="#8b1a1a" d="M58.4143,-228.455C72.8195,-241.23 94.3574,-258.485 116,-269 130.96,-276.268 149.043,-281.001 163.468,-283.925"/>
<polygon fill="#8b1a1a" stroke="#8b1a1a" points="60.5619,-225.677 50.81,-221.535 55.8507,-230.854 60.5619,-225.677"/>
</g>
<!-- Node6 -->
<g id="node6" class="node"><title>Node6</title>
<g id="a_node6"><a xlink:href="classFilenameComponent.html" target="_top" xlink:title="Shows a filename as an editable text box, with a &#39;browse&#39; button and a drop&#45;down list for recently se...">
<polygon fill="none" stroke="black" points="136.5,-240.5 136.5,-259.5 243.5,-259.5 243.5,-240.5 136.5,-240.5"/>
<text text-anchor="middle" x="190" y="-247.5" font-family="Helvetica,sans-Serif" font-size="10.00">FilenameComponent</text>
</a>
</g>
</g>
<!-- Node1&#45;&gt;Node6 -->
<g id="edge5" class="edge"><title>Node1&#45;&gt;Node6</title>
<path fill="none" stroke="#8b1a1a" d="M88.1735,-224.112C108.786,-229.404 132.609,-235.521 151.922,-240.48"/>
<polygon fill="#8b1a1a" stroke="#8b1a1a" points="88.9029,-220.686 78.3466,-221.589 87.162,-227.466 88.9029,-220.686"/>
</g>
<!-- Node7 -->
<g id="node7" class="node"><title>Node7</title>
<g id="a_node7"><a xlink:href="classMenuBarModel.html" target="_top" xlink:title="A class for controlling MenuBar components. ">
<polygon fill="none" stroke="black" points="149,-202.5 149,-221.5 231,-221.5 231,-202.5 149,-202.5"/>
<text text-anchor="middle" x="190" y="-209.5" font-family="Helvetica,sans-Serif" font-size="10.00">MenuBarModel</text>
</a>
</g>
</g>
<!-- Node1&#45;&gt;Node7 -->
<g id="edge6" class="edge"><title>Node1&#45;&gt;Node7</title>
<path fill="none" stroke="#8b1a1a" d="M89.9075,-212C109.015,-212 130.655,-212 148.827,-212"/>
<polygon fill="#8b1a1a" stroke="#8b1a1a" points="89.8853,-208.5 79.8853,-212 89.8852,-215.5 89.8853,-208.5"/>
</g>
<!-- Node8 -->
<g id="node8" class="node"><title>Node8</title>
<g id="a_node8"><a xlink:href="classModalComponentManager.html" target="_top" xlink:title="Manages the system&#39;s stack of modal components. ">
<polygon fill="none" stroke="black" points="124.5,-164.5 124.5,-183.5 255.5,-183.5 255.5,-164.5 124.5,-164.5"/>
<text text-anchor="middle" x="190" y="-171.5" font-family="Helvetica,sans-Serif" font-size="10.00">ModalComponentManager</text>
</a>
</g>
</g>
<!-- Node1&#45;&gt;Node8 -->
<g id="edge7" class="edge"><title>Node1&#45;&gt;Node8</title>
<path fill="none" stroke="#8b1a1a" d="M88.1735,-199.888C108.786,-194.596 132.609,-188.479 151.922,-183.52"/>
<polygon fill="#8b1a1a" stroke="#8b1a1a" points="87.162,-196.534 78.3466,-202.411 88.9029,-203.314 87.162,-196.534"/>
</g>
<!-- Node9 -->
<g id="node9" class="node"><title>Node9</title>
<g id="a_node9"><a xlink:href="structNetworkServiceDiscovery_1_1AvailableServiceList.html" target="_top" xlink:title="Watches the network for broadcasts from Advertiser objects, and keeps a list of all the currently act...">
<polygon fill="none" stroke="black" points="124.5,-115 124.5,-145 255.5,-145 255.5,-115 124.5,-115"/>
<text text-anchor="start" x="132.5" y="-133" font-family="Helvetica,sans-Serif" font-size="10.00">NetworkServiceDiscovery</text>
<text text-anchor="middle" x="190" y="-122" font-family="Helvetica,sans-Serif" font-size="10.00">::AvailableServiceList</text>
</a>
</g>
</g>
<!-- Node1&#45;&gt;Node9 -->
<g id="edge8" class="edge"><title>Node1&#45;&gt;Node9</title>
<path fill="none" stroke="#8b1a1a" d="M59.1355,-195.555C73.6602,-183.068 95.0099,-166.193 116,-155 122.974,-151.281 130.611,-147.948 138.235,-145.021"/>
<polygon fill="#8b1a1a" stroke="#8b1a1a" points="56.6318,-193.095 51.4267,-202.323 61.2504,-198.355 56.6318,-193.095"/>
</g>
<!-- Node10 -->
<g id="node10" class="node"><title>Node10</title>
<g id="a_node10"><a xlink:href="classScrollBar.html" target="_top" xlink:title="A scrollbar component. ">
<polygon fill="none" stroke="black" points="162,-76.5 162,-95.5 218,-95.5 218,-76.5 162,-76.5"/>
<text text-anchor="middle" x="190" y="-83.5" font-family="Helvetica,sans-Serif" font-size="10.00">ScrollBar</text>
</a>
</g>
</g>
<!-- Node1&#45;&gt;Node10 -->
<g id="edge9" class="edge"><title>Node1&#45;&gt;Node10</title>
<path fill="none" stroke="midnightblue" d="M49.2429,-193.32C60.7394,-169.449 83.8532,-128.526 116,-106 129.452,-96.5738 147.172,-91.5845 161.784,-88.9466"/>
<polygon fill="midnightblue" stroke="midnightblue" points="46.0626,-191.859 45.0347,-202.404 52.4141,-194.802 46.0626,-191.859"/>
</g>
<!-- Node11 -->
<g id="node11" class="node"><title>Node11</title>
<g id="a_node11"><a xlink:href="classTableHeaderComponent.html" target="_top" xlink:title="A component that displays a strip of column headings for a table, and allows these to be resized...">
<polygon fill="none" stroke="black" points="129,-38.5 129,-57.5 251,-57.5 251,-38.5 129,-38.5"/>
<text text-anchor="middle" x="190" y="-45.5" font-family="Helvetica,sans-Serif" font-size="10.00">TableHeaderComponent</text>
</a>
</g>
</g>
<!-- Node1&#45;&gt;Node11 -->
<g id="edge10" class="edge"><title>Node1&#45;&gt;Node11</title>
<path fill="none" stroke="#8b1a1a" d="M45.6195,-192.405C54.0529,-161.041 74.979,-99.7695 116,-67 120.809,-63.1584 126.313,-60.0869 132.094,-57.6323"/>
<polygon fill="#8b1a1a" stroke="#8b1a1a" points="42.1255,-191.946 43.0636,-202.499 48.9113,-193.664 42.1255,-191.946"/>
</g>
<!-- Node12 -->
<g id="node12" class="node"><title>Node12</title>
<g id="a_node12"><a xlink:href="classValue_1_1ValueSource.html" target="_top" xlink:title="Used internally by the Value class as the base class for its shared value objects. ">
<polygon fill="none" stroke="black" points="138.5,-0.5 138.5,-19.5 241.5,-19.5 241.5,-0.5 138.5,-0.5"/>
<text text-anchor="middle" x="190" y="-7.5" font-family="Helvetica,sans-Serif" font-size="10.00">Value::ValueSource</text>
</a>
</g>
</g>
<!-- Node1&#45;&gt;Node12 -->
<g id="edge11" class="edge"><title>Node1&#45;&gt;Node12</title>
<path fill="none" stroke="#8b1a1a" d="M43.3225,-192.147C48.8074,-154.502 66.0944,-72.6147 116,-29 122.41,-23.3984 130.27,-19.4165 138.432,-16.5929"/>
<polygon fill="#8b1a1a" stroke="#8b1a1a" points="39.8188,-191.946 41.9762,-202.319 46.7582,-192.864 39.8188,-191.946"/>
</g>
</g>
</svg>
