<?xml version="1.0" encoding="UTF-8" standalone="no"?>
<!DOCTYPE svg PUBLIC "-//W3C//DTD SVG 1.1//EN"
 "http://www.w3.org/Graphics/SVG/1.1/DTD/svg11.dtd">
<!-- Generated by graphviz version 2.36.0 (20140111.2315)
 -->
<!-- Title: DeletedAtShutdown Pages: 1 -->
<svg width="502pt" height="84pt"
 viewBox="0.00 0.00 502.00 84.00" xmlns="http://www.w3.org/2000/svg" xmlns:xlink="http://www.w3.org/1999/xlink">
<g id="graph0" class="graph" transform="scale(1 1) rotate(0) translate(4 80)">
<title>DeletedAtShutdown</title>
<!-- Node1 -->
<g id="node1" class="node"><title>Node1</title>
<polygon fill="#bfbfbf" stroke="black" points="146,-56.5 146,-75.5 250,-75.5 250,-56.5 146,-56.5"/>
<text text-anchor="middle" x="198" y="-63.5" font-family="Helvetica,sans-Serif" font-size="10.00">DeletedAtShutdown</text>
</g>
<!-- Node2 -->
<g id="node2" class="node"><title>Node2</title>
<g id="a_node2"><a xlink:href="classAnalytics.html" target="_top" xlink:title="A singleton class to manage analytics data. ">
<polygon fill="none" stroke="black" points="-0.5,-0.5 -0.5,-19.5 56.5,-19.5 56.5,-0.5 -0.5,-0.5"/>
<text text-anchor="middle" x="28" y="-7.5" font-family="Helvetica,sans-Serif" font-size="10.00">Analytics</text>
</a>
</g>
</g>
<!-- Node1&#45;&gt;Node2 -->
<g id="edge1" class="edge"><title>Node1&#45;&gt;Node2</title>
<path fill="none" stroke="midnightblue" d="M161.181,-53.3044C129.148,-43.1294 83.4848,-28.6246 54.811,-19.5164"/>
<polygon fill="midnightblue" stroke="midnightblue" points="160.473,-56.7518 171.063,-56.4435 162.592,-50.0803 160.473,-56.7518"/>
</g>
<!-- Node3 -->
<g id="node3" class="node"><title>Node3</title>
<g id="a_node3"><a xlink:href="classDesktop.html" target="_top" xlink:title="Describes and controls aspects of the computer&#39;s desktop. ">
<polygon fill="none" stroke="black" points="74.5,-0.5 74.5,-19.5 127.5,-19.5 127.5,-0.5 74.5,-0.5"/>
<text text-anchor="middle" x="101" y="-7.5" font-family="Helvetica,sans-Serif" font-size="10.00">Desktop</text>
</a>
</g>
</g>
<!-- Node1&#45;&gt;Node3 -->
<g id="edge2" class="edge"><title>Node1&#45;&gt;Node3</title>
<path fill="none" stroke="#8b1a1a" d="M173.665,-51.4526C155.757,-41.4835 131.946,-28.2279 116.546,-19.6545"/>
<polygon fill="#8b1a1a" stroke="#8b1a1a" points="171.975,-54.5179 182.415,-56.324 175.38,-48.4018 171.975,-54.5179"/>
</g>
<!-- Node4 -->
<g id="node4" class="node"><title>Node4</title>
<g id="a_node4"><a xlink:href="classJUCESplashScreen.html" target="_top" xlink:title="The standard JUCE splash screen component. ">
<polygon fill="none" stroke="black" points="146,-0.5 146,-19.5 250,-19.5 250,-0.5 146,-0.5"/>
<text text-anchor="middle" x="198" y="-7.5" font-family="Helvetica,sans-Serif" font-size="10.00">JUCESplashScreen</text>
</a>
</g>
</g>
<!-- Node1&#45;&gt;Node4 -->
<g id="edge3" class="edge"><title>Node1&#45;&gt;Node4</title>
<path fill="none" stroke="#8b1a1a" d="M198,-45.8045C198,-36.9102 198,-26.7798 198,-19.7511"/>
<polygon fill="#8b1a1a" stroke="#8b1a1a" points="194.5,-46.083 198,-56.083 201.5,-46.083 194.5,-46.083"/>
</g>
<!-- Node5 -->
<g id="node5" class="node"><title>Node5</title>
<g id="a_node5"><a xlink:href="classModalComponentManager.html" target="_top" xlink:title="Manages the system&#39;s stack of modal components. ">
<polygon fill="none" stroke="black" points="268.5,-0.5 268.5,-19.5 399.5,-19.5 399.5,-0.5 268.5,-0.5"/>
<text text-anchor="middle" x="334" y="-7.5" font-family="Helvetica,sans-Serif" font-size="10.00">ModalComponentManager</text>
</a>
</g>
</g>
<!-- Node1&#45;&gt;Node5 -->
<g id="edge4" class="edge"><title>Node1&#45;&gt;Node5</title>
<path fill="none" stroke="#8b1a1a" d="M229.135,-52.6377C254.657,-42.504 290.109,-28.4274 312.551,-19.5164"/>
<polygon fill="#8b1a1a" stroke="#8b1a1a" points="227.552,-49.5002 219.55,-56.4435 230.135,-56.0061 227.552,-49.5002"/>
</g>
<!-- Node6 -->
<g id="node6" class="node"><title>Node6</title>
<g id="a_node6"><a xlink:href="classSplashScreen.html" target="_top" xlink:title="A component for showing a splash screen while your app starts up. ">
<polygon fill="none" stroke="black" points="417.5,-0.5 417.5,-19.5 494.5,-19.5 494.5,-0.5 417.5,-0.5"/>
<text text-anchor="middle" x="456" y="-7.5" font-family="Helvetica,sans-Serif" font-size="10.00">SplashScreen</text>
</a>
</g>
</g>
<!-- Node1&#45;&gt;Node6 -->
<g id="edge5" class="edge"><title>Node1&#45;&gt;Node6</title>
<path fill="none" stroke="#8b1a1a" d="M248.747,-54.3785C298.273,-44.0127 372.533,-28.4699 417.417,-19.0755"/>
<polygon fill="#8b1a1a" stroke="#8b1a1a" points="247.952,-50.9691 238.881,-56.4435 249.386,-57.8206 247.952,-50.9691"/>
</g>
</g>
</svg>
