<?xml version="1.0" encoding="UTF-8" standalone="no"?>
<!DOCTYPE svg PUBLIC "-//W3C//DTD SVG 1.1//EN"
 "http://www.w3.org/Graphics/SVG/1.1/DTD/svg11.dtd">
<!-- Generated by graphviz version 2.36.0 (20140111.2315)
 -->
<!-- Title: AudioThumbnail Pages: 1 -->
<svg width="279pt" height="162pt"
 viewBox="0.00 0.00 279.00 162.00" xmlns="http://www.w3.org/2000/svg" xmlns:xlink="http://www.w3.org/1999/xlink">
<g id="graph0" class="graph" transform="scale(1 1) rotate(0) translate(4 158)">
<title>AudioThumbnail</title>
<!-- Node1 -->
<g id="node1" class="node"><title>Node1</title>
<polygon fill="#bfbfbf" stroke="black" points="80,-0.5 80,-19.5 166,-19.5 166,-0.5 80,-0.5"/>
<text text-anchor="middle" x="123" y="-7.5" font-family="Helvetica,sans-Serif" font-size="10.00">AudioThumbnail</text>
</g>
<!-- Node2 -->
<g id="node2" class="node"><title>Node2</title>
<g id="a_node2"><a xlink:href="group__juce__audio__utils-gui.html#classAudioThumbnailBase" target="_top" xlink:title="Provides a base for classes that can store and draw scaled views of an audio waveform. ">
<polygon fill="none" stroke="black" points="68.5,-56.5 68.5,-75.5 177.5,-75.5 177.5,-56.5 68.5,-56.5"/>
<text text-anchor="middle" x="123" y="-63.5" font-family="Helvetica,sans-Serif" font-size="10.00">AudioThumbnailBase</text>
</a>
</g>
</g>
<!-- Node2&#45;&gt;Node1 -->
<g id="edge1" class="edge"><title>Node2&#45;&gt;Node1</title>
<path fill="none" stroke="midnightblue" d="M123,-45.8045C123,-36.9102 123,-26.7798 123,-19.7511"/>
<polygon fill="midnightblue" stroke="midnightblue" points="119.5,-46.083 123,-56.083 126.5,-46.083 119.5,-46.083"/>
</g>
<!-- Node3 -->
<g id="node3" class="node"><title>Node3</title>
<g id="a_node3"><a xlink:href="group__juce__events-broadcasters.html#classChangeBroadcaster" target="_top" xlink:title="Holds a list of ChangeListeners, and sends messages to them when instructed. ">
<polygon fill="none" stroke="black" points="-0.5,-123.5 -0.5,-142.5 102.5,-142.5 102.5,-123.5 -0.5,-123.5"/>
<text text-anchor="middle" x="51" y="-130.5" font-family="Helvetica,sans-Serif" font-size="10.00">ChangeBroadcaster</text>
</a>
</g>
</g>
<!-- Node3&#45;&gt;Node2 -->
<g id="edge2" class="edge"><title>Node3&#45;&gt;Node2</title>
<path fill="none" stroke="midnightblue" d="M68.3283,-116.356C82.4832,-103.578 101.963,-85.9915 113.444,-75.6273"/>
<polygon fill="midnightblue" stroke="midnightblue" points="65.7876,-113.935 60.7102,-123.234 70.4783,-119.131 65.7876,-113.935"/>
</g>
<!-- Node4 -->
<g id="node4" class="node"><title>Node4</title>
<g id="a_node4"><a xlink:href="classAudioFormatWriter_1_1ThreadedWriter_1_1IncomingDataReceiver.html" target="_top" xlink:title="AudioFormatWriter::\lThreadedWriter::IncomingData\lReceiver">
<polygon fill="none" stroke="black" points="121,-112.5 121,-153.5 271,-153.5 271,-112.5 121,-112.5"/>
<text text-anchor="start" x="129" y="-141.5" font-family="Helvetica,sans-Serif" font-size="10.00">AudioFormatWriter::</text>
<text text-anchor="start" x="129" y="-130.5" font-family="Helvetica,sans-Serif" font-size="10.00">ThreadedWriter::IncomingData</text>
<text text-anchor="middle" x="196" y="-119.5" font-family="Helvetica,sans-Serif" font-size="10.00">Receiver</text>
</a>
</g>
</g>
<!-- Node4&#45;&gt;Node2 -->
<g id="edge3" class="edge"><title>Node4&#45;&gt;Node2</title>
<path fill="none" stroke="midnightblue" d="M166.408,-105.651C154.391,-94.9511 141.338,-83.3283 132.717,-75.6525"/>
<polygon fill="midnightblue" stroke="midnightblue" points="164.302,-108.462 174.098,-112.498 168.957,-103.234 164.302,-108.462"/>
</g>
</g>
</svg>
