<?xml version="1.0" encoding="UTF-8" standalone="no"?>
<!DOCTYPE svg PUBLIC "-//W3C//DTD SVG 1.1//EN"
 "http://www.w3.org/Graphics/SVG/1.1/DTD/svg11.dtd">
<!-- Generated by graphviz version 2.36.0 (20140111.2315)
 -->
<!-- Title: KeyPressMappingSet Pages: 1 -->
<svg width="328pt" height="84pt"
 viewBox="0.00 0.00 328.00 84.00" xmlns="http://www.w3.org/2000/svg" xmlns:xlink="http://www.w3.org/1999/xlink">
<g id="graph0" class="graph" transform="scale(1 1) rotate(0) translate(4 80)">
<title>KeyPressMappingSet</title>
<!-- Node1 -->
<g id="node1" class="node"><title>Node1</title>
<polygon fill="#bfbfbf" stroke="black" points="82.5,-0.5 82.5,-19.5 193.5,-19.5 193.5,-0.5 82.5,-0.5"/>
<text text-anchor="middle" x="138" y="-7.5" font-family="Helvetica,sans-Serif" font-size="10.00">KeyPressMappingSet</text>
</g>
<!-- Node2 -->
<g id="node2" class="node"><title>Node2</title>
<g id="a_node2"><a xlink:href="group__juce__gui__basics-keyboard.html#classKeyListener" target="_top" xlink:title="Receives callbacks when keys are pressed. ">
<polygon fill="none" stroke="black" points="0,-56.5 0,-75.5 68,-75.5 68,-56.5 0,-56.5"/>
<text text-anchor="middle" x="34" y="-63.5" font-family="Helvetica,sans-Serif" font-size="10.00">KeyListener</text>
</a>
</g>
</g>
<!-- Node2&#45;&gt;Node1 -->
<g id="edge1" class="edge"><title>Node2&#45;&gt;Node1</title>
<path fill="none" stroke="midnightblue" d="M59.8275,-51.5895C79.0567,-41.6052 104.745,-28.2672 121.332,-19.6545"/>
<polygon fill="midnightblue" stroke="midnightblue" points="57.9715,-48.6095 50.7094,-56.324 61.1972,-54.822 57.9715,-48.6095"/>
</g>
<!-- Node3 -->
<g id="node3" class="node"><title>Node3</title>
<g id="a_node3"><a xlink:href="group__juce__events-broadcasters.html#classChangeBroadcaster" target="_top" xlink:title="Holds a list of ChangeListeners, and sends messages to them when instructed. ">
<polygon fill="none" stroke="black" points="86.5,-56.5 86.5,-75.5 189.5,-75.5 189.5,-56.5 86.5,-56.5"/>
<text text-anchor="middle" x="138" y="-63.5" font-family="Helvetica,sans-Serif" font-size="10.00">ChangeBroadcaster</text>
</a>
</g>
</g>
<!-- Node3&#45;&gt;Node1 -->
<g id="edge2" class="edge"><title>Node3&#45;&gt;Node1</title>
<path fill="none" stroke="midnightblue" d="M138,-45.8045C138,-36.9102 138,-26.7798 138,-19.7511"/>
<polygon fill="midnightblue" stroke="midnightblue" points="134.5,-46.083 138,-56.083 141.5,-46.083 134.5,-46.083"/>
</g>
<!-- Node4 -->
<g id="node4" class="node"><title>Node4</title>
<g id="a_node4"><a xlink:href="group__juce__gui__basics-components.html#classFocusChangeListener" target="_top" xlink:title="Classes can implement this interface and register themselves with the Desktop class to receive callba...">
<polygon fill="none" stroke="black" points="208,-56.5 208,-75.5 320,-75.5 320,-56.5 208,-56.5"/>
<text text-anchor="middle" x="264" y="-63.5" font-family="Helvetica,sans-Serif" font-size="10.00">FocusChangeListener</text>
</a>
</g>
</g>
<!-- Node4&#45;&gt;Node1 -->
<g id="edge3" class="edge"><title>Node4&#45;&gt;Node1</title>
<path fill="none" stroke="#8b1a1a" d="M234.84,-52.503C211.219,-42.3795 178.572,-28.388 157.872,-19.5164"/>
<polygon fill="#8b1a1a" stroke="#8b1a1a" points="233.465,-55.7213 244.035,-56.4435 236.222,-49.2873 233.465,-55.7213"/>
</g>
</g>
</svg>
