<?xml version="1.0" encoding="UTF-8" standalone="no"?>
<!DOCTYPE svg PUBLIC "-//W3C//DTD SVG 1.1//EN"
 "http://www.w3.org/Graphics/SVG/1.1/DTD/svg11.dtd">
<!-- Generated by graphviz version 2.36.0 (20140111.2315)
 -->
<!-- Title: ReferenceCountedObject Pages: 1 -->
<svg width="520pt" height="354pt"
 viewBox="0.00 0.00 520.00 354.00" xmlns="http://www.w3.org/2000/svg" xmlns:xlink="http://www.w3.org/1999/xlink">
<g id="graph0" class="graph" transform="scale(1 1) rotate(0) translate(4 350)">
<title>ReferenceCountedObject</title>
<!-- Node1 -->
<g id="node1" class="node"><title>Node1</title>
<polygon fill="#bfbfbf" stroke="black" points="0.5,-152.5 0.5,-171.5 127.5,-171.5 127.5,-152.5 0.5,-152.5"/>
<text text-anchor="middle" x="64" y="-159.5" font-family="Helvetica,sans-Serif" font-size="10.00">ReferenceCountedObject</text>
</g>
<!-- Node2 -->
<g id="node2" class="node"><title>Node2</title>
<g id="a_node2"><a xlink:href="structAudioDeviceManager_1_1LevelMeter.html" target="_top" xlink:title="A simple reference&#45;counted struct that holds a level&#45;meter value that can be read using getCurrentLev...">
<polygon fill="none" stroke="black" points="190,-316 190,-346 300,-346 300,-316 190,-316"/>
<text text-anchor="start" x="198" y="-334" font-family="Helvetica,sans-Serif" font-size="10.00">AudioDeviceManager</text>
<text text-anchor="middle" x="245" y="-323" font-family="Helvetica,sans-Serif" font-size="10.00">::LevelMeter</text>
</a>
</g>
</g>
<!-- Node1&#45;&gt;Node2 -->
<g id="edge1" class="edge"><title>Node1&#45;&gt;Node2</title>
<path fill="none" stroke="midnightblue" d="M72.9786,-180.908C86.9151,-211.676 118.6,-272.5 164,-306 171.728,-311.702 180.788,-316.126 189.981,-319.551"/>
<polygon fill="midnightblue" stroke="midnightblue" points="76.1642,-179.458 68.9385,-171.709 69.7551,-182.272 76.1642,-179.458"/>
</g>
<!-- Node3 -->
<g id="node3" class="node"><title>Node3</title>
<g id="a_node3"><a xlink:href="classAudioProcessorGraph_1_1Node.html" target="_top" xlink:title="Represents one of the nodes, or processors, in an AudioProcessorGraph. ">
<polygon fill="none" stroke="black" points="189,-267 189,-297 301,-297 301,-267 189,-267"/>
<text text-anchor="start" x="197" y="-285" font-family="Helvetica,sans-Serif" font-size="10.00">AudioProcessorGraph</text>
<text text-anchor="middle" x="245" y="-274" font-family="Helvetica,sans-Serif" font-size="10.00">::Node</text>
</a>
</g>
</g>
<!-- Node1&#45;&gt;Node3 -->
<g id="edge2" class="edge"><title>Node1&#45;&gt;Node3</title>
<path fill="none" stroke="midnightblue" d="M78.7779,-179.466C96.3954,-200.689 128.855,-236.226 164,-257 171.641,-261.517 180.183,-265.3 188.763,-268.444"/>
<polygon fill="midnightblue" stroke="midnightblue" points="81.3962,-177.138 72.373,-171.585 75.964,-181.553 81.3962,-177.138"/>
</g>
<!-- Node4 -->
<g id="node4" class="node"><title>Node4</title>
<g id="a_node4"><a xlink:href="structdsp_1_1ProcessorState.html" target="_top" xlink:title="This is a handy base class for the state of a processor (such as parameter values) which is typically...">
<polygon fill="none" stroke="black" points="192,-228.5 192,-247.5 298,-247.5 298,-228.5 192,-228.5"/>
<text text-anchor="middle" x="245" y="-235.5" font-family="Helvetica,sans-Serif" font-size="10.00">dsp::ProcessorState</text>
</a>
</g>
</g>
<!-- Node1&#45;&gt;Node4 -->
<g id="edge3" class="edge"><title>Node1&#45;&gt;Node4</title>
<path fill="none" stroke="midnightblue" d="M87.2249,-177.307C106.694,-190.09 136.151,-207.948 164,-219 173.421,-222.739 183.769,-225.865 193.807,-228.431"/>
<polygon fill="midnightblue" stroke="midnightblue" points="89.0328,-174.306 78.7728,-171.663 85.1454,-180.127 89.0328,-174.306"/>
</g>
<!-- Node8 -->
<g id="node8" class="node"><title>Node8</title>
<g id="a_node8"><a xlink:href="classDynamicObject.html" target="_top" xlink:title="Represents a dynamically implemented object. ">
<polygon fill="none" stroke="black" points="203,-190.5 203,-209.5 287,-209.5 287,-190.5 203,-190.5"/>
<text text-anchor="middle" x="245" y="-197.5" font-family="Helvetica,sans-Serif" font-size="10.00">DynamicObject</text>
</a>
</g>
</g>
<!-- Node1&#45;&gt;Node8 -->
<g id="edge7" class="edge"><title>Node1&#45;&gt;Node8</title>
<path fill="none" stroke="midnightblue" d="M120.133,-173.704C146.806,-179.367 178.281,-186.049 202.828,-191.26"/>
<polygon fill="midnightblue" stroke="midnightblue" points="120.678,-170.242 110.169,-171.589 119.224,-177.089 120.678,-170.242"/>
</g>
<!-- Node9 -->
<g id="node9" class="node"><title>Node9</title>
<g id="a_node9"><a xlink:href="classImagePixelData.html" target="_top" xlink:title="This is a base class for holding image data in implementation&#45;specific ways. ">
<polygon fill="none" stroke="black" points="202,-152.5 202,-171.5 288,-171.5 288,-152.5 202,-152.5"/>
<text text-anchor="middle" x="245" y="-159.5" font-family="Helvetica,sans-Serif" font-size="10.00">ImagePixelData</text>
</a>
</g>
</g>
<!-- Node1&#45;&gt;Node9 -->
<g id="edge8" class="edge"><title>Node1&#45;&gt;Node9</title>
<path fill="none" stroke="midnightblue" d="M137.841,-162C159.647,-162 182.82,-162 201.933,-162"/>
<polygon fill="midnightblue" stroke="midnightblue" points="137.606,-158.5 127.606,-162 137.605,-165.5 137.606,-158.5"/>
</g>
<!-- Node10 -->
<g id="node10" class="node"><title>Node10</title>
<g id="a_node10"><a xlink:href="classMessageManager_1_1MessageBase.html" target="_top" xlink:title="Internal class used as the base class for all message objects. ">
<polygon fill="none" stroke="black" points="164,-114.5 164,-133.5 326,-133.5 326,-114.5 164,-114.5"/>
<text text-anchor="middle" x="245" y="-121.5" font-family="Helvetica,sans-Serif" font-size="10.00">MessageManager::MessageBase</text>
</a>
</g>
</g>
<!-- Node1&#45;&gt;Node10 -->
<g id="edge9" class="edge"><title>Node1&#45;&gt;Node10</title>
<path fill="none" stroke="midnightblue" d="M120.024,-150.319C145.408,-144.93 175.161,-138.614 199.156,-133.52"/>
<polygon fill="midnightblue" stroke="midnightblue" points="119.224,-146.911 110.169,-152.411 120.678,-153.758 119.224,-146.911"/>
</g>
<!-- Node13 -->
<g id="node13" class="node"><title>Node13</title>
<g id="a_node13"><a xlink:href="classSynthesiserSound.html" target="_top" xlink:title="Describes one of the sounds that a Synthesiser can play. ">
<polygon fill="none" stroke="black" points="197,-76.5 197,-95.5 293,-95.5 293,-76.5 197,-76.5"/>
<text text-anchor="middle" x="245" y="-83.5" font-family="Helvetica,sans-Serif" font-size="10.00">SynthesiserSound</text>
</a>
</g>
</g>
<!-- Node1&#45;&gt;Node13 -->
<g id="edge12" class="edge"><title>Node1&#45;&gt;Node13</title>
<path fill="none" stroke="midnightblue" d="M87.2249,-146.693C106.694,-133.91 136.151,-116.052 164,-105 174.349,-100.893 185.819,-97.5245 196.765,-94.8262"/>
<polygon fill="midnightblue" stroke="midnightblue" points="85.1454,-143.873 78.7728,-152.337 89.0328,-149.694 85.1454,-143.873"/>
</g>
<!-- Node15 -->
<g id="node15" class="node"><title>Node15</title>
<g id="a_node15"><a xlink:href="classTypeface.html" target="_top" xlink:title="A typeface represents a size&#45;independent font. ">
<polygon fill="none" stroke="black" points="216.5,-38.5 216.5,-57.5 273.5,-57.5 273.5,-38.5 216.5,-38.5"/>
<text text-anchor="middle" x="245" y="-45.5" font-family="Helvetica,sans-Serif" font-size="10.00">Typeface</text>
</a>
</g>
</g>
<!-- Node1&#45;&gt;Node15 -->
<g id="edge14" class="edge"><title>Node1&#45;&gt;Node15</title>
<path fill="none" stroke="midnightblue" d="M78.2814,-144.46C95.6007,-122.863 127.968,-86.6366 164,-67 180.17,-58.1878 200.357,-53.4322 216.407,-50.8824"/>
<polygon fill="midnightblue" stroke="midnightblue" points="75.4175,-142.441 72.0096,-152.473 80.9296,-146.756 75.4175,-142.441"/>
</g>
<!-- Node17 -->
<g id="node17" class="node"><title>Node17</title>
<g id="a_node17"><a xlink:href="classValue_1_1ValueSource.html" target="_top" xlink:title="Used internally by the Value class as the base class for its shared value objects. ">
<polygon fill="none" stroke="black" points="193.5,-0.5 193.5,-19.5 296.5,-19.5 296.5,-0.5 193.5,-0.5"/>
<text text-anchor="middle" x="245" y="-7.5" font-family="Helvetica,sans-Serif" font-size="10.00">Value::ValueSource</text>
</a>
</g>
</g>
<!-- Node1&#45;&gt;Node17 -->
<g id="edge16" class="edge"><title>Node1&#45;&gt;Node17</title>
<path fill="none" stroke="midnightblue" d="M73.5251,-143.396C87.8753,-114.252 119.691,-58.1596 164,-29 172.705,-23.2713 182.951,-19.2647 193.15,-16.464"/>
<polygon fill="midnightblue" stroke="midnightblue" points="70.3326,-141.959 69.1858,-152.492 76.6505,-144.973 70.3326,-141.959"/>
</g>
<!-- Node5 -->
<g id="node5" class="node"><title>Node5</title>
<g id="a_node5"><a xlink:href="structdsp_1_1FIR_1_1Coefficients.html" target="_top" xlink:title="A set of coefficients for use in an FIRFilter object. ">
<polygon fill="none" stroke="black" points="380.5,-289 380.5,-319 493.5,-319 493.5,-289 380.5,-289"/>
<text text-anchor="start" x="388.5" y="-307" font-family="Helvetica,sans-Serif" font-size="10.00">dsp::FIR::Coefficients</text>
<text text-anchor="middle" x="437" y="-296" font-family="Helvetica,sans-Serif" font-size="10.00">&lt; NumericType &gt;</text>
</a>
</g>
</g>
<!-- Node4&#45;&gt;Node5 -->
<g id="edge4" class="edge"><title>Node4&#45;&gt;Node5</title>
<path fill="none" stroke="midnightblue" d="M303.388,-250.245C311.1,-252.498 318.821,-255.078 326,-258 343.157,-264.983 345.139,-271.33 362,-279 369.9,-282.594 378.475,-285.953 386.893,-288.971"/>
<polygon fill="midnightblue" stroke="midnightblue" points="304.236,-246.848 293.666,-247.565 302.376,-253.596 304.236,-246.848"/>
</g>
<!-- Node6 -->
<g id="node6" class="node"><title>Node6</title>
<g id="a_node6"><a xlink:href="structdsp_1_1IIR_1_1Coefficients.html" target="_top" xlink:title="A set of coefficients for use in an Filter object. ">
<polygon fill="none" stroke="black" points="382,-240 382,-270 492,-270 492,-240 382,-240"/>
<text text-anchor="start" x="390" y="-258" font-family="Helvetica,sans-Serif" font-size="10.00">dsp::IIR::Coefficients</text>
<text text-anchor="middle" x="437" y="-247" font-family="Helvetica,sans-Serif" font-size="10.00">&lt; NumericType &gt;</text>
</a>
</g>
</g>
<!-- Node4&#45;&gt;Node6 -->
<g id="edge5" class="edge"><title>Node4&#45;&gt;Node6</title>
<path fill="none" stroke="midnightblue" d="M308.167,-243.562C331.991,-245.694 358.957,-248.107 381.96,-250.165"/>
<polygon fill="midnightblue" stroke="midnightblue" points="308.442,-240.073 298.17,-242.668 307.818,-247.045 308.442,-240.073"/>
</g>
<!-- Node7 -->
<g id="node7" class="node"><title>Node7</title>
<g id="a_node7"><a xlink:href="structdsp_1_1StateVariableFilter_1_1Parameters.html" target="_top" xlink:title="dsp::StateVariableFilter\l::Parameters\&lt; NumericType \&gt;">
<polygon fill="none" stroke="black" points="362.5,-191 362.5,-221 511.5,-221 511.5,-191 362.5,-191"/>
<text text-anchor="start" x="370.5" y="-209" font-family="Helvetica,sans-Serif" font-size="10.00">dsp::StateVariableFilter</text>
<text text-anchor="middle" x="437" y="-198" font-family="Helvetica,sans-Serif" font-size="10.00">::Parameters&lt; NumericType &gt;</text>
</a>
</g>
</g>
<!-- Node4&#45;&gt;Node7 -->
<g id="edge6" class="edge"><title>Node4&#45;&gt;Node7</title>
<path fill="none" stroke="midnightblue" d="M308.135,-227.535C325.419,-224.624 344.36,-221.434 362.241,-218.422"/>
<polygon fill="midnightblue" stroke="midnightblue" points="307.449,-224.101 298.17,-229.214 308.612,-231.004 307.449,-224.101"/>
</g>
<!-- Node11 -->
<g id="node11" class="node"><title>Node11</title>
<g id="a_node11"><a xlink:href="classCallbackMessage.html" target="_top" xlink:title="A message that invokes a callback method when it gets delivered. ">
<polygon fill="none" stroke="black" points="389.5,-152.5 389.5,-171.5 484.5,-171.5 484.5,-152.5 389.5,-152.5"/>
<text text-anchor="middle" x="437" y="-159.5" font-family="Helvetica,sans-Serif" font-size="10.00">CallbackMessage</text>
</a>
</g>
</g>
<!-- Node10&#45;&gt;Node11 -->
<g id="edge10" class="edge"><title>Node10&#45;&gt;Node11</title>
<path fill="none" stroke="midnightblue" d="M303.805,-135.561C331.227,-141.045 363.559,-147.512 389.384,-152.677"/>
<polygon fill="midnightblue" stroke="midnightblue" points="304.437,-132.118 293.945,-133.589 303.064,-138.982 304.437,-132.118"/>
</g>
<!-- Node12 -->
<g id="node12" class="node"><title>Node12</title>
<g id="a_node12"><a xlink:href="classMessage.html" target="_top" xlink:title="The base class for objects that can be sent to a MessageListener. ">
<polygon fill="none" stroke="black" points="409,-114.5 409,-133.5 465,-133.5 465,-114.5 409,-114.5"/>
<text text-anchor="middle" x="437" y="-121.5" font-family="Helvetica,sans-Serif" font-size="10.00">Message</text>
</a>
</g>
</g>
<!-- Node10&#45;&gt;Node12 -->
<g id="edge11" class="edge"><title>Node10&#45;&gt;Node12</title>
<path fill="none" stroke="midnightblue" d="M336.15,-124C362.674,-124 389.703,-124 408.938,-124"/>
<polygon fill="midnightblue" stroke="midnightblue" points="336.026,-120.5 326.026,-124 336.026,-127.5 336.026,-120.5"/>
</g>
<!-- Node14 -->
<g id="node14" class="node"><title>Node14</title>
<g id="a_node14"><a xlink:href="classSamplerSound.html" target="_top" xlink:title="A subclass of SynthesiserSound that represents a sampled audio clip. ">
<polygon fill="none" stroke="black" points="397,-76.5 397,-95.5 477,-95.5 477,-76.5 397,-76.5"/>
<text text-anchor="middle" x="437" y="-83.5" font-family="Helvetica,sans-Serif" font-size="10.00">SamplerSound</text>
</a>
</g>
</g>
<!-- Node13&#45;&gt;Node14 -->
<g id="edge13" class="edge"><title>Node13&#45;&gt;Node14</title>
<path fill="none" stroke="midnightblue" d="M303.837,-86C333.956,-86 369.991,-86 396.821,-86"/>
<polygon fill="midnightblue" stroke="midnightblue" points="303.455,-82.5001 293.455,-86 303.455,-89.5001 303.455,-82.5001"/>
</g>
<!-- Node16 -->
<g id="node16" class="node"><title>Node16</title>
<g id="a_node16"><a xlink:href="classCustomTypeface.html" target="_top" xlink:title="A typeface that can be populated with custom glyphs. ">
<polygon fill="none" stroke="black" points="391,-38.5 391,-57.5 483,-57.5 483,-38.5 391,-38.5"/>
<text text-anchor="middle" x="437" y="-45.5" font-family="Helvetica,sans-Serif" font-size="10.00">CustomTypeface</text>
</a>
</g>
</g>
<!-- Node15&#45;&gt;Node16 -->
<g id="edge15" class="edge"><title>Node15&#45;&gt;Node16</title>
<path fill="none" stroke="midnightblue" d="M283.938,-48C314.689,-48 358.113,-48 390.688,-48"/>
<polygon fill="midnightblue" stroke="midnightblue" points="283.628,-44.5001 273.628,-48 283.628,-51.5001 283.628,-44.5001"/>
</g>
</g>
</svg>
