<?xml version="1.0" encoding="UTF-8" standalone="no"?>
<!DOCTYPE svg PUBLIC "-//W3C//DTD SVG 1.1//EN"
 "http://www.w3.org/Graphics/SVG/1.1/DTD/svg11.dtd">
<!-- Generated by graphviz version 2.36.0 (20140111.2315)
 -->
<!-- Title: juce::RelativeCoordinatePositionerBase Pages: 1 -->
<svg width="436pt" height="96pt"
 viewBox="0.00 0.00 436.00 96.00" xmlns="http://www.w3.org/2000/svg" xmlns:xlink="http://www.w3.org/1999/xlink">
<g id="graph0" class="graph" transform="scale(1 1) rotate(0) translate(4 92)">
<title>juce::RelativeCoordinatePositionerBase</title>
<!-- Node1 -->
<g id="node1" class="node"><title>Node1</title>
<polygon fill="#bfbfbf" stroke="black" points="159,-1 159,-31 283,-31 283,-1 159,-1"/>
<text text-anchor="start" x="167" y="-19" font-family="Helvetica,sans-Serif" font-size="10.00">juce::RelativeCoordinate</text>
<text text-anchor="middle" x="221" y="-8" font-family="Helvetica,sans-Serif" font-size="10.00">PositionerBase</text>
</g>
<!-- Node2 -->
<g id="node2" class="node"><title>Node2</title>
<g id="a_node2"><a xlink:href="classjuce_1_1Component_1_1Positioner.html" target="_top" xlink:title="Base class for objects that can be used to automatically position a component according to some kind ...">
<polygon fill="none" stroke="black" points="0,-68.5 0,-87.5 140,-87.5 140,-68.5 0,-68.5"/>
<text text-anchor="middle" x="70" y="-75.5" font-family="Helvetica,sans-Serif" font-size="10.00">juce::Component::Positioner</text>
</a>
</g>
</g>
<!-- Node2&#45;&gt;Node1 -->
<g id="edge1" class="edge"><title>Node2&#45;&gt;Node1</title>
<path fill="none" stroke="midnightblue" d="M101.201,-64.6023C125.799,-54.8283 160.104,-41.1972 185.703,-31.0253"/>
<polygon fill="midnightblue" stroke="midnightblue" points="99.6354,-61.4581 91.6346,-68.4035 102.22,-67.9634 99.6354,-61.4581"/>
</g>
<!-- Node3 -->
<g id="node3" class="node"><title>Node3</title>
<g id="a_node3"><a xlink:href="classjuce_1_1ComponentListener.html" target="_top" xlink:title="Gets informed about changes to a component&#39;s hierarchy or position. ">
<polygon fill="none" stroke="black" points="158.5,-68.5 158.5,-87.5 283.5,-87.5 283.5,-68.5 158.5,-68.5"/>
<text text-anchor="middle" x="221" y="-75.5" font-family="Helvetica,sans-Serif" font-size="10.00">juce::ComponentListener</text>
</a>
</g>
</g>
<!-- Node3&#45;&gt;Node1 -->
<g id="edge2" class="edge"><title>Node3&#45;&gt;Node1</title>
<path fill="none" stroke="midnightblue" d="M221,-58.3707C221,-49.5849 221,-39.2721 221,-31.1408"/>
<polygon fill="midnightblue" stroke="midnightblue" points="217.5,-58.4034 221,-68.4035 224.5,-58.4035 217.5,-58.4034"/>
</g>
<!-- Node4 -->
<g id="node4" class="node"><title>Node4</title>
<g id="a_node4"><a xlink:href="classjuce_1_1MarkerList_1_1Listener.html" target="_top" xlink:title="A class for receiving events when changes are made to a MarkerList. ">
<polygon fill="none" stroke="black" points="301.5,-68.5 301.5,-87.5 428.5,-87.5 428.5,-68.5 301.5,-68.5"/>
<text text-anchor="middle" x="365" y="-75.5" font-family="Helvetica,sans-Serif" font-size="10.00">juce::MarkerList::Listener</text>
</a>
</g>
</g>
<!-- Node4&#45;&gt;Node1 -->
<g id="edge3" class="edge"><title>Node4&#45;&gt;Node1</title>
<path fill="none" stroke="midnightblue" d="M334.932,-64.4718C311.497,-54.7072 278.965,-41.152 254.661,-31.0253"/>
<polygon fill="midnightblue" stroke="midnightblue" points="333.791,-67.788 344.368,-68.4035 336.484,-61.3265 333.791,-67.788"/>
</g>
</g>
</svg>
