<?xml version="1.0" encoding="UTF-8" standalone="no"?>
<!DOCTYPE svg PUBLIC "-//W3C//DTD SVG 1.1//EN"
 "http://www.w3.org/Graphics/SVG/1.1/DTD/svg11.dtd">
<!-- Generated by graphviz version 2.36.0 (20140111.2315)
 -->
<!-- Title: Block::Program Pages: 1 -->
<svg width="243pt" height="84pt"
 viewBox="0.00 0.00 243.00 84.00" xmlns="http://www.w3.org/2000/svg" xmlns:xlink="http://www.w3.org/1999/xlink">
<g id="graph0" class="graph" transform="scale(1 1) rotate(0) translate(4 80)">
<title>Block::Program</title>
<!-- Node1 -->
<g id="node1" class="node"><title>Node1</title>
<polygon fill="#bfbfbf" stroke="black" points="73,-56.5 73,-75.5 157,-75.5 157,-56.5 73,-56.5"/>
<text text-anchor="middle" x="115" y="-63.5" font-family="Helvetica,sans-Serif" font-size="10.00">Block::Program</text>
</g>
<!-- Node2 -->
<g id="node2" class="node"><title>Node2</title>
<g id="a_node2"><a xlink:href="structBitmapLEDProgram.html" target="_top" xlink:title="A simple Program to set the colours of individual LEDs. ">
<polygon fill="none" stroke="black" points="0,-0.5 0,-19.5 104,-19.5 104,-0.5 0,-0.5"/>
<text text-anchor="middle" x="52" y="-7.5" font-family="Helvetica,sans-Serif" font-size="10.00">BitmapLEDProgram</text>
</a>
</g>
</g>
<!-- Node1&#45;&gt;Node2 -->
<g id="edge1" class="edge"><title>Node1&#45;&gt;Node2</title>
<path fill="none" stroke="midnightblue" d="M96.9601,-49.5372C85.7269,-39.9087 71.6809,-27.8694 62.3062,-19.8339"/>
<polygon fill="midnightblue" stroke="midnightblue" points="95.0076,-52.4734 104.878,-56.324 99.5632,-47.1586 95.0076,-52.4734"/>
</g>
<!-- Node3 -->
<g id="node3" class="node"><title>Node3</title>
<g id="a_node3"><a xlink:href="structDrumPadGridProgram.html" target="_top" xlink:title="DrumPadGridProgram">
<polygon fill="none" stroke="black" points="122.5,-0.5 122.5,-19.5 235.5,-19.5 235.5,-0.5 122.5,-0.5"/>
<text text-anchor="middle" x="179" y="-7.5" font-family="Helvetica,sans-Serif" font-size="10.00">DrumPadGridProgram</text>
</a>
</g>
</g>
<!-- Node1&#45;&gt;Node3 -->
<g id="edge2" class="edge"><title>Node1&#45;&gt;Node3</title>
<path fill="none" stroke="midnightblue" d="M132.991,-49.8197C144.458,-40.1452 158.913,-27.9481 168.53,-19.8339"/>
<polygon fill="midnightblue" stroke="midnightblue" points="130.669,-47.2002 125.283,-56.324 135.183,-52.5502 130.669,-47.2002"/>
</g>
</g>
</svg>
