<?xml version="1.0" encoding="UTF-8" standalone="no"?>
<!DOCTYPE svg PUBLIC "-//W3C//DTD SVG 1.1//EN"
 "http://www.w3.org/Graphics/SVG/1.1/DTD/svg11.dtd">
<!-- Generated by graphviz version 2.36.0 (20140111.2315)
 -->
<!-- Title: juce::dsp::ProcessorState Pages: 1 -->
<svg width="534pt" height="136pt"
 viewBox="0.00 0.00 534.00 136.00" xmlns="http://www.w3.org/2000/svg" xmlns:xlink="http://www.w3.org/1999/xlink">
<g id="graph0" class="graph" transform="scale(1 1) rotate(0) translate(4 132)">
<title>juce::dsp::ProcessorState</title>
<!-- Node1 -->
<g id="node1" class="node"><title>Node1</title>
<polygon fill="#bfbfbf" stroke="black" points="188,-54.5 188,-73.5 318,-73.5 318,-54.5 188,-54.5"/>
<text text-anchor="middle" x="253" y="-61.5" font-family="Helvetica,sans-Serif" font-size="10.00">juce::dsp::ProcessorState</text>
</g>
<!-- Node3 -->
<g id="node3" class="node"><title>Node3</title>
<g id="a_node3"><a xlink:href="structjuce_1_1dsp_1_1FIR_1_1Coefficients.html" target="_top" xlink:title="A set of coefficients for use in an FIRFilter object. ">
<polygon fill="none" stroke="black" points="371.5,-98 371.5,-128 508.5,-128 508.5,-98 371.5,-98"/>
<text text-anchor="start" x="379.5" y="-116" font-family="Helvetica,sans-Serif" font-size="10.00">juce::dsp::FIR::Coefficients</text>
<text text-anchor="middle" x="440" y="-105" font-family="Helvetica,sans-Serif" font-size="10.00">&lt; NumericType &gt;</text>
</a>
</g>
</g>
<!-- Node1&#45;&gt;Node3 -->
<g id="edge2" class="edge"><title>Node1&#45;&gt;Node3</title>
<path fill="none" stroke="midnightblue" d="M300.022,-76.1896C324.907,-82.7808 355.856,-90.9782 382.228,-97.963"/>
<polygon fill="midnightblue" stroke="midnightblue" points="300.672,-72.7411 290.109,-73.564 298.88,-79.5078 300.672,-72.7411"/>
</g>
<!-- Node4 -->
<g id="node4" class="node"><title>Node4</title>
<g id="a_node4"><a xlink:href="structjuce_1_1dsp_1_1IIR_1_1Coefficients.html" target="_top" xlink:title="A set of coefficients for use in an Filter object. ">
<polygon fill="none" stroke="black" points="373,-49 373,-79 507,-79 507,-49 373,-49"/>
<text text-anchor="start" x="381" y="-67" font-family="Helvetica,sans-Serif" font-size="10.00">juce::dsp::IIR::Coefficients</text>
<text text-anchor="middle" x="440" y="-56" font-family="Helvetica,sans-Serif" font-size="10.00">&lt; NumericType &gt;</text>
</a>
</g>
</g>
<!-- Node1&#45;&gt;Node4 -->
<g id="edge3" class="edge"><title>Node1&#45;&gt;Node4</title>
<path fill="none" stroke="midnightblue" d="M328.247,-64C342.956,-64 358.307,-64 372.73,-64"/>
<polygon fill="midnightblue" stroke="midnightblue" points="328.185,-60.5001 318.185,-64 328.185,-67.5001 328.185,-60.5001"/>
</g>
<!-- Node5 -->
<g id="node5" class="node"><title>Node5</title>
<g id="a_node5"><a xlink:href="structjuce_1_1dsp_1_1StateVariableFilter_1_1Parameters.html" target="_top" xlink:title="juce::dsp::StateVariable\lFilter::Parameters\&lt; NumericType \&gt;">
<polygon fill="none" stroke="black" points="354.5,-0 354.5,-30 525.5,-30 525.5,-0 354.5,-0"/>
<text text-anchor="start" x="362.5" y="-18" font-family="Helvetica,sans-Serif" font-size="10.00">juce::dsp::StateVariable</text>
<text text-anchor="middle" x="440" y="-7" font-family="Helvetica,sans-Serif" font-size="10.00">Filter::Parameters&lt; NumericType &gt;</text>
</a>
</g>
</g>
<!-- Node1&#45;&gt;Node5 -->
<g id="edge4" class="edge"><title>Node1&#45;&gt;Node5</title>
<path fill="none" stroke="midnightblue" d="M300.022,-51.8104C324.907,-45.2192 355.856,-37.0218 382.228,-30.037"/>
<polygon fill="midnightblue" stroke="midnightblue" points="298.88,-48.4922 290.109,-54.436 300.672,-55.2589 298.88,-48.4922"/>
</g>
<!-- Node2 -->
<g id="node2" class="node"><title>Node2</title>
<g id="a_node2"><a xlink:href="classjuce_1_1ReferenceCountedObject.html" target="_top" xlink:title="A base class which provides methods for reference&#45;counting. ">
<polygon fill="none" stroke="black" points="0.5,-54.5 0.5,-73.5 151.5,-73.5 151.5,-54.5 0.5,-54.5"/>
<text text-anchor="middle" x="76" y="-61.5" font-family="Helvetica,sans-Serif" font-size="10.00">juce::ReferenceCountedObject</text>
</a>
</g>
</g>
<!-- Node2&#45;&gt;Node1 -->
<g id="edge1" class="edge"><title>Node2&#45;&gt;Node1</title>
<path fill="none" stroke="midnightblue" d="M161.892,-64C170.585,-64 179.312,-64 187.73,-64"/>
<polygon fill="midnightblue" stroke="midnightblue" points="161.723,-60.5001 151.723,-64 161.723,-67.5001 161.723,-60.5001"/>
</g>
</g>
</svg>
