<?xml version="1.0" encoding="UTF-8" standalone="no"?>
<!DOCTYPE svg PUBLIC "-//W3C//DTD SVG 1.1//EN"
 "http://www.w3.org/Graphics/SVG/1.1/DTD/svg11.dtd">
<!-- Generated by graphviz version 2.36.0 (20140111.2315)
 -->
<!-- Title: juce::dsp::StateVariableFilter::Parameters&lt; NumericType &gt; Pages: 1 -->
<svg width="178pt" height="152pt"
 viewBox="0.00 0.00 178.00 152.00" xmlns="http://www.w3.org/2000/svg" xmlns:xlink="http://www.w3.org/1999/xlink">
<g id="graph0" class="graph" transform="scale(1 1) rotate(0) translate(4 148)">
<title>juce::dsp::StateVariableFilter::Parameters&lt; NumericType &gt;</title>
<!-- Node1 -->
<g id="node1" class="node"><title>Node1</title>
<polygon fill="#bfbfbf" stroke="black" points="-0.5,-1 -0.5,-31 170.5,-31 170.5,-1 -0.5,-1"/>
<text text-anchor="start" x="7.5" y="-19" font-family="Helvetica,sans-Serif" font-size="10.00">juce::dsp::StateVariable</text>
<text text-anchor="middle" x="85" y="-8" font-family="Helvetica,sans-Serif" font-size="10.00">Filter::Parameters&lt; NumericType &gt;</text>
</g>
<!-- Node2 -->
<g id="node2" class="node"><title>Node2</title>
<g id="a_node2"><a xlink:href="structjuce_1_1dsp_1_1ProcessorState.html" target="_top" xlink:title="This is a handy base class for the state of a processor (such as parameter values) which is typically...">
<polygon fill="none" stroke="black" points="20,-68.5 20,-87.5 150,-87.5 150,-68.5 20,-68.5"/>
<text text-anchor="middle" x="85" y="-75.5" font-family="Helvetica,sans-Serif" font-size="10.00">juce::dsp::ProcessorState</text>
</a>
</g>
</g>
<!-- Node2&#45;&gt;Node1 -->
<g id="edge1" class="edge"><title>Node2&#45;&gt;Node1</title>
<path fill="none" stroke="midnightblue" d="M85,-58.3707C85,-49.5849 85,-39.2721 85,-31.1408"/>
<polygon fill="midnightblue" stroke="midnightblue" points="81.5001,-58.4034 85,-68.4035 88.5001,-58.4035 81.5001,-58.4034"/>
</g>
<!-- Node3 -->
<g id="node3" class="node"><title>Node3</title>
<g id="a_node3"><a xlink:href="classjuce_1_1ReferenceCountedObject.html" target="_top" xlink:title="A base class which provides methods for reference&#45;counting. ">
<polygon fill="none" stroke="black" points="9.5,-124.5 9.5,-143.5 160.5,-143.5 160.5,-124.5 9.5,-124.5"/>
<text text-anchor="middle" x="85" y="-131.5" font-family="Helvetica,sans-Serif" font-size="10.00">juce::ReferenceCountedObject</text>
</a>
</g>
</g>
<!-- Node3&#45;&gt;Node2 -->
<g id="edge2" class="edge"><title>Node3&#45;&gt;Node2</title>
<path fill="none" stroke="midnightblue" d="M85,-113.805C85,-104.91 85,-94.7798 85,-87.7511"/>
<polygon fill="midnightblue" stroke="midnightblue" points="81.5001,-114.083 85,-124.083 88.5001,-114.083 81.5001,-114.083"/>
</g>
</g>
</svg>
