<?xml version="1.0" encoding="UTF-8" standalone="no"?>
<!DOCTYPE svg PUBLIC "-//W3C//DTD SVG 1.1//EN"
 "http://www.w3.org/Graphics/SVG/1.1/DTD/svg11.dtd">
<!-- Generated by graphviz version 2.36.0 (20140111.2315)
 -->
<!-- Title: ExtraLookAndFeelBaseClasses::AudioDeviceSelectorComponentMethods Pages: 1 -->
<svg width="210pt" height="264pt"
 viewBox="0.00 0.00 210.00 264.00" xmlns="http://www.w3.org/2000/svg" xmlns:xlink="http://www.w3.org/1999/xlink">
<g id="graph0" class="graph" transform="scale(1 1) rotate(0) translate(4 260)">
<title>ExtraLookAndFeelBaseClasses::AudioDeviceSelectorComponentMethods</title>
<!-- Node1 -->
<g id="node1" class="node"><title>Node1</title>
<polygon fill="#bfbfbf" stroke="black" points="0,-225 0,-255 202,-255 202,-225 0,-225"/>
<text text-anchor="start" x="8" y="-243" font-family="Helvetica,sans-Serif" font-size="10.00">ExtraLookAndFeelBaseClasses</text>
<text text-anchor="middle" x="101" y="-232" font-family="Helvetica,sans-Serif" font-size="10.00">::AudioDeviceSelectorComponentMethods</text>
</g>
<!-- Node2 -->
<g id="node2" class="node"><title>Node2</title>
<g id="a_node2"><a xlink:href="classLookAndFeel.html" target="_top" xlink:title="LookAndFeel objects define the appearance of all the JUCE widgets, and subclasses can be used to appl...">
<polygon fill="none" stroke="black" points="64,-168.5 64,-187.5 138,-187.5 138,-168.5 64,-168.5"/>
<text text-anchor="middle" x="101" y="-175.5" font-family="Helvetica,sans-Serif" font-size="10.00">LookAndFeel</text>
</a>
</g>
</g>
<!-- Node1&#45;&gt;Node2 -->
<g id="edge1" class="edge"><title>Node1&#45;&gt;Node2</title>
<path fill="none" stroke="midnightblue" d="M101,-214.586C101,-205.074 101,-194.786 101,-187.731"/>
<polygon fill="midnightblue" stroke="midnightblue" points="97.5001,-214.781 101,-224.781 104.5,-214.781 97.5001,-214.781"/>
</g>
<!-- Node3 -->
<g id="node3" class="node"><title>Node3</title>
<g id="a_node3"><a xlink:href="classLookAndFeel__V2.html" target="_top" xlink:title="This LookAndFeel subclass implements the juce style from around 2008&#45;12. ">
<polygon fill="none" stroke="black" points="55.5,-112.5 55.5,-131.5 146.5,-131.5 146.5,-112.5 55.5,-112.5"/>
<text text-anchor="middle" x="101" y="-119.5" font-family="Helvetica,sans-Serif" font-size="10.00">LookAndFeel_V2</text>
</a>
</g>
</g>
<!-- Node2&#45;&gt;Node3 -->
<g id="edge2" class="edge"><title>Node2&#45;&gt;Node3</title>
<path fill="none" stroke="midnightblue" d="M101,-157.805C101,-148.91 101,-138.78 101,-131.751"/>
<polygon fill="midnightblue" stroke="midnightblue" points="97.5001,-158.083 101,-168.083 104.5,-158.083 97.5001,-158.083"/>
</g>
<!-- Node4 -->
<g id="node4" class="node"><title>Node4</title>
<g id="a_node4"><a xlink:href="classLookAndFeel__V1.html" target="_top" xlink:title="The original JUCE look&#45;and&#45;feel, as used back from 2002 to about 2007ish. ">
<polygon fill="none" stroke="black" points="1.5,-56.5 1.5,-75.5 92.5,-75.5 92.5,-56.5 1.5,-56.5"/>
<text text-anchor="middle" x="47" y="-63.5" font-family="Helvetica,sans-Serif" font-size="10.00">LookAndFeel_V1</text>
</a>
</g>
</g>
<!-- Node3&#45;&gt;Node4 -->
<g id="edge3" class="edge"><title>Node3&#45;&gt;Node4</title>
<path fill="none" stroke="midnightblue" d="M85.0024,-105.002C75.4329,-95.4329 63.6389,-83.6389 55.7511,-75.7511"/>
<polygon fill="midnightblue" stroke="midnightblue" points="82.537,-107.487 92.083,-112.083 87.4868,-102.537 82.537,-107.487"/>
</g>
<!-- Node5 -->
<g id="node5" class="node"><title>Node5</title>
<g id="a_node5"><a xlink:href="classLookAndFeel__V3.html" target="_top" xlink:title="The latest JUCE look&#45;and&#45;feel style, as introduced in 2013. ">
<polygon fill="none" stroke="black" points="110.5,-56.5 110.5,-75.5 201.5,-75.5 201.5,-56.5 110.5,-56.5"/>
<text text-anchor="middle" x="156" y="-63.5" font-family="Helvetica,sans-Serif" font-size="10.00">LookAndFeel_V3</text>
</a>
</g>
</g>
<!-- Node3&#45;&gt;Node5 -->
<g id="edge4" class="edge"><title>Node3&#45;&gt;Node5</title>
<path fill="none" stroke="midnightblue" d="M117.294,-105.002C127.041,-95.4329 139.053,-83.6389 147.087,-75.7511"/>
<polygon fill="midnightblue" stroke="midnightblue" points="114.766,-102.58 110.082,-112.083 119.67,-107.575 114.766,-102.58"/>
</g>
<!-- Node6 -->
<g id="node6" class="node"><title>Node6</title>
<g id="a_node6"><a xlink:href="classLookAndFeel__V4.html" target="_top" xlink:title="LookAndFeel_V4">
<polygon fill="none" stroke="black" points="110.5,-0.5 110.5,-19.5 201.5,-19.5 201.5,-0.5 110.5,-0.5"/>
<text text-anchor="middle" x="156" y="-7.5" font-family="Helvetica,sans-Serif" font-size="10.00">LookAndFeel_V4</text>
</a>
</g>
</g>
<!-- Node5&#45;&gt;Node6 -->
<g id="edge5" class="edge"><title>Node5&#45;&gt;Node6</title>
<path fill="none" stroke="midnightblue" d="M156,-45.8045C156,-36.9102 156,-26.7798 156,-19.7511"/>
<polygon fill="midnightblue" stroke="midnightblue" points="152.5,-46.083 156,-56.083 159.5,-46.083 152.5,-46.083"/>
</g>
</g>
</svg>
