<?xml version="1.0" encoding="UTF-8" standalone="no"?>
<!DOCTYPE svg PUBLIC "-//W3C//DTD SVG 1.1//EN"
 "http://www.w3.org/Graphics/SVG/1.1/DTD/svg11.dtd">
<!-- Generated by graphviz version 2.36.0 (20140111.2315)
 -->
<!-- Title: OSCException Pages: 1 -->
<svg width="208pt" height="84pt"
 viewBox="0.00 0.00 208.00 84.00" xmlns="http://www.w3.org/2000/svg" xmlns:xlink="http://www.w3.org/1999/xlink">
<g id="graph0" class="graph" transform="scale(1 1) rotate(0) translate(4 80)">
<title>OSCException</title>
<!-- Node1 -->
<g id="node1" class="node"><title>Node1</title>
<polygon fill="#bfbfbf" stroke="black" points="58,-56.5 58,-75.5 140,-75.5 140,-56.5 58,-56.5"/>
<text text-anchor="middle" x="99" y="-63.5" font-family="Helvetica,sans-Serif" font-size="10.00">OSCException</text>
</g>
<!-- Node2 -->
<g id="node2" class="node"><title>Node2</title>
<g id="a_node2"><a xlink:href="group__juce__osc-osc.html#structOSCFormatError" target="_top" xlink:title="Exception type thrown when the OSC module fails to parse something because of a data format not compa...">
<polygon fill="none" stroke="black" points="0,-0.5 0,-19.5 90,-19.5 90,-0.5 0,-0.5"/>
<text text-anchor="middle" x="45" y="-7.5" font-family="Helvetica,sans-Serif" font-size="10.00">OSCFormatError</text>
</a>
</g>
</g>
<!-- Node1&#45;&gt;Node2 -->
<g id="edge1" class="edge"><title>Node1&#45;&gt;Node2</title>
<path fill="none" stroke="midnightblue" d="M83.0024,-49.0024C73.4329,-39.4329 61.6389,-27.6389 53.7511,-19.7511"/>
<polygon fill="midnightblue" stroke="midnightblue" points="80.537,-51.4868 90.083,-56.083 85.4868,-46.537 80.537,-51.4868"/>
</g>
<!-- Node3 -->
<g id="node3" class="node"><title>Node3</title>
<g id="a_node3"><a xlink:href="group__juce__osc-osc.html#structOSCInternalError" target="_top" xlink:title="Exception type thrown in cases of unexpected errors in the OSC module. ">
<polygon fill="none" stroke="black" points="108,-0.5 108,-19.5 200,-19.5 200,-0.5 108,-0.5"/>
<text text-anchor="middle" x="154" y="-7.5" font-family="Helvetica,sans-Serif" font-size="10.00">OSCInternalError</text>
</a>
</g>
</g>
<!-- Node1&#45;&gt;Node3 -->
<g id="edge2" class="edge"><title>Node1&#45;&gt;Node3</title>
<path fill="none" stroke="midnightblue" d="M115.294,-49.0024C125.041,-39.4329 137.053,-27.6389 145.087,-19.7511"/>
<polygon fill="midnightblue" stroke="midnightblue" points="112.766,-46.5796 108.082,-56.083 117.67,-51.5746 112.766,-46.5796"/>
</g>
</g>
</svg>
