<?xml version="1.0" encoding="UTF-8" standalone="no"?>
<!DOCTYPE svg PUBLIC "-//W3C//DTD SVG 1.1//EN"
 "http://www.w3.org/Graphics/SVG/1.1/DTD/svg11.dtd">
<!-- Generated by graphviz version 2.36.0 (20140111.2315)
 -->
<!-- Title: juce::ComboBox::LookAndFeelMethods Pages: 1 -->
<svg width="255pt" height="264pt"
 viewBox="0.00 0.00 255.00 264.00" xmlns="http://www.w3.org/2000/svg" xmlns:xlink="http://www.w3.org/1999/xlink">
<g id="graph0" class="graph" transform="scale(1 1) rotate(0) translate(4 260)">
<title>juce::ComboBox::LookAndFeelMethods</title>
<!-- Node1 -->
<g id="node1" class="node"><title>Node1</title>
<polygon fill="#bfbfbf" stroke="black" points="47,-225 47,-255 199,-255 199,-225 47,-225"/>
<text text-anchor="start" x="55" y="-243" font-family="Helvetica,sans-Serif" font-size="10.00">juce::ComboBox::LookAndFeel</text>
<text text-anchor="middle" x="123" y="-232" font-family="Helvetica,sans-Serif" font-size="10.00">Methods</text>
</g>
<!-- Node2 -->
<g id="node2" class="node"><title>Node2</title>
<g id="a_node2"><a xlink:href="classjuce_1_1LookAndFeel.html" target="_top" xlink:title="LookAndFeel objects define the appearance of all the JUCE widgets, and subclasses can be used to appl...">
<polygon fill="none" stroke="black" points="74,-168.5 74,-187.5 172,-187.5 172,-168.5 74,-168.5"/>
<text text-anchor="middle" x="123" y="-175.5" font-family="Helvetica,sans-Serif" font-size="10.00">juce::LookAndFeel</text>
</a>
</g>
</g>
<!-- Node1&#45;&gt;Node2 -->
<g id="edge1" class="edge"><title>Node1&#45;&gt;Node2</title>
<path fill="none" stroke="midnightblue" d="M123,-214.586C123,-205.074 123,-194.786 123,-187.731"/>
<polygon fill="midnightblue" stroke="midnightblue" points="119.5,-214.781 123,-224.781 126.5,-214.781 119.5,-214.781"/>
</g>
<!-- Node3 -->
<g id="node3" class="node"><title>Node3</title>
<g id="a_node3"><a xlink:href="classjuce_1_1LookAndFeel__V2.html" target="_top" xlink:title="This LookAndFeel subclass implements the juce style from around 2008&#45;12. ">
<polygon fill="none" stroke="black" points="65.5,-112.5 65.5,-131.5 180.5,-131.5 180.5,-112.5 65.5,-112.5"/>
<text text-anchor="middle" x="123" y="-119.5" font-family="Helvetica,sans-Serif" font-size="10.00">juce::LookAndFeel_V2</text>
</a>
</g>
</g>
<!-- Node2&#45;&gt;Node3 -->
<g id="edge2" class="edge"><title>Node2&#45;&gt;Node3</title>
<path fill="none" stroke="midnightblue" d="M123,-157.805C123,-148.91 123,-138.78 123,-131.751"/>
<polygon fill="midnightblue" stroke="midnightblue" points="119.5,-158.083 123,-168.083 126.5,-158.083 119.5,-158.083"/>
</g>
<!-- Node4 -->
<g id="node4" class="node"><title>Node4</title>
<g id="a_node4"><a xlink:href="classjuce_1_1LookAndFeel__V1.html" target="_top" xlink:title="The original JUCE look&#45;and&#45;feel, as used back from 2002 to about 2007ish. ">
<polygon fill="none" stroke="black" points="-0.5,-56.5 -0.5,-75.5 114.5,-75.5 114.5,-56.5 -0.5,-56.5"/>
<text text-anchor="middle" x="57" y="-63.5" font-family="Helvetica,sans-Serif" font-size="10.00">juce::LookAndFeel_V1</text>
</a>
</g>
</g>
<!-- Node3&#45;&gt;Node4 -->
<g id="edge3" class="edge"><title>Node3&#45;&gt;Node4</title>
<path fill="none" stroke="midnightblue" d="M104.446,-105.82C92.6219,-96.1452 77.7144,-83.9481 67.797,-75.8339"/>
<polygon fill="midnightblue" stroke="midnightblue" points="102.44,-108.7 112.396,-112.324 106.873,-103.283 102.44,-108.7"/>
</g>
<!-- Node5 -->
<g id="node5" class="node"><title>Node5</title>
<g id="a_node5"><a xlink:href="classjuce_1_1LookAndFeel__V3.html" target="_top" xlink:title="The latest JUCE look&#45;and&#45;feel style, as introduced in 2013. ">
<polygon fill="none" stroke="black" points="132.5,-56.5 132.5,-75.5 247.5,-75.5 247.5,-56.5 132.5,-56.5"/>
<text text-anchor="middle" x="190" y="-63.5" font-family="Helvetica,sans-Serif" font-size="10.00">juce::LookAndFeel_V3</text>
</a>
</g>
</g>
<!-- Node3&#45;&gt;Node5 -->
<g id="edge4" class="edge"><title>Node3&#45;&gt;Node5</title>
<path fill="none" stroke="midnightblue" d="M141.835,-105.82C153.838,-96.1452 168.972,-83.9481 179.039,-75.8339"/>
<polygon fill="midnightblue" stroke="midnightblue" points="139.354,-103.324 133.765,-112.324 143.747,-108.774 139.354,-103.324"/>
</g>
<!-- Node6 -->
<g id="node6" class="node"><title>Node6</title>
<g id="a_node6"><a xlink:href="classjuce_1_1LookAndFeel__V4.html" target="_top" xlink:title="juce::LookAndFeel_V4">
<polygon fill="none" stroke="black" points="132.5,-0.5 132.5,-19.5 247.5,-19.5 247.5,-0.5 132.5,-0.5"/>
<text text-anchor="middle" x="190" y="-7.5" font-family="Helvetica,sans-Serif" font-size="10.00">juce::LookAndFeel_V4</text>
</a>
</g>
</g>
<!-- Node5&#45;&gt;Node6 -->
<g id="edge5" class="edge"><title>Node5&#45;&gt;Node6</title>
<path fill="none" stroke="midnightblue" d="M190,-45.8045C190,-36.9102 190,-26.7798 190,-19.7511"/>
<polygon fill="midnightblue" stroke="midnightblue" points="186.5,-46.083 190,-56.083 193.5,-46.083 186.5,-46.083"/>
</g>
</g>
</svg>
