<?xml version="1.0" encoding="UTF-8" standalone="no"?>
<!DOCTYPE svg PUBLIC "-//W3C//DTD SVG 1.1//EN"
 "http://www.w3.org/Graphics/SVG/1.1/DTD/svg11.dtd">
<!-- Generated by graphviz version 2.36.0 (20140111.2315)
 -->
<!-- Title: juce::MPESynthesiserBase Pages: 1 -->
<svg width="144pt" height="152pt"
 viewBox="0.00 0.00 144.00 152.00" xmlns="http://www.w3.org/2000/svg" xmlns:xlink="http://www.w3.org/1999/xlink">
<g id="graph0" class="graph" transform="scale(1 1) rotate(0) translate(4 148)">
<title>juce::MPESynthesiserBase</title>
<!-- Node1 -->
<g id="node1" class="node"><title>Node1</title>
<polygon fill="#bfbfbf" stroke="black" points="-0.5,-56.5 -0.5,-75.5 136.5,-75.5 136.5,-56.5 -0.5,-56.5"/>
<text text-anchor="middle" x="68" y="-63.5" font-family="Helvetica,sans-Serif" font-size="10.00">juce::MPESynthesiserBase</text>
</g>
<!-- Node3 -->
<g id="node3" class="node"><title>Node3</title>
<g id="a_node3"><a xlink:href="classjuce_1_1MPESynthesiser.html" target="_top" xlink:title="Base class for an MPE&#45;compatible musical device that can play sounds. ">
<polygon fill="none" stroke="black" points="11,-0.5 11,-19.5 125,-19.5 125,-0.5 11,-0.5"/>
<text text-anchor="middle" x="68" y="-7.5" font-family="Helvetica,sans-Serif" font-size="10.00">juce::MPESynthesiser</text>
</a>
</g>
</g>
<!-- Node1&#45;&gt;Node3 -->
<g id="edge2" class="edge"><title>Node1&#45;&gt;Node3</title>
<path fill="none" stroke="midnightblue" d="M68,-45.8045C68,-36.9102 68,-26.7798 68,-19.7511"/>
<polygon fill="midnightblue" stroke="midnightblue" points="64.5001,-46.083 68,-56.083 71.5001,-46.083 64.5001,-46.083"/>
</g>
<!-- Node2 -->
<g id="node2" class="node"><title>Node2</title>
<g id="a_node2"><a xlink:href="classjuce_1_1MPEInstrument_1_1Listener.html" target="_top" xlink:title="Derive from this class to be informed about any changes in the expressive MIDI notes played by this i...">
<polygon fill="none" stroke="black" points="13.5,-113 13.5,-143 122.5,-143 122.5,-113 13.5,-113"/>
<text text-anchor="start" x="21.5" y="-131" font-family="Helvetica,sans-Serif" font-size="10.00">juce::MPEInstrument</text>
<text text-anchor="middle" x="68" y="-120" font-family="Helvetica,sans-Serif" font-size="10.00">::Listener</text>
</a>
</g>
</g>
<!-- Node2&#45;&gt;Node1 -->
<g id="edge1" class="edge"><title>Node2&#45;&gt;Node1</title>
<path fill="none" stroke="midnightblue" d="M68,-102.586C68,-93.0743 68,-82.7864 68,-75.7305"/>
<polygon fill="midnightblue" stroke="midnightblue" points="64.5001,-102.781 68,-112.781 71.5001,-102.781 64.5001,-102.781"/>
</g>
</g>
</svg>
