<?xml version="1.0" encoding="UTF-8" standalone="no"?>
<!DOCTYPE svg PUBLIC "-//W3C//DTD SVG 1.1//EN"
 "http://www.w3.org/Graphics/SVG/1.1/DTD/svg11.dtd">
<!-- Generated by graphviz version 2.36.0 (20140111.2315)
 -->
<!-- Title: IIR::Coefficients&lt; NumericType &gt; Pages: 1 -->
<svg width="134pt" height="152pt"
 viewBox="0.00 0.00 134.00 152.00" xmlns="http://www.w3.org/2000/svg" xmlns:xlink="http://www.w3.org/1999/xlink">
<g id="graph0" class="graph" transform="scale(1 1) rotate(0) translate(4 148)">
<title>IIR::Coefficients&lt; NumericType &gt;</title>
<!-- Node1 -->
<g id="node1" class="node"><title>Node1</title>
<polygon fill="#bfbfbf" stroke="black" points="15.5,-1 15.5,-31 110.5,-31 110.5,-1 15.5,-1"/>
<text text-anchor="start" x="23.5" y="-19" font-family="Helvetica,sans-Serif" font-size="10.00">IIR::Coefficients&lt;</text>
<text text-anchor="middle" x="63" y="-8" font-family="Helvetica,sans-Serif" font-size="10.00"> NumericType &gt;</text>
</g>
<!-- Node2 -->
<g id="node2" class="node"><title>Node2</title>
<g id="a_node2"><a xlink:href="structProcessorState.html" target="_top" xlink:title="This is a handy base class for the state of a processor (such as parameter values) which is typically...">
<polygon fill="none" stroke="black" points="21,-68.5 21,-87.5 105,-87.5 105,-68.5 21,-68.5"/>
<text text-anchor="middle" x="63" y="-75.5" font-family="Helvetica,sans-Serif" font-size="10.00">ProcessorState</text>
</a>
</g>
</g>
<!-- Node2&#45;&gt;Node1 -->
<g id="edge1" class="edge"><title>Node2&#45;&gt;Node1</title>
<path fill="none" stroke="midnightblue" d="M63,-58.3707C63,-49.5849 63,-39.2721 63,-31.1408"/>
<polygon fill="midnightblue" stroke="midnightblue" points="59.5001,-58.4034 63,-68.4035 66.5001,-58.4035 59.5001,-58.4034"/>
</g>
<!-- Node3 -->
<g id="node3" class="node"><title>Node3</title>
<g id="a_node3"><a xlink:href="classReferenceCountedObject.html" target="_top" xlink:title="A base class which provides methods for reference&#45;counting. ">
<polygon fill="none" stroke="black" points="-0.5,-124.5 -0.5,-143.5 126.5,-143.5 126.5,-124.5 -0.5,-124.5"/>
<text text-anchor="middle" x="63" y="-131.5" font-family="Helvetica,sans-Serif" font-size="10.00">ReferenceCountedObject</text>
</a>
</g>
</g>
<!-- Node3&#45;&gt;Node2 -->
<g id="edge2" class="edge"><title>Node3&#45;&gt;Node2</title>
<path fill="none" stroke="midnightblue" d="M63,-113.805C63,-104.91 63,-94.7798 63,-87.7511"/>
<polygon fill="midnightblue" stroke="midnightblue" points="59.5001,-114.083 63,-124.083 66.5001,-114.083 59.5001,-114.083"/>
</g>
</g>
</svg>
