<?xml version="1.0" encoding="UTF-8" standalone="no"?>
<!DOCTYPE svg PUBLIC "-//W3C//DTD SVG 1.1//EN"
 "http://www.w3.org/Graphics/SVG/1.1/DTD/svg11.dtd">
<!-- Generated by graphviz version 2.36.0 (20140111.2315)
 -->
<!-- Title: juce::OSCException Pages: 1 -->
<svg width="256pt" height="84pt"
 viewBox="0.00 0.00 256.00 84.00" xmlns="http://www.w3.org/2000/svg" xmlns:xlink="http://www.w3.org/1999/xlink">
<g id="graph0" class="graph" transform="scale(1 1) rotate(0) translate(4 80)">
<title>juce::OSCException</title>
<!-- Node1 -->
<g id="node1" class="node"><title>Node1</title>
<polygon fill="#bfbfbf" stroke="black" points="70,-56.5 70,-75.5 176,-75.5 176,-56.5 70,-56.5"/>
<text text-anchor="middle" x="123" y="-63.5" font-family="Helvetica,sans-Serif" font-size="10.00">juce::OSCException</text>
</g>
<!-- Node2 -->
<g id="node2" class="node"><title>Node2</title>
<g id="a_node2"><a xlink:href="structjuce_1_1OSCFormatError.html" target="_top" xlink:title="Exception type thrown when the OSC module fails to parse something because of a data format not compa...">
<polygon fill="none" stroke="black" points="0,-0.5 0,-19.5 114,-19.5 114,-0.5 0,-0.5"/>
<text text-anchor="middle" x="57" y="-7.5" font-family="Helvetica,sans-Serif" font-size="10.00">juce::OSCFormatError</text>
</a>
</g>
</g>
<!-- Node1&#45;&gt;Node2 -->
<g id="edge1" class="edge"><title>Node1&#45;&gt;Node2</title>
<path fill="none" stroke="midnightblue" d="M104.446,-49.8197C92.6219,-40.1452 77.7144,-27.9481 67.797,-19.8339"/>
<polygon fill="midnightblue" stroke="midnightblue" points="102.44,-52.7004 112.396,-56.324 106.873,-47.2827 102.44,-52.7004"/>
</g>
<!-- Node3 -->
<g id="node3" class="node"><title>Node3</title>
<g id="a_node3"><a xlink:href="structjuce_1_1OSCInternalError.html" target="_top" xlink:title="Exception type thrown in cases of unexpected errors in the OSC module. ">
<polygon fill="none" stroke="black" points="132,-0.5 132,-19.5 248,-19.5 248,-0.5 132,-0.5"/>
<text text-anchor="middle" x="190" y="-7.5" font-family="Helvetica,sans-Serif" font-size="10.00">juce::OSCInternalError</text>
</a>
</g>
</g>
<!-- Node1&#45;&gt;Node3 -->
<g id="edge2" class="edge"><title>Node1&#45;&gt;Node3</title>
<path fill="none" stroke="midnightblue" d="M141.835,-49.8197C153.838,-40.1452 168.972,-27.9481 179.039,-19.8339"/>
<polygon fill="midnightblue" stroke="midnightblue" points="139.354,-47.3236 133.765,-56.324 143.747,-52.7738 139.354,-47.3236"/>
</g>
</g>
</svg>
