<?xml version="1.0" encoding="UTF-8" standalone="no"?>
<!DOCTYPE svg PUBLIC "-//W3C//DTD SVG 1.1//EN"
 "http://www.w3.org/Graphics/SVG/1.1/DTD/svg11.dtd">
<!-- Generated by graphviz version 2.36.0 (20140111.2315)
 -->
<!-- Title: juce::Block::Program Pages: 1 -->
<svg width="291pt" height="84pt"
 viewBox="0.00 0.00 291.00 84.00" xmlns="http://www.w3.org/2000/svg" xmlns:xlink="http://www.w3.org/1999/xlink">
<g id="graph0" class="graph" transform="scale(1 1) rotate(0) translate(4 80)">
<title>juce::Block::Program</title>
<!-- Node1 -->
<g id="node1" class="node"><title>Node1</title>
<polygon fill="#bfbfbf" stroke="black" points="85,-56.5 85,-75.5 193,-75.5 193,-56.5 85,-56.5"/>
<text text-anchor="middle" x="139" y="-63.5" font-family="Helvetica,sans-Serif" font-size="10.00">juce::Block::Program</text>
</g>
<!-- Node2 -->
<g id="node2" class="node"><title>Node2</title>
<g id="a_node2"><a xlink:href="structjuce_1_1BitmapLEDProgram.html" target="_top" xlink:title="A simple Program to set the colours of individual LEDs. ">
<polygon fill="none" stroke="black" points="0,-0.5 0,-19.5 128,-19.5 128,-0.5 0,-0.5"/>
<text text-anchor="middle" x="64" y="-7.5" font-family="Helvetica,sans-Serif" font-size="10.00">juce::BitmapLEDProgram</text>
</a>
</g>
</g>
<!-- Node1&#45;&gt;Node2 -->
<g id="edge1" class="edge"><title>Node1&#45;&gt;Node2</title>
<path fill="none" stroke="midnightblue" d="M118.695,-50.3804C105.139,-40.6204 87.7579,-28.1057 76.2693,-19.8339"/>
<polygon fill="midnightblue" stroke="midnightblue" points="116.79,-53.3213 126.95,-56.324 120.88,-47.6405 116.79,-53.3213"/>
</g>
<!-- Node3 -->
<g id="node3" class="node"><title>Node3</title>
<g id="a_node3"><a xlink:href="structjuce_1_1DrumPadGridProgram.html" target="_top" xlink:title="juce::DrumPadGridProgram">
<polygon fill="none" stroke="black" points="146.5,-0.5 146.5,-19.5 283.5,-19.5 283.5,-0.5 146.5,-0.5"/>
<text text-anchor="middle" x="215" y="-7.5" font-family="Helvetica,sans-Serif" font-size="10.00">juce::DrumPadGridProgram</text>
</a>
</g>
</g>
<!-- Node1&#45;&gt;Node3 -->
<g id="edge2" class="edge"><title>Node1&#45;&gt;Node3</title>
<path fill="none" stroke="midnightblue" d="M159.576,-50.3804C173.312,-40.6204 190.925,-28.1057 202.567,-19.8339"/>
<polygon fill="midnightblue" stroke="midnightblue" points="157.335,-47.6787 151.211,-56.324 161.39,-53.385 157.335,-47.6787"/>
</g>
</g>
</svg>
