<?xml version="1.0" encoding="UTF-8" standalone="no"?>
<!DOCTYPE svg PUBLIC "-//W3C//DTD SVG 1.1//EN"
 "http://www.w3.org/Graphics/SVG/1.1/DTD/svg11.dtd">
<!-- Generated by graphviz version 2.36.0 (20140111.2315)
 -->
<!-- Title: NetworkServiceDiscovery::AvailableServiceList Pages: 1 -->
<svg width="153pt" height="96pt"
 viewBox="0.00 0.00 153.00 96.00" xmlns="http://www.w3.org/2000/svg" xmlns:xlink="http://www.w3.org/1999/xlink">
<g id="graph0" class="graph" transform="scale(1 1) rotate(0) translate(4 92)">
<title>NetworkServiceDiscovery::AvailableServiceList</title>
<!-- Node1 -->
<g id="node1" class="node"><title>Node1</title>
<polygon fill="#bfbfbf" stroke="black" points="-0.5,-1 -0.5,-31 130.5,-31 130.5,-1 -0.5,-1"/>
<text text-anchor="start" x="7.5" y="-19" font-family="Helvetica,sans-Serif" font-size="10.00">NetworkServiceDiscovery</text>
<text text-anchor="middle" x="65" y="-8" font-family="Helvetica,sans-Serif" font-size="10.00">::AvailableServiceList</text>
</g>
<!-- Node2 -->
<g id="node2" class="node"><title>Node2</title>
<g id="a_node2"><a xlink:href="classThread.html" target="_top" xlink:title="Encapsulates a thread. ">
<polygon fill="none" stroke="black" points="1.5,-68.5 1.5,-87.5 48.5,-87.5 48.5,-68.5 1.5,-68.5"/>
<text text-anchor="middle" x="25" y="-75.5" font-family="Helvetica,sans-Serif" font-size="10.00">Thread</text>
</a>
</g>
</g>
<!-- Node2&#45;&gt;Node1 -->
<g id="edge1" class="edge"><title>Node2&#45;&gt;Node1</title>
<path fill="none" stroke="#8b1a1a" d="M36.4532,-59.8202C42.5083,-50.7375 49.8508,-39.7238 55.5728,-31.1408"/>
<polygon fill="#8b1a1a" stroke="#8b1a1a" points="33.3659,-58.1415 30.731,-68.4035 39.1903,-62.0244 33.3659,-58.1415"/>
</g>
<!-- Node3 -->
<g id="node3" class="node"><title>Node3</title>
<g id="a_node3"><a xlink:href="classAsyncUpdater.html" target="_top" xlink:title="Has a callback method that is triggered asynchronously. ">
<polygon fill="none" stroke="black" points="66.5,-68.5 66.5,-87.5 145.5,-87.5 145.5,-68.5 66.5,-68.5"/>
<text text-anchor="middle" x="106" y="-75.5" font-family="Helvetica,sans-Serif" font-size="10.00">AsyncUpdater</text>
</a>
</g>
</g>
<!-- Node3&#45;&gt;Node1 -->
<g id="edge2" class="edge"><title>Node3&#45;&gt;Node1</title>
<path fill="none" stroke="#8b1a1a" d="M94.456,-60.1064C88.2126,-50.9697 80.5897,-39.8142 74.6629,-31.1408"/>
<polygon fill="#8b1a1a" stroke="#8b1a1a" points="91.594,-62.1217 100.126,-68.4035 97.3735,-58.1723 91.594,-62.1217"/>
</g>
</g>
</svg>
