<?xml version="1.0" encoding="UTF-8" standalone="no"?>
<!DOCTYPE svg PUBLIC "-//W3C//DTD SVG 1.1//EN"
 "http://www.w3.org/Graphics/SVG/1.1/DTD/svg11.dtd">
<!-- Generated by graphviz version 2.36.0 (20140111.2315)
 -->
<!-- Title: dsp::ProcessorState Pages: 1 -->
<svg width="464pt" height="136pt"
 viewBox="0.00 0.00 464.00 136.00" xmlns="http://www.w3.org/2000/svg" xmlns:xlink="http://www.w3.org/1999/xlink">
<g id="graph0" class="graph" transform="scale(1 1) rotate(0) translate(4 132)">
<title>dsp::ProcessorState</title>
<!-- Node1 -->
<g id="node1" class="node"><title>Node1</title>
<polygon fill="#bfbfbf" stroke="black" points="164,-54.5 164,-73.5 270,-73.5 270,-54.5 164,-54.5"/>
<text text-anchor="middle" x="217" y="-61.5" font-family="Helvetica,sans-Serif" font-size="10.00">dsp::ProcessorState</text>
</g>
<!-- Node3 -->
<g id="node3" class="node"><title>Node3</title>
<g id="a_node3"><a xlink:href="structdsp_1_1FIR_1_1Coefficients.html" target="_top" xlink:title="A set of coefficients for use in an FIRFilter object. ">
<polygon fill="none" stroke="black" points="324.5,-98 324.5,-128 437.5,-128 437.5,-98 324.5,-98"/>
<text text-anchor="start" x="332.5" y="-116" font-family="Helvetica,sans-Serif" font-size="10.00">dsp::FIR::Coefficients</text>
<text text-anchor="middle" x="381" y="-105" font-family="Helvetica,sans-Serif" font-size="10.00">&lt; NumericType &gt;</text>
</a>
</g>
</g>
<!-- Node1&#45;&gt;Node3 -->
<g id="edge2" class="edge"><title>Node1&#45;&gt;Node3</title>
<path fill="none" stroke="midnightblue" d="M259.467,-76.5426C281.054,-83.0719 307.604,-91.1024 330.286,-97.963"/>
<polygon fill="midnightblue" stroke="midnightblue" points="260.205,-73.1091 249.62,-73.564 258.178,-79.8093 260.205,-73.1091"/>
</g>
<!-- Node4 -->
<g id="node4" class="node"><title>Node4</title>
<g id="a_node4"><a xlink:href="structdsp_1_1IIR_1_1Coefficients.html" target="_top" xlink:title="A set of coefficients for use in an Filter object. ">
<polygon fill="none" stroke="black" points="326,-49 326,-79 436,-79 436,-49 326,-49"/>
<text text-anchor="start" x="334" y="-67" font-family="Helvetica,sans-Serif" font-size="10.00">dsp::IIR::Coefficients</text>
<text text-anchor="middle" x="381" y="-56" font-family="Helvetica,sans-Serif" font-size="10.00">&lt; NumericType &gt;</text>
</a>
</g>
</g>
<!-- Node1&#45;&gt;Node4 -->
<g id="edge3" class="edge"><title>Node1&#45;&gt;Node4</title>
<path fill="none" stroke="midnightblue" d="M280.391,-64C295.431,-64 311.377,-64 325.998,-64"/>
<polygon fill="midnightblue" stroke="midnightblue" points="280.15,-60.5001 270.15,-64 280.15,-67.5001 280.15,-60.5001"/>
</g>
<!-- Node5 -->
<g id="node5" class="node"><title>Node5</title>
<g id="a_node5"><a xlink:href="structdsp_1_1StateVariableFilter_1_1Parameters.html" target="_top" xlink:title="dsp::StateVariableFilter\l::Parameters\&lt; NumericType \&gt;">
<polygon fill="none" stroke="black" points="306.5,-0 306.5,-30 455.5,-30 455.5,-0 306.5,-0"/>
<text text-anchor="start" x="314.5" y="-18" font-family="Helvetica,sans-Serif" font-size="10.00">dsp::StateVariableFilter</text>
<text text-anchor="middle" x="381" y="-7" font-family="Helvetica,sans-Serif" font-size="10.00">::Parameters&lt; NumericType &gt;</text>
</a>
</g>
</g>
<!-- Node1&#45;&gt;Node5 -->
<g id="edge4" class="edge"><title>Node1&#45;&gt;Node5</title>
<path fill="none" stroke="midnightblue" d="M259.467,-51.4574C281.054,-44.9281 307.604,-36.8976 330.286,-30.037"/>
<polygon fill="midnightblue" stroke="midnightblue" points="258.178,-48.1907 249.62,-54.436 260.205,-54.8909 258.178,-48.1907"/>
</g>
<!-- Node2 -->
<g id="node2" class="node"><title>Node2</title>
<g id="a_node2"><a xlink:href="classReferenceCountedObject.html" target="_top" xlink:title="A base class which provides methods for reference&#45;counting. ">
<polygon fill="none" stroke="black" points="0.5,-54.5 0.5,-73.5 127.5,-73.5 127.5,-54.5 0.5,-54.5"/>
<text text-anchor="middle" x="64" y="-61.5" font-family="Helvetica,sans-Serif" font-size="10.00">ReferenceCountedObject</text>
</a>
</g>
</g>
<!-- Node2&#45;&gt;Node1 -->
<g id="edge1" class="edge"><title>Node2&#45;&gt;Node1</title>
<path fill="none" stroke="midnightblue" d="M137.921,-64C146.648,-64 155.421,-64 163.773,-64"/>
<polygon fill="midnightblue" stroke="midnightblue" points="137.726,-60.5001 127.726,-64 137.726,-67.5001 137.726,-60.5001"/>
</g>
</g>
</svg>
