<?xml version="1.0" encoding="UTF-8" standalone="no"?>
<!DOCTYPE svg PUBLIC "-//W3C//DTD SVG 1.1//EN"
 "http://www.w3.org/Graphics/SVG/1.1/DTD/svg11.dtd">
<!-- Generated by graphviz version 2.36.0 (20140111.2315)
 -->
<!-- Title: ProcessorState Pages: 1 -->
<svg width="442pt" height="136pt"
 viewBox="0.00 0.00 442.00 136.00" xmlns="http://www.w3.org/2000/svg" xmlns:xlink="http://www.w3.org/1999/xlink">
<g id="graph0" class="graph" transform="scale(1 1) rotate(0) translate(4 132)">
<title>ProcessorState</title>
<!-- Node1 -->
<g id="node1" class="node"><title>Node1</title>
<polygon fill="#bfbfbf" stroke="black" points="164,-54.5 164,-73.5 248,-73.5 248,-54.5 164,-54.5"/>
<text text-anchor="middle" x="206" y="-61.5" font-family="Helvetica,sans-Serif" font-size="10.00">ProcessorState</text>
</g>
<!-- Node3 -->
<g id="node3" class="node"><title>Node3</title>
<g id="a_node3"><a xlink:href="structFIR_1_1Coefficients.html" target="_top" xlink:title="A set of coefficients for use in an FIRFilter object. ">
<polygon fill="none" stroke="black" points="310,-98 310,-128 408,-128 408,-98 310,-98"/>
<text text-anchor="start" x="318" y="-116" font-family="Helvetica,sans-Serif" font-size="10.00">FIR::Coefficients&lt;</text>
<text text-anchor="middle" x="359" y="-105" font-family="Helvetica,sans-Serif" font-size="10.00"> NumericType &gt;</text>
</a>
</g>
</g>
<!-- Node1&#45;&gt;Node3 -->
<g id="edge2" class="edge"><title>Node1&#45;&gt;Node3</title>
<path fill="none" stroke="midnightblue" d="M246.199,-76.7202C266.22,-83.2172 290.711,-91.1645 311.662,-97.963"/>
<polygon fill="midnightblue" stroke="midnightblue" points="247.065,-73.3216 236.473,-73.564 244.904,-79.9798 247.065,-73.3216"/>
</g>
<!-- Node4 -->
<g id="node4" class="node"><title>Node4</title>
<g id="a_node4"><a xlink:href="structIIR_1_1Coefficients.html" target="_top" xlink:title="A set of coefficients for use in an Filter object. ">
<polygon fill="none" stroke="black" points="311.5,-49 311.5,-79 406.5,-79 406.5,-49 311.5,-49"/>
<text text-anchor="start" x="319.5" y="-67" font-family="Helvetica,sans-Serif" font-size="10.00">IIR::Coefficients&lt;</text>
<text text-anchor="middle" x="359" y="-56" font-family="Helvetica,sans-Serif" font-size="10.00"> NumericType &gt;</text>
</a>
</g>
</g>
<!-- Node1&#45;&gt;Node4 -->
<g id="edge3" class="edge"><title>Node1&#45;&gt;Node4</title>
<path fill="none" stroke="midnightblue" d="M258.655,-64C275.786,-64 294.741,-64 311.463,-64"/>
<polygon fill="midnightblue" stroke="midnightblue" points="258.261,-60.5001 248.261,-64 258.261,-67.5001 258.261,-60.5001"/>
</g>
<!-- Node5 -->
<g id="node5" class="node"><title>Node5</title>
<g id="a_node5"><a xlink:href="structStateVariableFilter_1_1Parameters.html" target="_top" xlink:title="StateVariableFilter\l::Parameters\&lt; NumericType \&gt;">
<polygon fill="none" stroke="black" points="284.5,-0 284.5,-30 433.5,-30 433.5,-0 284.5,-0"/>
<text text-anchor="start" x="292.5" y="-18" font-family="Helvetica,sans-Serif" font-size="10.00">StateVariableFilter</text>
<text text-anchor="middle" x="359" y="-7" font-family="Helvetica,sans-Serif" font-size="10.00">::Parameters&lt; NumericType &gt;</text>
</a>
</g>
</g>
<!-- Node1&#45;&gt;Node5 -->
<g id="edge4" class="edge"><title>Node1&#45;&gt;Node5</title>
<path fill="none" stroke="midnightblue" d="M246.406,-51.2032C258.47,-47.2862 271.78,-42.9653 284,-39 292.864,-36.1236 302.326,-33.0542 311.419,-30.1049"/>
<polygon fill="midnightblue" stroke="midnightblue" points="245.047,-47.9645 236.617,-54.3818 247.209,-54.6223 245.047,-47.9645"/>
</g>
<!-- Node2 -->
<g id="node2" class="node"><title>Node2</title>
<g id="a_node2"><a xlink:href="classReferenceCountedObject.html" target="_top" xlink:title="A base class which provides methods for reference&#45;counting. ">
<polygon fill="none" stroke="black" points="0.5,-54.5 0.5,-73.5 127.5,-73.5 127.5,-54.5 0.5,-54.5"/>
<text text-anchor="middle" x="64" y="-61.5" font-family="Helvetica,sans-Serif" font-size="10.00">ReferenceCountedObject</text>
</a>
</g>
</g>
<!-- Node2&#45;&gt;Node1 -->
<g id="edge1" class="edge"><title>Node2&#45;&gt;Node1</title>
<path fill="none" stroke="midnightblue" d="M137.7,-64C146.625,-64 155.491,-64 163.717,-64"/>
<polygon fill="midnightblue" stroke="midnightblue" points="137.629,-60.5001 127.629,-64 137.629,-67.5001 137.629,-60.5001"/>
</g>
</g>
</svg>
