<?xml version="1.0" encoding="UTF-8" standalone="no"?>
<!DOCTYPE svg PUBLIC "-//W3C//DTD SVG 1.1//EN"
 "http://www.w3.org/Graphics/SVG/1.1/DTD/svg11.dtd">
<!-- Generated by graphviz version 2.36.0 (20140111.2315)
 -->
<!-- Title: ImageButton::LookAndFeelMethods Pages: 1 -->
<svg width="207pt" height="264pt"
 viewBox="0.00 0.00 207.00 264.00" xmlns="http://www.w3.org/2000/svg" xmlns:xlink="http://www.w3.org/1999/xlink">
<g id="graph0" class="graph" transform="scale(1 1) rotate(0) translate(4 260)">
<title>ImageButton::LookAndFeelMethods</title>
<!-- Node1 -->
<g id="node1" class="node"><title>Node1</title>
<polygon fill="#bfbfbf" stroke="black" points="31.5,-225 31.5,-255 166.5,-255 166.5,-225 31.5,-225"/>
<text text-anchor="start" x="39.5" y="-243" font-family="Helvetica,sans-Serif" font-size="10.00">ImageButton::LookAndFeel</text>
<text text-anchor="middle" x="99" y="-232" font-family="Helvetica,sans-Serif" font-size="10.00">Methods</text>
</g>
<!-- Node2 -->
<g id="node2" class="node"><title>Node2</title>
<g id="a_node2"><a xlink:href="classLookAndFeel.html" target="_top" xlink:title="LookAndFeel objects define the appearance of all the JUCE widgets, and subclasses can be used to appl...">
<polygon fill="none" stroke="black" points="62,-168.5 62,-187.5 136,-187.5 136,-168.5 62,-168.5"/>
<text text-anchor="middle" x="99" y="-175.5" font-family="Helvetica,sans-Serif" font-size="10.00">LookAndFeel</text>
</a>
</g>
</g>
<!-- Node1&#45;&gt;Node2 -->
<g id="edge1" class="edge"><title>Node1&#45;&gt;Node2</title>
<path fill="none" stroke="midnightblue" d="M99,-214.586C99,-205.074 99,-194.786 99,-187.731"/>
<polygon fill="midnightblue" stroke="midnightblue" points="95.5001,-214.781 99,-224.781 102.5,-214.781 95.5001,-214.781"/>
</g>
<!-- Node3 -->
<g id="node3" class="node"><title>Node3</title>
<g id="a_node3"><a xlink:href="classLookAndFeel__V2.html" target="_top" xlink:title="This LookAndFeel subclass implements the juce style from around 2008&#45;12. ">
<polygon fill="none" stroke="black" points="53.5,-112.5 53.5,-131.5 144.5,-131.5 144.5,-112.5 53.5,-112.5"/>
<text text-anchor="middle" x="99" y="-119.5" font-family="Helvetica,sans-Serif" font-size="10.00">LookAndFeel_V2</text>
</a>
</g>
</g>
<!-- Node2&#45;&gt;Node3 -->
<g id="edge2" class="edge"><title>Node2&#45;&gt;Node3</title>
<path fill="none" stroke="midnightblue" d="M99,-157.805C99,-148.91 99,-138.78 99,-131.751"/>
<polygon fill="midnightblue" stroke="midnightblue" points="95.5001,-158.083 99,-168.083 102.5,-158.083 95.5001,-158.083"/>
</g>
<!-- Node4 -->
<g id="node4" class="node"><title>Node4</title>
<g id="a_node4"><a xlink:href="classLookAndFeel__V1.html" target="_top" xlink:title="The original JUCE look&#45;and&#45;feel, as used back from 2002 to about 2007ish. ">
<polygon fill="none" stroke="black" points="-0.5,-56.5 -0.5,-75.5 90.5,-75.5 90.5,-56.5 -0.5,-56.5"/>
<text text-anchor="middle" x="45" y="-63.5" font-family="Helvetica,sans-Serif" font-size="10.00">LookAndFeel_V1</text>
</a>
</g>
</g>
<!-- Node3&#45;&gt;Node4 -->
<g id="edge3" class="edge"><title>Node3&#45;&gt;Node4</title>
<path fill="none" stroke="midnightblue" d="M83.0024,-105.002C73.4329,-95.4329 61.6389,-83.6389 53.7511,-75.7511"/>
<polygon fill="midnightblue" stroke="midnightblue" points="80.537,-107.487 90.083,-112.083 85.4868,-102.537 80.537,-107.487"/>
</g>
<!-- Node5 -->
<g id="node5" class="node"><title>Node5</title>
<g id="a_node5"><a xlink:href="classLookAndFeel__V3.html" target="_top" xlink:title="The latest JUCE look&#45;and&#45;feel style, as introduced in 2013. ">
<polygon fill="none" stroke="black" points="108.5,-56.5 108.5,-75.5 199.5,-75.5 199.5,-56.5 108.5,-56.5"/>
<text text-anchor="middle" x="154" y="-63.5" font-family="Helvetica,sans-Serif" font-size="10.00">LookAndFeel_V3</text>
</a>
</g>
</g>
<!-- Node3&#45;&gt;Node5 -->
<g id="edge4" class="edge"><title>Node3&#45;&gt;Node5</title>
<path fill="none" stroke="midnightblue" d="M115.294,-105.002C125.041,-95.4329 137.053,-83.6389 145.087,-75.7511"/>
<polygon fill="midnightblue" stroke="midnightblue" points="112.766,-102.58 108.082,-112.083 117.67,-107.575 112.766,-102.58"/>
</g>
<!-- Node6 -->
<g id="node6" class="node"><title>Node6</title>
<g id="a_node6"><a xlink:href="classLookAndFeel__V4.html" target="_top" xlink:title="LookAndFeel_V4">
<polygon fill="none" stroke="black" points="108.5,-0.5 108.5,-19.5 199.5,-19.5 199.5,-0.5 108.5,-0.5"/>
<text text-anchor="middle" x="154" y="-7.5" font-family="Helvetica,sans-Serif" font-size="10.00">LookAndFeel_V4</text>
</a>
</g>
</g>
<!-- Node5&#45;&gt;Node6 -->
<g id="edge5" class="edge"><title>Node5&#45;&gt;Node6</title>
<path fill="none" stroke="midnightblue" d="M154,-45.8045C154,-36.9102 154,-26.7798 154,-19.7511"/>
<polygon fill="midnightblue" stroke="midnightblue" points="150.5,-46.083 154,-56.083 157.5,-46.083 150.5,-46.083"/>
</g>
</g>
</svg>
