<?xml version="1.0" encoding="UTF-8" standalone="no"?>
<!DOCTYPE svg PUBLIC "-//W3C//DTD SVG 1.1//EN"
 "http://www.w3.org/Graphics/SVG/1.1/DTD/svg11.dtd">
<!-- Generated by graphviz version 2.36.0 (20140111.2315)
 -->
<!-- Title: juce::dsp::FIR::Coefficients&lt; NumericType &gt; Pages: 1 -->
<svg width="158pt" height="152pt"
 viewBox="0.00 0.00 158.00 152.00" xmlns="http://www.w3.org/2000/svg" xmlns:xlink="http://www.w3.org/1999/xlink">
<g id="graph0" class="graph" transform="scale(1 1) rotate(0) translate(4 148)">
<title>juce::dsp::FIR::Coefficients&lt; NumericType &gt;</title>
<!-- Node1 -->
<g id="node1" class="node"><title>Node1</title>
<polygon fill="#bfbfbf" stroke="black" points="6.5,-1 6.5,-31 143.5,-31 143.5,-1 6.5,-1"/>
<text text-anchor="start" x="14.5" y="-19" font-family="Helvetica,sans-Serif" font-size="10.00">juce::dsp::FIR::Coefficients</text>
<text text-anchor="middle" x="75" y="-8" font-family="Helvetica,sans-Serif" font-size="10.00">&lt; NumericType &gt;</text>
</g>
<!-- Node2 -->
<g id="node2" class="node"><title>Node2</title>
<g id="a_node2"><a xlink:href="structjuce_1_1dsp_1_1ProcessorState.html" target="_top" xlink:title="This is a handy base class for the state of a processor (such as parameter values) which is typically...">
<polygon fill="none" stroke="black" points="10,-68.5 10,-87.5 140,-87.5 140,-68.5 10,-68.5"/>
<text text-anchor="middle" x="75" y="-75.5" font-family="Helvetica,sans-Serif" font-size="10.00">juce::dsp::ProcessorState</text>
</a>
</g>
</g>
<!-- Node2&#45;&gt;Node1 -->
<g id="edge1" class="edge"><title>Node2&#45;&gt;Node1</title>
<path fill="none" stroke="midnightblue" d="M75,-58.3707C75,-49.5849 75,-39.2721 75,-31.1408"/>
<polygon fill="midnightblue" stroke="midnightblue" points="71.5001,-58.4034 75,-68.4035 78.5001,-58.4035 71.5001,-58.4034"/>
</g>
<!-- Node3 -->
<g id="node3" class="node"><title>Node3</title>
<g id="a_node3"><a xlink:href="classjuce_1_1ReferenceCountedObject.html" target="_top" xlink:title="A base class which provides methods for reference&#45;counting. ">
<polygon fill="none" stroke="black" points="-0.5,-124.5 -0.5,-143.5 150.5,-143.5 150.5,-124.5 -0.5,-124.5"/>
<text text-anchor="middle" x="75" y="-131.5" font-family="Helvetica,sans-Serif" font-size="10.00">juce::ReferenceCountedObject</text>
</a>
</g>
</g>
<!-- Node3&#45;&gt;Node2 -->
<g id="edge2" class="edge"><title>Node3&#45;&gt;Node2</title>
<path fill="none" stroke="midnightblue" d="M75,-113.805C75,-104.91 75,-94.7798 75,-87.7511"/>
<polygon fill="midnightblue" stroke="midnightblue" points="71.5001,-114.083 75,-124.083 78.5001,-114.083 71.5001,-114.083"/>
</g>
</g>
</svg>
